G04 (created by PCBNEW (2013-may-18)-stable) date Tue 21 Oct 2014 06:54:13 PM CEST*
%MOIN*%
G04 Gerber Fmt 3.4, Leading zero omitted, Abs format*
%FSLAX34Y34*%
G01*
G70*
G90*
G04 APERTURE LIST*
%ADD10C,0.00590551*%
%ADD11C,0.00787402*%
%ADD12C,0.011811*%
%ADD13C,0.005*%
%ADD14C,0.008*%
%ADD15C,0.012*%
%ADD16C,0.0047*%
%ADD17C,0.00344488*%
%ADD18C,0.0039*%
%ADD19C,0.0045*%
%ADD20C,0.01*%
G04 APERTURE END LIST*
G54D10*
G54D11*
X58750Y-35000D02*
X58750Y-13500D01*
X39250Y-35000D02*
X58750Y-35000D01*
X39250Y-13500D02*
X39250Y-35000D01*
X58750Y-13500D02*
X39250Y-13500D01*
G54D12*
X56648Y-30695D02*
X56648Y-30582D01*
X56676Y-30526D01*
X56732Y-30470D01*
X56845Y-30442D01*
X57042Y-30442D01*
X57154Y-30470D01*
X57210Y-30526D01*
X57239Y-30582D01*
X57239Y-30695D01*
X57210Y-30751D01*
X57154Y-30807D01*
X57042Y-30835D01*
X56845Y-30835D01*
X56732Y-30807D01*
X56676Y-30751D01*
X56648Y-30695D01*
X56845Y-29935D02*
X57239Y-29935D01*
X56845Y-30188D02*
X57154Y-30188D01*
X57210Y-30160D01*
X57239Y-30104D01*
X57239Y-30020D01*
X57210Y-29964D01*
X57182Y-29935D01*
X56845Y-29739D02*
X56845Y-29514D01*
X56648Y-29654D02*
X57154Y-29654D01*
X57210Y-29626D01*
X57239Y-29570D01*
X57239Y-29514D01*
X56845Y-29317D02*
X57435Y-29317D01*
X56873Y-29317D02*
X56845Y-29260D01*
X56845Y-29148D01*
X56873Y-29092D01*
X56901Y-29064D01*
X56957Y-29035D01*
X57126Y-29035D01*
X57182Y-29064D01*
X57210Y-29092D01*
X57239Y-29148D01*
X57239Y-29260D01*
X57210Y-29317D01*
X56845Y-28529D02*
X57239Y-28529D01*
X56845Y-28782D02*
X57154Y-28782D01*
X57210Y-28754D01*
X57239Y-28698D01*
X57239Y-28614D01*
X57210Y-28557D01*
X57182Y-28529D01*
X56845Y-28332D02*
X56845Y-28107D01*
X56648Y-28248D02*
X57154Y-28248D01*
X57210Y-28220D01*
X57239Y-28164D01*
X57239Y-28107D01*
X41489Y-30470D02*
X40898Y-30470D01*
X41095Y-30188D02*
X41489Y-30188D01*
X41151Y-30188D02*
X41123Y-30160D01*
X41095Y-30104D01*
X41095Y-30020D01*
X41123Y-29964D01*
X41179Y-29935D01*
X41489Y-29935D01*
X41095Y-29654D02*
X41685Y-29654D01*
X41123Y-29654D02*
X41095Y-29598D01*
X41095Y-29485D01*
X41123Y-29429D01*
X41151Y-29401D01*
X41207Y-29373D01*
X41376Y-29373D01*
X41432Y-29401D01*
X41460Y-29429D01*
X41489Y-29485D01*
X41489Y-29598D01*
X41460Y-29654D01*
X41095Y-28867D02*
X41489Y-28867D01*
X41095Y-29120D02*
X41404Y-29120D01*
X41460Y-29092D01*
X41489Y-29035D01*
X41489Y-28951D01*
X41460Y-28895D01*
X41432Y-28867D01*
X41095Y-28670D02*
X41095Y-28445D01*
X40898Y-28586D02*
X41404Y-28586D01*
X41460Y-28557D01*
X41489Y-28501D01*
X41489Y-28445D01*
G54D13*
X56125Y-34475D02*
X56125Y-28275D01*
X49875Y-28275D02*
X49875Y-34475D01*
X49875Y-34475D02*
X56125Y-34475D01*
X56125Y-28275D02*
X49875Y-28275D01*
X48125Y-28275D02*
X48125Y-34475D01*
X41875Y-34475D02*
X41875Y-28275D01*
X41875Y-34475D02*
X48125Y-34475D01*
X41875Y-28275D02*
X48125Y-28275D01*
G54D11*
X40940Y-14400D02*
G75*
G03X40940Y-14400I-790J0D01*
G74*
G01*
X40913Y-34100D02*
G75*
G03X40913Y-34100I-763J0D01*
G74*
G01*
X58611Y-34100D02*
G75*
G03X58611Y-34100I-761J0D01*
G74*
G01*
X58613Y-14400D02*
G75*
G03X58613Y-14400I-763J0D01*
G74*
G01*
X43100Y-13850D02*
X43000Y-13850D01*
X43000Y-13850D02*
X43000Y-16250D01*
X55000Y-16250D02*
X55000Y-13850D01*
X55000Y-13850D02*
X43100Y-13850D01*
X52400Y-16250D02*
X52400Y-14450D01*
X52400Y-14450D02*
X52900Y-13950D01*
X52900Y-13950D02*
X53700Y-13950D01*
X53700Y-13950D02*
X54200Y-14450D01*
X54200Y-14450D02*
X54200Y-16250D01*
X43800Y-16250D02*
X43800Y-14450D01*
X43800Y-14450D02*
X44300Y-13950D01*
X44300Y-13950D02*
X45200Y-13950D01*
X45200Y-13950D02*
X45700Y-14450D01*
X45700Y-14450D02*
X45700Y-16250D01*
X43000Y-16250D02*
X55000Y-16250D01*
G54D13*
X43150Y-24000D02*
X44850Y-24000D01*
X43150Y-26450D02*
X44850Y-26450D01*
X44850Y-26450D02*
X44850Y-23550D01*
X44850Y-23550D02*
X43150Y-23550D01*
X43150Y-23550D02*
X43150Y-26450D01*
X47375Y-20775D02*
X47375Y-21035D01*
X46625Y-20775D02*
X46625Y-21035D01*
X47000Y-20225D02*
X47000Y-19965D01*
X46410Y-20225D02*
X47590Y-20225D01*
X47590Y-20225D02*
X47590Y-20775D01*
X47590Y-20775D02*
X46410Y-20775D01*
X46410Y-20775D02*
X46410Y-20225D01*
X56375Y-20775D02*
X56375Y-21035D01*
X55625Y-20775D02*
X55625Y-21035D01*
X56000Y-20225D02*
X56000Y-19965D01*
X55410Y-20225D02*
X56590Y-20225D01*
X56590Y-20225D02*
X56590Y-20775D01*
X56590Y-20775D02*
X55410Y-20775D01*
X55410Y-20775D02*
X55410Y-20225D01*
X48875Y-20775D02*
X48875Y-21035D01*
X48125Y-20775D02*
X48125Y-21035D01*
X48500Y-20225D02*
X48500Y-19965D01*
X47910Y-20225D02*
X49090Y-20225D01*
X49090Y-20225D02*
X49090Y-20775D01*
X49090Y-20775D02*
X47910Y-20775D01*
X47910Y-20775D02*
X47910Y-20225D01*
X54875Y-20775D02*
X54875Y-21035D01*
X54125Y-20775D02*
X54125Y-21035D01*
X54500Y-20225D02*
X54500Y-19965D01*
X53910Y-20225D02*
X55090Y-20225D01*
X55090Y-20225D02*
X55090Y-20775D01*
X55090Y-20775D02*
X53910Y-20775D01*
X53910Y-20775D02*
X53910Y-20225D01*
X45875Y-20775D02*
X45875Y-21035D01*
X45125Y-20775D02*
X45125Y-21035D01*
X45500Y-20225D02*
X45500Y-19965D01*
X44910Y-20225D02*
X46090Y-20225D01*
X46090Y-20225D02*
X46090Y-20775D01*
X46090Y-20775D02*
X44910Y-20775D01*
X44910Y-20775D02*
X44910Y-20225D01*
X53375Y-20775D02*
X53375Y-21035D01*
X52625Y-20775D02*
X52625Y-21035D01*
X53000Y-20225D02*
X53000Y-19965D01*
X52410Y-20225D02*
X53590Y-20225D01*
X53590Y-20225D02*
X53590Y-20775D01*
X53590Y-20775D02*
X52410Y-20775D01*
X52410Y-20775D02*
X52410Y-20225D01*
X51875Y-20775D02*
X51875Y-21035D01*
X51125Y-20775D02*
X51125Y-21035D01*
X51500Y-20225D02*
X51500Y-19965D01*
X50910Y-20225D02*
X52090Y-20225D01*
X52090Y-20225D02*
X52090Y-20775D01*
X52090Y-20775D02*
X50910Y-20775D01*
X50910Y-20775D02*
X50910Y-20225D01*
X50375Y-20775D02*
X50375Y-21035D01*
X49625Y-20775D02*
X49625Y-21035D01*
X50000Y-20225D02*
X50000Y-19965D01*
X49410Y-20225D02*
X50590Y-20225D01*
X50590Y-20225D02*
X50590Y-20775D01*
X50590Y-20775D02*
X49410Y-20775D01*
X49410Y-20775D02*
X49410Y-20225D01*
X41896Y-22185D02*
X41896Y-22815D01*
X41856Y-22815D02*
X41856Y-22185D01*
X42801Y-22815D02*
X41699Y-22815D01*
X41699Y-22815D02*
X41699Y-22185D01*
X41699Y-22185D02*
X42801Y-22185D01*
X42801Y-22185D02*
X42801Y-22815D01*
G54D14*
X52900Y-25950D02*
X48600Y-25950D01*
X48600Y-25950D02*
X48600Y-24550D01*
X48600Y-24550D02*
X52900Y-24550D01*
X52900Y-24550D02*
X52900Y-25950D01*
X52900Y-25450D02*
X52600Y-25450D01*
X52600Y-25450D02*
X52600Y-25050D01*
X52600Y-25050D02*
X52900Y-25050D01*
G54D13*
X51050Y-19500D02*
X51950Y-19500D01*
X51950Y-19500D02*
X51950Y-18850D01*
X51050Y-18150D02*
X51050Y-17500D01*
X51050Y-17500D02*
X51950Y-17500D01*
X51950Y-17500D02*
X51950Y-18150D01*
X51050Y-18850D02*
X51050Y-19500D01*
X48050Y-19500D02*
X48950Y-19500D01*
X48950Y-19500D02*
X48950Y-18850D01*
X48050Y-18150D02*
X48050Y-17500D01*
X48050Y-17500D02*
X48950Y-17500D01*
X48950Y-17500D02*
X48950Y-18150D01*
X48050Y-18850D02*
X48050Y-19500D01*
X49550Y-19500D02*
X50450Y-19500D01*
X50450Y-19500D02*
X50450Y-18850D01*
X49550Y-18150D02*
X49550Y-17500D01*
X49550Y-17500D02*
X50450Y-17500D01*
X50450Y-17500D02*
X50450Y-18150D01*
X49550Y-18850D02*
X49550Y-19500D01*
X46550Y-19500D02*
X47450Y-19500D01*
X47450Y-19500D02*
X47450Y-18850D01*
X46550Y-18150D02*
X46550Y-17500D01*
X46550Y-17500D02*
X47450Y-17500D01*
X47450Y-17500D02*
X47450Y-18150D01*
X46550Y-18850D02*
X46550Y-19500D01*
X52550Y-19500D02*
X53450Y-19500D01*
X53450Y-19500D02*
X53450Y-18850D01*
X52550Y-18150D02*
X52550Y-17500D01*
X52550Y-17500D02*
X53450Y-17500D01*
X53450Y-17500D02*
X53450Y-18150D01*
X52550Y-18850D02*
X52550Y-19500D01*
X54050Y-19500D02*
X54950Y-19500D01*
X54950Y-19500D02*
X54950Y-18850D01*
X54050Y-18150D02*
X54050Y-17500D01*
X54050Y-17500D02*
X54950Y-17500D01*
X54950Y-17500D02*
X54950Y-18150D01*
X54050Y-18850D02*
X54050Y-19500D01*
X55550Y-19500D02*
X56450Y-19500D01*
X56450Y-19500D02*
X56450Y-18850D01*
X55550Y-18150D02*
X55550Y-17500D01*
X55550Y-17500D02*
X56450Y-17500D01*
X56450Y-17500D02*
X56450Y-18150D01*
X55550Y-18850D02*
X55550Y-19500D01*
X45050Y-19500D02*
X45950Y-19500D01*
X45950Y-19500D02*
X45950Y-18850D01*
X45050Y-18150D02*
X45050Y-17500D01*
X45050Y-17500D02*
X45950Y-17500D01*
X45950Y-17500D02*
X45950Y-18150D01*
X45050Y-18850D02*
X45050Y-19500D01*
X42000Y-16200D02*
X42000Y-15300D01*
X42000Y-15300D02*
X42500Y-15300D01*
X42500Y-15300D02*
X42500Y-16200D01*
X42500Y-16200D02*
X42000Y-16200D01*
X56250Y-21550D02*
X56250Y-22450D01*
X56250Y-22450D02*
X55750Y-22450D01*
X55750Y-22450D02*
X55750Y-21550D01*
X55750Y-21550D02*
X56250Y-21550D01*
X40250Y-21300D02*
X40250Y-22200D01*
X40250Y-22200D02*
X39750Y-22200D01*
X39750Y-22200D02*
X39750Y-21300D01*
X39750Y-21300D02*
X40250Y-21300D01*
X54750Y-21550D02*
X54750Y-22450D01*
X54750Y-22450D02*
X54250Y-22450D01*
X54250Y-22450D02*
X54250Y-21550D01*
X54250Y-21550D02*
X54750Y-21550D01*
X53250Y-21550D02*
X53250Y-22450D01*
X53250Y-22450D02*
X52750Y-22450D01*
X52750Y-22450D02*
X52750Y-21550D01*
X52750Y-21550D02*
X53250Y-21550D01*
X51750Y-21550D02*
X51750Y-22450D01*
X51750Y-22450D02*
X51250Y-22450D01*
X51250Y-22450D02*
X51250Y-21550D01*
X51250Y-21550D02*
X51750Y-21550D01*
X42000Y-14700D02*
X42000Y-13800D01*
X42000Y-13800D02*
X42500Y-13800D01*
X42500Y-13800D02*
X42500Y-14700D01*
X42500Y-14700D02*
X42000Y-14700D01*
X41250Y-16200D02*
X41250Y-15300D01*
X41250Y-15300D02*
X41750Y-15300D01*
X41750Y-15300D02*
X41750Y-16200D01*
X41750Y-16200D02*
X41250Y-16200D01*
X50250Y-21550D02*
X50250Y-22450D01*
X50250Y-22450D02*
X49750Y-22450D01*
X49750Y-22450D02*
X49750Y-21550D01*
X49750Y-21550D02*
X50250Y-21550D01*
X41250Y-14700D02*
X41250Y-13800D01*
X41250Y-13800D02*
X41750Y-13800D01*
X41750Y-13800D02*
X41750Y-14700D01*
X41750Y-14700D02*
X41250Y-14700D01*
X53050Y-26000D02*
X53950Y-26000D01*
X53950Y-26000D02*
X53950Y-26500D01*
X53950Y-26500D02*
X53050Y-26500D01*
X53050Y-26500D02*
X53050Y-26000D01*
X48750Y-21550D02*
X48750Y-22450D01*
X48750Y-22450D02*
X48250Y-22450D01*
X48250Y-22450D02*
X48250Y-21550D01*
X48250Y-21550D02*
X48750Y-21550D01*
X45750Y-21550D02*
X45750Y-22450D01*
X45750Y-22450D02*
X45250Y-22450D01*
X45250Y-22450D02*
X45250Y-21550D01*
X45250Y-21550D02*
X45750Y-21550D01*
X47250Y-21550D02*
X47250Y-22450D01*
X47250Y-22450D02*
X46750Y-22450D01*
X46750Y-22450D02*
X46750Y-21550D01*
X46750Y-21550D02*
X47250Y-21550D01*
X42550Y-20400D02*
X42550Y-21650D01*
X42550Y-21650D02*
X43250Y-21650D01*
X43250Y-21650D02*
X43250Y-20400D01*
X40750Y-20400D02*
X40750Y-21650D01*
X40750Y-21650D02*
X41450Y-21650D01*
X41450Y-21650D02*
X41450Y-20400D01*
X43350Y-18000D02*
X43350Y-20400D01*
X43350Y-20400D02*
X40650Y-20400D01*
X40650Y-20400D02*
X40650Y-17300D01*
X40650Y-17250D02*
X43350Y-17250D01*
X43350Y-17300D02*
X43350Y-18000D01*
X40650Y-24000D02*
X42350Y-24000D01*
X40650Y-26450D02*
X42350Y-26450D01*
X42350Y-26450D02*
X42350Y-23550D01*
X42350Y-23550D02*
X40650Y-23550D01*
X40650Y-23550D02*
X40650Y-26450D01*
X44250Y-21300D02*
X44250Y-22200D01*
X44250Y-22200D02*
X43750Y-22200D01*
X43750Y-22200D02*
X43750Y-21300D01*
X43750Y-21300D02*
X44250Y-21300D01*
X55396Y-26685D02*
X55396Y-27315D01*
X55356Y-27315D02*
X55356Y-26685D01*
X56301Y-27315D02*
X55199Y-27315D01*
X55199Y-27315D02*
X55199Y-26685D01*
X55199Y-26685D02*
X56301Y-26685D01*
X56301Y-26685D02*
X56301Y-27315D01*
X47104Y-27315D02*
X47104Y-26685D01*
X47144Y-26685D02*
X47144Y-27315D01*
X46199Y-26685D02*
X47301Y-26685D01*
X47301Y-26685D02*
X47301Y-27315D01*
X47301Y-27315D02*
X46199Y-27315D01*
X46199Y-27315D02*
X46199Y-26685D01*
X47104Y-25815D02*
X47104Y-25185D01*
X47144Y-25185D02*
X47144Y-25815D01*
X46199Y-25185D02*
X47301Y-25185D01*
X47301Y-25185D02*
X47301Y-25815D01*
X47301Y-25815D02*
X46199Y-25815D01*
X46199Y-25815D02*
X46199Y-25185D01*
X55396Y-25935D02*
X55396Y-26565D01*
X55356Y-26565D02*
X55356Y-25935D01*
X56301Y-26565D02*
X55199Y-26565D01*
X55199Y-26565D02*
X55199Y-25935D01*
X55199Y-25935D02*
X56301Y-25935D01*
X56301Y-25935D02*
X56301Y-26565D01*
X47104Y-26565D02*
X47104Y-25935D01*
X47144Y-25935D02*
X47144Y-26565D01*
X46199Y-25935D02*
X47301Y-25935D01*
X47301Y-25935D02*
X47301Y-26565D01*
X47301Y-26565D02*
X46199Y-26565D01*
X46199Y-26565D02*
X46199Y-25935D01*
X51500Y-27950D02*
X51500Y-27050D01*
X51500Y-27050D02*
X52000Y-27050D01*
X52000Y-27050D02*
X52000Y-27950D01*
X52000Y-27950D02*
X51500Y-27950D01*
X50000Y-27950D02*
X50000Y-27050D01*
X50000Y-27050D02*
X50500Y-27050D01*
X50500Y-27050D02*
X50500Y-27950D01*
X50500Y-27950D02*
X50000Y-27950D01*
X49250Y-27950D02*
X49250Y-27050D01*
X49250Y-27050D02*
X49750Y-27050D01*
X49750Y-27050D02*
X49750Y-27950D01*
X49750Y-27950D02*
X49250Y-27950D01*
X50750Y-27950D02*
X50750Y-27050D01*
X50750Y-27050D02*
X51250Y-27050D01*
X51250Y-27050D02*
X51250Y-27950D01*
X51250Y-27950D02*
X50750Y-27950D01*
X49000Y-27050D02*
X49000Y-27950D01*
X49000Y-27950D02*
X48500Y-27950D01*
X48500Y-27950D02*
X48500Y-27050D01*
X48500Y-27050D02*
X49000Y-27050D01*
G54D15*
X55050Y-27392D02*
X55050Y-27821D01*
X55021Y-27907D01*
X54964Y-27964D01*
X54878Y-27992D01*
X54821Y-27992D01*
X55307Y-27450D02*
X55335Y-27421D01*
X55392Y-27392D01*
X55535Y-27392D01*
X55592Y-27421D01*
X55621Y-27450D01*
X55650Y-27507D01*
X55650Y-27564D01*
X55621Y-27650D01*
X55278Y-27992D01*
X55650Y-27992D01*
X42300Y-27392D02*
X42300Y-27821D01*
X42271Y-27907D01*
X42214Y-27964D01*
X42128Y-27992D01*
X42071Y-27992D01*
X42900Y-27992D02*
X42557Y-27992D01*
X42728Y-27992D02*
X42728Y-27392D01*
X42671Y-27478D01*
X42614Y-27535D01*
X42557Y-27564D01*
X55288Y-15532D02*
X55288Y-14833D01*
X55526Y-14833D01*
X55586Y-14867D01*
X55616Y-14900D01*
X55645Y-14967D01*
X55645Y-15066D01*
X55616Y-15133D01*
X55586Y-15166D01*
X55526Y-15200D01*
X55288Y-15200D01*
X56241Y-15532D02*
X55883Y-15532D01*
X56062Y-15532D02*
X56062Y-14833D01*
X56002Y-14933D01*
X55943Y-15000D01*
X55883Y-15033D01*
G54D16*
X42985Y-25032D02*
X42995Y-25042D01*
X43004Y-25070D01*
X43004Y-25089D01*
X42995Y-25117D01*
X42976Y-25136D01*
X42957Y-25145D01*
X42920Y-25154D01*
X42892Y-25154D01*
X42854Y-25145D01*
X42835Y-25136D01*
X42817Y-25117D01*
X42807Y-25089D01*
X42807Y-25070D01*
X42817Y-25042D01*
X42826Y-25032D01*
X42873Y-24863D02*
X43004Y-24863D01*
X42798Y-24910D02*
X42939Y-24957D01*
X42939Y-24835D01*
G54D17*
X47818Y-20513D02*
X47812Y-20526D01*
X47799Y-20539D01*
X47779Y-20559D01*
X47772Y-20572D01*
X47772Y-20585D01*
X47805Y-20578D02*
X47799Y-20591D01*
X47786Y-20604D01*
X47759Y-20611D01*
X47713Y-20611D01*
X47687Y-20604D01*
X47674Y-20591D01*
X47667Y-20578D01*
X47667Y-20552D01*
X47674Y-20539D01*
X47687Y-20526D01*
X47713Y-20519D01*
X47759Y-20519D01*
X47786Y-20526D01*
X47799Y-20539D01*
X47805Y-20552D01*
X47805Y-20578D01*
X47667Y-20473D02*
X47667Y-20381D01*
X47805Y-20440D01*
X56818Y-20513D02*
X56812Y-20526D01*
X56799Y-20539D01*
X56779Y-20559D01*
X56772Y-20572D01*
X56772Y-20585D01*
X56805Y-20578D02*
X56799Y-20591D01*
X56786Y-20604D01*
X56759Y-20611D01*
X56713Y-20611D01*
X56687Y-20604D01*
X56674Y-20591D01*
X56667Y-20578D01*
X56667Y-20552D01*
X56674Y-20539D01*
X56687Y-20526D01*
X56713Y-20519D01*
X56759Y-20519D01*
X56786Y-20526D01*
X56799Y-20539D01*
X56805Y-20552D01*
X56805Y-20578D01*
X56805Y-20388D02*
X56805Y-20467D01*
X56805Y-20427D02*
X56667Y-20427D01*
X56687Y-20440D01*
X56700Y-20454D01*
X56707Y-20467D01*
X49318Y-20513D02*
X49312Y-20526D01*
X49299Y-20539D01*
X49279Y-20559D01*
X49272Y-20572D01*
X49272Y-20585D01*
X49305Y-20578D02*
X49299Y-20591D01*
X49286Y-20604D01*
X49259Y-20611D01*
X49213Y-20611D01*
X49187Y-20604D01*
X49174Y-20591D01*
X49167Y-20578D01*
X49167Y-20552D01*
X49174Y-20539D01*
X49187Y-20526D01*
X49213Y-20519D01*
X49259Y-20519D01*
X49286Y-20526D01*
X49299Y-20539D01*
X49305Y-20552D01*
X49305Y-20578D01*
X49167Y-20401D02*
X49167Y-20427D01*
X49174Y-20440D01*
X49181Y-20447D01*
X49200Y-20460D01*
X49227Y-20467D01*
X49279Y-20467D01*
X49292Y-20460D01*
X49299Y-20454D01*
X49305Y-20440D01*
X49305Y-20414D01*
X49299Y-20401D01*
X49292Y-20395D01*
X49279Y-20388D01*
X49246Y-20388D01*
X49233Y-20395D01*
X49227Y-20401D01*
X49220Y-20414D01*
X49220Y-20440D01*
X49227Y-20454D01*
X49233Y-20460D01*
X49246Y-20467D01*
X55318Y-20513D02*
X55312Y-20526D01*
X55299Y-20539D01*
X55279Y-20559D01*
X55272Y-20572D01*
X55272Y-20585D01*
X55305Y-20578D02*
X55299Y-20591D01*
X55286Y-20604D01*
X55259Y-20611D01*
X55213Y-20611D01*
X55187Y-20604D01*
X55174Y-20591D01*
X55167Y-20578D01*
X55167Y-20552D01*
X55174Y-20539D01*
X55187Y-20526D01*
X55213Y-20519D01*
X55259Y-20519D01*
X55286Y-20526D01*
X55299Y-20539D01*
X55305Y-20552D01*
X55305Y-20578D01*
X55181Y-20467D02*
X55174Y-20460D01*
X55167Y-20447D01*
X55167Y-20414D01*
X55174Y-20401D01*
X55181Y-20395D01*
X55194Y-20388D01*
X55207Y-20388D01*
X55227Y-20395D01*
X55305Y-20473D01*
X55305Y-20388D01*
X46318Y-20513D02*
X46312Y-20526D01*
X46299Y-20539D01*
X46279Y-20559D01*
X46272Y-20572D01*
X46272Y-20585D01*
X46305Y-20578D02*
X46299Y-20591D01*
X46286Y-20604D01*
X46259Y-20611D01*
X46213Y-20611D01*
X46187Y-20604D01*
X46174Y-20591D01*
X46167Y-20578D01*
X46167Y-20552D01*
X46174Y-20539D01*
X46187Y-20526D01*
X46213Y-20519D01*
X46259Y-20519D01*
X46286Y-20526D01*
X46299Y-20539D01*
X46305Y-20552D01*
X46305Y-20578D01*
X46227Y-20440D02*
X46220Y-20454D01*
X46213Y-20460D01*
X46200Y-20467D01*
X46194Y-20467D01*
X46181Y-20460D01*
X46174Y-20454D01*
X46167Y-20440D01*
X46167Y-20414D01*
X46174Y-20401D01*
X46181Y-20395D01*
X46194Y-20388D01*
X46200Y-20388D01*
X46213Y-20395D01*
X46220Y-20401D01*
X46227Y-20414D01*
X46227Y-20440D01*
X46233Y-20454D01*
X46240Y-20460D01*
X46253Y-20467D01*
X46279Y-20467D01*
X46292Y-20460D01*
X46299Y-20454D01*
X46305Y-20440D01*
X46305Y-20414D01*
X46299Y-20401D01*
X46292Y-20395D01*
X46279Y-20388D01*
X46253Y-20388D01*
X46240Y-20395D01*
X46233Y-20401D01*
X46227Y-20414D01*
X53818Y-20513D02*
X53812Y-20526D01*
X53799Y-20539D01*
X53779Y-20559D01*
X53772Y-20572D01*
X53772Y-20585D01*
X53805Y-20578D02*
X53799Y-20591D01*
X53786Y-20604D01*
X53759Y-20611D01*
X53713Y-20611D01*
X53687Y-20604D01*
X53674Y-20591D01*
X53667Y-20578D01*
X53667Y-20552D01*
X53674Y-20539D01*
X53687Y-20526D01*
X53713Y-20519D01*
X53759Y-20519D01*
X53786Y-20526D01*
X53799Y-20539D01*
X53805Y-20552D01*
X53805Y-20578D01*
X53667Y-20473D02*
X53667Y-20388D01*
X53720Y-20434D01*
X53720Y-20414D01*
X53727Y-20401D01*
X53733Y-20395D01*
X53746Y-20388D01*
X53779Y-20388D01*
X53792Y-20395D01*
X53799Y-20401D01*
X53805Y-20414D01*
X53805Y-20454D01*
X53799Y-20467D01*
X53792Y-20473D01*
X52318Y-20513D02*
X52312Y-20526D01*
X52299Y-20539D01*
X52279Y-20559D01*
X52272Y-20572D01*
X52272Y-20585D01*
X52305Y-20578D02*
X52299Y-20591D01*
X52286Y-20604D01*
X52259Y-20611D01*
X52213Y-20611D01*
X52187Y-20604D01*
X52174Y-20591D01*
X52167Y-20578D01*
X52167Y-20552D01*
X52174Y-20539D01*
X52187Y-20526D01*
X52213Y-20519D01*
X52259Y-20519D01*
X52286Y-20526D01*
X52299Y-20539D01*
X52305Y-20552D01*
X52305Y-20578D01*
X52213Y-20401D02*
X52305Y-20401D01*
X52161Y-20434D02*
X52259Y-20467D01*
X52259Y-20381D01*
X50818Y-20513D02*
X50812Y-20526D01*
X50799Y-20539D01*
X50779Y-20559D01*
X50772Y-20572D01*
X50772Y-20585D01*
X50805Y-20578D02*
X50799Y-20591D01*
X50786Y-20604D01*
X50759Y-20611D01*
X50713Y-20611D01*
X50687Y-20604D01*
X50674Y-20591D01*
X50667Y-20578D01*
X50667Y-20552D01*
X50674Y-20539D01*
X50687Y-20526D01*
X50713Y-20519D01*
X50759Y-20519D01*
X50786Y-20526D01*
X50799Y-20539D01*
X50805Y-20552D01*
X50805Y-20578D01*
X50667Y-20395D02*
X50667Y-20460D01*
X50733Y-20467D01*
X50727Y-20460D01*
X50720Y-20447D01*
X50720Y-20414D01*
X50727Y-20401D01*
X50733Y-20395D01*
X50746Y-20388D01*
X50779Y-20388D01*
X50792Y-20395D01*
X50799Y-20401D01*
X50805Y-20414D01*
X50805Y-20447D01*
X50799Y-20460D01*
X50792Y-20467D01*
G54D18*
X42134Y-23063D02*
X42134Y-22906D01*
X42171Y-22906D01*
X42193Y-22914D01*
X42208Y-22928D01*
X42216Y-22943D01*
X42223Y-22973D01*
X42223Y-22996D01*
X42216Y-23026D01*
X42208Y-23041D01*
X42193Y-23056D01*
X42171Y-23063D01*
X42134Y-23063D01*
X42283Y-22921D02*
X42291Y-22914D01*
X42306Y-22906D01*
X42343Y-22906D01*
X42358Y-22914D01*
X42365Y-22921D01*
X42373Y-22936D01*
X42373Y-22951D01*
X42365Y-22973D01*
X42276Y-23063D01*
X42373Y-23063D01*
G54D13*
X53157Y-24511D02*
X53157Y-24835D01*
X53178Y-24873D01*
X53200Y-24892D01*
X53242Y-24911D01*
X53328Y-24911D01*
X53371Y-24892D01*
X53392Y-24873D01*
X53414Y-24835D01*
X53414Y-24511D01*
X53864Y-24911D02*
X53607Y-24911D01*
X53735Y-24911D02*
X53735Y-24511D01*
X53692Y-24569D01*
X53650Y-24607D01*
X53607Y-24626D01*
X50871Y-18692D02*
X50728Y-18792D01*
X50871Y-18864D02*
X50571Y-18864D01*
X50571Y-18750D01*
X50585Y-18721D01*
X50600Y-18707D01*
X50628Y-18692D01*
X50671Y-18692D01*
X50700Y-18707D01*
X50714Y-18721D01*
X50728Y-18750D01*
X50728Y-18864D01*
X50871Y-18407D02*
X50871Y-18578D01*
X50871Y-18492D02*
X50571Y-18492D01*
X50614Y-18521D01*
X50642Y-18550D01*
X50657Y-18578D01*
X50671Y-18150D02*
X50871Y-18150D01*
X50557Y-18221D02*
X50771Y-18292D01*
X50771Y-18107D01*
X47871Y-18692D02*
X47728Y-18792D01*
X47871Y-18864D02*
X47571Y-18864D01*
X47571Y-18750D01*
X47585Y-18721D01*
X47600Y-18707D01*
X47628Y-18692D01*
X47671Y-18692D01*
X47700Y-18707D01*
X47714Y-18721D01*
X47728Y-18750D01*
X47728Y-18864D01*
X47871Y-18407D02*
X47871Y-18578D01*
X47871Y-18492D02*
X47571Y-18492D01*
X47614Y-18521D01*
X47642Y-18550D01*
X47657Y-18578D01*
X47571Y-18150D02*
X47571Y-18207D01*
X47585Y-18235D01*
X47600Y-18250D01*
X47642Y-18278D01*
X47700Y-18292D01*
X47814Y-18292D01*
X47842Y-18278D01*
X47857Y-18264D01*
X47871Y-18235D01*
X47871Y-18178D01*
X47857Y-18150D01*
X47842Y-18135D01*
X47814Y-18121D01*
X47742Y-18121D01*
X47714Y-18135D01*
X47700Y-18150D01*
X47685Y-18178D01*
X47685Y-18235D01*
X47700Y-18264D01*
X47714Y-18278D01*
X47742Y-18292D01*
X49371Y-18692D02*
X49228Y-18792D01*
X49371Y-18864D02*
X49071Y-18864D01*
X49071Y-18750D01*
X49085Y-18721D01*
X49100Y-18707D01*
X49128Y-18692D01*
X49171Y-18692D01*
X49200Y-18707D01*
X49214Y-18721D01*
X49228Y-18750D01*
X49228Y-18864D01*
X49371Y-18407D02*
X49371Y-18578D01*
X49371Y-18492D02*
X49071Y-18492D01*
X49114Y-18521D01*
X49142Y-18550D01*
X49157Y-18578D01*
X49071Y-18135D02*
X49071Y-18278D01*
X49214Y-18292D01*
X49200Y-18278D01*
X49185Y-18250D01*
X49185Y-18178D01*
X49200Y-18150D01*
X49214Y-18135D01*
X49242Y-18121D01*
X49314Y-18121D01*
X49342Y-18135D01*
X49357Y-18150D01*
X49371Y-18178D01*
X49371Y-18250D01*
X49357Y-18278D01*
X49342Y-18292D01*
X46371Y-18692D02*
X46228Y-18792D01*
X46371Y-18864D02*
X46071Y-18864D01*
X46071Y-18750D01*
X46085Y-18721D01*
X46100Y-18707D01*
X46128Y-18692D01*
X46171Y-18692D01*
X46200Y-18707D01*
X46214Y-18721D01*
X46228Y-18750D01*
X46228Y-18864D01*
X46371Y-18407D02*
X46371Y-18578D01*
X46371Y-18492D02*
X46071Y-18492D01*
X46114Y-18521D01*
X46142Y-18550D01*
X46157Y-18578D01*
X46071Y-18307D02*
X46071Y-18107D01*
X46371Y-18235D01*
X52371Y-18692D02*
X52228Y-18792D01*
X52371Y-18864D02*
X52071Y-18864D01*
X52071Y-18750D01*
X52085Y-18721D01*
X52100Y-18707D01*
X52128Y-18692D01*
X52171Y-18692D01*
X52200Y-18707D01*
X52214Y-18721D01*
X52228Y-18750D01*
X52228Y-18864D01*
X52371Y-18407D02*
X52371Y-18578D01*
X52371Y-18492D02*
X52071Y-18492D01*
X52114Y-18521D01*
X52142Y-18550D01*
X52157Y-18578D01*
X52071Y-18307D02*
X52071Y-18121D01*
X52185Y-18221D01*
X52185Y-18178D01*
X52200Y-18150D01*
X52214Y-18135D01*
X52242Y-18121D01*
X52314Y-18121D01*
X52342Y-18135D01*
X52357Y-18150D01*
X52371Y-18178D01*
X52371Y-18264D01*
X52357Y-18292D01*
X52342Y-18307D01*
X53871Y-18692D02*
X53728Y-18792D01*
X53871Y-18864D02*
X53571Y-18864D01*
X53571Y-18750D01*
X53585Y-18721D01*
X53600Y-18707D01*
X53628Y-18692D01*
X53671Y-18692D01*
X53700Y-18707D01*
X53714Y-18721D01*
X53728Y-18750D01*
X53728Y-18864D01*
X53871Y-18407D02*
X53871Y-18578D01*
X53871Y-18492D02*
X53571Y-18492D01*
X53614Y-18521D01*
X53642Y-18550D01*
X53657Y-18578D01*
X53600Y-18292D02*
X53585Y-18278D01*
X53571Y-18250D01*
X53571Y-18178D01*
X53585Y-18150D01*
X53600Y-18135D01*
X53628Y-18121D01*
X53657Y-18121D01*
X53700Y-18135D01*
X53871Y-18307D01*
X53871Y-18121D01*
X55371Y-18692D02*
X55228Y-18792D01*
X55371Y-18864D02*
X55071Y-18864D01*
X55071Y-18750D01*
X55085Y-18721D01*
X55100Y-18707D01*
X55128Y-18692D01*
X55171Y-18692D01*
X55200Y-18707D01*
X55214Y-18721D01*
X55228Y-18750D01*
X55228Y-18864D01*
X55371Y-18407D02*
X55371Y-18578D01*
X55371Y-18492D02*
X55071Y-18492D01*
X55114Y-18521D01*
X55142Y-18550D01*
X55157Y-18578D01*
X55371Y-18121D02*
X55371Y-18292D01*
X55371Y-18207D02*
X55071Y-18207D01*
X55114Y-18235D01*
X55142Y-18264D01*
X55157Y-18292D01*
X44871Y-18692D02*
X44728Y-18792D01*
X44871Y-18864D02*
X44571Y-18864D01*
X44571Y-18750D01*
X44585Y-18721D01*
X44600Y-18707D01*
X44628Y-18692D01*
X44671Y-18692D01*
X44700Y-18707D01*
X44714Y-18721D01*
X44728Y-18750D01*
X44728Y-18864D01*
X44871Y-18407D02*
X44871Y-18578D01*
X44871Y-18492D02*
X44571Y-18492D01*
X44614Y-18521D01*
X44642Y-18550D01*
X44657Y-18578D01*
X44700Y-18235D02*
X44685Y-18264D01*
X44671Y-18278D01*
X44642Y-18292D01*
X44628Y-18292D01*
X44600Y-18278D01*
X44585Y-18264D01*
X44571Y-18235D01*
X44571Y-18178D01*
X44585Y-18150D01*
X44600Y-18135D01*
X44628Y-18121D01*
X44642Y-18121D01*
X44671Y-18135D01*
X44685Y-18150D01*
X44700Y-18178D01*
X44700Y-18235D01*
X44714Y-18264D01*
X44728Y-18278D01*
X44757Y-18292D01*
X44814Y-18292D01*
X44842Y-18278D01*
X44857Y-18264D01*
X44871Y-18235D01*
X44871Y-18178D01*
X44857Y-18150D01*
X44842Y-18135D01*
X44814Y-18121D01*
X44757Y-18121D01*
X44728Y-18135D01*
X44714Y-18150D01*
X44700Y-18178D01*
G54D19*
X42830Y-15780D02*
X42735Y-15840D01*
X42830Y-15882D02*
X42630Y-15882D01*
X42630Y-15814D01*
X42640Y-15797D01*
X42650Y-15788D01*
X42669Y-15780D01*
X42697Y-15780D01*
X42716Y-15788D01*
X42726Y-15797D01*
X42735Y-15814D01*
X42735Y-15882D01*
X42650Y-15711D02*
X42640Y-15702D01*
X42630Y-15685D01*
X42630Y-15642D01*
X42640Y-15625D01*
X42650Y-15617D01*
X42669Y-15608D01*
X42688Y-15608D01*
X42716Y-15617D01*
X42830Y-15720D01*
X42830Y-15608D01*
X56580Y-22530D02*
X56485Y-22590D01*
X56580Y-22632D02*
X56380Y-22632D01*
X56380Y-22564D01*
X56390Y-22547D01*
X56400Y-22538D01*
X56419Y-22530D01*
X56447Y-22530D01*
X56466Y-22538D01*
X56476Y-22547D01*
X56485Y-22564D01*
X56485Y-22632D01*
X56380Y-22470D02*
X56380Y-22358D01*
X56457Y-22418D01*
X56457Y-22392D01*
X56466Y-22375D01*
X56476Y-22367D01*
X56495Y-22358D01*
X56542Y-22358D01*
X56561Y-22367D01*
X56571Y-22375D01*
X56580Y-22392D01*
X56580Y-22444D01*
X56571Y-22461D01*
X56561Y-22470D01*
X40561Y-21780D02*
X40571Y-21788D01*
X40580Y-21814D01*
X40580Y-21831D01*
X40571Y-21857D01*
X40552Y-21874D01*
X40533Y-21882D01*
X40495Y-21891D01*
X40466Y-21891D01*
X40428Y-21882D01*
X40409Y-21874D01*
X40390Y-21857D01*
X40380Y-21831D01*
X40380Y-21814D01*
X40390Y-21788D01*
X40400Y-21780D01*
X40380Y-21720D02*
X40380Y-21608D01*
X40457Y-21668D01*
X40457Y-21642D01*
X40466Y-21625D01*
X40476Y-21617D01*
X40495Y-21608D01*
X40542Y-21608D01*
X40561Y-21617D01*
X40571Y-21625D01*
X40580Y-21642D01*
X40580Y-21694D01*
X40571Y-21711D01*
X40561Y-21720D01*
X55080Y-22530D02*
X54985Y-22590D01*
X55080Y-22632D02*
X54880Y-22632D01*
X54880Y-22564D01*
X54890Y-22547D01*
X54900Y-22538D01*
X54919Y-22530D01*
X54947Y-22530D01*
X54966Y-22538D01*
X54976Y-22547D01*
X54985Y-22564D01*
X54985Y-22632D01*
X54947Y-22375D02*
X55080Y-22375D01*
X54871Y-22418D02*
X55014Y-22461D01*
X55014Y-22350D01*
X53580Y-22530D02*
X53485Y-22590D01*
X53580Y-22632D02*
X53380Y-22632D01*
X53380Y-22564D01*
X53390Y-22547D01*
X53400Y-22538D01*
X53419Y-22530D01*
X53447Y-22530D01*
X53466Y-22538D01*
X53476Y-22547D01*
X53485Y-22564D01*
X53485Y-22632D01*
X53380Y-22367D02*
X53380Y-22452D01*
X53476Y-22461D01*
X53466Y-22452D01*
X53457Y-22435D01*
X53457Y-22392D01*
X53466Y-22375D01*
X53476Y-22367D01*
X53495Y-22358D01*
X53542Y-22358D01*
X53561Y-22367D01*
X53571Y-22375D01*
X53580Y-22392D01*
X53580Y-22435D01*
X53571Y-22452D01*
X53561Y-22461D01*
X52080Y-22530D02*
X51985Y-22590D01*
X52080Y-22632D02*
X51880Y-22632D01*
X51880Y-22564D01*
X51890Y-22547D01*
X51900Y-22538D01*
X51919Y-22530D01*
X51947Y-22530D01*
X51966Y-22538D01*
X51976Y-22547D01*
X51985Y-22564D01*
X51985Y-22632D01*
X51880Y-22375D02*
X51880Y-22410D01*
X51890Y-22427D01*
X51900Y-22435D01*
X51928Y-22452D01*
X51966Y-22461D01*
X52042Y-22461D01*
X52061Y-22452D01*
X52071Y-22444D01*
X52080Y-22427D01*
X52080Y-22392D01*
X52071Y-22375D01*
X52061Y-22367D01*
X52042Y-22358D01*
X51995Y-22358D01*
X51976Y-22367D01*
X51966Y-22375D01*
X51957Y-22392D01*
X51957Y-22427D01*
X51966Y-22444D01*
X51976Y-22452D01*
X51995Y-22461D01*
X42330Y-15132D02*
X42130Y-15132D01*
X42130Y-15090D01*
X42140Y-15064D01*
X42159Y-15047D01*
X42178Y-15038D01*
X42216Y-15030D01*
X42245Y-15030D01*
X42283Y-15038D01*
X42302Y-15047D01*
X42321Y-15064D01*
X42330Y-15090D01*
X42330Y-15132D01*
X42130Y-14970D02*
X42130Y-14858D01*
X42207Y-14918D01*
X42207Y-14892D01*
X42216Y-14875D01*
X42226Y-14867D01*
X42245Y-14858D01*
X42292Y-14858D01*
X42311Y-14867D01*
X42321Y-14875D01*
X42330Y-14892D01*
X42330Y-14944D01*
X42321Y-14961D01*
X42311Y-14970D01*
X41080Y-15780D02*
X40985Y-15840D01*
X41080Y-15882D02*
X40880Y-15882D01*
X40880Y-15814D01*
X40890Y-15797D01*
X40900Y-15788D01*
X40919Y-15780D01*
X40947Y-15780D01*
X40966Y-15788D01*
X40976Y-15797D01*
X40985Y-15814D01*
X40985Y-15882D01*
X41080Y-15608D02*
X41080Y-15711D01*
X41080Y-15660D02*
X40880Y-15660D01*
X40909Y-15677D01*
X40928Y-15694D01*
X40938Y-15711D01*
X50580Y-22530D02*
X50485Y-22590D01*
X50580Y-22632D02*
X50380Y-22632D01*
X50380Y-22564D01*
X50390Y-22547D01*
X50400Y-22538D01*
X50419Y-22530D01*
X50447Y-22530D01*
X50466Y-22538D01*
X50476Y-22547D01*
X50485Y-22564D01*
X50485Y-22632D01*
X50380Y-22470D02*
X50380Y-22350D01*
X50580Y-22427D01*
X41580Y-15132D02*
X41380Y-15132D01*
X41380Y-15090D01*
X41390Y-15064D01*
X41409Y-15047D01*
X41428Y-15038D01*
X41466Y-15030D01*
X41495Y-15030D01*
X41533Y-15038D01*
X41552Y-15047D01*
X41571Y-15064D01*
X41580Y-15090D01*
X41580Y-15132D01*
X41580Y-14858D02*
X41580Y-14961D01*
X41580Y-14910D02*
X41380Y-14910D01*
X41409Y-14927D01*
X41428Y-14944D01*
X41438Y-14961D01*
X53470Y-25811D02*
X53461Y-25821D01*
X53435Y-25830D01*
X53418Y-25830D01*
X53392Y-25821D01*
X53375Y-25802D01*
X53367Y-25783D01*
X53358Y-25745D01*
X53358Y-25716D01*
X53367Y-25678D01*
X53375Y-25659D01*
X53392Y-25640D01*
X53418Y-25630D01*
X53435Y-25630D01*
X53461Y-25640D01*
X53470Y-25650D01*
X53641Y-25830D02*
X53538Y-25830D01*
X53590Y-25830D02*
X53590Y-25630D01*
X53572Y-25659D01*
X53555Y-25678D01*
X53538Y-25688D01*
X49080Y-22530D02*
X48985Y-22590D01*
X49080Y-22632D02*
X48880Y-22632D01*
X48880Y-22564D01*
X48890Y-22547D01*
X48900Y-22538D01*
X48919Y-22530D01*
X48947Y-22530D01*
X48966Y-22538D01*
X48976Y-22547D01*
X48985Y-22564D01*
X48985Y-22632D01*
X48966Y-22427D02*
X48957Y-22444D01*
X48947Y-22452D01*
X48928Y-22461D01*
X48919Y-22461D01*
X48900Y-22452D01*
X48890Y-22444D01*
X48880Y-22427D01*
X48880Y-22392D01*
X48890Y-22375D01*
X48900Y-22367D01*
X48919Y-22358D01*
X48928Y-22358D01*
X48947Y-22367D01*
X48957Y-22375D01*
X48966Y-22392D01*
X48966Y-22427D01*
X48976Y-22444D01*
X48985Y-22452D01*
X49004Y-22461D01*
X49042Y-22461D01*
X49061Y-22452D01*
X49071Y-22444D01*
X49080Y-22427D01*
X49080Y-22392D01*
X49071Y-22375D01*
X49061Y-22367D01*
X49042Y-22358D01*
X49004Y-22358D01*
X48985Y-22367D01*
X48976Y-22375D01*
X48966Y-22392D01*
X46080Y-22615D02*
X45985Y-22675D01*
X46080Y-22718D02*
X45880Y-22718D01*
X45880Y-22650D01*
X45890Y-22632D01*
X45900Y-22624D01*
X45919Y-22615D01*
X45947Y-22615D01*
X45966Y-22624D01*
X45976Y-22632D01*
X45985Y-22650D01*
X45985Y-22718D01*
X46080Y-22444D02*
X46080Y-22547D01*
X46080Y-22495D02*
X45880Y-22495D01*
X45909Y-22512D01*
X45928Y-22530D01*
X45938Y-22547D01*
X45880Y-22332D02*
X45880Y-22315D01*
X45890Y-22298D01*
X45900Y-22290D01*
X45919Y-22281D01*
X45957Y-22272D01*
X46004Y-22272D01*
X46042Y-22281D01*
X46061Y-22290D01*
X46071Y-22298D01*
X46080Y-22315D01*
X46080Y-22332D01*
X46071Y-22350D01*
X46061Y-22358D01*
X46042Y-22367D01*
X46004Y-22375D01*
X45957Y-22375D01*
X45919Y-22367D01*
X45900Y-22358D01*
X45890Y-22350D01*
X45880Y-22332D01*
X47580Y-22530D02*
X47485Y-22590D01*
X47580Y-22632D02*
X47380Y-22632D01*
X47380Y-22564D01*
X47390Y-22547D01*
X47400Y-22538D01*
X47419Y-22530D01*
X47447Y-22530D01*
X47466Y-22538D01*
X47476Y-22547D01*
X47485Y-22564D01*
X47485Y-22632D01*
X47580Y-22444D02*
X47580Y-22410D01*
X47571Y-22392D01*
X47561Y-22384D01*
X47533Y-22367D01*
X47495Y-22358D01*
X47419Y-22358D01*
X47400Y-22367D01*
X47390Y-22375D01*
X47380Y-22392D01*
X47380Y-22427D01*
X47390Y-22444D01*
X47400Y-22452D01*
X47419Y-22461D01*
X47466Y-22461D01*
X47485Y-22452D01*
X47495Y-22444D01*
X47504Y-22427D01*
X47504Y-22392D01*
X47495Y-22375D01*
X47485Y-22367D01*
X47466Y-22358D01*
G54D14*
X39702Y-18804D02*
X40107Y-18804D01*
X40154Y-18785D01*
X40178Y-18766D01*
X40202Y-18728D01*
X40202Y-18652D01*
X40178Y-18614D01*
X40154Y-18595D01*
X40107Y-18576D01*
X39702Y-18576D01*
X39750Y-18404D02*
X39726Y-18385D01*
X39702Y-18347D01*
X39702Y-18252D01*
X39726Y-18214D01*
X39750Y-18195D01*
X39797Y-18176D01*
X39845Y-18176D01*
X39916Y-18195D01*
X40202Y-18423D01*
X40202Y-18176D01*
G54D16*
X40485Y-25032D02*
X40495Y-25042D01*
X40504Y-25070D01*
X40504Y-25089D01*
X40495Y-25117D01*
X40476Y-25136D01*
X40457Y-25145D01*
X40420Y-25154D01*
X40392Y-25154D01*
X40354Y-25145D01*
X40335Y-25136D01*
X40317Y-25117D01*
X40307Y-25089D01*
X40307Y-25070D01*
X40317Y-25042D01*
X40326Y-25032D01*
X40326Y-24957D02*
X40317Y-24948D01*
X40307Y-24929D01*
X40307Y-24882D01*
X40317Y-24863D01*
X40326Y-24854D01*
X40345Y-24845D01*
X40364Y-24845D01*
X40392Y-24854D01*
X40504Y-24967D01*
X40504Y-24845D01*
G54D19*
X44561Y-21780D02*
X44571Y-21788D01*
X44580Y-21814D01*
X44580Y-21831D01*
X44571Y-21857D01*
X44552Y-21874D01*
X44533Y-21882D01*
X44495Y-21891D01*
X44466Y-21891D01*
X44428Y-21882D01*
X44409Y-21874D01*
X44390Y-21857D01*
X44380Y-21831D01*
X44380Y-21814D01*
X44390Y-21788D01*
X44400Y-21780D01*
X44380Y-21617D02*
X44380Y-21702D01*
X44476Y-21711D01*
X44466Y-21702D01*
X44457Y-21685D01*
X44457Y-21642D01*
X44466Y-21625D01*
X44476Y-21617D01*
X44495Y-21608D01*
X44542Y-21608D01*
X44561Y-21617D01*
X44571Y-21625D01*
X44580Y-21642D01*
X44580Y-21685D01*
X44571Y-21702D01*
X44561Y-21711D01*
G54D18*
X56884Y-27063D02*
X56884Y-26906D01*
X56921Y-26906D01*
X56943Y-26914D01*
X56958Y-26928D01*
X56966Y-26943D01*
X56973Y-26973D01*
X56973Y-26996D01*
X56966Y-27026D01*
X56958Y-27041D01*
X56943Y-27056D01*
X56921Y-27063D01*
X56884Y-27063D01*
X57108Y-26958D02*
X57108Y-27063D01*
X57071Y-26899D02*
X57033Y-27011D01*
X57130Y-27011D01*
X45384Y-27063D02*
X45384Y-26906D01*
X45421Y-26906D01*
X45443Y-26914D01*
X45458Y-26928D01*
X45466Y-26943D01*
X45473Y-26973D01*
X45473Y-26996D01*
X45466Y-27026D01*
X45458Y-27041D01*
X45443Y-27056D01*
X45421Y-27063D01*
X45384Y-27063D01*
X45615Y-26906D02*
X45541Y-26906D01*
X45533Y-26981D01*
X45541Y-26973D01*
X45556Y-26966D01*
X45593Y-26966D01*
X45608Y-26973D01*
X45615Y-26981D01*
X45623Y-26996D01*
X45623Y-27033D01*
X45615Y-27048D01*
X45608Y-27056D01*
X45593Y-27063D01*
X45556Y-27063D01*
X45541Y-27056D01*
X45533Y-27048D01*
X45384Y-25563D02*
X45384Y-25406D01*
X45421Y-25406D01*
X45443Y-25414D01*
X45458Y-25428D01*
X45466Y-25443D01*
X45473Y-25473D01*
X45473Y-25496D01*
X45466Y-25526D01*
X45458Y-25541D01*
X45443Y-25556D01*
X45421Y-25563D01*
X45384Y-25563D01*
X45608Y-25406D02*
X45578Y-25406D01*
X45563Y-25414D01*
X45556Y-25421D01*
X45541Y-25443D01*
X45533Y-25473D01*
X45533Y-25533D01*
X45541Y-25548D01*
X45548Y-25556D01*
X45563Y-25563D01*
X45593Y-25563D01*
X45608Y-25556D01*
X45615Y-25548D01*
X45623Y-25533D01*
X45623Y-25496D01*
X45615Y-25481D01*
X45608Y-25473D01*
X45593Y-25466D01*
X45563Y-25466D01*
X45548Y-25473D01*
X45541Y-25481D01*
X45533Y-25496D01*
X56884Y-26313D02*
X56884Y-26156D01*
X56921Y-26156D01*
X56943Y-26164D01*
X56958Y-26178D01*
X56966Y-26193D01*
X56973Y-26223D01*
X56973Y-26246D01*
X56966Y-26276D01*
X56958Y-26291D01*
X56943Y-26306D01*
X56921Y-26313D01*
X56884Y-26313D01*
X57026Y-26156D02*
X57130Y-26156D01*
X57063Y-26313D01*
X45384Y-26313D02*
X45384Y-26156D01*
X45421Y-26156D01*
X45443Y-26164D01*
X45458Y-26178D01*
X45466Y-26193D01*
X45473Y-26223D01*
X45473Y-26246D01*
X45466Y-26276D01*
X45458Y-26291D01*
X45443Y-26306D01*
X45421Y-26313D01*
X45384Y-26313D01*
X45563Y-26223D02*
X45548Y-26216D01*
X45541Y-26208D01*
X45533Y-26193D01*
X45533Y-26186D01*
X45541Y-26171D01*
X45548Y-26164D01*
X45563Y-26156D01*
X45593Y-26156D01*
X45608Y-26164D01*
X45615Y-26171D01*
X45623Y-26186D01*
X45623Y-26193D01*
X45615Y-26208D01*
X45608Y-26216D01*
X45593Y-26223D01*
X45563Y-26223D01*
X45548Y-26231D01*
X45541Y-26238D01*
X45533Y-26253D01*
X45533Y-26283D01*
X45541Y-26298D01*
X45548Y-26306D01*
X45563Y-26313D01*
X45593Y-26313D01*
X45608Y-26306D01*
X45615Y-26298D01*
X45623Y-26283D01*
X45623Y-26253D01*
X45615Y-26238D01*
X45608Y-26231D01*
X45593Y-26223D01*
G54D19*
X51634Y-26830D02*
X51574Y-26735D01*
X51531Y-26830D02*
X51531Y-26630D01*
X51600Y-26630D01*
X51617Y-26640D01*
X51625Y-26650D01*
X51634Y-26669D01*
X51634Y-26697D01*
X51625Y-26716D01*
X51617Y-26726D01*
X51600Y-26735D01*
X51531Y-26735D01*
X51805Y-26830D02*
X51702Y-26830D01*
X51754Y-26830D02*
X51754Y-26630D01*
X51737Y-26659D01*
X51720Y-26678D01*
X51702Y-26688D01*
X51891Y-26830D02*
X51925Y-26830D01*
X51942Y-26821D01*
X51951Y-26811D01*
X51968Y-26783D01*
X51977Y-26745D01*
X51977Y-26669D01*
X51968Y-26650D01*
X51960Y-26640D01*
X51942Y-26630D01*
X51908Y-26630D01*
X51891Y-26640D01*
X51882Y-26650D01*
X51874Y-26669D01*
X51874Y-26716D01*
X51882Y-26735D01*
X51891Y-26745D01*
X51908Y-26754D01*
X51942Y-26754D01*
X51960Y-26745D01*
X51968Y-26735D01*
X51977Y-26716D01*
X50134Y-26830D02*
X50074Y-26735D01*
X50031Y-26830D02*
X50031Y-26630D01*
X50100Y-26630D01*
X50117Y-26640D01*
X50125Y-26650D01*
X50134Y-26669D01*
X50134Y-26697D01*
X50125Y-26716D01*
X50117Y-26726D01*
X50100Y-26735D01*
X50031Y-26735D01*
X50202Y-26650D02*
X50211Y-26640D01*
X50228Y-26630D01*
X50271Y-26630D01*
X50288Y-26640D01*
X50297Y-26650D01*
X50305Y-26669D01*
X50305Y-26688D01*
X50297Y-26716D01*
X50194Y-26830D01*
X50305Y-26830D01*
X50417Y-26630D02*
X50434Y-26630D01*
X50451Y-26640D01*
X50460Y-26650D01*
X50468Y-26669D01*
X50477Y-26707D01*
X50477Y-26754D01*
X50468Y-26792D01*
X50460Y-26811D01*
X50451Y-26821D01*
X50434Y-26830D01*
X50417Y-26830D01*
X50400Y-26821D01*
X50391Y-26811D01*
X50382Y-26792D01*
X50374Y-26754D01*
X50374Y-26707D01*
X50382Y-26669D01*
X50391Y-26650D01*
X50400Y-26640D01*
X50417Y-26630D01*
X49384Y-26830D02*
X49324Y-26735D01*
X49281Y-26830D02*
X49281Y-26630D01*
X49350Y-26630D01*
X49367Y-26640D01*
X49375Y-26650D01*
X49384Y-26669D01*
X49384Y-26697D01*
X49375Y-26716D01*
X49367Y-26726D01*
X49350Y-26735D01*
X49281Y-26735D01*
X49452Y-26650D02*
X49461Y-26640D01*
X49478Y-26630D01*
X49521Y-26630D01*
X49538Y-26640D01*
X49547Y-26650D01*
X49555Y-26669D01*
X49555Y-26688D01*
X49547Y-26716D01*
X49444Y-26830D01*
X49555Y-26830D01*
X49727Y-26830D02*
X49624Y-26830D01*
X49675Y-26830D02*
X49675Y-26630D01*
X49658Y-26659D01*
X49641Y-26678D01*
X49624Y-26688D01*
X50884Y-26830D02*
X50824Y-26735D01*
X50781Y-26830D02*
X50781Y-26630D01*
X50850Y-26630D01*
X50867Y-26640D01*
X50875Y-26650D01*
X50884Y-26669D01*
X50884Y-26697D01*
X50875Y-26716D01*
X50867Y-26726D01*
X50850Y-26735D01*
X50781Y-26735D01*
X50952Y-26650D02*
X50961Y-26640D01*
X50978Y-26630D01*
X51021Y-26630D01*
X51038Y-26640D01*
X51047Y-26650D01*
X51055Y-26669D01*
X51055Y-26688D01*
X51047Y-26716D01*
X50944Y-26830D01*
X51055Y-26830D01*
X51124Y-26650D02*
X51132Y-26640D01*
X51150Y-26630D01*
X51192Y-26630D01*
X51210Y-26640D01*
X51218Y-26650D01*
X51227Y-26669D01*
X51227Y-26688D01*
X51218Y-26716D01*
X51115Y-26830D01*
X51227Y-26830D01*
X48634Y-26830D02*
X48574Y-26735D01*
X48531Y-26830D02*
X48531Y-26630D01*
X48600Y-26630D01*
X48617Y-26640D01*
X48625Y-26650D01*
X48634Y-26669D01*
X48634Y-26697D01*
X48625Y-26716D01*
X48617Y-26726D01*
X48600Y-26735D01*
X48531Y-26735D01*
X48702Y-26650D02*
X48711Y-26640D01*
X48728Y-26630D01*
X48771Y-26630D01*
X48788Y-26640D01*
X48797Y-26650D01*
X48805Y-26669D01*
X48805Y-26688D01*
X48797Y-26716D01*
X48694Y-26830D01*
X48805Y-26830D01*
X48865Y-26630D02*
X48977Y-26630D01*
X48917Y-26707D01*
X48942Y-26707D01*
X48960Y-26716D01*
X48968Y-26726D01*
X48977Y-26745D01*
X48977Y-26792D01*
X48968Y-26811D01*
X48960Y-26821D01*
X48942Y-26830D01*
X48891Y-26830D01*
X48874Y-26821D01*
X48865Y-26811D01*
G54D10*
G36*
X47379Y-16700D02*
X46620Y-16700D01*
X47000Y-16320D01*
X47379Y-16700D01*
X47379Y-16700D01*
G37*
G54D20*
X47379Y-16700D02*
X46620Y-16700D01*
X47000Y-16320D01*
X47379Y-16700D01*
M02*
