G04 (created by PCBNEW (2013-may-18)-stable) date Tue 21 Oct 2014 06:54:13 PM CEST*
%MOIN*%
G04 Gerber Fmt 3.4, Leading zero omitted, Abs format*
%FSLAX34Y34*%
G01*
G70*
G90*
G04 APERTURE LIST*
%ADD10C,0.00590551*%
%ADD11C,0.011811*%
%ADD12C,0.00984252*%
%ADD13C,0.0001*%
G04 APERTURE END LIST*
G54D10*
G54D11*
X56474Y-24148D02*
X56277Y-24739D01*
X56080Y-24148D01*
X55659Y-24710D02*
X55715Y-24739D01*
X55827Y-24739D01*
X55884Y-24710D01*
X55912Y-24654D01*
X55912Y-24429D01*
X55884Y-24373D01*
X55827Y-24345D01*
X55715Y-24345D01*
X55659Y-24373D01*
X55631Y-24429D01*
X55631Y-24485D01*
X55912Y-24542D01*
X55377Y-24739D02*
X55377Y-24345D01*
X55377Y-24457D02*
X55349Y-24401D01*
X55321Y-24373D01*
X55265Y-24345D01*
X55209Y-24345D01*
X55040Y-24710D02*
X54984Y-24739D01*
X54871Y-24739D01*
X54815Y-24710D01*
X54787Y-24654D01*
X54787Y-24626D01*
X54815Y-24570D01*
X54871Y-24542D01*
X54956Y-24542D01*
X55012Y-24514D01*
X55040Y-24457D01*
X55040Y-24429D01*
X55012Y-24373D01*
X54956Y-24345D01*
X54871Y-24345D01*
X54815Y-24373D01*
X54534Y-24739D02*
X54534Y-24345D01*
X54534Y-24148D02*
X54562Y-24176D01*
X54534Y-24204D01*
X54506Y-24176D01*
X54534Y-24148D01*
X54534Y-24204D01*
X54168Y-24739D02*
X54224Y-24710D01*
X54253Y-24682D01*
X54281Y-24626D01*
X54281Y-24457D01*
X54253Y-24401D01*
X54224Y-24373D01*
X54168Y-24345D01*
X54084Y-24345D01*
X54028Y-24373D01*
X54000Y-24401D01*
X53971Y-24457D01*
X53971Y-24626D01*
X54000Y-24682D01*
X54028Y-24710D01*
X54084Y-24739D01*
X54168Y-24739D01*
X53718Y-24345D02*
X53718Y-24739D01*
X53718Y-24401D02*
X53690Y-24373D01*
X53634Y-24345D01*
X53550Y-24345D01*
X53493Y-24373D01*
X53465Y-24429D01*
X53465Y-24739D01*
X52425Y-24739D02*
X52762Y-24739D01*
X52593Y-24739D02*
X52593Y-24148D01*
X52650Y-24232D01*
X52706Y-24289D01*
X52762Y-24317D01*
X52172Y-24682D02*
X52143Y-24710D01*
X52172Y-24739D01*
X52200Y-24710D01*
X52172Y-24682D01*
X52172Y-24739D01*
X51581Y-24739D02*
X51919Y-24739D01*
X51750Y-24739D02*
X51750Y-24148D01*
X51806Y-24232D01*
X51862Y-24289D01*
X51919Y-24317D01*
G54D12*
X52562Y-33890D02*
X52505Y-33909D01*
X52412Y-33909D01*
X52374Y-33890D01*
X52355Y-33871D01*
X52337Y-33834D01*
X52337Y-33796D01*
X52355Y-33759D01*
X52374Y-33740D01*
X52412Y-33721D01*
X52487Y-33703D01*
X52524Y-33684D01*
X52543Y-33665D01*
X52562Y-33628D01*
X52562Y-33590D01*
X52543Y-33553D01*
X52524Y-33534D01*
X52487Y-33515D01*
X52393Y-33515D01*
X52337Y-33534D01*
X52018Y-33890D02*
X52055Y-33909D01*
X52130Y-33909D01*
X52168Y-33890D01*
X52187Y-33853D01*
X52187Y-33703D01*
X52168Y-33665D01*
X52130Y-33646D01*
X52055Y-33646D01*
X52018Y-33665D01*
X51999Y-33703D01*
X51999Y-33740D01*
X52187Y-33778D01*
X51830Y-33909D02*
X51830Y-33515D01*
X51830Y-33665D02*
X51793Y-33646D01*
X51718Y-33646D01*
X51680Y-33665D01*
X51662Y-33684D01*
X51643Y-33721D01*
X51643Y-33834D01*
X51662Y-33871D01*
X51680Y-33890D01*
X51718Y-33909D01*
X51793Y-33909D01*
X51830Y-33890D01*
X51305Y-33909D02*
X51305Y-33703D01*
X51324Y-33665D01*
X51362Y-33646D01*
X51437Y-33646D01*
X51474Y-33665D01*
X51305Y-33890D02*
X51343Y-33909D01*
X51437Y-33909D01*
X51474Y-33890D01*
X51493Y-33853D01*
X51493Y-33815D01*
X51474Y-33778D01*
X51437Y-33759D01*
X51343Y-33759D01*
X51305Y-33740D01*
X51137Y-33890D02*
X51099Y-33909D01*
X51024Y-33909D01*
X50987Y-33890D01*
X50968Y-33853D01*
X50968Y-33834D01*
X50987Y-33796D01*
X51024Y-33778D01*
X51080Y-33778D01*
X51118Y-33759D01*
X51137Y-33721D01*
X51137Y-33703D01*
X51118Y-33665D01*
X51080Y-33646D01*
X51024Y-33646D01*
X50987Y-33665D01*
X50856Y-33646D02*
X50706Y-33646D01*
X50799Y-33515D02*
X50799Y-33853D01*
X50781Y-33890D01*
X50743Y-33909D01*
X50706Y-33909D01*
X50574Y-33909D02*
X50574Y-33646D01*
X50574Y-33515D02*
X50593Y-33534D01*
X50574Y-33553D01*
X50556Y-33534D01*
X50574Y-33515D01*
X50574Y-33553D01*
X50218Y-33909D02*
X50218Y-33703D01*
X50237Y-33665D01*
X50274Y-33646D01*
X50349Y-33646D01*
X50387Y-33665D01*
X50218Y-33890D02*
X50256Y-33909D01*
X50349Y-33909D01*
X50387Y-33890D01*
X50406Y-33853D01*
X50406Y-33815D01*
X50387Y-33778D01*
X50349Y-33759D01*
X50256Y-33759D01*
X50218Y-33740D01*
X50031Y-33646D02*
X50031Y-33909D01*
X50031Y-33684D02*
X50012Y-33665D01*
X49974Y-33646D01*
X49918Y-33646D01*
X49881Y-33665D01*
X49862Y-33703D01*
X49862Y-33909D01*
X49393Y-33890D02*
X49337Y-33909D01*
X49243Y-33909D01*
X49206Y-33890D01*
X49187Y-33871D01*
X49168Y-33834D01*
X49168Y-33796D01*
X49187Y-33759D01*
X49206Y-33740D01*
X49243Y-33721D01*
X49318Y-33703D01*
X49356Y-33684D01*
X49374Y-33665D01*
X49393Y-33628D01*
X49393Y-33590D01*
X49374Y-33553D01*
X49356Y-33534D01*
X49318Y-33515D01*
X49224Y-33515D01*
X49168Y-33534D01*
X48831Y-33890D02*
X48868Y-33909D01*
X48943Y-33909D01*
X48981Y-33890D01*
X49000Y-33871D01*
X49018Y-33834D01*
X49018Y-33721D01*
X49000Y-33684D01*
X48981Y-33665D01*
X48943Y-33646D01*
X48868Y-33646D01*
X48831Y-33665D01*
X48662Y-33909D02*
X48662Y-33515D01*
X48493Y-33909D02*
X48493Y-33703D01*
X48512Y-33665D01*
X48550Y-33646D01*
X48606Y-33646D01*
X48643Y-33665D01*
X48662Y-33684D01*
X48137Y-33646D02*
X48137Y-33909D01*
X48306Y-33646D02*
X48306Y-33853D01*
X48287Y-33890D01*
X48250Y-33909D01*
X48193Y-33909D01*
X48156Y-33890D01*
X48137Y-33871D01*
X47950Y-33909D02*
X47950Y-33646D01*
X47950Y-33684D02*
X47931Y-33665D01*
X47893Y-33646D01*
X47837Y-33646D01*
X47800Y-33665D01*
X47781Y-33703D01*
X47781Y-33909D01*
X47781Y-33703D02*
X47762Y-33665D01*
X47725Y-33646D01*
X47668Y-33646D01*
X47631Y-33665D01*
X47612Y-33703D01*
X47612Y-33909D01*
X47425Y-33909D02*
X47425Y-33515D01*
X47425Y-33665D02*
X47387Y-33646D01*
X47312Y-33646D01*
X47275Y-33665D01*
X47256Y-33684D01*
X47237Y-33721D01*
X47237Y-33834D01*
X47256Y-33871D01*
X47275Y-33890D01*
X47312Y-33909D01*
X47387Y-33909D01*
X47425Y-33890D01*
X46787Y-33553D02*
X46769Y-33534D01*
X46731Y-33515D01*
X46637Y-33515D01*
X46600Y-33534D01*
X46581Y-33553D01*
X46562Y-33590D01*
X46562Y-33628D01*
X46581Y-33684D01*
X46806Y-33909D01*
X46562Y-33909D01*
X46319Y-33515D02*
X46281Y-33515D01*
X46244Y-33534D01*
X46225Y-33553D01*
X46206Y-33590D01*
X46187Y-33665D01*
X46187Y-33759D01*
X46206Y-33834D01*
X46225Y-33871D01*
X46244Y-33890D01*
X46281Y-33909D01*
X46319Y-33909D01*
X46356Y-33890D01*
X46375Y-33871D01*
X46394Y-33834D01*
X46412Y-33759D01*
X46412Y-33665D01*
X46394Y-33590D01*
X46375Y-33553D01*
X46356Y-33534D01*
X46319Y-33515D01*
X45812Y-33909D02*
X46037Y-33909D01*
X45925Y-33909D02*
X45925Y-33515D01*
X45962Y-33571D01*
X46000Y-33609D01*
X46037Y-33628D01*
X45475Y-33646D02*
X45475Y-33909D01*
X45569Y-33496D02*
X45662Y-33778D01*
X45419Y-33778D01*
X56308Y-23759D02*
X56308Y-23365D01*
X56139Y-23759D02*
X56139Y-23553D01*
X56158Y-23515D01*
X56195Y-23496D01*
X56252Y-23496D01*
X56289Y-23515D01*
X56308Y-23534D01*
X56008Y-23496D02*
X55858Y-23496D01*
X55952Y-23365D02*
X55952Y-23703D01*
X55933Y-23740D01*
X55896Y-23759D01*
X55858Y-23759D01*
X55783Y-23496D02*
X55633Y-23496D01*
X55727Y-23365D02*
X55727Y-23703D01*
X55708Y-23740D01*
X55671Y-23759D01*
X55633Y-23759D01*
X55502Y-23496D02*
X55502Y-23890D01*
X55502Y-23515D02*
X55464Y-23496D01*
X55389Y-23496D01*
X55352Y-23515D01*
X55333Y-23534D01*
X55314Y-23571D01*
X55314Y-23684D01*
X55333Y-23721D01*
X55352Y-23740D01*
X55389Y-23759D01*
X55464Y-23759D01*
X55502Y-23740D01*
X55164Y-23740D02*
X55127Y-23759D01*
X55052Y-23759D01*
X55014Y-23740D01*
X54996Y-23703D01*
X54996Y-23684D01*
X55014Y-23646D01*
X55052Y-23628D01*
X55108Y-23628D01*
X55146Y-23609D01*
X55164Y-23571D01*
X55164Y-23553D01*
X55146Y-23515D01*
X55108Y-23496D01*
X55052Y-23496D01*
X55014Y-23515D01*
X54827Y-23721D02*
X54808Y-23740D01*
X54827Y-23759D01*
X54846Y-23740D01*
X54827Y-23721D01*
X54827Y-23759D01*
X54827Y-23515D02*
X54808Y-23534D01*
X54827Y-23553D01*
X54846Y-23534D01*
X54827Y-23515D01*
X54827Y-23553D01*
X54358Y-23346D02*
X54696Y-23853D01*
X53946Y-23346D02*
X54283Y-23853D01*
X53646Y-23496D02*
X53646Y-23815D01*
X53665Y-23853D01*
X53683Y-23871D01*
X53721Y-23890D01*
X53777Y-23890D01*
X53815Y-23871D01*
X53646Y-23740D02*
X53683Y-23759D01*
X53758Y-23759D01*
X53796Y-23740D01*
X53815Y-23721D01*
X53833Y-23684D01*
X53833Y-23571D01*
X53815Y-23534D01*
X53796Y-23515D01*
X53758Y-23496D01*
X53683Y-23496D01*
X53646Y-23515D01*
X53458Y-23759D02*
X53458Y-23496D01*
X53458Y-23365D02*
X53477Y-23384D01*
X53458Y-23403D01*
X53440Y-23384D01*
X53458Y-23365D01*
X53458Y-23403D01*
X53327Y-23496D02*
X53177Y-23496D01*
X53271Y-23365D02*
X53271Y-23703D01*
X53252Y-23740D01*
X53215Y-23759D01*
X53177Y-23759D01*
X53046Y-23759D02*
X53046Y-23365D01*
X52877Y-23759D02*
X52877Y-23553D01*
X52896Y-23515D01*
X52933Y-23496D01*
X52990Y-23496D01*
X53027Y-23515D01*
X53046Y-23534D01*
X52521Y-23496D02*
X52521Y-23759D01*
X52690Y-23496D02*
X52690Y-23703D01*
X52671Y-23740D01*
X52633Y-23759D01*
X52577Y-23759D01*
X52540Y-23740D01*
X52521Y-23721D01*
X52333Y-23759D02*
X52333Y-23365D01*
X52333Y-23515D02*
X52296Y-23496D01*
X52221Y-23496D01*
X52183Y-23515D01*
X52165Y-23534D01*
X52146Y-23571D01*
X52146Y-23684D01*
X52165Y-23721D01*
X52183Y-23740D01*
X52221Y-23759D01*
X52296Y-23759D01*
X52333Y-23740D01*
X51977Y-23721D02*
X51959Y-23740D01*
X51977Y-23759D01*
X51996Y-23740D01*
X51977Y-23721D01*
X51977Y-23759D01*
X51621Y-23740D02*
X51659Y-23759D01*
X51734Y-23759D01*
X51771Y-23740D01*
X51790Y-23721D01*
X51809Y-23684D01*
X51809Y-23571D01*
X51790Y-23534D01*
X51771Y-23515D01*
X51734Y-23496D01*
X51659Y-23496D01*
X51621Y-23515D01*
X51396Y-23759D02*
X51434Y-23740D01*
X51452Y-23721D01*
X51471Y-23684D01*
X51471Y-23571D01*
X51452Y-23534D01*
X51434Y-23515D01*
X51396Y-23496D01*
X51340Y-23496D01*
X51302Y-23515D01*
X51284Y-23534D01*
X51265Y-23571D01*
X51265Y-23684D01*
X51284Y-23721D01*
X51302Y-23740D01*
X51340Y-23759D01*
X51396Y-23759D01*
X51096Y-23759D02*
X51096Y-23496D01*
X51096Y-23534D02*
X51077Y-23515D01*
X51040Y-23496D01*
X50984Y-23496D01*
X50946Y-23515D01*
X50927Y-23553D01*
X50927Y-23759D01*
X50927Y-23553D02*
X50909Y-23515D01*
X50871Y-23496D01*
X50815Y-23496D01*
X50777Y-23515D01*
X50759Y-23553D01*
X50759Y-23759D01*
X50290Y-23346D02*
X50627Y-23853D01*
X49971Y-23759D02*
X50159Y-23759D01*
X50159Y-23365D01*
X49784Y-23759D02*
X49821Y-23740D01*
X49840Y-23721D01*
X49859Y-23684D01*
X49859Y-23571D01*
X49840Y-23534D01*
X49821Y-23515D01*
X49784Y-23496D01*
X49728Y-23496D01*
X49690Y-23515D01*
X49671Y-23534D01*
X49653Y-23571D01*
X49653Y-23684D01*
X49671Y-23721D01*
X49690Y-23740D01*
X49728Y-23759D01*
X49784Y-23759D01*
X49484Y-23496D02*
X49484Y-23759D01*
X49484Y-23534D02*
X49465Y-23515D01*
X49428Y-23496D01*
X49371Y-23496D01*
X49334Y-23515D01*
X49315Y-23553D01*
X49315Y-23759D01*
X48959Y-23496D02*
X48959Y-23815D01*
X48978Y-23853D01*
X48996Y-23871D01*
X49034Y-23890D01*
X49090Y-23890D01*
X49128Y-23871D01*
X48959Y-23740D02*
X48996Y-23759D01*
X49071Y-23759D01*
X49109Y-23740D01*
X49128Y-23721D01*
X49146Y-23684D01*
X49146Y-23571D01*
X49128Y-23534D01*
X49109Y-23515D01*
X49071Y-23496D01*
X48996Y-23496D01*
X48959Y-23515D01*
X48771Y-23759D02*
X48771Y-23365D01*
X48771Y-23553D02*
X48546Y-23553D01*
X48546Y-23759D02*
X48546Y-23365D01*
X48190Y-23759D02*
X48190Y-23553D01*
X48209Y-23515D01*
X48246Y-23496D01*
X48321Y-23496D01*
X48359Y-23515D01*
X48190Y-23740D02*
X48228Y-23759D01*
X48321Y-23759D01*
X48359Y-23740D01*
X48378Y-23703D01*
X48378Y-23665D01*
X48359Y-23628D01*
X48321Y-23609D01*
X48228Y-23609D01*
X48190Y-23590D01*
X48003Y-23759D02*
X48003Y-23496D01*
X48003Y-23365D02*
X48022Y-23384D01*
X48003Y-23403D01*
X47984Y-23384D01*
X48003Y-23365D01*
X48003Y-23403D01*
X47815Y-23759D02*
X47815Y-23496D01*
X47815Y-23571D02*
X47797Y-23534D01*
X47778Y-23515D01*
X47740Y-23496D01*
X47703Y-23496D01*
X47422Y-23740D02*
X47459Y-23759D01*
X47534Y-23759D01*
X47572Y-23740D01*
X47590Y-23703D01*
X47590Y-23553D01*
X47572Y-23515D01*
X47534Y-23496D01*
X47459Y-23496D01*
X47422Y-23515D01*
X47403Y-23553D01*
X47403Y-23590D01*
X47590Y-23628D01*
X47065Y-23759D02*
X47065Y-23365D01*
X47065Y-23740D02*
X47103Y-23759D01*
X47178Y-23759D01*
X47215Y-23740D01*
X47234Y-23721D01*
X47253Y-23684D01*
X47253Y-23571D01*
X47234Y-23534D01*
X47215Y-23515D01*
X47178Y-23496D01*
X47103Y-23496D01*
X47065Y-23515D01*
X46878Y-23759D02*
X46878Y-23365D01*
X46878Y-23553D02*
X46653Y-23553D01*
X46653Y-23759D02*
X46653Y-23365D01*
X46297Y-23759D02*
X46297Y-23553D01*
X46315Y-23515D01*
X46353Y-23496D01*
X46428Y-23496D01*
X46465Y-23515D01*
X46297Y-23740D02*
X46334Y-23759D01*
X46428Y-23759D01*
X46465Y-23740D01*
X46484Y-23703D01*
X46484Y-23665D01*
X46465Y-23628D01*
X46428Y-23609D01*
X46334Y-23609D01*
X46297Y-23590D01*
X45941Y-23740D02*
X45978Y-23759D01*
X46053Y-23759D01*
X46091Y-23740D01*
X46109Y-23721D01*
X46128Y-23684D01*
X46128Y-23571D01*
X46109Y-23534D01*
X46091Y-23515D01*
X46053Y-23496D01*
X45978Y-23496D01*
X45941Y-23515D01*
X45772Y-23759D02*
X45772Y-23365D01*
X45734Y-23609D02*
X45622Y-23759D01*
X45622Y-23496D02*
X45772Y-23646D01*
X45303Y-23740D02*
X45341Y-23759D01*
X45416Y-23759D01*
X45453Y-23740D01*
X45472Y-23703D01*
X45472Y-23553D01*
X45453Y-23515D01*
X45416Y-23496D01*
X45341Y-23496D01*
X45303Y-23515D01*
X45284Y-23553D01*
X45284Y-23590D01*
X45472Y-23628D01*
X45116Y-23759D02*
X45116Y-23496D01*
X45116Y-23571D02*
X45097Y-23534D01*
X45078Y-23515D01*
X45041Y-23496D01*
X45003Y-23496D01*
X44591Y-23346D02*
X44928Y-23853D01*
X44459Y-23759D02*
X44459Y-23365D01*
X44459Y-23553D02*
X44234Y-23553D01*
X44234Y-23759D02*
X44234Y-23365D01*
X43897Y-23740D02*
X43935Y-23759D01*
X44010Y-23759D01*
X44047Y-23740D01*
X44066Y-23703D01*
X44066Y-23553D01*
X44047Y-23515D01*
X44010Y-23496D01*
X43935Y-23496D01*
X43897Y-23515D01*
X43878Y-23553D01*
X43878Y-23590D01*
X44066Y-23628D01*
X43766Y-23496D02*
X43616Y-23496D01*
X43710Y-23365D02*
X43710Y-23703D01*
X43691Y-23740D01*
X43653Y-23759D01*
X43616Y-23759D01*
X43485Y-23496D02*
X43485Y-23890D01*
X43485Y-23515D02*
X43447Y-23496D01*
X43372Y-23496D01*
X43335Y-23515D01*
X43316Y-23534D01*
X43297Y-23571D01*
X43297Y-23684D01*
X43316Y-23721D01*
X43335Y-23740D01*
X43372Y-23759D01*
X43447Y-23759D01*
X43485Y-23740D01*
X42960Y-23759D02*
X42960Y-23553D01*
X42978Y-23515D01*
X43016Y-23496D01*
X43091Y-23496D01*
X43128Y-23515D01*
X42960Y-23740D02*
X42997Y-23759D01*
X43091Y-23759D01*
X43128Y-23740D01*
X43147Y-23703D01*
X43147Y-23665D01*
X43128Y-23628D01*
X43091Y-23609D01*
X42997Y-23609D01*
X42960Y-23590D01*
X42585Y-23759D02*
X42772Y-23759D01*
X42772Y-23365D01*
X42453Y-23553D02*
X42322Y-23553D01*
X42266Y-23759D02*
X42453Y-23759D01*
X42453Y-23365D01*
X42266Y-23365D01*
X42097Y-23759D02*
X42097Y-23365D01*
X42004Y-23365D01*
X41947Y-23384D01*
X41910Y-23421D01*
X41891Y-23459D01*
X41872Y-23534D01*
X41872Y-23590D01*
X41891Y-23665D01*
X41910Y-23703D01*
X41947Y-23740D01*
X42004Y-23759D01*
X42097Y-23759D01*
G54D11*
X56375Y-22348D02*
X55982Y-22348D01*
X56235Y-22939D01*
X55335Y-22910D02*
X55279Y-22939D01*
X55166Y-22939D01*
X55110Y-22910D01*
X55082Y-22854D01*
X55082Y-22826D01*
X55110Y-22770D01*
X55166Y-22742D01*
X55250Y-22742D01*
X55307Y-22714D01*
X55335Y-22657D01*
X55335Y-22629D01*
X55307Y-22573D01*
X55250Y-22545D01*
X55166Y-22545D01*
X55110Y-22573D01*
X54604Y-22910D02*
X54660Y-22939D01*
X54772Y-22939D01*
X54829Y-22910D01*
X54857Y-22854D01*
X54857Y-22629D01*
X54829Y-22573D01*
X54772Y-22545D01*
X54660Y-22545D01*
X54604Y-22573D01*
X54575Y-22629D01*
X54575Y-22685D01*
X54857Y-22742D01*
X54069Y-22545D02*
X54069Y-23023D01*
X54097Y-23079D01*
X54126Y-23107D01*
X54182Y-23135D01*
X54266Y-23135D01*
X54322Y-23107D01*
X54069Y-22910D02*
X54126Y-22939D01*
X54238Y-22939D01*
X54294Y-22910D01*
X54322Y-22882D01*
X54351Y-22826D01*
X54351Y-22657D01*
X54322Y-22601D01*
X54294Y-22573D01*
X54238Y-22545D01*
X54126Y-22545D01*
X54069Y-22573D01*
X53788Y-22939D02*
X53788Y-22545D01*
X53788Y-22601D02*
X53760Y-22573D01*
X53704Y-22545D01*
X53619Y-22545D01*
X53563Y-22573D01*
X53535Y-22629D01*
X53535Y-22939D01*
X53535Y-22629D02*
X53507Y-22573D01*
X53451Y-22545D01*
X53366Y-22545D01*
X53310Y-22573D01*
X53282Y-22629D01*
X53282Y-22939D01*
X52776Y-22910D02*
X52832Y-22939D01*
X52944Y-22939D01*
X53001Y-22910D01*
X53029Y-22854D01*
X53029Y-22629D01*
X53001Y-22573D01*
X52944Y-22545D01*
X52832Y-22545D01*
X52776Y-22573D01*
X52748Y-22629D01*
X52748Y-22685D01*
X53029Y-22742D01*
X52494Y-22545D02*
X52494Y-22939D01*
X52494Y-22601D02*
X52466Y-22573D01*
X52410Y-22545D01*
X52326Y-22545D01*
X52270Y-22573D01*
X52241Y-22629D01*
X52241Y-22939D01*
X52045Y-22545D02*
X51820Y-22545D01*
X51960Y-22348D02*
X51960Y-22854D01*
X51932Y-22910D01*
X51876Y-22939D01*
X51820Y-22939D01*
X51088Y-22939D02*
X51145Y-22910D01*
X51173Y-22854D01*
X51173Y-22348D01*
X50638Y-22910D02*
X50695Y-22939D01*
X50807Y-22939D01*
X50863Y-22910D01*
X50892Y-22854D01*
X50892Y-22629D01*
X50863Y-22573D01*
X50807Y-22545D01*
X50695Y-22545D01*
X50638Y-22573D01*
X50610Y-22629D01*
X50610Y-22685D01*
X50892Y-22742D01*
X50104Y-22939D02*
X50104Y-22348D01*
X50104Y-22910D02*
X50160Y-22939D01*
X50273Y-22939D01*
X50329Y-22910D01*
X50357Y-22882D01*
X50385Y-22826D01*
X50385Y-22657D01*
X50357Y-22601D01*
X50329Y-22573D01*
X50273Y-22545D01*
X50160Y-22545D01*
X50104Y-22573D01*
X49120Y-22939D02*
X49120Y-22348D01*
X49120Y-22910D02*
X49176Y-22939D01*
X49289Y-22939D01*
X49345Y-22910D01*
X49373Y-22882D01*
X49401Y-22826D01*
X49401Y-22657D01*
X49373Y-22601D01*
X49345Y-22573D01*
X49289Y-22545D01*
X49176Y-22545D01*
X49120Y-22573D01*
X48839Y-22939D02*
X48839Y-22545D01*
X48839Y-22348D02*
X48867Y-22376D01*
X48839Y-22404D01*
X48811Y-22376D01*
X48839Y-22348D01*
X48839Y-22404D01*
X48586Y-22910D02*
X48529Y-22939D01*
X48417Y-22939D01*
X48361Y-22910D01*
X48333Y-22854D01*
X48333Y-22826D01*
X48361Y-22770D01*
X48417Y-22742D01*
X48501Y-22742D01*
X48557Y-22714D01*
X48586Y-22657D01*
X48586Y-22629D01*
X48557Y-22573D01*
X48501Y-22545D01*
X48417Y-22545D01*
X48361Y-22573D01*
X48079Y-22545D02*
X48079Y-23135D01*
X48079Y-22573D02*
X48023Y-22545D01*
X47911Y-22545D01*
X47854Y-22573D01*
X47826Y-22601D01*
X47798Y-22657D01*
X47798Y-22826D01*
X47826Y-22882D01*
X47854Y-22910D01*
X47911Y-22939D01*
X48023Y-22939D01*
X48079Y-22910D01*
X47461Y-22939D02*
X47517Y-22910D01*
X47545Y-22854D01*
X47545Y-22348D01*
X46983Y-22939D02*
X46983Y-22629D01*
X47011Y-22573D01*
X47067Y-22545D01*
X47180Y-22545D01*
X47236Y-22573D01*
X46983Y-22910D02*
X47039Y-22939D01*
X47180Y-22939D01*
X47236Y-22910D01*
X47264Y-22854D01*
X47264Y-22798D01*
X47236Y-22742D01*
X47180Y-22714D01*
X47039Y-22714D01*
X46983Y-22685D01*
X46758Y-22545D02*
X46617Y-22939D01*
X46476Y-22545D02*
X46617Y-22939D01*
X46673Y-23079D01*
X46701Y-23107D01*
X46758Y-23135D01*
X45548Y-22939D02*
X45548Y-22348D01*
X45548Y-22910D02*
X45605Y-22939D01*
X45717Y-22939D01*
X45773Y-22910D01*
X45802Y-22882D01*
X45830Y-22826D01*
X45830Y-22657D01*
X45802Y-22601D01*
X45773Y-22573D01*
X45717Y-22545D01*
X45605Y-22545D01*
X45548Y-22573D01*
X45267Y-22939D02*
X45267Y-22545D01*
X45267Y-22657D02*
X45239Y-22601D01*
X45211Y-22573D01*
X45155Y-22545D01*
X45099Y-22545D01*
X44902Y-22939D02*
X44902Y-22545D01*
X44902Y-22348D02*
X44930Y-22376D01*
X44902Y-22404D01*
X44874Y-22376D01*
X44902Y-22348D01*
X44902Y-22404D01*
X44677Y-22545D02*
X44536Y-22939D01*
X44396Y-22545D01*
X43946Y-22910D02*
X44002Y-22939D01*
X44114Y-22939D01*
X44171Y-22910D01*
X44199Y-22854D01*
X44199Y-22629D01*
X44171Y-22573D01*
X44114Y-22545D01*
X44002Y-22545D01*
X43946Y-22573D01*
X43917Y-22629D01*
X43917Y-22685D01*
X44199Y-22742D01*
X43664Y-22939D02*
X43664Y-22545D01*
X43664Y-22657D02*
X43636Y-22601D01*
X43608Y-22573D01*
X43552Y-22545D01*
X43496Y-22545D01*
G54D13*
G36*
X53701Y-21943D02*
X53702Y-21949D01*
X53706Y-21953D01*
X53713Y-21957D01*
X53727Y-21960D01*
X53749Y-21962D01*
X53781Y-21964D01*
X53825Y-21965D01*
X53883Y-21966D01*
X53956Y-21967D01*
X54048Y-21968D01*
X54159Y-21969D01*
X54237Y-21969D01*
X54364Y-21970D01*
X54470Y-21970D01*
X54556Y-21970D01*
X54626Y-21969D01*
X54679Y-21968D01*
X54719Y-21967D01*
X54747Y-21965D01*
X54764Y-21962D01*
X54773Y-21959D01*
X54776Y-21956D01*
X54773Y-21935D01*
X54755Y-21907D01*
X54727Y-21877D01*
X54693Y-21850D01*
X54659Y-21831D01*
X54630Y-21823D01*
X54629Y-21823D01*
X54610Y-21817D01*
X54580Y-21801D01*
X54559Y-21788D01*
X54528Y-21768D01*
X54502Y-21758D01*
X54471Y-21756D01*
X54437Y-21758D01*
X54389Y-21764D01*
X54340Y-21773D01*
X54315Y-21780D01*
X54280Y-21790D01*
X54255Y-21792D01*
X54227Y-21784D01*
X54218Y-21780D01*
X54181Y-21770D01*
X54128Y-21763D01*
X54062Y-21758D01*
X54051Y-21758D01*
X53997Y-21756D01*
X53958Y-21756D01*
X53929Y-21760D01*
X53903Y-21769D01*
X53872Y-21783D01*
X53849Y-21795D01*
X53794Y-21827D01*
X53750Y-21862D01*
X53718Y-21898D01*
X53702Y-21930D01*
X53701Y-21943D01*
X53701Y-21943D01*
X53701Y-21943D01*
G37*
G36*
X56178Y-21105D02*
X56178Y-21156D01*
X56180Y-21214D01*
X56180Y-21217D01*
X56184Y-21286D01*
X56189Y-21337D01*
X56196Y-21376D01*
X56206Y-21408D01*
X56210Y-21417D01*
X56223Y-21454D01*
X56232Y-21500D01*
X56238Y-21561D01*
X56241Y-21599D01*
X56245Y-21670D01*
X56249Y-21723D01*
X56254Y-21762D01*
X56262Y-21789D01*
X56273Y-21811D01*
X56288Y-21831D01*
X56302Y-21846D01*
X56336Y-21878D01*
X56363Y-21890D01*
X56384Y-21885D01*
X56395Y-21874D01*
X56399Y-21865D01*
X56402Y-21849D01*
X56404Y-21822D01*
X56404Y-21782D01*
X56404Y-21729D01*
X56402Y-21659D01*
X56399Y-21570D01*
X56396Y-21477D01*
X56393Y-21384D01*
X56389Y-21297D01*
X56385Y-21219D01*
X56382Y-21152D01*
X56379Y-21100D01*
X56377Y-21066D01*
X56376Y-21055D01*
X56363Y-21015D01*
X56337Y-20979D01*
X56307Y-20953D01*
X56276Y-20944D01*
X56249Y-20953D01*
X56219Y-20978D01*
X56194Y-21012D01*
X56182Y-21043D01*
X56179Y-21065D01*
X56178Y-21105D01*
X56178Y-21105D01*
X56178Y-21105D01*
G37*
G36*
X54590Y-21156D02*
X54592Y-21214D01*
X54592Y-21217D01*
X54596Y-21286D01*
X54601Y-21336D01*
X54608Y-21375D01*
X54618Y-21407D01*
X54623Y-21418D01*
X54636Y-21455D01*
X54645Y-21499D01*
X54651Y-21556D01*
X54653Y-21600D01*
X54657Y-21671D01*
X54661Y-21724D01*
X54666Y-21762D01*
X54674Y-21790D01*
X54685Y-21812D01*
X54701Y-21832D01*
X54714Y-21846D01*
X54748Y-21878D01*
X54774Y-21890D01*
X54796Y-21885D01*
X54807Y-21874D01*
X54811Y-21865D01*
X54814Y-21849D01*
X54815Y-21822D01*
X54816Y-21782D01*
X54816Y-21729D01*
X54814Y-21659D01*
X54811Y-21570D01*
X54808Y-21477D01*
X54804Y-21384D01*
X54801Y-21297D01*
X54798Y-21219D01*
X54794Y-21152D01*
X54791Y-21100D01*
X54789Y-21066D01*
X54788Y-21055D01*
X54775Y-21015D01*
X54750Y-20979D01*
X54719Y-20953D01*
X54689Y-20944D01*
X54661Y-20953D01*
X54631Y-20978D01*
X54606Y-21012D01*
X54594Y-21043D01*
X54591Y-21065D01*
X54590Y-21105D01*
X54590Y-21156D01*
X54590Y-21156D01*
X54590Y-21156D01*
G37*
G36*
X53002Y-21105D02*
X53002Y-21156D01*
X53004Y-21214D01*
X53004Y-21217D01*
X53008Y-21286D01*
X53013Y-21336D01*
X53020Y-21375D01*
X53030Y-21407D01*
X53035Y-21418D01*
X53048Y-21455D01*
X53057Y-21499D01*
X53063Y-21556D01*
X53065Y-21600D01*
X53069Y-21671D01*
X53073Y-21724D01*
X53078Y-21762D01*
X53086Y-21790D01*
X53097Y-21812D01*
X53113Y-21832D01*
X53126Y-21846D01*
X53160Y-21878D01*
X53186Y-21890D01*
X53208Y-21885D01*
X53219Y-21874D01*
X53223Y-21865D01*
X53226Y-21849D01*
X53228Y-21822D01*
X53228Y-21782D01*
X53228Y-21729D01*
X53226Y-21659D01*
X53223Y-21570D01*
X53220Y-21477D01*
X53217Y-21384D01*
X53213Y-21297D01*
X53209Y-21219D01*
X53206Y-21152D01*
X53204Y-21100D01*
X53201Y-21066D01*
X53200Y-21055D01*
X53186Y-21015D01*
X53162Y-20979D01*
X53131Y-20953D01*
X53101Y-20944D01*
X53073Y-20953D01*
X53043Y-20978D01*
X53019Y-21012D01*
X53006Y-21043D01*
X53003Y-21065D01*
X53002Y-21105D01*
X53002Y-21105D01*
X53002Y-21105D01*
G37*
G36*
X49827Y-21105D02*
X49828Y-21157D01*
X49829Y-21215D01*
X49830Y-21219D01*
X49834Y-21288D01*
X49839Y-21339D01*
X49846Y-21378D01*
X49857Y-21410D01*
X49861Y-21420D01*
X49872Y-21452D01*
X49881Y-21489D01*
X49887Y-21538D01*
X49891Y-21603D01*
X49892Y-21618D01*
X49897Y-21696D01*
X49906Y-21755D01*
X49918Y-21800D01*
X49937Y-21834D01*
X49963Y-21861D01*
X49971Y-21868D01*
X50002Y-21888D01*
X50025Y-21889D01*
X50044Y-21874D01*
X50048Y-21865D01*
X50051Y-21849D01*
X50053Y-21822D01*
X50053Y-21782D01*
X50053Y-21729D01*
X50051Y-21659D01*
X50048Y-21570D01*
X50045Y-21477D01*
X50042Y-21384D01*
X50038Y-21297D01*
X50035Y-21219D01*
X50031Y-21152D01*
X50029Y-21100D01*
X50026Y-21066D01*
X50025Y-21055D01*
X50012Y-21015D01*
X49987Y-20979D01*
X49956Y-20953D01*
X49926Y-20944D01*
X49898Y-20953D01*
X49868Y-20978D01*
X49843Y-21012D01*
X49830Y-21043D01*
X49828Y-21066D01*
X49827Y-21105D01*
X49827Y-21105D01*
X49827Y-21105D01*
G37*
G36*
X55202Y-21150D02*
X55203Y-21219D01*
X55205Y-21297D01*
X55208Y-21380D01*
X55211Y-21465D01*
X55215Y-21549D01*
X55220Y-21628D01*
X55225Y-21700D01*
X55229Y-21760D01*
X55234Y-21806D01*
X55239Y-21835D01*
X55242Y-21842D01*
X55267Y-21856D01*
X55298Y-21853D01*
X55327Y-21833D01*
X55329Y-21832D01*
X55349Y-21806D01*
X55363Y-21780D01*
X55372Y-21748D01*
X55376Y-21704D01*
X55378Y-21645D01*
X55378Y-21627D01*
X55380Y-21550D01*
X55386Y-21486D01*
X55395Y-21442D01*
X55403Y-21400D01*
X55409Y-21343D01*
X55411Y-21277D01*
X55411Y-21209D01*
X55409Y-21146D01*
X55403Y-21094D01*
X55399Y-21075D01*
X55381Y-21031D01*
X55350Y-20989D01*
X55315Y-20959D01*
X55290Y-20948D01*
X55258Y-20950D01*
X55230Y-20974D01*
X55210Y-21018D01*
X55207Y-21027D01*
X55204Y-21051D01*
X55203Y-21093D01*
X55202Y-21150D01*
X55202Y-21150D01*
X55202Y-21150D01*
G37*
G36*
X48852Y-21144D02*
X48853Y-21212D01*
X48854Y-21289D01*
X48857Y-21372D01*
X48861Y-21457D01*
X48865Y-21541D01*
X48869Y-21621D01*
X48874Y-21693D01*
X48878Y-21755D01*
X48884Y-21802D01*
X48888Y-21833D01*
X48891Y-21842D01*
X48916Y-21856D01*
X48947Y-21853D01*
X48976Y-21834D01*
X48978Y-21832D01*
X48999Y-21806D01*
X49013Y-21780D01*
X49021Y-21747D01*
X49025Y-21703D01*
X49027Y-21643D01*
X49027Y-21629D01*
X49030Y-21540D01*
X49038Y-21469D01*
X49045Y-21438D01*
X49054Y-21403D01*
X49058Y-21361D01*
X49060Y-21309D01*
X49060Y-21241D01*
X49059Y-21218D01*
X49057Y-21154D01*
X49055Y-21108D01*
X49051Y-21076D01*
X49045Y-21053D01*
X49036Y-21035D01*
X49027Y-21021D01*
X48996Y-20985D01*
X48961Y-20958D01*
X48928Y-20944D01*
X48921Y-20944D01*
X48897Y-20954D01*
X48874Y-20984D01*
X48856Y-21025D01*
X48853Y-21047D01*
X48852Y-21088D01*
X48852Y-21144D01*
X48852Y-21144D01*
X48852Y-21144D01*
G37*
G36*
X51003Y-21545D02*
X51004Y-21606D01*
X51008Y-21653D01*
X51014Y-21688D01*
X51022Y-21714D01*
X51034Y-21734D01*
X51050Y-21750D01*
X51056Y-21755D01*
X51085Y-21773D01*
X51109Y-21775D01*
X51136Y-21759D01*
X51158Y-21739D01*
X51196Y-21700D01*
X51196Y-21584D01*
X51192Y-21496D01*
X51182Y-21408D01*
X51175Y-21369D01*
X51164Y-21311D01*
X51155Y-21242D01*
X51148Y-21174D01*
X51146Y-21150D01*
X51138Y-21071D01*
X51126Y-21014D01*
X51108Y-20978D01*
X51085Y-20962D01*
X51076Y-20961D01*
X51060Y-20967D01*
X51046Y-20988D01*
X51032Y-21024D01*
X51025Y-21048D01*
X51020Y-21076D01*
X51015Y-21112D01*
X51012Y-21159D01*
X51009Y-21220D01*
X51007Y-21298D01*
X51005Y-21367D01*
X51003Y-21466D01*
X51003Y-21545D01*
X51003Y-21545D01*
X51003Y-21545D01*
G37*
G36*
X44594Y-20932D02*
X45188Y-20932D01*
X45782Y-20932D01*
X45782Y-21304D01*
X45782Y-21675D01*
X45880Y-21675D01*
X45977Y-21675D01*
X45977Y-21321D01*
X45977Y-21233D01*
X45977Y-21154D01*
X45978Y-21085D01*
X45978Y-21029D01*
X45979Y-20990D01*
X45980Y-20969D01*
X45980Y-20966D01*
X45991Y-20972D01*
X46020Y-20986D01*
X46066Y-21010D01*
X46128Y-21041D01*
X46204Y-21080D01*
X46292Y-21124D01*
X46391Y-21175D01*
X46498Y-21230D01*
X46614Y-21289D01*
X46720Y-21343D01*
X46841Y-21405D01*
X46956Y-21464D01*
X47063Y-21518D01*
X47162Y-21568D01*
X47249Y-21612D01*
X47325Y-21650D01*
X47386Y-21681D01*
X47432Y-21703D01*
X47461Y-21716D01*
X47470Y-21720D01*
X47474Y-21716D01*
X47478Y-21700D01*
X47480Y-21672D01*
X47482Y-21630D01*
X47483Y-21571D01*
X47484Y-21494D01*
X47485Y-21398D01*
X47485Y-21326D01*
X47485Y-20932D01*
X48022Y-20932D01*
X48558Y-20932D01*
X48558Y-20835D01*
X48558Y-20739D01*
X48022Y-20739D01*
X47485Y-20739D01*
X47485Y-20339D01*
X47484Y-20246D01*
X47484Y-20161D01*
X47482Y-20086D01*
X47481Y-20024D01*
X47480Y-19977D01*
X47478Y-19948D01*
X47476Y-19940D01*
X47465Y-19944D01*
X47435Y-19959D01*
X47388Y-19983D01*
X47325Y-20014D01*
X47248Y-20053D01*
X47160Y-20098D01*
X47061Y-20148D01*
X46952Y-20204D01*
X46836Y-20263D01*
X46725Y-20320D01*
X45982Y-20700D01*
X45977Y-20351D01*
X45971Y-20002D01*
X45876Y-19999D01*
X45782Y-19995D01*
X45782Y-20367D01*
X45782Y-20739D01*
X45188Y-20739D01*
X44594Y-20739D01*
X44594Y-20835D01*
X44594Y-20932D01*
X44594Y-20932D01*
X44594Y-20932D01*
G37*
G36*
X55887Y-20877D02*
X55897Y-20916D01*
X55916Y-20948D01*
X55942Y-20971D01*
X55981Y-20983D01*
X56036Y-20989D01*
X56069Y-20989D01*
X56117Y-20989D01*
X56149Y-20987D01*
X56170Y-20980D01*
X56188Y-20969D01*
X56207Y-20951D01*
X56238Y-20908D01*
X56246Y-20864D01*
X56231Y-20819D01*
X56223Y-20806D01*
X56188Y-20775D01*
X56139Y-20756D01*
X56072Y-20751D01*
X56038Y-20752D01*
X55992Y-20757D01*
X55962Y-20765D01*
X55939Y-20778D01*
X55927Y-20789D01*
X55896Y-20831D01*
X55887Y-20877D01*
X55887Y-20877D01*
X55887Y-20877D01*
G37*
G36*
X55302Y-20875D02*
X55312Y-20919D01*
X55344Y-20960D01*
X55345Y-20961D01*
X55360Y-20972D01*
X55374Y-20980D01*
X55394Y-20985D01*
X55421Y-20988D01*
X55463Y-20989D01*
X55521Y-20989D01*
X55543Y-20989D01*
X55607Y-20989D01*
X55653Y-20988D01*
X55684Y-20986D01*
X55704Y-20982D01*
X55719Y-20975D01*
X55732Y-20965D01*
X55736Y-20961D01*
X55771Y-20918D01*
X55783Y-20873D01*
X55772Y-20828D01*
X55741Y-20788D01*
X55727Y-20775D01*
X55714Y-20766D01*
X55697Y-20760D01*
X55672Y-20757D01*
X55634Y-20756D01*
X55580Y-20755D01*
X55550Y-20755D01*
X55476Y-20756D01*
X55421Y-20759D01*
X55381Y-20766D01*
X55353Y-20777D01*
X55334Y-20794D01*
X55318Y-20818D01*
X55314Y-20826D01*
X55302Y-20875D01*
X55302Y-20875D01*
X55302Y-20875D01*
G37*
G36*
X54299Y-20876D02*
X54312Y-20921D01*
X54345Y-20961D01*
X54362Y-20975D01*
X54381Y-20983D01*
X54406Y-20988D01*
X54445Y-20989D01*
X54478Y-20989D01*
X54527Y-20989D01*
X54559Y-20987D01*
X54581Y-20981D01*
X54598Y-20971D01*
X54617Y-20953D01*
X54619Y-20951D01*
X54650Y-20908D01*
X54658Y-20864D01*
X54643Y-20819D01*
X54635Y-20806D01*
X54601Y-20775D01*
X54551Y-20756D01*
X54484Y-20751D01*
X54450Y-20752D01*
X54404Y-20757D01*
X54374Y-20765D01*
X54351Y-20778D01*
X54338Y-20789D01*
X54308Y-20831D01*
X54299Y-20876D01*
X54299Y-20876D01*
X54299Y-20876D01*
G37*
G36*
X52711Y-20876D02*
X52724Y-20921D01*
X52757Y-20961D01*
X52774Y-20975D01*
X52792Y-20983D01*
X52818Y-20988D01*
X52857Y-20989D01*
X52890Y-20989D01*
X52939Y-20989D01*
X52971Y-20987D01*
X52993Y-20981D01*
X53010Y-20971D01*
X53029Y-20953D01*
X53031Y-20951D01*
X53062Y-20908D01*
X53070Y-20864D01*
X53055Y-20819D01*
X53047Y-20806D01*
X53012Y-20775D01*
X52963Y-20756D01*
X52897Y-20751D01*
X52862Y-20752D01*
X52816Y-20757D01*
X52786Y-20765D01*
X52763Y-20778D01*
X52751Y-20789D01*
X52719Y-20831D01*
X52711Y-20876D01*
X52711Y-20876D01*
X52711Y-20876D01*
G37*
G36*
X52126Y-20875D02*
X52136Y-20919D01*
X52168Y-20960D01*
X52169Y-20961D01*
X52184Y-20972D01*
X52198Y-20980D01*
X52218Y-20985D01*
X52246Y-20988D01*
X52286Y-20989D01*
X52345Y-20989D01*
X52367Y-20989D01*
X52431Y-20989D01*
X52477Y-20988D01*
X52508Y-20986D01*
X52529Y-20982D01*
X52544Y-20975D01*
X52556Y-20965D01*
X52560Y-20961D01*
X52595Y-20918D01*
X52607Y-20873D01*
X52596Y-20828D01*
X52565Y-20788D01*
X52551Y-20775D01*
X52538Y-20766D01*
X52521Y-20760D01*
X52496Y-20757D01*
X52458Y-20756D01*
X52404Y-20755D01*
X52374Y-20755D01*
X52300Y-20756D01*
X52245Y-20759D01*
X52205Y-20766D01*
X52177Y-20777D01*
X52158Y-20794D01*
X52142Y-20818D01*
X52139Y-20826D01*
X52126Y-20875D01*
X52126Y-20875D01*
X52126Y-20875D01*
G37*
G36*
X49536Y-20876D02*
X49549Y-20921D01*
X49582Y-20961D01*
X49599Y-20975D01*
X49618Y-20983D01*
X49643Y-20988D01*
X49682Y-20989D01*
X49715Y-20989D01*
X49764Y-20989D01*
X49796Y-20987D01*
X49818Y-20981D01*
X49835Y-20971D01*
X49854Y-20953D01*
X49856Y-20951D01*
X49887Y-20908D01*
X49895Y-20864D01*
X49880Y-20819D01*
X49872Y-20806D01*
X49838Y-20775D01*
X49788Y-20756D01*
X49721Y-20751D01*
X49687Y-20752D01*
X49641Y-20757D01*
X49611Y-20765D01*
X49588Y-20778D01*
X49575Y-20789D01*
X49545Y-20831D01*
X49536Y-20876D01*
X49536Y-20876D01*
X49536Y-20876D01*
G37*
G36*
X48951Y-20875D02*
X48961Y-20919D01*
X48993Y-20960D01*
X48994Y-20961D01*
X49009Y-20972D01*
X49023Y-20980D01*
X49043Y-20985D01*
X49071Y-20988D01*
X49112Y-20989D01*
X49170Y-20989D01*
X49192Y-20989D01*
X49256Y-20989D01*
X49302Y-20988D01*
X49333Y-20986D01*
X49354Y-20982D01*
X49368Y-20975D01*
X49381Y-20965D01*
X49385Y-20961D01*
X49420Y-20918D01*
X49432Y-20873D01*
X49422Y-20828D01*
X49390Y-20788D01*
X49376Y-20775D01*
X49363Y-20766D01*
X49346Y-20760D01*
X49320Y-20757D01*
X49283Y-20756D01*
X49229Y-20755D01*
X49199Y-20755D01*
X49125Y-20756D01*
X49070Y-20759D01*
X49030Y-20766D01*
X49002Y-20777D01*
X48983Y-20794D01*
X48967Y-20818D01*
X48964Y-20826D01*
X48951Y-20875D01*
X48951Y-20875D01*
X48951Y-20875D01*
G37*
G36*
X55148Y-20007D02*
X55150Y-20081D01*
X55153Y-20174D01*
X55158Y-20287D01*
X55162Y-20357D01*
X55167Y-20466D01*
X55172Y-20555D01*
X55176Y-20626D01*
X55179Y-20680D01*
X55183Y-20721D01*
X55186Y-20750D01*
X55190Y-20769D01*
X55195Y-20783D01*
X55200Y-20791D01*
X55206Y-20797D01*
X55207Y-20798D01*
X55238Y-20815D01*
X55268Y-20813D01*
X55303Y-20792D01*
X55313Y-20784D01*
X55339Y-20758D01*
X55357Y-20734D01*
X55369Y-20703D01*
X55375Y-20662D01*
X55376Y-20608D01*
X55375Y-20537D01*
X55372Y-20471D01*
X55369Y-20423D01*
X55362Y-20387D01*
X55354Y-20357D01*
X55344Y-20333D01*
X55332Y-20304D01*
X55324Y-20272D01*
X55318Y-20231D01*
X55313Y-20176D01*
X55310Y-20124D01*
X55303Y-19971D01*
X55249Y-19921D01*
X55223Y-19897D01*
X55201Y-19880D01*
X55184Y-19871D01*
X55170Y-19872D01*
X55160Y-19885D01*
X55153Y-19911D01*
X55149Y-19951D01*
X55148Y-20007D01*
X55148Y-20007D01*
X55148Y-20007D01*
G37*
G36*
X51973Y-20007D02*
X51974Y-20081D01*
X51977Y-20173D01*
X51982Y-20286D01*
X51986Y-20356D01*
X51991Y-20466D01*
X51996Y-20555D01*
X52000Y-20625D01*
X52003Y-20680D01*
X52007Y-20721D01*
X52011Y-20750D01*
X52014Y-20769D01*
X52019Y-20783D01*
X52024Y-20791D01*
X52030Y-20797D01*
X52031Y-20798D01*
X52062Y-20815D01*
X52092Y-20813D01*
X52127Y-20792D01*
X52137Y-20784D01*
X52163Y-20758D01*
X52181Y-20734D01*
X52193Y-20703D01*
X52199Y-20662D01*
X52201Y-20608D01*
X52199Y-20537D01*
X52196Y-20471D01*
X52193Y-20423D01*
X52187Y-20387D01*
X52178Y-20357D01*
X52168Y-20333D01*
X52157Y-20304D01*
X52148Y-20272D01*
X52142Y-20231D01*
X52137Y-20176D01*
X52134Y-20124D01*
X52127Y-19971D01*
X52074Y-19921D01*
X52047Y-19897D01*
X52026Y-19880D01*
X52008Y-19871D01*
X51994Y-19872D01*
X51984Y-19885D01*
X51977Y-19911D01*
X51974Y-19951D01*
X51973Y-20007D01*
X51973Y-20007D01*
X51973Y-20007D01*
G37*
G36*
X50942Y-20109D02*
X50942Y-20164D01*
X50945Y-20228D01*
X50949Y-20295D01*
X50954Y-20363D01*
X50961Y-20424D01*
X50968Y-20475D01*
X50973Y-20499D01*
X50983Y-20552D01*
X50991Y-20612D01*
X50996Y-20656D01*
X51004Y-20727D01*
X51017Y-20775D01*
X51035Y-20805D01*
X51058Y-20815D01*
X51080Y-20811D01*
X51094Y-20797D01*
X51111Y-20772D01*
X51112Y-20771D01*
X51119Y-20750D01*
X51124Y-20724D01*
X51125Y-20685D01*
X51123Y-20630D01*
X51122Y-20616D01*
X51119Y-20545D01*
X51121Y-20490D01*
X51128Y-20441D01*
X51133Y-20419D01*
X51142Y-20360D01*
X51148Y-20287D01*
X51150Y-20210D01*
X51147Y-20138D01*
X51140Y-20088D01*
X51120Y-20036D01*
X51094Y-20005D01*
X51053Y-19979D01*
X51014Y-19975D01*
X50979Y-19992D01*
X50952Y-20031D01*
X50947Y-20043D01*
X50943Y-20067D01*
X50942Y-20109D01*
X50942Y-20109D01*
X50942Y-20109D01*
G37*
G36*
X48798Y-20007D02*
X48799Y-20080D01*
X48802Y-20173D01*
X48807Y-20286D01*
X48811Y-20356D01*
X48816Y-20466D01*
X48821Y-20554D01*
X48825Y-20625D01*
X48828Y-20680D01*
X48832Y-20721D01*
X48835Y-20750D01*
X48839Y-20769D01*
X48844Y-20782D01*
X48849Y-20791D01*
X48855Y-20797D01*
X48856Y-20798D01*
X48887Y-20815D01*
X48917Y-20813D01*
X48952Y-20792D01*
X48962Y-20784D01*
X48988Y-20758D01*
X49006Y-20734D01*
X49018Y-20703D01*
X49024Y-20662D01*
X49026Y-20608D01*
X49024Y-20537D01*
X49022Y-20471D01*
X49018Y-20423D01*
X49012Y-20387D01*
X49003Y-20357D01*
X48993Y-20333D01*
X48982Y-20304D01*
X48973Y-20272D01*
X48967Y-20231D01*
X48962Y-20176D01*
X48959Y-20124D01*
X48952Y-19971D01*
X48899Y-19921D01*
X48873Y-19897D01*
X48851Y-19880D01*
X48833Y-19871D01*
X48819Y-19872D01*
X48809Y-19885D01*
X48803Y-19911D01*
X48799Y-19951D01*
X48798Y-20007D01*
X48798Y-20007D01*
X48798Y-20007D01*
G37*
G36*
X56144Y-20478D02*
X56145Y-20525D01*
X56146Y-20560D01*
X56153Y-20635D01*
X56164Y-20691D01*
X56181Y-20733D01*
X56205Y-20763D01*
X56227Y-20781D01*
X56258Y-20800D01*
X56280Y-20805D01*
X56302Y-20795D01*
X56318Y-20783D01*
X56341Y-20757D01*
X56354Y-20730D01*
X56355Y-20709D01*
X56355Y-20668D01*
X56354Y-20612D01*
X56352Y-20542D01*
X56349Y-20464D01*
X56346Y-20379D01*
X56342Y-20293D01*
X56337Y-20207D01*
X56333Y-20125D01*
X56328Y-20051D01*
X56324Y-19988D01*
X56320Y-19940D01*
X56316Y-19909D01*
X56315Y-19902D01*
X56301Y-19870D01*
X56284Y-19861D01*
X56261Y-19873D01*
X56249Y-19885D01*
X56225Y-19915D01*
X56207Y-19944D01*
X56196Y-19979D01*
X56190Y-20022D01*
X56187Y-20080D01*
X56187Y-20148D01*
X56188Y-20215D01*
X56187Y-20264D01*
X56184Y-20302D01*
X56178Y-20333D01*
X56169Y-20364D01*
X56165Y-20374D01*
X56153Y-20409D01*
X56146Y-20442D01*
X56144Y-20478D01*
X56144Y-20478D01*
X56144Y-20478D01*
G37*
G36*
X54556Y-20478D02*
X54557Y-20525D01*
X54558Y-20560D01*
X54565Y-20635D01*
X54576Y-20691D01*
X54593Y-20733D01*
X54617Y-20763D01*
X54640Y-20781D01*
X54670Y-20800D01*
X54692Y-20805D01*
X54714Y-20795D01*
X54730Y-20783D01*
X54753Y-20757D01*
X54766Y-20730D01*
X54767Y-20709D01*
X54767Y-20668D01*
X54766Y-20612D01*
X54764Y-20542D01*
X54761Y-20464D01*
X54758Y-20379D01*
X54754Y-20293D01*
X54750Y-20207D01*
X54745Y-20125D01*
X54740Y-20051D01*
X54736Y-19988D01*
X54731Y-19940D01*
X54728Y-19909D01*
X54726Y-19902D01*
X54713Y-19870D01*
X54695Y-19861D01*
X54673Y-19873D01*
X54661Y-19885D01*
X54637Y-19915D01*
X54619Y-19944D01*
X54608Y-19979D01*
X54602Y-20022D01*
X54599Y-20080D01*
X54600Y-20148D01*
X54600Y-20215D01*
X54599Y-20264D01*
X54596Y-20302D01*
X54590Y-20333D01*
X54581Y-20364D01*
X54577Y-20374D01*
X54565Y-20409D01*
X54558Y-20442D01*
X54556Y-20478D01*
X54556Y-20478D01*
X54556Y-20478D01*
G37*
G36*
X52968Y-20478D02*
X52968Y-20525D01*
X52971Y-20560D01*
X52977Y-20635D01*
X52988Y-20691D01*
X53005Y-20733D01*
X53030Y-20763D01*
X53052Y-20781D01*
X53083Y-20800D01*
X53105Y-20805D01*
X53126Y-20795D01*
X53142Y-20783D01*
X53165Y-20757D01*
X53178Y-20730D01*
X53179Y-20709D01*
X53179Y-20668D01*
X53178Y-20612D01*
X53176Y-20542D01*
X53173Y-20464D01*
X53170Y-20379D01*
X53166Y-20293D01*
X53161Y-20207D01*
X53157Y-20125D01*
X53153Y-20051D01*
X53148Y-19988D01*
X53144Y-19940D01*
X53140Y-19909D01*
X53138Y-19902D01*
X53125Y-19870D01*
X53108Y-19861D01*
X53085Y-19873D01*
X53073Y-19885D01*
X53049Y-19915D01*
X53032Y-19944D01*
X53020Y-19979D01*
X53014Y-20022D01*
X53011Y-20080D01*
X53012Y-20148D01*
X53012Y-20215D01*
X53011Y-20264D01*
X53008Y-20302D01*
X53002Y-20333D01*
X52992Y-20364D01*
X52989Y-20374D01*
X52977Y-20409D01*
X52971Y-20442D01*
X52968Y-20478D01*
X52968Y-20478D01*
X52968Y-20478D01*
G37*
G36*
X49793Y-20478D02*
X49794Y-20525D01*
X49796Y-20560D01*
X49802Y-20635D01*
X49813Y-20691D01*
X49830Y-20733D01*
X49854Y-20763D01*
X49877Y-20781D01*
X49908Y-20800D01*
X49930Y-20805D01*
X49951Y-20795D01*
X49967Y-20783D01*
X49990Y-20757D01*
X50003Y-20730D01*
X50004Y-20709D01*
X50005Y-20669D01*
X50004Y-20612D01*
X50001Y-20543D01*
X49999Y-20464D01*
X49995Y-20380D01*
X49991Y-20293D01*
X49987Y-20207D01*
X49982Y-20125D01*
X49978Y-20051D01*
X49973Y-19989D01*
X49969Y-19940D01*
X49965Y-19909D01*
X49963Y-19902D01*
X49950Y-19870D01*
X49933Y-19861D01*
X49910Y-19873D01*
X49898Y-19885D01*
X49874Y-19915D01*
X49857Y-19944D01*
X49845Y-19979D01*
X49839Y-20022D01*
X49836Y-20080D01*
X49837Y-20148D01*
X49837Y-20215D01*
X49836Y-20264D01*
X49833Y-20302D01*
X49827Y-20333D01*
X49818Y-20364D01*
X49814Y-20374D01*
X49802Y-20409D01*
X49796Y-20442D01*
X49793Y-20478D01*
X49793Y-20478D01*
X49793Y-20478D01*
G37*
G36*
X46148Y-20123D02*
X46206Y-20093D01*
X46238Y-20078D01*
X46261Y-20068D01*
X46267Y-20067D01*
X46273Y-20078D01*
X46287Y-20106D01*
X46307Y-20147D01*
X46331Y-20197D01*
X46340Y-20217D01*
X46365Y-20269D01*
X46388Y-20312D01*
X46406Y-20344D01*
X46417Y-20360D01*
X46419Y-20361D01*
X46434Y-20355D01*
X46458Y-20341D01*
X46459Y-20341D01*
X46481Y-20326D01*
X46491Y-20315D01*
X46491Y-20315D01*
X46486Y-20303D01*
X46473Y-20274D01*
X46454Y-20232D01*
X46431Y-20181D01*
X46422Y-20163D01*
X46397Y-20111D01*
X46377Y-20066D01*
X46362Y-20034D01*
X46354Y-20016D01*
X46354Y-20015D01*
X46363Y-20009D01*
X46387Y-19996D01*
X46411Y-19985D01*
X46442Y-19969D01*
X46463Y-19957D01*
X46468Y-19952D01*
X46458Y-19943D01*
X46433Y-19925D01*
X46396Y-19899D01*
X46348Y-19867D01*
X46316Y-19845D01*
X46165Y-19745D01*
X46157Y-19840D01*
X46154Y-19901D01*
X46151Y-19970D01*
X46149Y-20028D01*
X46148Y-20123D01*
X46148Y-20123D01*
X46148Y-20123D01*
G37*
G36*
X46586Y-19821D02*
X46587Y-19861D01*
X46588Y-19887D01*
X46590Y-19894D01*
X46604Y-19888D01*
X46630Y-19874D01*
X46645Y-19865D01*
X46673Y-19849D01*
X46693Y-19839D01*
X46697Y-19837D01*
X46704Y-19846D01*
X46719Y-19873D01*
X46740Y-19913D01*
X46765Y-19963D01*
X46776Y-19985D01*
X46802Y-20038D01*
X46825Y-20082D01*
X46843Y-20114D01*
X46853Y-20132D01*
X46855Y-20133D01*
X46869Y-20128D01*
X46893Y-20116D01*
X46896Y-20114D01*
X46920Y-20101D01*
X46933Y-20094D01*
X46934Y-20093D01*
X46930Y-20083D01*
X46918Y-20055D01*
X46899Y-20015D01*
X46876Y-19966D01*
X46868Y-19951D01*
X46843Y-19898D01*
X46822Y-19853D01*
X46807Y-19819D01*
X46799Y-19799D01*
X46799Y-19797D01*
X46809Y-19785D01*
X46833Y-19769D01*
X46850Y-19759D01*
X46880Y-19743D01*
X46899Y-19729D01*
X46902Y-19724D01*
X46893Y-19715D01*
X46869Y-19697D01*
X46834Y-19672D01*
X46792Y-19642D01*
X46746Y-19610D01*
X46700Y-19580D01*
X46659Y-19553D01*
X46626Y-19532D01*
X46605Y-19520D01*
X46600Y-19519D01*
X46597Y-19532D01*
X46594Y-19563D01*
X46592Y-19607D01*
X46590Y-19659D01*
X46588Y-19715D01*
X46587Y-19771D01*
X46586Y-19821D01*
X46586Y-19821D01*
X46586Y-19821D01*
G37*
G36*
X53619Y-19815D02*
X53630Y-19850D01*
X53649Y-19881D01*
X53673Y-19912D01*
X53692Y-19929D01*
X53714Y-19938D01*
X53744Y-19944D01*
X53776Y-19953D01*
X53799Y-19966D01*
X53801Y-19968D01*
X53819Y-19976D01*
X53856Y-19982D01*
X53904Y-19986D01*
X53959Y-19987D01*
X54017Y-19985D01*
X54071Y-19981D01*
X54116Y-19975D01*
X54147Y-19967D01*
X54150Y-19966D01*
X54180Y-19954D01*
X54203Y-19953D01*
X54227Y-19962D01*
X54256Y-19970D01*
X54300Y-19977D01*
X54349Y-19981D01*
X54355Y-19982D01*
X54404Y-19983D01*
X54437Y-19981D01*
X54461Y-19974D01*
X54485Y-19961D01*
X54486Y-19960D01*
X54526Y-19938D01*
X54567Y-19918D01*
X54572Y-19917D01*
X54609Y-19895D01*
X54640Y-19864D01*
X54662Y-19829D01*
X54667Y-19797D01*
X54666Y-19791D01*
X54662Y-19787D01*
X54655Y-19783D01*
X54641Y-19780D01*
X54619Y-19778D01*
X54587Y-19776D01*
X54542Y-19774D01*
X54483Y-19773D01*
X54408Y-19772D01*
X54315Y-19771D01*
X54201Y-19771D01*
X54167Y-19771D01*
X54061Y-19770D01*
X53963Y-19770D01*
X53873Y-19770D01*
X53794Y-19770D01*
X53730Y-19771D01*
X53681Y-19772D01*
X53652Y-19773D01*
X53644Y-19774D01*
X53623Y-19788D01*
X53619Y-19815D01*
X53619Y-19815D01*
X53619Y-19815D01*
G37*
G36*
X52030Y-19811D02*
X52038Y-19842D01*
X52056Y-19874D01*
X52082Y-19904D01*
X52114Y-19929D01*
X52150Y-19943D01*
X52154Y-19943D01*
X52187Y-19952D01*
X52210Y-19965D01*
X52213Y-19968D01*
X52232Y-19976D01*
X52268Y-19982D01*
X52316Y-19986D01*
X52371Y-19987D01*
X52429Y-19985D01*
X52483Y-19981D01*
X52528Y-19975D01*
X52559Y-19967D01*
X52562Y-19966D01*
X52591Y-19954D01*
X52615Y-19953D01*
X52639Y-19962D01*
X52669Y-19970D01*
X52712Y-19977D01*
X52761Y-19981D01*
X52767Y-19982D01*
X52816Y-19983D01*
X52849Y-19981D01*
X52874Y-19974D01*
X52897Y-19961D01*
X52899Y-19960D01*
X52937Y-19938D01*
X52979Y-19918D01*
X52984Y-19917D01*
X53021Y-19895D01*
X53052Y-19864D01*
X53073Y-19829D01*
X53079Y-19797D01*
X53078Y-19791D01*
X53074Y-19787D01*
X53067Y-19783D01*
X53053Y-19780D01*
X53031Y-19778D01*
X52998Y-19776D01*
X52954Y-19774D01*
X52895Y-19773D01*
X52820Y-19772D01*
X52727Y-19771D01*
X52613Y-19771D01*
X52579Y-19771D01*
X52474Y-19770D01*
X52375Y-19770D01*
X52285Y-19770D01*
X52206Y-19770D01*
X52142Y-19771D01*
X52093Y-19772D01*
X52064Y-19773D01*
X52056Y-19774D01*
X52036Y-19787D01*
X52030Y-19811D01*
X52030Y-19811D01*
X52030Y-19811D01*
G37*
G36*
X50443Y-19811D02*
X50451Y-19842D01*
X50469Y-19874D01*
X50495Y-19904D01*
X50526Y-19929D01*
X50562Y-19943D01*
X50566Y-19943D01*
X50599Y-19952D01*
X50622Y-19965D01*
X50625Y-19968D01*
X50644Y-19976D01*
X50680Y-19982D01*
X50728Y-19986D01*
X50784Y-19987D01*
X50841Y-19985D01*
X50895Y-19981D01*
X50940Y-19975D01*
X50971Y-19967D01*
X50974Y-19966D01*
X51004Y-19954D01*
X51027Y-19953D01*
X51051Y-19962D01*
X51080Y-19970D01*
X51124Y-19977D01*
X51173Y-19981D01*
X51179Y-19982D01*
X51228Y-19983D01*
X51261Y-19981D01*
X51286Y-19974D01*
X51309Y-19961D01*
X51311Y-19960D01*
X51349Y-19938D01*
X51391Y-19918D01*
X51396Y-19917D01*
X51433Y-19895D01*
X51464Y-19864D01*
X51486Y-19829D01*
X51491Y-19797D01*
X51490Y-19791D01*
X51486Y-19787D01*
X51479Y-19783D01*
X51465Y-19780D01*
X51443Y-19778D01*
X51410Y-19776D01*
X51366Y-19774D01*
X51307Y-19773D01*
X51232Y-19772D01*
X51139Y-19771D01*
X51025Y-19771D01*
X50991Y-19771D01*
X50885Y-19770D01*
X50787Y-19770D01*
X50697Y-19770D01*
X50618Y-19770D01*
X50554Y-19771D01*
X50505Y-19772D01*
X50477Y-19773D01*
X50469Y-19774D01*
X50448Y-19787D01*
X50443Y-19811D01*
X50443Y-19811D01*
X50443Y-19811D01*
G37*
G36*
X48855Y-19811D02*
X48863Y-19842D01*
X48881Y-19874D01*
X48907Y-19904D01*
X48939Y-19929D01*
X48975Y-19943D01*
X48979Y-19943D01*
X49012Y-19952D01*
X49035Y-19965D01*
X49038Y-19968D01*
X49057Y-19976D01*
X49093Y-19982D01*
X49141Y-19986D01*
X49196Y-19987D01*
X49254Y-19985D01*
X49308Y-19981D01*
X49353Y-19975D01*
X49385Y-19967D01*
X49387Y-19966D01*
X49417Y-19954D01*
X49440Y-19953D01*
X49464Y-19962D01*
X49494Y-19970D01*
X49537Y-19977D01*
X49586Y-19981D01*
X49592Y-19982D01*
X49641Y-19983D01*
X49674Y-19981D01*
X49699Y-19974D01*
X49722Y-19961D01*
X49724Y-19960D01*
X49763Y-19938D01*
X49804Y-19918D01*
X49809Y-19917D01*
X49846Y-19895D01*
X49877Y-19864D01*
X49899Y-19829D01*
X49904Y-19797D01*
X49903Y-19791D01*
X49899Y-19787D01*
X49892Y-19783D01*
X49878Y-19780D01*
X49856Y-19778D01*
X49824Y-19776D01*
X49779Y-19774D01*
X49720Y-19773D01*
X49645Y-19772D01*
X49552Y-19771D01*
X49438Y-19771D01*
X49404Y-19771D01*
X49299Y-19770D01*
X49200Y-19770D01*
X49110Y-19770D01*
X49031Y-19770D01*
X48967Y-19771D01*
X48918Y-19772D01*
X48889Y-19773D01*
X48881Y-19774D01*
X48861Y-19787D01*
X48855Y-19811D01*
X48855Y-19811D01*
X48855Y-19811D01*
G37*
M02*
