G04 (created by PCBNEW (2013-may-18)-stable) date Tue 21 Oct 2014 06:54:13 PM CEST*
%MOIN*%
G04 Gerber Fmt 3.4, Leading zero omitted, Abs format*
%FSLAX34Y34*%
G01*
G70*
G90*
G04 APERTURE LIST*
%ADD10C,0.00590551*%
%ADD11C,0.11811*%
%ADD12R,0.0591X0.0591*%
%ADD13C,0.0591*%
%ADD14C,0.0984252*%
%ADD15C,0.137795*%
%ADD16C,0.12*%
%ADD17R,0.06X0.06*%
%ADD18C,0.06*%
%ADD19R,0.1063X0.1004*%
%ADD20R,0.1496X0.1004*%
%ADD21R,0.0236X0.0394*%
%ADD22R,0.0335X0.0335*%
%ADD23R,0.02X0.045*%
%ADD24R,0.08X0.06*%
%ADD25R,0.045X0.025*%
%ADD26R,0.025X0.045*%
%ADD27R,0.065X0.12*%
%ADD28R,0.24X0.24*%
%ADD29C,0.023622*%
%ADD30C,0.019685*%
%ADD31C,0.0067*%
G04 APERTURE END LIST*
G54D10*
G54D11*
X55250Y-32500D03*
X50750Y-32500D03*
G54D12*
X51250Y-30000D03*
G54D13*
X51750Y-29000D03*
X52250Y-30000D03*
X52750Y-29000D03*
X53250Y-30000D03*
X53750Y-29000D03*
X54250Y-30000D03*
X54750Y-29000D03*
G54D14*
X49950Y-31299D03*
X56050Y-31299D03*
G54D11*
X47250Y-32500D03*
X42750Y-32500D03*
G54D12*
X43250Y-30000D03*
G54D13*
X43750Y-29000D03*
X44250Y-30000D03*
X44750Y-29000D03*
X45250Y-30000D03*
X45750Y-29000D03*
X46250Y-30000D03*
X46750Y-29000D03*
G54D14*
X41950Y-31299D03*
X48050Y-31299D03*
G54D15*
X40150Y-14400D03*
X40150Y-34100D03*
X57850Y-34100D03*
X57850Y-14400D03*
G54D16*
X53300Y-15050D03*
X44700Y-15050D03*
G54D17*
X47000Y-15750D03*
G54D18*
X47000Y-14750D03*
X48000Y-15750D03*
X48000Y-14750D03*
X49000Y-15750D03*
X49000Y-14750D03*
X50000Y-15750D03*
X50000Y-14750D03*
X51000Y-15750D03*
X51000Y-14750D03*
G54D19*
X44000Y-23819D03*
G54D20*
X44000Y-26181D03*
G54D21*
X46625Y-20916D03*
X47000Y-20084D03*
X47375Y-20916D03*
X55625Y-20916D03*
X56000Y-20084D03*
X56375Y-20916D03*
X48125Y-20916D03*
X48500Y-20084D03*
X48875Y-20916D03*
X54125Y-20916D03*
X54500Y-20084D03*
X54875Y-20916D03*
X45125Y-20916D03*
X45500Y-20084D03*
X45875Y-20916D03*
X52625Y-20916D03*
X53000Y-20084D03*
X53375Y-20916D03*
X51125Y-20916D03*
X51500Y-20084D03*
X51875Y-20916D03*
X49625Y-20916D03*
X50000Y-20084D03*
X50375Y-20916D03*
G54D22*
X41591Y-22500D03*
X42909Y-22500D03*
G54D23*
X52500Y-24250D03*
X52000Y-24250D03*
X51500Y-24250D03*
X51000Y-24250D03*
X50500Y-24250D03*
X50000Y-24250D03*
X49500Y-24250D03*
X49000Y-24250D03*
X49000Y-26250D03*
X49500Y-26250D03*
X50000Y-26250D03*
X50500Y-26250D03*
X51000Y-26250D03*
X51500Y-26250D03*
X52000Y-26250D03*
X52500Y-26250D03*
G54D24*
X51500Y-19150D03*
X51500Y-17850D03*
X48500Y-19150D03*
X48500Y-17850D03*
X50000Y-19150D03*
X50000Y-17850D03*
X47000Y-19150D03*
X47000Y-17850D03*
X53000Y-19150D03*
X53000Y-17850D03*
X54500Y-19150D03*
X54500Y-17850D03*
X56000Y-19150D03*
X56000Y-17850D03*
X45500Y-19150D03*
X45500Y-17850D03*
G54D25*
X42250Y-16050D03*
X42250Y-15450D03*
X56000Y-21700D03*
X56000Y-22300D03*
X40000Y-21450D03*
X40000Y-22050D03*
X54500Y-21700D03*
X54500Y-22300D03*
X53000Y-21700D03*
X53000Y-22300D03*
X51500Y-21700D03*
X51500Y-22300D03*
X42250Y-14550D03*
X42250Y-13950D03*
X41500Y-16050D03*
X41500Y-15450D03*
X50000Y-21700D03*
X50000Y-22300D03*
X41500Y-14550D03*
X41500Y-13950D03*
G54D26*
X53200Y-26250D03*
X53800Y-26250D03*
G54D25*
X48500Y-21700D03*
X48500Y-22300D03*
X45500Y-21700D03*
X45500Y-22300D03*
X47000Y-21700D03*
X47000Y-22300D03*
G54D27*
X41100Y-21000D03*
G54D28*
X42000Y-18500D03*
G54D27*
X42900Y-21000D03*
G54D19*
X41500Y-23819D03*
G54D20*
X41500Y-26181D03*
G54D25*
X44000Y-21450D03*
X44000Y-22050D03*
G54D22*
X55091Y-27000D03*
X56409Y-27000D03*
X47409Y-27000D03*
X46091Y-27000D03*
X47409Y-25500D03*
X46091Y-25500D03*
X55091Y-26250D03*
X56409Y-26250D03*
X47409Y-26250D03*
X46091Y-26250D03*
G54D25*
X51750Y-27800D03*
X51750Y-27200D03*
X50250Y-27800D03*
X50250Y-27200D03*
X49500Y-27800D03*
X49500Y-27200D03*
X51000Y-27800D03*
X51000Y-27200D03*
X48750Y-27200D03*
X48750Y-27800D03*
G54D29*
X42750Y-24750D03*
X41500Y-16500D03*
X40000Y-21000D03*
X42250Y-16500D03*
X44000Y-21000D03*
X52000Y-34000D03*
X45500Y-34000D03*
X48250Y-28250D03*
X51750Y-28250D03*
X48750Y-30250D03*
X46000Y-33500D03*
X52500Y-33500D03*
X53250Y-25500D03*
X52000Y-25500D03*
X56750Y-21500D03*
X55250Y-21500D03*
X53750Y-21500D03*
X52250Y-21500D03*
X50750Y-21500D03*
X49250Y-21500D03*
X47750Y-21500D03*
X46250Y-21500D03*
X48500Y-26750D03*
X50000Y-26750D03*
X54500Y-26250D03*
X50500Y-25750D03*
X51250Y-31250D03*
X54000Y-31250D03*
X49500Y-28750D03*
X47750Y-28750D03*
X54500Y-14250D03*
X54500Y-17250D03*
X51500Y-17250D03*
X48250Y-17000D03*
G54D30*
X41500Y-23819D02*
X41500Y-24500D01*
X41750Y-24750D02*
X42750Y-24750D01*
X41500Y-24500D02*
X41750Y-24750D01*
X41500Y-16050D02*
X41500Y-16500D01*
X41591Y-22500D02*
X41591Y-22909D01*
X41591Y-22909D02*
X41500Y-23000D01*
X41500Y-23000D02*
X41500Y-23819D01*
X41591Y-22500D02*
X41591Y-22091D01*
X41100Y-21600D02*
X41500Y-22000D01*
X41100Y-21600D02*
X41100Y-21000D01*
X41591Y-22091D02*
X41500Y-22000D01*
X40000Y-21450D02*
X40000Y-21000D01*
X40000Y-21000D02*
X41100Y-21000D01*
X52500Y-26250D02*
X53200Y-26250D01*
X42250Y-16050D02*
X42250Y-16500D01*
X52500Y-26250D02*
X52500Y-25250D01*
X52250Y-25000D02*
X52500Y-25250D01*
X44250Y-24750D02*
X48500Y-24750D01*
X44000Y-24500D02*
X44250Y-24750D01*
X44000Y-24500D02*
X44000Y-23819D01*
X48500Y-24750D02*
X48750Y-25000D01*
X48750Y-25000D02*
X52250Y-25000D01*
X44000Y-21000D02*
X44000Y-21450D01*
X42900Y-21000D02*
X44000Y-21000D01*
X44000Y-21000D02*
X44000Y-21000D01*
X42909Y-22500D02*
X43500Y-22500D01*
X43500Y-22500D02*
X44000Y-23000D01*
X44000Y-23000D02*
X44000Y-23819D01*
X42900Y-21000D02*
X42900Y-22491D01*
X42900Y-22491D02*
X42909Y-22500D01*
X51250Y-30000D02*
X51250Y-30500D01*
X52000Y-31250D02*
X52000Y-31750D01*
X51250Y-30500D02*
X52000Y-31250D01*
X52000Y-33500D02*
X52000Y-31750D01*
X45500Y-32750D02*
X45500Y-33500D01*
X43250Y-30500D02*
X44500Y-31750D01*
X44500Y-31750D02*
X44500Y-31750D01*
X44500Y-31750D02*
X45500Y-32750D01*
X43250Y-30500D02*
X43250Y-30000D01*
X45500Y-33500D02*
X45500Y-34000D01*
X52000Y-34000D02*
X52000Y-33500D01*
X50250Y-27800D02*
X50250Y-29000D01*
X50250Y-29000D02*
X51250Y-30000D01*
X45500Y-30750D02*
X47000Y-30750D01*
X45250Y-30500D02*
X45500Y-30750D01*
X45250Y-30000D02*
X45250Y-30500D01*
X47000Y-30750D02*
X48250Y-29500D01*
X51750Y-27800D02*
X51750Y-28250D01*
X48250Y-28250D02*
X48250Y-29500D01*
X48250Y-29500D02*
X48250Y-29500D01*
X48750Y-27800D02*
X48750Y-30250D01*
X52250Y-30000D02*
X52250Y-30250D01*
X52500Y-30750D02*
X52500Y-31750D01*
X52250Y-30500D02*
X52500Y-30750D01*
X52250Y-30250D02*
X52250Y-30500D01*
X52500Y-33500D02*
X52500Y-31750D01*
X46000Y-33250D02*
X46000Y-33500D01*
X44250Y-30500D02*
X44250Y-30000D01*
X45000Y-31250D02*
X46000Y-32250D01*
X45000Y-31250D02*
X45000Y-31250D01*
X44250Y-30500D02*
X45000Y-31250D01*
X46000Y-32250D02*
X46000Y-33250D01*
X51000Y-27800D02*
X51000Y-29250D01*
X51250Y-29500D02*
X51000Y-29250D01*
X51750Y-29500D02*
X52250Y-30000D01*
X51750Y-29500D02*
X51250Y-29500D01*
X53250Y-25000D02*
X53250Y-24750D01*
X56000Y-22500D02*
X56000Y-22300D01*
X55250Y-23250D02*
X56000Y-22500D01*
X54750Y-23250D02*
X55250Y-23250D01*
X53250Y-24750D02*
X54750Y-23250D01*
X53250Y-25000D02*
X53250Y-25000D01*
X53250Y-25000D02*
X53250Y-25500D01*
X52000Y-25500D02*
X52000Y-26250D01*
X52500Y-24250D02*
X52500Y-24000D01*
X54500Y-22500D02*
X54500Y-22300D01*
X54250Y-22750D02*
X54500Y-22500D01*
X53750Y-22750D02*
X54250Y-22750D01*
X52500Y-24000D02*
X53750Y-22750D01*
X52000Y-24250D02*
X52000Y-23500D01*
X53000Y-22500D02*
X53000Y-22300D01*
X52000Y-23500D02*
X53000Y-22500D01*
X51500Y-24250D02*
X51500Y-22300D01*
X51000Y-24250D02*
X51000Y-23500D01*
X50000Y-22500D02*
X50000Y-22300D01*
X51000Y-23500D02*
X50000Y-22500D01*
X50500Y-24250D02*
X50500Y-23750D01*
X48500Y-22500D02*
X48500Y-22300D01*
X48750Y-22750D02*
X48500Y-22500D01*
X49500Y-22750D02*
X48750Y-22750D01*
X50500Y-23750D02*
X49500Y-22750D01*
X50000Y-24250D02*
X50000Y-23750D01*
X47000Y-22500D02*
X47000Y-22300D01*
X47750Y-23250D02*
X47000Y-22500D01*
X49500Y-23250D02*
X47750Y-23250D01*
X50000Y-23750D02*
X49500Y-23250D01*
X49500Y-24250D02*
X49500Y-24000D01*
X45500Y-22500D02*
X45500Y-22300D01*
X46750Y-23750D02*
X45500Y-22500D01*
X49250Y-23750D02*
X46750Y-23750D01*
X49500Y-24000D02*
X49250Y-23750D01*
X56375Y-20916D02*
X56375Y-21125D01*
X56375Y-21125D02*
X56750Y-21500D01*
X55250Y-21500D02*
X54875Y-21125D01*
X54875Y-21125D02*
X54875Y-20916D01*
X53750Y-21500D02*
X53375Y-21125D01*
X53375Y-21125D02*
X53375Y-20916D01*
X51875Y-20916D02*
X51875Y-21125D01*
X51875Y-21125D02*
X52250Y-21500D01*
X50375Y-20916D02*
X50375Y-21125D01*
X50375Y-21125D02*
X50750Y-21500D01*
X48875Y-20916D02*
X48875Y-21125D01*
X48875Y-21125D02*
X49250Y-21500D01*
X47375Y-20916D02*
X47375Y-21125D01*
X47375Y-21125D02*
X47750Y-21500D01*
X46250Y-21500D02*
X45875Y-21125D01*
X45875Y-21125D02*
X45875Y-20916D01*
X51500Y-19150D02*
X51500Y-20084D01*
X51125Y-20916D02*
X51125Y-21125D01*
X51500Y-21500D02*
X51500Y-21700D01*
X51125Y-21125D02*
X51500Y-21500D01*
X53000Y-19150D02*
X53000Y-20084D01*
X52625Y-20916D02*
X52625Y-21125D01*
X53000Y-21500D02*
X53000Y-21700D01*
X52625Y-21125D02*
X53000Y-21500D01*
X54125Y-20916D02*
X54125Y-21125D01*
X54500Y-21500D02*
X54500Y-21700D01*
X54125Y-21125D02*
X54500Y-21500D01*
X56000Y-19150D02*
X56000Y-20000D01*
X56000Y-20000D02*
X56000Y-20084D01*
X55625Y-20916D02*
X55625Y-21125D01*
X56000Y-21500D02*
X56000Y-21700D01*
X55625Y-21125D02*
X56000Y-21500D01*
X54500Y-19150D02*
X54500Y-20084D01*
X50000Y-19150D02*
X50000Y-20084D01*
X49625Y-20916D02*
X49625Y-21125D01*
X50000Y-21500D02*
X50000Y-21700D01*
X49625Y-21125D02*
X50000Y-21500D01*
X48500Y-19150D02*
X48500Y-20084D01*
X47409Y-25500D02*
X49250Y-25500D01*
X49500Y-25750D02*
X49500Y-26250D01*
X49250Y-25500D02*
X49500Y-25750D01*
X49500Y-27200D02*
X49500Y-26250D01*
X47409Y-27000D02*
X47750Y-27000D01*
X48000Y-26750D02*
X48500Y-26750D01*
X47750Y-27000D02*
X48000Y-26750D01*
X50000Y-26750D02*
X50250Y-27000D01*
X50250Y-27000D02*
X50250Y-27200D01*
X50000Y-26750D02*
X50000Y-26250D01*
X49000Y-26250D02*
X47409Y-26250D01*
X48750Y-27200D02*
X48750Y-27000D01*
X49000Y-26750D02*
X49000Y-26250D01*
X48750Y-27000D02*
X49000Y-26750D01*
X51750Y-27200D02*
X52300Y-27200D01*
X52500Y-27000D02*
X55091Y-27000D01*
X52300Y-27200D02*
X52500Y-27000D01*
X51500Y-26250D02*
X51500Y-26500D01*
X51750Y-26750D02*
X51750Y-27200D01*
X51500Y-26500D02*
X51750Y-26750D01*
X50500Y-26250D02*
X50500Y-25750D01*
X54500Y-26250D02*
X55091Y-26250D01*
X50500Y-26250D02*
X50500Y-26500D01*
X51000Y-27000D02*
X51000Y-27200D01*
X50500Y-26500D02*
X51000Y-27000D01*
X45500Y-20084D02*
X45500Y-19150D01*
X45125Y-20916D02*
X45125Y-21125D01*
X45500Y-21500D02*
X45500Y-21700D01*
X45125Y-21125D02*
X45500Y-21500D01*
X47000Y-19150D02*
X47000Y-20084D01*
X46625Y-20916D02*
X46625Y-21125D01*
X47000Y-21500D02*
X47000Y-21700D01*
X46625Y-21125D02*
X47000Y-21500D01*
X48125Y-20916D02*
X48125Y-21125D01*
X48500Y-21500D02*
X48500Y-21700D01*
X48125Y-21125D02*
X48500Y-21500D01*
X42250Y-15450D02*
X42250Y-14550D01*
X41500Y-15450D02*
X41500Y-14550D01*
X54000Y-31250D02*
X54250Y-31000D01*
X54250Y-30000D02*
X54250Y-31000D01*
X49500Y-29500D02*
X49500Y-28750D01*
X49500Y-29500D02*
X51250Y-31250D01*
X46250Y-30000D02*
X47000Y-30000D01*
X47750Y-29250D02*
X47000Y-30000D01*
X47750Y-28750D02*
X47750Y-29250D01*
X49500Y-27800D02*
X49500Y-28750D01*
X53500Y-16750D02*
X55500Y-16750D01*
X55500Y-16750D02*
X56000Y-17250D01*
X56000Y-17250D02*
X56000Y-17850D01*
X52250Y-16250D02*
X53000Y-16250D01*
X51750Y-15750D02*
X52250Y-16250D01*
X51000Y-15750D02*
X51750Y-15750D01*
X53000Y-16250D02*
X53500Y-16750D01*
X51000Y-14250D02*
X51250Y-14000D01*
X51250Y-14000D02*
X54250Y-14000D01*
X54250Y-14000D02*
X54500Y-14250D01*
X51000Y-14750D02*
X51000Y-14250D01*
X54500Y-17250D02*
X54500Y-17850D01*
X52750Y-16750D02*
X50500Y-16750D01*
X53000Y-17000D02*
X52750Y-16750D01*
X53000Y-17850D02*
X53000Y-17000D01*
X50000Y-16250D02*
X50000Y-15750D01*
X50500Y-16750D02*
X50000Y-16250D01*
X51500Y-17850D02*
X51500Y-17250D01*
X49000Y-15750D02*
X49000Y-16250D01*
X50000Y-17250D02*
X49000Y-16250D01*
X50000Y-17250D02*
X50000Y-17850D01*
X48500Y-17850D02*
X48500Y-17250D01*
X48500Y-17250D02*
X48250Y-17000D01*
X47750Y-16500D02*
X48000Y-16250D01*
X47000Y-17250D02*
X47750Y-16500D01*
X47000Y-17850D02*
X47000Y-17250D01*
X48000Y-16250D02*
X48000Y-15750D01*
X46500Y-14000D02*
X47750Y-14000D01*
X46250Y-14250D02*
X46500Y-14000D01*
X45500Y-17850D02*
X45500Y-17250D01*
X45500Y-17250D02*
X46250Y-16500D01*
X46250Y-16500D02*
X46250Y-14250D01*
X48000Y-14250D02*
X48000Y-14750D01*
X47750Y-14000D02*
X48000Y-14250D01*
G54D10*
G36*
X58629Y-33833D02*
X58547Y-33634D01*
X58316Y-33403D01*
X58014Y-33277D01*
X57687Y-33277D01*
X57384Y-33402D01*
X57153Y-33633D01*
X57027Y-33935D01*
X57027Y-34262D01*
X57152Y-34565D01*
X57383Y-34796D01*
X57583Y-34879D01*
X56677Y-34879D01*
X56677Y-27147D01*
X56677Y-26852D01*
X56677Y-26397D01*
X56677Y-26102D01*
X56676Y-26062D01*
X56661Y-26025D01*
X56633Y-25997D01*
X56596Y-25981D01*
X56593Y-25981D01*
X56593Y-21093D01*
X56593Y-20738D01*
X56593Y-20698D01*
X56578Y-20661D01*
X56549Y-20633D01*
X56533Y-20627D01*
X56533Y-19423D01*
X56533Y-18823D01*
X56533Y-18123D01*
X56533Y-17523D01*
X56513Y-17474D01*
X56475Y-17436D01*
X56426Y-17416D01*
X56373Y-17416D01*
X56231Y-17416D01*
X56231Y-17250D01*
X56231Y-17250D01*
X56231Y-17250D01*
X56214Y-17161D01*
X56163Y-17086D01*
X56163Y-17086D01*
X55663Y-16586D01*
X55588Y-16535D01*
X55500Y-16518D01*
X55499Y-16518D01*
X54751Y-16518D01*
X54751Y-14200D01*
X54713Y-14107D01*
X54642Y-14036D01*
X54594Y-14017D01*
X54413Y-13836D01*
X54338Y-13785D01*
X54250Y-13768D01*
X54249Y-13768D01*
X51250Y-13768D01*
X51161Y-13785D01*
X51086Y-13836D01*
X51086Y-13836D01*
X50836Y-14086D01*
X50785Y-14161D01*
X50768Y-14250D01*
X50768Y-14250D01*
X50768Y-14376D01*
X50754Y-14382D01*
X50632Y-14504D01*
X50566Y-14663D01*
X50566Y-14835D01*
X50632Y-14995D01*
X50754Y-15117D01*
X50913Y-15183D01*
X51085Y-15183D01*
X51245Y-15117D01*
X51367Y-14995D01*
X51433Y-14836D01*
X51433Y-14664D01*
X51367Y-14504D01*
X51245Y-14382D01*
X51231Y-14376D01*
X51231Y-14346D01*
X51346Y-14231D01*
X54153Y-14231D01*
X54267Y-14345D01*
X54286Y-14392D01*
X54357Y-14463D01*
X54449Y-14501D01*
X54549Y-14501D01*
X54642Y-14463D01*
X54713Y-14392D01*
X54751Y-14300D01*
X54751Y-14200D01*
X54751Y-16518D01*
X54033Y-16518D01*
X54033Y-14904D01*
X53922Y-14635D01*
X53716Y-14428D01*
X53446Y-14316D01*
X53154Y-14316D01*
X52885Y-14427D01*
X52678Y-14633D01*
X52566Y-14903D01*
X52566Y-15195D01*
X52677Y-15464D01*
X52883Y-15671D01*
X53153Y-15783D01*
X53445Y-15783D01*
X53714Y-15672D01*
X53921Y-15466D01*
X54033Y-15196D01*
X54033Y-14904D01*
X54033Y-16518D01*
X53596Y-16518D01*
X53163Y-16086D01*
X53088Y-16035D01*
X53000Y-16018D01*
X52999Y-16018D01*
X52346Y-16018D01*
X51913Y-15586D01*
X51838Y-15535D01*
X51750Y-15518D01*
X51749Y-15518D01*
X51373Y-15518D01*
X51367Y-15504D01*
X51245Y-15382D01*
X51086Y-15316D01*
X50914Y-15316D01*
X50754Y-15382D01*
X50632Y-15504D01*
X50566Y-15663D01*
X50566Y-15835D01*
X50632Y-15995D01*
X50754Y-16117D01*
X50913Y-16183D01*
X51085Y-16183D01*
X51245Y-16117D01*
X51367Y-15995D01*
X51373Y-15981D01*
X51653Y-15981D01*
X52086Y-16413D01*
X52086Y-16413D01*
X52161Y-16464D01*
X52250Y-16481D01*
X52250Y-16481D01*
X52250Y-16481D01*
X52903Y-16481D01*
X53336Y-16913D01*
X53336Y-16913D01*
X53411Y-16964D01*
X53500Y-16981D01*
X53500Y-16981D01*
X53500Y-16981D01*
X55403Y-16981D01*
X55768Y-17346D01*
X55768Y-17416D01*
X55573Y-17416D01*
X55524Y-17436D01*
X55486Y-17474D01*
X55466Y-17523D01*
X55466Y-17576D01*
X55466Y-18176D01*
X55486Y-18225D01*
X55524Y-18263D01*
X55573Y-18283D01*
X55626Y-18283D01*
X56426Y-18283D01*
X56475Y-18263D01*
X56513Y-18225D01*
X56533Y-18176D01*
X56533Y-18123D01*
X56533Y-18823D01*
X56513Y-18774D01*
X56475Y-18736D01*
X56426Y-18716D01*
X56373Y-18716D01*
X55573Y-18716D01*
X55524Y-18736D01*
X55486Y-18774D01*
X55466Y-18823D01*
X55466Y-18876D01*
X55466Y-19476D01*
X55486Y-19525D01*
X55524Y-19563D01*
X55573Y-19583D01*
X55626Y-19583D01*
X55768Y-19583D01*
X55768Y-19813D01*
X55748Y-19860D01*
X55748Y-19913D01*
X55748Y-20307D01*
X55768Y-20356D01*
X55806Y-20394D01*
X55855Y-20414D01*
X55908Y-20414D01*
X56144Y-20414D01*
X56193Y-20394D01*
X56231Y-20356D01*
X56251Y-20307D01*
X56251Y-20254D01*
X56251Y-19860D01*
X56231Y-19813D01*
X56231Y-19583D01*
X56426Y-19583D01*
X56475Y-19563D01*
X56513Y-19525D01*
X56533Y-19476D01*
X56533Y-19423D01*
X56533Y-20627D01*
X56512Y-20618D01*
X56459Y-20618D01*
X56434Y-20643D01*
X56434Y-20817D01*
X56568Y-20817D01*
X56593Y-20792D01*
X56593Y-20738D01*
X56593Y-21093D01*
X56593Y-21039D01*
X56568Y-21014D01*
X56434Y-21014D01*
X56434Y-21188D01*
X56459Y-21213D01*
X56512Y-21213D01*
X56549Y-21198D01*
X56578Y-21170D01*
X56593Y-21133D01*
X56593Y-21093D01*
X56593Y-25981D01*
X56517Y-25982D01*
X56492Y-26007D01*
X56492Y-26166D01*
X56651Y-26166D01*
X56677Y-26141D01*
X56677Y-26102D01*
X56677Y-26397D01*
X56677Y-26358D01*
X56651Y-26333D01*
X56492Y-26333D01*
X56492Y-26492D01*
X56517Y-26518D01*
X56596Y-26518D01*
X56633Y-26502D01*
X56661Y-26474D01*
X56676Y-26437D01*
X56677Y-26397D01*
X56677Y-26852D01*
X56676Y-26812D01*
X56661Y-26775D01*
X56633Y-26747D01*
X56596Y-26731D01*
X56517Y-26732D01*
X56492Y-26757D01*
X56492Y-26916D01*
X56651Y-26916D01*
X56677Y-26891D01*
X56677Y-26852D01*
X56677Y-27147D01*
X56677Y-27108D01*
X56651Y-27083D01*
X56492Y-27083D01*
X56492Y-27242D01*
X56517Y-27268D01*
X56596Y-27268D01*
X56633Y-27252D01*
X56661Y-27224D01*
X56676Y-27187D01*
X56677Y-27147D01*
X56677Y-34879D01*
X56675Y-34879D01*
X56675Y-31175D01*
X56580Y-30945D01*
X56404Y-30769D01*
X56358Y-30749D01*
X56358Y-22398D01*
X56358Y-22148D01*
X56358Y-21798D01*
X56358Y-21548D01*
X56338Y-21499D01*
X56316Y-21477D01*
X56316Y-21188D01*
X56316Y-21014D01*
X56316Y-20817D01*
X56316Y-20643D01*
X56290Y-20618D01*
X56237Y-20618D01*
X56200Y-20633D01*
X56171Y-20661D01*
X56156Y-20698D01*
X56156Y-20738D01*
X56156Y-20792D01*
X56181Y-20817D01*
X56316Y-20817D01*
X56316Y-21014D01*
X56181Y-21014D01*
X56156Y-21039D01*
X56156Y-21093D01*
X56156Y-21133D01*
X56171Y-21170D01*
X56200Y-21198D01*
X56237Y-21213D01*
X56290Y-21213D01*
X56316Y-21188D01*
X56316Y-21477D01*
X56300Y-21461D01*
X56251Y-21441D01*
X56220Y-21441D01*
X56214Y-21411D01*
X56163Y-21336D01*
X56163Y-21336D01*
X55876Y-21048D01*
X55876Y-20692D01*
X55856Y-20643D01*
X55818Y-20605D01*
X55769Y-20585D01*
X55716Y-20585D01*
X55480Y-20585D01*
X55431Y-20605D01*
X55393Y-20643D01*
X55373Y-20692D01*
X55373Y-20745D01*
X55373Y-21139D01*
X55393Y-21188D01*
X55408Y-21203D01*
X55410Y-21213D01*
X55461Y-21288D01*
X55666Y-21494D01*
X55661Y-21499D01*
X55641Y-21548D01*
X55641Y-21601D01*
X55641Y-21851D01*
X55661Y-21900D01*
X55699Y-21938D01*
X55748Y-21958D01*
X55801Y-21958D01*
X56251Y-21958D01*
X56300Y-21938D01*
X56338Y-21900D01*
X56358Y-21851D01*
X56358Y-21798D01*
X56358Y-22148D01*
X56338Y-22099D01*
X56300Y-22061D01*
X56251Y-22041D01*
X56198Y-22041D01*
X55748Y-22041D01*
X55699Y-22061D01*
X55661Y-22099D01*
X55641Y-22148D01*
X55641Y-22201D01*
X55641Y-22451D01*
X55661Y-22500D01*
X55666Y-22505D01*
X55153Y-23018D01*
X55093Y-23018D01*
X55093Y-21093D01*
X55093Y-20738D01*
X55093Y-20698D01*
X55078Y-20661D01*
X55049Y-20633D01*
X55033Y-20627D01*
X55033Y-19423D01*
X55033Y-18823D01*
X55033Y-18123D01*
X55033Y-17523D01*
X55013Y-17474D01*
X54975Y-17436D01*
X54926Y-17416D01*
X54873Y-17416D01*
X54731Y-17416D01*
X54731Y-17347D01*
X54751Y-17300D01*
X54751Y-17200D01*
X54713Y-17107D01*
X54642Y-17036D01*
X54550Y-16998D01*
X54450Y-16998D01*
X54357Y-17036D01*
X54286Y-17107D01*
X54248Y-17199D01*
X54248Y-17299D01*
X54268Y-17347D01*
X54268Y-17416D01*
X54073Y-17416D01*
X54024Y-17436D01*
X53986Y-17474D01*
X53966Y-17523D01*
X53966Y-17576D01*
X53966Y-18176D01*
X53986Y-18225D01*
X54024Y-18263D01*
X54073Y-18283D01*
X54126Y-18283D01*
X54926Y-18283D01*
X54975Y-18263D01*
X55013Y-18225D01*
X55033Y-18176D01*
X55033Y-18123D01*
X55033Y-18823D01*
X55013Y-18774D01*
X54975Y-18736D01*
X54926Y-18716D01*
X54873Y-18716D01*
X54073Y-18716D01*
X54024Y-18736D01*
X53986Y-18774D01*
X53966Y-18823D01*
X53966Y-18876D01*
X53966Y-19476D01*
X53986Y-19525D01*
X54024Y-19563D01*
X54073Y-19583D01*
X54126Y-19583D01*
X54268Y-19583D01*
X54268Y-19813D01*
X54248Y-19860D01*
X54248Y-19913D01*
X54248Y-20307D01*
X54268Y-20356D01*
X54306Y-20394D01*
X54355Y-20414D01*
X54408Y-20414D01*
X54644Y-20414D01*
X54693Y-20394D01*
X54731Y-20356D01*
X54751Y-20307D01*
X54751Y-20254D01*
X54751Y-19860D01*
X54731Y-19813D01*
X54731Y-19583D01*
X54926Y-19583D01*
X54975Y-19563D01*
X55013Y-19525D01*
X55033Y-19476D01*
X55033Y-19423D01*
X55033Y-20627D01*
X55012Y-20618D01*
X54959Y-20618D01*
X54934Y-20643D01*
X54934Y-20817D01*
X55068Y-20817D01*
X55093Y-20792D01*
X55093Y-20738D01*
X55093Y-21093D01*
X55093Y-21039D01*
X55068Y-21014D01*
X54934Y-21014D01*
X54934Y-21188D01*
X54959Y-21213D01*
X55012Y-21213D01*
X55049Y-21198D01*
X55078Y-21170D01*
X55093Y-21133D01*
X55093Y-21093D01*
X55093Y-23018D01*
X54858Y-23018D01*
X54858Y-22398D01*
X54858Y-22148D01*
X54858Y-21798D01*
X54858Y-21548D01*
X54838Y-21499D01*
X54816Y-21477D01*
X54816Y-21188D01*
X54816Y-21014D01*
X54816Y-20817D01*
X54816Y-20643D01*
X54790Y-20618D01*
X54737Y-20618D01*
X54700Y-20633D01*
X54671Y-20661D01*
X54656Y-20698D01*
X54656Y-20738D01*
X54656Y-20792D01*
X54681Y-20817D01*
X54816Y-20817D01*
X54816Y-21014D01*
X54681Y-21014D01*
X54656Y-21039D01*
X54656Y-21093D01*
X54656Y-21133D01*
X54671Y-21170D01*
X54700Y-21198D01*
X54737Y-21213D01*
X54790Y-21213D01*
X54816Y-21188D01*
X54816Y-21477D01*
X54800Y-21461D01*
X54751Y-21441D01*
X54720Y-21441D01*
X54714Y-21411D01*
X54663Y-21336D01*
X54663Y-21336D01*
X54376Y-21048D01*
X54376Y-20692D01*
X54356Y-20643D01*
X54318Y-20605D01*
X54269Y-20585D01*
X54216Y-20585D01*
X53980Y-20585D01*
X53931Y-20605D01*
X53893Y-20643D01*
X53873Y-20692D01*
X53873Y-20745D01*
X53873Y-21139D01*
X53893Y-21188D01*
X53908Y-21203D01*
X53910Y-21213D01*
X53961Y-21288D01*
X54166Y-21494D01*
X54161Y-21499D01*
X54141Y-21548D01*
X54141Y-21601D01*
X54141Y-21851D01*
X54161Y-21900D01*
X54199Y-21938D01*
X54248Y-21958D01*
X54301Y-21958D01*
X54751Y-21958D01*
X54800Y-21938D01*
X54838Y-21900D01*
X54858Y-21851D01*
X54858Y-21798D01*
X54858Y-22148D01*
X54838Y-22099D01*
X54800Y-22061D01*
X54751Y-22041D01*
X54698Y-22041D01*
X54248Y-22041D01*
X54199Y-22061D01*
X54161Y-22099D01*
X54141Y-22148D01*
X54141Y-22201D01*
X54141Y-22451D01*
X54161Y-22500D01*
X54166Y-22505D01*
X54153Y-22518D01*
X53750Y-22518D01*
X53750Y-22518D01*
X53661Y-22535D01*
X53593Y-22580D01*
X53593Y-21093D01*
X53593Y-20738D01*
X53593Y-20698D01*
X53578Y-20661D01*
X53549Y-20633D01*
X53533Y-20627D01*
X53533Y-19423D01*
X53533Y-18823D01*
X53533Y-18123D01*
X53533Y-17523D01*
X53513Y-17474D01*
X53475Y-17436D01*
X53426Y-17416D01*
X53373Y-17416D01*
X53231Y-17416D01*
X53231Y-17000D01*
X53214Y-16911D01*
X53163Y-16836D01*
X53163Y-16836D01*
X52913Y-16586D01*
X52838Y-16535D01*
X52750Y-16518D01*
X52749Y-16518D01*
X50596Y-16518D01*
X50231Y-16153D01*
X50231Y-16123D01*
X50245Y-16117D01*
X50367Y-15995D01*
X50433Y-15836D01*
X50433Y-15664D01*
X50433Y-14664D01*
X50367Y-14504D01*
X50245Y-14382D01*
X50086Y-14316D01*
X49914Y-14316D01*
X49754Y-14382D01*
X49632Y-14504D01*
X49566Y-14663D01*
X49566Y-14835D01*
X49632Y-14995D01*
X49754Y-15117D01*
X49913Y-15183D01*
X50085Y-15183D01*
X50245Y-15117D01*
X50367Y-14995D01*
X50433Y-14836D01*
X50433Y-14664D01*
X50433Y-15664D01*
X50367Y-15504D01*
X50245Y-15382D01*
X50086Y-15316D01*
X49914Y-15316D01*
X49754Y-15382D01*
X49632Y-15504D01*
X49566Y-15663D01*
X49566Y-15835D01*
X49632Y-15995D01*
X49754Y-16117D01*
X49768Y-16123D01*
X49768Y-16249D01*
X49768Y-16250D01*
X49785Y-16338D01*
X49836Y-16413D01*
X50336Y-16913D01*
X50336Y-16913D01*
X50411Y-16964D01*
X50500Y-16981D01*
X50500Y-16981D01*
X50500Y-16981D01*
X52653Y-16981D01*
X52768Y-17096D01*
X52768Y-17416D01*
X52573Y-17416D01*
X52524Y-17436D01*
X52486Y-17474D01*
X52466Y-17523D01*
X52466Y-17576D01*
X52466Y-18176D01*
X52486Y-18225D01*
X52524Y-18263D01*
X52573Y-18283D01*
X52626Y-18283D01*
X53426Y-18283D01*
X53475Y-18263D01*
X53513Y-18225D01*
X53533Y-18176D01*
X53533Y-18123D01*
X53533Y-18823D01*
X53513Y-18774D01*
X53475Y-18736D01*
X53426Y-18716D01*
X53373Y-18716D01*
X52573Y-18716D01*
X52524Y-18736D01*
X52486Y-18774D01*
X52466Y-18823D01*
X52466Y-18876D01*
X52466Y-19476D01*
X52486Y-19525D01*
X52524Y-19563D01*
X52573Y-19583D01*
X52626Y-19583D01*
X52768Y-19583D01*
X52768Y-19813D01*
X52748Y-19860D01*
X52748Y-19913D01*
X52748Y-20307D01*
X52768Y-20356D01*
X52806Y-20394D01*
X52855Y-20414D01*
X52908Y-20414D01*
X53144Y-20414D01*
X53193Y-20394D01*
X53231Y-20356D01*
X53251Y-20307D01*
X53251Y-20254D01*
X53251Y-19860D01*
X53231Y-19813D01*
X53231Y-19583D01*
X53426Y-19583D01*
X53475Y-19563D01*
X53513Y-19525D01*
X53533Y-19476D01*
X53533Y-19423D01*
X53533Y-20627D01*
X53512Y-20618D01*
X53459Y-20618D01*
X53434Y-20643D01*
X53434Y-20817D01*
X53568Y-20817D01*
X53593Y-20792D01*
X53593Y-20738D01*
X53593Y-21093D01*
X53593Y-21039D01*
X53568Y-21014D01*
X53434Y-21014D01*
X53434Y-21188D01*
X53459Y-21213D01*
X53512Y-21213D01*
X53549Y-21198D01*
X53578Y-21170D01*
X53593Y-21133D01*
X53593Y-21093D01*
X53593Y-22580D01*
X53586Y-22586D01*
X53586Y-22586D01*
X53358Y-22813D01*
X53358Y-22398D01*
X53358Y-22148D01*
X53358Y-21798D01*
X53358Y-21548D01*
X53338Y-21499D01*
X53316Y-21477D01*
X53316Y-21188D01*
X53316Y-21014D01*
X53316Y-20817D01*
X53316Y-20643D01*
X53290Y-20618D01*
X53237Y-20618D01*
X53200Y-20633D01*
X53171Y-20661D01*
X53156Y-20698D01*
X53156Y-20738D01*
X53156Y-20792D01*
X53181Y-20817D01*
X53316Y-20817D01*
X53316Y-21014D01*
X53181Y-21014D01*
X53156Y-21039D01*
X53156Y-21093D01*
X53156Y-21133D01*
X53171Y-21170D01*
X53200Y-21198D01*
X53237Y-21213D01*
X53290Y-21213D01*
X53316Y-21188D01*
X53316Y-21477D01*
X53300Y-21461D01*
X53251Y-21441D01*
X53220Y-21441D01*
X53214Y-21411D01*
X53163Y-21336D01*
X53163Y-21336D01*
X52876Y-21048D01*
X52876Y-20692D01*
X52856Y-20643D01*
X52818Y-20605D01*
X52769Y-20585D01*
X52716Y-20585D01*
X52480Y-20585D01*
X52431Y-20605D01*
X52393Y-20643D01*
X52373Y-20692D01*
X52373Y-20745D01*
X52373Y-21139D01*
X52393Y-21188D01*
X52408Y-21203D01*
X52410Y-21213D01*
X52461Y-21288D01*
X52666Y-21494D01*
X52661Y-21499D01*
X52641Y-21548D01*
X52641Y-21601D01*
X52641Y-21851D01*
X52661Y-21900D01*
X52699Y-21938D01*
X52748Y-21958D01*
X52801Y-21958D01*
X53251Y-21958D01*
X53300Y-21938D01*
X53338Y-21900D01*
X53358Y-21851D01*
X53358Y-21798D01*
X53358Y-22148D01*
X53338Y-22099D01*
X53300Y-22061D01*
X53251Y-22041D01*
X53198Y-22041D01*
X52748Y-22041D01*
X52699Y-22061D01*
X52661Y-22099D01*
X52641Y-22148D01*
X52641Y-22201D01*
X52641Y-22451D01*
X52661Y-22500D01*
X52666Y-22505D01*
X52093Y-23078D01*
X52093Y-21093D01*
X52093Y-20738D01*
X52093Y-20698D01*
X52078Y-20661D01*
X52049Y-20633D01*
X52033Y-20627D01*
X52033Y-19423D01*
X52033Y-18823D01*
X52033Y-18123D01*
X52033Y-17523D01*
X52013Y-17474D01*
X51975Y-17436D01*
X51926Y-17416D01*
X51873Y-17416D01*
X51731Y-17416D01*
X51731Y-17347D01*
X51751Y-17300D01*
X51751Y-17200D01*
X51713Y-17107D01*
X51642Y-17036D01*
X51550Y-16998D01*
X51450Y-16998D01*
X51357Y-17036D01*
X51286Y-17107D01*
X51248Y-17199D01*
X51248Y-17299D01*
X51268Y-17347D01*
X51268Y-17416D01*
X51073Y-17416D01*
X51024Y-17436D01*
X50986Y-17474D01*
X50966Y-17523D01*
X50966Y-17576D01*
X50966Y-18176D01*
X50986Y-18225D01*
X51024Y-18263D01*
X51073Y-18283D01*
X51126Y-18283D01*
X51926Y-18283D01*
X51975Y-18263D01*
X52013Y-18225D01*
X52033Y-18176D01*
X52033Y-18123D01*
X52033Y-18823D01*
X52013Y-18774D01*
X51975Y-18736D01*
X51926Y-18716D01*
X51873Y-18716D01*
X51073Y-18716D01*
X51024Y-18736D01*
X50986Y-18774D01*
X50966Y-18823D01*
X50966Y-18876D01*
X50966Y-19476D01*
X50986Y-19525D01*
X51024Y-19563D01*
X51073Y-19583D01*
X51126Y-19583D01*
X51268Y-19583D01*
X51268Y-19813D01*
X51248Y-19860D01*
X51248Y-19913D01*
X51248Y-20307D01*
X51268Y-20356D01*
X51306Y-20394D01*
X51355Y-20414D01*
X51408Y-20414D01*
X51644Y-20414D01*
X51693Y-20394D01*
X51731Y-20356D01*
X51751Y-20307D01*
X51751Y-20254D01*
X51751Y-19860D01*
X51731Y-19813D01*
X51731Y-19583D01*
X51926Y-19583D01*
X51975Y-19563D01*
X52013Y-19525D01*
X52033Y-19476D01*
X52033Y-19423D01*
X52033Y-20627D01*
X52012Y-20618D01*
X51959Y-20618D01*
X51934Y-20643D01*
X51934Y-20817D01*
X52068Y-20817D01*
X52093Y-20792D01*
X52093Y-20738D01*
X52093Y-21093D01*
X52093Y-21039D01*
X52068Y-21014D01*
X51934Y-21014D01*
X51934Y-21188D01*
X51959Y-21213D01*
X52012Y-21213D01*
X52049Y-21198D01*
X52078Y-21170D01*
X52093Y-21133D01*
X52093Y-21093D01*
X52093Y-23078D01*
X51858Y-23313D01*
X51858Y-22398D01*
X51858Y-22148D01*
X51858Y-21798D01*
X51858Y-21548D01*
X51838Y-21499D01*
X51816Y-21477D01*
X51816Y-21188D01*
X51816Y-21014D01*
X51816Y-20817D01*
X51816Y-20643D01*
X51790Y-20618D01*
X51737Y-20618D01*
X51700Y-20633D01*
X51671Y-20661D01*
X51656Y-20698D01*
X51656Y-20738D01*
X51656Y-20792D01*
X51681Y-20817D01*
X51816Y-20817D01*
X51816Y-21014D01*
X51681Y-21014D01*
X51656Y-21039D01*
X51656Y-21093D01*
X51656Y-21133D01*
X51671Y-21170D01*
X51700Y-21198D01*
X51737Y-21213D01*
X51790Y-21213D01*
X51816Y-21188D01*
X51816Y-21477D01*
X51800Y-21461D01*
X51751Y-21441D01*
X51720Y-21441D01*
X51714Y-21411D01*
X51663Y-21336D01*
X51663Y-21336D01*
X51376Y-21048D01*
X51376Y-20692D01*
X51356Y-20643D01*
X51318Y-20605D01*
X51269Y-20585D01*
X51216Y-20585D01*
X50980Y-20585D01*
X50931Y-20605D01*
X50893Y-20643D01*
X50873Y-20692D01*
X50873Y-20745D01*
X50873Y-21139D01*
X50893Y-21188D01*
X50908Y-21203D01*
X50910Y-21213D01*
X50961Y-21288D01*
X51166Y-21494D01*
X51161Y-21499D01*
X51141Y-21548D01*
X51141Y-21601D01*
X51141Y-21851D01*
X51161Y-21900D01*
X51199Y-21938D01*
X51248Y-21958D01*
X51301Y-21958D01*
X51751Y-21958D01*
X51800Y-21938D01*
X51838Y-21900D01*
X51858Y-21851D01*
X51858Y-21798D01*
X51858Y-22148D01*
X51838Y-22099D01*
X51800Y-22061D01*
X51751Y-22041D01*
X51698Y-22041D01*
X51248Y-22041D01*
X51199Y-22061D01*
X51161Y-22099D01*
X51141Y-22148D01*
X51141Y-22201D01*
X51141Y-22451D01*
X51161Y-22500D01*
X51199Y-22538D01*
X51248Y-22558D01*
X51268Y-22558D01*
X51268Y-23994D01*
X51266Y-23998D01*
X51266Y-24051D01*
X51266Y-24501D01*
X51286Y-24550D01*
X51324Y-24588D01*
X51373Y-24608D01*
X51426Y-24608D01*
X51626Y-24608D01*
X51675Y-24588D01*
X51713Y-24550D01*
X51733Y-24501D01*
X51733Y-24448D01*
X51733Y-23998D01*
X51731Y-23994D01*
X51731Y-22558D01*
X51751Y-22558D01*
X51800Y-22538D01*
X51838Y-22500D01*
X51858Y-22451D01*
X51858Y-22398D01*
X51858Y-23313D01*
X51836Y-23336D01*
X51785Y-23411D01*
X51768Y-23500D01*
X51768Y-23500D01*
X51768Y-23994D01*
X51766Y-23998D01*
X51766Y-24051D01*
X51766Y-24501D01*
X51786Y-24550D01*
X51824Y-24588D01*
X51873Y-24608D01*
X51926Y-24608D01*
X52126Y-24608D01*
X52175Y-24588D01*
X52213Y-24550D01*
X52233Y-24501D01*
X52233Y-24448D01*
X52233Y-23998D01*
X52231Y-23994D01*
X52231Y-23596D01*
X53163Y-22663D01*
X53163Y-22663D01*
X53163Y-22663D01*
X53214Y-22588D01*
X53220Y-22558D01*
X53251Y-22558D01*
X53300Y-22538D01*
X53338Y-22500D01*
X53358Y-22451D01*
X53358Y-22398D01*
X53358Y-22813D01*
X52336Y-23836D01*
X52285Y-23911D01*
X52270Y-23989D01*
X52266Y-23998D01*
X52266Y-24051D01*
X52266Y-24501D01*
X52286Y-24550D01*
X52324Y-24588D01*
X52373Y-24608D01*
X52426Y-24608D01*
X52626Y-24608D01*
X52675Y-24588D01*
X52713Y-24550D01*
X52733Y-24501D01*
X52733Y-24448D01*
X52733Y-24094D01*
X53846Y-22981D01*
X54249Y-22981D01*
X54250Y-22981D01*
X54250Y-22981D01*
X54338Y-22964D01*
X54413Y-22913D01*
X54663Y-22663D01*
X54663Y-22663D01*
X54663Y-22663D01*
X54714Y-22588D01*
X54720Y-22558D01*
X54751Y-22558D01*
X54800Y-22538D01*
X54838Y-22500D01*
X54858Y-22451D01*
X54858Y-22398D01*
X54858Y-23018D01*
X54750Y-23018D01*
X54661Y-23035D01*
X54586Y-23086D01*
X54586Y-23086D01*
X53086Y-24586D01*
X53035Y-24661D01*
X53018Y-24750D01*
X53018Y-24750D01*
X53018Y-25000D01*
X53018Y-25402D01*
X52998Y-25449D01*
X52998Y-25549D01*
X53036Y-25642D01*
X53107Y-25713D01*
X53199Y-25751D01*
X53299Y-25751D01*
X53392Y-25713D01*
X53463Y-25642D01*
X53501Y-25550D01*
X53501Y-25450D01*
X53481Y-25402D01*
X53481Y-25000D01*
X53481Y-24846D01*
X54846Y-23481D01*
X55249Y-23481D01*
X55250Y-23481D01*
X55250Y-23481D01*
X55338Y-23464D01*
X55413Y-23413D01*
X56163Y-22663D01*
X56163Y-22663D01*
X56163Y-22663D01*
X56214Y-22588D01*
X56214Y-22588D01*
X56220Y-22558D01*
X56251Y-22558D01*
X56300Y-22538D01*
X56338Y-22500D01*
X56358Y-22451D01*
X56358Y-22398D01*
X56358Y-30749D01*
X56325Y-30736D01*
X56325Y-27242D01*
X56325Y-27083D01*
X56325Y-26916D01*
X56325Y-26757D01*
X56325Y-26492D01*
X56325Y-26333D01*
X56325Y-26166D01*
X56325Y-26007D01*
X56300Y-25982D01*
X56221Y-25981D01*
X56184Y-25997D01*
X56156Y-26025D01*
X56141Y-26062D01*
X56140Y-26102D01*
X56141Y-26141D01*
X56166Y-26166D01*
X56325Y-26166D01*
X56325Y-26333D01*
X56166Y-26333D01*
X56141Y-26358D01*
X56140Y-26397D01*
X56141Y-26437D01*
X56156Y-26474D01*
X56184Y-26502D01*
X56221Y-26518D01*
X56300Y-26518D01*
X56325Y-26492D01*
X56325Y-26757D01*
X56300Y-26732D01*
X56221Y-26731D01*
X56184Y-26747D01*
X56156Y-26775D01*
X56141Y-26812D01*
X56140Y-26852D01*
X56141Y-26891D01*
X56166Y-26916D01*
X56325Y-26916D01*
X56325Y-27083D01*
X56166Y-27083D01*
X56141Y-27108D01*
X56140Y-27147D01*
X56141Y-27187D01*
X56156Y-27224D01*
X56184Y-27252D01*
X56221Y-27268D01*
X56300Y-27268D01*
X56325Y-27242D01*
X56325Y-30736D01*
X56174Y-30673D01*
X55926Y-30673D01*
X55696Y-30768D01*
X55519Y-30944D01*
X55424Y-31174D01*
X55424Y-31423D01*
X55519Y-31653D01*
X55695Y-31829D01*
X55925Y-31924D01*
X56173Y-31924D01*
X56403Y-31829D01*
X56580Y-31654D01*
X56675Y-31424D01*
X56675Y-31175D01*
X56675Y-34879D01*
X55974Y-34879D01*
X55974Y-32356D01*
X55864Y-32090D01*
X55660Y-31886D01*
X55394Y-31776D01*
X55392Y-31776D01*
X55392Y-27141D01*
X55392Y-26806D01*
X55392Y-26391D01*
X55392Y-26056D01*
X55371Y-26006D01*
X55334Y-25969D01*
X55285Y-25949D01*
X55232Y-25948D01*
X54897Y-25948D01*
X54847Y-25969D01*
X54810Y-26006D01*
X54805Y-26018D01*
X54597Y-26018D01*
X54550Y-25998D01*
X54450Y-25998D01*
X54357Y-26036D01*
X54286Y-26107D01*
X54248Y-26199D01*
X54248Y-26299D01*
X54286Y-26392D01*
X54357Y-26463D01*
X54449Y-26501D01*
X54549Y-26501D01*
X54597Y-26481D01*
X54805Y-26481D01*
X54810Y-26493D01*
X54847Y-26530D01*
X54896Y-26550D01*
X54949Y-26551D01*
X55284Y-26551D01*
X55334Y-26530D01*
X55371Y-26493D01*
X55391Y-26444D01*
X55392Y-26391D01*
X55392Y-26806D01*
X55371Y-26756D01*
X55334Y-26719D01*
X55285Y-26699D01*
X55232Y-26698D01*
X54897Y-26698D01*
X54847Y-26719D01*
X54810Y-26756D01*
X54805Y-26768D01*
X54025Y-26768D01*
X54025Y-26455D01*
X54025Y-26044D01*
X54025Y-26004D01*
X54010Y-25967D01*
X53981Y-25939D01*
X53944Y-25924D01*
X53887Y-25924D01*
X53862Y-25949D01*
X53862Y-26137D01*
X54000Y-26137D01*
X54025Y-26112D01*
X54025Y-26044D01*
X54025Y-26455D01*
X54025Y-26387D01*
X54000Y-26362D01*
X53862Y-26362D01*
X53862Y-26550D01*
X53887Y-26575D01*
X53944Y-26575D01*
X53981Y-26560D01*
X54010Y-26532D01*
X54025Y-26495D01*
X54025Y-26455D01*
X54025Y-26768D01*
X53737Y-26768D01*
X53737Y-26550D01*
X53737Y-26362D01*
X53737Y-26137D01*
X53737Y-25949D01*
X53712Y-25924D01*
X53655Y-25924D01*
X53618Y-25939D01*
X53589Y-25967D01*
X53574Y-26004D01*
X53574Y-26044D01*
X53574Y-26112D01*
X53599Y-26137D01*
X53737Y-26137D01*
X53737Y-26362D01*
X53599Y-26362D01*
X53574Y-26387D01*
X53574Y-26455D01*
X53574Y-26495D01*
X53589Y-26532D01*
X53618Y-26560D01*
X53655Y-26575D01*
X53712Y-26575D01*
X53737Y-26550D01*
X53737Y-26768D01*
X53458Y-26768D01*
X53458Y-26448D01*
X53458Y-25998D01*
X53438Y-25949D01*
X53400Y-25911D01*
X53351Y-25891D01*
X53298Y-25891D01*
X53048Y-25891D01*
X52999Y-25911D01*
X52961Y-25949D01*
X52941Y-25998D01*
X52941Y-26018D01*
X52733Y-26018D01*
X52733Y-25998D01*
X52731Y-25994D01*
X52731Y-25250D01*
X52714Y-25161D01*
X52663Y-25086D01*
X52663Y-25086D01*
X52413Y-24836D01*
X52338Y-24785D01*
X52250Y-24768D01*
X52249Y-24768D01*
X51233Y-24768D01*
X51233Y-24448D01*
X51233Y-23998D01*
X51231Y-23994D01*
X51231Y-23500D01*
X51214Y-23411D01*
X51163Y-23336D01*
X51163Y-23336D01*
X50593Y-22765D01*
X50593Y-21093D01*
X50593Y-20738D01*
X50593Y-20698D01*
X50578Y-20661D01*
X50549Y-20633D01*
X50533Y-20627D01*
X50533Y-19423D01*
X50533Y-18823D01*
X50533Y-18123D01*
X50533Y-17523D01*
X50513Y-17474D01*
X50475Y-17436D01*
X50426Y-17416D01*
X50373Y-17416D01*
X50231Y-17416D01*
X50231Y-17250D01*
X50214Y-17161D01*
X50163Y-17086D01*
X50163Y-17086D01*
X49231Y-16153D01*
X49231Y-16123D01*
X49245Y-16117D01*
X49367Y-15995D01*
X49433Y-15836D01*
X49433Y-15664D01*
X49433Y-14664D01*
X49367Y-14504D01*
X49245Y-14382D01*
X49086Y-14316D01*
X48914Y-14316D01*
X48754Y-14382D01*
X48632Y-14504D01*
X48566Y-14663D01*
X48566Y-14835D01*
X48632Y-14995D01*
X48754Y-15117D01*
X48913Y-15183D01*
X49085Y-15183D01*
X49245Y-15117D01*
X49367Y-14995D01*
X49433Y-14836D01*
X49433Y-14664D01*
X49433Y-15664D01*
X49367Y-15504D01*
X49245Y-15382D01*
X49086Y-15316D01*
X48914Y-15316D01*
X48754Y-15382D01*
X48632Y-15504D01*
X48566Y-15663D01*
X48566Y-15835D01*
X48632Y-15995D01*
X48754Y-16117D01*
X48768Y-16123D01*
X48768Y-16249D01*
X48768Y-16250D01*
X48785Y-16338D01*
X48836Y-16413D01*
X49768Y-17346D01*
X49768Y-17416D01*
X49573Y-17416D01*
X49524Y-17436D01*
X49486Y-17474D01*
X49466Y-17523D01*
X49466Y-17576D01*
X49466Y-18176D01*
X49486Y-18225D01*
X49524Y-18263D01*
X49573Y-18283D01*
X49626Y-18283D01*
X50426Y-18283D01*
X50475Y-18263D01*
X50513Y-18225D01*
X50533Y-18176D01*
X50533Y-18123D01*
X50533Y-18823D01*
X50513Y-18774D01*
X50475Y-18736D01*
X50426Y-18716D01*
X50373Y-18716D01*
X49573Y-18716D01*
X49524Y-18736D01*
X49486Y-18774D01*
X49466Y-18823D01*
X49466Y-18876D01*
X49466Y-19476D01*
X49486Y-19525D01*
X49524Y-19563D01*
X49573Y-19583D01*
X49626Y-19583D01*
X49768Y-19583D01*
X49768Y-19813D01*
X49748Y-19860D01*
X49748Y-19913D01*
X49748Y-20307D01*
X49768Y-20356D01*
X49806Y-20394D01*
X49855Y-20414D01*
X49908Y-20414D01*
X50144Y-20414D01*
X50193Y-20394D01*
X50231Y-20356D01*
X50251Y-20307D01*
X50251Y-20254D01*
X50251Y-19860D01*
X50231Y-19813D01*
X50231Y-19583D01*
X50426Y-19583D01*
X50475Y-19563D01*
X50513Y-19525D01*
X50533Y-19476D01*
X50533Y-19423D01*
X50533Y-20627D01*
X50512Y-20618D01*
X50459Y-20618D01*
X50434Y-20643D01*
X50434Y-20817D01*
X50568Y-20817D01*
X50593Y-20792D01*
X50593Y-20738D01*
X50593Y-21093D01*
X50593Y-21039D01*
X50568Y-21014D01*
X50434Y-21014D01*
X50434Y-21188D01*
X50459Y-21213D01*
X50512Y-21213D01*
X50549Y-21198D01*
X50578Y-21170D01*
X50593Y-21133D01*
X50593Y-21093D01*
X50593Y-22765D01*
X50333Y-22505D01*
X50338Y-22500D01*
X50358Y-22451D01*
X50358Y-22398D01*
X50358Y-22148D01*
X50358Y-21798D01*
X50358Y-21548D01*
X50338Y-21499D01*
X50316Y-21477D01*
X50316Y-21188D01*
X50316Y-21014D01*
X50316Y-20817D01*
X50316Y-20643D01*
X50290Y-20618D01*
X50237Y-20618D01*
X50200Y-20633D01*
X50171Y-20661D01*
X50156Y-20698D01*
X50156Y-20738D01*
X50156Y-20792D01*
X50181Y-20817D01*
X50316Y-20817D01*
X50316Y-21014D01*
X50181Y-21014D01*
X50156Y-21039D01*
X50156Y-21093D01*
X50156Y-21133D01*
X50171Y-21170D01*
X50200Y-21198D01*
X50237Y-21213D01*
X50290Y-21213D01*
X50316Y-21188D01*
X50316Y-21477D01*
X50300Y-21461D01*
X50251Y-21441D01*
X50220Y-21441D01*
X50214Y-21411D01*
X50163Y-21336D01*
X50163Y-21336D01*
X49876Y-21048D01*
X49876Y-20692D01*
X49856Y-20643D01*
X49818Y-20605D01*
X49769Y-20585D01*
X49716Y-20585D01*
X49480Y-20585D01*
X49431Y-20605D01*
X49393Y-20643D01*
X49373Y-20692D01*
X49373Y-20745D01*
X49373Y-21139D01*
X49393Y-21188D01*
X49408Y-21203D01*
X49410Y-21213D01*
X49461Y-21288D01*
X49666Y-21494D01*
X49661Y-21499D01*
X49641Y-21548D01*
X49641Y-21601D01*
X49641Y-21851D01*
X49661Y-21900D01*
X49699Y-21938D01*
X49748Y-21958D01*
X49801Y-21958D01*
X50251Y-21958D01*
X50300Y-21938D01*
X50338Y-21900D01*
X50358Y-21851D01*
X50358Y-21798D01*
X50358Y-22148D01*
X50338Y-22099D01*
X50300Y-22061D01*
X50251Y-22041D01*
X50198Y-22041D01*
X49748Y-22041D01*
X49699Y-22061D01*
X49661Y-22099D01*
X49641Y-22148D01*
X49641Y-22201D01*
X49641Y-22451D01*
X49661Y-22500D01*
X49699Y-22538D01*
X49748Y-22558D01*
X49779Y-22558D01*
X49785Y-22588D01*
X49836Y-22663D01*
X50768Y-23596D01*
X50768Y-23994D01*
X50766Y-23998D01*
X50766Y-24051D01*
X50766Y-24501D01*
X50786Y-24550D01*
X50824Y-24588D01*
X50873Y-24608D01*
X50926Y-24608D01*
X51126Y-24608D01*
X51175Y-24588D01*
X51213Y-24550D01*
X51233Y-24501D01*
X51233Y-24448D01*
X51233Y-24768D01*
X50733Y-24768D01*
X50733Y-24448D01*
X50733Y-23998D01*
X50731Y-23994D01*
X50731Y-23750D01*
X50714Y-23661D01*
X50663Y-23586D01*
X50663Y-23586D01*
X49663Y-22586D01*
X49588Y-22535D01*
X49500Y-22518D01*
X49499Y-22518D01*
X49093Y-22518D01*
X49093Y-21093D01*
X49093Y-20738D01*
X49093Y-20698D01*
X49078Y-20661D01*
X49049Y-20633D01*
X49033Y-20627D01*
X49033Y-19423D01*
X49033Y-18823D01*
X49033Y-18123D01*
X49033Y-17523D01*
X49013Y-17474D01*
X48975Y-17436D01*
X48926Y-17416D01*
X48873Y-17416D01*
X48731Y-17416D01*
X48731Y-17250D01*
X48714Y-17161D01*
X48663Y-17086D01*
X48663Y-17086D01*
X48482Y-16904D01*
X48463Y-16857D01*
X48433Y-16827D01*
X48433Y-15664D01*
X48433Y-14664D01*
X48367Y-14504D01*
X48245Y-14382D01*
X48231Y-14376D01*
X48231Y-14250D01*
X48214Y-14161D01*
X48163Y-14086D01*
X48163Y-14086D01*
X47913Y-13836D01*
X47838Y-13785D01*
X47750Y-13768D01*
X47749Y-13768D01*
X46500Y-13768D01*
X46411Y-13785D01*
X46336Y-13836D01*
X46336Y-13836D01*
X46086Y-14086D01*
X46035Y-14161D01*
X46018Y-14250D01*
X46018Y-14250D01*
X46018Y-16403D01*
X45433Y-16988D01*
X45433Y-14904D01*
X45322Y-14635D01*
X45116Y-14428D01*
X44846Y-14316D01*
X44554Y-14316D01*
X44285Y-14427D01*
X44078Y-14633D01*
X43966Y-14903D01*
X43966Y-15195D01*
X44077Y-15464D01*
X44283Y-15671D01*
X44553Y-15783D01*
X44845Y-15783D01*
X45114Y-15672D01*
X45321Y-15466D01*
X45433Y-15196D01*
X45433Y-14904D01*
X45433Y-16988D01*
X45336Y-17086D01*
X45285Y-17161D01*
X45268Y-17250D01*
X45268Y-17250D01*
X45268Y-17416D01*
X45073Y-17416D01*
X45024Y-17436D01*
X44986Y-17474D01*
X44966Y-17523D01*
X44966Y-17576D01*
X44966Y-18176D01*
X44986Y-18225D01*
X45024Y-18263D01*
X45073Y-18283D01*
X45126Y-18283D01*
X45926Y-18283D01*
X45975Y-18263D01*
X46013Y-18225D01*
X46033Y-18176D01*
X46033Y-18123D01*
X46033Y-17523D01*
X46013Y-17474D01*
X45975Y-17436D01*
X45926Y-17416D01*
X45873Y-17416D01*
X45731Y-17416D01*
X45731Y-17346D01*
X46413Y-16663D01*
X46413Y-16663D01*
X46413Y-16663D01*
X46464Y-16588D01*
X46464Y-16588D01*
X46478Y-16514D01*
X46481Y-16500D01*
X46481Y-16500D01*
X46481Y-16500D01*
X46481Y-14346D01*
X46596Y-14231D01*
X47653Y-14231D01*
X47768Y-14346D01*
X47768Y-14376D01*
X47754Y-14382D01*
X47632Y-14504D01*
X47566Y-14663D01*
X47566Y-14835D01*
X47632Y-14995D01*
X47754Y-15117D01*
X47913Y-15183D01*
X48085Y-15183D01*
X48245Y-15117D01*
X48367Y-14995D01*
X48433Y-14836D01*
X48433Y-14664D01*
X48433Y-15664D01*
X48367Y-15504D01*
X48245Y-15382D01*
X48086Y-15316D01*
X47914Y-15316D01*
X47754Y-15382D01*
X47632Y-15504D01*
X47566Y-15663D01*
X47566Y-15835D01*
X47632Y-15995D01*
X47754Y-16117D01*
X47768Y-16123D01*
X47768Y-16153D01*
X47586Y-16336D01*
X47586Y-16336D01*
X47433Y-16488D01*
X47433Y-14664D01*
X47367Y-14504D01*
X47245Y-14382D01*
X47086Y-14316D01*
X46914Y-14316D01*
X46754Y-14382D01*
X46632Y-14504D01*
X46566Y-14663D01*
X46566Y-14835D01*
X46632Y-14995D01*
X46754Y-15117D01*
X46913Y-15183D01*
X47085Y-15183D01*
X47245Y-15117D01*
X47367Y-14995D01*
X47433Y-14836D01*
X47433Y-14664D01*
X47433Y-16488D01*
X47433Y-16488D01*
X47433Y-16023D01*
X47433Y-15423D01*
X47413Y-15374D01*
X47375Y-15336D01*
X47326Y-15316D01*
X47273Y-15316D01*
X46673Y-15316D01*
X46624Y-15336D01*
X46586Y-15374D01*
X46566Y-15423D01*
X46566Y-15476D01*
X46566Y-16076D01*
X46586Y-16125D01*
X46624Y-16163D01*
X46673Y-16183D01*
X46726Y-16183D01*
X47326Y-16183D01*
X47375Y-16163D01*
X47413Y-16125D01*
X47433Y-16076D01*
X47433Y-16023D01*
X47433Y-16488D01*
X46836Y-17086D01*
X46785Y-17161D01*
X46768Y-17250D01*
X46768Y-17250D01*
X46768Y-17416D01*
X46573Y-17416D01*
X46524Y-17436D01*
X46486Y-17474D01*
X46466Y-17523D01*
X46466Y-17576D01*
X46466Y-18176D01*
X46486Y-18225D01*
X46524Y-18263D01*
X46573Y-18283D01*
X46626Y-18283D01*
X47426Y-18283D01*
X47475Y-18263D01*
X47513Y-18225D01*
X47533Y-18176D01*
X47533Y-18123D01*
X47533Y-17523D01*
X47513Y-17474D01*
X47475Y-17436D01*
X47426Y-17416D01*
X47373Y-17416D01*
X47231Y-17416D01*
X47231Y-17346D01*
X47913Y-16663D01*
X47913Y-16663D01*
X47913Y-16663D01*
X48163Y-16413D01*
X48163Y-16413D01*
X48163Y-16413D01*
X48214Y-16338D01*
X48231Y-16250D01*
X48231Y-16123D01*
X48245Y-16117D01*
X48367Y-15995D01*
X48433Y-15836D01*
X48433Y-15664D01*
X48433Y-16827D01*
X48392Y-16786D01*
X48300Y-16748D01*
X48200Y-16748D01*
X48107Y-16786D01*
X48036Y-16857D01*
X47998Y-16949D01*
X47998Y-17049D01*
X48036Y-17142D01*
X48107Y-17213D01*
X48155Y-17232D01*
X48268Y-17346D01*
X48268Y-17416D01*
X48073Y-17416D01*
X48024Y-17436D01*
X47986Y-17474D01*
X47966Y-17523D01*
X47966Y-17576D01*
X47966Y-18176D01*
X47986Y-18225D01*
X48024Y-18263D01*
X48073Y-18283D01*
X48126Y-18283D01*
X48926Y-18283D01*
X48975Y-18263D01*
X49013Y-18225D01*
X49033Y-18176D01*
X49033Y-18123D01*
X49033Y-18823D01*
X49013Y-18774D01*
X48975Y-18736D01*
X48926Y-18716D01*
X48873Y-18716D01*
X48073Y-18716D01*
X48024Y-18736D01*
X47986Y-18774D01*
X47966Y-18823D01*
X47966Y-18876D01*
X47966Y-19476D01*
X47986Y-19525D01*
X48024Y-19563D01*
X48073Y-19583D01*
X48126Y-19583D01*
X48268Y-19583D01*
X48268Y-19813D01*
X48248Y-19860D01*
X48248Y-19913D01*
X48248Y-20307D01*
X48268Y-20356D01*
X48306Y-20394D01*
X48355Y-20414D01*
X48408Y-20414D01*
X48644Y-20414D01*
X48693Y-20394D01*
X48731Y-20356D01*
X48751Y-20307D01*
X48751Y-20254D01*
X48751Y-19860D01*
X48731Y-19813D01*
X48731Y-19583D01*
X48926Y-19583D01*
X48975Y-19563D01*
X49013Y-19525D01*
X49033Y-19476D01*
X49033Y-19423D01*
X49033Y-20627D01*
X49012Y-20618D01*
X48959Y-20618D01*
X48934Y-20643D01*
X48934Y-20817D01*
X49068Y-20817D01*
X49093Y-20792D01*
X49093Y-20738D01*
X49093Y-21093D01*
X49093Y-21039D01*
X49068Y-21014D01*
X48934Y-21014D01*
X48934Y-21188D01*
X48959Y-21213D01*
X49012Y-21213D01*
X49049Y-21198D01*
X49078Y-21170D01*
X49093Y-21133D01*
X49093Y-21093D01*
X49093Y-22518D01*
X48846Y-22518D01*
X48833Y-22505D01*
X48838Y-22500D01*
X48858Y-22451D01*
X48858Y-22398D01*
X48858Y-22148D01*
X48858Y-21798D01*
X48858Y-21548D01*
X48838Y-21499D01*
X48816Y-21477D01*
X48816Y-21188D01*
X48816Y-21014D01*
X48816Y-20817D01*
X48816Y-20643D01*
X48790Y-20618D01*
X48737Y-20618D01*
X48700Y-20633D01*
X48671Y-20661D01*
X48656Y-20698D01*
X48656Y-20738D01*
X48656Y-20792D01*
X48681Y-20817D01*
X48816Y-20817D01*
X48816Y-21014D01*
X48681Y-21014D01*
X48656Y-21039D01*
X48656Y-21093D01*
X48656Y-21133D01*
X48671Y-21170D01*
X48700Y-21198D01*
X48737Y-21213D01*
X48790Y-21213D01*
X48816Y-21188D01*
X48816Y-21477D01*
X48800Y-21461D01*
X48751Y-21441D01*
X48720Y-21441D01*
X48714Y-21411D01*
X48663Y-21336D01*
X48663Y-21336D01*
X48376Y-21048D01*
X48376Y-20692D01*
X48356Y-20643D01*
X48318Y-20605D01*
X48269Y-20585D01*
X48216Y-20585D01*
X47980Y-20585D01*
X47931Y-20605D01*
X47893Y-20643D01*
X47873Y-20692D01*
X47873Y-20745D01*
X47873Y-21139D01*
X47893Y-21188D01*
X47908Y-21203D01*
X47910Y-21213D01*
X47961Y-21288D01*
X48166Y-21494D01*
X48161Y-21499D01*
X48141Y-21548D01*
X48141Y-21601D01*
X48141Y-21851D01*
X48161Y-21900D01*
X48199Y-21938D01*
X48248Y-21958D01*
X48301Y-21958D01*
X48751Y-21958D01*
X48800Y-21938D01*
X48838Y-21900D01*
X48858Y-21851D01*
X48858Y-21798D01*
X48858Y-22148D01*
X48838Y-22099D01*
X48800Y-22061D01*
X48751Y-22041D01*
X48698Y-22041D01*
X48248Y-22041D01*
X48199Y-22061D01*
X48161Y-22099D01*
X48141Y-22148D01*
X48141Y-22201D01*
X48141Y-22451D01*
X48161Y-22500D01*
X48199Y-22538D01*
X48248Y-22558D01*
X48279Y-22558D01*
X48285Y-22588D01*
X48336Y-22663D01*
X48586Y-22913D01*
X48586Y-22913D01*
X48661Y-22964D01*
X48750Y-22981D01*
X49403Y-22981D01*
X49440Y-23018D01*
X47846Y-23018D01*
X47593Y-22765D01*
X47593Y-21093D01*
X47593Y-20738D01*
X47593Y-20698D01*
X47578Y-20661D01*
X47549Y-20633D01*
X47533Y-20627D01*
X47533Y-19423D01*
X47533Y-18823D01*
X47513Y-18774D01*
X47475Y-18736D01*
X47426Y-18716D01*
X47373Y-18716D01*
X46573Y-18716D01*
X46524Y-18736D01*
X46486Y-18774D01*
X46466Y-18823D01*
X46466Y-18876D01*
X46466Y-19476D01*
X46486Y-19525D01*
X46524Y-19563D01*
X46573Y-19583D01*
X46626Y-19583D01*
X46768Y-19583D01*
X46768Y-19813D01*
X46748Y-19860D01*
X46748Y-19913D01*
X46748Y-20307D01*
X46768Y-20356D01*
X46806Y-20394D01*
X46855Y-20414D01*
X46908Y-20414D01*
X47144Y-20414D01*
X47193Y-20394D01*
X47231Y-20356D01*
X47251Y-20307D01*
X47251Y-20254D01*
X47251Y-19860D01*
X47231Y-19813D01*
X47231Y-19583D01*
X47426Y-19583D01*
X47475Y-19563D01*
X47513Y-19525D01*
X47533Y-19476D01*
X47533Y-19423D01*
X47533Y-20627D01*
X47512Y-20618D01*
X47459Y-20618D01*
X47434Y-20643D01*
X47434Y-20817D01*
X47568Y-20817D01*
X47593Y-20792D01*
X47593Y-20738D01*
X47593Y-21093D01*
X47593Y-21039D01*
X47568Y-21014D01*
X47434Y-21014D01*
X47434Y-21188D01*
X47459Y-21213D01*
X47512Y-21213D01*
X47549Y-21198D01*
X47578Y-21170D01*
X47593Y-21133D01*
X47593Y-21093D01*
X47593Y-22765D01*
X47333Y-22505D01*
X47338Y-22500D01*
X47358Y-22451D01*
X47358Y-22398D01*
X47358Y-22148D01*
X47358Y-21798D01*
X47358Y-21548D01*
X47338Y-21499D01*
X47316Y-21477D01*
X47316Y-21188D01*
X47316Y-21014D01*
X47316Y-20817D01*
X47316Y-20643D01*
X47290Y-20618D01*
X47237Y-20618D01*
X47200Y-20633D01*
X47171Y-20661D01*
X47156Y-20698D01*
X47156Y-20738D01*
X47156Y-20792D01*
X47181Y-20817D01*
X47316Y-20817D01*
X47316Y-21014D01*
X47181Y-21014D01*
X47156Y-21039D01*
X47156Y-21093D01*
X47156Y-21133D01*
X47171Y-21170D01*
X47200Y-21198D01*
X47237Y-21213D01*
X47290Y-21213D01*
X47316Y-21188D01*
X47316Y-21477D01*
X47300Y-21461D01*
X47251Y-21441D01*
X47220Y-21441D01*
X47214Y-21411D01*
X47163Y-21336D01*
X47163Y-21336D01*
X46876Y-21048D01*
X46876Y-20692D01*
X46856Y-20643D01*
X46818Y-20605D01*
X46769Y-20585D01*
X46716Y-20585D01*
X46480Y-20585D01*
X46431Y-20605D01*
X46393Y-20643D01*
X46373Y-20692D01*
X46373Y-20745D01*
X46373Y-21139D01*
X46393Y-21188D01*
X46408Y-21203D01*
X46410Y-21213D01*
X46461Y-21288D01*
X46666Y-21494D01*
X46661Y-21499D01*
X46641Y-21548D01*
X46641Y-21601D01*
X46641Y-21851D01*
X46661Y-21900D01*
X46699Y-21938D01*
X46748Y-21958D01*
X46801Y-21958D01*
X47251Y-21958D01*
X47300Y-21938D01*
X47338Y-21900D01*
X47358Y-21851D01*
X47358Y-21798D01*
X47358Y-22148D01*
X47338Y-22099D01*
X47300Y-22061D01*
X47251Y-22041D01*
X47198Y-22041D01*
X46748Y-22041D01*
X46699Y-22061D01*
X46661Y-22099D01*
X46641Y-22148D01*
X46641Y-22201D01*
X46641Y-22451D01*
X46661Y-22500D01*
X46699Y-22538D01*
X46748Y-22558D01*
X46779Y-22558D01*
X46785Y-22588D01*
X46836Y-22663D01*
X47586Y-23413D01*
X47586Y-23413D01*
X47661Y-23464D01*
X47735Y-23478D01*
X47749Y-23481D01*
X47749Y-23481D01*
X47750Y-23481D01*
X49403Y-23481D01*
X49768Y-23846D01*
X49768Y-23994D01*
X49766Y-23998D01*
X49766Y-24051D01*
X49766Y-24501D01*
X49786Y-24550D01*
X49824Y-24588D01*
X49873Y-24608D01*
X49926Y-24608D01*
X50126Y-24608D01*
X50175Y-24588D01*
X50213Y-24550D01*
X50233Y-24501D01*
X50233Y-24448D01*
X50233Y-23998D01*
X50231Y-23994D01*
X50231Y-23809D01*
X50268Y-23846D01*
X50268Y-23994D01*
X50266Y-23998D01*
X50266Y-24051D01*
X50266Y-24501D01*
X50286Y-24550D01*
X50324Y-24588D01*
X50373Y-24608D01*
X50426Y-24608D01*
X50626Y-24608D01*
X50675Y-24588D01*
X50713Y-24550D01*
X50733Y-24501D01*
X50733Y-24448D01*
X50733Y-24768D01*
X49733Y-24768D01*
X49733Y-24448D01*
X49733Y-23998D01*
X49729Y-23989D01*
X49714Y-23911D01*
X49663Y-23836D01*
X49663Y-23836D01*
X49413Y-23586D01*
X49338Y-23535D01*
X49250Y-23518D01*
X49249Y-23518D01*
X46846Y-23518D01*
X46093Y-22765D01*
X46093Y-21093D01*
X46093Y-20738D01*
X46093Y-20698D01*
X46078Y-20661D01*
X46049Y-20633D01*
X46033Y-20627D01*
X46033Y-19423D01*
X46033Y-18823D01*
X46013Y-18774D01*
X45975Y-18736D01*
X45926Y-18716D01*
X45873Y-18716D01*
X45073Y-18716D01*
X45024Y-18736D01*
X44986Y-18774D01*
X44966Y-18823D01*
X44966Y-18876D01*
X44966Y-19476D01*
X44986Y-19525D01*
X45024Y-19563D01*
X45073Y-19583D01*
X45126Y-19583D01*
X45268Y-19583D01*
X45268Y-19813D01*
X45248Y-19860D01*
X45248Y-19913D01*
X45248Y-20307D01*
X45268Y-20356D01*
X45306Y-20394D01*
X45355Y-20414D01*
X45408Y-20414D01*
X45644Y-20414D01*
X45693Y-20394D01*
X45731Y-20356D01*
X45751Y-20307D01*
X45751Y-20254D01*
X45751Y-19860D01*
X45731Y-19813D01*
X45731Y-19583D01*
X45926Y-19583D01*
X45975Y-19563D01*
X46013Y-19525D01*
X46033Y-19476D01*
X46033Y-19423D01*
X46033Y-20627D01*
X46012Y-20618D01*
X45959Y-20618D01*
X45934Y-20643D01*
X45934Y-20817D01*
X46068Y-20817D01*
X46093Y-20792D01*
X46093Y-20738D01*
X46093Y-21093D01*
X46093Y-21039D01*
X46068Y-21014D01*
X45934Y-21014D01*
X45934Y-21188D01*
X45959Y-21213D01*
X46012Y-21213D01*
X46049Y-21198D01*
X46078Y-21170D01*
X46093Y-21133D01*
X46093Y-21093D01*
X46093Y-22765D01*
X45833Y-22505D01*
X45838Y-22500D01*
X45858Y-22451D01*
X45858Y-22398D01*
X45858Y-22148D01*
X45858Y-21798D01*
X45858Y-21548D01*
X45838Y-21499D01*
X45816Y-21477D01*
X45816Y-21188D01*
X45816Y-21014D01*
X45816Y-20817D01*
X45816Y-20643D01*
X45790Y-20618D01*
X45737Y-20618D01*
X45700Y-20633D01*
X45671Y-20661D01*
X45656Y-20698D01*
X45656Y-20738D01*
X45656Y-20792D01*
X45681Y-20817D01*
X45816Y-20817D01*
X45816Y-21014D01*
X45681Y-21014D01*
X45656Y-21039D01*
X45656Y-21093D01*
X45656Y-21133D01*
X45671Y-21170D01*
X45700Y-21198D01*
X45737Y-21213D01*
X45790Y-21213D01*
X45816Y-21188D01*
X45816Y-21477D01*
X45800Y-21461D01*
X45751Y-21441D01*
X45720Y-21441D01*
X45714Y-21411D01*
X45663Y-21336D01*
X45663Y-21336D01*
X45376Y-21048D01*
X45376Y-20692D01*
X45356Y-20643D01*
X45318Y-20605D01*
X45269Y-20585D01*
X45216Y-20585D01*
X44980Y-20585D01*
X44931Y-20605D01*
X44893Y-20643D01*
X44873Y-20692D01*
X44873Y-20745D01*
X44873Y-21139D01*
X44893Y-21188D01*
X44908Y-21203D01*
X44910Y-21213D01*
X44961Y-21288D01*
X45166Y-21494D01*
X45161Y-21499D01*
X45141Y-21548D01*
X45141Y-21601D01*
X45141Y-21851D01*
X45161Y-21900D01*
X45199Y-21938D01*
X45248Y-21958D01*
X45301Y-21958D01*
X45751Y-21958D01*
X45800Y-21938D01*
X45838Y-21900D01*
X45858Y-21851D01*
X45858Y-21798D01*
X45858Y-22148D01*
X45838Y-22099D01*
X45800Y-22061D01*
X45751Y-22041D01*
X45698Y-22041D01*
X45248Y-22041D01*
X45199Y-22061D01*
X45161Y-22099D01*
X45141Y-22148D01*
X45141Y-22201D01*
X45141Y-22451D01*
X45161Y-22500D01*
X45199Y-22538D01*
X45248Y-22558D01*
X45279Y-22558D01*
X45285Y-22588D01*
X45336Y-22663D01*
X46586Y-23913D01*
X46586Y-23913D01*
X46661Y-23964D01*
X46750Y-23981D01*
X46750Y-23981D01*
X46750Y-23981D01*
X48639Y-23981D01*
X48639Y-24025D01*
X48799Y-24025D01*
X48799Y-24044D01*
X48799Y-24112D01*
X48824Y-24137D01*
X48950Y-24137D01*
X48950Y-24025D01*
X49050Y-24025D01*
X49050Y-24137D01*
X49175Y-24137D01*
X49200Y-24112D01*
X49200Y-24044D01*
X49200Y-24028D01*
X49266Y-24094D01*
X49266Y-24501D01*
X49286Y-24550D01*
X49324Y-24588D01*
X49373Y-24608D01*
X49426Y-24608D01*
X49626Y-24608D01*
X49675Y-24588D01*
X49713Y-24550D01*
X49733Y-24501D01*
X49733Y-24448D01*
X49733Y-24768D01*
X49200Y-24768D01*
X49200Y-24455D01*
X49200Y-24387D01*
X49175Y-24362D01*
X49050Y-24362D01*
X49050Y-24550D01*
X49075Y-24575D01*
X49119Y-24575D01*
X49156Y-24560D01*
X49185Y-24532D01*
X49200Y-24495D01*
X49200Y-24455D01*
X49200Y-24768D01*
X48950Y-24768D01*
X48950Y-24550D01*
X48950Y-24362D01*
X48824Y-24362D01*
X48799Y-24387D01*
X48799Y-24455D01*
X48799Y-24495D01*
X48814Y-24532D01*
X48843Y-24560D01*
X48880Y-24575D01*
X48924Y-24575D01*
X48950Y-24550D01*
X48950Y-24768D01*
X48846Y-24768D01*
X48663Y-24586D01*
X48588Y-24535D01*
X48500Y-24518D01*
X48499Y-24518D01*
X44346Y-24518D01*
X44282Y-24454D01*
X44557Y-24454D01*
X44607Y-24434D01*
X44644Y-24396D01*
X44664Y-24347D01*
X44665Y-24294D01*
X44665Y-23290D01*
X44644Y-23241D01*
X44607Y-23203D01*
X44558Y-23183D01*
X44505Y-23183D01*
X44325Y-23183D01*
X44325Y-22194D01*
X44325Y-21905D01*
X44310Y-21868D01*
X44282Y-21839D01*
X44245Y-21824D01*
X44205Y-21824D01*
X44137Y-21824D01*
X44112Y-21849D01*
X44112Y-21987D01*
X44300Y-21987D01*
X44325Y-21962D01*
X44325Y-21905D01*
X44325Y-22194D01*
X44325Y-22137D01*
X44300Y-22112D01*
X44112Y-22112D01*
X44112Y-22250D01*
X44137Y-22275D01*
X44205Y-22275D01*
X44245Y-22275D01*
X44282Y-22260D01*
X44310Y-22231D01*
X44325Y-22194D01*
X44325Y-23183D01*
X44231Y-23183D01*
X44231Y-23000D01*
X44231Y-23000D01*
X44231Y-23000D01*
X44214Y-22911D01*
X44163Y-22836D01*
X44163Y-22836D01*
X43887Y-22559D01*
X43887Y-22250D01*
X43887Y-22112D01*
X43887Y-21987D01*
X43887Y-21849D01*
X43862Y-21824D01*
X43794Y-21824D01*
X43754Y-21824D01*
X43717Y-21839D01*
X43689Y-21868D01*
X43674Y-21905D01*
X43674Y-21962D01*
X43699Y-21987D01*
X43887Y-21987D01*
X43887Y-22112D01*
X43699Y-22112D01*
X43674Y-22137D01*
X43674Y-22194D01*
X43689Y-22231D01*
X43717Y-22260D01*
X43754Y-22275D01*
X43794Y-22275D01*
X43862Y-22275D01*
X43887Y-22250D01*
X43887Y-22559D01*
X43663Y-22336D01*
X43588Y-22285D01*
X43500Y-22268D01*
X43499Y-22268D01*
X43194Y-22268D01*
X43189Y-22256D01*
X43152Y-22219D01*
X43131Y-22210D01*
X43131Y-21733D01*
X43251Y-21733D01*
X43300Y-21713D01*
X43338Y-21675D01*
X43358Y-21626D01*
X43358Y-21573D01*
X43358Y-21231D01*
X43679Y-21231D01*
X43661Y-21249D01*
X43641Y-21298D01*
X43641Y-21351D01*
X43641Y-21601D01*
X43661Y-21650D01*
X43699Y-21688D01*
X43748Y-21708D01*
X43801Y-21708D01*
X44251Y-21708D01*
X44300Y-21688D01*
X44338Y-21650D01*
X44358Y-21601D01*
X44358Y-21548D01*
X44358Y-21298D01*
X44338Y-21249D01*
X44300Y-21211D01*
X44251Y-21191D01*
X44231Y-21191D01*
X44231Y-21097D01*
X44251Y-21050D01*
X44251Y-20950D01*
X44213Y-20857D01*
X44142Y-20786D01*
X44050Y-20748D01*
X43950Y-20748D01*
X43902Y-20768D01*
X43358Y-20768D01*
X43358Y-20373D01*
X43338Y-20324D01*
X43300Y-20286D01*
X43300Y-20286D01*
X43300Y-19680D01*
X43300Y-17319D01*
X43300Y-17279D01*
X43285Y-17242D01*
X43256Y-17214D01*
X43219Y-17199D01*
X42608Y-17199D01*
X42608Y-16148D01*
X42608Y-15898D01*
X42608Y-15548D01*
X42608Y-15298D01*
X42588Y-15249D01*
X42550Y-15211D01*
X42501Y-15191D01*
X42481Y-15191D01*
X42481Y-14808D01*
X42501Y-14808D01*
X42550Y-14788D01*
X42588Y-14750D01*
X42608Y-14701D01*
X42608Y-14648D01*
X42608Y-14398D01*
X42588Y-14349D01*
X42575Y-14336D01*
X42575Y-14094D01*
X42575Y-13805D01*
X42560Y-13768D01*
X42532Y-13739D01*
X42495Y-13724D01*
X42455Y-13724D01*
X42387Y-13724D01*
X42362Y-13749D01*
X42362Y-13887D01*
X42550Y-13887D01*
X42575Y-13862D01*
X42575Y-13805D01*
X42575Y-14094D01*
X42575Y-14037D01*
X42550Y-14012D01*
X42362Y-14012D01*
X42362Y-14150D01*
X42387Y-14175D01*
X42455Y-14175D01*
X42495Y-14175D01*
X42532Y-14160D01*
X42560Y-14131D01*
X42575Y-14094D01*
X42575Y-14336D01*
X42550Y-14311D01*
X42501Y-14291D01*
X42448Y-14291D01*
X42137Y-14291D01*
X42137Y-14150D01*
X42137Y-14012D01*
X42137Y-13887D01*
X42137Y-13749D01*
X42112Y-13724D01*
X42044Y-13724D01*
X42004Y-13724D01*
X41967Y-13739D01*
X41939Y-13768D01*
X41924Y-13805D01*
X41924Y-13862D01*
X41949Y-13887D01*
X42137Y-13887D01*
X42137Y-14012D01*
X41949Y-14012D01*
X41924Y-14037D01*
X41924Y-14094D01*
X41939Y-14131D01*
X41967Y-14160D01*
X42004Y-14175D01*
X42044Y-14175D01*
X42112Y-14175D01*
X42137Y-14150D01*
X42137Y-14291D01*
X41998Y-14291D01*
X41949Y-14311D01*
X41911Y-14349D01*
X41891Y-14398D01*
X41891Y-14451D01*
X41891Y-14701D01*
X41911Y-14750D01*
X41949Y-14788D01*
X41998Y-14808D01*
X42018Y-14808D01*
X42018Y-15191D01*
X41998Y-15191D01*
X41949Y-15211D01*
X41911Y-15249D01*
X41891Y-15298D01*
X41891Y-15351D01*
X41891Y-15601D01*
X41911Y-15650D01*
X41949Y-15688D01*
X41998Y-15708D01*
X42051Y-15708D01*
X42501Y-15708D01*
X42550Y-15688D01*
X42588Y-15650D01*
X42608Y-15601D01*
X42608Y-15548D01*
X42608Y-15898D01*
X42588Y-15849D01*
X42550Y-15811D01*
X42501Y-15791D01*
X42448Y-15791D01*
X41998Y-15791D01*
X41949Y-15811D01*
X41911Y-15849D01*
X41891Y-15898D01*
X41891Y-15951D01*
X41891Y-16201D01*
X41911Y-16250D01*
X41949Y-16288D01*
X41998Y-16308D01*
X42018Y-16308D01*
X42018Y-16402D01*
X41998Y-16449D01*
X41998Y-16549D01*
X42036Y-16642D01*
X42107Y-16713D01*
X42199Y-16751D01*
X42299Y-16751D01*
X42392Y-16713D01*
X42463Y-16642D01*
X42501Y-16550D01*
X42501Y-16450D01*
X42481Y-16402D01*
X42481Y-16308D01*
X42501Y-16308D01*
X42550Y-16288D01*
X42588Y-16250D01*
X42608Y-16201D01*
X42608Y-16148D01*
X42608Y-17199D01*
X42385Y-17199D01*
X42360Y-17224D01*
X42360Y-18140D01*
X43275Y-18140D01*
X43300Y-18114D01*
X43300Y-17319D01*
X43300Y-19680D01*
X43300Y-18885D01*
X43275Y-18860D01*
X42360Y-18860D01*
X42360Y-19775D01*
X42385Y-19800D01*
X43219Y-19800D01*
X43256Y-19785D01*
X43285Y-19757D01*
X43300Y-19720D01*
X43300Y-19680D01*
X43300Y-20286D01*
X43251Y-20266D01*
X43198Y-20266D01*
X42548Y-20266D01*
X42499Y-20286D01*
X42461Y-20324D01*
X42441Y-20373D01*
X42441Y-20426D01*
X42441Y-21626D01*
X42461Y-21675D01*
X42499Y-21713D01*
X42548Y-21733D01*
X42601Y-21733D01*
X42668Y-21733D01*
X42668Y-22218D01*
X42665Y-22219D01*
X42628Y-22256D01*
X42608Y-22305D01*
X42607Y-22358D01*
X42607Y-22693D01*
X42628Y-22743D01*
X42665Y-22780D01*
X42714Y-22800D01*
X42767Y-22801D01*
X43102Y-22801D01*
X43152Y-22780D01*
X43189Y-22743D01*
X43194Y-22731D01*
X43403Y-22731D01*
X43768Y-23096D01*
X43768Y-23183D01*
X43442Y-23183D01*
X43392Y-23203D01*
X43355Y-23241D01*
X43335Y-23290D01*
X43334Y-23343D01*
X43334Y-24347D01*
X43355Y-24396D01*
X43392Y-24434D01*
X43441Y-24454D01*
X43494Y-24454D01*
X43768Y-24454D01*
X43768Y-24499D01*
X43768Y-24500D01*
X43785Y-24588D01*
X43836Y-24663D01*
X44086Y-24913D01*
X44086Y-24913D01*
X44161Y-24964D01*
X44250Y-24981D01*
X48403Y-24981D01*
X48586Y-25163D01*
X48586Y-25163D01*
X48661Y-25214D01*
X48750Y-25231D01*
X52153Y-25231D01*
X52268Y-25346D01*
X52268Y-25994D01*
X52266Y-25998D01*
X52266Y-26051D01*
X52266Y-26501D01*
X52286Y-26550D01*
X52324Y-26588D01*
X52373Y-26608D01*
X52426Y-26608D01*
X52626Y-26608D01*
X52675Y-26588D01*
X52713Y-26550D01*
X52733Y-26501D01*
X52733Y-26481D01*
X52941Y-26481D01*
X52941Y-26501D01*
X52961Y-26550D01*
X52999Y-26588D01*
X53048Y-26608D01*
X53101Y-26608D01*
X53351Y-26608D01*
X53400Y-26588D01*
X53438Y-26550D01*
X53458Y-26501D01*
X53458Y-26448D01*
X53458Y-26768D01*
X52500Y-26768D01*
X52411Y-26785D01*
X52336Y-26836D01*
X52336Y-26836D01*
X52203Y-26968D01*
X52056Y-26968D01*
X52050Y-26961D01*
X52001Y-26941D01*
X51981Y-26941D01*
X51981Y-26750D01*
X51964Y-26661D01*
X51929Y-26608D01*
X52126Y-26608D01*
X52175Y-26588D01*
X52213Y-26550D01*
X52233Y-26501D01*
X52233Y-26448D01*
X52233Y-25998D01*
X52231Y-25994D01*
X52231Y-25597D01*
X52251Y-25550D01*
X52251Y-25450D01*
X52213Y-25357D01*
X52142Y-25286D01*
X52050Y-25248D01*
X51950Y-25248D01*
X51857Y-25286D01*
X51786Y-25357D01*
X51748Y-25449D01*
X51748Y-25549D01*
X51768Y-25597D01*
X51768Y-25994D01*
X51766Y-25998D01*
X51766Y-26051D01*
X51766Y-26438D01*
X51733Y-26405D01*
X51733Y-25998D01*
X51713Y-25949D01*
X51675Y-25911D01*
X51626Y-25891D01*
X51573Y-25891D01*
X51373Y-25891D01*
X51324Y-25911D01*
X51286Y-25949D01*
X51266Y-25998D01*
X51266Y-26051D01*
X51266Y-26501D01*
X51270Y-26510D01*
X51285Y-26588D01*
X51336Y-26663D01*
X51518Y-26846D01*
X51518Y-26941D01*
X51498Y-26941D01*
X51449Y-26961D01*
X51411Y-26999D01*
X51391Y-27048D01*
X51391Y-27101D01*
X51391Y-27351D01*
X51411Y-27400D01*
X51449Y-27438D01*
X51498Y-27458D01*
X51551Y-27458D01*
X52001Y-27458D01*
X52050Y-27438D01*
X52056Y-27431D01*
X52299Y-27431D01*
X52300Y-27431D01*
X52300Y-27431D01*
X52388Y-27414D01*
X52463Y-27363D01*
X52596Y-27231D01*
X54805Y-27231D01*
X54810Y-27243D01*
X54847Y-27280D01*
X54896Y-27300D01*
X54949Y-27301D01*
X55284Y-27301D01*
X55334Y-27280D01*
X55371Y-27243D01*
X55391Y-27194D01*
X55392Y-27141D01*
X55392Y-31776D01*
X55149Y-31775D01*
X55149Y-28944D01*
X55140Y-28898D01*
X55100Y-28857D01*
X54958Y-29000D01*
X55100Y-29142D01*
X55140Y-29101D01*
X55149Y-28944D01*
X55149Y-31775D01*
X55106Y-31775D01*
X54892Y-31864D01*
X54892Y-29350D01*
X54892Y-28649D01*
X54851Y-28609D01*
X54694Y-28600D01*
X54648Y-28609D01*
X54607Y-28649D01*
X54750Y-28791D01*
X54892Y-28649D01*
X54892Y-29350D01*
X54750Y-29208D01*
X54607Y-29350D01*
X54648Y-29390D01*
X54805Y-29399D01*
X54851Y-29390D01*
X54892Y-29350D01*
X54892Y-31864D01*
X54840Y-31885D01*
X54679Y-32046D01*
X54679Y-29915D01*
X54613Y-29757D01*
X54541Y-29684D01*
X54541Y-29000D01*
X54399Y-28857D01*
X54359Y-28898D01*
X54350Y-29055D01*
X54359Y-29101D01*
X54399Y-29142D01*
X54541Y-29000D01*
X54541Y-29684D01*
X54493Y-29636D01*
X54335Y-29571D01*
X54165Y-29570D01*
X54149Y-29577D01*
X54149Y-28944D01*
X54140Y-28898D01*
X54100Y-28857D01*
X53958Y-29000D01*
X54100Y-29142D01*
X54140Y-29101D01*
X54149Y-28944D01*
X54149Y-29577D01*
X54007Y-29636D01*
X53892Y-29751D01*
X53892Y-29350D01*
X53892Y-28649D01*
X53851Y-28609D01*
X53694Y-28600D01*
X53648Y-28609D01*
X53607Y-28649D01*
X53750Y-28791D01*
X53892Y-28649D01*
X53892Y-29350D01*
X53750Y-29208D01*
X53607Y-29350D01*
X53648Y-29390D01*
X53805Y-29399D01*
X53851Y-29390D01*
X53892Y-29350D01*
X53892Y-29751D01*
X53886Y-29756D01*
X53821Y-29914D01*
X53820Y-30084D01*
X53886Y-30242D01*
X54006Y-30363D01*
X54018Y-30368D01*
X54018Y-30903D01*
X53904Y-31017D01*
X53857Y-31036D01*
X53786Y-31107D01*
X53748Y-31199D01*
X53748Y-31299D01*
X53786Y-31392D01*
X53857Y-31463D01*
X53949Y-31501D01*
X54049Y-31501D01*
X54142Y-31463D01*
X54213Y-31392D01*
X54232Y-31344D01*
X54413Y-31163D01*
X54413Y-31163D01*
X54413Y-31163D01*
X54464Y-31088D01*
X54481Y-31000D01*
X54481Y-30368D01*
X54492Y-30363D01*
X54613Y-30243D01*
X54678Y-30085D01*
X54679Y-29915D01*
X54679Y-32046D01*
X54636Y-32089D01*
X54526Y-32355D01*
X54525Y-32643D01*
X54635Y-32909D01*
X54839Y-33113D01*
X55105Y-33223D01*
X55393Y-33224D01*
X55659Y-33114D01*
X55863Y-32910D01*
X55973Y-32644D01*
X55974Y-32356D01*
X55974Y-34879D01*
X53679Y-34879D01*
X53679Y-29915D01*
X53613Y-29757D01*
X53541Y-29684D01*
X53541Y-29000D01*
X53399Y-28857D01*
X53359Y-28898D01*
X53350Y-29055D01*
X53359Y-29101D01*
X53399Y-29142D01*
X53541Y-29000D01*
X53541Y-29684D01*
X53493Y-29636D01*
X53335Y-29571D01*
X53179Y-29570D01*
X53179Y-28915D01*
X53113Y-28757D01*
X52993Y-28636D01*
X52835Y-28571D01*
X52665Y-28570D01*
X52507Y-28636D01*
X52386Y-28756D01*
X52321Y-28914D01*
X52320Y-29084D01*
X52386Y-29242D01*
X52506Y-29363D01*
X52664Y-29428D01*
X52834Y-29429D01*
X52992Y-29363D01*
X53113Y-29243D01*
X53178Y-29085D01*
X53179Y-28915D01*
X53179Y-29570D01*
X53165Y-29570D01*
X53007Y-29636D01*
X52886Y-29756D01*
X52821Y-29914D01*
X52820Y-30084D01*
X52886Y-30242D01*
X53006Y-30363D01*
X53164Y-30428D01*
X53334Y-30429D01*
X53492Y-30363D01*
X53613Y-30243D01*
X53678Y-30085D01*
X53679Y-29915D01*
X53679Y-34879D01*
X52751Y-34879D01*
X52751Y-33450D01*
X52731Y-33402D01*
X52731Y-31750D01*
X52731Y-30750D01*
X52714Y-30661D01*
X52663Y-30586D01*
X52663Y-30586D01*
X52481Y-30403D01*
X52481Y-30368D01*
X52492Y-30363D01*
X52613Y-30243D01*
X52678Y-30085D01*
X52679Y-29915D01*
X52613Y-29757D01*
X52493Y-29636D01*
X52335Y-29571D01*
X52165Y-29570D01*
X52153Y-29575D01*
X51956Y-29378D01*
X51992Y-29363D01*
X52113Y-29243D01*
X52178Y-29085D01*
X52179Y-28915D01*
X52113Y-28757D01*
X52108Y-28751D01*
X52108Y-27898D01*
X52108Y-27648D01*
X52088Y-27599D01*
X52050Y-27561D01*
X52001Y-27541D01*
X51948Y-27541D01*
X51498Y-27541D01*
X51449Y-27561D01*
X51411Y-27599D01*
X51391Y-27648D01*
X51391Y-27701D01*
X51391Y-27951D01*
X51411Y-28000D01*
X51449Y-28038D01*
X51498Y-28058D01*
X51518Y-28058D01*
X51518Y-28152D01*
X51498Y-28199D01*
X51498Y-28299D01*
X51536Y-28392D01*
X51607Y-28463D01*
X51699Y-28501D01*
X51799Y-28501D01*
X51892Y-28463D01*
X51963Y-28392D01*
X52001Y-28300D01*
X52001Y-28200D01*
X51981Y-28152D01*
X51981Y-28058D01*
X52001Y-28058D01*
X52050Y-28038D01*
X52088Y-28000D01*
X52108Y-27951D01*
X52108Y-27898D01*
X52108Y-28751D01*
X51993Y-28636D01*
X51835Y-28571D01*
X51665Y-28570D01*
X51507Y-28636D01*
X51386Y-28756D01*
X51321Y-28914D01*
X51320Y-29084D01*
X51386Y-29242D01*
X51411Y-29268D01*
X51346Y-29268D01*
X51231Y-29153D01*
X51231Y-28058D01*
X51251Y-28058D01*
X51300Y-28038D01*
X51338Y-28000D01*
X51358Y-27951D01*
X51358Y-27898D01*
X51358Y-27648D01*
X51358Y-27298D01*
X51358Y-27048D01*
X51338Y-26999D01*
X51300Y-26961D01*
X51251Y-26941D01*
X51220Y-26941D01*
X51214Y-26911D01*
X51200Y-26890D01*
X51200Y-26455D01*
X51200Y-26044D01*
X51200Y-26004D01*
X51185Y-25967D01*
X51156Y-25939D01*
X51119Y-25924D01*
X51075Y-25924D01*
X51050Y-25949D01*
X51050Y-26137D01*
X51175Y-26137D01*
X51200Y-26112D01*
X51200Y-26044D01*
X51200Y-26455D01*
X51200Y-26387D01*
X51175Y-26362D01*
X51050Y-26362D01*
X51050Y-26550D01*
X51075Y-26575D01*
X51119Y-26575D01*
X51156Y-26560D01*
X51185Y-26532D01*
X51200Y-26495D01*
X51200Y-26455D01*
X51200Y-26890D01*
X51163Y-26836D01*
X51163Y-26836D01*
X50903Y-26575D01*
X50924Y-26575D01*
X50950Y-26550D01*
X50950Y-26362D01*
X50950Y-26137D01*
X50950Y-25949D01*
X50924Y-25924D01*
X50880Y-25924D01*
X50843Y-25939D01*
X50814Y-25967D01*
X50799Y-26004D01*
X50799Y-26044D01*
X50799Y-26112D01*
X50824Y-26137D01*
X50950Y-26137D01*
X50950Y-26362D01*
X50824Y-26362D01*
X50799Y-26387D01*
X50799Y-26455D01*
X50799Y-26471D01*
X50733Y-26405D01*
X50733Y-25998D01*
X50731Y-25994D01*
X50731Y-25847D01*
X50751Y-25800D01*
X50751Y-25700D01*
X50713Y-25607D01*
X50642Y-25536D01*
X50550Y-25498D01*
X50450Y-25498D01*
X50357Y-25536D01*
X50286Y-25607D01*
X50248Y-25699D01*
X50248Y-25799D01*
X50268Y-25847D01*
X50268Y-25994D01*
X50266Y-25998D01*
X50266Y-26051D01*
X50266Y-26501D01*
X50270Y-26510D01*
X50285Y-26588D01*
X50336Y-26663D01*
X50666Y-26994D01*
X50661Y-26999D01*
X50641Y-27048D01*
X50641Y-27101D01*
X50641Y-27351D01*
X50661Y-27400D01*
X50699Y-27438D01*
X50748Y-27458D01*
X50801Y-27458D01*
X51251Y-27458D01*
X51300Y-27438D01*
X51338Y-27400D01*
X51358Y-27351D01*
X51358Y-27298D01*
X51358Y-27648D01*
X51338Y-27599D01*
X51300Y-27561D01*
X51251Y-27541D01*
X51198Y-27541D01*
X50748Y-27541D01*
X50699Y-27561D01*
X50661Y-27599D01*
X50641Y-27648D01*
X50641Y-27701D01*
X50641Y-27951D01*
X50661Y-28000D01*
X50699Y-28038D01*
X50748Y-28058D01*
X50768Y-28058D01*
X50768Y-29190D01*
X50481Y-28903D01*
X50481Y-28058D01*
X50501Y-28058D01*
X50550Y-28038D01*
X50588Y-28000D01*
X50608Y-27951D01*
X50608Y-27898D01*
X50608Y-27648D01*
X50608Y-27298D01*
X50608Y-27048D01*
X50588Y-26999D01*
X50550Y-26961D01*
X50501Y-26941D01*
X50470Y-26941D01*
X50464Y-26911D01*
X50413Y-26836D01*
X50413Y-26836D01*
X50232Y-26654D01*
X50231Y-26652D01*
X50231Y-26505D01*
X50233Y-26501D01*
X50233Y-26448D01*
X50233Y-25998D01*
X50213Y-25949D01*
X50175Y-25911D01*
X50126Y-25891D01*
X50073Y-25891D01*
X49873Y-25891D01*
X49824Y-25911D01*
X49786Y-25949D01*
X49766Y-25998D01*
X49766Y-26051D01*
X49766Y-26501D01*
X49768Y-26505D01*
X49768Y-26652D01*
X49748Y-26699D01*
X49748Y-26799D01*
X49786Y-26892D01*
X49857Y-26963D01*
X49905Y-26982D01*
X49916Y-26994D01*
X49911Y-26999D01*
X49891Y-27048D01*
X49891Y-27101D01*
X49891Y-27351D01*
X49911Y-27400D01*
X49949Y-27438D01*
X49998Y-27458D01*
X50051Y-27458D01*
X50501Y-27458D01*
X50550Y-27438D01*
X50588Y-27400D01*
X50608Y-27351D01*
X50608Y-27298D01*
X50608Y-27648D01*
X50588Y-27599D01*
X50550Y-27561D01*
X50501Y-27541D01*
X50448Y-27541D01*
X49998Y-27541D01*
X49949Y-27561D01*
X49911Y-27599D01*
X49891Y-27648D01*
X49891Y-27701D01*
X49891Y-27951D01*
X49911Y-28000D01*
X49949Y-28038D01*
X49998Y-28058D01*
X50018Y-28058D01*
X50018Y-28999D01*
X50018Y-29000D01*
X50035Y-29088D01*
X50086Y-29163D01*
X50820Y-29898D01*
X50820Y-30321D01*
X50841Y-30371D01*
X50878Y-30408D01*
X50927Y-30428D01*
X50980Y-30429D01*
X51018Y-30429D01*
X51018Y-30499D01*
X51018Y-30500D01*
X51035Y-30588D01*
X51086Y-30663D01*
X51768Y-31346D01*
X51768Y-31750D01*
X51768Y-33500D01*
X51768Y-33902D01*
X51748Y-33949D01*
X51748Y-34049D01*
X51786Y-34142D01*
X51857Y-34213D01*
X51949Y-34251D01*
X52049Y-34251D01*
X52142Y-34213D01*
X52213Y-34142D01*
X52251Y-34050D01*
X52251Y-33950D01*
X52231Y-33902D01*
X52231Y-33500D01*
X52231Y-31750D01*
X52231Y-31250D01*
X52231Y-31249D01*
X52231Y-31249D01*
X52228Y-31235D01*
X52214Y-31161D01*
X52163Y-31086D01*
X52163Y-31086D01*
X51507Y-30429D01*
X51571Y-30429D01*
X51621Y-30408D01*
X51658Y-30371D01*
X51678Y-30322D01*
X51679Y-30269D01*
X51679Y-29757D01*
X51825Y-29903D01*
X51821Y-29914D01*
X51820Y-30084D01*
X51886Y-30242D01*
X52006Y-30363D01*
X52018Y-30368D01*
X52018Y-30499D01*
X52018Y-30500D01*
X52035Y-30588D01*
X52086Y-30663D01*
X52268Y-30846D01*
X52268Y-31750D01*
X52268Y-33402D01*
X52248Y-33449D01*
X52248Y-33549D01*
X52286Y-33642D01*
X52357Y-33713D01*
X52449Y-33751D01*
X52549Y-33751D01*
X52642Y-33713D01*
X52713Y-33642D01*
X52751Y-33550D01*
X52751Y-33450D01*
X52751Y-34879D01*
X51501Y-34879D01*
X51501Y-31200D01*
X51463Y-31107D01*
X51392Y-31036D01*
X51344Y-31017D01*
X49731Y-29403D01*
X49731Y-28847D01*
X49751Y-28800D01*
X49751Y-28700D01*
X49731Y-28652D01*
X49731Y-28058D01*
X49751Y-28058D01*
X49800Y-28038D01*
X49838Y-28000D01*
X49858Y-27951D01*
X49858Y-27898D01*
X49858Y-27648D01*
X49858Y-27298D01*
X49858Y-27048D01*
X49838Y-26999D01*
X49800Y-26961D01*
X49751Y-26941D01*
X49731Y-26941D01*
X49731Y-26505D01*
X49733Y-26501D01*
X49733Y-26448D01*
X49733Y-25998D01*
X49731Y-25994D01*
X49731Y-25750D01*
X49714Y-25661D01*
X49663Y-25586D01*
X49663Y-25586D01*
X49413Y-25336D01*
X49338Y-25285D01*
X49250Y-25268D01*
X49249Y-25268D01*
X47694Y-25268D01*
X47689Y-25256D01*
X47652Y-25219D01*
X47603Y-25199D01*
X47550Y-25198D01*
X47215Y-25198D01*
X47165Y-25219D01*
X47128Y-25256D01*
X47108Y-25305D01*
X47107Y-25358D01*
X47107Y-25693D01*
X47128Y-25743D01*
X47165Y-25780D01*
X47214Y-25800D01*
X47267Y-25801D01*
X47602Y-25801D01*
X47652Y-25780D01*
X47689Y-25743D01*
X47694Y-25731D01*
X49153Y-25731D01*
X49268Y-25846D01*
X49268Y-25994D01*
X49266Y-25998D01*
X49266Y-26051D01*
X49266Y-26501D01*
X49268Y-26505D01*
X49268Y-26941D01*
X49248Y-26941D01*
X49233Y-26947D01*
X49233Y-26448D01*
X49233Y-25998D01*
X49213Y-25949D01*
X49175Y-25911D01*
X49126Y-25891D01*
X49073Y-25891D01*
X48873Y-25891D01*
X48824Y-25911D01*
X48786Y-25949D01*
X48766Y-25998D01*
X48766Y-26018D01*
X47694Y-26018D01*
X47689Y-26006D01*
X47652Y-25969D01*
X47603Y-25949D01*
X47550Y-25948D01*
X47215Y-25948D01*
X47165Y-25969D01*
X47128Y-26006D01*
X47108Y-26055D01*
X47107Y-26108D01*
X47107Y-26443D01*
X47128Y-26493D01*
X47165Y-26530D01*
X47214Y-26550D01*
X47267Y-26551D01*
X47602Y-26551D01*
X47652Y-26530D01*
X47689Y-26493D01*
X47694Y-26481D01*
X48766Y-26481D01*
X48766Y-26501D01*
X48768Y-26505D01*
X48768Y-26653D01*
X48742Y-26679D01*
X48713Y-26607D01*
X48642Y-26536D01*
X48550Y-26498D01*
X48450Y-26498D01*
X48402Y-26518D01*
X48000Y-26518D01*
X47911Y-26535D01*
X47836Y-26586D01*
X47836Y-26586D01*
X47677Y-26744D01*
X47652Y-26719D01*
X47603Y-26699D01*
X47550Y-26698D01*
X47215Y-26698D01*
X47165Y-26719D01*
X47128Y-26756D01*
X47108Y-26805D01*
X47107Y-26858D01*
X47107Y-27193D01*
X47128Y-27243D01*
X47165Y-27280D01*
X47214Y-27300D01*
X47267Y-27301D01*
X47602Y-27301D01*
X47652Y-27280D01*
X47689Y-27243D01*
X47694Y-27231D01*
X47749Y-27231D01*
X47750Y-27231D01*
X47750Y-27231D01*
X47838Y-27214D01*
X47913Y-27163D01*
X48096Y-26981D01*
X48402Y-26981D01*
X48421Y-26989D01*
X48411Y-26999D01*
X48391Y-27048D01*
X48391Y-27101D01*
X48391Y-27351D01*
X48411Y-27400D01*
X48449Y-27438D01*
X48498Y-27458D01*
X48551Y-27458D01*
X49001Y-27458D01*
X49050Y-27438D01*
X49088Y-27400D01*
X49108Y-27351D01*
X49108Y-27298D01*
X49108Y-27048D01*
X49088Y-26999D01*
X49083Y-26994D01*
X49163Y-26913D01*
X49163Y-26913D01*
X49163Y-26913D01*
X49214Y-26838D01*
X49231Y-26750D01*
X49231Y-26505D01*
X49233Y-26501D01*
X49233Y-26448D01*
X49233Y-26947D01*
X49199Y-26961D01*
X49161Y-26999D01*
X49141Y-27048D01*
X49141Y-27101D01*
X49141Y-27351D01*
X49161Y-27400D01*
X49199Y-27438D01*
X49248Y-27458D01*
X49301Y-27458D01*
X49751Y-27458D01*
X49800Y-27438D01*
X49838Y-27400D01*
X49858Y-27351D01*
X49858Y-27298D01*
X49858Y-27648D01*
X49838Y-27599D01*
X49800Y-27561D01*
X49751Y-27541D01*
X49698Y-27541D01*
X49248Y-27541D01*
X49199Y-27561D01*
X49161Y-27599D01*
X49141Y-27648D01*
X49141Y-27701D01*
X49141Y-27951D01*
X49161Y-28000D01*
X49199Y-28038D01*
X49248Y-28058D01*
X49268Y-28058D01*
X49268Y-28652D01*
X49248Y-28699D01*
X49248Y-28799D01*
X49268Y-28847D01*
X49268Y-29499D01*
X49268Y-29500D01*
X49285Y-29588D01*
X49336Y-29663D01*
X51017Y-31345D01*
X51036Y-31392D01*
X51107Y-31463D01*
X51199Y-31501D01*
X51299Y-31501D01*
X51392Y-31463D01*
X51463Y-31392D01*
X51501Y-31300D01*
X51501Y-31200D01*
X51501Y-34879D01*
X51474Y-34879D01*
X51474Y-32356D01*
X51364Y-32090D01*
X51160Y-31886D01*
X50894Y-31776D01*
X50606Y-31775D01*
X50544Y-31801D01*
X50544Y-31188D01*
X50541Y-31173D01*
X50495Y-31102D01*
X50298Y-31299D01*
X50495Y-31495D01*
X50541Y-31424D01*
X50544Y-31188D01*
X50544Y-31801D01*
X50340Y-31885D01*
X50147Y-32078D01*
X50147Y-31843D01*
X50147Y-30754D01*
X50076Y-30708D01*
X49840Y-30705D01*
X49825Y-30708D01*
X49754Y-30754D01*
X49950Y-30951D01*
X50147Y-30754D01*
X50147Y-31843D01*
X49950Y-31647D01*
X49754Y-31843D01*
X49825Y-31890D01*
X50061Y-31893D01*
X50076Y-31890D01*
X50147Y-31843D01*
X50147Y-32078D01*
X50136Y-32089D01*
X50026Y-32355D01*
X50025Y-32643D01*
X50135Y-32909D01*
X50339Y-33113D01*
X50605Y-33223D01*
X50893Y-33224D01*
X51159Y-33114D01*
X51363Y-32910D01*
X51473Y-32644D01*
X51474Y-32356D01*
X51474Y-34879D01*
X49602Y-34879D01*
X49602Y-31299D01*
X49406Y-31102D01*
X49359Y-31173D01*
X49356Y-31409D01*
X49359Y-31424D01*
X49406Y-31495D01*
X49602Y-31299D01*
X49602Y-34879D01*
X49108Y-34879D01*
X49108Y-27898D01*
X49108Y-27648D01*
X49088Y-27599D01*
X49050Y-27561D01*
X49001Y-27541D01*
X48948Y-27541D01*
X48498Y-27541D01*
X48449Y-27561D01*
X48411Y-27599D01*
X48391Y-27648D01*
X48391Y-27701D01*
X48391Y-27951D01*
X48411Y-28000D01*
X48449Y-28038D01*
X48498Y-28058D01*
X48518Y-28058D01*
X48518Y-30152D01*
X48501Y-30191D01*
X48501Y-28200D01*
X48463Y-28107D01*
X48392Y-28036D01*
X48300Y-27998D01*
X48200Y-27998D01*
X48107Y-28036D01*
X48036Y-28107D01*
X47998Y-28199D01*
X47998Y-28299D01*
X48018Y-28347D01*
X48018Y-29403D01*
X48001Y-29420D01*
X48001Y-28700D01*
X47963Y-28607D01*
X47892Y-28536D01*
X47800Y-28498D01*
X47700Y-28498D01*
X47607Y-28536D01*
X47536Y-28607D01*
X47498Y-28699D01*
X47498Y-28799D01*
X47518Y-28847D01*
X47518Y-29153D01*
X47149Y-29522D01*
X47149Y-28944D01*
X47140Y-28898D01*
X47100Y-28857D01*
X46958Y-29000D01*
X47100Y-29142D01*
X47140Y-29101D01*
X47149Y-28944D01*
X47149Y-29522D01*
X46903Y-29768D01*
X46892Y-29768D01*
X46892Y-29350D01*
X46892Y-28649D01*
X46851Y-28609D01*
X46694Y-28600D01*
X46648Y-28609D01*
X46607Y-28649D01*
X46750Y-28791D01*
X46892Y-28649D01*
X46892Y-29350D01*
X46750Y-29208D01*
X46607Y-29350D01*
X46648Y-29390D01*
X46805Y-29399D01*
X46851Y-29390D01*
X46892Y-29350D01*
X46892Y-29768D01*
X46618Y-29768D01*
X46613Y-29757D01*
X46541Y-29684D01*
X46541Y-29000D01*
X46399Y-28857D01*
X46359Y-28898D01*
X46359Y-28901D01*
X46359Y-27147D01*
X46359Y-26852D01*
X46359Y-26397D01*
X46359Y-26102D01*
X46359Y-25647D01*
X46359Y-25352D01*
X46358Y-25312D01*
X46343Y-25275D01*
X46315Y-25247D01*
X46278Y-25231D01*
X46199Y-25232D01*
X46174Y-25257D01*
X46174Y-25416D01*
X46333Y-25416D01*
X46359Y-25391D01*
X46359Y-25352D01*
X46359Y-25647D01*
X46359Y-25608D01*
X46333Y-25583D01*
X46174Y-25583D01*
X46174Y-25742D01*
X46199Y-25768D01*
X46278Y-25768D01*
X46315Y-25752D01*
X46343Y-25724D01*
X46358Y-25687D01*
X46359Y-25647D01*
X46359Y-26102D01*
X46358Y-26062D01*
X46343Y-26025D01*
X46315Y-25997D01*
X46278Y-25981D01*
X46199Y-25982D01*
X46174Y-26007D01*
X46174Y-26166D01*
X46333Y-26166D01*
X46359Y-26141D01*
X46359Y-26102D01*
X46359Y-26397D01*
X46359Y-26358D01*
X46333Y-26333D01*
X46174Y-26333D01*
X46174Y-26492D01*
X46199Y-26518D01*
X46278Y-26518D01*
X46315Y-26502D01*
X46343Y-26474D01*
X46358Y-26437D01*
X46359Y-26397D01*
X46359Y-26852D01*
X46358Y-26812D01*
X46343Y-26775D01*
X46315Y-26747D01*
X46278Y-26731D01*
X46199Y-26732D01*
X46174Y-26757D01*
X46174Y-26916D01*
X46333Y-26916D01*
X46359Y-26891D01*
X46359Y-26852D01*
X46359Y-27147D01*
X46359Y-27108D01*
X46333Y-27083D01*
X46174Y-27083D01*
X46174Y-27242D01*
X46199Y-27268D01*
X46278Y-27268D01*
X46315Y-27252D01*
X46343Y-27224D01*
X46358Y-27187D01*
X46359Y-27147D01*
X46359Y-28901D01*
X46350Y-29055D01*
X46359Y-29101D01*
X46399Y-29142D01*
X46541Y-29000D01*
X46541Y-29684D01*
X46493Y-29636D01*
X46335Y-29571D01*
X46165Y-29570D01*
X46149Y-29577D01*
X46149Y-28944D01*
X46140Y-28898D01*
X46100Y-28857D01*
X46007Y-28951D01*
X46007Y-27242D01*
X46007Y-27083D01*
X46007Y-26916D01*
X46007Y-26757D01*
X46007Y-26492D01*
X46007Y-26333D01*
X46007Y-26166D01*
X46007Y-26007D01*
X46007Y-25742D01*
X46007Y-25583D01*
X46007Y-25416D01*
X46007Y-25257D01*
X45982Y-25232D01*
X45903Y-25231D01*
X45866Y-25247D01*
X45838Y-25275D01*
X45823Y-25312D01*
X45822Y-25352D01*
X45823Y-25391D01*
X45848Y-25416D01*
X46007Y-25416D01*
X46007Y-25583D01*
X45848Y-25583D01*
X45823Y-25608D01*
X45822Y-25647D01*
X45823Y-25687D01*
X45838Y-25724D01*
X45866Y-25752D01*
X45903Y-25768D01*
X45982Y-25768D01*
X46007Y-25742D01*
X46007Y-26007D01*
X45982Y-25982D01*
X45903Y-25981D01*
X45866Y-25997D01*
X45838Y-26025D01*
X45823Y-26062D01*
X45822Y-26102D01*
X45823Y-26141D01*
X45848Y-26166D01*
X46007Y-26166D01*
X46007Y-26333D01*
X45848Y-26333D01*
X45823Y-26358D01*
X45822Y-26397D01*
X45823Y-26437D01*
X45838Y-26474D01*
X45866Y-26502D01*
X45903Y-26518D01*
X45982Y-26518D01*
X46007Y-26492D01*
X46007Y-26757D01*
X45982Y-26732D01*
X45903Y-26731D01*
X45866Y-26747D01*
X45838Y-26775D01*
X45823Y-26812D01*
X45822Y-26852D01*
X45823Y-26891D01*
X45848Y-26916D01*
X46007Y-26916D01*
X46007Y-27083D01*
X45848Y-27083D01*
X45823Y-27108D01*
X45822Y-27147D01*
X45823Y-27187D01*
X45838Y-27224D01*
X45866Y-27252D01*
X45903Y-27268D01*
X45982Y-27268D01*
X46007Y-27242D01*
X46007Y-28951D01*
X45958Y-29000D01*
X46100Y-29142D01*
X46140Y-29101D01*
X46149Y-28944D01*
X46149Y-29577D01*
X46007Y-29636D01*
X45892Y-29751D01*
X45892Y-29350D01*
X45892Y-28649D01*
X45851Y-28609D01*
X45694Y-28600D01*
X45648Y-28609D01*
X45607Y-28649D01*
X45750Y-28791D01*
X45892Y-28649D01*
X45892Y-29350D01*
X45750Y-29208D01*
X45607Y-29350D01*
X45648Y-29390D01*
X45805Y-29399D01*
X45851Y-29390D01*
X45892Y-29350D01*
X45892Y-29751D01*
X45886Y-29756D01*
X45821Y-29914D01*
X45820Y-30084D01*
X45886Y-30242D01*
X46006Y-30363D01*
X46164Y-30428D01*
X46334Y-30429D01*
X46492Y-30363D01*
X46613Y-30243D01*
X46618Y-30231D01*
X46999Y-30231D01*
X47000Y-30231D01*
X47000Y-30231D01*
X47088Y-30214D01*
X47163Y-30163D01*
X47913Y-29413D01*
X47913Y-29413D01*
X47913Y-29413D01*
X47964Y-29338D01*
X47964Y-29338D01*
X47978Y-29264D01*
X47981Y-29250D01*
X47981Y-29250D01*
X47981Y-29250D01*
X47981Y-28847D01*
X48001Y-28800D01*
X48001Y-28700D01*
X48001Y-29420D01*
X46903Y-30518D01*
X45596Y-30518D01*
X45481Y-30403D01*
X45481Y-30368D01*
X45492Y-30363D01*
X45613Y-30243D01*
X45678Y-30085D01*
X45679Y-29915D01*
X45613Y-29757D01*
X45541Y-29684D01*
X45541Y-29000D01*
X45399Y-28857D01*
X45359Y-28898D01*
X45350Y-29055D01*
X45359Y-29101D01*
X45399Y-29142D01*
X45541Y-29000D01*
X45541Y-29684D01*
X45493Y-29636D01*
X45335Y-29571D01*
X45179Y-29570D01*
X45179Y-28915D01*
X45113Y-28757D01*
X44993Y-28636D01*
X44848Y-28576D01*
X44848Y-26702D01*
X44848Y-25659D01*
X44833Y-25622D01*
X44805Y-25593D01*
X44768Y-25578D01*
X44728Y-25578D01*
X44385Y-25578D01*
X44360Y-25603D01*
X44360Y-25930D01*
X44823Y-25930D01*
X44848Y-25904D01*
X44848Y-25659D01*
X44848Y-26702D01*
X44848Y-26457D01*
X44823Y-26432D01*
X44360Y-26432D01*
X44360Y-26758D01*
X44385Y-26783D01*
X44728Y-26783D01*
X44768Y-26783D01*
X44805Y-26768D01*
X44833Y-26739D01*
X44848Y-26702D01*
X44848Y-28576D01*
X44835Y-28571D01*
X44665Y-28570D01*
X44507Y-28636D01*
X44386Y-28756D01*
X44321Y-28914D01*
X44320Y-29084D01*
X44386Y-29242D01*
X44506Y-29363D01*
X44664Y-29428D01*
X44834Y-29429D01*
X44992Y-29363D01*
X45113Y-29243D01*
X45178Y-29085D01*
X45179Y-28915D01*
X45179Y-29570D01*
X45165Y-29570D01*
X45007Y-29636D01*
X44886Y-29756D01*
X44821Y-29914D01*
X44820Y-30084D01*
X44886Y-30242D01*
X45006Y-30363D01*
X45018Y-30368D01*
X45018Y-30499D01*
X45018Y-30500D01*
X45035Y-30588D01*
X45086Y-30663D01*
X45336Y-30913D01*
X45336Y-30913D01*
X45411Y-30964D01*
X45500Y-30981D01*
X46999Y-30981D01*
X47000Y-30981D01*
X47000Y-30981D01*
X47088Y-30964D01*
X47163Y-30913D01*
X48413Y-29663D01*
X48413Y-29663D01*
X48413Y-29663D01*
X48464Y-29588D01*
X48481Y-29500D01*
X48481Y-29500D01*
X48481Y-29499D01*
X48481Y-28347D01*
X48501Y-28300D01*
X48501Y-28200D01*
X48501Y-30191D01*
X48498Y-30199D01*
X48498Y-30299D01*
X48536Y-30392D01*
X48607Y-30463D01*
X48699Y-30501D01*
X48799Y-30501D01*
X48892Y-30463D01*
X48963Y-30392D01*
X49001Y-30300D01*
X49001Y-30200D01*
X48981Y-30152D01*
X48981Y-28058D01*
X49001Y-28058D01*
X49050Y-28038D01*
X49088Y-28000D01*
X49108Y-27951D01*
X49108Y-27898D01*
X49108Y-34879D01*
X48675Y-34879D01*
X48675Y-31175D01*
X48580Y-30945D01*
X48404Y-30769D01*
X48174Y-30673D01*
X47926Y-30673D01*
X47696Y-30768D01*
X47519Y-30944D01*
X47424Y-31174D01*
X47424Y-31423D01*
X47519Y-31653D01*
X47695Y-31829D01*
X47925Y-31924D01*
X48173Y-31924D01*
X48403Y-31829D01*
X48580Y-31654D01*
X48675Y-31424D01*
X48675Y-31175D01*
X48675Y-34879D01*
X47974Y-34879D01*
X47974Y-32356D01*
X47864Y-32090D01*
X47660Y-31886D01*
X47394Y-31776D01*
X47106Y-31775D01*
X46840Y-31885D01*
X46636Y-32089D01*
X46526Y-32355D01*
X46525Y-32643D01*
X46635Y-32909D01*
X46839Y-33113D01*
X47105Y-33223D01*
X47393Y-33224D01*
X47659Y-33114D01*
X47863Y-32910D01*
X47973Y-32644D01*
X47974Y-32356D01*
X47974Y-34879D01*
X46251Y-34879D01*
X46251Y-33450D01*
X46231Y-33402D01*
X46231Y-33250D01*
X46231Y-32250D01*
X46214Y-32161D01*
X46163Y-32086D01*
X46163Y-32086D01*
X45163Y-31086D01*
X45163Y-31086D01*
X44481Y-30403D01*
X44481Y-30368D01*
X44492Y-30363D01*
X44613Y-30243D01*
X44678Y-30085D01*
X44679Y-29915D01*
X44613Y-29757D01*
X44493Y-29636D01*
X44335Y-29571D01*
X44179Y-29570D01*
X44179Y-28915D01*
X44113Y-28757D01*
X43993Y-28636D01*
X43835Y-28571D01*
X43665Y-28570D01*
X43640Y-28581D01*
X43640Y-26758D01*
X43640Y-26432D01*
X43640Y-25930D01*
X43640Y-25603D01*
X43614Y-25578D01*
X43271Y-25578D01*
X43231Y-25578D01*
X43194Y-25593D01*
X43166Y-25622D01*
X43151Y-25659D01*
X43151Y-25904D01*
X43176Y-25930D01*
X43640Y-25930D01*
X43640Y-26432D01*
X43176Y-26432D01*
X43151Y-26457D01*
X43151Y-26702D01*
X43166Y-26739D01*
X43194Y-26768D01*
X43231Y-26783D01*
X43271Y-26783D01*
X43614Y-26783D01*
X43640Y-26758D01*
X43640Y-28581D01*
X43507Y-28636D01*
X43386Y-28756D01*
X43321Y-28914D01*
X43320Y-29084D01*
X43386Y-29242D01*
X43506Y-29363D01*
X43664Y-29428D01*
X43834Y-29429D01*
X43992Y-29363D01*
X44113Y-29243D01*
X44178Y-29085D01*
X44179Y-28915D01*
X44179Y-29570D01*
X44165Y-29570D01*
X44007Y-29636D01*
X43886Y-29756D01*
X43821Y-29914D01*
X43820Y-30084D01*
X43886Y-30242D01*
X44006Y-30363D01*
X44018Y-30368D01*
X44018Y-30499D01*
X44018Y-30500D01*
X44035Y-30588D01*
X44086Y-30663D01*
X44836Y-31413D01*
X44836Y-31413D01*
X45768Y-32346D01*
X45768Y-33250D01*
X45768Y-33402D01*
X45748Y-33449D01*
X45748Y-33549D01*
X45786Y-33642D01*
X45857Y-33713D01*
X45949Y-33751D01*
X46049Y-33751D01*
X46142Y-33713D01*
X46213Y-33642D01*
X46251Y-33550D01*
X46251Y-33450D01*
X46251Y-34879D01*
X45751Y-34879D01*
X45751Y-33950D01*
X45731Y-33902D01*
X45731Y-33500D01*
X45731Y-32750D01*
X45714Y-32661D01*
X45663Y-32586D01*
X45663Y-32586D01*
X44663Y-31586D01*
X44663Y-31586D01*
X43507Y-30429D01*
X43571Y-30429D01*
X43621Y-30408D01*
X43658Y-30371D01*
X43678Y-30322D01*
X43679Y-30269D01*
X43679Y-29678D01*
X43658Y-29628D01*
X43621Y-29591D01*
X43572Y-29571D01*
X43519Y-29570D01*
X43001Y-29570D01*
X43001Y-24700D01*
X42963Y-24607D01*
X42892Y-24536D01*
X42800Y-24498D01*
X42700Y-24498D01*
X42652Y-24518D01*
X41846Y-24518D01*
X41782Y-24454D01*
X42057Y-24454D01*
X42107Y-24434D01*
X42144Y-24396D01*
X42164Y-24347D01*
X42165Y-24294D01*
X42165Y-23290D01*
X42144Y-23241D01*
X42107Y-23203D01*
X42058Y-23183D01*
X42005Y-23183D01*
X41731Y-23183D01*
X41731Y-23096D01*
X41754Y-23072D01*
X41754Y-23072D01*
X41754Y-23072D01*
X41805Y-22997D01*
X41822Y-22909D01*
X41822Y-22785D01*
X41834Y-22780D01*
X41871Y-22743D01*
X41891Y-22694D01*
X41892Y-22641D01*
X41892Y-22306D01*
X41871Y-22256D01*
X41858Y-22243D01*
X41858Y-16148D01*
X41858Y-15898D01*
X41858Y-15548D01*
X41858Y-15298D01*
X41838Y-15249D01*
X41800Y-15211D01*
X41751Y-15191D01*
X41731Y-15191D01*
X41731Y-14808D01*
X41751Y-14808D01*
X41800Y-14788D01*
X41838Y-14750D01*
X41858Y-14701D01*
X41858Y-14648D01*
X41858Y-14398D01*
X41838Y-14349D01*
X41825Y-14336D01*
X41825Y-14094D01*
X41825Y-13805D01*
X41810Y-13768D01*
X41782Y-13739D01*
X41745Y-13724D01*
X41705Y-13724D01*
X41637Y-13724D01*
X41612Y-13749D01*
X41612Y-13887D01*
X41800Y-13887D01*
X41825Y-13862D01*
X41825Y-13805D01*
X41825Y-14094D01*
X41825Y-14037D01*
X41800Y-14012D01*
X41612Y-14012D01*
X41612Y-14150D01*
X41637Y-14175D01*
X41705Y-14175D01*
X41745Y-14175D01*
X41782Y-14160D01*
X41810Y-14131D01*
X41825Y-14094D01*
X41825Y-14336D01*
X41800Y-14311D01*
X41751Y-14291D01*
X41698Y-14291D01*
X41387Y-14291D01*
X41387Y-14150D01*
X41387Y-14012D01*
X41387Y-13887D01*
X41387Y-13749D01*
X41362Y-13724D01*
X41294Y-13724D01*
X41254Y-13724D01*
X41217Y-13739D01*
X41189Y-13768D01*
X41174Y-13805D01*
X41174Y-13862D01*
X41199Y-13887D01*
X41387Y-13887D01*
X41387Y-14012D01*
X41199Y-14012D01*
X41174Y-14037D01*
X41174Y-14094D01*
X41189Y-14131D01*
X41217Y-14160D01*
X41254Y-14175D01*
X41294Y-14175D01*
X41362Y-14175D01*
X41387Y-14150D01*
X41387Y-14291D01*
X41248Y-14291D01*
X41199Y-14311D01*
X41161Y-14349D01*
X41141Y-14398D01*
X41141Y-14451D01*
X41141Y-14701D01*
X41161Y-14750D01*
X41199Y-14788D01*
X41248Y-14808D01*
X41268Y-14808D01*
X41268Y-15191D01*
X41248Y-15191D01*
X41199Y-15211D01*
X41161Y-15249D01*
X41141Y-15298D01*
X41141Y-15351D01*
X41141Y-15601D01*
X41161Y-15650D01*
X41199Y-15688D01*
X41248Y-15708D01*
X41301Y-15708D01*
X41751Y-15708D01*
X41800Y-15688D01*
X41838Y-15650D01*
X41858Y-15601D01*
X41858Y-15548D01*
X41858Y-15898D01*
X41838Y-15849D01*
X41800Y-15811D01*
X41751Y-15791D01*
X41698Y-15791D01*
X41248Y-15791D01*
X41199Y-15811D01*
X41161Y-15849D01*
X41141Y-15898D01*
X41141Y-15951D01*
X41141Y-16201D01*
X41161Y-16250D01*
X41199Y-16288D01*
X41248Y-16308D01*
X41268Y-16308D01*
X41268Y-16402D01*
X41248Y-16449D01*
X41248Y-16549D01*
X41286Y-16642D01*
X41357Y-16713D01*
X41449Y-16751D01*
X41549Y-16751D01*
X41642Y-16713D01*
X41713Y-16642D01*
X41751Y-16550D01*
X41751Y-16450D01*
X41731Y-16402D01*
X41731Y-16308D01*
X41751Y-16308D01*
X41800Y-16288D01*
X41838Y-16250D01*
X41858Y-16201D01*
X41858Y-16148D01*
X41858Y-22243D01*
X41834Y-22219D01*
X41822Y-22214D01*
X41822Y-22091D01*
X41805Y-22002D01*
X41754Y-21927D01*
X41754Y-21927D01*
X41663Y-21836D01*
X41663Y-21836D01*
X41640Y-21812D01*
X41640Y-19775D01*
X41640Y-18860D01*
X41640Y-18140D01*
X41640Y-17224D01*
X41614Y-17199D01*
X40780Y-17199D01*
X40743Y-17214D01*
X40714Y-17242D01*
X40699Y-17279D01*
X40699Y-17319D01*
X40699Y-18114D01*
X40724Y-18140D01*
X41640Y-18140D01*
X41640Y-18860D01*
X40724Y-18860D01*
X40699Y-18885D01*
X40699Y-19680D01*
X40699Y-19720D01*
X40714Y-19757D01*
X40743Y-19785D01*
X40780Y-19800D01*
X41614Y-19800D01*
X41640Y-19775D01*
X41640Y-21812D01*
X41520Y-21692D01*
X41538Y-21675D01*
X41558Y-21626D01*
X41558Y-21573D01*
X41558Y-20373D01*
X41538Y-20324D01*
X41500Y-20286D01*
X41451Y-20266D01*
X41398Y-20266D01*
X40748Y-20266D01*
X40699Y-20286D01*
X40661Y-20324D01*
X40641Y-20373D01*
X40641Y-20426D01*
X40641Y-20768D01*
X40097Y-20768D01*
X40050Y-20748D01*
X39950Y-20748D01*
X39857Y-20786D01*
X39786Y-20857D01*
X39748Y-20949D01*
X39748Y-21049D01*
X39768Y-21097D01*
X39768Y-21191D01*
X39748Y-21191D01*
X39699Y-21211D01*
X39661Y-21249D01*
X39641Y-21298D01*
X39641Y-21351D01*
X39641Y-21601D01*
X39661Y-21650D01*
X39699Y-21688D01*
X39748Y-21708D01*
X39801Y-21708D01*
X40251Y-21708D01*
X40300Y-21688D01*
X40338Y-21650D01*
X40358Y-21601D01*
X40358Y-21548D01*
X40358Y-21298D01*
X40338Y-21249D01*
X40320Y-21231D01*
X40641Y-21231D01*
X40641Y-21626D01*
X40661Y-21675D01*
X40699Y-21713D01*
X40748Y-21733D01*
X40801Y-21733D01*
X40915Y-21733D01*
X40936Y-21763D01*
X41336Y-22163D01*
X41336Y-22163D01*
X41359Y-22187D01*
X41359Y-22214D01*
X41347Y-22219D01*
X41310Y-22256D01*
X41290Y-22305D01*
X41289Y-22358D01*
X41289Y-22693D01*
X41310Y-22743D01*
X41347Y-22780D01*
X41359Y-22785D01*
X41359Y-22812D01*
X41336Y-22836D01*
X41285Y-22911D01*
X41268Y-23000D01*
X41268Y-23000D01*
X41268Y-23183D01*
X40942Y-23183D01*
X40892Y-23203D01*
X40855Y-23241D01*
X40835Y-23290D01*
X40834Y-23343D01*
X40834Y-24347D01*
X40855Y-24396D01*
X40892Y-24434D01*
X40941Y-24454D01*
X40994Y-24454D01*
X41268Y-24454D01*
X41268Y-24499D01*
X41268Y-24500D01*
X41285Y-24588D01*
X41336Y-24663D01*
X41586Y-24913D01*
X41586Y-24913D01*
X41661Y-24964D01*
X41750Y-24981D01*
X42652Y-24981D01*
X42699Y-25001D01*
X42799Y-25001D01*
X42892Y-24963D01*
X42963Y-24892D01*
X43001Y-24800D01*
X43001Y-24700D01*
X43001Y-29570D01*
X42928Y-29570D01*
X42878Y-29591D01*
X42841Y-29628D01*
X42821Y-29677D01*
X42820Y-29730D01*
X42820Y-30321D01*
X42841Y-30371D01*
X42878Y-30408D01*
X42927Y-30428D01*
X42980Y-30429D01*
X43018Y-30429D01*
X43018Y-30499D01*
X43018Y-30500D01*
X43035Y-30588D01*
X43086Y-30663D01*
X44336Y-31913D01*
X44336Y-31913D01*
X45268Y-32846D01*
X45268Y-33500D01*
X45268Y-33902D01*
X45248Y-33949D01*
X45248Y-34049D01*
X45286Y-34142D01*
X45357Y-34213D01*
X45449Y-34251D01*
X45549Y-34251D01*
X45642Y-34213D01*
X45713Y-34142D01*
X45751Y-34050D01*
X45751Y-33950D01*
X45751Y-34879D01*
X43474Y-34879D01*
X43474Y-32356D01*
X43364Y-32090D01*
X43160Y-31886D01*
X42894Y-31776D01*
X42606Y-31775D01*
X42544Y-31801D01*
X42544Y-31188D01*
X42541Y-31173D01*
X42495Y-31102D01*
X42348Y-31249D01*
X42348Y-26702D01*
X42348Y-25659D01*
X42333Y-25622D01*
X42305Y-25593D01*
X42268Y-25578D01*
X42228Y-25578D01*
X41885Y-25578D01*
X41860Y-25603D01*
X41860Y-25930D01*
X42323Y-25930D01*
X42348Y-25904D01*
X42348Y-25659D01*
X42348Y-26702D01*
X42348Y-26457D01*
X42323Y-26432D01*
X41860Y-26432D01*
X41860Y-26758D01*
X41885Y-26783D01*
X42228Y-26783D01*
X42268Y-26783D01*
X42305Y-26768D01*
X42333Y-26739D01*
X42348Y-26702D01*
X42348Y-31249D01*
X42298Y-31299D01*
X42495Y-31495D01*
X42541Y-31424D01*
X42544Y-31188D01*
X42544Y-31801D01*
X42340Y-31885D01*
X42147Y-32078D01*
X42147Y-31843D01*
X42147Y-30754D01*
X42076Y-30708D01*
X41840Y-30705D01*
X41825Y-30708D01*
X41754Y-30754D01*
X41950Y-30951D01*
X42147Y-30754D01*
X42147Y-31843D01*
X41950Y-31647D01*
X41754Y-31843D01*
X41825Y-31890D01*
X42061Y-31893D01*
X42076Y-31890D01*
X42147Y-31843D01*
X42147Y-32078D01*
X42136Y-32089D01*
X42026Y-32355D01*
X42025Y-32643D01*
X42135Y-32909D01*
X42339Y-33113D01*
X42605Y-33223D01*
X42893Y-33224D01*
X43159Y-33114D01*
X43363Y-32910D01*
X43473Y-32644D01*
X43474Y-32356D01*
X43474Y-34879D01*
X41602Y-34879D01*
X41602Y-31299D01*
X41406Y-31102D01*
X41359Y-31173D01*
X41356Y-31409D01*
X41359Y-31424D01*
X41406Y-31495D01*
X41602Y-31299D01*
X41602Y-34879D01*
X41140Y-34879D01*
X41140Y-26758D01*
X41140Y-26432D01*
X41140Y-25930D01*
X41140Y-25603D01*
X41114Y-25578D01*
X40771Y-25578D01*
X40731Y-25578D01*
X40694Y-25593D01*
X40666Y-25622D01*
X40651Y-25659D01*
X40651Y-25904D01*
X40676Y-25930D01*
X41140Y-25930D01*
X41140Y-26432D01*
X40676Y-26432D01*
X40651Y-26457D01*
X40651Y-26702D01*
X40666Y-26739D01*
X40694Y-26768D01*
X40731Y-26783D01*
X40771Y-26783D01*
X41114Y-26783D01*
X41140Y-26758D01*
X41140Y-34879D01*
X40416Y-34879D01*
X40615Y-34797D01*
X40846Y-34566D01*
X40972Y-34264D01*
X40972Y-33937D01*
X40847Y-33634D01*
X40616Y-33403D01*
X40325Y-33282D01*
X40325Y-22194D01*
X40325Y-21905D01*
X40310Y-21868D01*
X40282Y-21839D01*
X40245Y-21824D01*
X40205Y-21824D01*
X40137Y-21824D01*
X40112Y-21849D01*
X40112Y-21987D01*
X40300Y-21987D01*
X40325Y-21962D01*
X40325Y-21905D01*
X40325Y-22194D01*
X40325Y-22137D01*
X40300Y-22112D01*
X40112Y-22112D01*
X40112Y-22250D01*
X40137Y-22275D01*
X40205Y-22275D01*
X40245Y-22275D01*
X40282Y-22260D01*
X40310Y-22231D01*
X40325Y-22194D01*
X40325Y-33282D01*
X40314Y-33277D01*
X39987Y-33277D01*
X39887Y-33318D01*
X39887Y-22250D01*
X39887Y-22112D01*
X39887Y-21987D01*
X39887Y-21849D01*
X39862Y-21824D01*
X39794Y-21824D01*
X39754Y-21824D01*
X39717Y-21839D01*
X39689Y-21868D01*
X39674Y-21905D01*
X39674Y-21962D01*
X39699Y-21987D01*
X39887Y-21987D01*
X39887Y-22112D01*
X39699Y-22112D01*
X39674Y-22137D01*
X39674Y-22194D01*
X39689Y-22231D01*
X39717Y-22260D01*
X39754Y-22275D01*
X39794Y-22275D01*
X39862Y-22275D01*
X39887Y-22250D01*
X39887Y-33318D01*
X39684Y-33402D01*
X39453Y-33633D01*
X39370Y-33833D01*
X39370Y-14666D01*
X39452Y-14865D01*
X39683Y-15096D01*
X39985Y-15222D01*
X40312Y-15222D01*
X40615Y-15097D01*
X40846Y-14866D01*
X40972Y-14564D01*
X40972Y-14237D01*
X40847Y-13934D01*
X40616Y-13703D01*
X40416Y-13620D01*
X57583Y-13620D01*
X57384Y-13702D01*
X57153Y-13933D01*
X57027Y-14235D01*
X57027Y-14562D01*
X57152Y-14865D01*
X57383Y-15096D01*
X57685Y-15222D01*
X58012Y-15222D01*
X58315Y-15097D01*
X58546Y-14866D01*
X58629Y-14666D01*
X58629Y-33833D01*
X58629Y-33833D01*
G37*
G54D31*
X58629Y-33833D02*
X58547Y-33634D01*
X58316Y-33403D01*
X58014Y-33277D01*
X57687Y-33277D01*
X57384Y-33402D01*
X57153Y-33633D01*
X57027Y-33935D01*
X57027Y-34262D01*
X57152Y-34565D01*
X57383Y-34796D01*
X57583Y-34879D01*
X56677Y-34879D01*
X56677Y-27147D01*
X56677Y-26852D01*
X56677Y-26397D01*
X56677Y-26102D01*
X56676Y-26062D01*
X56661Y-26025D01*
X56633Y-25997D01*
X56596Y-25981D01*
X56593Y-25981D01*
X56593Y-21093D01*
X56593Y-20738D01*
X56593Y-20698D01*
X56578Y-20661D01*
X56549Y-20633D01*
X56533Y-20627D01*
X56533Y-19423D01*
X56533Y-18823D01*
X56533Y-18123D01*
X56533Y-17523D01*
X56513Y-17474D01*
X56475Y-17436D01*
X56426Y-17416D01*
X56373Y-17416D01*
X56231Y-17416D01*
X56231Y-17250D01*
X56231Y-17250D01*
X56231Y-17250D01*
X56214Y-17161D01*
X56163Y-17086D01*
X56163Y-17086D01*
X55663Y-16586D01*
X55588Y-16535D01*
X55500Y-16518D01*
X55499Y-16518D01*
X54751Y-16518D01*
X54751Y-14200D01*
X54713Y-14107D01*
X54642Y-14036D01*
X54594Y-14017D01*
X54413Y-13836D01*
X54338Y-13785D01*
X54250Y-13768D01*
X54249Y-13768D01*
X51250Y-13768D01*
X51161Y-13785D01*
X51086Y-13836D01*
X51086Y-13836D01*
X50836Y-14086D01*
X50785Y-14161D01*
X50768Y-14250D01*
X50768Y-14250D01*
X50768Y-14376D01*
X50754Y-14382D01*
X50632Y-14504D01*
X50566Y-14663D01*
X50566Y-14835D01*
X50632Y-14995D01*
X50754Y-15117D01*
X50913Y-15183D01*
X51085Y-15183D01*
X51245Y-15117D01*
X51367Y-14995D01*
X51433Y-14836D01*
X51433Y-14664D01*
X51367Y-14504D01*
X51245Y-14382D01*
X51231Y-14376D01*
X51231Y-14346D01*
X51346Y-14231D01*
X54153Y-14231D01*
X54267Y-14345D01*
X54286Y-14392D01*
X54357Y-14463D01*
X54449Y-14501D01*
X54549Y-14501D01*
X54642Y-14463D01*
X54713Y-14392D01*
X54751Y-14300D01*
X54751Y-14200D01*
X54751Y-16518D01*
X54033Y-16518D01*
X54033Y-14904D01*
X53922Y-14635D01*
X53716Y-14428D01*
X53446Y-14316D01*
X53154Y-14316D01*
X52885Y-14427D01*
X52678Y-14633D01*
X52566Y-14903D01*
X52566Y-15195D01*
X52677Y-15464D01*
X52883Y-15671D01*
X53153Y-15783D01*
X53445Y-15783D01*
X53714Y-15672D01*
X53921Y-15466D01*
X54033Y-15196D01*
X54033Y-14904D01*
X54033Y-16518D01*
X53596Y-16518D01*
X53163Y-16086D01*
X53088Y-16035D01*
X53000Y-16018D01*
X52999Y-16018D01*
X52346Y-16018D01*
X51913Y-15586D01*
X51838Y-15535D01*
X51750Y-15518D01*
X51749Y-15518D01*
X51373Y-15518D01*
X51367Y-15504D01*
X51245Y-15382D01*
X51086Y-15316D01*
X50914Y-15316D01*
X50754Y-15382D01*
X50632Y-15504D01*
X50566Y-15663D01*
X50566Y-15835D01*
X50632Y-15995D01*
X50754Y-16117D01*
X50913Y-16183D01*
X51085Y-16183D01*
X51245Y-16117D01*
X51367Y-15995D01*
X51373Y-15981D01*
X51653Y-15981D01*
X52086Y-16413D01*
X52086Y-16413D01*
X52161Y-16464D01*
X52250Y-16481D01*
X52250Y-16481D01*
X52250Y-16481D01*
X52903Y-16481D01*
X53336Y-16913D01*
X53336Y-16913D01*
X53411Y-16964D01*
X53500Y-16981D01*
X53500Y-16981D01*
X53500Y-16981D01*
X55403Y-16981D01*
X55768Y-17346D01*
X55768Y-17416D01*
X55573Y-17416D01*
X55524Y-17436D01*
X55486Y-17474D01*
X55466Y-17523D01*
X55466Y-17576D01*
X55466Y-18176D01*
X55486Y-18225D01*
X55524Y-18263D01*
X55573Y-18283D01*
X55626Y-18283D01*
X56426Y-18283D01*
X56475Y-18263D01*
X56513Y-18225D01*
X56533Y-18176D01*
X56533Y-18123D01*
X56533Y-18823D01*
X56513Y-18774D01*
X56475Y-18736D01*
X56426Y-18716D01*
X56373Y-18716D01*
X55573Y-18716D01*
X55524Y-18736D01*
X55486Y-18774D01*
X55466Y-18823D01*
X55466Y-18876D01*
X55466Y-19476D01*
X55486Y-19525D01*
X55524Y-19563D01*
X55573Y-19583D01*
X55626Y-19583D01*
X55768Y-19583D01*
X55768Y-19813D01*
X55748Y-19860D01*
X55748Y-19913D01*
X55748Y-20307D01*
X55768Y-20356D01*
X55806Y-20394D01*
X55855Y-20414D01*
X55908Y-20414D01*
X56144Y-20414D01*
X56193Y-20394D01*
X56231Y-20356D01*
X56251Y-20307D01*
X56251Y-20254D01*
X56251Y-19860D01*
X56231Y-19813D01*
X56231Y-19583D01*
X56426Y-19583D01*
X56475Y-19563D01*
X56513Y-19525D01*
X56533Y-19476D01*
X56533Y-19423D01*
X56533Y-20627D01*
X56512Y-20618D01*
X56459Y-20618D01*
X56434Y-20643D01*
X56434Y-20817D01*
X56568Y-20817D01*
X56593Y-20792D01*
X56593Y-20738D01*
X56593Y-21093D01*
X56593Y-21039D01*
X56568Y-21014D01*
X56434Y-21014D01*
X56434Y-21188D01*
X56459Y-21213D01*
X56512Y-21213D01*
X56549Y-21198D01*
X56578Y-21170D01*
X56593Y-21133D01*
X56593Y-21093D01*
X56593Y-25981D01*
X56517Y-25982D01*
X56492Y-26007D01*
X56492Y-26166D01*
X56651Y-26166D01*
X56677Y-26141D01*
X56677Y-26102D01*
X56677Y-26397D01*
X56677Y-26358D01*
X56651Y-26333D01*
X56492Y-26333D01*
X56492Y-26492D01*
X56517Y-26518D01*
X56596Y-26518D01*
X56633Y-26502D01*
X56661Y-26474D01*
X56676Y-26437D01*
X56677Y-26397D01*
X56677Y-26852D01*
X56676Y-26812D01*
X56661Y-26775D01*
X56633Y-26747D01*
X56596Y-26731D01*
X56517Y-26732D01*
X56492Y-26757D01*
X56492Y-26916D01*
X56651Y-26916D01*
X56677Y-26891D01*
X56677Y-26852D01*
X56677Y-27147D01*
X56677Y-27108D01*
X56651Y-27083D01*
X56492Y-27083D01*
X56492Y-27242D01*
X56517Y-27268D01*
X56596Y-27268D01*
X56633Y-27252D01*
X56661Y-27224D01*
X56676Y-27187D01*
X56677Y-27147D01*
X56677Y-34879D01*
X56675Y-34879D01*
X56675Y-31175D01*
X56580Y-30945D01*
X56404Y-30769D01*
X56358Y-30749D01*
X56358Y-22398D01*
X56358Y-22148D01*
X56358Y-21798D01*
X56358Y-21548D01*
X56338Y-21499D01*
X56316Y-21477D01*
X56316Y-21188D01*
X56316Y-21014D01*
X56316Y-20817D01*
X56316Y-20643D01*
X56290Y-20618D01*
X56237Y-20618D01*
X56200Y-20633D01*
X56171Y-20661D01*
X56156Y-20698D01*
X56156Y-20738D01*
X56156Y-20792D01*
X56181Y-20817D01*
X56316Y-20817D01*
X56316Y-21014D01*
X56181Y-21014D01*
X56156Y-21039D01*
X56156Y-21093D01*
X56156Y-21133D01*
X56171Y-21170D01*
X56200Y-21198D01*
X56237Y-21213D01*
X56290Y-21213D01*
X56316Y-21188D01*
X56316Y-21477D01*
X56300Y-21461D01*
X56251Y-21441D01*
X56220Y-21441D01*
X56214Y-21411D01*
X56163Y-21336D01*
X56163Y-21336D01*
X55876Y-21048D01*
X55876Y-20692D01*
X55856Y-20643D01*
X55818Y-20605D01*
X55769Y-20585D01*
X55716Y-20585D01*
X55480Y-20585D01*
X55431Y-20605D01*
X55393Y-20643D01*
X55373Y-20692D01*
X55373Y-20745D01*
X55373Y-21139D01*
X55393Y-21188D01*
X55408Y-21203D01*
X55410Y-21213D01*
X55461Y-21288D01*
X55666Y-21494D01*
X55661Y-21499D01*
X55641Y-21548D01*
X55641Y-21601D01*
X55641Y-21851D01*
X55661Y-21900D01*
X55699Y-21938D01*
X55748Y-21958D01*
X55801Y-21958D01*
X56251Y-21958D01*
X56300Y-21938D01*
X56338Y-21900D01*
X56358Y-21851D01*
X56358Y-21798D01*
X56358Y-22148D01*
X56338Y-22099D01*
X56300Y-22061D01*
X56251Y-22041D01*
X56198Y-22041D01*
X55748Y-22041D01*
X55699Y-22061D01*
X55661Y-22099D01*
X55641Y-22148D01*
X55641Y-22201D01*
X55641Y-22451D01*
X55661Y-22500D01*
X55666Y-22505D01*
X55153Y-23018D01*
X55093Y-23018D01*
X55093Y-21093D01*
X55093Y-20738D01*
X55093Y-20698D01*
X55078Y-20661D01*
X55049Y-20633D01*
X55033Y-20627D01*
X55033Y-19423D01*
X55033Y-18823D01*
X55033Y-18123D01*
X55033Y-17523D01*
X55013Y-17474D01*
X54975Y-17436D01*
X54926Y-17416D01*
X54873Y-17416D01*
X54731Y-17416D01*
X54731Y-17347D01*
X54751Y-17300D01*
X54751Y-17200D01*
X54713Y-17107D01*
X54642Y-17036D01*
X54550Y-16998D01*
X54450Y-16998D01*
X54357Y-17036D01*
X54286Y-17107D01*
X54248Y-17199D01*
X54248Y-17299D01*
X54268Y-17347D01*
X54268Y-17416D01*
X54073Y-17416D01*
X54024Y-17436D01*
X53986Y-17474D01*
X53966Y-17523D01*
X53966Y-17576D01*
X53966Y-18176D01*
X53986Y-18225D01*
X54024Y-18263D01*
X54073Y-18283D01*
X54126Y-18283D01*
X54926Y-18283D01*
X54975Y-18263D01*
X55013Y-18225D01*
X55033Y-18176D01*
X55033Y-18123D01*
X55033Y-18823D01*
X55013Y-18774D01*
X54975Y-18736D01*
X54926Y-18716D01*
X54873Y-18716D01*
X54073Y-18716D01*
X54024Y-18736D01*
X53986Y-18774D01*
X53966Y-18823D01*
X53966Y-18876D01*
X53966Y-19476D01*
X53986Y-19525D01*
X54024Y-19563D01*
X54073Y-19583D01*
X54126Y-19583D01*
X54268Y-19583D01*
X54268Y-19813D01*
X54248Y-19860D01*
X54248Y-19913D01*
X54248Y-20307D01*
X54268Y-20356D01*
X54306Y-20394D01*
X54355Y-20414D01*
X54408Y-20414D01*
X54644Y-20414D01*
X54693Y-20394D01*
X54731Y-20356D01*
X54751Y-20307D01*
X54751Y-20254D01*
X54751Y-19860D01*
X54731Y-19813D01*
X54731Y-19583D01*
X54926Y-19583D01*
X54975Y-19563D01*
X55013Y-19525D01*
X55033Y-19476D01*
X55033Y-19423D01*
X55033Y-20627D01*
X55012Y-20618D01*
X54959Y-20618D01*
X54934Y-20643D01*
X54934Y-20817D01*
X55068Y-20817D01*
X55093Y-20792D01*
X55093Y-20738D01*
X55093Y-21093D01*
X55093Y-21039D01*
X55068Y-21014D01*
X54934Y-21014D01*
X54934Y-21188D01*
X54959Y-21213D01*
X55012Y-21213D01*
X55049Y-21198D01*
X55078Y-21170D01*
X55093Y-21133D01*
X55093Y-21093D01*
X55093Y-23018D01*
X54858Y-23018D01*
X54858Y-22398D01*
X54858Y-22148D01*
X54858Y-21798D01*
X54858Y-21548D01*
X54838Y-21499D01*
X54816Y-21477D01*
X54816Y-21188D01*
X54816Y-21014D01*
X54816Y-20817D01*
X54816Y-20643D01*
X54790Y-20618D01*
X54737Y-20618D01*
X54700Y-20633D01*
X54671Y-20661D01*
X54656Y-20698D01*
X54656Y-20738D01*
X54656Y-20792D01*
X54681Y-20817D01*
X54816Y-20817D01*
X54816Y-21014D01*
X54681Y-21014D01*
X54656Y-21039D01*
X54656Y-21093D01*
X54656Y-21133D01*
X54671Y-21170D01*
X54700Y-21198D01*
X54737Y-21213D01*
X54790Y-21213D01*
X54816Y-21188D01*
X54816Y-21477D01*
X54800Y-21461D01*
X54751Y-21441D01*
X54720Y-21441D01*
X54714Y-21411D01*
X54663Y-21336D01*
X54663Y-21336D01*
X54376Y-21048D01*
X54376Y-20692D01*
X54356Y-20643D01*
X54318Y-20605D01*
X54269Y-20585D01*
X54216Y-20585D01*
X53980Y-20585D01*
X53931Y-20605D01*
X53893Y-20643D01*
X53873Y-20692D01*
X53873Y-20745D01*
X53873Y-21139D01*
X53893Y-21188D01*
X53908Y-21203D01*
X53910Y-21213D01*
X53961Y-21288D01*
X54166Y-21494D01*
X54161Y-21499D01*
X54141Y-21548D01*
X54141Y-21601D01*
X54141Y-21851D01*
X54161Y-21900D01*
X54199Y-21938D01*
X54248Y-21958D01*
X54301Y-21958D01*
X54751Y-21958D01*
X54800Y-21938D01*
X54838Y-21900D01*
X54858Y-21851D01*
X54858Y-21798D01*
X54858Y-22148D01*
X54838Y-22099D01*
X54800Y-22061D01*
X54751Y-22041D01*
X54698Y-22041D01*
X54248Y-22041D01*
X54199Y-22061D01*
X54161Y-22099D01*
X54141Y-22148D01*
X54141Y-22201D01*
X54141Y-22451D01*
X54161Y-22500D01*
X54166Y-22505D01*
X54153Y-22518D01*
X53750Y-22518D01*
X53750Y-22518D01*
X53661Y-22535D01*
X53593Y-22580D01*
X53593Y-21093D01*
X53593Y-20738D01*
X53593Y-20698D01*
X53578Y-20661D01*
X53549Y-20633D01*
X53533Y-20627D01*
X53533Y-19423D01*
X53533Y-18823D01*
X53533Y-18123D01*
X53533Y-17523D01*
X53513Y-17474D01*
X53475Y-17436D01*
X53426Y-17416D01*
X53373Y-17416D01*
X53231Y-17416D01*
X53231Y-17000D01*
X53214Y-16911D01*
X53163Y-16836D01*
X53163Y-16836D01*
X52913Y-16586D01*
X52838Y-16535D01*
X52750Y-16518D01*
X52749Y-16518D01*
X50596Y-16518D01*
X50231Y-16153D01*
X50231Y-16123D01*
X50245Y-16117D01*
X50367Y-15995D01*
X50433Y-15836D01*
X50433Y-15664D01*
X50433Y-14664D01*
X50367Y-14504D01*
X50245Y-14382D01*
X50086Y-14316D01*
X49914Y-14316D01*
X49754Y-14382D01*
X49632Y-14504D01*
X49566Y-14663D01*
X49566Y-14835D01*
X49632Y-14995D01*
X49754Y-15117D01*
X49913Y-15183D01*
X50085Y-15183D01*
X50245Y-15117D01*
X50367Y-14995D01*
X50433Y-14836D01*
X50433Y-14664D01*
X50433Y-15664D01*
X50367Y-15504D01*
X50245Y-15382D01*
X50086Y-15316D01*
X49914Y-15316D01*
X49754Y-15382D01*
X49632Y-15504D01*
X49566Y-15663D01*
X49566Y-15835D01*
X49632Y-15995D01*
X49754Y-16117D01*
X49768Y-16123D01*
X49768Y-16249D01*
X49768Y-16250D01*
X49785Y-16338D01*
X49836Y-16413D01*
X50336Y-16913D01*
X50336Y-16913D01*
X50411Y-16964D01*
X50500Y-16981D01*
X50500Y-16981D01*
X50500Y-16981D01*
X52653Y-16981D01*
X52768Y-17096D01*
X52768Y-17416D01*
X52573Y-17416D01*
X52524Y-17436D01*
X52486Y-17474D01*
X52466Y-17523D01*
X52466Y-17576D01*
X52466Y-18176D01*
X52486Y-18225D01*
X52524Y-18263D01*
X52573Y-18283D01*
X52626Y-18283D01*
X53426Y-18283D01*
X53475Y-18263D01*
X53513Y-18225D01*
X53533Y-18176D01*
X53533Y-18123D01*
X53533Y-18823D01*
X53513Y-18774D01*
X53475Y-18736D01*
X53426Y-18716D01*
X53373Y-18716D01*
X52573Y-18716D01*
X52524Y-18736D01*
X52486Y-18774D01*
X52466Y-18823D01*
X52466Y-18876D01*
X52466Y-19476D01*
X52486Y-19525D01*
X52524Y-19563D01*
X52573Y-19583D01*
X52626Y-19583D01*
X52768Y-19583D01*
X52768Y-19813D01*
X52748Y-19860D01*
X52748Y-19913D01*
X52748Y-20307D01*
X52768Y-20356D01*
X52806Y-20394D01*
X52855Y-20414D01*
X52908Y-20414D01*
X53144Y-20414D01*
X53193Y-20394D01*
X53231Y-20356D01*
X53251Y-20307D01*
X53251Y-20254D01*
X53251Y-19860D01*
X53231Y-19813D01*
X53231Y-19583D01*
X53426Y-19583D01*
X53475Y-19563D01*
X53513Y-19525D01*
X53533Y-19476D01*
X53533Y-19423D01*
X53533Y-20627D01*
X53512Y-20618D01*
X53459Y-20618D01*
X53434Y-20643D01*
X53434Y-20817D01*
X53568Y-20817D01*
X53593Y-20792D01*
X53593Y-20738D01*
X53593Y-21093D01*
X53593Y-21039D01*
X53568Y-21014D01*
X53434Y-21014D01*
X53434Y-21188D01*
X53459Y-21213D01*
X53512Y-21213D01*
X53549Y-21198D01*
X53578Y-21170D01*
X53593Y-21133D01*
X53593Y-21093D01*
X53593Y-22580D01*
X53586Y-22586D01*
X53586Y-22586D01*
X53358Y-22813D01*
X53358Y-22398D01*
X53358Y-22148D01*
X53358Y-21798D01*
X53358Y-21548D01*
X53338Y-21499D01*
X53316Y-21477D01*
X53316Y-21188D01*
X53316Y-21014D01*
X53316Y-20817D01*
X53316Y-20643D01*
X53290Y-20618D01*
X53237Y-20618D01*
X53200Y-20633D01*
X53171Y-20661D01*
X53156Y-20698D01*
X53156Y-20738D01*
X53156Y-20792D01*
X53181Y-20817D01*
X53316Y-20817D01*
X53316Y-21014D01*
X53181Y-21014D01*
X53156Y-21039D01*
X53156Y-21093D01*
X53156Y-21133D01*
X53171Y-21170D01*
X53200Y-21198D01*
X53237Y-21213D01*
X53290Y-21213D01*
X53316Y-21188D01*
X53316Y-21477D01*
X53300Y-21461D01*
X53251Y-21441D01*
X53220Y-21441D01*
X53214Y-21411D01*
X53163Y-21336D01*
X53163Y-21336D01*
X52876Y-21048D01*
X52876Y-20692D01*
X52856Y-20643D01*
X52818Y-20605D01*
X52769Y-20585D01*
X52716Y-20585D01*
X52480Y-20585D01*
X52431Y-20605D01*
X52393Y-20643D01*
X52373Y-20692D01*
X52373Y-20745D01*
X52373Y-21139D01*
X52393Y-21188D01*
X52408Y-21203D01*
X52410Y-21213D01*
X52461Y-21288D01*
X52666Y-21494D01*
X52661Y-21499D01*
X52641Y-21548D01*
X52641Y-21601D01*
X52641Y-21851D01*
X52661Y-21900D01*
X52699Y-21938D01*
X52748Y-21958D01*
X52801Y-21958D01*
X53251Y-21958D01*
X53300Y-21938D01*
X53338Y-21900D01*
X53358Y-21851D01*
X53358Y-21798D01*
X53358Y-22148D01*
X53338Y-22099D01*
X53300Y-22061D01*
X53251Y-22041D01*
X53198Y-22041D01*
X52748Y-22041D01*
X52699Y-22061D01*
X52661Y-22099D01*
X52641Y-22148D01*
X52641Y-22201D01*
X52641Y-22451D01*
X52661Y-22500D01*
X52666Y-22505D01*
X52093Y-23078D01*
X52093Y-21093D01*
X52093Y-20738D01*
X52093Y-20698D01*
X52078Y-20661D01*
X52049Y-20633D01*
X52033Y-20627D01*
X52033Y-19423D01*
X52033Y-18823D01*
X52033Y-18123D01*
X52033Y-17523D01*
X52013Y-17474D01*
X51975Y-17436D01*
X51926Y-17416D01*
X51873Y-17416D01*
X51731Y-17416D01*
X51731Y-17347D01*
X51751Y-17300D01*
X51751Y-17200D01*
X51713Y-17107D01*
X51642Y-17036D01*
X51550Y-16998D01*
X51450Y-16998D01*
X51357Y-17036D01*
X51286Y-17107D01*
X51248Y-17199D01*
X51248Y-17299D01*
X51268Y-17347D01*
X51268Y-17416D01*
X51073Y-17416D01*
X51024Y-17436D01*
X50986Y-17474D01*
X50966Y-17523D01*
X50966Y-17576D01*
X50966Y-18176D01*
X50986Y-18225D01*
X51024Y-18263D01*
X51073Y-18283D01*
X51126Y-18283D01*
X51926Y-18283D01*
X51975Y-18263D01*
X52013Y-18225D01*
X52033Y-18176D01*
X52033Y-18123D01*
X52033Y-18823D01*
X52013Y-18774D01*
X51975Y-18736D01*
X51926Y-18716D01*
X51873Y-18716D01*
X51073Y-18716D01*
X51024Y-18736D01*
X50986Y-18774D01*
X50966Y-18823D01*
X50966Y-18876D01*
X50966Y-19476D01*
X50986Y-19525D01*
X51024Y-19563D01*
X51073Y-19583D01*
X51126Y-19583D01*
X51268Y-19583D01*
X51268Y-19813D01*
X51248Y-19860D01*
X51248Y-19913D01*
X51248Y-20307D01*
X51268Y-20356D01*
X51306Y-20394D01*
X51355Y-20414D01*
X51408Y-20414D01*
X51644Y-20414D01*
X51693Y-20394D01*
X51731Y-20356D01*
X51751Y-20307D01*
X51751Y-20254D01*
X51751Y-19860D01*
X51731Y-19813D01*
X51731Y-19583D01*
X51926Y-19583D01*
X51975Y-19563D01*
X52013Y-19525D01*
X52033Y-19476D01*
X52033Y-19423D01*
X52033Y-20627D01*
X52012Y-20618D01*
X51959Y-20618D01*
X51934Y-20643D01*
X51934Y-20817D01*
X52068Y-20817D01*
X52093Y-20792D01*
X52093Y-20738D01*
X52093Y-21093D01*
X52093Y-21039D01*
X52068Y-21014D01*
X51934Y-21014D01*
X51934Y-21188D01*
X51959Y-21213D01*
X52012Y-21213D01*
X52049Y-21198D01*
X52078Y-21170D01*
X52093Y-21133D01*
X52093Y-21093D01*
X52093Y-23078D01*
X51858Y-23313D01*
X51858Y-22398D01*
X51858Y-22148D01*
X51858Y-21798D01*
X51858Y-21548D01*
X51838Y-21499D01*
X51816Y-21477D01*
X51816Y-21188D01*
X51816Y-21014D01*
X51816Y-20817D01*
X51816Y-20643D01*
X51790Y-20618D01*
X51737Y-20618D01*
X51700Y-20633D01*
X51671Y-20661D01*
X51656Y-20698D01*
X51656Y-20738D01*
X51656Y-20792D01*
X51681Y-20817D01*
X51816Y-20817D01*
X51816Y-21014D01*
X51681Y-21014D01*
X51656Y-21039D01*
X51656Y-21093D01*
X51656Y-21133D01*
X51671Y-21170D01*
X51700Y-21198D01*
X51737Y-21213D01*
X51790Y-21213D01*
X51816Y-21188D01*
X51816Y-21477D01*
X51800Y-21461D01*
X51751Y-21441D01*
X51720Y-21441D01*
X51714Y-21411D01*
X51663Y-21336D01*
X51663Y-21336D01*
X51376Y-21048D01*
X51376Y-20692D01*
X51356Y-20643D01*
X51318Y-20605D01*
X51269Y-20585D01*
X51216Y-20585D01*
X50980Y-20585D01*
X50931Y-20605D01*
X50893Y-20643D01*
X50873Y-20692D01*
X50873Y-20745D01*
X50873Y-21139D01*
X50893Y-21188D01*
X50908Y-21203D01*
X50910Y-21213D01*
X50961Y-21288D01*
X51166Y-21494D01*
X51161Y-21499D01*
X51141Y-21548D01*
X51141Y-21601D01*
X51141Y-21851D01*
X51161Y-21900D01*
X51199Y-21938D01*
X51248Y-21958D01*
X51301Y-21958D01*
X51751Y-21958D01*
X51800Y-21938D01*
X51838Y-21900D01*
X51858Y-21851D01*
X51858Y-21798D01*
X51858Y-22148D01*
X51838Y-22099D01*
X51800Y-22061D01*
X51751Y-22041D01*
X51698Y-22041D01*
X51248Y-22041D01*
X51199Y-22061D01*
X51161Y-22099D01*
X51141Y-22148D01*
X51141Y-22201D01*
X51141Y-22451D01*
X51161Y-22500D01*
X51199Y-22538D01*
X51248Y-22558D01*
X51268Y-22558D01*
X51268Y-23994D01*
X51266Y-23998D01*
X51266Y-24051D01*
X51266Y-24501D01*
X51286Y-24550D01*
X51324Y-24588D01*
X51373Y-24608D01*
X51426Y-24608D01*
X51626Y-24608D01*
X51675Y-24588D01*
X51713Y-24550D01*
X51733Y-24501D01*
X51733Y-24448D01*
X51733Y-23998D01*
X51731Y-23994D01*
X51731Y-22558D01*
X51751Y-22558D01*
X51800Y-22538D01*
X51838Y-22500D01*
X51858Y-22451D01*
X51858Y-22398D01*
X51858Y-23313D01*
X51836Y-23336D01*
X51785Y-23411D01*
X51768Y-23500D01*
X51768Y-23500D01*
X51768Y-23994D01*
X51766Y-23998D01*
X51766Y-24051D01*
X51766Y-24501D01*
X51786Y-24550D01*
X51824Y-24588D01*
X51873Y-24608D01*
X51926Y-24608D01*
X52126Y-24608D01*
X52175Y-24588D01*
X52213Y-24550D01*
X52233Y-24501D01*
X52233Y-24448D01*
X52233Y-23998D01*
X52231Y-23994D01*
X52231Y-23596D01*
X53163Y-22663D01*
X53163Y-22663D01*
X53163Y-22663D01*
X53214Y-22588D01*
X53220Y-22558D01*
X53251Y-22558D01*
X53300Y-22538D01*
X53338Y-22500D01*
X53358Y-22451D01*
X53358Y-22398D01*
X53358Y-22813D01*
X52336Y-23836D01*
X52285Y-23911D01*
X52270Y-23989D01*
X52266Y-23998D01*
X52266Y-24051D01*
X52266Y-24501D01*
X52286Y-24550D01*
X52324Y-24588D01*
X52373Y-24608D01*
X52426Y-24608D01*
X52626Y-24608D01*
X52675Y-24588D01*
X52713Y-24550D01*
X52733Y-24501D01*
X52733Y-24448D01*
X52733Y-24094D01*
X53846Y-22981D01*
X54249Y-22981D01*
X54250Y-22981D01*
X54250Y-22981D01*
X54338Y-22964D01*
X54413Y-22913D01*
X54663Y-22663D01*
X54663Y-22663D01*
X54663Y-22663D01*
X54714Y-22588D01*
X54720Y-22558D01*
X54751Y-22558D01*
X54800Y-22538D01*
X54838Y-22500D01*
X54858Y-22451D01*
X54858Y-22398D01*
X54858Y-23018D01*
X54750Y-23018D01*
X54661Y-23035D01*
X54586Y-23086D01*
X54586Y-23086D01*
X53086Y-24586D01*
X53035Y-24661D01*
X53018Y-24750D01*
X53018Y-24750D01*
X53018Y-25000D01*
X53018Y-25402D01*
X52998Y-25449D01*
X52998Y-25549D01*
X53036Y-25642D01*
X53107Y-25713D01*
X53199Y-25751D01*
X53299Y-25751D01*
X53392Y-25713D01*
X53463Y-25642D01*
X53501Y-25550D01*
X53501Y-25450D01*
X53481Y-25402D01*
X53481Y-25000D01*
X53481Y-24846D01*
X54846Y-23481D01*
X55249Y-23481D01*
X55250Y-23481D01*
X55250Y-23481D01*
X55338Y-23464D01*
X55413Y-23413D01*
X56163Y-22663D01*
X56163Y-22663D01*
X56163Y-22663D01*
X56214Y-22588D01*
X56214Y-22588D01*
X56220Y-22558D01*
X56251Y-22558D01*
X56300Y-22538D01*
X56338Y-22500D01*
X56358Y-22451D01*
X56358Y-22398D01*
X56358Y-30749D01*
X56325Y-30736D01*
X56325Y-27242D01*
X56325Y-27083D01*
X56325Y-26916D01*
X56325Y-26757D01*
X56325Y-26492D01*
X56325Y-26333D01*
X56325Y-26166D01*
X56325Y-26007D01*
X56300Y-25982D01*
X56221Y-25981D01*
X56184Y-25997D01*
X56156Y-26025D01*
X56141Y-26062D01*
X56140Y-26102D01*
X56141Y-26141D01*
X56166Y-26166D01*
X56325Y-26166D01*
X56325Y-26333D01*
X56166Y-26333D01*
X56141Y-26358D01*
X56140Y-26397D01*
X56141Y-26437D01*
X56156Y-26474D01*
X56184Y-26502D01*
X56221Y-26518D01*
X56300Y-26518D01*
X56325Y-26492D01*
X56325Y-26757D01*
X56300Y-26732D01*
X56221Y-26731D01*
X56184Y-26747D01*
X56156Y-26775D01*
X56141Y-26812D01*
X56140Y-26852D01*
X56141Y-26891D01*
X56166Y-26916D01*
X56325Y-26916D01*
X56325Y-27083D01*
X56166Y-27083D01*
X56141Y-27108D01*
X56140Y-27147D01*
X56141Y-27187D01*
X56156Y-27224D01*
X56184Y-27252D01*
X56221Y-27268D01*
X56300Y-27268D01*
X56325Y-27242D01*
X56325Y-30736D01*
X56174Y-30673D01*
X55926Y-30673D01*
X55696Y-30768D01*
X55519Y-30944D01*
X55424Y-31174D01*
X55424Y-31423D01*
X55519Y-31653D01*
X55695Y-31829D01*
X55925Y-31924D01*
X56173Y-31924D01*
X56403Y-31829D01*
X56580Y-31654D01*
X56675Y-31424D01*
X56675Y-31175D01*
X56675Y-34879D01*
X55974Y-34879D01*
X55974Y-32356D01*
X55864Y-32090D01*
X55660Y-31886D01*
X55394Y-31776D01*
X55392Y-31776D01*
X55392Y-27141D01*
X55392Y-26806D01*
X55392Y-26391D01*
X55392Y-26056D01*
X55371Y-26006D01*
X55334Y-25969D01*
X55285Y-25949D01*
X55232Y-25948D01*
X54897Y-25948D01*
X54847Y-25969D01*
X54810Y-26006D01*
X54805Y-26018D01*
X54597Y-26018D01*
X54550Y-25998D01*
X54450Y-25998D01*
X54357Y-26036D01*
X54286Y-26107D01*
X54248Y-26199D01*
X54248Y-26299D01*
X54286Y-26392D01*
X54357Y-26463D01*
X54449Y-26501D01*
X54549Y-26501D01*
X54597Y-26481D01*
X54805Y-26481D01*
X54810Y-26493D01*
X54847Y-26530D01*
X54896Y-26550D01*
X54949Y-26551D01*
X55284Y-26551D01*
X55334Y-26530D01*
X55371Y-26493D01*
X55391Y-26444D01*
X55392Y-26391D01*
X55392Y-26806D01*
X55371Y-26756D01*
X55334Y-26719D01*
X55285Y-26699D01*
X55232Y-26698D01*
X54897Y-26698D01*
X54847Y-26719D01*
X54810Y-26756D01*
X54805Y-26768D01*
X54025Y-26768D01*
X54025Y-26455D01*
X54025Y-26044D01*
X54025Y-26004D01*
X54010Y-25967D01*
X53981Y-25939D01*
X53944Y-25924D01*
X53887Y-25924D01*
X53862Y-25949D01*
X53862Y-26137D01*
X54000Y-26137D01*
X54025Y-26112D01*
X54025Y-26044D01*
X54025Y-26455D01*
X54025Y-26387D01*
X54000Y-26362D01*
X53862Y-26362D01*
X53862Y-26550D01*
X53887Y-26575D01*
X53944Y-26575D01*
X53981Y-26560D01*
X54010Y-26532D01*
X54025Y-26495D01*
X54025Y-26455D01*
X54025Y-26768D01*
X53737Y-26768D01*
X53737Y-26550D01*
X53737Y-26362D01*
X53737Y-26137D01*
X53737Y-25949D01*
X53712Y-25924D01*
X53655Y-25924D01*
X53618Y-25939D01*
X53589Y-25967D01*
X53574Y-26004D01*
X53574Y-26044D01*
X53574Y-26112D01*
X53599Y-26137D01*
X53737Y-26137D01*
X53737Y-26362D01*
X53599Y-26362D01*
X53574Y-26387D01*
X53574Y-26455D01*
X53574Y-26495D01*
X53589Y-26532D01*
X53618Y-26560D01*
X53655Y-26575D01*
X53712Y-26575D01*
X53737Y-26550D01*
X53737Y-26768D01*
X53458Y-26768D01*
X53458Y-26448D01*
X53458Y-25998D01*
X53438Y-25949D01*
X53400Y-25911D01*
X53351Y-25891D01*
X53298Y-25891D01*
X53048Y-25891D01*
X52999Y-25911D01*
X52961Y-25949D01*
X52941Y-25998D01*
X52941Y-26018D01*
X52733Y-26018D01*
X52733Y-25998D01*
X52731Y-25994D01*
X52731Y-25250D01*
X52714Y-25161D01*
X52663Y-25086D01*
X52663Y-25086D01*
X52413Y-24836D01*
X52338Y-24785D01*
X52250Y-24768D01*
X52249Y-24768D01*
X51233Y-24768D01*
X51233Y-24448D01*
X51233Y-23998D01*
X51231Y-23994D01*
X51231Y-23500D01*
X51214Y-23411D01*
X51163Y-23336D01*
X51163Y-23336D01*
X50593Y-22765D01*
X50593Y-21093D01*
X50593Y-20738D01*
X50593Y-20698D01*
X50578Y-20661D01*
X50549Y-20633D01*
X50533Y-20627D01*
X50533Y-19423D01*
X50533Y-18823D01*
X50533Y-18123D01*
X50533Y-17523D01*
X50513Y-17474D01*
X50475Y-17436D01*
X50426Y-17416D01*
X50373Y-17416D01*
X50231Y-17416D01*
X50231Y-17250D01*
X50214Y-17161D01*
X50163Y-17086D01*
X50163Y-17086D01*
X49231Y-16153D01*
X49231Y-16123D01*
X49245Y-16117D01*
X49367Y-15995D01*
X49433Y-15836D01*
X49433Y-15664D01*
X49433Y-14664D01*
X49367Y-14504D01*
X49245Y-14382D01*
X49086Y-14316D01*
X48914Y-14316D01*
X48754Y-14382D01*
X48632Y-14504D01*
X48566Y-14663D01*
X48566Y-14835D01*
X48632Y-14995D01*
X48754Y-15117D01*
X48913Y-15183D01*
X49085Y-15183D01*
X49245Y-15117D01*
X49367Y-14995D01*
X49433Y-14836D01*
X49433Y-14664D01*
X49433Y-15664D01*
X49367Y-15504D01*
X49245Y-15382D01*
X49086Y-15316D01*
X48914Y-15316D01*
X48754Y-15382D01*
X48632Y-15504D01*
X48566Y-15663D01*
X48566Y-15835D01*
X48632Y-15995D01*
X48754Y-16117D01*
X48768Y-16123D01*
X48768Y-16249D01*
X48768Y-16250D01*
X48785Y-16338D01*
X48836Y-16413D01*
X49768Y-17346D01*
X49768Y-17416D01*
X49573Y-17416D01*
X49524Y-17436D01*
X49486Y-17474D01*
X49466Y-17523D01*
X49466Y-17576D01*
X49466Y-18176D01*
X49486Y-18225D01*
X49524Y-18263D01*
X49573Y-18283D01*
X49626Y-18283D01*
X50426Y-18283D01*
X50475Y-18263D01*
X50513Y-18225D01*
X50533Y-18176D01*
X50533Y-18123D01*
X50533Y-18823D01*
X50513Y-18774D01*
X50475Y-18736D01*
X50426Y-18716D01*
X50373Y-18716D01*
X49573Y-18716D01*
X49524Y-18736D01*
X49486Y-18774D01*
X49466Y-18823D01*
X49466Y-18876D01*
X49466Y-19476D01*
X49486Y-19525D01*
X49524Y-19563D01*
X49573Y-19583D01*
X49626Y-19583D01*
X49768Y-19583D01*
X49768Y-19813D01*
X49748Y-19860D01*
X49748Y-19913D01*
X49748Y-20307D01*
X49768Y-20356D01*
X49806Y-20394D01*
X49855Y-20414D01*
X49908Y-20414D01*
X50144Y-20414D01*
X50193Y-20394D01*
X50231Y-20356D01*
X50251Y-20307D01*
X50251Y-20254D01*
X50251Y-19860D01*
X50231Y-19813D01*
X50231Y-19583D01*
X50426Y-19583D01*
X50475Y-19563D01*
X50513Y-19525D01*
X50533Y-19476D01*
X50533Y-19423D01*
X50533Y-20627D01*
X50512Y-20618D01*
X50459Y-20618D01*
X50434Y-20643D01*
X50434Y-20817D01*
X50568Y-20817D01*
X50593Y-20792D01*
X50593Y-20738D01*
X50593Y-21093D01*
X50593Y-21039D01*
X50568Y-21014D01*
X50434Y-21014D01*
X50434Y-21188D01*
X50459Y-21213D01*
X50512Y-21213D01*
X50549Y-21198D01*
X50578Y-21170D01*
X50593Y-21133D01*
X50593Y-21093D01*
X50593Y-22765D01*
X50333Y-22505D01*
X50338Y-22500D01*
X50358Y-22451D01*
X50358Y-22398D01*
X50358Y-22148D01*
X50358Y-21798D01*
X50358Y-21548D01*
X50338Y-21499D01*
X50316Y-21477D01*
X50316Y-21188D01*
X50316Y-21014D01*
X50316Y-20817D01*
X50316Y-20643D01*
X50290Y-20618D01*
X50237Y-20618D01*
X50200Y-20633D01*
X50171Y-20661D01*
X50156Y-20698D01*
X50156Y-20738D01*
X50156Y-20792D01*
X50181Y-20817D01*
X50316Y-20817D01*
X50316Y-21014D01*
X50181Y-21014D01*
X50156Y-21039D01*
X50156Y-21093D01*
X50156Y-21133D01*
X50171Y-21170D01*
X50200Y-21198D01*
X50237Y-21213D01*
X50290Y-21213D01*
X50316Y-21188D01*
X50316Y-21477D01*
X50300Y-21461D01*
X50251Y-21441D01*
X50220Y-21441D01*
X50214Y-21411D01*
X50163Y-21336D01*
X50163Y-21336D01*
X49876Y-21048D01*
X49876Y-20692D01*
X49856Y-20643D01*
X49818Y-20605D01*
X49769Y-20585D01*
X49716Y-20585D01*
X49480Y-20585D01*
X49431Y-20605D01*
X49393Y-20643D01*
X49373Y-20692D01*
X49373Y-20745D01*
X49373Y-21139D01*
X49393Y-21188D01*
X49408Y-21203D01*
X49410Y-21213D01*
X49461Y-21288D01*
X49666Y-21494D01*
X49661Y-21499D01*
X49641Y-21548D01*
X49641Y-21601D01*
X49641Y-21851D01*
X49661Y-21900D01*
X49699Y-21938D01*
X49748Y-21958D01*
X49801Y-21958D01*
X50251Y-21958D01*
X50300Y-21938D01*
X50338Y-21900D01*
X50358Y-21851D01*
X50358Y-21798D01*
X50358Y-22148D01*
X50338Y-22099D01*
X50300Y-22061D01*
X50251Y-22041D01*
X50198Y-22041D01*
X49748Y-22041D01*
X49699Y-22061D01*
X49661Y-22099D01*
X49641Y-22148D01*
X49641Y-22201D01*
X49641Y-22451D01*
X49661Y-22500D01*
X49699Y-22538D01*
X49748Y-22558D01*
X49779Y-22558D01*
X49785Y-22588D01*
X49836Y-22663D01*
X50768Y-23596D01*
X50768Y-23994D01*
X50766Y-23998D01*
X50766Y-24051D01*
X50766Y-24501D01*
X50786Y-24550D01*
X50824Y-24588D01*
X50873Y-24608D01*
X50926Y-24608D01*
X51126Y-24608D01*
X51175Y-24588D01*
X51213Y-24550D01*
X51233Y-24501D01*
X51233Y-24448D01*
X51233Y-24768D01*
X50733Y-24768D01*
X50733Y-24448D01*
X50733Y-23998D01*
X50731Y-23994D01*
X50731Y-23750D01*
X50714Y-23661D01*
X50663Y-23586D01*
X50663Y-23586D01*
X49663Y-22586D01*
X49588Y-22535D01*
X49500Y-22518D01*
X49499Y-22518D01*
X49093Y-22518D01*
X49093Y-21093D01*
X49093Y-20738D01*
X49093Y-20698D01*
X49078Y-20661D01*
X49049Y-20633D01*
X49033Y-20627D01*
X49033Y-19423D01*
X49033Y-18823D01*
X49033Y-18123D01*
X49033Y-17523D01*
X49013Y-17474D01*
X48975Y-17436D01*
X48926Y-17416D01*
X48873Y-17416D01*
X48731Y-17416D01*
X48731Y-17250D01*
X48714Y-17161D01*
X48663Y-17086D01*
X48663Y-17086D01*
X48482Y-16904D01*
X48463Y-16857D01*
X48433Y-16827D01*
X48433Y-15664D01*
X48433Y-14664D01*
X48367Y-14504D01*
X48245Y-14382D01*
X48231Y-14376D01*
X48231Y-14250D01*
X48214Y-14161D01*
X48163Y-14086D01*
X48163Y-14086D01*
X47913Y-13836D01*
X47838Y-13785D01*
X47750Y-13768D01*
X47749Y-13768D01*
X46500Y-13768D01*
X46411Y-13785D01*
X46336Y-13836D01*
X46336Y-13836D01*
X46086Y-14086D01*
X46035Y-14161D01*
X46018Y-14250D01*
X46018Y-14250D01*
X46018Y-16403D01*
X45433Y-16988D01*
X45433Y-14904D01*
X45322Y-14635D01*
X45116Y-14428D01*
X44846Y-14316D01*
X44554Y-14316D01*
X44285Y-14427D01*
X44078Y-14633D01*
X43966Y-14903D01*
X43966Y-15195D01*
X44077Y-15464D01*
X44283Y-15671D01*
X44553Y-15783D01*
X44845Y-15783D01*
X45114Y-15672D01*
X45321Y-15466D01*
X45433Y-15196D01*
X45433Y-14904D01*
X45433Y-16988D01*
X45336Y-17086D01*
X45285Y-17161D01*
X45268Y-17250D01*
X45268Y-17250D01*
X45268Y-17416D01*
X45073Y-17416D01*
X45024Y-17436D01*
X44986Y-17474D01*
X44966Y-17523D01*
X44966Y-17576D01*
X44966Y-18176D01*
X44986Y-18225D01*
X45024Y-18263D01*
X45073Y-18283D01*
X45126Y-18283D01*
X45926Y-18283D01*
X45975Y-18263D01*
X46013Y-18225D01*
X46033Y-18176D01*
X46033Y-18123D01*
X46033Y-17523D01*
X46013Y-17474D01*
X45975Y-17436D01*
X45926Y-17416D01*
X45873Y-17416D01*
X45731Y-17416D01*
X45731Y-17346D01*
X46413Y-16663D01*
X46413Y-16663D01*
X46413Y-16663D01*
X46464Y-16588D01*
X46464Y-16588D01*
X46478Y-16514D01*
X46481Y-16500D01*
X46481Y-16500D01*
X46481Y-16500D01*
X46481Y-14346D01*
X46596Y-14231D01*
X47653Y-14231D01*
X47768Y-14346D01*
X47768Y-14376D01*
X47754Y-14382D01*
X47632Y-14504D01*
X47566Y-14663D01*
X47566Y-14835D01*
X47632Y-14995D01*
X47754Y-15117D01*
X47913Y-15183D01*
X48085Y-15183D01*
X48245Y-15117D01*
X48367Y-14995D01*
X48433Y-14836D01*
X48433Y-14664D01*
X48433Y-15664D01*
X48367Y-15504D01*
X48245Y-15382D01*
X48086Y-15316D01*
X47914Y-15316D01*
X47754Y-15382D01*
X47632Y-15504D01*
X47566Y-15663D01*
X47566Y-15835D01*
X47632Y-15995D01*
X47754Y-16117D01*
X47768Y-16123D01*
X47768Y-16153D01*
X47586Y-16336D01*
X47586Y-16336D01*
X47433Y-16488D01*
X47433Y-14664D01*
X47367Y-14504D01*
X47245Y-14382D01*
X47086Y-14316D01*
X46914Y-14316D01*
X46754Y-14382D01*
X46632Y-14504D01*
X46566Y-14663D01*
X46566Y-14835D01*
X46632Y-14995D01*
X46754Y-15117D01*
X46913Y-15183D01*
X47085Y-15183D01*
X47245Y-15117D01*
X47367Y-14995D01*
X47433Y-14836D01*
X47433Y-14664D01*
X47433Y-16488D01*
X47433Y-16488D01*
X47433Y-16023D01*
X47433Y-15423D01*
X47413Y-15374D01*
X47375Y-15336D01*
X47326Y-15316D01*
X47273Y-15316D01*
X46673Y-15316D01*
X46624Y-15336D01*
X46586Y-15374D01*
X46566Y-15423D01*
X46566Y-15476D01*
X46566Y-16076D01*
X46586Y-16125D01*
X46624Y-16163D01*
X46673Y-16183D01*
X46726Y-16183D01*
X47326Y-16183D01*
X47375Y-16163D01*
X47413Y-16125D01*
X47433Y-16076D01*
X47433Y-16023D01*
X47433Y-16488D01*
X46836Y-17086D01*
X46785Y-17161D01*
X46768Y-17250D01*
X46768Y-17250D01*
X46768Y-17416D01*
X46573Y-17416D01*
X46524Y-17436D01*
X46486Y-17474D01*
X46466Y-17523D01*
X46466Y-17576D01*
X46466Y-18176D01*
X46486Y-18225D01*
X46524Y-18263D01*
X46573Y-18283D01*
X46626Y-18283D01*
X47426Y-18283D01*
X47475Y-18263D01*
X47513Y-18225D01*
X47533Y-18176D01*
X47533Y-18123D01*
X47533Y-17523D01*
X47513Y-17474D01*
X47475Y-17436D01*
X47426Y-17416D01*
X47373Y-17416D01*
X47231Y-17416D01*
X47231Y-17346D01*
X47913Y-16663D01*
X47913Y-16663D01*
X47913Y-16663D01*
X48163Y-16413D01*
X48163Y-16413D01*
X48163Y-16413D01*
X48214Y-16338D01*
X48231Y-16250D01*
X48231Y-16123D01*
X48245Y-16117D01*
X48367Y-15995D01*
X48433Y-15836D01*
X48433Y-15664D01*
X48433Y-16827D01*
X48392Y-16786D01*
X48300Y-16748D01*
X48200Y-16748D01*
X48107Y-16786D01*
X48036Y-16857D01*
X47998Y-16949D01*
X47998Y-17049D01*
X48036Y-17142D01*
X48107Y-17213D01*
X48155Y-17232D01*
X48268Y-17346D01*
X48268Y-17416D01*
X48073Y-17416D01*
X48024Y-17436D01*
X47986Y-17474D01*
X47966Y-17523D01*
X47966Y-17576D01*
X47966Y-18176D01*
X47986Y-18225D01*
X48024Y-18263D01*
X48073Y-18283D01*
X48126Y-18283D01*
X48926Y-18283D01*
X48975Y-18263D01*
X49013Y-18225D01*
X49033Y-18176D01*
X49033Y-18123D01*
X49033Y-18823D01*
X49013Y-18774D01*
X48975Y-18736D01*
X48926Y-18716D01*
X48873Y-18716D01*
X48073Y-18716D01*
X48024Y-18736D01*
X47986Y-18774D01*
X47966Y-18823D01*
X47966Y-18876D01*
X47966Y-19476D01*
X47986Y-19525D01*
X48024Y-19563D01*
X48073Y-19583D01*
X48126Y-19583D01*
X48268Y-19583D01*
X48268Y-19813D01*
X48248Y-19860D01*
X48248Y-19913D01*
X48248Y-20307D01*
X48268Y-20356D01*
X48306Y-20394D01*
X48355Y-20414D01*
X48408Y-20414D01*
X48644Y-20414D01*
X48693Y-20394D01*
X48731Y-20356D01*
X48751Y-20307D01*
X48751Y-20254D01*
X48751Y-19860D01*
X48731Y-19813D01*
X48731Y-19583D01*
X48926Y-19583D01*
X48975Y-19563D01*
X49013Y-19525D01*
X49033Y-19476D01*
X49033Y-19423D01*
X49033Y-20627D01*
X49012Y-20618D01*
X48959Y-20618D01*
X48934Y-20643D01*
X48934Y-20817D01*
X49068Y-20817D01*
X49093Y-20792D01*
X49093Y-20738D01*
X49093Y-21093D01*
X49093Y-21039D01*
X49068Y-21014D01*
X48934Y-21014D01*
X48934Y-21188D01*
X48959Y-21213D01*
X49012Y-21213D01*
X49049Y-21198D01*
X49078Y-21170D01*
X49093Y-21133D01*
X49093Y-21093D01*
X49093Y-22518D01*
X48846Y-22518D01*
X48833Y-22505D01*
X48838Y-22500D01*
X48858Y-22451D01*
X48858Y-22398D01*
X48858Y-22148D01*
X48858Y-21798D01*
X48858Y-21548D01*
X48838Y-21499D01*
X48816Y-21477D01*
X48816Y-21188D01*
X48816Y-21014D01*
X48816Y-20817D01*
X48816Y-20643D01*
X48790Y-20618D01*
X48737Y-20618D01*
X48700Y-20633D01*
X48671Y-20661D01*
X48656Y-20698D01*
X48656Y-20738D01*
X48656Y-20792D01*
X48681Y-20817D01*
X48816Y-20817D01*
X48816Y-21014D01*
X48681Y-21014D01*
X48656Y-21039D01*
X48656Y-21093D01*
X48656Y-21133D01*
X48671Y-21170D01*
X48700Y-21198D01*
X48737Y-21213D01*
X48790Y-21213D01*
X48816Y-21188D01*
X48816Y-21477D01*
X48800Y-21461D01*
X48751Y-21441D01*
X48720Y-21441D01*
X48714Y-21411D01*
X48663Y-21336D01*
X48663Y-21336D01*
X48376Y-21048D01*
X48376Y-20692D01*
X48356Y-20643D01*
X48318Y-20605D01*
X48269Y-20585D01*
X48216Y-20585D01*
X47980Y-20585D01*
X47931Y-20605D01*
X47893Y-20643D01*
X47873Y-20692D01*
X47873Y-20745D01*
X47873Y-21139D01*
X47893Y-21188D01*
X47908Y-21203D01*
X47910Y-21213D01*
X47961Y-21288D01*
X48166Y-21494D01*
X48161Y-21499D01*
X48141Y-21548D01*
X48141Y-21601D01*
X48141Y-21851D01*
X48161Y-21900D01*
X48199Y-21938D01*
X48248Y-21958D01*
X48301Y-21958D01*
X48751Y-21958D01*
X48800Y-21938D01*
X48838Y-21900D01*
X48858Y-21851D01*
X48858Y-21798D01*
X48858Y-22148D01*
X48838Y-22099D01*
X48800Y-22061D01*
X48751Y-22041D01*
X48698Y-22041D01*
X48248Y-22041D01*
X48199Y-22061D01*
X48161Y-22099D01*
X48141Y-22148D01*
X48141Y-22201D01*
X48141Y-22451D01*
X48161Y-22500D01*
X48199Y-22538D01*
X48248Y-22558D01*
X48279Y-22558D01*
X48285Y-22588D01*
X48336Y-22663D01*
X48586Y-22913D01*
X48586Y-22913D01*
X48661Y-22964D01*
X48750Y-22981D01*
X49403Y-22981D01*
X49440Y-23018D01*
X47846Y-23018D01*
X47593Y-22765D01*
X47593Y-21093D01*
X47593Y-20738D01*
X47593Y-20698D01*
X47578Y-20661D01*
X47549Y-20633D01*
X47533Y-20627D01*
X47533Y-19423D01*
X47533Y-18823D01*
X47513Y-18774D01*
X47475Y-18736D01*
X47426Y-18716D01*
X47373Y-18716D01*
X46573Y-18716D01*
X46524Y-18736D01*
X46486Y-18774D01*
X46466Y-18823D01*
X46466Y-18876D01*
X46466Y-19476D01*
X46486Y-19525D01*
X46524Y-19563D01*
X46573Y-19583D01*
X46626Y-19583D01*
X46768Y-19583D01*
X46768Y-19813D01*
X46748Y-19860D01*
X46748Y-19913D01*
X46748Y-20307D01*
X46768Y-20356D01*
X46806Y-20394D01*
X46855Y-20414D01*
X46908Y-20414D01*
X47144Y-20414D01*
X47193Y-20394D01*
X47231Y-20356D01*
X47251Y-20307D01*
X47251Y-20254D01*
X47251Y-19860D01*
X47231Y-19813D01*
X47231Y-19583D01*
X47426Y-19583D01*
X47475Y-19563D01*
X47513Y-19525D01*
X47533Y-19476D01*
X47533Y-19423D01*
X47533Y-20627D01*
X47512Y-20618D01*
X47459Y-20618D01*
X47434Y-20643D01*
X47434Y-20817D01*
X47568Y-20817D01*
X47593Y-20792D01*
X47593Y-20738D01*
X47593Y-21093D01*
X47593Y-21039D01*
X47568Y-21014D01*
X47434Y-21014D01*
X47434Y-21188D01*
X47459Y-21213D01*
X47512Y-21213D01*
X47549Y-21198D01*
X47578Y-21170D01*
X47593Y-21133D01*
X47593Y-21093D01*
X47593Y-22765D01*
X47333Y-22505D01*
X47338Y-22500D01*
X47358Y-22451D01*
X47358Y-22398D01*
X47358Y-22148D01*
X47358Y-21798D01*
X47358Y-21548D01*
X47338Y-21499D01*
X47316Y-21477D01*
X47316Y-21188D01*
X47316Y-21014D01*
X47316Y-20817D01*
X47316Y-20643D01*
X47290Y-20618D01*
X47237Y-20618D01*
X47200Y-20633D01*
X47171Y-20661D01*
X47156Y-20698D01*
X47156Y-20738D01*
X47156Y-20792D01*
X47181Y-20817D01*
X47316Y-20817D01*
X47316Y-21014D01*
X47181Y-21014D01*
X47156Y-21039D01*
X47156Y-21093D01*
X47156Y-21133D01*
X47171Y-21170D01*
X47200Y-21198D01*
X47237Y-21213D01*
X47290Y-21213D01*
X47316Y-21188D01*
X47316Y-21477D01*
X47300Y-21461D01*
X47251Y-21441D01*
X47220Y-21441D01*
X47214Y-21411D01*
X47163Y-21336D01*
X47163Y-21336D01*
X46876Y-21048D01*
X46876Y-20692D01*
X46856Y-20643D01*
X46818Y-20605D01*
X46769Y-20585D01*
X46716Y-20585D01*
X46480Y-20585D01*
X46431Y-20605D01*
X46393Y-20643D01*
X46373Y-20692D01*
X46373Y-20745D01*
X46373Y-21139D01*
X46393Y-21188D01*
X46408Y-21203D01*
X46410Y-21213D01*
X46461Y-21288D01*
X46666Y-21494D01*
X46661Y-21499D01*
X46641Y-21548D01*
X46641Y-21601D01*
X46641Y-21851D01*
X46661Y-21900D01*
X46699Y-21938D01*
X46748Y-21958D01*
X46801Y-21958D01*
X47251Y-21958D01*
X47300Y-21938D01*
X47338Y-21900D01*
X47358Y-21851D01*
X47358Y-21798D01*
X47358Y-22148D01*
X47338Y-22099D01*
X47300Y-22061D01*
X47251Y-22041D01*
X47198Y-22041D01*
X46748Y-22041D01*
X46699Y-22061D01*
X46661Y-22099D01*
X46641Y-22148D01*
X46641Y-22201D01*
X46641Y-22451D01*
X46661Y-22500D01*
X46699Y-22538D01*
X46748Y-22558D01*
X46779Y-22558D01*
X46785Y-22588D01*
X46836Y-22663D01*
X47586Y-23413D01*
X47586Y-23413D01*
X47661Y-23464D01*
X47735Y-23478D01*
X47749Y-23481D01*
X47749Y-23481D01*
X47750Y-23481D01*
X49403Y-23481D01*
X49768Y-23846D01*
X49768Y-23994D01*
X49766Y-23998D01*
X49766Y-24051D01*
X49766Y-24501D01*
X49786Y-24550D01*
X49824Y-24588D01*
X49873Y-24608D01*
X49926Y-24608D01*
X50126Y-24608D01*
X50175Y-24588D01*
X50213Y-24550D01*
X50233Y-24501D01*
X50233Y-24448D01*
X50233Y-23998D01*
X50231Y-23994D01*
X50231Y-23809D01*
X50268Y-23846D01*
X50268Y-23994D01*
X50266Y-23998D01*
X50266Y-24051D01*
X50266Y-24501D01*
X50286Y-24550D01*
X50324Y-24588D01*
X50373Y-24608D01*
X50426Y-24608D01*
X50626Y-24608D01*
X50675Y-24588D01*
X50713Y-24550D01*
X50733Y-24501D01*
X50733Y-24448D01*
X50733Y-24768D01*
X49733Y-24768D01*
X49733Y-24448D01*
X49733Y-23998D01*
X49729Y-23989D01*
X49714Y-23911D01*
X49663Y-23836D01*
X49663Y-23836D01*
X49413Y-23586D01*
X49338Y-23535D01*
X49250Y-23518D01*
X49249Y-23518D01*
X46846Y-23518D01*
X46093Y-22765D01*
X46093Y-21093D01*
X46093Y-20738D01*
X46093Y-20698D01*
X46078Y-20661D01*
X46049Y-20633D01*
X46033Y-20627D01*
X46033Y-19423D01*
X46033Y-18823D01*
X46013Y-18774D01*
X45975Y-18736D01*
X45926Y-18716D01*
X45873Y-18716D01*
X45073Y-18716D01*
X45024Y-18736D01*
X44986Y-18774D01*
X44966Y-18823D01*
X44966Y-18876D01*
X44966Y-19476D01*
X44986Y-19525D01*
X45024Y-19563D01*
X45073Y-19583D01*
X45126Y-19583D01*
X45268Y-19583D01*
X45268Y-19813D01*
X45248Y-19860D01*
X45248Y-19913D01*
X45248Y-20307D01*
X45268Y-20356D01*
X45306Y-20394D01*
X45355Y-20414D01*
X45408Y-20414D01*
X45644Y-20414D01*
X45693Y-20394D01*
X45731Y-20356D01*
X45751Y-20307D01*
X45751Y-20254D01*
X45751Y-19860D01*
X45731Y-19813D01*
X45731Y-19583D01*
X45926Y-19583D01*
X45975Y-19563D01*
X46013Y-19525D01*
X46033Y-19476D01*
X46033Y-19423D01*
X46033Y-20627D01*
X46012Y-20618D01*
X45959Y-20618D01*
X45934Y-20643D01*
X45934Y-20817D01*
X46068Y-20817D01*
X46093Y-20792D01*
X46093Y-20738D01*
X46093Y-21093D01*
X46093Y-21039D01*
X46068Y-21014D01*
X45934Y-21014D01*
X45934Y-21188D01*
X45959Y-21213D01*
X46012Y-21213D01*
X46049Y-21198D01*
X46078Y-21170D01*
X46093Y-21133D01*
X46093Y-21093D01*
X46093Y-22765D01*
X45833Y-22505D01*
X45838Y-22500D01*
X45858Y-22451D01*
X45858Y-22398D01*
X45858Y-22148D01*
X45858Y-21798D01*
X45858Y-21548D01*
X45838Y-21499D01*
X45816Y-21477D01*
X45816Y-21188D01*
X45816Y-21014D01*
X45816Y-20817D01*
X45816Y-20643D01*
X45790Y-20618D01*
X45737Y-20618D01*
X45700Y-20633D01*
X45671Y-20661D01*
X45656Y-20698D01*
X45656Y-20738D01*
X45656Y-20792D01*
X45681Y-20817D01*
X45816Y-20817D01*
X45816Y-21014D01*
X45681Y-21014D01*
X45656Y-21039D01*
X45656Y-21093D01*
X45656Y-21133D01*
X45671Y-21170D01*
X45700Y-21198D01*
X45737Y-21213D01*
X45790Y-21213D01*
X45816Y-21188D01*
X45816Y-21477D01*
X45800Y-21461D01*
X45751Y-21441D01*
X45720Y-21441D01*
X45714Y-21411D01*
X45663Y-21336D01*
X45663Y-21336D01*
X45376Y-21048D01*
X45376Y-20692D01*
X45356Y-20643D01*
X45318Y-20605D01*
X45269Y-20585D01*
X45216Y-20585D01*
X44980Y-20585D01*
X44931Y-20605D01*
X44893Y-20643D01*
X44873Y-20692D01*
X44873Y-20745D01*
X44873Y-21139D01*
X44893Y-21188D01*
X44908Y-21203D01*
X44910Y-21213D01*
X44961Y-21288D01*
X45166Y-21494D01*
X45161Y-21499D01*
X45141Y-21548D01*
X45141Y-21601D01*
X45141Y-21851D01*
X45161Y-21900D01*
X45199Y-21938D01*
X45248Y-21958D01*
X45301Y-21958D01*
X45751Y-21958D01*
X45800Y-21938D01*
X45838Y-21900D01*
X45858Y-21851D01*
X45858Y-21798D01*
X45858Y-22148D01*
X45838Y-22099D01*
X45800Y-22061D01*
X45751Y-22041D01*
X45698Y-22041D01*
X45248Y-22041D01*
X45199Y-22061D01*
X45161Y-22099D01*
X45141Y-22148D01*
X45141Y-22201D01*
X45141Y-22451D01*
X45161Y-22500D01*
X45199Y-22538D01*
X45248Y-22558D01*
X45279Y-22558D01*
X45285Y-22588D01*
X45336Y-22663D01*
X46586Y-23913D01*
X46586Y-23913D01*
X46661Y-23964D01*
X46750Y-23981D01*
X46750Y-23981D01*
X46750Y-23981D01*
X48639Y-23981D01*
X48639Y-24025D01*
X48799Y-24025D01*
X48799Y-24044D01*
X48799Y-24112D01*
X48824Y-24137D01*
X48950Y-24137D01*
X48950Y-24025D01*
X49050Y-24025D01*
X49050Y-24137D01*
X49175Y-24137D01*
X49200Y-24112D01*
X49200Y-24044D01*
X49200Y-24028D01*
X49266Y-24094D01*
X49266Y-24501D01*
X49286Y-24550D01*
X49324Y-24588D01*
X49373Y-24608D01*
X49426Y-24608D01*
X49626Y-24608D01*
X49675Y-24588D01*
X49713Y-24550D01*
X49733Y-24501D01*
X49733Y-24448D01*
X49733Y-24768D01*
X49200Y-24768D01*
X49200Y-24455D01*
X49200Y-24387D01*
X49175Y-24362D01*
X49050Y-24362D01*
X49050Y-24550D01*
X49075Y-24575D01*
X49119Y-24575D01*
X49156Y-24560D01*
X49185Y-24532D01*
X49200Y-24495D01*
X49200Y-24455D01*
X49200Y-24768D01*
X48950Y-24768D01*
X48950Y-24550D01*
X48950Y-24362D01*
X48824Y-24362D01*
X48799Y-24387D01*
X48799Y-24455D01*
X48799Y-24495D01*
X48814Y-24532D01*
X48843Y-24560D01*
X48880Y-24575D01*
X48924Y-24575D01*
X48950Y-24550D01*
X48950Y-24768D01*
X48846Y-24768D01*
X48663Y-24586D01*
X48588Y-24535D01*
X48500Y-24518D01*
X48499Y-24518D01*
X44346Y-24518D01*
X44282Y-24454D01*
X44557Y-24454D01*
X44607Y-24434D01*
X44644Y-24396D01*
X44664Y-24347D01*
X44665Y-24294D01*
X44665Y-23290D01*
X44644Y-23241D01*
X44607Y-23203D01*
X44558Y-23183D01*
X44505Y-23183D01*
X44325Y-23183D01*
X44325Y-22194D01*
X44325Y-21905D01*
X44310Y-21868D01*
X44282Y-21839D01*
X44245Y-21824D01*
X44205Y-21824D01*
X44137Y-21824D01*
X44112Y-21849D01*
X44112Y-21987D01*
X44300Y-21987D01*
X44325Y-21962D01*
X44325Y-21905D01*
X44325Y-22194D01*
X44325Y-22137D01*
X44300Y-22112D01*
X44112Y-22112D01*
X44112Y-22250D01*
X44137Y-22275D01*
X44205Y-22275D01*
X44245Y-22275D01*
X44282Y-22260D01*
X44310Y-22231D01*
X44325Y-22194D01*
X44325Y-23183D01*
X44231Y-23183D01*
X44231Y-23000D01*
X44231Y-23000D01*
X44231Y-23000D01*
X44214Y-22911D01*
X44163Y-22836D01*
X44163Y-22836D01*
X43887Y-22559D01*
X43887Y-22250D01*
X43887Y-22112D01*
X43887Y-21987D01*
X43887Y-21849D01*
X43862Y-21824D01*
X43794Y-21824D01*
X43754Y-21824D01*
X43717Y-21839D01*
X43689Y-21868D01*
X43674Y-21905D01*
X43674Y-21962D01*
X43699Y-21987D01*
X43887Y-21987D01*
X43887Y-22112D01*
X43699Y-22112D01*
X43674Y-22137D01*
X43674Y-22194D01*
X43689Y-22231D01*
X43717Y-22260D01*
X43754Y-22275D01*
X43794Y-22275D01*
X43862Y-22275D01*
X43887Y-22250D01*
X43887Y-22559D01*
X43663Y-22336D01*
X43588Y-22285D01*
X43500Y-22268D01*
X43499Y-22268D01*
X43194Y-22268D01*
X43189Y-22256D01*
X43152Y-22219D01*
X43131Y-22210D01*
X43131Y-21733D01*
X43251Y-21733D01*
X43300Y-21713D01*
X43338Y-21675D01*
X43358Y-21626D01*
X43358Y-21573D01*
X43358Y-21231D01*
X43679Y-21231D01*
X43661Y-21249D01*
X43641Y-21298D01*
X43641Y-21351D01*
X43641Y-21601D01*
X43661Y-21650D01*
X43699Y-21688D01*
X43748Y-21708D01*
X43801Y-21708D01*
X44251Y-21708D01*
X44300Y-21688D01*
X44338Y-21650D01*
X44358Y-21601D01*
X44358Y-21548D01*
X44358Y-21298D01*
X44338Y-21249D01*
X44300Y-21211D01*
X44251Y-21191D01*
X44231Y-21191D01*
X44231Y-21097D01*
X44251Y-21050D01*
X44251Y-20950D01*
X44213Y-20857D01*
X44142Y-20786D01*
X44050Y-20748D01*
X43950Y-20748D01*
X43902Y-20768D01*
X43358Y-20768D01*
X43358Y-20373D01*
X43338Y-20324D01*
X43300Y-20286D01*
X43300Y-20286D01*
X43300Y-19680D01*
X43300Y-17319D01*
X43300Y-17279D01*
X43285Y-17242D01*
X43256Y-17214D01*
X43219Y-17199D01*
X42608Y-17199D01*
X42608Y-16148D01*
X42608Y-15898D01*
X42608Y-15548D01*
X42608Y-15298D01*
X42588Y-15249D01*
X42550Y-15211D01*
X42501Y-15191D01*
X42481Y-15191D01*
X42481Y-14808D01*
X42501Y-14808D01*
X42550Y-14788D01*
X42588Y-14750D01*
X42608Y-14701D01*
X42608Y-14648D01*
X42608Y-14398D01*
X42588Y-14349D01*
X42575Y-14336D01*
X42575Y-14094D01*
X42575Y-13805D01*
X42560Y-13768D01*
X42532Y-13739D01*
X42495Y-13724D01*
X42455Y-13724D01*
X42387Y-13724D01*
X42362Y-13749D01*
X42362Y-13887D01*
X42550Y-13887D01*
X42575Y-13862D01*
X42575Y-13805D01*
X42575Y-14094D01*
X42575Y-14037D01*
X42550Y-14012D01*
X42362Y-14012D01*
X42362Y-14150D01*
X42387Y-14175D01*
X42455Y-14175D01*
X42495Y-14175D01*
X42532Y-14160D01*
X42560Y-14131D01*
X42575Y-14094D01*
X42575Y-14336D01*
X42550Y-14311D01*
X42501Y-14291D01*
X42448Y-14291D01*
X42137Y-14291D01*
X42137Y-14150D01*
X42137Y-14012D01*
X42137Y-13887D01*
X42137Y-13749D01*
X42112Y-13724D01*
X42044Y-13724D01*
X42004Y-13724D01*
X41967Y-13739D01*
X41939Y-13768D01*
X41924Y-13805D01*
X41924Y-13862D01*
X41949Y-13887D01*
X42137Y-13887D01*
X42137Y-14012D01*
X41949Y-14012D01*
X41924Y-14037D01*
X41924Y-14094D01*
X41939Y-14131D01*
X41967Y-14160D01*
X42004Y-14175D01*
X42044Y-14175D01*
X42112Y-14175D01*
X42137Y-14150D01*
X42137Y-14291D01*
X41998Y-14291D01*
X41949Y-14311D01*
X41911Y-14349D01*
X41891Y-14398D01*
X41891Y-14451D01*
X41891Y-14701D01*
X41911Y-14750D01*
X41949Y-14788D01*
X41998Y-14808D01*
X42018Y-14808D01*
X42018Y-15191D01*
X41998Y-15191D01*
X41949Y-15211D01*
X41911Y-15249D01*
X41891Y-15298D01*
X41891Y-15351D01*
X41891Y-15601D01*
X41911Y-15650D01*
X41949Y-15688D01*
X41998Y-15708D01*
X42051Y-15708D01*
X42501Y-15708D01*
X42550Y-15688D01*
X42588Y-15650D01*
X42608Y-15601D01*
X42608Y-15548D01*
X42608Y-15898D01*
X42588Y-15849D01*
X42550Y-15811D01*
X42501Y-15791D01*
X42448Y-15791D01*
X41998Y-15791D01*
X41949Y-15811D01*
X41911Y-15849D01*
X41891Y-15898D01*
X41891Y-15951D01*
X41891Y-16201D01*
X41911Y-16250D01*
X41949Y-16288D01*
X41998Y-16308D01*
X42018Y-16308D01*
X42018Y-16402D01*
X41998Y-16449D01*
X41998Y-16549D01*
X42036Y-16642D01*
X42107Y-16713D01*
X42199Y-16751D01*
X42299Y-16751D01*
X42392Y-16713D01*
X42463Y-16642D01*
X42501Y-16550D01*
X42501Y-16450D01*
X42481Y-16402D01*
X42481Y-16308D01*
X42501Y-16308D01*
X42550Y-16288D01*
X42588Y-16250D01*
X42608Y-16201D01*
X42608Y-16148D01*
X42608Y-17199D01*
X42385Y-17199D01*
X42360Y-17224D01*
X42360Y-18140D01*
X43275Y-18140D01*
X43300Y-18114D01*
X43300Y-17319D01*
X43300Y-19680D01*
X43300Y-18885D01*
X43275Y-18860D01*
X42360Y-18860D01*
X42360Y-19775D01*
X42385Y-19800D01*
X43219Y-19800D01*
X43256Y-19785D01*
X43285Y-19757D01*
X43300Y-19720D01*
X43300Y-19680D01*
X43300Y-20286D01*
X43251Y-20266D01*
X43198Y-20266D01*
X42548Y-20266D01*
X42499Y-20286D01*
X42461Y-20324D01*
X42441Y-20373D01*
X42441Y-20426D01*
X42441Y-21626D01*
X42461Y-21675D01*
X42499Y-21713D01*
X42548Y-21733D01*
X42601Y-21733D01*
X42668Y-21733D01*
X42668Y-22218D01*
X42665Y-22219D01*
X42628Y-22256D01*
X42608Y-22305D01*
X42607Y-22358D01*
X42607Y-22693D01*
X42628Y-22743D01*
X42665Y-22780D01*
X42714Y-22800D01*
X42767Y-22801D01*
X43102Y-22801D01*
X43152Y-22780D01*
X43189Y-22743D01*
X43194Y-22731D01*
X43403Y-22731D01*
X43768Y-23096D01*
X43768Y-23183D01*
X43442Y-23183D01*
X43392Y-23203D01*
X43355Y-23241D01*
X43335Y-23290D01*
X43334Y-23343D01*
X43334Y-24347D01*
X43355Y-24396D01*
X43392Y-24434D01*
X43441Y-24454D01*
X43494Y-24454D01*
X43768Y-24454D01*
X43768Y-24499D01*
X43768Y-24500D01*
X43785Y-24588D01*
X43836Y-24663D01*
X44086Y-24913D01*
X44086Y-24913D01*
X44161Y-24964D01*
X44250Y-24981D01*
X48403Y-24981D01*
X48586Y-25163D01*
X48586Y-25163D01*
X48661Y-25214D01*
X48750Y-25231D01*
X52153Y-25231D01*
X52268Y-25346D01*
X52268Y-25994D01*
X52266Y-25998D01*
X52266Y-26051D01*
X52266Y-26501D01*
X52286Y-26550D01*
X52324Y-26588D01*
X52373Y-26608D01*
X52426Y-26608D01*
X52626Y-26608D01*
X52675Y-26588D01*
X52713Y-26550D01*
X52733Y-26501D01*
X52733Y-26481D01*
X52941Y-26481D01*
X52941Y-26501D01*
X52961Y-26550D01*
X52999Y-26588D01*
X53048Y-26608D01*
X53101Y-26608D01*
X53351Y-26608D01*
X53400Y-26588D01*
X53438Y-26550D01*
X53458Y-26501D01*
X53458Y-26448D01*
X53458Y-26768D01*
X52500Y-26768D01*
X52411Y-26785D01*
X52336Y-26836D01*
X52336Y-26836D01*
X52203Y-26968D01*
X52056Y-26968D01*
X52050Y-26961D01*
X52001Y-26941D01*
X51981Y-26941D01*
X51981Y-26750D01*
X51964Y-26661D01*
X51929Y-26608D01*
X52126Y-26608D01*
X52175Y-26588D01*
X52213Y-26550D01*
X52233Y-26501D01*
X52233Y-26448D01*
X52233Y-25998D01*
X52231Y-25994D01*
X52231Y-25597D01*
X52251Y-25550D01*
X52251Y-25450D01*
X52213Y-25357D01*
X52142Y-25286D01*
X52050Y-25248D01*
X51950Y-25248D01*
X51857Y-25286D01*
X51786Y-25357D01*
X51748Y-25449D01*
X51748Y-25549D01*
X51768Y-25597D01*
X51768Y-25994D01*
X51766Y-25998D01*
X51766Y-26051D01*
X51766Y-26438D01*
X51733Y-26405D01*
X51733Y-25998D01*
X51713Y-25949D01*
X51675Y-25911D01*
X51626Y-25891D01*
X51573Y-25891D01*
X51373Y-25891D01*
X51324Y-25911D01*
X51286Y-25949D01*
X51266Y-25998D01*
X51266Y-26051D01*
X51266Y-26501D01*
X51270Y-26510D01*
X51285Y-26588D01*
X51336Y-26663D01*
X51518Y-26846D01*
X51518Y-26941D01*
X51498Y-26941D01*
X51449Y-26961D01*
X51411Y-26999D01*
X51391Y-27048D01*
X51391Y-27101D01*
X51391Y-27351D01*
X51411Y-27400D01*
X51449Y-27438D01*
X51498Y-27458D01*
X51551Y-27458D01*
X52001Y-27458D01*
X52050Y-27438D01*
X52056Y-27431D01*
X52299Y-27431D01*
X52300Y-27431D01*
X52300Y-27431D01*
X52388Y-27414D01*
X52463Y-27363D01*
X52596Y-27231D01*
X54805Y-27231D01*
X54810Y-27243D01*
X54847Y-27280D01*
X54896Y-27300D01*
X54949Y-27301D01*
X55284Y-27301D01*
X55334Y-27280D01*
X55371Y-27243D01*
X55391Y-27194D01*
X55392Y-27141D01*
X55392Y-31776D01*
X55149Y-31775D01*
X55149Y-28944D01*
X55140Y-28898D01*
X55100Y-28857D01*
X54958Y-29000D01*
X55100Y-29142D01*
X55140Y-29101D01*
X55149Y-28944D01*
X55149Y-31775D01*
X55106Y-31775D01*
X54892Y-31864D01*
X54892Y-29350D01*
X54892Y-28649D01*
X54851Y-28609D01*
X54694Y-28600D01*
X54648Y-28609D01*
X54607Y-28649D01*
X54750Y-28791D01*
X54892Y-28649D01*
X54892Y-29350D01*
X54750Y-29208D01*
X54607Y-29350D01*
X54648Y-29390D01*
X54805Y-29399D01*
X54851Y-29390D01*
X54892Y-29350D01*
X54892Y-31864D01*
X54840Y-31885D01*
X54679Y-32046D01*
X54679Y-29915D01*
X54613Y-29757D01*
X54541Y-29684D01*
X54541Y-29000D01*
X54399Y-28857D01*
X54359Y-28898D01*
X54350Y-29055D01*
X54359Y-29101D01*
X54399Y-29142D01*
X54541Y-29000D01*
X54541Y-29684D01*
X54493Y-29636D01*
X54335Y-29571D01*
X54165Y-29570D01*
X54149Y-29577D01*
X54149Y-28944D01*
X54140Y-28898D01*
X54100Y-28857D01*
X53958Y-29000D01*
X54100Y-29142D01*
X54140Y-29101D01*
X54149Y-28944D01*
X54149Y-29577D01*
X54007Y-29636D01*
X53892Y-29751D01*
X53892Y-29350D01*
X53892Y-28649D01*
X53851Y-28609D01*
X53694Y-28600D01*
X53648Y-28609D01*
X53607Y-28649D01*
X53750Y-28791D01*
X53892Y-28649D01*
X53892Y-29350D01*
X53750Y-29208D01*
X53607Y-29350D01*
X53648Y-29390D01*
X53805Y-29399D01*
X53851Y-29390D01*
X53892Y-29350D01*
X53892Y-29751D01*
X53886Y-29756D01*
X53821Y-29914D01*
X53820Y-30084D01*
X53886Y-30242D01*
X54006Y-30363D01*
X54018Y-30368D01*
X54018Y-30903D01*
X53904Y-31017D01*
X53857Y-31036D01*
X53786Y-31107D01*
X53748Y-31199D01*
X53748Y-31299D01*
X53786Y-31392D01*
X53857Y-31463D01*
X53949Y-31501D01*
X54049Y-31501D01*
X54142Y-31463D01*
X54213Y-31392D01*
X54232Y-31344D01*
X54413Y-31163D01*
X54413Y-31163D01*
X54413Y-31163D01*
X54464Y-31088D01*
X54481Y-31000D01*
X54481Y-30368D01*
X54492Y-30363D01*
X54613Y-30243D01*
X54678Y-30085D01*
X54679Y-29915D01*
X54679Y-32046D01*
X54636Y-32089D01*
X54526Y-32355D01*
X54525Y-32643D01*
X54635Y-32909D01*
X54839Y-33113D01*
X55105Y-33223D01*
X55393Y-33224D01*
X55659Y-33114D01*
X55863Y-32910D01*
X55973Y-32644D01*
X55974Y-32356D01*
X55974Y-34879D01*
X53679Y-34879D01*
X53679Y-29915D01*
X53613Y-29757D01*
X53541Y-29684D01*
X53541Y-29000D01*
X53399Y-28857D01*
X53359Y-28898D01*
X53350Y-29055D01*
X53359Y-29101D01*
X53399Y-29142D01*
X53541Y-29000D01*
X53541Y-29684D01*
X53493Y-29636D01*
X53335Y-29571D01*
X53179Y-29570D01*
X53179Y-28915D01*
X53113Y-28757D01*
X52993Y-28636D01*
X52835Y-28571D01*
X52665Y-28570D01*
X52507Y-28636D01*
X52386Y-28756D01*
X52321Y-28914D01*
X52320Y-29084D01*
X52386Y-29242D01*
X52506Y-29363D01*
X52664Y-29428D01*
X52834Y-29429D01*
X52992Y-29363D01*
X53113Y-29243D01*
X53178Y-29085D01*
X53179Y-28915D01*
X53179Y-29570D01*
X53165Y-29570D01*
X53007Y-29636D01*
X52886Y-29756D01*
X52821Y-29914D01*
X52820Y-30084D01*
X52886Y-30242D01*
X53006Y-30363D01*
X53164Y-30428D01*
X53334Y-30429D01*
X53492Y-30363D01*
X53613Y-30243D01*
X53678Y-30085D01*
X53679Y-29915D01*
X53679Y-34879D01*
X52751Y-34879D01*
X52751Y-33450D01*
X52731Y-33402D01*
X52731Y-31750D01*
X52731Y-30750D01*
X52714Y-30661D01*
X52663Y-30586D01*
X52663Y-30586D01*
X52481Y-30403D01*
X52481Y-30368D01*
X52492Y-30363D01*
X52613Y-30243D01*
X52678Y-30085D01*
X52679Y-29915D01*
X52613Y-29757D01*
X52493Y-29636D01*
X52335Y-29571D01*
X52165Y-29570D01*
X52153Y-29575D01*
X51956Y-29378D01*
X51992Y-29363D01*
X52113Y-29243D01*
X52178Y-29085D01*
X52179Y-28915D01*
X52113Y-28757D01*
X52108Y-28751D01*
X52108Y-27898D01*
X52108Y-27648D01*
X52088Y-27599D01*
X52050Y-27561D01*
X52001Y-27541D01*
X51948Y-27541D01*
X51498Y-27541D01*
X51449Y-27561D01*
X51411Y-27599D01*
X51391Y-27648D01*
X51391Y-27701D01*
X51391Y-27951D01*
X51411Y-28000D01*
X51449Y-28038D01*
X51498Y-28058D01*
X51518Y-28058D01*
X51518Y-28152D01*
X51498Y-28199D01*
X51498Y-28299D01*
X51536Y-28392D01*
X51607Y-28463D01*
X51699Y-28501D01*
X51799Y-28501D01*
X51892Y-28463D01*
X51963Y-28392D01*
X52001Y-28300D01*
X52001Y-28200D01*
X51981Y-28152D01*
X51981Y-28058D01*
X52001Y-28058D01*
X52050Y-28038D01*
X52088Y-28000D01*
X52108Y-27951D01*
X52108Y-27898D01*
X52108Y-28751D01*
X51993Y-28636D01*
X51835Y-28571D01*
X51665Y-28570D01*
X51507Y-28636D01*
X51386Y-28756D01*
X51321Y-28914D01*
X51320Y-29084D01*
X51386Y-29242D01*
X51411Y-29268D01*
X51346Y-29268D01*
X51231Y-29153D01*
X51231Y-28058D01*
X51251Y-28058D01*
X51300Y-28038D01*
X51338Y-28000D01*
X51358Y-27951D01*
X51358Y-27898D01*
X51358Y-27648D01*
X51358Y-27298D01*
X51358Y-27048D01*
X51338Y-26999D01*
X51300Y-26961D01*
X51251Y-26941D01*
X51220Y-26941D01*
X51214Y-26911D01*
X51200Y-26890D01*
X51200Y-26455D01*
X51200Y-26044D01*
X51200Y-26004D01*
X51185Y-25967D01*
X51156Y-25939D01*
X51119Y-25924D01*
X51075Y-25924D01*
X51050Y-25949D01*
X51050Y-26137D01*
X51175Y-26137D01*
X51200Y-26112D01*
X51200Y-26044D01*
X51200Y-26455D01*
X51200Y-26387D01*
X51175Y-26362D01*
X51050Y-26362D01*
X51050Y-26550D01*
X51075Y-26575D01*
X51119Y-26575D01*
X51156Y-26560D01*
X51185Y-26532D01*
X51200Y-26495D01*
X51200Y-26455D01*
X51200Y-26890D01*
X51163Y-26836D01*
X51163Y-26836D01*
X50903Y-26575D01*
X50924Y-26575D01*
X50950Y-26550D01*
X50950Y-26362D01*
X50950Y-26137D01*
X50950Y-25949D01*
X50924Y-25924D01*
X50880Y-25924D01*
X50843Y-25939D01*
X50814Y-25967D01*
X50799Y-26004D01*
X50799Y-26044D01*
X50799Y-26112D01*
X50824Y-26137D01*
X50950Y-26137D01*
X50950Y-26362D01*
X50824Y-26362D01*
X50799Y-26387D01*
X50799Y-26455D01*
X50799Y-26471D01*
X50733Y-26405D01*
X50733Y-25998D01*
X50731Y-25994D01*
X50731Y-25847D01*
X50751Y-25800D01*
X50751Y-25700D01*
X50713Y-25607D01*
X50642Y-25536D01*
X50550Y-25498D01*
X50450Y-25498D01*
X50357Y-25536D01*
X50286Y-25607D01*
X50248Y-25699D01*
X50248Y-25799D01*
X50268Y-25847D01*
X50268Y-25994D01*
X50266Y-25998D01*
X50266Y-26051D01*
X50266Y-26501D01*
X50270Y-26510D01*
X50285Y-26588D01*
X50336Y-26663D01*
X50666Y-26994D01*
X50661Y-26999D01*
X50641Y-27048D01*
X50641Y-27101D01*
X50641Y-27351D01*
X50661Y-27400D01*
X50699Y-27438D01*
X50748Y-27458D01*
X50801Y-27458D01*
X51251Y-27458D01*
X51300Y-27438D01*
X51338Y-27400D01*
X51358Y-27351D01*
X51358Y-27298D01*
X51358Y-27648D01*
X51338Y-27599D01*
X51300Y-27561D01*
X51251Y-27541D01*
X51198Y-27541D01*
X50748Y-27541D01*
X50699Y-27561D01*
X50661Y-27599D01*
X50641Y-27648D01*
X50641Y-27701D01*
X50641Y-27951D01*
X50661Y-28000D01*
X50699Y-28038D01*
X50748Y-28058D01*
X50768Y-28058D01*
X50768Y-29190D01*
X50481Y-28903D01*
X50481Y-28058D01*
X50501Y-28058D01*
X50550Y-28038D01*
X50588Y-28000D01*
X50608Y-27951D01*
X50608Y-27898D01*
X50608Y-27648D01*
X50608Y-27298D01*
X50608Y-27048D01*
X50588Y-26999D01*
X50550Y-26961D01*
X50501Y-26941D01*
X50470Y-26941D01*
X50464Y-26911D01*
X50413Y-26836D01*
X50413Y-26836D01*
X50232Y-26654D01*
X50231Y-26652D01*
X50231Y-26505D01*
X50233Y-26501D01*
X50233Y-26448D01*
X50233Y-25998D01*
X50213Y-25949D01*
X50175Y-25911D01*
X50126Y-25891D01*
X50073Y-25891D01*
X49873Y-25891D01*
X49824Y-25911D01*
X49786Y-25949D01*
X49766Y-25998D01*
X49766Y-26051D01*
X49766Y-26501D01*
X49768Y-26505D01*
X49768Y-26652D01*
X49748Y-26699D01*
X49748Y-26799D01*
X49786Y-26892D01*
X49857Y-26963D01*
X49905Y-26982D01*
X49916Y-26994D01*
X49911Y-26999D01*
X49891Y-27048D01*
X49891Y-27101D01*
X49891Y-27351D01*
X49911Y-27400D01*
X49949Y-27438D01*
X49998Y-27458D01*
X50051Y-27458D01*
X50501Y-27458D01*
X50550Y-27438D01*
X50588Y-27400D01*
X50608Y-27351D01*
X50608Y-27298D01*
X50608Y-27648D01*
X50588Y-27599D01*
X50550Y-27561D01*
X50501Y-27541D01*
X50448Y-27541D01*
X49998Y-27541D01*
X49949Y-27561D01*
X49911Y-27599D01*
X49891Y-27648D01*
X49891Y-27701D01*
X49891Y-27951D01*
X49911Y-28000D01*
X49949Y-28038D01*
X49998Y-28058D01*
X50018Y-28058D01*
X50018Y-28999D01*
X50018Y-29000D01*
X50035Y-29088D01*
X50086Y-29163D01*
X50820Y-29898D01*
X50820Y-30321D01*
X50841Y-30371D01*
X50878Y-30408D01*
X50927Y-30428D01*
X50980Y-30429D01*
X51018Y-30429D01*
X51018Y-30499D01*
X51018Y-30500D01*
X51035Y-30588D01*
X51086Y-30663D01*
X51768Y-31346D01*
X51768Y-31750D01*
X51768Y-33500D01*
X51768Y-33902D01*
X51748Y-33949D01*
X51748Y-34049D01*
X51786Y-34142D01*
X51857Y-34213D01*
X51949Y-34251D01*
X52049Y-34251D01*
X52142Y-34213D01*
X52213Y-34142D01*
X52251Y-34050D01*
X52251Y-33950D01*
X52231Y-33902D01*
X52231Y-33500D01*
X52231Y-31750D01*
X52231Y-31250D01*
X52231Y-31249D01*
X52231Y-31249D01*
X52228Y-31235D01*
X52214Y-31161D01*
X52163Y-31086D01*
X52163Y-31086D01*
X51507Y-30429D01*
X51571Y-30429D01*
X51621Y-30408D01*
X51658Y-30371D01*
X51678Y-30322D01*
X51679Y-30269D01*
X51679Y-29757D01*
X51825Y-29903D01*
X51821Y-29914D01*
X51820Y-30084D01*
X51886Y-30242D01*
X52006Y-30363D01*
X52018Y-30368D01*
X52018Y-30499D01*
X52018Y-30500D01*
X52035Y-30588D01*
X52086Y-30663D01*
X52268Y-30846D01*
X52268Y-31750D01*
X52268Y-33402D01*
X52248Y-33449D01*
X52248Y-33549D01*
X52286Y-33642D01*
X52357Y-33713D01*
X52449Y-33751D01*
X52549Y-33751D01*
X52642Y-33713D01*
X52713Y-33642D01*
X52751Y-33550D01*
X52751Y-33450D01*
X52751Y-34879D01*
X51501Y-34879D01*
X51501Y-31200D01*
X51463Y-31107D01*
X51392Y-31036D01*
X51344Y-31017D01*
X49731Y-29403D01*
X49731Y-28847D01*
X49751Y-28800D01*
X49751Y-28700D01*
X49731Y-28652D01*
X49731Y-28058D01*
X49751Y-28058D01*
X49800Y-28038D01*
X49838Y-28000D01*
X49858Y-27951D01*
X49858Y-27898D01*
X49858Y-27648D01*
X49858Y-27298D01*
X49858Y-27048D01*
X49838Y-26999D01*
X49800Y-26961D01*
X49751Y-26941D01*
X49731Y-26941D01*
X49731Y-26505D01*
X49733Y-26501D01*
X49733Y-26448D01*
X49733Y-25998D01*
X49731Y-25994D01*
X49731Y-25750D01*
X49714Y-25661D01*
X49663Y-25586D01*
X49663Y-25586D01*
X49413Y-25336D01*
X49338Y-25285D01*
X49250Y-25268D01*
X49249Y-25268D01*
X47694Y-25268D01*
X47689Y-25256D01*
X47652Y-25219D01*
X47603Y-25199D01*
X47550Y-25198D01*
X47215Y-25198D01*
X47165Y-25219D01*
X47128Y-25256D01*
X47108Y-25305D01*
X47107Y-25358D01*
X47107Y-25693D01*
X47128Y-25743D01*
X47165Y-25780D01*
X47214Y-25800D01*
X47267Y-25801D01*
X47602Y-25801D01*
X47652Y-25780D01*
X47689Y-25743D01*
X47694Y-25731D01*
X49153Y-25731D01*
X49268Y-25846D01*
X49268Y-25994D01*
X49266Y-25998D01*
X49266Y-26051D01*
X49266Y-26501D01*
X49268Y-26505D01*
X49268Y-26941D01*
X49248Y-26941D01*
X49233Y-26947D01*
X49233Y-26448D01*
X49233Y-25998D01*
X49213Y-25949D01*
X49175Y-25911D01*
X49126Y-25891D01*
X49073Y-25891D01*
X48873Y-25891D01*
X48824Y-25911D01*
X48786Y-25949D01*
X48766Y-25998D01*
X48766Y-26018D01*
X47694Y-26018D01*
X47689Y-26006D01*
X47652Y-25969D01*
X47603Y-25949D01*
X47550Y-25948D01*
X47215Y-25948D01*
X47165Y-25969D01*
X47128Y-26006D01*
X47108Y-26055D01*
X47107Y-26108D01*
X47107Y-26443D01*
X47128Y-26493D01*
X47165Y-26530D01*
X47214Y-26550D01*
X47267Y-26551D01*
X47602Y-26551D01*
X47652Y-26530D01*
X47689Y-26493D01*
X47694Y-26481D01*
X48766Y-26481D01*
X48766Y-26501D01*
X48768Y-26505D01*
X48768Y-26653D01*
X48742Y-26679D01*
X48713Y-26607D01*
X48642Y-26536D01*
X48550Y-26498D01*
X48450Y-26498D01*
X48402Y-26518D01*
X48000Y-26518D01*
X47911Y-26535D01*
X47836Y-26586D01*
X47836Y-26586D01*
X47677Y-26744D01*
X47652Y-26719D01*
X47603Y-26699D01*
X47550Y-26698D01*
X47215Y-26698D01*
X47165Y-26719D01*
X47128Y-26756D01*
X47108Y-26805D01*
X47107Y-26858D01*
X47107Y-27193D01*
X47128Y-27243D01*
X47165Y-27280D01*
X47214Y-27300D01*
X47267Y-27301D01*
X47602Y-27301D01*
X47652Y-27280D01*
X47689Y-27243D01*
X47694Y-27231D01*
X47749Y-27231D01*
X47750Y-27231D01*
X47750Y-27231D01*
X47838Y-27214D01*
X47913Y-27163D01*
X48096Y-26981D01*
X48402Y-26981D01*
X48421Y-26989D01*
X48411Y-26999D01*
X48391Y-27048D01*
X48391Y-27101D01*
X48391Y-27351D01*
X48411Y-27400D01*
X48449Y-27438D01*
X48498Y-27458D01*
X48551Y-27458D01*
X49001Y-27458D01*
X49050Y-27438D01*
X49088Y-27400D01*
X49108Y-27351D01*
X49108Y-27298D01*
X49108Y-27048D01*
X49088Y-26999D01*
X49083Y-26994D01*
X49163Y-26913D01*
X49163Y-26913D01*
X49163Y-26913D01*
X49214Y-26838D01*
X49231Y-26750D01*
X49231Y-26505D01*
X49233Y-26501D01*
X49233Y-26448D01*
X49233Y-26947D01*
X49199Y-26961D01*
X49161Y-26999D01*
X49141Y-27048D01*
X49141Y-27101D01*
X49141Y-27351D01*
X49161Y-27400D01*
X49199Y-27438D01*
X49248Y-27458D01*
X49301Y-27458D01*
X49751Y-27458D01*
X49800Y-27438D01*
X49838Y-27400D01*
X49858Y-27351D01*
X49858Y-27298D01*
X49858Y-27648D01*
X49838Y-27599D01*
X49800Y-27561D01*
X49751Y-27541D01*
X49698Y-27541D01*
X49248Y-27541D01*
X49199Y-27561D01*
X49161Y-27599D01*
X49141Y-27648D01*
X49141Y-27701D01*
X49141Y-27951D01*
X49161Y-28000D01*
X49199Y-28038D01*
X49248Y-28058D01*
X49268Y-28058D01*
X49268Y-28652D01*
X49248Y-28699D01*
X49248Y-28799D01*
X49268Y-28847D01*
X49268Y-29499D01*
X49268Y-29500D01*
X49285Y-29588D01*
X49336Y-29663D01*
X51017Y-31345D01*
X51036Y-31392D01*
X51107Y-31463D01*
X51199Y-31501D01*
X51299Y-31501D01*
X51392Y-31463D01*
X51463Y-31392D01*
X51501Y-31300D01*
X51501Y-31200D01*
X51501Y-34879D01*
X51474Y-34879D01*
X51474Y-32356D01*
X51364Y-32090D01*
X51160Y-31886D01*
X50894Y-31776D01*
X50606Y-31775D01*
X50544Y-31801D01*
X50544Y-31188D01*
X50541Y-31173D01*
X50495Y-31102D01*
X50298Y-31299D01*
X50495Y-31495D01*
X50541Y-31424D01*
X50544Y-31188D01*
X50544Y-31801D01*
X50340Y-31885D01*
X50147Y-32078D01*
X50147Y-31843D01*
X50147Y-30754D01*
X50076Y-30708D01*
X49840Y-30705D01*
X49825Y-30708D01*
X49754Y-30754D01*
X49950Y-30951D01*
X50147Y-30754D01*
X50147Y-31843D01*
X49950Y-31647D01*
X49754Y-31843D01*
X49825Y-31890D01*
X50061Y-31893D01*
X50076Y-31890D01*
X50147Y-31843D01*
X50147Y-32078D01*
X50136Y-32089D01*
X50026Y-32355D01*
X50025Y-32643D01*
X50135Y-32909D01*
X50339Y-33113D01*
X50605Y-33223D01*
X50893Y-33224D01*
X51159Y-33114D01*
X51363Y-32910D01*
X51473Y-32644D01*
X51474Y-32356D01*
X51474Y-34879D01*
X49602Y-34879D01*
X49602Y-31299D01*
X49406Y-31102D01*
X49359Y-31173D01*
X49356Y-31409D01*
X49359Y-31424D01*
X49406Y-31495D01*
X49602Y-31299D01*
X49602Y-34879D01*
X49108Y-34879D01*
X49108Y-27898D01*
X49108Y-27648D01*
X49088Y-27599D01*
X49050Y-27561D01*
X49001Y-27541D01*
X48948Y-27541D01*
X48498Y-27541D01*
X48449Y-27561D01*
X48411Y-27599D01*
X48391Y-27648D01*
X48391Y-27701D01*
X48391Y-27951D01*
X48411Y-28000D01*
X48449Y-28038D01*
X48498Y-28058D01*
X48518Y-28058D01*
X48518Y-30152D01*
X48501Y-30191D01*
X48501Y-28200D01*
X48463Y-28107D01*
X48392Y-28036D01*
X48300Y-27998D01*
X48200Y-27998D01*
X48107Y-28036D01*
X48036Y-28107D01*
X47998Y-28199D01*
X47998Y-28299D01*
X48018Y-28347D01*
X48018Y-29403D01*
X48001Y-29420D01*
X48001Y-28700D01*
X47963Y-28607D01*
X47892Y-28536D01*
X47800Y-28498D01*
X47700Y-28498D01*
X47607Y-28536D01*
X47536Y-28607D01*
X47498Y-28699D01*
X47498Y-28799D01*
X47518Y-28847D01*
X47518Y-29153D01*
X47149Y-29522D01*
X47149Y-28944D01*
X47140Y-28898D01*
X47100Y-28857D01*
X46958Y-29000D01*
X47100Y-29142D01*
X47140Y-29101D01*
X47149Y-28944D01*
X47149Y-29522D01*
X46903Y-29768D01*
X46892Y-29768D01*
X46892Y-29350D01*
X46892Y-28649D01*
X46851Y-28609D01*
X46694Y-28600D01*
X46648Y-28609D01*
X46607Y-28649D01*
X46750Y-28791D01*
X46892Y-28649D01*
X46892Y-29350D01*
X46750Y-29208D01*
X46607Y-29350D01*
X46648Y-29390D01*
X46805Y-29399D01*
X46851Y-29390D01*
X46892Y-29350D01*
X46892Y-29768D01*
X46618Y-29768D01*
X46613Y-29757D01*
X46541Y-29684D01*
X46541Y-29000D01*
X46399Y-28857D01*
X46359Y-28898D01*
X46359Y-28901D01*
X46359Y-27147D01*
X46359Y-26852D01*
X46359Y-26397D01*
X46359Y-26102D01*
X46359Y-25647D01*
X46359Y-25352D01*
X46358Y-25312D01*
X46343Y-25275D01*
X46315Y-25247D01*
X46278Y-25231D01*
X46199Y-25232D01*
X46174Y-25257D01*
X46174Y-25416D01*
X46333Y-25416D01*
X46359Y-25391D01*
X46359Y-25352D01*
X46359Y-25647D01*
X46359Y-25608D01*
X46333Y-25583D01*
X46174Y-25583D01*
X46174Y-25742D01*
X46199Y-25768D01*
X46278Y-25768D01*
X46315Y-25752D01*
X46343Y-25724D01*
X46358Y-25687D01*
X46359Y-25647D01*
X46359Y-26102D01*
X46358Y-26062D01*
X46343Y-26025D01*
X46315Y-25997D01*
X46278Y-25981D01*
X46199Y-25982D01*
X46174Y-26007D01*
X46174Y-26166D01*
X46333Y-26166D01*
X46359Y-26141D01*
X46359Y-26102D01*
X46359Y-26397D01*
X46359Y-26358D01*
X46333Y-26333D01*
X46174Y-26333D01*
X46174Y-26492D01*
X46199Y-26518D01*
X46278Y-26518D01*
X46315Y-26502D01*
X46343Y-26474D01*
X46358Y-26437D01*
X46359Y-26397D01*
X46359Y-26852D01*
X46358Y-26812D01*
X46343Y-26775D01*
X46315Y-26747D01*
X46278Y-26731D01*
X46199Y-26732D01*
X46174Y-26757D01*
X46174Y-26916D01*
X46333Y-26916D01*
X46359Y-26891D01*
X46359Y-26852D01*
X46359Y-27147D01*
X46359Y-27108D01*
X46333Y-27083D01*
X46174Y-27083D01*
X46174Y-27242D01*
X46199Y-27268D01*
X46278Y-27268D01*
X46315Y-27252D01*
X46343Y-27224D01*
X46358Y-27187D01*
X46359Y-27147D01*
X46359Y-28901D01*
X46350Y-29055D01*
X46359Y-29101D01*
X46399Y-29142D01*
X46541Y-29000D01*
X46541Y-29684D01*
X46493Y-29636D01*
X46335Y-29571D01*
X46165Y-29570D01*
X46149Y-29577D01*
X46149Y-28944D01*
X46140Y-28898D01*
X46100Y-28857D01*
X46007Y-28951D01*
X46007Y-27242D01*
X46007Y-27083D01*
X46007Y-26916D01*
X46007Y-26757D01*
X46007Y-26492D01*
X46007Y-26333D01*
X46007Y-26166D01*
X46007Y-26007D01*
X46007Y-25742D01*
X46007Y-25583D01*
X46007Y-25416D01*
X46007Y-25257D01*
X45982Y-25232D01*
X45903Y-25231D01*
X45866Y-25247D01*
X45838Y-25275D01*
X45823Y-25312D01*
X45822Y-25352D01*
X45823Y-25391D01*
X45848Y-25416D01*
X46007Y-25416D01*
X46007Y-25583D01*
X45848Y-25583D01*
X45823Y-25608D01*
X45822Y-25647D01*
X45823Y-25687D01*
X45838Y-25724D01*
X45866Y-25752D01*
X45903Y-25768D01*
X45982Y-25768D01*
X46007Y-25742D01*
X46007Y-26007D01*
X45982Y-25982D01*
X45903Y-25981D01*
X45866Y-25997D01*
X45838Y-26025D01*
X45823Y-26062D01*
X45822Y-26102D01*
X45823Y-26141D01*
X45848Y-26166D01*
X46007Y-26166D01*
X46007Y-26333D01*
X45848Y-26333D01*
X45823Y-26358D01*
X45822Y-26397D01*
X45823Y-26437D01*
X45838Y-26474D01*
X45866Y-26502D01*
X45903Y-26518D01*
X45982Y-26518D01*
X46007Y-26492D01*
X46007Y-26757D01*
X45982Y-26732D01*
X45903Y-26731D01*
X45866Y-26747D01*
X45838Y-26775D01*
X45823Y-26812D01*
X45822Y-26852D01*
X45823Y-26891D01*
X45848Y-26916D01*
X46007Y-26916D01*
X46007Y-27083D01*
X45848Y-27083D01*
X45823Y-27108D01*
X45822Y-27147D01*
X45823Y-27187D01*
X45838Y-27224D01*
X45866Y-27252D01*
X45903Y-27268D01*
X45982Y-27268D01*
X46007Y-27242D01*
X46007Y-28951D01*
X45958Y-29000D01*
X46100Y-29142D01*
X46140Y-29101D01*
X46149Y-28944D01*
X46149Y-29577D01*
X46007Y-29636D01*
X45892Y-29751D01*
X45892Y-29350D01*
X45892Y-28649D01*
X45851Y-28609D01*
X45694Y-28600D01*
X45648Y-28609D01*
X45607Y-28649D01*
X45750Y-28791D01*
X45892Y-28649D01*
X45892Y-29350D01*
X45750Y-29208D01*
X45607Y-29350D01*
X45648Y-29390D01*
X45805Y-29399D01*
X45851Y-29390D01*
X45892Y-29350D01*
X45892Y-29751D01*
X45886Y-29756D01*
X45821Y-29914D01*
X45820Y-30084D01*
X45886Y-30242D01*
X46006Y-30363D01*
X46164Y-30428D01*
X46334Y-30429D01*
X46492Y-30363D01*
X46613Y-30243D01*
X46618Y-30231D01*
X46999Y-30231D01*
X47000Y-30231D01*
X47000Y-30231D01*
X47088Y-30214D01*
X47163Y-30163D01*
X47913Y-29413D01*
X47913Y-29413D01*
X47913Y-29413D01*
X47964Y-29338D01*
X47964Y-29338D01*
X47978Y-29264D01*
X47981Y-29250D01*
X47981Y-29250D01*
X47981Y-29250D01*
X47981Y-28847D01*
X48001Y-28800D01*
X48001Y-28700D01*
X48001Y-29420D01*
X46903Y-30518D01*
X45596Y-30518D01*
X45481Y-30403D01*
X45481Y-30368D01*
X45492Y-30363D01*
X45613Y-30243D01*
X45678Y-30085D01*
X45679Y-29915D01*
X45613Y-29757D01*
X45541Y-29684D01*
X45541Y-29000D01*
X45399Y-28857D01*
X45359Y-28898D01*
X45350Y-29055D01*
X45359Y-29101D01*
X45399Y-29142D01*
X45541Y-29000D01*
X45541Y-29684D01*
X45493Y-29636D01*
X45335Y-29571D01*
X45179Y-29570D01*
X45179Y-28915D01*
X45113Y-28757D01*
X44993Y-28636D01*
X44848Y-28576D01*
X44848Y-26702D01*
X44848Y-25659D01*
X44833Y-25622D01*
X44805Y-25593D01*
X44768Y-25578D01*
X44728Y-25578D01*
X44385Y-25578D01*
X44360Y-25603D01*
X44360Y-25930D01*
X44823Y-25930D01*
X44848Y-25904D01*
X44848Y-25659D01*
X44848Y-26702D01*
X44848Y-26457D01*
X44823Y-26432D01*
X44360Y-26432D01*
X44360Y-26758D01*
X44385Y-26783D01*
X44728Y-26783D01*
X44768Y-26783D01*
X44805Y-26768D01*
X44833Y-26739D01*
X44848Y-26702D01*
X44848Y-28576D01*
X44835Y-28571D01*
X44665Y-28570D01*
X44507Y-28636D01*
X44386Y-28756D01*
X44321Y-28914D01*
X44320Y-29084D01*
X44386Y-29242D01*
X44506Y-29363D01*
X44664Y-29428D01*
X44834Y-29429D01*
X44992Y-29363D01*
X45113Y-29243D01*
X45178Y-29085D01*
X45179Y-28915D01*
X45179Y-29570D01*
X45165Y-29570D01*
X45007Y-29636D01*
X44886Y-29756D01*
X44821Y-29914D01*
X44820Y-30084D01*
X44886Y-30242D01*
X45006Y-30363D01*
X45018Y-30368D01*
X45018Y-30499D01*
X45018Y-30500D01*
X45035Y-30588D01*
X45086Y-30663D01*
X45336Y-30913D01*
X45336Y-30913D01*
X45411Y-30964D01*
X45500Y-30981D01*
X46999Y-30981D01*
X47000Y-30981D01*
X47000Y-30981D01*
X47088Y-30964D01*
X47163Y-30913D01*
X48413Y-29663D01*
X48413Y-29663D01*
X48413Y-29663D01*
X48464Y-29588D01*
X48481Y-29500D01*
X48481Y-29500D01*
X48481Y-29499D01*
X48481Y-28347D01*
X48501Y-28300D01*
X48501Y-28200D01*
X48501Y-30191D01*
X48498Y-30199D01*
X48498Y-30299D01*
X48536Y-30392D01*
X48607Y-30463D01*
X48699Y-30501D01*
X48799Y-30501D01*
X48892Y-30463D01*
X48963Y-30392D01*
X49001Y-30300D01*
X49001Y-30200D01*
X48981Y-30152D01*
X48981Y-28058D01*
X49001Y-28058D01*
X49050Y-28038D01*
X49088Y-28000D01*
X49108Y-27951D01*
X49108Y-27898D01*
X49108Y-34879D01*
X48675Y-34879D01*
X48675Y-31175D01*
X48580Y-30945D01*
X48404Y-30769D01*
X48174Y-30673D01*
X47926Y-30673D01*
X47696Y-30768D01*
X47519Y-30944D01*
X47424Y-31174D01*
X47424Y-31423D01*
X47519Y-31653D01*
X47695Y-31829D01*
X47925Y-31924D01*
X48173Y-31924D01*
X48403Y-31829D01*
X48580Y-31654D01*
X48675Y-31424D01*
X48675Y-31175D01*
X48675Y-34879D01*
X47974Y-34879D01*
X47974Y-32356D01*
X47864Y-32090D01*
X47660Y-31886D01*
X47394Y-31776D01*
X47106Y-31775D01*
X46840Y-31885D01*
X46636Y-32089D01*
X46526Y-32355D01*
X46525Y-32643D01*
X46635Y-32909D01*
X46839Y-33113D01*
X47105Y-33223D01*
X47393Y-33224D01*
X47659Y-33114D01*
X47863Y-32910D01*
X47973Y-32644D01*
X47974Y-32356D01*
X47974Y-34879D01*
X46251Y-34879D01*
X46251Y-33450D01*
X46231Y-33402D01*
X46231Y-33250D01*
X46231Y-32250D01*
X46214Y-32161D01*
X46163Y-32086D01*
X46163Y-32086D01*
X45163Y-31086D01*
X45163Y-31086D01*
X44481Y-30403D01*
X44481Y-30368D01*
X44492Y-30363D01*
X44613Y-30243D01*
X44678Y-30085D01*
X44679Y-29915D01*
X44613Y-29757D01*
X44493Y-29636D01*
X44335Y-29571D01*
X44179Y-29570D01*
X44179Y-28915D01*
X44113Y-28757D01*
X43993Y-28636D01*
X43835Y-28571D01*
X43665Y-28570D01*
X43640Y-28581D01*
X43640Y-26758D01*
X43640Y-26432D01*
X43640Y-25930D01*
X43640Y-25603D01*
X43614Y-25578D01*
X43271Y-25578D01*
X43231Y-25578D01*
X43194Y-25593D01*
X43166Y-25622D01*
X43151Y-25659D01*
X43151Y-25904D01*
X43176Y-25930D01*
X43640Y-25930D01*
X43640Y-26432D01*
X43176Y-26432D01*
X43151Y-26457D01*
X43151Y-26702D01*
X43166Y-26739D01*
X43194Y-26768D01*
X43231Y-26783D01*
X43271Y-26783D01*
X43614Y-26783D01*
X43640Y-26758D01*
X43640Y-28581D01*
X43507Y-28636D01*
X43386Y-28756D01*
X43321Y-28914D01*
X43320Y-29084D01*
X43386Y-29242D01*
X43506Y-29363D01*
X43664Y-29428D01*
X43834Y-29429D01*
X43992Y-29363D01*
X44113Y-29243D01*
X44178Y-29085D01*
X44179Y-28915D01*
X44179Y-29570D01*
X44165Y-29570D01*
X44007Y-29636D01*
X43886Y-29756D01*
X43821Y-29914D01*
X43820Y-30084D01*
X43886Y-30242D01*
X44006Y-30363D01*
X44018Y-30368D01*
X44018Y-30499D01*
X44018Y-30500D01*
X44035Y-30588D01*
X44086Y-30663D01*
X44836Y-31413D01*
X44836Y-31413D01*
X45768Y-32346D01*
X45768Y-33250D01*
X45768Y-33402D01*
X45748Y-33449D01*
X45748Y-33549D01*
X45786Y-33642D01*
X45857Y-33713D01*
X45949Y-33751D01*
X46049Y-33751D01*
X46142Y-33713D01*
X46213Y-33642D01*
X46251Y-33550D01*
X46251Y-33450D01*
X46251Y-34879D01*
X45751Y-34879D01*
X45751Y-33950D01*
X45731Y-33902D01*
X45731Y-33500D01*
X45731Y-32750D01*
X45714Y-32661D01*
X45663Y-32586D01*
X45663Y-32586D01*
X44663Y-31586D01*
X44663Y-31586D01*
X43507Y-30429D01*
X43571Y-30429D01*
X43621Y-30408D01*
X43658Y-30371D01*
X43678Y-30322D01*
X43679Y-30269D01*
X43679Y-29678D01*
X43658Y-29628D01*
X43621Y-29591D01*
X43572Y-29571D01*
X43519Y-29570D01*
X43001Y-29570D01*
X43001Y-24700D01*
X42963Y-24607D01*
X42892Y-24536D01*
X42800Y-24498D01*
X42700Y-24498D01*
X42652Y-24518D01*
X41846Y-24518D01*
X41782Y-24454D01*
X42057Y-24454D01*
X42107Y-24434D01*
X42144Y-24396D01*
X42164Y-24347D01*
X42165Y-24294D01*
X42165Y-23290D01*
X42144Y-23241D01*
X42107Y-23203D01*
X42058Y-23183D01*
X42005Y-23183D01*
X41731Y-23183D01*
X41731Y-23096D01*
X41754Y-23072D01*
X41754Y-23072D01*
X41754Y-23072D01*
X41805Y-22997D01*
X41822Y-22909D01*
X41822Y-22785D01*
X41834Y-22780D01*
X41871Y-22743D01*
X41891Y-22694D01*
X41892Y-22641D01*
X41892Y-22306D01*
X41871Y-22256D01*
X41858Y-22243D01*
X41858Y-16148D01*
X41858Y-15898D01*
X41858Y-15548D01*
X41858Y-15298D01*
X41838Y-15249D01*
X41800Y-15211D01*
X41751Y-15191D01*
X41731Y-15191D01*
X41731Y-14808D01*
X41751Y-14808D01*
X41800Y-14788D01*
X41838Y-14750D01*
X41858Y-14701D01*
X41858Y-14648D01*
X41858Y-14398D01*
X41838Y-14349D01*
X41825Y-14336D01*
X41825Y-14094D01*
X41825Y-13805D01*
X41810Y-13768D01*
X41782Y-13739D01*
X41745Y-13724D01*
X41705Y-13724D01*
X41637Y-13724D01*
X41612Y-13749D01*
X41612Y-13887D01*
X41800Y-13887D01*
X41825Y-13862D01*
X41825Y-13805D01*
X41825Y-14094D01*
X41825Y-14037D01*
X41800Y-14012D01*
X41612Y-14012D01*
X41612Y-14150D01*
X41637Y-14175D01*
X41705Y-14175D01*
X41745Y-14175D01*
X41782Y-14160D01*
X41810Y-14131D01*
X41825Y-14094D01*
X41825Y-14336D01*
X41800Y-14311D01*
X41751Y-14291D01*
X41698Y-14291D01*
X41387Y-14291D01*
X41387Y-14150D01*
X41387Y-14012D01*
X41387Y-13887D01*
X41387Y-13749D01*
X41362Y-13724D01*
X41294Y-13724D01*
X41254Y-13724D01*
X41217Y-13739D01*
X41189Y-13768D01*
X41174Y-13805D01*
X41174Y-13862D01*
X41199Y-13887D01*
X41387Y-13887D01*
X41387Y-14012D01*
X41199Y-14012D01*
X41174Y-14037D01*
X41174Y-14094D01*
X41189Y-14131D01*
X41217Y-14160D01*
X41254Y-14175D01*
X41294Y-14175D01*
X41362Y-14175D01*
X41387Y-14150D01*
X41387Y-14291D01*
X41248Y-14291D01*
X41199Y-14311D01*
X41161Y-14349D01*
X41141Y-14398D01*
X41141Y-14451D01*
X41141Y-14701D01*
X41161Y-14750D01*
X41199Y-14788D01*
X41248Y-14808D01*
X41268Y-14808D01*
X41268Y-15191D01*
X41248Y-15191D01*
X41199Y-15211D01*
X41161Y-15249D01*
X41141Y-15298D01*
X41141Y-15351D01*
X41141Y-15601D01*
X41161Y-15650D01*
X41199Y-15688D01*
X41248Y-15708D01*
X41301Y-15708D01*
X41751Y-15708D01*
X41800Y-15688D01*
X41838Y-15650D01*
X41858Y-15601D01*
X41858Y-15548D01*
X41858Y-15898D01*
X41838Y-15849D01*
X41800Y-15811D01*
X41751Y-15791D01*
X41698Y-15791D01*
X41248Y-15791D01*
X41199Y-15811D01*
X41161Y-15849D01*
X41141Y-15898D01*
X41141Y-15951D01*
X41141Y-16201D01*
X41161Y-16250D01*
X41199Y-16288D01*
X41248Y-16308D01*
X41268Y-16308D01*
X41268Y-16402D01*
X41248Y-16449D01*
X41248Y-16549D01*
X41286Y-16642D01*
X41357Y-16713D01*
X41449Y-16751D01*
X41549Y-16751D01*
X41642Y-16713D01*
X41713Y-16642D01*
X41751Y-16550D01*
X41751Y-16450D01*
X41731Y-16402D01*
X41731Y-16308D01*
X41751Y-16308D01*
X41800Y-16288D01*
X41838Y-16250D01*
X41858Y-16201D01*
X41858Y-16148D01*
X41858Y-22243D01*
X41834Y-22219D01*
X41822Y-22214D01*
X41822Y-22091D01*
X41805Y-22002D01*
X41754Y-21927D01*
X41754Y-21927D01*
X41663Y-21836D01*
X41663Y-21836D01*
X41640Y-21812D01*
X41640Y-19775D01*
X41640Y-18860D01*
X41640Y-18140D01*
X41640Y-17224D01*
X41614Y-17199D01*
X40780Y-17199D01*
X40743Y-17214D01*
X40714Y-17242D01*
X40699Y-17279D01*
X40699Y-17319D01*
X40699Y-18114D01*
X40724Y-18140D01*
X41640Y-18140D01*
X41640Y-18860D01*
X40724Y-18860D01*
X40699Y-18885D01*
X40699Y-19680D01*
X40699Y-19720D01*
X40714Y-19757D01*
X40743Y-19785D01*
X40780Y-19800D01*
X41614Y-19800D01*
X41640Y-19775D01*
X41640Y-21812D01*
X41520Y-21692D01*
X41538Y-21675D01*
X41558Y-21626D01*
X41558Y-21573D01*
X41558Y-20373D01*
X41538Y-20324D01*
X41500Y-20286D01*
X41451Y-20266D01*
X41398Y-20266D01*
X40748Y-20266D01*
X40699Y-20286D01*
X40661Y-20324D01*
X40641Y-20373D01*
X40641Y-20426D01*
X40641Y-20768D01*
X40097Y-20768D01*
X40050Y-20748D01*
X39950Y-20748D01*
X39857Y-20786D01*
X39786Y-20857D01*
X39748Y-20949D01*
X39748Y-21049D01*
X39768Y-21097D01*
X39768Y-21191D01*
X39748Y-21191D01*
X39699Y-21211D01*
X39661Y-21249D01*
X39641Y-21298D01*
X39641Y-21351D01*
X39641Y-21601D01*
X39661Y-21650D01*
X39699Y-21688D01*
X39748Y-21708D01*
X39801Y-21708D01*
X40251Y-21708D01*
X40300Y-21688D01*
X40338Y-21650D01*
X40358Y-21601D01*
X40358Y-21548D01*
X40358Y-21298D01*
X40338Y-21249D01*
X40320Y-21231D01*
X40641Y-21231D01*
X40641Y-21626D01*
X40661Y-21675D01*
X40699Y-21713D01*
X40748Y-21733D01*
X40801Y-21733D01*
X40915Y-21733D01*
X40936Y-21763D01*
X41336Y-22163D01*
X41336Y-22163D01*
X41359Y-22187D01*
X41359Y-22214D01*
X41347Y-22219D01*
X41310Y-22256D01*
X41290Y-22305D01*
X41289Y-22358D01*
X41289Y-22693D01*
X41310Y-22743D01*
X41347Y-22780D01*
X41359Y-22785D01*
X41359Y-22812D01*
X41336Y-22836D01*
X41285Y-22911D01*
X41268Y-23000D01*
X41268Y-23000D01*
X41268Y-23183D01*
X40942Y-23183D01*
X40892Y-23203D01*
X40855Y-23241D01*
X40835Y-23290D01*
X40834Y-23343D01*
X40834Y-24347D01*
X40855Y-24396D01*
X40892Y-24434D01*
X40941Y-24454D01*
X40994Y-24454D01*
X41268Y-24454D01*
X41268Y-24499D01*
X41268Y-24500D01*
X41285Y-24588D01*
X41336Y-24663D01*
X41586Y-24913D01*
X41586Y-24913D01*
X41661Y-24964D01*
X41750Y-24981D01*
X42652Y-24981D01*
X42699Y-25001D01*
X42799Y-25001D01*
X42892Y-24963D01*
X42963Y-24892D01*
X43001Y-24800D01*
X43001Y-24700D01*
X43001Y-29570D01*
X42928Y-29570D01*
X42878Y-29591D01*
X42841Y-29628D01*
X42821Y-29677D01*
X42820Y-29730D01*
X42820Y-30321D01*
X42841Y-30371D01*
X42878Y-30408D01*
X42927Y-30428D01*
X42980Y-30429D01*
X43018Y-30429D01*
X43018Y-30499D01*
X43018Y-30500D01*
X43035Y-30588D01*
X43086Y-30663D01*
X44336Y-31913D01*
X44336Y-31913D01*
X45268Y-32846D01*
X45268Y-33500D01*
X45268Y-33902D01*
X45248Y-33949D01*
X45248Y-34049D01*
X45286Y-34142D01*
X45357Y-34213D01*
X45449Y-34251D01*
X45549Y-34251D01*
X45642Y-34213D01*
X45713Y-34142D01*
X45751Y-34050D01*
X45751Y-33950D01*
X45751Y-34879D01*
X43474Y-34879D01*
X43474Y-32356D01*
X43364Y-32090D01*
X43160Y-31886D01*
X42894Y-31776D01*
X42606Y-31775D01*
X42544Y-31801D01*
X42544Y-31188D01*
X42541Y-31173D01*
X42495Y-31102D01*
X42348Y-31249D01*
X42348Y-26702D01*
X42348Y-25659D01*
X42333Y-25622D01*
X42305Y-25593D01*
X42268Y-25578D01*
X42228Y-25578D01*
X41885Y-25578D01*
X41860Y-25603D01*
X41860Y-25930D01*
X42323Y-25930D01*
X42348Y-25904D01*
X42348Y-25659D01*
X42348Y-26702D01*
X42348Y-26457D01*
X42323Y-26432D01*
X41860Y-26432D01*
X41860Y-26758D01*
X41885Y-26783D01*
X42228Y-26783D01*
X42268Y-26783D01*
X42305Y-26768D01*
X42333Y-26739D01*
X42348Y-26702D01*
X42348Y-31249D01*
X42298Y-31299D01*
X42495Y-31495D01*
X42541Y-31424D01*
X42544Y-31188D01*
X42544Y-31801D01*
X42340Y-31885D01*
X42147Y-32078D01*
X42147Y-31843D01*
X42147Y-30754D01*
X42076Y-30708D01*
X41840Y-30705D01*
X41825Y-30708D01*
X41754Y-30754D01*
X41950Y-30951D01*
X42147Y-30754D01*
X42147Y-31843D01*
X41950Y-31647D01*
X41754Y-31843D01*
X41825Y-31890D01*
X42061Y-31893D01*
X42076Y-31890D01*
X42147Y-31843D01*
X42147Y-32078D01*
X42136Y-32089D01*
X42026Y-32355D01*
X42025Y-32643D01*
X42135Y-32909D01*
X42339Y-33113D01*
X42605Y-33223D01*
X42893Y-33224D01*
X43159Y-33114D01*
X43363Y-32910D01*
X43473Y-32644D01*
X43474Y-32356D01*
X43474Y-34879D01*
X41602Y-34879D01*
X41602Y-31299D01*
X41406Y-31102D01*
X41359Y-31173D01*
X41356Y-31409D01*
X41359Y-31424D01*
X41406Y-31495D01*
X41602Y-31299D01*
X41602Y-34879D01*
X41140Y-34879D01*
X41140Y-26758D01*
X41140Y-26432D01*
X41140Y-25930D01*
X41140Y-25603D01*
X41114Y-25578D01*
X40771Y-25578D01*
X40731Y-25578D01*
X40694Y-25593D01*
X40666Y-25622D01*
X40651Y-25659D01*
X40651Y-25904D01*
X40676Y-25930D01*
X41140Y-25930D01*
X41140Y-26432D01*
X40676Y-26432D01*
X40651Y-26457D01*
X40651Y-26702D01*
X40666Y-26739D01*
X40694Y-26768D01*
X40731Y-26783D01*
X40771Y-26783D01*
X41114Y-26783D01*
X41140Y-26758D01*
X41140Y-34879D01*
X40416Y-34879D01*
X40615Y-34797D01*
X40846Y-34566D01*
X40972Y-34264D01*
X40972Y-33937D01*
X40847Y-33634D01*
X40616Y-33403D01*
X40325Y-33282D01*
X40325Y-22194D01*
X40325Y-21905D01*
X40310Y-21868D01*
X40282Y-21839D01*
X40245Y-21824D01*
X40205Y-21824D01*
X40137Y-21824D01*
X40112Y-21849D01*
X40112Y-21987D01*
X40300Y-21987D01*
X40325Y-21962D01*
X40325Y-21905D01*
X40325Y-22194D01*
X40325Y-22137D01*
X40300Y-22112D01*
X40112Y-22112D01*
X40112Y-22250D01*
X40137Y-22275D01*
X40205Y-22275D01*
X40245Y-22275D01*
X40282Y-22260D01*
X40310Y-22231D01*
X40325Y-22194D01*
X40325Y-33282D01*
X40314Y-33277D01*
X39987Y-33277D01*
X39887Y-33318D01*
X39887Y-22250D01*
X39887Y-22112D01*
X39887Y-21987D01*
X39887Y-21849D01*
X39862Y-21824D01*
X39794Y-21824D01*
X39754Y-21824D01*
X39717Y-21839D01*
X39689Y-21868D01*
X39674Y-21905D01*
X39674Y-21962D01*
X39699Y-21987D01*
X39887Y-21987D01*
X39887Y-22112D01*
X39699Y-22112D01*
X39674Y-22137D01*
X39674Y-22194D01*
X39689Y-22231D01*
X39717Y-22260D01*
X39754Y-22275D01*
X39794Y-22275D01*
X39862Y-22275D01*
X39887Y-22250D01*
X39887Y-33318D01*
X39684Y-33402D01*
X39453Y-33633D01*
X39370Y-33833D01*
X39370Y-14666D01*
X39452Y-14865D01*
X39683Y-15096D01*
X39985Y-15222D01*
X40312Y-15222D01*
X40615Y-15097D01*
X40846Y-14866D01*
X40972Y-14564D01*
X40972Y-14237D01*
X40847Y-13934D01*
X40616Y-13703D01*
X40416Y-13620D01*
X57583Y-13620D01*
X57384Y-13702D01*
X57153Y-13933D01*
X57027Y-14235D01*
X57027Y-14562D01*
X57152Y-14865D01*
X57383Y-15096D01*
X57685Y-15222D01*
X58012Y-15222D01*
X58315Y-15097D01*
X58546Y-14866D01*
X58629Y-14666D01*
X58629Y-33833D01*
M02*
