G04 (created by PCBNEW (2013-may-18)-stable) date Tue 21 Oct 2014 06:54:13 PM CEST*
%MOIN*%
G04 Gerber Fmt 3.4, Leading zero omitted, Abs format*
%FSLAX34Y34*%
G01*
G70*
G90*
G04 APERTURE LIST*
%ADD10C,0.00590551*%
%ADD11C,0.11811*%
%ADD12R,0.0591X0.0591*%
%ADD13C,0.0591*%
%ADD14C,0.0984252*%
%ADD15C,0.137795*%
%ADD16C,0.12*%
%ADD17R,0.06X0.06*%
%ADD18C,0.06*%
G04 APERTURE END LIST*
G54D10*
G54D11*
X55250Y-32500D03*
X50750Y-32500D03*
G54D12*
X51250Y-30000D03*
G54D13*
X51750Y-29000D03*
X52250Y-30000D03*
X52750Y-29000D03*
X53250Y-30000D03*
X53750Y-29000D03*
X54250Y-30000D03*
X54750Y-29000D03*
G54D14*
X49950Y-31299D03*
X56050Y-31299D03*
G54D11*
X47250Y-32500D03*
X42750Y-32500D03*
G54D12*
X43250Y-30000D03*
G54D13*
X43750Y-29000D03*
X44250Y-30000D03*
X44750Y-29000D03*
X45250Y-30000D03*
X45750Y-29000D03*
X46250Y-30000D03*
X46750Y-29000D03*
G54D14*
X41950Y-31299D03*
X48050Y-31299D03*
G54D15*
X40150Y-14400D03*
X40150Y-34100D03*
X57850Y-34100D03*
X57850Y-14400D03*
G54D16*
X53300Y-15050D03*
X44700Y-15050D03*
G54D17*
X47000Y-15750D03*
G54D18*
X47000Y-14750D03*
X48000Y-15750D03*
X48000Y-14750D03*
X49000Y-15750D03*
X49000Y-14750D03*
X50000Y-15750D03*
X50000Y-14750D03*
X51000Y-15750D03*
X51000Y-14750D03*
M02*
