M48
;DRILL file {Pcbnew (2013-may-18)-stable} date Tue 21 Oct 2014 06:53:31 PM CEST
;FORMAT={3:3/ absolute / metric / suppress leading zeros}
FMAT,2
METRIC,TZ
T1C0.200
T2C0.813
T3C0.899
T4C1.600
T5C2.500
T6C2.540
T7C3.000
%
G90
G05
M71
T1
X101600Y-53340
X105410Y-41910
X107315Y-41910
X108585Y-62865
X111760Y-53340
X115570Y-86360
X116840Y-85090
X117475Y-54610
X121285Y-54610
X121285Y-73025
X122555Y-43180
X122555Y-71755
X123190Y-67945
X123825Y-76835
X125095Y-54610
X125730Y-73025
X127000Y-67945
X128270Y-65405
X128905Y-54610
X130175Y-79375
X130810Y-43815
X131445Y-71755
X132080Y-64770
X132080Y-86360
X132715Y-54610
X133350Y-85090
X135255Y-64770
X136525Y-54610
X137160Y-79375
X138430Y-36195
X138430Y-43815
X138430Y-66675
X140335Y-54610
X144145Y-54610
T2
X119380Y-37465
X119380Y-40005
X121920Y-37465
X121920Y-40005
X124460Y-37465
X124460Y-40005
X127000Y-37465
X127000Y-40005
X129540Y-37465
X129540Y-40005
T3
X109855Y-76200
X111125Y-73660
X112395Y-76200
X113665Y-73660
X114935Y-76200
X116205Y-73660
X117475Y-76200
X118745Y-73660
X130175Y-76200
X131445Y-73660
X132715Y-76200
X133985Y-73660
X135255Y-76200
X136525Y-73660
X137795Y-76200
X139065Y-73660
T4
X106555Y-79500
X122047Y-79500
X126875Y-79500
X142367Y-79500
T5
X101981Y-36576
X101981Y-86614
X146939Y-36576
X146939Y-86614
T6
X113538Y-38227
X135382Y-38227
T7
X108585Y-82550
X120015Y-82550
X128905Y-82550
X140335Y-82550
T0
M30
