M48
;DRILL file {Pcbnew (2013-may-18)-stable} date Thu 01 May 2014 09:08:00 PM CEST
;FORMAT={-:-/ absolute / metric / decimal}
FMAT,2
METRIC,TZ
T1C0.200
T2C0.500
T3C0.813
T4C0.899
T5C1.600
T6C2.500
T7C2.540
T8C3.000
%
G90
G05
M71
T1
X101.6Y-53.34
X105.41Y-41.91
X107.315Y-41.91
X111.76Y-53.34
X116.205Y-54.61
X116.205Y-64.135
X120.015Y-54.61
X123.19Y-43.815
X123.825Y-54.61
X124.46Y-69.85
X124.46Y-71.12
X125.73Y-72.39
X127.Y-71.12
X127.635Y-54.61
X128.27Y-72.39
X128.27Y-76.2
X130.81Y-43.815
X131.445Y-54.61
X132.08Y-64.77
X135.255Y-54.61
X135.255Y-64.77
X138.43Y-36.195
X138.43Y-43.815
X139.065Y-54.61
X142.875Y-54.61
T2
X132.08Y-69.85
T3
X119.38Y-37.465
X119.38Y-40.005
X121.92Y-37.465
X121.92Y-40.005
X124.46Y-37.465
X124.46Y-40.005
X127.Y-37.465
X127.Y-40.005
X129.54Y-37.465
X129.54Y-40.005
T4
X109.855Y-76.2
X111.125Y-73.66
X112.395Y-76.2
X113.665Y-73.66
X114.935Y-76.2
X116.205Y-73.66
X117.475Y-76.2
X118.745Y-73.66
X130.175Y-76.2
X131.445Y-73.66
X132.715Y-76.2
X133.985Y-73.66
X135.255Y-76.2
X136.525Y-73.66
X137.795Y-76.2
X139.065Y-73.66
T5
X106.555Y-79.5
X122.047Y-79.5
X126.875Y-79.5
X142.367Y-79.5
T6
X101.981Y-36.576
X101.981Y-86.614
X146.939Y-36.576
X146.939Y-86.614
T7
X113.538Y-38.227
X135.382Y-38.227
T8
X108.585Y-82.55
X120.015Y-82.55
X128.905Y-82.55
X140.335Y-82.55
T0
M30
