G04 (created by PCBNEW (2013-may-18)-stable) date Sun 16 Feb 2014 09:25:13 PM CET*
%MOIN*%
G04 Gerber Fmt 3.4, Leading zero omitted, Abs format*
%FSLAX34Y34*%
G01*
G70*
G90*
G04 APERTURE LIST*
%ADD10C,0.00590551*%
%ADD11C,0.137795*%
%ADD12C,0.12*%
%ADD13R,0.06X0.06*%
%ADD14C,0.06*%
%ADD15C,0.1437*%
%ADD16R,0.0591X0.0591*%
%ADD17C,0.0591*%
%ADD18C,0.0984252*%
%ADD19C,0.023622*%
%ADD20C,0.0354331*%
%ADD21C,0.019685*%
%ADD22C,0.0393701*%
%ADD23C,0.0067*%
G04 APERTURE END LIST*
G54D10*
G54D11*
X40150Y-14400D03*
X40150Y-34100D03*
X57850Y-34100D03*
X57850Y-14400D03*
G54D12*
X53300Y-15050D03*
X44700Y-15050D03*
G54D13*
X47000Y-15750D03*
G54D14*
X47000Y-14750D03*
X48000Y-15750D03*
X48000Y-14750D03*
X49000Y-15750D03*
X49000Y-14750D03*
X50000Y-15750D03*
X50000Y-14750D03*
X51000Y-15750D03*
X51000Y-14750D03*
G54D15*
X47250Y-32500D03*
X42750Y-32500D03*
G54D16*
X43250Y-30000D03*
G54D17*
X43750Y-29000D03*
X44250Y-30000D03*
X44750Y-29000D03*
X45250Y-30000D03*
X45750Y-29000D03*
X46250Y-30000D03*
X46750Y-29000D03*
G54D18*
X41950Y-31299D03*
X48050Y-31299D03*
G54D15*
X55250Y-32500D03*
X50750Y-32500D03*
G54D16*
X51250Y-30000D03*
G54D17*
X51750Y-29000D03*
X52250Y-30000D03*
X52750Y-29000D03*
X53250Y-30000D03*
X53750Y-29000D03*
X54250Y-30000D03*
X54750Y-29000D03*
G54D18*
X49950Y-31299D03*
X56050Y-31299D03*
G54D19*
X41500Y-16500D03*
X40000Y-21000D03*
X45750Y-25250D03*
X53250Y-21500D03*
X56250Y-21500D03*
X54750Y-21500D03*
X51750Y-21500D03*
X50250Y-21500D03*
X48750Y-21500D03*
X47250Y-21500D03*
X45750Y-21500D03*
X42250Y-16500D03*
X44000Y-21000D03*
X49000Y-28000D03*
X50000Y-28000D03*
X49000Y-27500D03*
G54D20*
X52000Y-27500D03*
G54D19*
X50500Y-30000D03*
X50500Y-28500D03*
X52000Y-25500D03*
X53250Y-25500D03*
X49500Y-28500D03*
X54500Y-14250D03*
X54500Y-17250D03*
X51500Y-17250D03*
X48500Y-17250D03*
G54D21*
X40500Y-16500D02*
X41500Y-16500D01*
X40000Y-17000D02*
X40500Y-16500D01*
X40000Y-17000D02*
X40000Y-21000D01*
G54D22*
X45750Y-27000D02*
X52250Y-27000D01*
X52750Y-29000D02*
X52750Y-27500D01*
X52750Y-27500D02*
X52250Y-27000D01*
X45750Y-27000D02*
X45750Y-27000D01*
X45750Y-27000D02*
X45750Y-26250D01*
X44750Y-28000D02*
X45750Y-27000D01*
X44750Y-28000D02*
X44750Y-28000D01*
X44750Y-28000D02*
X44750Y-29000D01*
X45750Y-26250D02*
X45750Y-25250D01*
X45750Y-25250D02*
X45750Y-25000D01*
X45750Y-25000D02*
X45750Y-21500D01*
X51750Y-29000D02*
X52750Y-29000D01*
X43750Y-29000D02*
X44750Y-29000D01*
X54750Y-21500D02*
X56250Y-21500D01*
X54750Y-21500D02*
X53250Y-21500D01*
X53250Y-21500D02*
X51750Y-21500D01*
X51750Y-21500D02*
X50250Y-21500D01*
X50250Y-21500D02*
X48750Y-21500D01*
X48750Y-21500D02*
X47250Y-21500D01*
X47250Y-21500D02*
X45750Y-21500D01*
G54D21*
X42250Y-16500D02*
X42750Y-17000D01*
X42750Y-17000D02*
X43750Y-17000D01*
X43750Y-17000D02*
X44000Y-17250D01*
X44000Y-17250D02*
X44000Y-21000D01*
X49000Y-28000D02*
X50000Y-28000D01*
X51000Y-28250D02*
X51000Y-29250D01*
X50000Y-28000D02*
X50750Y-28000D01*
X50750Y-28000D02*
X51000Y-28250D01*
X51250Y-29500D02*
X51250Y-30000D01*
X51000Y-29250D02*
X51250Y-29500D01*
X49000Y-27500D02*
X52000Y-27500D01*
X50500Y-30000D02*
X50500Y-30000D01*
X50500Y-28500D02*
X50500Y-30000D01*
X52000Y-25500D02*
X52750Y-25500D01*
X52750Y-25500D02*
X53250Y-25500D01*
X50500Y-30750D02*
X51000Y-30750D01*
X51000Y-30750D02*
X54000Y-30750D01*
X54000Y-30750D02*
X54250Y-30500D01*
X54250Y-30000D02*
X54250Y-30500D01*
X49750Y-30000D02*
X50500Y-30750D01*
X49750Y-30000D02*
X49500Y-30000D01*
X49500Y-30000D02*
X49500Y-29500D01*
X49500Y-29500D02*
X49500Y-30000D01*
X49500Y-30000D02*
X47250Y-30000D01*
X47250Y-30000D02*
X46250Y-30000D01*
X49500Y-28500D02*
X49500Y-29500D01*
X54500Y-14250D02*
X54500Y-17250D01*
X51500Y-14000D02*
X50250Y-14000D01*
X51750Y-14250D02*
X51500Y-14000D01*
X51750Y-16500D02*
X51750Y-16250D01*
X51500Y-16750D02*
X51750Y-16500D01*
X51500Y-17250D02*
X51500Y-16750D01*
X51750Y-16250D02*
X51750Y-14250D01*
X50000Y-14250D02*
X50000Y-14750D01*
X50250Y-14000D02*
X50000Y-14250D01*
X46750Y-17000D02*
X48250Y-17000D01*
X48750Y-14000D02*
X49000Y-14250D01*
X49000Y-14750D02*
X49000Y-14250D01*
X46250Y-16250D02*
X46250Y-14250D01*
X46750Y-17000D02*
X46250Y-16500D01*
X46250Y-16500D02*
X46250Y-16250D01*
X46250Y-14250D02*
X46500Y-14000D01*
X46500Y-14000D02*
X48750Y-14000D01*
X48500Y-17250D02*
X48500Y-17250D01*
X48250Y-17000D02*
X48500Y-17250D01*
G54D10*
G36*
X58629Y-33833D02*
X58547Y-33634D01*
X58316Y-33403D01*
X58014Y-33277D01*
X57687Y-33277D01*
X57384Y-33402D01*
X57153Y-33633D01*
X57027Y-33935D01*
X57027Y-34262D01*
X57152Y-34565D01*
X57383Y-34796D01*
X57583Y-34879D01*
X56675Y-34879D01*
X56675Y-31175D01*
X56580Y-30945D01*
X56580Y-30944D01*
X56580Y-21500D01*
X56555Y-21373D01*
X56483Y-21266D01*
X56376Y-21194D01*
X56250Y-21169D01*
X54751Y-21169D01*
X54751Y-17200D01*
X54731Y-17152D01*
X54731Y-14347D01*
X54751Y-14300D01*
X54751Y-14200D01*
X54713Y-14107D01*
X54642Y-14036D01*
X54550Y-13998D01*
X54450Y-13998D01*
X54357Y-14036D01*
X54286Y-14107D01*
X54248Y-14199D01*
X54248Y-14299D01*
X54268Y-14347D01*
X54268Y-17152D01*
X54248Y-17199D01*
X54248Y-17299D01*
X54286Y-17392D01*
X54357Y-17463D01*
X54449Y-17501D01*
X54549Y-17501D01*
X54642Y-17463D01*
X54713Y-17392D01*
X54751Y-17300D01*
X54751Y-17200D01*
X54751Y-21169D01*
X54750Y-21169D01*
X54033Y-21169D01*
X54033Y-14904D01*
X53922Y-14635D01*
X53716Y-14428D01*
X53446Y-14316D01*
X53154Y-14316D01*
X52885Y-14427D01*
X52678Y-14633D01*
X52566Y-14903D01*
X52566Y-15195D01*
X52677Y-15464D01*
X52883Y-15671D01*
X53153Y-15783D01*
X53445Y-15783D01*
X53714Y-15672D01*
X53921Y-15466D01*
X54033Y-15196D01*
X54033Y-14904D01*
X54033Y-21169D01*
X53250Y-21169D01*
X51981Y-21169D01*
X51981Y-16500D01*
X51981Y-16250D01*
X51981Y-14250D01*
X51964Y-14161D01*
X51913Y-14086D01*
X51913Y-14086D01*
X51663Y-13836D01*
X51588Y-13785D01*
X51500Y-13768D01*
X51499Y-13768D01*
X50250Y-13768D01*
X50161Y-13785D01*
X50086Y-13836D01*
X50086Y-13836D01*
X49836Y-14086D01*
X49785Y-14161D01*
X49768Y-14250D01*
X49768Y-14250D01*
X49768Y-14376D01*
X49754Y-14382D01*
X49632Y-14504D01*
X49566Y-14663D01*
X49566Y-14835D01*
X49632Y-14995D01*
X49754Y-15117D01*
X49913Y-15183D01*
X50085Y-15183D01*
X50245Y-15117D01*
X50367Y-14995D01*
X50433Y-14836D01*
X50433Y-14664D01*
X50367Y-14504D01*
X50245Y-14382D01*
X50231Y-14376D01*
X50231Y-14346D01*
X50346Y-14231D01*
X51403Y-14231D01*
X51518Y-14346D01*
X51518Y-16250D01*
X51518Y-16403D01*
X51433Y-16488D01*
X51433Y-15664D01*
X51433Y-14664D01*
X51367Y-14504D01*
X51245Y-14382D01*
X51086Y-14316D01*
X50914Y-14316D01*
X50754Y-14382D01*
X50632Y-14504D01*
X50566Y-14663D01*
X50566Y-14835D01*
X50632Y-14995D01*
X50754Y-15117D01*
X50913Y-15183D01*
X51085Y-15183D01*
X51245Y-15117D01*
X51367Y-14995D01*
X51433Y-14836D01*
X51433Y-14664D01*
X51433Y-15664D01*
X51367Y-15504D01*
X51245Y-15382D01*
X51086Y-15316D01*
X50914Y-15316D01*
X50754Y-15382D01*
X50632Y-15504D01*
X50566Y-15663D01*
X50566Y-15835D01*
X50632Y-15995D01*
X50754Y-16117D01*
X50913Y-16183D01*
X51085Y-16183D01*
X51245Y-16117D01*
X51367Y-15995D01*
X51433Y-15836D01*
X51433Y-15664D01*
X51433Y-16488D01*
X51336Y-16586D01*
X51285Y-16661D01*
X51268Y-16750D01*
X51268Y-16750D01*
X51268Y-17152D01*
X51248Y-17199D01*
X51248Y-17299D01*
X51286Y-17392D01*
X51357Y-17463D01*
X51449Y-17501D01*
X51549Y-17501D01*
X51642Y-17463D01*
X51713Y-17392D01*
X51751Y-17300D01*
X51751Y-17200D01*
X51731Y-17152D01*
X51731Y-16846D01*
X51913Y-16663D01*
X51913Y-16663D01*
X51913Y-16663D01*
X51964Y-16588D01*
X51981Y-16500D01*
X51981Y-21169D01*
X51750Y-21169D01*
X50433Y-21169D01*
X50433Y-15664D01*
X50367Y-15504D01*
X50245Y-15382D01*
X50086Y-15316D01*
X49914Y-15316D01*
X49754Y-15382D01*
X49632Y-15504D01*
X49566Y-15663D01*
X49566Y-15835D01*
X49632Y-15995D01*
X49754Y-16117D01*
X49913Y-16183D01*
X50085Y-16183D01*
X50245Y-16117D01*
X50367Y-15995D01*
X50433Y-15836D01*
X50433Y-15664D01*
X50433Y-21169D01*
X50250Y-21169D01*
X49433Y-21169D01*
X49433Y-15664D01*
X49433Y-14664D01*
X49367Y-14504D01*
X49245Y-14382D01*
X49231Y-14376D01*
X49231Y-14250D01*
X49214Y-14161D01*
X49163Y-14086D01*
X49163Y-14086D01*
X48913Y-13836D01*
X48838Y-13785D01*
X48750Y-13768D01*
X48749Y-13768D01*
X46500Y-13768D01*
X46411Y-13785D01*
X46336Y-13836D01*
X46336Y-13836D01*
X46086Y-14086D01*
X46035Y-14161D01*
X46018Y-14250D01*
X46018Y-14250D01*
X46018Y-16250D01*
X46018Y-16499D01*
X46018Y-16500D01*
X46035Y-16588D01*
X46086Y-16663D01*
X46586Y-17163D01*
X46586Y-17163D01*
X46661Y-17214D01*
X46750Y-17231D01*
X46750Y-17231D01*
X46750Y-17231D01*
X48153Y-17231D01*
X48267Y-17345D01*
X48286Y-17392D01*
X48357Y-17463D01*
X48449Y-17501D01*
X48549Y-17501D01*
X48642Y-17463D01*
X48713Y-17392D01*
X48751Y-17300D01*
X48751Y-17200D01*
X48713Y-17107D01*
X48642Y-17036D01*
X48594Y-17017D01*
X48433Y-16855D01*
X48433Y-15664D01*
X48433Y-14664D01*
X48367Y-14504D01*
X48245Y-14382D01*
X48086Y-14316D01*
X47914Y-14316D01*
X47754Y-14382D01*
X47632Y-14504D01*
X47566Y-14663D01*
X47566Y-14835D01*
X47632Y-14995D01*
X47754Y-15117D01*
X47913Y-15183D01*
X48085Y-15183D01*
X48245Y-15117D01*
X48367Y-14995D01*
X48433Y-14836D01*
X48433Y-14664D01*
X48433Y-15664D01*
X48367Y-15504D01*
X48245Y-15382D01*
X48086Y-15316D01*
X47914Y-15316D01*
X47754Y-15382D01*
X47632Y-15504D01*
X47566Y-15663D01*
X47566Y-15835D01*
X47632Y-15995D01*
X47754Y-16117D01*
X47913Y-16183D01*
X48085Y-16183D01*
X48245Y-16117D01*
X48367Y-15995D01*
X48433Y-15836D01*
X48433Y-15664D01*
X48433Y-16855D01*
X48413Y-16836D01*
X48338Y-16785D01*
X48250Y-16768D01*
X48249Y-16768D01*
X47404Y-16768D01*
X47404Y-14692D01*
X47395Y-14648D01*
X47355Y-14606D01*
X47212Y-14750D01*
X47355Y-14893D01*
X47395Y-14851D01*
X47404Y-14692D01*
X47404Y-16768D01*
X47400Y-16768D01*
X47400Y-16030D01*
X47400Y-15469D01*
X47400Y-15429D01*
X47385Y-15392D01*
X47356Y-15364D01*
X47319Y-15349D01*
X47175Y-15349D01*
X47150Y-15374D01*
X47150Y-15600D01*
X47375Y-15600D01*
X47400Y-15574D01*
X47400Y-15469D01*
X47400Y-16030D01*
X47400Y-15925D01*
X47375Y-15900D01*
X47150Y-15900D01*
X47150Y-16125D01*
X47175Y-16150D01*
X47319Y-16150D01*
X47356Y-16135D01*
X47385Y-16107D01*
X47400Y-16070D01*
X47400Y-16030D01*
X47400Y-16768D01*
X47143Y-16768D01*
X47143Y-15105D01*
X47143Y-14394D01*
X47101Y-14354D01*
X46942Y-14345D01*
X46898Y-14354D01*
X46856Y-14394D01*
X47000Y-14537D01*
X47143Y-14394D01*
X47143Y-15105D01*
X47000Y-14962D01*
X46856Y-15105D01*
X46898Y-15145D01*
X47057Y-15154D01*
X47101Y-15145D01*
X47143Y-15105D01*
X47143Y-16768D01*
X46850Y-16768D01*
X46850Y-16125D01*
X46850Y-15900D01*
X46850Y-15600D01*
X46850Y-15374D01*
X46824Y-15349D01*
X46787Y-15349D01*
X46787Y-14750D01*
X46644Y-14606D01*
X46604Y-14648D01*
X46595Y-14807D01*
X46604Y-14851D01*
X46644Y-14893D01*
X46787Y-14750D01*
X46787Y-15349D01*
X46680Y-15349D01*
X46643Y-15364D01*
X46614Y-15392D01*
X46599Y-15429D01*
X46599Y-15469D01*
X46599Y-15574D01*
X46624Y-15600D01*
X46850Y-15600D01*
X46850Y-15900D01*
X46624Y-15900D01*
X46599Y-15925D01*
X46599Y-16030D01*
X46599Y-16070D01*
X46614Y-16107D01*
X46643Y-16135D01*
X46680Y-16150D01*
X46824Y-16150D01*
X46850Y-16125D01*
X46850Y-16768D01*
X46846Y-16768D01*
X46481Y-16403D01*
X46481Y-16250D01*
X46481Y-14346D01*
X46596Y-14231D01*
X48653Y-14231D01*
X48768Y-14346D01*
X48768Y-14376D01*
X48754Y-14382D01*
X48632Y-14504D01*
X48566Y-14663D01*
X48566Y-14835D01*
X48632Y-14995D01*
X48754Y-15117D01*
X48913Y-15183D01*
X49085Y-15183D01*
X49245Y-15117D01*
X49367Y-14995D01*
X49433Y-14836D01*
X49433Y-14664D01*
X49433Y-15664D01*
X49367Y-15504D01*
X49245Y-15382D01*
X49086Y-15316D01*
X48914Y-15316D01*
X48754Y-15382D01*
X48632Y-15504D01*
X48566Y-15663D01*
X48566Y-15835D01*
X48632Y-15995D01*
X48754Y-16117D01*
X48913Y-16183D01*
X49085Y-16183D01*
X49245Y-16117D01*
X49367Y-15995D01*
X49433Y-15836D01*
X49433Y-15664D01*
X49433Y-21169D01*
X48750Y-21169D01*
X47250Y-21169D01*
X45750Y-21169D01*
X45623Y-21194D01*
X45516Y-21266D01*
X45444Y-21373D01*
X45433Y-21429D01*
X45433Y-14904D01*
X45322Y-14635D01*
X45116Y-14428D01*
X44846Y-14316D01*
X44554Y-14316D01*
X44285Y-14427D01*
X44078Y-14633D01*
X43966Y-14903D01*
X43966Y-15195D01*
X44077Y-15464D01*
X44283Y-15671D01*
X44553Y-15783D01*
X44845Y-15783D01*
X45114Y-15672D01*
X45321Y-15466D01*
X45433Y-15196D01*
X45433Y-14904D01*
X45433Y-21429D01*
X45419Y-21500D01*
X45419Y-25000D01*
X45419Y-25250D01*
X45419Y-26250D01*
X45419Y-26863D01*
X44516Y-27766D01*
X44444Y-27873D01*
X44419Y-28000D01*
X44419Y-28669D01*
X44251Y-28669D01*
X44251Y-20950D01*
X44231Y-20902D01*
X44231Y-17250D01*
X44214Y-17161D01*
X44163Y-17086D01*
X44163Y-17086D01*
X43913Y-16836D01*
X43838Y-16785D01*
X43750Y-16768D01*
X43749Y-16768D01*
X42846Y-16768D01*
X42482Y-16404D01*
X42463Y-16357D01*
X42392Y-16286D01*
X42300Y-16248D01*
X42200Y-16248D01*
X42107Y-16286D01*
X42036Y-16357D01*
X41998Y-16449D01*
X41998Y-16549D01*
X42036Y-16642D01*
X42107Y-16713D01*
X42155Y-16732D01*
X42586Y-17163D01*
X42586Y-17163D01*
X42661Y-17214D01*
X42750Y-17231D01*
X42750Y-17231D01*
X42750Y-17231D01*
X43653Y-17231D01*
X43768Y-17346D01*
X43768Y-20902D01*
X43748Y-20949D01*
X43748Y-21049D01*
X43786Y-21142D01*
X43857Y-21213D01*
X43949Y-21251D01*
X44049Y-21251D01*
X44142Y-21213D01*
X44213Y-21142D01*
X44251Y-21050D01*
X44251Y-20950D01*
X44251Y-28669D01*
X44026Y-28669D01*
X43993Y-28636D01*
X43835Y-28571D01*
X43665Y-28570D01*
X43507Y-28636D01*
X43386Y-28756D01*
X43321Y-28914D01*
X43320Y-29084D01*
X43386Y-29242D01*
X43506Y-29363D01*
X43664Y-29428D01*
X43834Y-29429D01*
X43992Y-29363D01*
X44026Y-29330D01*
X44473Y-29330D01*
X44506Y-29363D01*
X44664Y-29428D01*
X44834Y-29429D01*
X44992Y-29363D01*
X45113Y-29243D01*
X45178Y-29085D01*
X45179Y-28915D01*
X45113Y-28757D01*
X45080Y-28723D01*
X45080Y-28136D01*
X45886Y-27330D01*
X48813Y-27330D01*
X48786Y-27357D01*
X48748Y-27449D01*
X48748Y-27549D01*
X48786Y-27642D01*
X48857Y-27713D01*
X48946Y-27750D01*
X48857Y-27786D01*
X48786Y-27857D01*
X48748Y-27949D01*
X48748Y-28049D01*
X48786Y-28142D01*
X48857Y-28213D01*
X48949Y-28251D01*
X49049Y-28251D01*
X49097Y-28231D01*
X49902Y-28231D01*
X49949Y-28251D01*
X50049Y-28251D01*
X50097Y-28231D01*
X50653Y-28231D01*
X50768Y-28346D01*
X50768Y-29249D01*
X50768Y-29250D01*
X50785Y-29338D01*
X50836Y-29413D01*
X50992Y-29570D01*
X50928Y-29570D01*
X50878Y-29591D01*
X50841Y-29628D01*
X50821Y-29677D01*
X50820Y-29730D01*
X50820Y-30321D01*
X50841Y-30371D01*
X50878Y-30408D01*
X50927Y-30428D01*
X50980Y-30429D01*
X51571Y-30429D01*
X51621Y-30408D01*
X51658Y-30371D01*
X51678Y-30322D01*
X51679Y-30269D01*
X51679Y-29678D01*
X51658Y-29628D01*
X51621Y-29591D01*
X51572Y-29571D01*
X51519Y-29570D01*
X51481Y-29570D01*
X51481Y-29500D01*
X51464Y-29411D01*
X51413Y-29336D01*
X51413Y-29336D01*
X51231Y-29153D01*
X51231Y-28250D01*
X51214Y-28161D01*
X51163Y-28086D01*
X51163Y-28086D01*
X50913Y-27836D01*
X50838Y-27785D01*
X50750Y-27768D01*
X50749Y-27768D01*
X50097Y-27768D01*
X50050Y-27748D01*
X49950Y-27748D01*
X49902Y-27768D01*
X49097Y-27768D01*
X49053Y-27749D01*
X49097Y-27731D01*
X51792Y-27731D01*
X51823Y-27763D01*
X51937Y-27810D01*
X52061Y-27810D01*
X52175Y-27763D01*
X52263Y-27676D01*
X52310Y-27562D01*
X52310Y-27527D01*
X52419Y-27636D01*
X52419Y-28669D01*
X52026Y-28669D01*
X51993Y-28636D01*
X51835Y-28571D01*
X51665Y-28570D01*
X51507Y-28636D01*
X51386Y-28756D01*
X51321Y-28914D01*
X51320Y-29084D01*
X51386Y-29242D01*
X51506Y-29363D01*
X51664Y-29428D01*
X51834Y-29429D01*
X51992Y-29363D01*
X52026Y-29330D01*
X52473Y-29330D01*
X52506Y-29363D01*
X52664Y-29428D01*
X52834Y-29429D01*
X52992Y-29363D01*
X53113Y-29243D01*
X53178Y-29085D01*
X53179Y-28915D01*
X53113Y-28757D01*
X53080Y-28723D01*
X53080Y-27500D01*
X53055Y-27373D01*
X52983Y-27266D01*
X52483Y-26766D01*
X52376Y-26694D01*
X52250Y-26669D01*
X46080Y-26669D01*
X46080Y-26250D01*
X46080Y-25250D01*
X46080Y-25000D01*
X46080Y-21830D01*
X47250Y-21830D01*
X48750Y-21830D01*
X50250Y-21830D01*
X51750Y-21830D01*
X53250Y-21830D01*
X54750Y-21830D01*
X56250Y-21830D01*
X56376Y-21805D01*
X56483Y-21733D01*
X56555Y-21626D01*
X56580Y-21500D01*
X56580Y-30944D01*
X56404Y-30769D01*
X56174Y-30673D01*
X55926Y-30673D01*
X55696Y-30768D01*
X55519Y-30944D01*
X55424Y-31174D01*
X55424Y-31423D01*
X55519Y-31653D01*
X55580Y-31714D01*
X55420Y-31648D01*
X55149Y-31647D01*
X55149Y-28944D01*
X55140Y-28898D01*
X55100Y-28857D01*
X54958Y-29000D01*
X55100Y-29142D01*
X55140Y-29101D01*
X55149Y-28944D01*
X55149Y-31647D01*
X55081Y-31647D01*
X54892Y-31726D01*
X54892Y-29350D01*
X54892Y-28649D01*
X54851Y-28609D01*
X54694Y-28600D01*
X54648Y-28609D01*
X54607Y-28649D01*
X54750Y-28791D01*
X54892Y-28649D01*
X54892Y-29350D01*
X54750Y-29208D01*
X54607Y-29350D01*
X54648Y-29390D01*
X54805Y-29399D01*
X54851Y-29390D01*
X54892Y-29350D01*
X54892Y-31726D01*
X54768Y-31777D01*
X54679Y-31866D01*
X54679Y-29915D01*
X54613Y-29757D01*
X54541Y-29684D01*
X54541Y-29000D01*
X54399Y-28857D01*
X54359Y-28898D01*
X54350Y-29055D01*
X54359Y-29101D01*
X54399Y-29142D01*
X54541Y-29000D01*
X54541Y-29684D01*
X54493Y-29636D01*
X54335Y-29571D01*
X54165Y-29570D01*
X54149Y-29577D01*
X54149Y-28944D01*
X54140Y-28898D01*
X54100Y-28857D01*
X53958Y-29000D01*
X54100Y-29142D01*
X54140Y-29101D01*
X54149Y-28944D01*
X54149Y-29577D01*
X54007Y-29636D01*
X53892Y-29751D01*
X53892Y-29350D01*
X53892Y-28649D01*
X53851Y-28609D01*
X53694Y-28600D01*
X53648Y-28609D01*
X53607Y-28649D01*
X53750Y-28791D01*
X53892Y-28649D01*
X53892Y-29350D01*
X53750Y-29208D01*
X53607Y-29350D01*
X53648Y-29390D01*
X53805Y-29399D01*
X53851Y-29390D01*
X53892Y-29350D01*
X53892Y-29751D01*
X53886Y-29756D01*
X53821Y-29914D01*
X53820Y-30084D01*
X53886Y-30242D01*
X54006Y-30363D01*
X54018Y-30368D01*
X54018Y-30403D01*
X53903Y-30518D01*
X53679Y-30518D01*
X53679Y-29915D01*
X53613Y-29757D01*
X53541Y-29684D01*
X53541Y-29000D01*
X53501Y-28960D01*
X53501Y-25450D01*
X53463Y-25357D01*
X53392Y-25286D01*
X53300Y-25248D01*
X53200Y-25248D01*
X53152Y-25268D01*
X52750Y-25268D01*
X52097Y-25268D01*
X52050Y-25248D01*
X51950Y-25248D01*
X51857Y-25286D01*
X51786Y-25357D01*
X51748Y-25449D01*
X51748Y-25549D01*
X51786Y-25642D01*
X51857Y-25713D01*
X51949Y-25751D01*
X52049Y-25751D01*
X52097Y-25731D01*
X52750Y-25731D01*
X53152Y-25731D01*
X53199Y-25751D01*
X53299Y-25751D01*
X53392Y-25713D01*
X53463Y-25642D01*
X53501Y-25550D01*
X53501Y-25450D01*
X53501Y-28960D01*
X53399Y-28857D01*
X53359Y-28898D01*
X53350Y-29055D01*
X53359Y-29101D01*
X53399Y-29142D01*
X53541Y-29000D01*
X53541Y-29684D01*
X53493Y-29636D01*
X53335Y-29571D01*
X53165Y-29570D01*
X53007Y-29636D01*
X52886Y-29756D01*
X52821Y-29914D01*
X52820Y-30084D01*
X52886Y-30242D01*
X53006Y-30363D01*
X53164Y-30428D01*
X53334Y-30429D01*
X53492Y-30363D01*
X53613Y-30243D01*
X53678Y-30085D01*
X53679Y-29915D01*
X53679Y-30518D01*
X52679Y-30518D01*
X52679Y-29915D01*
X52613Y-29757D01*
X52493Y-29636D01*
X52335Y-29571D01*
X52165Y-29570D01*
X52007Y-29636D01*
X51886Y-29756D01*
X51821Y-29914D01*
X51820Y-30084D01*
X51886Y-30242D01*
X52006Y-30363D01*
X52164Y-30428D01*
X52334Y-30429D01*
X52492Y-30363D01*
X52613Y-30243D01*
X52678Y-30085D01*
X52679Y-29915D01*
X52679Y-30518D01*
X51000Y-30518D01*
X50751Y-30518D01*
X50751Y-29950D01*
X50731Y-29902D01*
X50731Y-28597D01*
X50751Y-28550D01*
X50751Y-28450D01*
X50713Y-28357D01*
X50642Y-28286D01*
X50550Y-28248D01*
X50450Y-28248D01*
X50357Y-28286D01*
X50286Y-28357D01*
X50248Y-28449D01*
X50248Y-28549D01*
X50268Y-28597D01*
X50268Y-29902D01*
X50248Y-29949D01*
X50248Y-30049D01*
X50286Y-30142D01*
X50357Y-30213D01*
X50449Y-30251D01*
X50549Y-30251D01*
X50642Y-30213D01*
X50713Y-30142D01*
X50751Y-30050D01*
X50751Y-29950D01*
X50751Y-30518D01*
X50596Y-30518D01*
X49913Y-29836D01*
X49838Y-29785D01*
X49750Y-29768D01*
X49749Y-29768D01*
X49731Y-29768D01*
X49731Y-29500D01*
X49731Y-28597D01*
X49751Y-28550D01*
X49751Y-28450D01*
X49713Y-28357D01*
X49642Y-28286D01*
X49550Y-28248D01*
X49450Y-28248D01*
X49357Y-28286D01*
X49286Y-28357D01*
X49248Y-28449D01*
X49248Y-28549D01*
X49268Y-28597D01*
X49268Y-29500D01*
X49268Y-29768D01*
X47250Y-29768D01*
X47149Y-29768D01*
X47149Y-28944D01*
X47140Y-28898D01*
X47100Y-28857D01*
X46958Y-29000D01*
X47100Y-29142D01*
X47140Y-29101D01*
X47149Y-28944D01*
X47149Y-29768D01*
X46892Y-29768D01*
X46892Y-29350D01*
X46892Y-28649D01*
X46851Y-28609D01*
X46694Y-28600D01*
X46648Y-28609D01*
X46607Y-28649D01*
X46750Y-28791D01*
X46892Y-28649D01*
X46892Y-29350D01*
X46750Y-29208D01*
X46607Y-29350D01*
X46648Y-29390D01*
X46805Y-29399D01*
X46851Y-29390D01*
X46892Y-29350D01*
X46892Y-29768D01*
X46618Y-29768D01*
X46613Y-29757D01*
X46541Y-29684D01*
X46541Y-29000D01*
X46399Y-28857D01*
X46359Y-28898D01*
X46350Y-29055D01*
X46359Y-29101D01*
X46399Y-29142D01*
X46541Y-29000D01*
X46541Y-29684D01*
X46493Y-29636D01*
X46335Y-29571D01*
X46165Y-29570D01*
X46149Y-29577D01*
X46149Y-28944D01*
X46140Y-28898D01*
X46100Y-28857D01*
X45958Y-29000D01*
X46100Y-29142D01*
X46140Y-29101D01*
X46149Y-28944D01*
X46149Y-29577D01*
X46007Y-29636D01*
X45892Y-29751D01*
X45892Y-29350D01*
X45892Y-28649D01*
X45851Y-28609D01*
X45694Y-28600D01*
X45648Y-28609D01*
X45607Y-28649D01*
X45750Y-28791D01*
X45892Y-28649D01*
X45892Y-29350D01*
X45750Y-29208D01*
X45607Y-29350D01*
X45648Y-29390D01*
X45805Y-29399D01*
X45851Y-29390D01*
X45892Y-29350D01*
X45892Y-29751D01*
X45886Y-29756D01*
X45821Y-29914D01*
X45820Y-30084D01*
X45886Y-30242D01*
X46006Y-30363D01*
X46164Y-30428D01*
X46334Y-30429D01*
X46492Y-30363D01*
X46613Y-30243D01*
X46618Y-30231D01*
X47250Y-30231D01*
X49500Y-30231D01*
X49653Y-30231D01*
X50081Y-30659D01*
X50033Y-30707D01*
X49840Y-30705D01*
X49825Y-30708D01*
X49754Y-30754D01*
X49950Y-30951D01*
X50036Y-30865D01*
X50147Y-30975D01*
X50384Y-31213D01*
X50298Y-31299D01*
X50495Y-31495D01*
X50541Y-31424D01*
X50544Y-31214D01*
X50544Y-31214D01*
X50632Y-31126D01*
X50483Y-30978D01*
X50485Y-30978D01*
X50499Y-30981D01*
X50499Y-30981D01*
X50500Y-30981D01*
X51000Y-30981D01*
X53999Y-30981D01*
X54000Y-30981D01*
X54000Y-30981D01*
X54088Y-30964D01*
X54163Y-30913D01*
X54413Y-30663D01*
X54413Y-30663D01*
X54413Y-30663D01*
X54464Y-30588D01*
X54481Y-30500D01*
X54481Y-30368D01*
X54492Y-30363D01*
X54613Y-30243D01*
X54678Y-30085D01*
X54679Y-29915D01*
X54679Y-31866D01*
X54528Y-32016D01*
X54398Y-32329D01*
X54397Y-32668D01*
X54527Y-32981D01*
X54766Y-33221D01*
X55079Y-33351D01*
X55418Y-33352D01*
X55731Y-33222D01*
X55971Y-32983D01*
X56101Y-32670D01*
X56102Y-32331D01*
X55972Y-32018D01*
X55847Y-31892D01*
X55925Y-31924D01*
X56173Y-31924D01*
X56403Y-31829D01*
X56580Y-31654D01*
X56675Y-31424D01*
X56675Y-31175D01*
X56675Y-34879D01*
X51602Y-34879D01*
X51602Y-32331D01*
X51472Y-32018D01*
X51233Y-31778D01*
X50920Y-31648D01*
X50581Y-31647D01*
X50544Y-31662D01*
X50268Y-31777D01*
X50147Y-31897D01*
X50147Y-31843D01*
X49950Y-31647D01*
X49754Y-31843D01*
X49825Y-31890D01*
X50061Y-31893D01*
X50076Y-31890D01*
X50147Y-31843D01*
X50147Y-31897D01*
X50028Y-32016D01*
X49898Y-32329D01*
X49897Y-32668D01*
X50027Y-32981D01*
X50266Y-33221D01*
X50579Y-33351D01*
X50918Y-33352D01*
X51231Y-33222D01*
X51471Y-32983D01*
X51601Y-32670D01*
X51602Y-32331D01*
X51602Y-34879D01*
X49602Y-34879D01*
X49602Y-31299D01*
X49406Y-31102D01*
X49359Y-31173D01*
X49356Y-31409D01*
X49359Y-31424D01*
X49406Y-31495D01*
X49602Y-31299D01*
X49602Y-34879D01*
X48675Y-34879D01*
X48675Y-31175D01*
X48580Y-30945D01*
X48404Y-30769D01*
X48174Y-30673D01*
X47926Y-30673D01*
X47696Y-30768D01*
X47519Y-30944D01*
X47424Y-31174D01*
X47424Y-31423D01*
X47519Y-31653D01*
X47580Y-31714D01*
X47420Y-31648D01*
X47081Y-31647D01*
X46768Y-31777D01*
X46528Y-32016D01*
X46398Y-32329D01*
X46397Y-32668D01*
X46527Y-32981D01*
X46766Y-33221D01*
X47079Y-33351D01*
X47418Y-33352D01*
X47731Y-33222D01*
X47971Y-32983D01*
X48101Y-32670D01*
X48102Y-32331D01*
X47972Y-32018D01*
X47847Y-31892D01*
X47925Y-31924D01*
X48173Y-31924D01*
X48403Y-31829D01*
X48580Y-31654D01*
X48675Y-31424D01*
X48675Y-31175D01*
X48675Y-34879D01*
X45679Y-34879D01*
X45679Y-29915D01*
X45613Y-29757D01*
X45541Y-29684D01*
X45541Y-29000D01*
X45399Y-28857D01*
X45359Y-28898D01*
X45350Y-29055D01*
X45359Y-29101D01*
X45399Y-29142D01*
X45541Y-29000D01*
X45541Y-29684D01*
X45493Y-29636D01*
X45335Y-29571D01*
X45165Y-29570D01*
X45007Y-29636D01*
X44886Y-29756D01*
X44821Y-29914D01*
X44820Y-30084D01*
X44886Y-30242D01*
X45006Y-30363D01*
X45164Y-30428D01*
X45334Y-30429D01*
X45492Y-30363D01*
X45613Y-30243D01*
X45678Y-30085D01*
X45679Y-29915D01*
X45679Y-34879D01*
X44679Y-34879D01*
X44679Y-29915D01*
X44613Y-29757D01*
X44493Y-29636D01*
X44335Y-29571D01*
X44165Y-29570D01*
X44007Y-29636D01*
X43886Y-29756D01*
X43821Y-29914D01*
X43820Y-30084D01*
X43886Y-30242D01*
X44006Y-30363D01*
X44164Y-30428D01*
X44334Y-30429D01*
X44492Y-30363D01*
X44613Y-30243D01*
X44678Y-30085D01*
X44679Y-29915D01*
X44679Y-34879D01*
X43679Y-34879D01*
X43679Y-30269D01*
X43679Y-29678D01*
X43658Y-29628D01*
X43621Y-29591D01*
X43572Y-29571D01*
X43519Y-29570D01*
X42928Y-29570D01*
X42878Y-29591D01*
X42841Y-29628D01*
X42821Y-29677D01*
X42820Y-29730D01*
X42820Y-30321D01*
X42841Y-30371D01*
X42878Y-30408D01*
X42927Y-30428D01*
X42980Y-30429D01*
X43571Y-30429D01*
X43621Y-30408D01*
X43658Y-30371D01*
X43678Y-30322D01*
X43679Y-30269D01*
X43679Y-34879D01*
X43602Y-34879D01*
X43602Y-32331D01*
X43472Y-32018D01*
X43233Y-31778D01*
X42920Y-31648D01*
X42581Y-31647D01*
X42544Y-31662D01*
X42544Y-31188D01*
X42541Y-31173D01*
X42495Y-31102D01*
X42298Y-31299D01*
X42495Y-31495D01*
X42541Y-31424D01*
X42544Y-31188D01*
X42544Y-31662D01*
X42268Y-31777D01*
X42147Y-31897D01*
X42147Y-31843D01*
X42147Y-30754D01*
X42076Y-30708D01*
X41840Y-30705D01*
X41825Y-30708D01*
X41754Y-30754D01*
X41950Y-30951D01*
X42147Y-30754D01*
X42147Y-31843D01*
X41950Y-31647D01*
X41754Y-31843D01*
X41825Y-31890D01*
X42061Y-31893D01*
X42076Y-31890D01*
X42147Y-31843D01*
X42147Y-31897D01*
X42028Y-32016D01*
X41898Y-32329D01*
X41897Y-32668D01*
X42027Y-32981D01*
X42266Y-33221D01*
X42579Y-33351D01*
X42918Y-33352D01*
X43231Y-33222D01*
X43471Y-32983D01*
X43601Y-32670D01*
X43602Y-32331D01*
X43602Y-34879D01*
X41751Y-34879D01*
X41751Y-16450D01*
X41713Y-16357D01*
X41642Y-16286D01*
X41550Y-16248D01*
X41450Y-16248D01*
X41402Y-16268D01*
X40500Y-16268D01*
X40500Y-16268D01*
X40411Y-16285D01*
X40336Y-16336D01*
X40336Y-16336D01*
X39836Y-16836D01*
X39785Y-16911D01*
X39768Y-17000D01*
X39768Y-17000D01*
X39768Y-20902D01*
X39748Y-20949D01*
X39748Y-21049D01*
X39786Y-21142D01*
X39857Y-21213D01*
X39949Y-21251D01*
X40049Y-21251D01*
X40142Y-21213D01*
X40213Y-21142D01*
X40251Y-21050D01*
X40251Y-20950D01*
X40231Y-20902D01*
X40231Y-17096D01*
X40596Y-16731D01*
X41402Y-16731D01*
X41449Y-16751D01*
X41549Y-16751D01*
X41642Y-16713D01*
X41713Y-16642D01*
X41751Y-16550D01*
X41751Y-16450D01*
X41751Y-34879D01*
X41602Y-34879D01*
X41602Y-31299D01*
X41406Y-31102D01*
X41359Y-31173D01*
X41356Y-31409D01*
X41359Y-31424D01*
X41406Y-31495D01*
X41602Y-31299D01*
X41602Y-34879D01*
X40416Y-34879D01*
X40615Y-34797D01*
X40846Y-34566D01*
X40972Y-34264D01*
X40972Y-33937D01*
X40847Y-33634D01*
X40616Y-33403D01*
X40314Y-33277D01*
X39987Y-33277D01*
X39684Y-33402D01*
X39453Y-33633D01*
X39370Y-33833D01*
X39370Y-14666D01*
X39452Y-14865D01*
X39683Y-15096D01*
X39985Y-15222D01*
X40312Y-15222D01*
X40615Y-15097D01*
X40846Y-14866D01*
X40972Y-14564D01*
X40972Y-14237D01*
X40847Y-13934D01*
X40616Y-13703D01*
X40416Y-13620D01*
X57583Y-13620D01*
X57384Y-13702D01*
X57153Y-13933D01*
X57027Y-14235D01*
X57027Y-14562D01*
X57152Y-14865D01*
X57383Y-15096D01*
X57685Y-15222D01*
X58012Y-15222D01*
X58315Y-15097D01*
X58546Y-14866D01*
X58629Y-14666D01*
X58629Y-33833D01*
X58629Y-33833D01*
G37*
G54D23*
X58629Y-33833D02*
X58547Y-33634D01*
X58316Y-33403D01*
X58014Y-33277D01*
X57687Y-33277D01*
X57384Y-33402D01*
X57153Y-33633D01*
X57027Y-33935D01*
X57027Y-34262D01*
X57152Y-34565D01*
X57383Y-34796D01*
X57583Y-34879D01*
X56675Y-34879D01*
X56675Y-31175D01*
X56580Y-30945D01*
X56580Y-30944D01*
X56580Y-21500D01*
X56555Y-21373D01*
X56483Y-21266D01*
X56376Y-21194D01*
X56250Y-21169D01*
X54751Y-21169D01*
X54751Y-17200D01*
X54731Y-17152D01*
X54731Y-14347D01*
X54751Y-14300D01*
X54751Y-14200D01*
X54713Y-14107D01*
X54642Y-14036D01*
X54550Y-13998D01*
X54450Y-13998D01*
X54357Y-14036D01*
X54286Y-14107D01*
X54248Y-14199D01*
X54248Y-14299D01*
X54268Y-14347D01*
X54268Y-17152D01*
X54248Y-17199D01*
X54248Y-17299D01*
X54286Y-17392D01*
X54357Y-17463D01*
X54449Y-17501D01*
X54549Y-17501D01*
X54642Y-17463D01*
X54713Y-17392D01*
X54751Y-17300D01*
X54751Y-17200D01*
X54751Y-21169D01*
X54750Y-21169D01*
X54033Y-21169D01*
X54033Y-14904D01*
X53922Y-14635D01*
X53716Y-14428D01*
X53446Y-14316D01*
X53154Y-14316D01*
X52885Y-14427D01*
X52678Y-14633D01*
X52566Y-14903D01*
X52566Y-15195D01*
X52677Y-15464D01*
X52883Y-15671D01*
X53153Y-15783D01*
X53445Y-15783D01*
X53714Y-15672D01*
X53921Y-15466D01*
X54033Y-15196D01*
X54033Y-14904D01*
X54033Y-21169D01*
X53250Y-21169D01*
X51981Y-21169D01*
X51981Y-16500D01*
X51981Y-16250D01*
X51981Y-14250D01*
X51964Y-14161D01*
X51913Y-14086D01*
X51913Y-14086D01*
X51663Y-13836D01*
X51588Y-13785D01*
X51500Y-13768D01*
X51499Y-13768D01*
X50250Y-13768D01*
X50161Y-13785D01*
X50086Y-13836D01*
X50086Y-13836D01*
X49836Y-14086D01*
X49785Y-14161D01*
X49768Y-14250D01*
X49768Y-14250D01*
X49768Y-14376D01*
X49754Y-14382D01*
X49632Y-14504D01*
X49566Y-14663D01*
X49566Y-14835D01*
X49632Y-14995D01*
X49754Y-15117D01*
X49913Y-15183D01*
X50085Y-15183D01*
X50245Y-15117D01*
X50367Y-14995D01*
X50433Y-14836D01*
X50433Y-14664D01*
X50367Y-14504D01*
X50245Y-14382D01*
X50231Y-14376D01*
X50231Y-14346D01*
X50346Y-14231D01*
X51403Y-14231D01*
X51518Y-14346D01*
X51518Y-16250D01*
X51518Y-16403D01*
X51433Y-16488D01*
X51433Y-15664D01*
X51433Y-14664D01*
X51367Y-14504D01*
X51245Y-14382D01*
X51086Y-14316D01*
X50914Y-14316D01*
X50754Y-14382D01*
X50632Y-14504D01*
X50566Y-14663D01*
X50566Y-14835D01*
X50632Y-14995D01*
X50754Y-15117D01*
X50913Y-15183D01*
X51085Y-15183D01*
X51245Y-15117D01*
X51367Y-14995D01*
X51433Y-14836D01*
X51433Y-14664D01*
X51433Y-15664D01*
X51367Y-15504D01*
X51245Y-15382D01*
X51086Y-15316D01*
X50914Y-15316D01*
X50754Y-15382D01*
X50632Y-15504D01*
X50566Y-15663D01*
X50566Y-15835D01*
X50632Y-15995D01*
X50754Y-16117D01*
X50913Y-16183D01*
X51085Y-16183D01*
X51245Y-16117D01*
X51367Y-15995D01*
X51433Y-15836D01*
X51433Y-15664D01*
X51433Y-16488D01*
X51336Y-16586D01*
X51285Y-16661D01*
X51268Y-16750D01*
X51268Y-16750D01*
X51268Y-17152D01*
X51248Y-17199D01*
X51248Y-17299D01*
X51286Y-17392D01*
X51357Y-17463D01*
X51449Y-17501D01*
X51549Y-17501D01*
X51642Y-17463D01*
X51713Y-17392D01*
X51751Y-17300D01*
X51751Y-17200D01*
X51731Y-17152D01*
X51731Y-16846D01*
X51913Y-16663D01*
X51913Y-16663D01*
X51913Y-16663D01*
X51964Y-16588D01*
X51981Y-16500D01*
X51981Y-21169D01*
X51750Y-21169D01*
X50433Y-21169D01*
X50433Y-15664D01*
X50367Y-15504D01*
X50245Y-15382D01*
X50086Y-15316D01*
X49914Y-15316D01*
X49754Y-15382D01*
X49632Y-15504D01*
X49566Y-15663D01*
X49566Y-15835D01*
X49632Y-15995D01*
X49754Y-16117D01*
X49913Y-16183D01*
X50085Y-16183D01*
X50245Y-16117D01*
X50367Y-15995D01*
X50433Y-15836D01*
X50433Y-15664D01*
X50433Y-21169D01*
X50250Y-21169D01*
X49433Y-21169D01*
X49433Y-15664D01*
X49433Y-14664D01*
X49367Y-14504D01*
X49245Y-14382D01*
X49231Y-14376D01*
X49231Y-14250D01*
X49214Y-14161D01*
X49163Y-14086D01*
X49163Y-14086D01*
X48913Y-13836D01*
X48838Y-13785D01*
X48750Y-13768D01*
X48749Y-13768D01*
X46500Y-13768D01*
X46411Y-13785D01*
X46336Y-13836D01*
X46336Y-13836D01*
X46086Y-14086D01*
X46035Y-14161D01*
X46018Y-14250D01*
X46018Y-14250D01*
X46018Y-16250D01*
X46018Y-16499D01*
X46018Y-16500D01*
X46035Y-16588D01*
X46086Y-16663D01*
X46586Y-17163D01*
X46586Y-17163D01*
X46661Y-17214D01*
X46750Y-17231D01*
X46750Y-17231D01*
X46750Y-17231D01*
X48153Y-17231D01*
X48267Y-17345D01*
X48286Y-17392D01*
X48357Y-17463D01*
X48449Y-17501D01*
X48549Y-17501D01*
X48642Y-17463D01*
X48713Y-17392D01*
X48751Y-17300D01*
X48751Y-17200D01*
X48713Y-17107D01*
X48642Y-17036D01*
X48594Y-17017D01*
X48433Y-16855D01*
X48433Y-15664D01*
X48433Y-14664D01*
X48367Y-14504D01*
X48245Y-14382D01*
X48086Y-14316D01*
X47914Y-14316D01*
X47754Y-14382D01*
X47632Y-14504D01*
X47566Y-14663D01*
X47566Y-14835D01*
X47632Y-14995D01*
X47754Y-15117D01*
X47913Y-15183D01*
X48085Y-15183D01*
X48245Y-15117D01*
X48367Y-14995D01*
X48433Y-14836D01*
X48433Y-14664D01*
X48433Y-15664D01*
X48367Y-15504D01*
X48245Y-15382D01*
X48086Y-15316D01*
X47914Y-15316D01*
X47754Y-15382D01*
X47632Y-15504D01*
X47566Y-15663D01*
X47566Y-15835D01*
X47632Y-15995D01*
X47754Y-16117D01*
X47913Y-16183D01*
X48085Y-16183D01*
X48245Y-16117D01*
X48367Y-15995D01*
X48433Y-15836D01*
X48433Y-15664D01*
X48433Y-16855D01*
X48413Y-16836D01*
X48338Y-16785D01*
X48250Y-16768D01*
X48249Y-16768D01*
X47404Y-16768D01*
X47404Y-14692D01*
X47395Y-14648D01*
X47355Y-14606D01*
X47212Y-14750D01*
X47355Y-14893D01*
X47395Y-14851D01*
X47404Y-14692D01*
X47404Y-16768D01*
X47400Y-16768D01*
X47400Y-16030D01*
X47400Y-15469D01*
X47400Y-15429D01*
X47385Y-15392D01*
X47356Y-15364D01*
X47319Y-15349D01*
X47175Y-15349D01*
X47150Y-15374D01*
X47150Y-15600D01*
X47375Y-15600D01*
X47400Y-15574D01*
X47400Y-15469D01*
X47400Y-16030D01*
X47400Y-15925D01*
X47375Y-15900D01*
X47150Y-15900D01*
X47150Y-16125D01*
X47175Y-16150D01*
X47319Y-16150D01*
X47356Y-16135D01*
X47385Y-16107D01*
X47400Y-16070D01*
X47400Y-16030D01*
X47400Y-16768D01*
X47143Y-16768D01*
X47143Y-15105D01*
X47143Y-14394D01*
X47101Y-14354D01*
X46942Y-14345D01*
X46898Y-14354D01*
X46856Y-14394D01*
X47000Y-14537D01*
X47143Y-14394D01*
X47143Y-15105D01*
X47000Y-14962D01*
X46856Y-15105D01*
X46898Y-15145D01*
X47057Y-15154D01*
X47101Y-15145D01*
X47143Y-15105D01*
X47143Y-16768D01*
X46850Y-16768D01*
X46850Y-16125D01*
X46850Y-15900D01*
X46850Y-15600D01*
X46850Y-15374D01*
X46824Y-15349D01*
X46787Y-15349D01*
X46787Y-14750D01*
X46644Y-14606D01*
X46604Y-14648D01*
X46595Y-14807D01*
X46604Y-14851D01*
X46644Y-14893D01*
X46787Y-14750D01*
X46787Y-15349D01*
X46680Y-15349D01*
X46643Y-15364D01*
X46614Y-15392D01*
X46599Y-15429D01*
X46599Y-15469D01*
X46599Y-15574D01*
X46624Y-15600D01*
X46850Y-15600D01*
X46850Y-15900D01*
X46624Y-15900D01*
X46599Y-15925D01*
X46599Y-16030D01*
X46599Y-16070D01*
X46614Y-16107D01*
X46643Y-16135D01*
X46680Y-16150D01*
X46824Y-16150D01*
X46850Y-16125D01*
X46850Y-16768D01*
X46846Y-16768D01*
X46481Y-16403D01*
X46481Y-16250D01*
X46481Y-14346D01*
X46596Y-14231D01*
X48653Y-14231D01*
X48768Y-14346D01*
X48768Y-14376D01*
X48754Y-14382D01*
X48632Y-14504D01*
X48566Y-14663D01*
X48566Y-14835D01*
X48632Y-14995D01*
X48754Y-15117D01*
X48913Y-15183D01*
X49085Y-15183D01*
X49245Y-15117D01*
X49367Y-14995D01*
X49433Y-14836D01*
X49433Y-14664D01*
X49433Y-15664D01*
X49367Y-15504D01*
X49245Y-15382D01*
X49086Y-15316D01*
X48914Y-15316D01*
X48754Y-15382D01*
X48632Y-15504D01*
X48566Y-15663D01*
X48566Y-15835D01*
X48632Y-15995D01*
X48754Y-16117D01*
X48913Y-16183D01*
X49085Y-16183D01*
X49245Y-16117D01*
X49367Y-15995D01*
X49433Y-15836D01*
X49433Y-15664D01*
X49433Y-21169D01*
X48750Y-21169D01*
X47250Y-21169D01*
X45750Y-21169D01*
X45623Y-21194D01*
X45516Y-21266D01*
X45444Y-21373D01*
X45433Y-21429D01*
X45433Y-14904D01*
X45322Y-14635D01*
X45116Y-14428D01*
X44846Y-14316D01*
X44554Y-14316D01*
X44285Y-14427D01*
X44078Y-14633D01*
X43966Y-14903D01*
X43966Y-15195D01*
X44077Y-15464D01*
X44283Y-15671D01*
X44553Y-15783D01*
X44845Y-15783D01*
X45114Y-15672D01*
X45321Y-15466D01*
X45433Y-15196D01*
X45433Y-14904D01*
X45433Y-21429D01*
X45419Y-21500D01*
X45419Y-25000D01*
X45419Y-25250D01*
X45419Y-26250D01*
X45419Y-26863D01*
X44516Y-27766D01*
X44444Y-27873D01*
X44419Y-28000D01*
X44419Y-28669D01*
X44251Y-28669D01*
X44251Y-20950D01*
X44231Y-20902D01*
X44231Y-17250D01*
X44214Y-17161D01*
X44163Y-17086D01*
X44163Y-17086D01*
X43913Y-16836D01*
X43838Y-16785D01*
X43750Y-16768D01*
X43749Y-16768D01*
X42846Y-16768D01*
X42482Y-16404D01*
X42463Y-16357D01*
X42392Y-16286D01*
X42300Y-16248D01*
X42200Y-16248D01*
X42107Y-16286D01*
X42036Y-16357D01*
X41998Y-16449D01*
X41998Y-16549D01*
X42036Y-16642D01*
X42107Y-16713D01*
X42155Y-16732D01*
X42586Y-17163D01*
X42586Y-17163D01*
X42661Y-17214D01*
X42750Y-17231D01*
X42750Y-17231D01*
X42750Y-17231D01*
X43653Y-17231D01*
X43768Y-17346D01*
X43768Y-20902D01*
X43748Y-20949D01*
X43748Y-21049D01*
X43786Y-21142D01*
X43857Y-21213D01*
X43949Y-21251D01*
X44049Y-21251D01*
X44142Y-21213D01*
X44213Y-21142D01*
X44251Y-21050D01*
X44251Y-20950D01*
X44251Y-28669D01*
X44026Y-28669D01*
X43993Y-28636D01*
X43835Y-28571D01*
X43665Y-28570D01*
X43507Y-28636D01*
X43386Y-28756D01*
X43321Y-28914D01*
X43320Y-29084D01*
X43386Y-29242D01*
X43506Y-29363D01*
X43664Y-29428D01*
X43834Y-29429D01*
X43992Y-29363D01*
X44026Y-29330D01*
X44473Y-29330D01*
X44506Y-29363D01*
X44664Y-29428D01*
X44834Y-29429D01*
X44992Y-29363D01*
X45113Y-29243D01*
X45178Y-29085D01*
X45179Y-28915D01*
X45113Y-28757D01*
X45080Y-28723D01*
X45080Y-28136D01*
X45886Y-27330D01*
X48813Y-27330D01*
X48786Y-27357D01*
X48748Y-27449D01*
X48748Y-27549D01*
X48786Y-27642D01*
X48857Y-27713D01*
X48946Y-27750D01*
X48857Y-27786D01*
X48786Y-27857D01*
X48748Y-27949D01*
X48748Y-28049D01*
X48786Y-28142D01*
X48857Y-28213D01*
X48949Y-28251D01*
X49049Y-28251D01*
X49097Y-28231D01*
X49902Y-28231D01*
X49949Y-28251D01*
X50049Y-28251D01*
X50097Y-28231D01*
X50653Y-28231D01*
X50768Y-28346D01*
X50768Y-29249D01*
X50768Y-29250D01*
X50785Y-29338D01*
X50836Y-29413D01*
X50992Y-29570D01*
X50928Y-29570D01*
X50878Y-29591D01*
X50841Y-29628D01*
X50821Y-29677D01*
X50820Y-29730D01*
X50820Y-30321D01*
X50841Y-30371D01*
X50878Y-30408D01*
X50927Y-30428D01*
X50980Y-30429D01*
X51571Y-30429D01*
X51621Y-30408D01*
X51658Y-30371D01*
X51678Y-30322D01*
X51679Y-30269D01*
X51679Y-29678D01*
X51658Y-29628D01*
X51621Y-29591D01*
X51572Y-29571D01*
X51519Y-29570D01*
X51481Y-29570D01*
X51481Y-29500D01*
X51464Y-29411D01*
X51413Y-29336D01*
X51413Y-29336D01*
X51231Y-29153D01*
X51231Y-28250D01*
X51214Y-28161D01*
X51163Y-28086D01*
X51163Y-28086D01*
X50913Y-27836D01*
X50838Y-27785D01*
X50750Y-27768D01*
X50749Y-27768D01*
X50097Y-27768D01*
X50050Y-27748D01*
X49950Y-27748D01*
X49902Y-27768D01*
X49097Y-27768D01*
X49053Y-27749D01*
X49097Y-27731D01*
X51792Y-27731D01*
X51823Y-27763D01*
X51937Y-27810D01*
X52061Y-27810D01*
X52175Y-27763D01*
X52263Y-27676D01*
X52310Y-27562D01*
X52310Y-27527D01*
X52419Y-27636D01*
X52419Y-28669D01*
X52026Y-28669D01*
X51993Y-28636D01*
X51835Y-28571D01*
X51665Y-28570D01*
X51507Y-28636D01*
X51386Y-28756D01*
X51321Y-28914D01*
X51320Y-29084D01*
X51386Y-29242D01*
X51506Y-29363D01*
X51664Y-29428D01*
X51834Y-29429D01*
X51992Y-29363D01*
X52026Y-29330D01*
X52473Y-29330D01*
X52506Y-29363D01*
X52664Y-29428D01*
X52834Y-29429D01*
X52992Y-29363D01*
X53113Y-29243D01*
X53178Y-29085D01*
X53179Y-28915D01*
X53113Y-28757D01*
X53080Y-28723D01*
X53080Y-27500D01*
X53055Y-27373D01*
X52983Y-27266D01*
X52483Y-26766D01*
X52376Y-26694D01*
X52250Y-26669D01*
X46080Y-26669D01*
X46080Y-26250D01*
X46080Y-25250D01*
X46080Y-25000D01*
X46080Y-21830D01*
X47250Y-21830D01*
X48750Y-21830D01*
X50250Y-21830D01*
X51750Y-21830D01*
X53250Y-21830D01*
X54750Y-21830D01*
X56250Y-21830D01*
X56376Y-21805D01*
X56483Y-21733D01*
X56555Y-21626D01*
X56580Y-21500D01*
X56580Y-30944D01*
X56404Y-30769D01*
X56174Y-30673D01*
X55926Y-30673D01*
X55696Y-30768D01*
X55519Y-30944D01*
X55424Y-31174D01*
X55424Y-31423D01*
X55519Y-31653D01*
X55580Y-31714D01*
X55420Y-31648D01*
X55149Y-31647D01*
X55149Y-28944D01*
X55140Y-28898D01*
X55100Y-28857D01*
X54958Y-29000D01*
X55100Y-29142D01*
X55140Y-29101D01*
X55149Y-28944D01*
X55149Y-31647D01*
X55081Y-31647D01*
X54892Y-31726D01*
X54892Y-29350D01*
X54892Y-28649D01*
X54851Y-28609D01*
X54694Y-28600D01*
X54648Y-28609D01*
X54607Y-28649D01*
X54750Y-28791D01*
X54892Y-28649D01*
X54892Y-29350D01*
X54750Y-29208D01*
X54607Y-29350D01*
X54648Y-29390D01*
X54805Y-29399D01*
X54851Y-29390D01*
X54892Y-29350D01*
X54892Y-31726D01*
X54768Y-31777D01*
X54679Y-31866D01*
X54679Y-29915D01*
X54613Y-29757D01*
X54541Y-29684D01*
X54541Y-29000D01*
X54399Y-28857D01*
X54359Y-28898D01*
X54350Y-29055D01*
X54359Y-29101D01*
X54399Y-29142D01*
X54541Y-29000D01*
X54541Y-29684D01*
X54493Y-29636D01*
X54335Y-29571D01*
X54165Y-29570D01*
X54149Y-29577D01*
X54149Y-28944D01*
X54140Y-28898D01*
X54100Y-28857D01*
X53958Y-29000D01*
X54100Y-29142D01*
X54140Y-29101D01*
X54149Y-28944D01*
X54149Y-29577D01*
X54007Y-29636D01*
X53892Y-29751D01*
X53892Y-29350D01*
X53892Y-28649D01*
X53851Y-28609D01*
X53694Y-28600D01*
X53648Y-28609D01*
X53607Y-28649D01*
X53750Y-28791D01*
X53892Y-28649D01*
X53892Y-29350D01*
X53750Y-29208D01*
X53607Y-29350D01*
X53648Y-29390D01*
X53805Y-29399D01*
X53851Y-29390D01*
X53892Y-29350D01*
X53892Y-29751D01*
X53886Y-29756D01*
X53821Y-29914D01*
X53820Y-30084D01*
X53886Y-30242D01*
X54006Y-30363D01*
X54018Y-30368D01*
X54018Y-30403D01*
X53903Y-30518D01*
X53679Y-30518D01*
X53679Y-29915D01*
X53613Y-29757D01*
X53541Y-29684D01*
X53541Y-29000D01*
X53501Y-28960D01*
X53501Y-25450D01*
X53463Y-25357D01*
X53392Y-25286D01*
X53300Y-25248D01*
X53200Y-25248D01*
X53152Y-25268D01*
X52750Y-25268D01*
X52097Y-25268D01*
X52050Y-25248D01*
X51950Y-25248D01*
X51857Y-25286D01*
X51786Y-25357D01*
X51748Y-25449D01*
X51748Y-25549D01*
X51786Y-25642D01*
X51857Y-25713D01*
X51949Y-25751D01*
X52049Y-25751D01*
X52097Y-25731D01*
X52750Y-25731D01*
X53152Y-25731D01*
X53199Y-25751D01*
X53299Y-25751D01*
X53392Y-25713D01*
X53463Y-25642D01*
X53501Y-25550D01*
X53501Y-25450D01*
X53501Y-28960D01*
X53399Y-28857D01*
X53359Y-28898D01*
X53350Y-29055D01*
X53359Y-29101D01*
X53399Y-29142D01*
X53541Y-29000D01*
X53541Y-29684D01*
X53493Y-29636D01*
X53335Y-29571D01*
X53165Y-29570D01*
X53007Y-29636D01*
X52886Y-29756D01*
X52821Y-29914D01*
X52820Y-30084D01*
X52886Y-30242D01*
X53006Y-30363D01*
X53164Y-30428D01*
X53334Y-30429D01*
X53492Y-30363D01*
X53613Y-30243D01*
X53678Y-30085D01*
X53679Y-29915D01*
X53679Y-30518D01*
X52679Y-30518D01*
X52679Y-29915D01*
X52613Y-29757D01*
X52493Y-29636D01*
X52335Y-29571D01*
X52165Y-29570D01*
X52007Y-29636D01*
X51886Y-29756D01*
X51821Y-29914D01*
X51820Y-30084D01*
X51886Y-30242D01*
X52006Y-30363D01*
X52164Y-30428D01*
X52334Y-30429D01*
X52492Y-30363D01*
X52613Y-30243D01*
X52678Y-30085D01*
X52679Y-29915D01*
X52679Y-30518D01*
X51000Y-30518D01*
X50751Y-30518D01*
X50751Y-29950D01*
X50731Y-29902D01*
X50731Y-28597D01*
X50751Y-28550D01*
X50751Y-28450D01*
X50713Y-28357D01*
X50642Y-28286D01*
X50550Y-28248D01*
X50450Y-28248D01*
X50357Y-28286D01*
X50286Y-28357D01*
X50248Y-28449D01*
X50248Y-28549D01*
X50268Y-28597D01*
X50268Y-29902D01*
X50248Y-29949D01*
X50248Y-30049D01*
X50286Y-30142D01*
X50357Y-30213D01*
X50449Y-30251D01*
X50549Y-30251D01*
X50642Y-30213D01*
X50713Y-30142D01*
X50751Y-30050D01*
X50751Y-29950D01*
X50751Y-30518D01*
X50596Y-30518D01*
X49913Y-29836D01*
X49838Y-29785D01*
X49750Y-29768D01*
X49749Y-29768D01*
X49731Y-29768D01*
X49731Y-29500D01*
X49731Y-28597D01*
X49751Y-28550D01*
X49751Y-28450D01*
X49713Y-28357D01*
X49642Y-28286D01*
X49550Y-28248D01*
X49450Y-28248D01*
X49357Y-28286D01*
X49286Y-28357D01*
X49248Y-28449D01*
X49248Y-28549D01*
X49268Y-28597D01*
X49268Y-29500D01*
X49268Y-29768D01*
X47250Y-29768D01*
X47149Y-29768D01*
X47149Y-28944D01*
X47140Y-28898D01*
X47100Y-28857D01*
X46958Y-29000D01*
X47100Y-29142D01*
X47140Y-29101D01*
X47149Y-28944D01*
X47149Y-29768D01*
X46892Y-29768D01*
X46892Y-29350D01*
X46892Y-28649D01*
X46851Y-28609D01*
X46694Y-28600D01*
X46648Y-28609D01*
X46607Y-28649D01*
X46750Y-28791D01*
X46892Y-28649D01*
X46892Y-29350D01*
X46750Y-29208D01*
X46607Y-29350D01*
X46648Y-29390D01*
X46805Y-29399D01*
X46851Y-29390D01*
X46892Y-29350D01*
X46892Y-29768D01*
X46618Y-29768D01*
X46613Y-29757D01*
X46541Y-29684D01*
X46541Y-29000D01*
X46399Y-28857D01*
X46359Y-28898D01*
X46350Y-29055D01*
X46359Y-29101D01*
X46399Y-29142D01*
X46541Y-29000D01*
X46541Y-29684D01*
X46493Y-29636D01*
X46335Y-29571D01*
X46165Y-29570D01*
X46149Y-29577D01*
X46149Y-28944D01*
X46140Y-28898D01*
X46100Y-28857D01*
X45958Y-29000D01*
X46100Y-29142D01*
X46140Y-29101D01*
X46149Y-28944D01*
X46149Y-29577D01*
X46007Y-29636D01*
X45892Y-29751D01*
X45892Y-29350D01*
X45892Y-28649D01*
X45851Y-28609D01*
X45694Y-28600D01*
X45648Y-28609D01*
X45607Y-28649D01*
X45750Y-28791D01*
X45892Y-28649D01*
X45892Y-29350D01*
X45750Y-29208D01*
X45607Y-29350D01*
X45648Y-29390D01*
X45805Y-29399D01*
X45851Y-29390D01*
X45892Y-29350D01*
X45892Y-29751D01*
X45886Y-29756D01*
X45821Y-29914D01*
X45820Y-30084D01*
X45886Y-30242D01*
X46006Y-30363D01*
X46164Y-30428D01*
X46334Y-30429D01*
X46492Y-30363D01*
X46613Y-30243D01*
X46618Y-30231D01*
X47250Y-30231D01*
X49500Y-30231D01*
X49653Y-30231D01*
X50081Y-30659D01*
X50033Y-30707D01*
X49840Y-30705D01*
X49825Y-30708D01*
X49754Y-30754D01*
X49950Y-30951D01*
X50036Y-30865D01*
X50147Y-30975D01*
X50384Y-31213D01*
X50298Y-31299D01*
X50495Y-31495D01*
X50541Y-31424D01*
X50544Y-31214D01*
X50544Y-31214D01*
X50632Y-31126D01*
X50483Y-30978D01*
X50485Y-30978D01*
X50499Y-30981D01*
X50499Y-30981D01*
X50500Y-30981D01*
X51000Y-30981D01*
X53999Y-30981D01*
X54000Y-30981D01*
X54000Y-30981D01*
X54088Y-30964D01*
X54163Y-30913D01*
X54413Y-30663D01*
X54413Y-30663D01*
X54413Y-30663D01*
X54464Y-30588D01*
X54481Y-30500D01*
X54481Y-30368D01*
X54492Y-30363D01*
X54613Y-30243D01*
X54678Y-30085D01*
X54679Y-29915D01*
X54679Y-31866D01*
X54528Y-32016D01*
X54398Y-32329D01*
X54397Y-32668D01*
X54527Y-32981D01*
X54766Y-33221D01*
X55079Y-33351D01*
X55418Y-33352D01*
X55731Y-33222D01*
X55971Y-32983D01*
X56101Y-32670D01*
X56102Y-32331D01*
X55972Y-32018D01*
X55847Y-31892D01*
X55925Y-31924D01*
X56173Y-31924D01*
X56403Y-31829D01*
X56580Y-31654D01*
X56675Y-31424D01*
X56675Y-31175D01*
X56675Y-34879D01*
X51602Y-34879D01*
X51602Y-32331D01*
X51472Y-32018D01*
X51233Y-31778D01*
X50920Y-31648D01*
X50581Y-31647D01*
X50544Y-31662D01*
X50268Y-31777D01*
X50147Y-31897D01*
X50147Y-31843D01*
X49950Y-31647D01*
X49754Y-31843D01*
X49825Y-31890D01*
X50061Y-31893D01*
X50076Y-31890D01*
X50147Y-31843D01*
X50147Y-31897D01*
X50028Y-32016D01*
X49898Y-32329D01*
X49897Y-32668D01*
X50027Y-32981D01*
X50266Y-33221D01*
X50579Y-33351D01*
X50918Y-33352D01*
X51231Y-33222D01*
X51471Y-32983D01*
X51601Y-32670D01*
X51602Y-32331D01*
X51602Y-34879D01*
X49602Y-34879D01*
X49602Y-31299D01*
X49406Y-31102D01*
X49359Y-31173D01*
X49356Y-31409D01*
X49359Y-31424D01*
X49406Y-31495D01*
X49602Y-31299D01*
X49602Y-34879D01*
X48675Y-34879D01*
X48675Y-31175D01*
X48580Y-30945D01*
X48404Y-30769D01*
X48174Y-30673D01*
X47926Y-30673D01*
X47696Y-30768D01*
X47519Y-30944D01*
X47424Y-31174D01*
X47424Y-31423D01*
X47519Y-31653D01*
X47580Y-31714D01*
X47420Y-31648D01*
X47081Y-31647D01*
X46768Y-31777D01*
X46528Y-32016D01*
X46398Y-32329D01*
X46397Y-32668D01*
X46527Y-32981D01*
X46766Y-33221D01*
X47079Y-33351D01*
X47418Y-33352D01*
X47731Y-33222D01*
X47971Y-32983D01*
X48101Y-32670D01*
X48102Y-32331D01*
X47972Y-32018D01*
X47847Y-31892D01*
X47925Y-31924D01*
X48173Y-31924D01*
X48403Y-31829D01*
X48580Y-31654D01*
X48675Y-31424D01*
X48675Y-31175D01*
X48675Y-34879D01*
X45679Y-34879D01*
X45679Y-29915D01*
X45613Y-29757D01*
X45541Y-29684D01*
X45541Y-29000D01*
X45399Y-28857D01*
X45359Y-28898D01*
X45350Y-29055D01*
X45359Y-29101D01*
X45399Y-29142D01*
X45541Y-29000D01*
X45541Y-29684D01*
X45493Y-29636D01*
X45335Y-29571D01*
X45165Y-29570D01*
X45007Y-29636D01*
X44886Y-29756D01*
X44821Y-29914D01*
X44820Y-30084D01*
X44886Y-30242D01*
X45006Y-30363D01*
X45164Y-30428D01*
X45334Y-30429D01*
X45492Y-30363D01*
X45613Y-30243D01*
X45678Y-30085D01*
X45679Y-29915D01*
X45679Y-34879D01*
X44679Y-34879D01*
X44679Y-29915D01*
X44613Y-29757D01*
X44493Y-29636D01*
X44335Y-29571D01*
X44165Y-29570D01*
X44007Y-29636D01*
X43886Y-29756D01*
X43821Y-29914D01*
X43820Y-30084D01*
X43886Y-30242D01*
X44006Y-30363D01*
X44164Y-30428D01*
X44334Y-30429D01*
X44492Y-30363D01*
X44613Y-30243D01*
X44678Y-30085D01*
X44679Y-29915D01*
X44679Y-34879D01*
X43679Y-34879D01*
X43679Y-30269D01*
X43679Y-29678D01*
X43658Y-29628D01*
X43621Y-29591D01*
X43572Y-29571D01*
X43519Y-29570D01*
X42928Y-29570D01*
X42878Y-29591D01*
X42841Y-29628D01*
X42821Y-29677D01*
X42820Y-29730D01*
X42820Y-30321D01*
X42841Y-30371D01*
X42878Y-30408D01*
X42927Y-30428D01*
X42980Y-30429D01*
X43571Y-30429D01*
X43621Y-30408D01*
X43658Y-30371D01*
X43678Y-30322D01*
X43679Y-30269D01*
X43679Y-34879D01*
X43602Y-34879D01*
X43602Y-32331D01*
X43472Y-32018D01*
X43233Y-31778D01*
X42920Y-31648D01*
X42581Y-31647D01*
X42544Y-31662D01*
X42544Y-31188D01*
X42541Y-31173D01*
X42495Y-31102D01*
X42298Y-31299D01*
X42495Y-31495D01*
X42541Y-31424D01*
X42544Y-31188D01*
X42544Y-31662D01*
X42268Y-31777D01*
X42147Y-31897D01*
X42147Y-31843D01*
X42147Y-30754D01*
X42076Y-30708D01*
X41840Y-30705D01*
X41825Y-30708D01*
X41754Y-30754D01*
X41950Y-30951D01*
X42147Y-30754D01*
X42147Y-31843D01*
X41950Y-31647D01*
X41754Y-31843D01*
X41825Y-31890D01*
X42061Y-31893D01*
X42076Y-31890D01*
X42147Y-31843D01*
X42147Y-31897D01*
X42028Y-32016D01*
X41898Y-32329D01*
X41897Y-32668D01*
X42027Y-32981D01*
X42266Y-33221D01*
X42579Y-33351D01*
X42918Y-33352D01*
X43231Y-33222D01*
X43471Y-32983D01*
X43601Y-32670D01*
X43602Y-32331D01*
X43602Y-34879D01*
X41751Y-34879D01*
X41751Y-16450D01*
X41713Y-16357D01*
X41642Y-16286D01*
X41550Y-16248D01*
X41450Y-16248D01*
X41402Y-16268D01*
X40500Y-16268D01*
X40500Y-16268D01*
X40411Y-16285D01*
X40336Y-16336D01*
X40336Y-16336D01*
X39836Y-16836D01*
X39785Y-16911D01*
X39768Y-17000D01*
X39768Y-17000D01*
X39768Y-20902D01*
X39748Y-20949D01*
X39748Y-21049D01*
X39786Y-21142D01*
X39857Y-21213D01*
X39949Y-21251D01*
X40049Y-21251D01*
X40142Y-21213D01*
X40213Y-21142D01*
X40251Y-21050D01*
X40251Y-20950D01*
X40231Y-20902D01*
X40231Y-17096D01*
X40596Y-16731D01*
X41402Y-16731D01*
X41449Y-16751D01*
X41549Y-16751D01*
X41642Y-16713D01*
X41713Y-16642D01*
X41751Y-16550D01*
X41751Y-16450D01*
X41751Y-34879D01*
X41602Y-34879D01*
X41602Y-31299D01*
X41406Y-31102D01*
X41359Y-31173D01*
X41356Y-31409D01*
X41359Y-31424D01*
X41406Y-31495D01*
X41602Y-31299D01*
X41602Y-34879D01*
X40416Y-34879D01*
X40615Y-34797D01*
X40846Y-34566D01*
X40972Y-34264D01*
X40972Y-33937D01*
X40847Y-33634D01*
X40616Y-33403D01*
X40314Y-33277D01*
X39987Y-33277D01*
X39684Y-33402D01*
X39453Y-33633D01*
X39370Y-33833D01*
X39370Y-14666D01*
X39452Y-14865D01*
X39683Y-15096D01*
X39985Y-15222D01*
X40312Y-15222D01*
X40615Y-15097D01*
X40846Y-14866D01*
X40972Y-14564D01*
X40972Y-14237D01*
X40847Y-13934D01*
X40616Y-13703D01*
X40416Y-13620D01*
X57583Y-13620D01*
X57384Y-13702D01*
X57153Y-13933D01*
X57027Y-14235D01*
X57027Y-14562D01*
X57152Y-14865D01*
X57383Y-15096D01*
X57685Y-15222D01*
X58012Y-15222D01*
X58315Y-15097D01*
X58546Y-14866D01*
X58629Y-14666D01*
X58629Y-33833D01*
M02*
