G04 (created by PCBNEW (2013-may-18)-stable) date Wed 29 Jan 2014 10:34:26 PM CET*
%MOIN*%
G04 Gerber Fmt 3.4, Leading zero omitted, Abs format*
%FSLAX34Y34*%
G01*
G70*
G90*
G04 APERTURE LIST*
%ADD10C,0.00590551*%
%ADD11C,0.011811*%
%ADD12C,0.00787402*%
%ADD13C,0.005*%
%ADD14C,0.008*%
%ADD15C,0.012*%
%ADD16C,0.0047*%
%ADD17C,0.00344488*%
%ADD18C,0.0039*%
%ADD19C,0.0045*%
%ADD20C,0.01*%
%ADD21C,0.12*%
%ADD22R,0.06X0.06*%
%ADD23C,0.06*%
%ADD24R,0.1063X0.1004*%
%ADD25R,0.1496X0.1004*%
%ADD26R,0.0236X0.0394*%
%ADD27R,0.0335X0.0335*%
%ADD28R,0.02X0.045*%
%ADD29R,0.08X0.06*%
%ADD30R,0.045X0.025*%
%ADD31R,0.025X0.045*%
%ADD32C,0.1437*%
%ADD33R,0.0591X0.0591*%
%ADD34C,0.0591*%
%ADD35C,0.0984252*%
%ADD36R,0.065X0.12*%
%ADD37R,0.24X0.24*%
G04 APERTURE END LIST*
G54D10*
G54D11*
X51554Y-27398D02*
X51667Y-27398D01*
X51723Y-27426D01*
X51779Y-27482D01*
X51807Y-27595D01*
X51807Y-27792D01*
X51779Y-27904D01*
X51723Y-27960D01*
X51667Y-27989D01*
X51554Y-27989D01*
X51498Y-27960D01*
X51442Y-27904D01*
X51414Y-27792D01*
X51414Y-27595D01*
X51442Y-27482D01*
X51498Y-27426D01*
X51554Y-27398D01*
X52314Y-27595D02*
X52314Y-27989D01*
X52061Y-27595D02*
X52061Y-27904D01*
X52089Y-27960D01*
X52145Y-27989D01*
X52229Y-27989D01*
X52285Y-27960D01*
X52314Y-27932D01*
X52510Y-27595D02*
X52735Y-27595D01*
X52595Y-27398D02*
X52595Y-27904D01*
X52623Y-27960D01*
X52679Y-27989D01*
X52735Y-27989D01*
X52932Y-27595D02*
X52932Y-28185D01*
X52932Y-27623D02*
X52989Y-27595D01*
X53101Y-27595D01*
X53157Y-27623D01*
X53185Y-27651D01*
X53214Y-27707D01*
X53214Y-27876D01*
X53185Y-27932D01*
X53157Y-27960D01*
X53101Y-27989D01*
X52989Y-27989D01*
X52932Y-27960D01*
X53720Y-27595D02*
X53720Y-27989D01*
X53467Y-27595D02*
X53467Y-27904D01*
X53495Y-27960D01*
X53551Y-27989D01*
X53635Y-27989D01*
X53692Y-27960D01*
X53720Y-27932D01*
X53917Y-27595D02*
X54142Y-27595D01*
X54001Y-27398D02*
X54001Y-27904D01*
X54029Y-27960D01*
X54085Y-27989D01*
X54142Y-27989D01*
X44279Y-27989D02*
X44279Y-27398D01*
X44561Y-27595D02*
X44561Y-27989D01*
X44561Y-27651D02*
X44589Y-27623D01*
X44645Y-27595D01*
X44729Y-27595D01*
X44785Y-27623D01*
X44814Y-27679D01*
X44814Y-27989D01*
X45095Y-27595D02*
X45095Y-28185D01*
X45095Y-27623D02*
X45151Y-27595D01*
X45264Y-27595D01*
X45320Y-27623D01*
X45348Y-27651D01*
X45376Y-27707D01*
X45376Y-27876D01*
X45348Y-27932D01*
X45320Y-27960D01*
X45264Y-27989D01*
X45151Y-27989D01*
X45095Y-27960D01*
X45882Y-27595D02*
X45882Y-27989D01*
X45629Y-27595D02*
X45629Y-27904D01*
X45657Y-27960D01*
X45714Y-27989D01*
X45798Y-27989D01*
X45854Y-27960D01*
X45882Y-27932D01*
X46079Y-27595D02*
X46304Y-27595D01*
X46163Y-27398D02*
X46163Y-27904D01*
X46192Y-27960D01*
X46248Y-27989D01*
X46304Y-27989D01*
G54D12*
X43100Y-13850D02*
X43000Y-13850D01*
X43000Y-13850D02*
X43000Y-16250D01*
X55000Y-16250D02*
X55000Y-13850D01*
X55000Y-13850D02*
X43100Y-13850D01*
X52400Y-16250D02*
X52400Y-14450D01*
X52400Y-14450D02*
X52900Y-13950D01*
X52900Y-13950D02*
X53700Y-13950D01*
X53700Y-13950D02*
X54200Y-14450D01*
X54200Y-14450D02*
X54200Y-16250D01*
X43800Y-16250D02*
X43800Y-14450D01*
X43800Y-14450D02*
X44300Y-13950D01*
X44300Y-13950D02*
X45200Y-13950D01*
X45200Y-13950D02*
X45700Y-14450D01*
X45700Y-14450D02*
X45700Y-16250D01*
X43000Y-16250D02*
X55000Y-16250D01*
G54D13*
X43150Y-24000D02*
X44850Y-24000D01*
X43150Y-26450D02*
X44850Y-26450D01*
X44850Y-26450D02*
X44850Y-23550D01*
X44850Y-23550D02*
X43150Y-23550D01*
X43150Y-23550D02*
X43150Y-26450D01*
X46875Y-20225D02*
X46875Y-19965D01*
X47625Y-20225D02*
X47625Y-19965D01*
X47250Y-20775D02*
X47250Y-21035D01*
X47840Y-20775D02*
X46660Y-20775D01*
X46660Y-20775D02*
X46660Y-20225D01*
X46660Y-20225D02*
X47840Y-20225D01*
X47840Y-20225D02*
X47840Y-20775D01*
X55875Y-20225D02*
X55875Y-19965D01*
X56625Y-20225D02*
X56625Y-19965D01*
X56250Y-20775D02*
X56250Y-21035D01*
X56840Y-20775D02*
X55660Y-20775D01*
X55660Y-20775D02*
X55660Y-20225D01*
X55660Y-20225D02*
X56840Y-20225D01*
X56840Y-20225D02*
X56840Y-20775D01*
X48375Y-20225D02*
X48375Y-19965D01*
X49125Y-20225D02*
X49125Y-19965D01*
X48750Y-20775D02*
X48750Y-21035D01*
X49340Y-20775D02*
X48160Y-20775D01*
X48160Y-20775D02*
X48160Y-20225D01*
X48160Y-20225D02*
X49340Y-20225D01*
X49340Y-20225D02*
X49340Y-20775D01*
X54375Y-20225D02*
X54375Y-19965D01*
X55125Y-20225D02*
X55125Y-19965D01*
X54750Y-20775D02*
X54750Y-21035D01*
X55340Y-20775D02*
X54160Y-20775D01*
X54160Y-20775D02*
X54160Y-20225D01*
X54160Y-20225D02*
X55340Y-20225D01*
X55340Y-20225D02*
X55340Y-20775D01*
X45375Y-20225D02*
X45375Y-19965D01*
X46125Y-20225D02*
X46125Y-19965D01*
X45750Y-20775D02*
X45750Y-21035D01*
X46340Y-20775D02*
X45160Y-20775D01*
X45160Y-20775D02*
X45160Y-20225D01*
X45160Y-20225D02*
X46340Y-20225D01*
X46340Y-20225D02*
X46340Y-20775D01*
X52875Y-20225D02*
X52875Y-19965D01*
X53625Y-20225D02*
X53625Y-19965D01*
X53250Y-20775D02*
X53250Y-21035D01*
X53840Y-20775D02*
X52660Y-20775D01*
X52660Y-20775D02*
X52660Y-20225D01*
X52660Y-20225D02*
X53840Y-20225D01*
X53840Y-20225D02*
X53840Y-20775D01*
X51375Y-20225D02*
X51375Y-19965D01*
X52125Y-20225D02*
X52125Y-19965D01*
X51750Y-20775D02*
X51750Y-21035D01*
X52340Y-20775D02*
X51160Y-20775D01*
X51160Y-20775D02*
X51160Y-20225D01*
X51160Y-20225D02*
X52340Y-20225D01*
X52340Y-20225D02*
X52340Y-20775D01*
X49875Y-20225D02*
X49875Y-19965D01*
X50625Y-20225D02*
X50625Y-19965D01*
X50250Y-20775D02*
X50250Y-21035D01*
X50840Y-20775D02*
X49660Y-20775D01*
X49660Y-20775D02*
X49660Y-20225D01*
X49660Y-20225D02*
X50840Y-20225D01*
X50840Y-20225D02*
X50840Y-20775D01*
X41896Y-22185D02*
X41896Y-22815D01*
X41856Y-22815D02*
X41856Y-22185D01*
X42801Y-22815D02*
X41699Y-22815D01*
X41699Y-22815D02*
X41699Y-22185D01*
X41699Y-22185D02*
X42801Y-22185D01*
X42801Y-22185D02*
X42801Y-22815D01*
G54D14*
X52900Y-25950D02*
X48600Y-25950D01*
X48600Y-25950D02*
X48600Y-24550D01*
X48600Y-24550D02*
X52900Y-24550D01*
X52900Y-24550D02*
X52900Y-25950D01*
X52900Y-25450D02*
X52600Y-25450D01*
X52600Y-25450D02*
X52600Y-25050D01*
X52600Y-25050D02*
X52900Y-25050D01*
G54D13*
X51050Y-19500D02*
X51950Y-19500D01*
X51950Y-19500D02*
X51950Y-18850D01*
X51050Y-18150D02*
X51050Y-17500D01*
X51050Y-17500D02*
X51950Y-17500D01*
X51950Y-17500D02*
X51950Y-18150D01*
X51050Y-18850D02*
X51050Y-19500D01*
X48050Y-19500D02*
X48950Y-19500D01*
X48950Y-19500D02*
X48950Y-18850D01*
X48050Y-18150D02*
X48050Y-17500D01*
X48050Y-17500D02*
X48950Y-17500D01*
X48950Y-17500D02*
X48950Y-18150D01*
X48050Y-18850D02*
X48050Y-19500D01*
X49550Y-19500D02*
X50450Y-19500D01*
X50450Y-19500D02*
X50450Y-18850D01*
X49550Y-18150D02*
X49550Y-17500D01*
X49550Y-17500D02*
X50450Y-17500D01*
X50450Y-17500D02*
X50450Y-18150D01*
X49550Y-18850D02*
X49550Y-19500D01*
X46550Y-19500D02*
X47450Y-19500D01*
X47450Y-19500D02*
X47450Y-18850D01*
X46550Y-18150D02*
X46550Y-17500D01*
X46550Y-17500D02*
X47450Y-17500D01*
X47450Y-17500D02*
X47450Y-18150D01*
X46550Y-18850D02*
X46550Y-19500D01*
X52550Y-19500D02*
X53450Y-19500D01*
X53450Y-19500D02*
X53450Y-18850D01*
X52550Y-18150D02*
X52550Y-17500D01*
X52550Y-17500D02*
X53450Y-17500D01*
X53450Y-17500D02*
X53450Y-18150D01*
X52550Y-18850D02*
X52550Y-19500D01*
X54050Y-19500D02*
X54950Y-19500D01*
X54950Y-19500D02*
X54950Y-18850D01*
X54050Y-18150D02*
X54050Y-17500D01*
X54050Y-17500D02*
X54950Y-17500D01*
X54950Y-17500D02*
X54950Y-18150D01*
X54050Y-18850D02*
X54050Y-19500D01*
X55550Y-19500D02*
X56450Y-19500D01*
X56450Y-19500D02*
X56450Y-18850D01*
X55550Y-18150D02*
X55550Y-17500D01*
X55550Y-17500D02*
X56450Y-17500D01*
X56450Y-17500D02*
X56450Y-18150D01*
X55550Y-18850D02*
X55550Y-19500D01*
X45050Y-19500D02*
X45950Y-19500D01*
X45950Y-19500D02*
X45950Y-18850D01*
X45050Y-18150D02*
X45050Y-17500D01*
X45050Y-17500D02*
X45950Y-17500D01*
X45950Y-17500D02*
X45950Y-18150D01*
X45050Y-18850D02*
X45050Y-19500D01*
X41500Y-16200D02*
X41500Y-15300D01*
X41500Y-15300D02*
X42000Y-15300D01*
X42000Y-15300D02*
X42000Y-16200D01*
X42000Y-16200D02*
X41500Y-16200D01*
X57250Y-21050D02*
X57250Y-21950D01*
X57250Y-21950D02*
X56750Y-21950D01*
X56750Y-21950D02*
X56750Y-21050D01*
X56750Y-21050D02*
X57250Y-21050D01*
X40250Y-21300D02*
X40250Y-22200D01*
X40250Y-22200D02*
X39750Y-22200D01*
X39750Y-22200D02*
X39750Y-21300D01*
X39750Y-21300D02*
X40250Y-21300D01*
X55750Y-21050D02*
X55750Y-21950D01*
X55750Y-21950D02*
X55250Y-21950D01*
X55250Y-21950D02*
X55250Y-21050D01*
X55250Y-21050D02*
X55750Y-21050D01*
X54250Y-21050D02*
X54250Y-21950D01*
X54250Y-21950D02*
X53750Y-21950D01*
X53750Y-21950D02*
X53750Y-21050D01*
X53750Y-21050D02*
X54250Y-21050D01*
X52750Y-21050D02*
X52750Y-21950D01*
X52750Y-21950D02*
X52250Y-21950D01*
X52250Y-21950D02*
X52250Y-21050D01*
X52250Y-21050D02*
X52750Y-21050D01*
X41500Y-14700D02*
X41500Y-13800D01*
X41500Y-13800D02*
X42000Y-13800D01*
X42000Y-13800D02*
X42000Y-14700D01*
X42000Y-14700D02*
X41500Y-14700D01*
X40250Y-16200D02*
X40250Y-15300D01*
X40250Y-15300D02*
X40750Y-15300D01*
X40750Y-15300D02*
X40750Y-16200D01*
X40750Y-16200D02*
X40250Y-16200D01*
X51250Y-21050D02*
X51250Y-21950D01*
X51250Y-21950D02*
X50750Y-21950D01*
X50750Y-21950D02*
X50750Y-21050D01*
X50750Y-21050D02*
X51250Y-21050D01*
X40250Y-14700D02*
X40250Y-13800D01*
X40250Y-13800D02*
X40750Y-13800D01*
X40750Y-13800D02*
X40750Y-14700D01*
X40750Y-14700D02*
X40250Y-14700D01*
X52800Y-26500D02*
X53700Y-26500D01*
X53700Y-26500D02*
X53700Y-27000D01*
X53700Y-27000D02*
X52800Y-27000D01*
X52800Y-27000D02*
X52800Y-26500D01*
X49750Y-21050D02*
X49750Y-21950D01*
X49750Y-21950D02*
X49250Y-21950D01*
X49250Y-21950D02*
X49250Y-21050D01*
X49250Y-21050D02*
X49750Y-21050D01*
X46750Y-21050D02*
X46750Y-21950D01*
X46750Y-21950D02*
X46250Y-21950D01*
X46250Y-21950D02*
X46250Y-21050D01*
X46250Y-21050D02*
X46750Y-21050D01*
X48250Y-21050D02*
X48250Y-21950D01*
X48250Y-21950D02*
X47750Y-21950D01*
X47750Y-21950D02*
X47750Y-21050D01*
X47750Y-21050D02*
X48250Y-21050D01*
X41874Y-36712D02*
X48125Y-36712D01*
X48125Y-36712D02*
X48125Y-28287D01*
X48125Y-28287D02*
X41874Y-28287D01*
X41874Y-28287D02*
X41874Y-36712D01*
X49874Y-36712D02*
X56125Y-36712D01*
X56125Y-36712D02*
X56125Y-28287D01*
X56125Y-28287D02*
X49874Y-28287D01*
X49874Y-28287D02*
X49874Y-36712D01*
X42550Y-20400D02*
X42550Y-21650D01*
X42550Y-21650D02*
X43250Y-21650D01*
X43250Y-21650D02*
X43250Y-20400D01*
X40750Y-20400D02*
X40750Y-21650D01*
X40750Y-21650D02*
X41450Y-21650D01*
X41450Y-21650D02*
X41450Y-20400D01*
X43350Y-18000D02*
X43350Y-20400D01*
X43350Y-20400D02*
X40650Y-20400D01*
X40650Y-20400D02*
X40650Y-17300D01*
X40650Y-17250D02*
X43350Y-17250D01*
X43350Y-17300D02*
X43350Y-18000D01*
X40650Y-24000D02*
X42350Y-24000D01*
X40650Y-26450D02*
X42350Y-26450D01*
X42350Y-26450D02*
X42350Y-23550D01*
X42350Y-23550D02*
X40650Y-23550D01*
X40650Y-23550D02*
X40650Y-26450D01*
X44250Y-21300D02*
X44250Y-22200D01*
X44250Y-22200D02*
X43750Y-22200D01*
X43750Y-22200D02*
X43750Y-21300D01*
X43750Y-21300D02*
X44250Y-21300D01*
G54D15*
X55288Y-15532D02*
X55288Y-14833D01*
X55526Y-14833D01*
X55586Y-14867D01*
X55616Y-14900D01*
X55645Y-14967D01*
X55645Y-15066D01*
X55616Y-15133D01*
X55586Y-15166D01*
X55526Y-15200D01*
X55288Y-15200D01*
X56241Y-15532D02*
X55883Y-15532D01*
X56062Y-15532D02*
X56062Y-14833D01*
X56002Y-14933D01*
X55943Y-15000D01*
X55883Y-15033D01*
G54D16*
X42985Y-25032D02*
X42995Y-25042D01*
X43004Y-25070D01*
X43004Y-25089D01*
X42995Y-25117D01*
X42976Y-25136D01*
X42957Y-25145D01*
X42920Y-25154D01*
X42892Y-25154D01*
X42854Y-25145D01*
X42835Y-25136D01*
X42817Y-25117D01*
X42807Y-25089D01*
X42807Y-25070D01*
X42817Y-25042D01*
X42826Y-25032D01*
X42873Y-24863D02*
X43004Y-24863D01*
X42798Y-24910D02*
X42939Y-24957D01*
X42939Y-24835D01*
G54D17*
X46568Y-20513D02*
X46562Y-20526D01*
X46549Y-20539D01*
X46529Y-20559D01*
X46522Y-20572D01*
X46522Y-20585D01*
X46555Y-20578D02*
X46549Y-20591D01*
X46536Y-20604D01*
X46509Y-20611D01*
X46463Y-20611D01*
X46437Y-20604D01*
X46424Y-20591D01*
X46417Y-20578D01*
X46417Y-20552D01*
X46424Y-20539D01*
X46437Y-20526D01*
X46463Y-20519D01*
X46509Y-20519D01*
X46536Y-20526D01*
X46549Y-20539D01*
X46555Y-20552D01*
X46555Y-20578D01*
X46417Y-20473D02*
X46417Y-20381D01*
X46555Y-20440D01*
X55568Y-20513D02*
X55562Y-20526D01*
X55549Y-20539D01*
X55529Y-20559D01*
X55522Y-20572D01*
X55522Y-20585D01*
X55555Y-20578D02*
X55549Y-20591D01*
X55536Y-20604D01*
X55509Y-20611D01*
X55463Y-20611D01*
X55437Y-20604D01*
X55424Y-20591D01*
X55417Y-20578D01*
X55417Y-20552D01*
X55424Y-20539D01*
X55437Y-20526D01*
X55463Y-20519D01*
X55509Y-20519D01*
X55536Y-20526D01*
X55549Y-20539D01*
X55555Y-20552D01*
X55555Y-20578D01*
X55555Y-20388D02*
X55555Y-20467D01*
X55555Y-20427D02*
X55417Y-20427D01*
X55437Y-20440D01*
X55450Y-20454D01*
X55457Y-20467D01*
X48068Y-20513D02*
X48062Y-20526D01*
X48049Y-20539D01*
X48029Y-20559D01*
X48022Y-20572D01*
X48022Y-20585D01*
X48055Y-20578D02*
X48049Y-20591D01*
X48036Y-20604D01*
X48009Y-20611D01*
X47963Y-20611D01*
X47937Y-20604D01*
X47924Y-20591D01*
X47917Y-20578D01*
X47917Y-20552D01*
X47924Y-20539D01*
X47937Y-20526D01*
X47963Y-20519D01*
X48009Y-20519D01*
X48036Y-20526D01*
X48049Y-20539D01*
X48055Y-20552D01*
X48055Y-20578D01*
X47917Y-20401D02*
X47917Y-20427D01*
X47924Y-20440D01*
X47931Y-20447D01*
X47950Y-20460D01*
X47977Y-20467D01*
X48029Y-20467D01*
X48042Y-20460D01*
X48049Y-20454D01*
X48055Y-20440D01*
X48055Y-20414D01*
X48049Y-20401D01*
X48042Y-20395D01*
X48029Y-20388D01*
X47996Y-20388D01*
X47983Y-20395D01*
X47977Y-20401D01*
X47970Y-20414D01*
X47970Y-20440D01*
X47977Y-20454D01*
X47983Y-20460D01*
X47996Y-20467D01*
X54068Y-20513D02*
X54062Y-20526D01*
X54049Y-20539D01*
X54029Y-20559D01*
X54022Y-20572D01*
X54022Y-20585D01*
X54055Y-20578D02*
X54049Y-20591D01*
X54036Y-20604D01*
X54009Y-20611D01*
X53963Y-20611D01*
X53937Y-20604D01*
X53924Y-20591D01*
X53917Y-20578D01*
X53917Y-20552D01*
X53924Y-20539D01*
X53937Y-20526D01*
X53963Y-20519D01*
X54009Y-20519D01*
X54036Y-20526D01*
X54049Y-20539D01*
X54055Y-20552D01*
X54055Y-20578D01*
X53931Y-20467D02*
X53924Y-20460D01*
X53917Y-20447D01*
X53917Y-20414D01*
X53924Y-20401D01*
X53931Y-20395D01*
X53944Y-20388D01*
X53957Y-20388D01*
X53977Y-20395D01*
X54055Y-20473D01*
X54055Y-20388D01*
X45068Y-20513D02*
X45062Y-20526D01*
X45049Y-20539D01*
X45029Y-20559D01*
X45022Y-20572D01*
X45022Y-20585D01*
X45055Y-20578D02*
X45049Y-20591D01*
X45036Y-20604D01*
X45009Y-20611D01*
X44963Y-20611D01*
X44937Y-20604D01*
X44924Y-20591D01*
X44917Y-20578D01*
X44917Y-20552D01*
X44924Y-20539D01*
X44937Y-20526D01*
X44963Y-20519D01*
X45009Y-20519D01*
X45036Y-20526D01*
X45049Y-20539D01*
X45055Y-20552D01*
X45055Y-20578D01*
X44977Y-20440D02*
X44970Y-20454D01*
X44963Y-20460D01*
X44950Y-20467D01*
X44944Y-20467D01*
X44931Y-20460D01*
X44924Y-20454D01*
X44917Y-20440D01*
X44917Y-20414D01*
X44924Y-20401D01*
X44931Y-20395D01*
X44944Y-20388D01*
X44950Y-20388D01*
X44963Y-20395D01*
X44970Y-20401D01*
X44977Y-20414D01*
X44977Y-20440D01*
X44983Y-20454D01*
X44990Y-20460D01*
X45003Y-20467D01*
X45029Y-20467D01*
X45042Y-20460D01*
X45049Y-20454D01*
X45055Y-20440D01*
X45055Y-20414D01*
X45049Y-20401D01*
X45042Y-20395D01*
X45029Y-20388D01*
X45003Y-20388D01*
X44990Y-20395D01*
X44983Y-20401D01*
X44977Y-20414D01*
X52568Y-20513D02*
X52562Y-20526D01*
X52549Y-20539D01*
X52529Y-20559D01*
X52522Y-20572D01*
X52522Y-20585D01*
X52555Y-20578D02*
X52549Y-20591D01*
X52536Y-20604D01*
X52509Y-20611D01*
X52463Y-20611D01*
X52437Y-20604D01*
X52424Y-20591D01*
X52417Y-20578D01*
X52417Y-20552D01*
X52424Y-20539D01*
X52437Y-20526D01*
X52463Y-20519D01*
X52509Y-20519D01*
X52536Y-20526D01*
X52549Y-20539D01*
X52555Y-20552D01*
X52555Y-20578D01*
X52417Y-20473D02*
X52417Y-20388D01*
X52470Y-20434D01*
X52470Y-20414D01*
X52477Y-20401D01*
X52483Y-20395D01*
X52496Y-20388D01*
X52529Y-20388D01*
X52542Y-20395D01*
X52549Y-20401D01*
X52555Y-20414D01*
X52555Y-20454D01*
X52549Y-20467D01*
X52542Y-20473D01*
X51068Y-20513D02*
X51062Y-20526D01*
X51049Y-20539D01*
X51029Y-20559D01*
X51022Y-20572D01*
X51022Y-20585D01*
X51055Y-20578D02*
X51049Y-20591D01*
X51036Y-20604D01*
X51009Y-20611D01*
X50963Y-20611D01*
X50937Y-20604D01*
X50924Y-20591D01*
X50917Y-20578D01*
X50917Y-20552D01*
X50924Y-20539D01*
X50937Y-20526D01*
X50963Y-20519D01*
X51009Y-20519D01*
X51036Y-20526D01*
X51049Y-20539D01*
X51055Y-20552D01*
X51055Y-20578D01*
X50963Y-20401D02*
X51055Y-20401D01*
X50911Y-20434D02*
X51009Y-20467D01*
X51009Y-20381D01*
X49568Y-20513D02*
X49562Y-20526D01*
X49549Y-20539D01*
X49529Y-20559D01*
X49522Y-20572D01*
X49522Y-20585D01*
X49555Y-20578D02*
X49549Y-20591D01*
X49536Y-20604D01*
X49509Y-20611D01*
X49463Y-20611D01*
X49437Y-20604D01*
X49424Y-20591D01*
X49417Y-20578D01*
X49417Y-20552D01*
X49424Y-20539D01*
X49437Y-20526D01*
X49463Y-20519D01*
X49509Y-20519D01*
X49536Y-20526D01*
X49549Y-20539D01*
X49555Y-20552D01*
X49555Y-20578D01*
X49417Y-20395D02*
X49417Y-20460D01*
X49483Y-20467D01*
X49477Y-20460D01*
X49470Y-20447D01*
X49470Y-20414D01*
X49477Y-20401D01*
X49483Y-20395D01*
X49496Y-20388D01*
X49529Y-20388D01*
X49542Y-20395D01*
X49549Y-20401D01*
X49555Y-20414D01*
X49555Y-20447D01*
X49549Y-20460D01*
X49542Y-20467D01*
G54D18*
X42134Y-23063D02*
X42134Y-22906D01*
X42171Y-22906D01*
X42193Y-22914D01*
X42208Y-22928D01*
X42216Y-22943D01*
X42223Y-22973D01*
X42223Y-22996D01*
X42216Y-23026D01*
X42208Y-23041D01*
X42193Y-23056D01*
X42171Y-23063D01*
X42134Y-23063D01*
X42283Y-22921D02*
X42291Y-22914D01*
X42306Y-22906D01*
X42343Y-22906D01*
X42358Y-22914D01*
X42365Y-22921D01*
X42373Y-22936D01*
X42373Y-22951D01*
X42365Y-22973D01*
X42276Y-23063D01*
X42373Y-23063D01*
G54D13*
X53157Y-24511D02*
X53157Y-24835D01*
X53178Y-24873D01*
X53200Y-24892D01*
X53242Y-24911D01*
X53328Y-24911D01*
X53371Y-24892D01*
X53392Y-24873D01*
X53414Y-24835D01*
X53414Y-24511D01*
X53864Y-24911D02*
X53607Y-24911D01*
X53735Y-24911D02*
X53735Y-24511D01*
X53692Y-24569D01*
X53650Y-24607D01*
X53607Y-24626D01*
X49282Y-25011D02*
X49582Y-25011D01*
X49389Y-25411D01*
X49946Y-25145D02*
X49946Y-25411D01*
X49839Y-24992D02*
X49732Y-25278D01*
X50010Y-25278D01*
X50182Y-25411D02*
X50182Y-25011D01*
X50182Y-25202D02*
X50439Y-25202D01*
X50439Y-25411D02*
X50439Y-25011D01*
X50910Y-25373D02*
X50889Y-25392D01*
X50825Y-25411D01*
X50782Y-25411D01*
X50717Y-25392D01*
X50675Y-25354D01*
X50653Y-25316D01*
X50632Y-25240D01*
X50632Y-25183D01*
X50653Y-25107D01*
X50675Y-25069D01*
X50717Y-25030D01*
X50782Y-25011D01*
X50825Y-25011D01*
X50889Y-25030D01*
X50910Y-25050D01*
X51317Y-25011D02*
X51103Y-25011D01*
X51082Y-25202D01*
X51103Y-25183D01*
X51146Y-25164D01*
X51253Y-25164D01*
X51296Y-25183D01*
X51317Y-25202D01*
X51339Y-25240D01*
X51339Y-25335D01*
X51317Y-25373D01*
X51296Y-25392D01*
X51253Y-25411D01*
X51146Y-25411D01*
X51103Y-25392D01*
X51082Y-25373D01*
X51553Y-25411D02*
X51639Y-25411D01*
X51682Y-25392D01*
X51703Y-25373D01*
X51746Y-25316D01*
X51767Y-25240D01*
X51767Y-25088D01*
X51746Y-25050D01*
X51725Y-25030D01*
X51682Y-25011D01*
X51596Y-25011D01*
X51553Y-25030D01*
X51532Y-25050D01*
X51510Y-25088D01*
X51510Y-25183D01*
X51532Y-25221D01*
X51553Y-25240D01*
X51596Y-25259D01*
X51682Y-25259D01*
X51725Y-25240D01*
X51746Y-25221D01*
X51767Y-25183D01*
X52175Y-25011D02*
X51960Y-25011D01*
X51939Y-25202D01*
X51960Y-25183D01*
X52003Y-25164D01*
X52110Y-25164D01*
X52153Y-25183D01*
X52175Y-25202D01*
X52196Y-25240D01*
X52196Y-25335D01*
X52175Y-25373D01*
X52153Y-25392D01*
X52110Y-25411D01*
X52003Y-25411D01*
X51960Y-25392D01*
X51939Y-25373D01*
X50871Y-18692D02*
X50728Y-18792D01*
X50871Y-18864D02*
X50571Y-18864D01*
X50571Y-18750D01*
X50585Y-18721D01*
X50600Y-18707D01*
X50628Y-18692D01*
X50671Y-18692D01*
X50700Y-18707D01*
X50714Y-18721D01*
X50728Y-18750D01*
X50728Y-18864D01*
X50871Y-18407D02*
X50871Y-18578D01*
X50871Y-18492D02*
X50571Y-18492D01*
X50614Y-18521D01*
X50642Y-18550D01*
X50657Y-18578D01*
X50671Y-18150D02*
X50871Y-18150D01*
X50557Y-18221D02*
X50771Y-18292D01*
X50771Y-18107D01*
X47871Y-18692D02*
X47728Y-18792D01*
X47871Y-18864D02*
X47571Y-18864D01*
X47571Y-18750D01*
X47585Y-18721D01*
X47600Y-18707D01*
X47628Y-18692D01*
X47671Y-18692D01*
X47700Y-18707D01*
X47714Y-18721D01*
X47728Y-18750D01*
X47728Y-18864D01*
X47871Y-18407D02*
X47871Y-18578D01*
X47871Y-18492D02*
X47571Y-18492D01*
X47614Y-18521D01*
X47642Y-18550D01*
X47657Y-18578D01*
X47571Y-18150D02*
X47571Y-18207D01*
X47585Y-18235D01*
X47600Y-18250D01*
X47642Y-18278D01*
X47700Y-18292D01*
X47814Y-18292D01*
X47842Y-18278D01*
X47857Y-18264D01*
X47871Y-18235D01*
X47871Y-18178D01*
X47857Y-18150D01*
X47842Y-18135D01*
X47814Y-18121D01*
X47742Y-18121D01*
X47714Y-18135D01*
X47700Y-18150D01*
X47685Y-18178D01*
X47685Y-18235D01*
X47700Y-18264D01*
X47714Y-18278D01*
X47742Y-18292D01*
X49371Y-18692D02*
X49228Y-18792D01*
X49371Y-18864D02*
X49071Y-18864D01*
X49071Y-18750D01*
X49085Y-18721D01*
X49100Y-18707D01*
X49128Y-18692D01*
X49171Y-18692D01*
X49200Y-18707D01*
X49214Y-18721D01*
X49228Y-18750D01*
X49228Y-18864D01*
X49371Y-18407D02*
X49371Y-18578D01*
X49371Y-18492D02*
X49071Y-18492D01*
X49114Y-18521D01*
X49142Y-18550D01*
X49157Y-18578D01*
X49071Y-18135D02*
X49071Y-18278D01*
X49214Y-18292D01*
X49200Y-18278D01*
X49185Y-18250D01*
X49185Y-18178D01*
X49200Y-18150D01*
X49214Y-18135D01*
X49242Y-18121D01*
X49314Y-18121D01*
X49342Y-18135D01*
X49357Y-18150D01*
X49371Y-18178D01*
X49371Y-18250D01*
X49357Y-18278D01*
X49342Y-18292D01*
X46371Y-18692D02*
X46228Y-18792D01*
X46371Y-18864D02*
X46071Y-18864D01*
X46071Y-18750D01*
X46085Y-18721D01*
X46100Y-18707D01*
X46128Y-18692D01*
X46171Y-18692D01*
X46200Y-18707D01*
X46214Y-18721D01*
X46228Y-18750D01*
X46228Y-18864D01*
X46371Y-18407D02*
X46371Y-18578D01*
X46371Y-18492D02*
X46071Y-18492D01*
X46114Y-18521D01*
X46142Y-18550D01*
X46157Y-18578D01*
X46071Y-18307D02*
X46071Y-18107D01*
X46371Y-18235D01*
X52371Y-18692D02*
X52228Y-18792D01*
X52371Y-18864D02*
X52071Y-18864D01*
X52071Y-18750D01*
X52085Y-18721D01*
X52100Y-18707D01*
X52128Y-18692D01*
X52171Y-18692D01*
X52200Y-18707D01*
X52214Y-18721D01*
X52228Y-18750D01*
X52228Y-18864D01*
X52371Y-18407D02*
X52371Y-18578D01*
X52371Y-18492D02*
X52071Y-18492D01*
X52114Y-18521D01*
X52142Y-18550D01*
X52157Y-18578D01*
X52071Y-18307D02*
X52071Y-18121D01*
X52185Y-18221D01*
X52185Y-18178D01*
X52200Y-18150D01*
X52214Y-18135D01*
X52242Y-18121D01*
X52314Y-18121D01*
X52342Y-18135D01*
X52357Y-18150D01*
X52371Y-18178D01*
X52371Y-18264D01*
X52357Y-18292D01*
X52342Y-18307D01*
X53871Y-18692D02*
X53728Y-18792D01*
X53871Y-18864D02*
X53571Y-18864D01*
X53571Y-18750D01*
X53585Y-18721D01*
X53600Y-18707D01*
X53628Y-18692D01*
X53671Y-18692D01*
X53700Y-18707D01*
X53714Y-18721D01*
X53728Y-18750D01*
X53728Y-18864D01*
X53871Y-18407D02*
X53871Y-18578D01*
X53871Y-18492D02*
X53571Y-18492D01*
X53614Y-18521D01*
X53642Y-18550D01*
X53657Y-18578D01*
X53600Y-18292D02*
X53585Y-18278D01*
X53571Y-18250D01*
X53571Y-18178D01*
X53585Y-18150D01*
X53600Y-18135D01*
X53628Y-18121D01*
X53657Y-18121D01*
X53700Y-18135D01*
X53871Y-18307D01*
X53871Y-18121D01*
X55371Y-18692D02*
X55228Y-18792D01*
X55371Y-18864D02*
X55071Y-18864D01*
X55071Y-18750D01*
X55085Y-18721D01*
X55100Y-18707D01*
X55128Y-18692D01*
X55171Y-18692D01*
X55200Y-18707D01*
X55214Y-18721D01*
X55228Y-18750D01*
X55228Y-18864D01*
X55371Y-18407D02*
X55371Y-18578D01*
X55371Y-18492D02*
X55071Y-18492D01*
X55114Y-18521D01*
X55142Y-18550D01*
X55157Y-18578D01*
X55371Y-18121D02*
X55371Y-18292D01*
X55371Y-18207D02*
X55071Y-18207D01*
X55114Y-18235D01*
X55142Y-18264D01*
X55157Y-18292D01*
X44871Y-18692D02*
X44728Y-18792D01*
X44871Y-18864D02*
X44571Y-18864D01*
X44571Y-18750D01*
X44585Y-18721D01*
X44600Y-18707D01*
X44628Y-18692D01*
X44671Y-18692D01*
X44700Y-18707D01*
X44714Y-18721D01*
X44728Y-18750D01*
X44728Y-18864D01*
X44871Y-18407D02*
X44871Y-18578D01*
X44871Y-18492D02*
X44571Y-18492D01*
X44614Y-18521D01*
X44642Y-18550D01*
X44657Y-18578D01*
X44700Y-18235D02*
X44685Y-18264D01*
X44671Y-18278D01*
X44642Y-18292D01*
X44628Y-18292D01*
X44600Y-18278D01*
X44585Y-18264D01*
X44571Y-18235D01*
X44571Y-18178D01*
X44585Y-18150D01*
X44600Y-18135D01*
X44628Y-18121D01*
X44642Y-18121D01*
X44671Y-18135D01*
X44685Y-18150D01*
X44700Y-18178D01*
X44700Y-18235D01*
X44714Y-18264D01*
X44728Y-18278D01*
X44757Y-18292D01*
X44814Y-18292D01*
X44842Y-18278D01*
X44857Y-18264D01*
X44871Y-18235D01*
X44871Y-18178D01*
X44857Y-18150D01*
X44842Y-18135D01*
X44814Y-18121D01*
X44757Y-18121D01*
X44728Y-18135D01*
X44714Y-18150D01*
X44700Y-18178D01*
G54D19*
X42330Y-15780D02*
X42235Y-15840D01*
X42330Y-15882D02*
X42130Y-15882D01*
X42130Y-15814D01*
X42140Y-15797D01*
X42150Y-15788D01*
X42169Y-15780D01*
X42197Y-15780D01*
X42216Y-15788D01*
X42226Y-15797D01*
X42235Y-15814D01*
X42235Y-15882D01*
X42150Y-15711D02*
X42140Y-15702D01*
X42130Y-15685D01*
X42130Y-15642D01*
X42140Y-15625D01*
X42150Y-15617D01*
X42169Y-15608D01*
X42188Y-15608D01*
X42216Y-15617D01*
X42330Y-15720D01*
X42330Y-15608D01*
X57580Y-22030D02*
X57485Y-22090D01*
X57580Y-22132D02*
X57380Y-22132D01*
X57380Y-22064D01*
X57390Y-22047D01*
X57400Y-22038D01*
X57419Y-22030D01*
X57447Y-22030D01*
X57466Y-22038D01*
X57476Y-22047D01*
X57485Y-22064D01*
X57485Y-22132D01*
X57380Y-21970D02*
X57380Y-21858D01*
X57457Y-21918D01*
X57457Y-21892D01*
X57466Y-21875D01*
X57476Y-21867D01*
X57495Y-21858D01*
X57542Y-21858D01*
X57561Y-21867D01*
X57571Y-21875D01*
X57580Y-21892D01*
X57580Y-21944D01*
X57571Y-21961D01*
X57561Y-21970D01*
X40561Y-21780D02*
X40571Y-21788D01*
X40580Y-21814D01*
X40580Y-21831D01*
X40571Y-21857D01*
X40552Y-21874D01*
X40533Y-21882D01*
X40495Y-21891D01*
X40466Y-21891D01*
X40428Y-21882D01*
X40409Y-21874D01*
X40390Y-21857D01*
X40380Y-21831D01*
X40380Y-21814D01*
X40390Y-21788D01*
X40400Y-21780D01*
X40380Y-21720D02*
X40380Y-21608D01*
X40457Y-21668D01*
X40457Y-21642D01*
X40466Y-21625D01*
X40476Y-21617D01*
X40495Y-21608D01*
X40542Y-21608D01*
X40561Y-21617D01*
X40571Y-21625D01*
X40580Y-21642D01*
X40580Y-21694D01*
X40571Y-21711D01*
X40561Y-21720D01*
X56080Y-22030D02*
X55985Y-22090D01*
X56080Y-22132D02*
X55880Y-22132D01*
X55880Y-22064D01*
X55890Y-22047D01*
X55900Y-22038D01*
X55919Y-22030D01*
X55947Y-22030D01*
X55966Y-22038D01*
X55976Y-22047D01*
X55985Y-22064D01*
X55985Y-22132D01*
X55947Y-21875D02*
X56080Y-21875D01*
X55871Y-21918D02*
X56014Y-21961D01*
X56014Y-21850D01*
X54580Y-22030D02*
X54485Y-22090D01*
X54580Y-22132D02*
X54380Y-22132D01*
X54380Y-22064D01*
X54390Y-22047D01*
X54400Y-22038D01*
X54419Y-22030D01*
X54447Y-22030D01*
X54466Y-22038D01*
X54476Y-22047D01*
X54485Y-22064D01*
X54485Y-22132D01*
X54380Y-21867D02*
X54380Y-21952D01*
X54476Y-21961D01*
X54466Y-21952D01*
X54457Y-21935D01*
X54457Y-21892D01*
X54466Y-21875D01*
X54476Y-21867D01*
X54495Y-21858D01*
X54542Y-21858D01*
X54561Y-21867D01*
X54571Y-21875D01*
X54580Y-21892D01*
X54580Y-21935D01*
X54571Y-21952D01*
X54561Y-21961D01*
X53080Y-22030D02*
X52985Y-22090D01*
X53080Y-22132D02*
X52880Y-22132D01*
X52880Y-22064D01*
X52890Y-22047D01*
X52900Y-22038D01*
X52919Y-22030D01*
X52947Y-22030D01*
X52966Y-22038D01*
X52976Y-22047D01*
X52985Y-22064D01*
X52985Y-22132D01*
X52880Y-21875D02*
X52880Y-21910D01*
X52890Y-21927D01*
X52900Y-21935D01*
X52928Y-21952D01*
X52966Y-21961D01*
X53042Y-21961D01*
X53061Y-21952D01*
X53071Y-21944D01*
X53080Y-21927D01*
X53080Y-21892D01*
X53071Y-21875D01*
X53061Y-21867D01*
X53042Y-21858D01*
X52995Y-21858D01*
X52976Y-21867D01*
X52966Y-21875D01*
X52957Y-21892D01*
X52957Y-21927D01*
X52966Y-21944D01*
X52976Y-21952D01*
X52995Y-21961D01*
X42330Y-14382D02*
X42130Y-14382D01*
X42130Y-14340D01*
X42140Y-14314D01*
X42159Y-14297D01*
X42178Y-14288D01*
X42216Y-14280D01*
X42245Y-14280D01*
X42283Y-14288D01*
X42302Y-14297D01*
X42321Y-14314D01*
X42330Y-14340D01*
X42330Y-14382D01*
X42130Y-14220D02*
X42130Y-14108D01*
X42207Y-14168D01*
X42207Y-14142D01*
X42216Y-14125D01*
X42226Y-14117D01*
X42245Y-14108D01*
X42292Y-14108D01*
X42311Y-14117D01*
X42321Y-14125D01*
X42330Y-14142D01*
X42330Y-14194D01*
X42321Y-14211D01*
X42311Y-14220D01*
X41080Y-15780D02*
X40985Y-15840D01*
X41080Y-15882D02*
X40880Y-15882D01*
X40880Y-15814D01*
X40890Y-15797D01*
X40900Y-15788D01*
X40919Y-15780D01*
X40947Y-15780D01*
X40966Y-15788D01*
X40976Y-15797D01*
X40985Y-15814D01*
X40985Y-15882D01*
X41080Y-15608D02*
X41080Y-15711D01*
X41080Y-15660D02*
X40880Y-15660D01*
X40909Y-15677D01*
X40928Y-15694D01*
X40938Y-15711D01*
X51580Y-22030D02*
X51485Y-22090D01*
X51580Y-22132D02*
X51380Y-22132D01*
X51380Y-22064D01*
X51390Y-22047D01*
X51400Y-22038D01*
X51419Y-22030D01*
X51447Y-22030D01*
X51466Y-22038D01*
X51476Y-22047D01*
X51485Y-22064D01*
X51485Y-22132D01*
X51380Y-21970D02*
X51380Y-21850D01*
X51580Y-21927D01*
X41080Y-14382D02*
X40880Y-14382D01*
X40880Y-14340D01*
X40890Y-14314D01*
X40909Y-14297D01*
X40928Y-14288D01*
X40966Y-14280D01*
X40995Y-14280D01*
X41033Y-14288D01*
X41052Y-14297D01*
X41071Y-14314D01*
X41080Y-14340D01*
X41080Y-14382D01*
X41080Y-14108D02*
X41080Y-14211D01*
X41080Y-14160D02*
X40880Y-14160D01*
X40909Y-14177D01*
X40928Y-14194D01*
X40938Y-14211D01*
X53220Y-26311D02*
X53211Y-26321D01*
X53185Y-26330D01*
X53168Y-26330D01*
X53142Y-26321D01*
X53125Y-26302D01*
X53117Y-26283D01*
X53108Y-26245D01*
X53108Y-26216D01*
X53117Y-26178D01*
X53125Y-26159D01*
X53142Y-26140D01*
X53168Y-26130D01*
X53185Y-26130D01*
X53211Y-26140D01*
X53220Y-26150D01*
X53391Y-26330D02*
X53288Y-26330D01*
X53340Y-26330D02*
X53340Y-26130D01*
X53322Y-26159D01*
X53305Y-26178D01*
X53288Y-26188D01*
X50080Y-22030D02*
X49985Y-22090D01*
X50080Y-22132D02*
X49880Y-22132D01*
X49880Y-22064D01*
X49890Y-22047D01*
X49900Y-22038D01*
X49919Y-22030D01*
X49947Y-22030D01*
X49966Y-22038D01*
X49976Y-22047D01*
X49985Y-22064D01*
X49985Y-22132D01*
X49966Y-21927D02*
X49957Y-21944D01*
X49947Y-21952D01*
X49928Y-21961D01*
X49919Y-21961D01*
X49900Y-21952D01*
X49890Y-21944D01*
X49880Y-21927D01*
X49880Y-21892D01*
X49890Y-21875D01*
X49900Y-21867D01*
X49919Y-21858D01*
X49928Y-21858D01*
X49947Y-21867D01*
X49957Y-21875D01*
X49966Y-21892D01*
X49966Y-21927D01*
X49976Y-21944D01*
X49985Y-21952D01*
X50004Y-21961D01*
X50042Y-21961D01*
X50061Y-21952D01*
X50071Y-21944D01*
X50080Y-21927D01*
X50080Y-21892D01*
X50071Y-21875D01*
X50061Y-21867D01*
X50042Y-21858D01*
X50004Y-21858D01*
X49985Y-21867D01*
X49976Y-21875D01*
X49966Y-21892D01*
X47080Y-22115D02*
X46985Y-22175D01*
X47080Y-22218D02*
X46880Y-22218D01*
X46880Y-22150D01*
X46890Y-22132D01*
X46900Y-22124D01*
X46919Y-22115D01*
X46947Y-22115D01*
X46966Y-22124D01*
X46976Y-22132D01*
X46985Y-22150D01*
X46985Y-22218D01*
X47080Y-21944D02*
X47080Y-22047D01*
X47080Y-21995D02*
X46880Y-21995D01*
X46909Y-22012D01*
X46928Y-22030D01*
X46938Y-22047D01*
X46880Y-21832D02*
X46880Y-21815D01*
X46890Y-21798D01*
X46900Y-21790D01*
X46919Y-21781D01*
X46957Y-21772D01*
X47004Y-21772D01*
X47042Y-21781D01*
X47061Y-21790D01*
X47071Y-21798D01*
X47080Y-21815D01*
X47080Y-21832D01*
X47071Y-21850D01*
X47061Y-21858D01*
X47042Y-21867D01*
X47004Y-21875D01*
X46957Y-21875D01*
X46919Y-21867D01*
X46900Y-21858D01*
X46890Y-21850D01*
X46880Y-21832D01*
X48580Y-22030D02*
X48485Y-22090D01*
X48580Y-22132D02*
X48380Y-22132D01*
X48380Y-22064D01*
X48390Y-22047D01*
X48400Y-22038D01*
X48419Y-22030D01*
X48447Y-22030D01*
X48466Y-22038D01*
X48476Y-22047D01*
X48485Y-22064D01*
X48485Y-22132D01*
X48580Y-21944D02*
X48580Y-21910D01*
X48571Y-21892D01*
X48561Y-21884D01*
X48533Y-21867D01*
X48495Y-21858D01*
X48419Y-21858D01*
X48400Y-21867D01*
X48390Y-21875D01*
X48380Y-21892D01*
X48380Y-21927D01*
X48390Y-21944D01*
X48400Y-21952D01*
X48419Y-21961D01*
X48466Y-21961D01*
X48485Y-21952D01*
X48495Y-21944D01*
X48504Y-21927D01*
X48504Y-21892D01*
X48495Y-21875D01*
X48485Y-21867D01*
X48466Y-21858D01*
G54D15*
X48800Y-29142D02*
X48800Y-29571D01*
X48771Y-29657D01*
X48714Y-29714D01*
X48628Y-29742D01*
X48571Y-29742D01*
X49400Y-29742D02*
X49057Y-29742D01*
X49228Y-29742D02*
X49228Y-29142D01*
X49171Y-29228D01*
X49114Y-29285D01*
X49057Y-29314D01*
G54D14*
X44652Y-32619D02*
X44521Y-32431D01*
X44427Y-32619D02*
X44427Y-32225D01*
X44577Y-32225D01*
X44615Y-32244D01*
X44633Y-32263D01*
X44652Y-32300D01*
X44652Y-32356D01*
X44633Y-32394D01*
X44615Y-32413D01*
X44577Y-32431D01*
X44427Y-32431D01*
X44934Y-32225D02*
X44934Y-32506D01*
X44915Y-32563D01*
X44877Y-32600D01*
X44821Y-32619D01*
X44783Y-32619D01*
X45290Y-32356D02*
X45290Y-32619D01*
X45196Y-32206D02*
X45102Y-32488D01*
X45346Y-32488D01*
X45684Y-32225D02*
X45496Y-32225D01*
X45478Y-32413D01*
X45496Y-32394D01*
X45534Y-32375D01*
X45628Y-32375D01*
X45665Y-32394D01*
X45684Y-32413D01*
X45703Y-32450D01*
X45703Y-32544D01*
X45684Y-32581D01*
X45665Y-32600D01*
X45628Y-32619D01*
X45534Y-32619D01*
X45496Y-32600D01*
X45478Y-32581D01*
G54D15*
X56550Y-29142D02*
X56550Y-29571D01*
X56521Y-29657D01*
X56464Y-29714D01*
X56378Y-29742D01*
X56321Y-29742D01*
X56807Y-29200D02*
X56835Y-29171D01*
X56892Y-29142D01*
X57035Y-29142D01*
X57092Y-29171D01*
X57121Y-29200D01*
X57150Y-29257D01*
X57150Y-29314D01*
X57121Y-29400D01*
X56778Y-29742D01*
X57150Y-29742D01*
G54D14*
X52652Y-32619D02*
X52521Y-32431D01*
X52427Y-32619D02*
X52427Y-32225D01*
X52577Y-32225D01*
X52615Y-32244D01*
X52633Y-32263D01*
X52652Y-32300D01*
X52652Y-32356D01*
X52633Y-32394D01*
X52615Y-32413D01*
X52577Y-32431D01*
X52427Y-32431D01*
X52934Y-32225D02*
X52934Y-32506D01*
X52915Y-32563D01*
X52877Y-32600D01*
X52821Y-32619D01*
X52783Y-32619D01*
X53290Y-32356D02*
X53290Y-32619D01*
X53196Y-32206D02*
X53102Y-32488D01*
X53346Y-32488D01*
X53684Y-32225D02*
X53496Y-32225D01*
X53478Y-32413D01*
X53496Y-32394D01*
X53534Y-32375D01*
X53628Y-32375D01*
X53665Y-32394D01*
X53684Y-32413D01*
X53703Y-32450D01*
X53703Y-32544D01*
X53684Y-32581D01*
X53665Y-32600D01*
X53628Y-32619D01*
X53534Y-32619D01*
X53496Y-32600D01*
X53478Y-32581D01*
X39695Y-17202D02*
X39695Y-17607D01*
X39714Y-17654D01*
X39733Y-17678D01*
X39771Y-17702D01*
X39847Y-17702D01*
X39885Y-17678D01*
X39904Y-17654D01*
X39923Y-17607D01*
X39923Y-17202D01*
X40095Y-17250D02*
X40114Y-17226D01*
X40152Y-17202D01*
X40247Y-17202D01*
X40285Y-17226D01*
X40304Y-17250D01*
X40323Y-17297D01*
X40323Y-17345D01*
X40304Y-17416D01*
X40076Y-17702D01*
X40323Y-17702D01*
X40011Y-20066D02*
X40011Y-19838D01*
X40411Y-19952D02*
X40011Y-19952D01*
X40392Y-19723D02*
X40411Y-19666D01*
X40411Y-19571D01*
X40392Y-19533D01*
X40373Y-19514D01*
X40335Y-19495D01*
X40297Y-19495D01*
X40259Y-19514D01*
X40240Y-19533D01*
X40221Y-19571D01*
X40202Y-19647D01*
X40183Y-19685D01*
X40164Y-19704D01*
X40126Y-19723D01*
X40088Y-19723D01*
X40050Y-19704D01*
X40030Y-19685D01*
X40011Y-19647D01*
X40011Y-19552D01*
X40030Y-19495D01*
X40050Y-19342D02*
X40030Y-19323D01*
X40011Y-19285D01*
X40011Y-19190D01*
X40030Y-19152D01*
X40050Y-19133D01*
X40088Y-19114D01*
X40126Y-19114D01*
X40183Y-19133D01*
X40411Y-19361D01*
X40411Y-19114D01*
X40411Y-18923D02*
X40411Y-18847D01*
X40392Y-18809D01*
X40373Y-18790D01*
X40316Y-18752D01*
X40240Y-18733D01*
X40088Y-18733D01*
X40050Y-18752D01*
X40030Y-18771D01*
X40011Y-18809D01*
X40011Y-18885D01*
X40030Y-18923D01*
X40050Y-18942D01*
X40088Y-18961D01*
X40183Y-18961D01*
X40221Y-18942D01*
X40240Y-18923D01*
X40259Y-18885D01*
X40259Y-18809D01*
X40240Y-18771D01*
X40221Y-18752D01*
X40183Y-18733D01*
X40011Y-18600D02*
X40011Y-18352D01*
X40164Y-18485D01*
X40164Y-18428D01*
X40183Y-18390D01*
X40202Y-18371D01*
X40240Y-18352D01*
X40335Y-18352D01*
X40373Y-18371D01*
X40392Y-18390D01*
X40411Y-18428D01*
X40411Y-18542D01*
X40392Y-18580D01*
X40373Y-18600D01*
X40011Y-18219D02*
X40011Y-17952D01*
X40411Y-18123D01*
G54D16*
X40485Y-25032D02*
X40495Y-25042D01*
X40504Y-25070D01*
X40504Y-25089D01*
X40495Y-25117D01*
X40476Y-25136D01*
X40457Y-25145D01*
X40420Y-25154D01*
X40392Y-25154D01*
X40354Y-25145D01*
X40335Y-25136D01*
X40317Y-25117D01*
X40307Y-25089D01*
X40307Y-25070D01*
X40317Y-25042D01*
X40326Y-25032D01*
X40326Y-24957D02*
X40317Y-24948D01*
X40307Y-24929D01*
X40307Y-24882D01*
X40317Y-24863D01*
X40326Y-24854D01*
X40345Y-24845D01*
X40364Y-24845D01*
X40392Y-24854D01*
X40504Y-24967D01*
X40504Y-24845D01*
G54D19*
X44561Y-21780D02*
X44571Y-21788D01*
X44580Y-21814D01*
X44580Y-21831D01*
X44571Y-21857D01*
X44552Y-21874D01*
X44533Y-21882D01*
X44495Y-21891D01*
X44466Y-21891D01*
X44428Y-21882D01*
X44409Y-21874D01*
X44390Y-21857D01*
X44380Y-21831D01*
X44380Y-21814D01*
X44390Y-21788D01*
X44400Y-21780D01*
X44380Y-21617D02*
X44380Y-21702D01*
X44476Y-21711D01*
X44466Y-21702D01*
X44457Y-21685D01*
X44457Y-21642D01*
X44466Y-21625D01*
X44476Y-21617D01*
X44495Y-21608D01*
X44542Y-21608D01*
X44561Y-21617D01*
X44571Y-21625D01*
X44580Y-21642D01*
X44580Y-21685D01*
X44571Y-21702D01*
X44561Y-21711D01*
G54D10*
G36*
X47379Y-16700D02*
X46620Y-16700D01*
X47000Y-16320D01*
X47379Y-16700D01*
X47379Y-16700D01*
G37*
G54D20*
X47379Y-16700D02*
X46620Y-16700D01*
X47000Y-16320D01*
X47379Y-16700D01*
%LPC*%
G54D21*
X53300Y-15050D03*
X44700Y-15050D03*
G54D22*
X47000Y-15750D03*
G54D23*
X47000Y-14750D03*
X48000Y-15750D03*
X48000Y-14750D03*
X49000Y-15750D03*
X49000Y-14750D03*
X50000Y-15750D03*
X50000Y-14750D03*
X51000Y-15750D03*
X51000Y-14750D03*
G54D24*
X44000Y-23819D03*
G54D25*
X44000Y-26181D03*
G54D26*
X47625Y-20084D03*
X47250Y-20916D03*
X46875Y-20084D03*
X56625Y-20084D03*
X56250Y-20916D03*
X55875Y-20084D03*
X49125Y-20084D03*
X48750Y-20916D03*
X48375Y-20084D03*
X55125Y-20084D03*
X54750Y-20916D03*
X54375Y-20084D03*
X46125Y-20084D03*
X45750Y-20916D03*
X45375Y-20084D03*
X53625Y-20084D03*
X53250Y-20916D03*
X52875Y-20084D03*
X52125Y-20084D03*
X51750Y-20916D03*
X51375Y-20084D03*
X50625Y-20084D03*
X50250Y-20916D03*
X49875Y-20084D03*
G54D27*
X41591Y-22500D03*
X42909Y-22500D03*
G54D28*
X52500Y-24250D03*
X52000Y-24250D03*
X51500Y-24250D03*
X51000Y-24250D03*
X50500Y-24250D03*
X50000Y-24250D03*
X49500Y-24250D03*
X49000Y-24250D03*
X49000Y-26250D03*
X49500Y-26250D03*
X50000Y-26250D03*
X50500Y-26250D03*
X51000Y-26250D03*
X51500Y-26250D03*
X52000Y-26250D03*
X52500Y-26250D03*
G54D29*
X51500Y-19150D03*
X51500Y-17850D03*
X48500Y-19150D03*
X48500Y-17850D03*
X50000Y-19150D03*
X50000Y-17850D03*
X47000Y-19150D03*
X47000Y-17850D03*
X53000Y-19150D03*
X53000Y-17850D03*
X54500Y-19150D03*
X54500Y-17850D03*
X56000Y-19150D03*
X56000Y-17850D03*
X45500Y-19150D03*
X45500Y-17850D03*
G54D30*
X41750Y-16050D03*
X41750Y-15450D03*
X57000Y-21200D03*
X57000Y-21800D03*
X40000Y-21450D03*
X40000Y-22050D03*
X55500Y-21200D03*
X55500Y-21800D03*
X54000Y-21200D03*
X54000Y-21800D03*
X52500Y-21200D03*
X52500Y-21800D03*
X41750Y-14550D03*
X41750Y-13950D03*
X40500Y-16050D03*
X40500Y-15450D03*
X51000Y-21200D03*
X51000Y-21800D03*
X40500Y-14550D03*
X40500Y-13950D03*
G54D31*
X52950Y-26750D03*
X53550Y-26750D03*
G54D30*
X49500Y-21200D03*
X49500Y-21800D03*
X46500Y-21200D03*
X46500Y-21800D03*
X48000Y-21200D03*
X48000Y-21800D03*
G54D32*
X47250Y-32500D03*
X42750Y-32500D03*
G54D33*
X43250Y-30000D03*
G54D34*
X43750Y-29000D03*
X44250Y-30000D03*
X44750Y-29000D03*
X45250Y-30000D03*
X45750Y-29000D03*
X46250Y-30000D03*
X46750Y-29000D03*
G54D35*
X41950Y-31299D03*
X48050Y-31299D03*
G54D32*
X55250Y-32500D03*
X50750Y-32500D03*
G54D33*
X51250Y-30000D03*
G54D34*
X51750Y-29000D03*
X52250Y-30000D03*
X52750Y-29000D03*
X53250Y-30000D03*
X53750Y-29000D03*
X54250Y-30000D03*
X54750Y-29000D03*
G54D35*
X49950Y-31299D03*
X56050Y-31299D03*
G54D36*
X41100Y-21000D03*
G54D37*
X42000Y-18500D03*
G54D36*
X42900Y-21000D03*
G54D24*
X41500Y-23819D03*
G54D25*
X41500Y-26181D03*
G54D30*
X44000Y-21450D03*
X44000Y-22050D03*
M02*
