M48
;DRILL file {Pcbnew (2013-may-18)-stable} date Thu 01 May 2014 10:50:22 PM CEST
;FORMAT={-:-/ absolute / metric / decimal}
FMAT,2
METRIC,TZ
T1C0.200
T2C0.500
T3C0.813
T4C0.899
T5C1.001
T6C1.270
T7C1.524
T8C1.600
T9C2.500
T10C2.540
T11C3.000
T12C3.048
T13C3.251
%
G90
G05
M71
T1
X51.435Y-53.34
X55.245Y-41.91
X57.15Y-41.91
X61.595Y-53.34
X66.04Y-54.61
X66.04Y-64.135
X69.85Y-54.61
X73.025Y-43.815
X73.66Y-54.61
X74.295Y-69.85
X74.295Y-71.12
X75.565Y-72.39
X76.835Y-71.12
X77.47Y-54.61
X77.47Y-114.3
X77.47Y-117.475
X78.105Y-72.39
X78.105Y-76.2
X78.74Y-112.395
X80.01Y-113.665
X80.01Y-119.38
X80.645Y-43.815
X81.28Y-54.61
X81.28Y-117.475
X81.915Y-64.77
X82.55Y-109.22
X83.82Y-113.665
X83.82Y-118.11
X83.82Y-119.38
X85.09Y-54.61
X85.09Y-64.77
X85.09Y-109.22
X85.09Y-114.935
X87.63Y-112.395
X87.63Y-118.11
X88.265Y-36.195
X88.265Y-43.815
X88.9Y-54.61
X88.9Y-109.22
X91.44Y-119.38
X92.71Y-54.61
X93.345Y-120.65
X97.155Y-118.11
X101.6Y-53.34
X101.6Y-119.38
X103.505Y-113.03
X104.775Y-114.3
X105.41Y-41.91
X106.045Y-118.11
X107.315Y-41.91
X107.315Y-118.11
X107.315Y-119.38
X109.855Y-118.11
X111.76Y-53.34
X114.935Y-111.125
X116.205Y-54.61
X116.205Y-64.135
X116.205Y-113.03
X120.015Y-54.61
X123.19Y-43.815
X123.825Y-54.61
X124.46Y-69.85
X124.46Y-71.12
X125.73Y-72.39
X126.365Y-111.125
X127.Y-71.12
X127.635Y-54.61
X128.27Y-72.39
X128.27Y-76.2
X130.81Y-43.815
X131.445Y-54.61
X132.08Y-64.77
X135.255Y-54.61
X135.255Y-64.77
X138.43Y-36.195
X138.43Y-43.815
X139.065Y-54.61
X142.875Y-54.61
T2
X81.915Y-69.85
X132.08Y-69.85
T3
X69.215Y-37.465
X69.215Y-40.005
X71.755Y-37.465
X71.755Y-40.005
X74.295Y-37.465
X74.295Y-40.005
X76.2Y-127.
X76.835Y-37.465
X76.835Y-40.005
X78.74Y-127.
X79.375Y-37.465
X79.375Y-40.005
X81.28Y-127.
X83.82Y-127.
X86.36Y-127.
X88.9Y-127.
X91.44Y-127.
X117.475Y-114.3
X117.475Y-121.92
X119.38Y-37.465
X119.38Y-40.005
X121.92Y-37.465
X121.92Y-40.005
X122.555Y-114.3
X122.555Y-121.92
X124.46Y-37.465
X124.46Y-40.005
X127.Y-37.465
X127.Y-40.005
X129.54Y-37.465
X129.54Y-40.005
T4
X59.69Y-76.2
X60.96Y-73.66
X62.23Y-76.2
X63.5Y-73.66
X64.77Y-76.2
X66.04Y-73.66
X66.675Y-109.22
X66.675Y-111.76
X66.675Y-114.3
X66.675Y-116.84
X67.31Y-76.2
X68.58Y-73.66
X69.215Y-110.49
X69.215Y-113.03
X69.215Y-115.57
X69.215Y-118.11
X80.01Y-76.2
X81.28Y-73.66
X82.55Y-76.2
X83.82Y-73.66
X85.09Y-76.2
X86.36Y-73.66
X87.63Y-76.2
X88.9Y-73.66
X96.561Y-124.48
X99.06Y-126.98
X101.559Y-124.48
X109.855Y-76.2
X111.125Y-73.66
X112.395Y-76.2
X113.665Y-73.66
X114.935Y-76.2
X116.205Y-73.66
X117.475Y-76.2
X118.745Y-73.66
X130.175Y-76.2
X131.445Y-73.66
X132.715Y-76.2
X133.985Y-73.66
X135.255Y-76.2
X136.525Y-73.66
X137.795Y-76.2
X139.065Y-73.66
T5
X66.675Y-101.6
T6
X84.455Y-101.6
T7
X66.675Y-93.98
X71.755Y-93.98
T8
X56.39Y-79.5
X63.375Y-105.92
X63.375Y-121.412
X71.882Y-79.5
X76.71Y-79.5
X92.202Y-79.5
X106.555Y-79.5
X122.047Y-79.5
X126.875Y-79.5
X142.367Y-79.5
T9
X51.816Y-36.576
X51.816Y-86.614
X96.774Y-36.576
X96.774Y-86.614
X101.981Y-36.576
X101.981Y-86.614
X146.939Y-36.576
X146.939Y-86.614
T10
X63.373Y-38.227
X85.217Y-38.227
X113.538Y-38.227
X135.382Y-38.227
T11
X58.42Y-82.55
T12
X53.34Y-93.98
X53.34Y-129.54
X128.27Y-93.98
X128.27Y-129.54
T13
X60.325Y-107.95
X60.325Y-119.38
X69.85Y-82.55
X78.74Y-82.55
X90.17Y-82.55
X108.585Y-82.55
X120.015Y-82.55
X128.905Y-82.55
X140.335Y-82.55
T0
M30
