G04 (created by PCBNEW (2013-may-18)-stable) date Tue 21 Oct 2014 09:53:05 PM CEST*
%MOIN*%
G04 Gerber Fmt 3.4, Leading zero omitted, Abs format*
%FSLAX34Y34*%
G01*
G70*
G90*
G04 APERTURE LIST*
%ADD10C,0.00590551*%
%ADD11R,0.045X0.025*%
%ADD12R,0.0335X0.0335*%
%ADD13R,0.1063X0.1004*%
%ADD14R,0.1496X0.1004*%
%ADD15R,0.065X0.12*%
%ADD16R,0.24X0.24*%
%ADD17R,0.025X0.045*%
%ADD18R,0.08X0.06*%
%ADD19R,0.02X0.045*%
%ADD20R,0.0236X0.0394*%
%ADD21C,0.12*%
%ADD22R,0.06X0.06*%
%ADD23C,0.06*%
%ADD24C,0.137795*%
%ADD25C,0.11811*%
%ADD26R,0.0591X0.0591*%
%ADD27C,0.0591*%
%ADD28C,0.0984252*%
%ADD29C,0.0689*%
%ADD30C,0.055*%
%ADD31R,0.0394X0.0236*%
%ADD32R,0.0236X0.0551*%
%ADD33C,0.1437*%
%ADD34R,0.12X0.065*%
%ADD35R,0.1004X0.1063*%
%ADD36R,0.1004X0.1496*%
%ADD37R,0.1X0.1*%
%ADD38C,0.1*%
%ADD39R,0.055X0.055*%
%ADD40C,0.177165*%
%ADD41R,0.2677X0.2461*%
%ADD42R,0.1181X0.0319*%
%ADD43C,0.1575*%
G04 APERTURE END LIST*
G54D10*
G54D11*
X91000Y-60950D03*
X91000Y-61550D03*
X93250Y-61550D03*
X93250Y-60950D03*
X91750Y-61550D03*
X91750Y-60950D03*
X92500Y-61550D03*
X92500Y-60950D03*
X94000Y-61550D03*
X94000Y-60950D03*
G54D12*
X89659Y-60000D03*
X88341Y-60000D03*
X97341Y-60000D03*
X98659Y-60000D03*
X89659Y-59250D03*
X88341Y-59250D03*
X89659Y-60750D03*
X88341Y-60750D03*
X97341Y-60750D03*
X98659Y-60750D03*
G54D11*
X86250Y-55200D03*
X86250Y-55800D03*
G54D13*
X83750Y-57569D03*
G54D14*
X83750Y-59931D03*
G54D15*
X83350Y-54750D03*
G54D16*
X84250Y-52250D03*
G54D15*
X85150Y-54750D03*
G54D11*
X89250Y-55450D03*
X89250Y-56050D03*
X87750Y-55450D03*
X87750Y-56050D03*
X90750Y-55450D03*
X90750Y-56050D03*
G54D17*
X95450Y-60000D03*
X96050Y-60000D03*
G54D11*
X83750Y-48300D03*
X83750Y-47700D03*
X92250Y-55450D03*
X92250Y-56050D03*
X83750Y-49800D03*
X83750Y-49200D03*
X84500Y-48300D03*
X84500Y-47700D03*
X93750Y-55450D03*
X93750Y-56050D03*
X95250Y-55450D03*
X95250Y-56050D03*
X96750Y-55450D03*
X96750Y-56050D03*
X82250Y-55200D03*
X82250Y-55800D03*
X98250Y-55450D03*
X98250Y-56050D03*
X84500Y-49800D03*
X84500Y-49200D03*
G54D18*
X87750Y-52900D03*
X87750Y-51600D03*
X98250Y-52900D03*
X98250Y-51600D03*
X96750Y-52900D03*
X96750Y-51600D03*
X95250Y-52900D03*
X95250Y-51600D03*
X89250Y-52900D03*
X89250Y-51600D03*
X92250Y-52900D03*
X92250Y-51600D03*
X90750Y-52900D03*
X90750Y-51600D03*
X93750Y-52900D03*
X93750Y-51600D03*
G54D19*
X94750Y-58000D03*
X94250Y-58000D03*
X93750Y-58000D03*
X93250Y-58000D03*
X92750Y-58000D03*
X92250Y-58000D03*
X91750Y-58000D03*
X91250Y-58000D03*
X91250Y-60000D03*
X91750Y-60000D03*
X92250Y-60000D03*
X92750Y-60000D03*
X93250Y-60000D03*
X93750Y-60000D03*
X94250Y-60000D03*
X94750Y-60000D03*
G54D12*
X83841Y-56250D03*
X85159Y-56250D03*
G54D20*
X91875Y-54666D03*
X92250Y-53834D03*
X92625Y-54666D03*
X93375Y-54666D03*
X93750Y-53834D03*
X94125Y-54666D03*
X94875Y-54666D03*
X95250Y-53834D03*
X95625Y-54666D03*
X87375Y-54666D03*
X87750Y-53834D03*
X88125Y-54666D03*
X96375Y-54666D03*
X96750Y-53834D03*
X97125Y-54666D03*
X90375Y-54666D03*
X90750Y-53834D03*
X91125Y-54666D03*
X97875Y-54666D03*
X98250Y-53834D03*
X98625Y-54666D03*
X88875Y-54666D03*
X89250Y-53834D03*
X89625Y-54666D03*
G54D13*
X86250Y-57569D03*
G54D14*
X86250Y-59931D03*
G54D21*
X95550Y-48800D03*
X86950Y-48800D03*
G54D22*
X89250Y-49500D03*
G54D23*
X89250Y-48500D03*
X90250Y-49500D03*
X90250Y-48500D03*
X91250Y-49500D03*
X91250Y-48500D03*
X92250Y-49500D03*
X92250Y-48500D03*
X93250Y-49500D03*
X93250Y-48500D03*
G54D24*
X100100Y-48150D03*
X100100Y-67850D03*
X82400Y-67850D03*
X82400Y-48150D03*
G54D25*
X89500Y-66250D03*
X85000Y-66250D03*
G54D26*
X85500Y-63750D03*
G54D27*
X86000Y-62750D03*
X86500Y-63750D03*
X87000Y-62750D03*
X87500Y-63750D03*
X88000Y-62750D03*
X88500Y-63750D03*
X89000Y-62750D03*
G54D28*
X84200Y-65049D03*
X90300Y-65049D03*
G54D25*
X97500Y-66250D03*
X93000Y-66250D03*
G54D26*
X93500Y-63750D03*
G54D27*
X94000Y-62750D03*
X94500Y-63750D03*
X95000Y-62750D03*
X95500Y-63750D03*
X96000Y-62750D03*
X96500Y-63750D03*
X97000Y-62750D03*
G54D28*
X92200Y-65049D03*
X98300Y-65049D03*
G54D25*
X77750Y-66250D03*
X73250Y-66250D03*
G54D26*
X73750Y-63750D03*
G54D27*
X74250Y-62750D03*
X74750Y-63750D03*
X75250Y-62750D03*
X75750Y-63750D03*
X76250Y-62750D03*
X76750Y-63750D03*
X77250Y-62750D03*
G54D28*
X72450Y-65049D03*
X78550Y-65049D03*
G54D25*
X69750Y-66250D03*
X65250Y-66250D03*
G54D26*
X65750Y-63750D03*
G54D27*
X66250Y-62750D03*
X66750Y-63750D03*
X67250Y-62750D03*
X67750Y-63750D03*
X68250Y-62750D03*
X68750Y-63750D03*
X69250Y-62750D03*
G54D28*
X64450Y-65049D03*
X70550Y-65049D03*
G54D24*
X62650Y-48150D03*
X62650Y-67850D03*
X80350Y-67850D03*
X80350Y-48150D03*
G54D21*
X75800Y-48800D03*
X67200Y-48800D03*
G54D22*
X69500Y-49500D03*
G54D23*
X69500Y-48500D03*
X70500Y-49500D03*
X70500Y-48500D03*
X71500Y-49500D03*
X71500Y-48500D03*
X72500Y-49500D03*
X72500Y-48500D03*
X73500Y-49500D03*
X73500Y-48500D03*
G54D13*
X66500Y-57569D03*
G54D14*
X66500Y-59931D03*
G54D20*
X69125Y-54666D03*
X69500Y-53834D03*
X69875Y-54666D03*
X78125Y-54666D03*
X78500Y-53834D03*
X78875Y-54666D03*
X70625Y-54666D03*
X71000Y-53834D03*
X71375Y-54666D03*
X76625Y-54666D03*
X77000Y-53834D03*
X77375Y-54666D03*
X67625Y-54666D03*
X68000Y-53834D03*
X68375Y-54666D03*
X75125Y-54666D03*
X75500Y-53834D03*
X75875Y-54666D03*
X73625Y-54666D03*
X74000Y-53834D03*
X74375Y-54666D03*
X72125Y-54666D03*
X72500Y-53834D03*
X72875Y-54666D03*
G54D12*
X64091Y-56250D03*
X65409Y-56250D03*
G54D19*
X75000Y-58000D03*
X74500Y-58000D03*
X74000Y-58000D03*
X73500Y-58000D03*
X73000Y-58000D03*
X72500Y-58000D03*
X72000Y-58000D03*
X71500Y-58000D03*
X71500Y-60000D03*
X72000Y-60000D03*
X72500Y-60000D03*
X73000Y-60000D03*
X73500Y-60000D03*
X74000Y-60000D03*
X74500Y-60000D03*
X75000Y-60000D03*
G54D18*
X74000Y-52900D03*
X74000Y-51600D03*
X71000Y-52900D03*
X71000Y-51600D03*
X72500Y-52900D03*
X72500Y-51600D03*
X69500Y-52900D03*
X69500Y-51600D03*
X75500Y-52900D03*
X75500Y-51600D03*
X77000Y-52900D03*
X77000Y-51600D03*
X78500Y-52900D03*
X78500Y-51600D03*
X68000Y-52900D03*
X68000Y-51600D03*
G54D11*
X64750Y-49800D03*
X64750Y-49200D03*
X78500Y-55450D03*
X78500Y-56050D03*
X62500Y-55200D03*
X62500Y-55800D03*
X77000Y-55450D03*
X77000Y-56050D03*
X75500Y-55450D03*
X75500Y-56050D03*
X74000Y-55450D03*
X74000Y-56050D03*
X64750Y-48300D03*
X64750Y-47700D03*
X64000Y-49800D03*
X64000Y-49200D03*
X72500Y-55450D03*
X72500Y-56050D03*
X64000Y-48300D03*
X64000Y-47700D03*
G54D17*
X75700Y-60000D03*
X76300Y-60000D03*
G54D11*
X71000Y-55450D03*
X71000Y-56050D03*
X68000Y-55450D03*
X68000Y-56050D03*
X69500Y-55450D03*
X69500Y-56050D03*
G54D15*
X63600Y-54750D03*
G54D16*
X64500Y-52250D03*
G54D15*
X65400Y-54750D03*
G54D13*
X64000Y-57569D03*
G54D14*
X64000Y-59931D03*
G54D11*
X66500Y-55200D03*
X66500Y-55800D03*
G54D12*
X77591Y-60750D03*
X78909Y-60750D03*
X69909Y-60750D03*
X68591Y-60750D03*
X69909Y-59250D03*
X68591Y-59250D03*
X77591Y-60000D03*
X78909Y-60000D03*
X69909Y-60000D03*
X68591Y-60000D03*
G54D11*
X74250Y-61550D03*
X74250Y-60950D03*
X72750Y-61550D03*
X72750Y-60950D03*
X72000Y-61550D03*
X72000Y-60950D03*
X73500Y-61550D03*
X73500Y-60950D03*
X71250Y-60950D03*
X71250Y-61550D03*
G54D29*
X82234Y-43508D03*
X81250Y-44492D03*
X80266Y-43508D03*
G54D30*
X88500Y-39500D03*
X90500Y-39500D03*
X88500Y-42500D03*
X90500Y-42500D03*
G54D31*
X77084Y-42625D03*
X77916Y-43000D03*
X77084Y-43375D03*
G54D12*
X85409Y-34000D03*
X84091Y-34000D03*
G54D32*
X81000Y-40300D03*
X81000Y-38200D03*
X80500Y-40300D03*
X80000Y-40300D03*
X79500Y-40300D03*
X80500Y-38200D03*
X80000Y-38200D03*
X79500Y-38200D03*
G54D18*
X69500Y-43850D03*
X69500Y-45150D03*
G54D17*
X89950Y-37500D03*
X90550Y-37500D03*
G54D11*
X83750Y-41950D03*
X83750Y-42550D03*
X81000Y-41450D03*
X81000Y-42050D03*
X85500Y-41950D03*
X85500Y-42550D03*
G54D17*
X88700Y-37500D03*
X89300Y-37500D03*
G54D11*
X81000Y-36950D03*
X81000Y-37550D03*
X77500Y-41450D03*
X77500Y-42050D03*
X82000Y-38950D03*
X82000Y-39550D03*
X82000Y-40200D03*
X82000Y-40800D03*
X83250Y-37550D03*
X83250Y-36950D03*
G54D17*
X75950Y-45500D03*
X76550Y-45500D03*
G54D11*
X76750Y-41450D03*
X76750Y-42050D03*
G54D17*
X86300Y-31750D03*
X85700Y-31750D03*
G54D11*
X79500Y-36950D03*
X79500Y-37550D03*
G54D17*
X89950Y-36750D03*
X90550Y-36750D03*
X88700Y-36750D03*
X89300Y-36750D03*
X89950Y-36000D03*
X90550Y-36000D03*
X88700Y-36000D03*
X89300Y-36000D03*
X86300Y-36000D03*
X85700Y-36000D03*
G54D33*
X66000Y-41500D03*
X66000Y-37000D03*
G54D26*
X68500Y-37500D03*
G54D27*
X69500Y-38000D03*
X68500Y-38500D03*
X69500Y-39000D03*
X68500Y-39500D03*
X69500Y-40000D03*
X68500Y-40500D03*
X69500Y-41000D03*
G54D28*
X67200Y-36200D03*
X67200Y-42300D03*
G54D34*
X87000Y-33100D03*
G54D16*
X89500Y-34000D03*
G54D34*
X87000Y-34900D03*
G54D35*
X82431Y-35000D03*
G54D36*
X80069Y-35000D03*
G54D35*
X76069Y-35000D03*
G54D36*
X78431Y-35000D03*
G54D37*
X80250Y-31500D03*
G54D38*
X78250Y-31500D03*
G54D19*
X77250Y-38150D03*
X76750Y-38150D03*
X76250Y-38150D03*
X75750Y-38150D03*
X75250Y-38150D03*
X74750Y-38150D03*
X74250Y-38150D03*
X74250Y-40250D03*
X74750Y-40250D03*
X75250Y-40250D03*
X75750Y-40250D03*
X76250Y-40250D03*
X76750Y-40250D03*
X77250Y-40250D03*
G54D39*
X72250Y-44500D03*
G54D30*
X73250Y-44500D03*
X74250Y-44500D03*
X75250Y-44500D03*
X76250Y-44500D03*
X77250Y-44500D03*
X78250Y-44500D03*
G54D40*
X63250Y-31500D03*
X92750Y-31500D03*
X92750Y-45500D03*
X63250Y-45500D03*
G54D12*
X76841Y-36750D03*
X78159Y-36750D03*
X74159Y-36250D03*
X72841Y-36250D03*
X71750Y-41591D03*
X71750Y-42909D03*
X72750Y-41591D03*
X72750Y-42909D03*
G54D17*
X72300Y-37500D03*
X71700Y-37500D03*
X72300Y-38500D03*
X71700Y-38500D03*
X72300Y-39500D03*
X71700Y-39500D03*
X72300Y-40500D03*
X71700Y-40500D03*
G54D19*
X83250Y-40350D03*
X83750Y-40350D03*
X84250Y-40350D03*
X84750Y-40350D03*
X85250Y-40350D03*
X85750Y-40350D03*
X86250Y-40350D03*
X86250Y-38250D03*
X85750Y-38250D03*
X85250Y-38250D03*
X84750Y-38250D03*
X84250Y-38250D03*
X83750Y-38250D03*
X83250Y-38250D03*
G54D41*
X89500Y-44500D03*
G54D42*
X86902Y-43500D03*
X86902Y-44000D03*
X86902Y-45000D03*
X86902Y-45500D03*
G54D43*
X65250Y-33500D03*
X74250Y-33500D03*
M02*
