G04 (created by PCBNEW (2013-may-18)-stable) date Tue 21 Oct 2014 09:53:05 PM CEST*
%MOIN*%
G04 Gerber Fmt 3.4, Leading zero omitted, Abs format*
%FSLAX34Y34*%
G01*
G70*
G90*
G04 APERTURE LIST*
%ADD10C,0.00590551*%
%ADD11C,0.00787402*%
%ADD12C,0.011811*%
%ADD13C,0.005*%
%ADD14C,0.008*%
%ADD15C,0.0118*%
%ADD16C,0.012*%
%ADD17C,0.015*%
%ADD18C,0.019685*%
%ADD19C,0.0045*%
%ADD20C,0.0039*%
%ADD21C,0.0047*%
%ADD22C,0.00344488*%
%ADD23C,0.00984252*%
%ADD24C,0.006*%
%ADD25C,0.0107*%
%ADD26C,0.01*%
G04 APERTURE END LIST*
G54D10*
G54D11*
X61750Y-47000D02*
X94250Y-47000D01*
G54D12*
X83739Y-64220D02*
X83148Y-64220D01*
X83345Y-63938D02*
X83739Y-63938D01*
X83401Y-63938D02*
X83373Y-63910D01*
X83345Y-63854D01*
X83345Y-63770D01*
X83373Y-63714D01*
X83429Y-63685D01*
X83739Y-63685D01*
X83345Y-63404D02*
X83935Y-63404D01*
X83373Y-63404D02*
X83345Y-63348D01*
X83345Y-63235D01*
X83373Y-63179D01*
X83401Y-63151D01*
X83457Y-63123D01*
X83626Y-63123D01*
X83682Y-63151D01*
X83710Y-63179D01*
X83739Y-63235D01*
X83739Y-63348D01*
X83710Y-63404D01*
X83345Y-62617D02*
X83739Y-62617D01*
X83345Y-62870D02*
X83654Y-62870D01*
X83710Y-62842D01*
X83739Y-62785D01*
X83739Y-62701D01*
X83710Y-62645D01*
X83682Y-62617D01*
X83345Y-62420D02*
X83345Y-62195D01*
X83148Y-62336D02*
X83654Y-62336D01*
X83710Y-62307D01*
X83739Y-62251D01*
X83739Y-62195D01*
X98898Y-64445D02*
X98898Y-64332D01*
X98926Y-64276D01*
X98982Y-64220D01*
X99095Y-64192D01*
X99292Y-64192D01*
X99404Y-64220D01*
X99460Y-64276D01*
X99489Y-64332D01*
X99489Y-64445D01*
X99460Y-64501D01*
X99404Y-64557D01*
X99292Y-64585D01*
X99095Y-64585D01*
X98982Y-64557D01*
X98926Y-64501D01*
X98898Y-64445D01*
X99095Y-63685D02*
X99489Y-63685D01*
X99095Y-63938D02*
X99404Y-63938D01*
X99460Y-63910D01*
X99489Y-63854D01*
X99489Y-63770D01*
X99460Y-63714D01*
X99432Y-63685D01*
X99095Y-63489D02*
X99095Y-63264D01*
X98898Y-63404D02*
X99404Y-63404D01*
X99460Y-63376D01*
X99489Y-63320D01*
X99489Y-63264D01*
X99095Y-63067D02*
X99685Y-63067D01*
X99123Y-63067D02*
X99095Y-63010D01*
X99095Y-62898D01*
X99123Y-62842D01*
X99151Y-62814D01*
X99207Y-62785D01*
X99376Y-62785D01*
X99432Y-62814D01*
X99460Y-62842D01*
X99489Y-62898D01*
X99489Y-63010D01*
X99460Y-63067D01*
X99095Y-62279D02*
X99489Y-62279D01*
X99095Y-62532D02*
X99404Y-62532D01*
X99460Y-62504D01*
X99489Y-62448D01*
X99489Y-62364D01*
X99460Y-62307D01*
X99432Y-62279D01*
X99095Y-62082D02*
X99095Y-61857D01*
X98898Y-61998D02*
X99404Y-61998D01*
X99460Y-61970D01*
X99489Y-61914D01*
X99489Y-61857D01*
G54D11*
X101000Y-47250D02*
X81500Y-47250D01*
X81500Y-47250D02*
X81500Y-68750D01*
X81500Y-68750D02*
X101000Y-68750D01*
X101000Y-68750D02*
X101000Y-47250D01*
X81250Y-68750D02*
X81250Y-47250D01*
X61750Y-68750D02*
X81250Y-68750D01*
X61750Y-47250D02*
X61750Y-68750D01*
X81250Y-47250D02*
X61750Y-47250D01*
G54D12*
X79148Y-64445D02*
X79148Y-64332D01*
X79176Y-64276D01*
X79232Y-64220D01*
X79345Y-64192D01*
X79542Y-64192D01*
X79654Y-64220D01*
X79710Y-64276D01*
X79739Y-64332D01*
X79739Y-64445D01*
X79710Y-64501D01*
X79654Y-64557D01*
X79542Y-64585D01*
X79345Y-64585D01*
X79232Y-64557D01*
X79176Y-64501D01*
X79148Y-64445D01*
X79345Y-63685D02*
X79739Y-63685D01*
X79345Y-63938D02*
X79654Y-63938D01*
X79710Y-63910D01*
X79739Y-63854D01*
X79739Y-63770D01*
X79710Y-63714D01*
X79682Y-63685D01*
X79345Y-63489D02*
X79345Y-63264D01*
X79148Y-63404D02*
X79654Y-63404D01*
X79710Y-63376D01*
X79739Y-63320D01*
X79739Y-63264D01*
X79345Y-63067D02*
X79935Y-63067D01*
X79373Y-63067D02*
X79345Y-63010D01*
X79345Y-62898D01*
X79373Y-62842D01*
X79401Y-62814D01*
X79457Y-62785D01*
X79626Y-62785D01*
X79682Y-62814D01*
X79710Y-62842D01*
X79739Y-62898D01*
X79739Y-63010D01*
X79710Y-63067D01*
X79345Y-62279D02*
X79739Y-62279D01*
X79345Y-62532D02*
X79654Y-62532D01*
X79710Y-62504D01*
X79739Y-62448D01*
X79739Y-62364D01*
X79710Y-62307D01*
X79682Y-62279D01*
X79345Y-62082D02*
X79345Y-61857D01*
X79148Y-61998D02*
X79654Y-61998D01*
X79710Y-61970D01*
X79739Y-61914D01*
X79739Y-61857D01*
X63989Y-64220D02*
X63398Y-64220D01*
X63595Y-63938D02*
X63989Y-63938D01*
X63651Y-63938D02*
X63623Y-63910D01*
X63595Y-63854D01*
X63595Y-63770D01*
X63623Y-63714D01*
X63679Y-63685D01*
X63989Y-63685D01*
X63595Y-63404D02*
X64185Y-63404D01*
X63623Y-63404D02*
X63595Y-63348D01*
X63595Y-63235D01*
X63623Y-63179D01*
X63651Y-63151D01*
X63707Y-63123D01*
X63876Y-63123D01*
X63932Y-63151D01*
X63960Y-63179D01*
X63989Y-63235D01*
X63989Y-63348D01*
X63960Y-63404D01*
X63595Y-62617D02*
X63989Y-62617D01*
X63595Y-62870D02*
X63904Y-62870D01*
X63960Y-62842D01*
X63989Y-62785D01*
X63989Y-62701D01*
X63960Y-62645D01*
X63932Y-62617D01*
X63595Y-62420D02*
X63595Y-62195D01*
X63398Y-62336D02*
X63904Y-62336D01*
X63960Y-62307D01*
X63989Y-62251D01*
X63989Y-62195D01*
G54D11*
X61750Y-30000D02*
X61750Y-47000D01*
X94250Y-30000D02*
X61750Y-30000D01*
X94250Y-47000D02*
X94250Y-30000D01*
X78077Y-45969D02*
X78062Y-45999D01*
X78062Y-46044D01*
X78077Y-46089D01*
X78107Y-46119D01*
X78137Y-46134D01*
X78197Y-46149D01*
X78242Y-46149D01*
X78302Y-46134D01*
X78332Y-46119D01*
X78362Y-46089D01*
X78377Y-46044D01*
X78377Y-46014D01*
X78362Y-45969D01*
X78347Y-45954D01*
X78242Y-45954D01*
X78242Y-46014D01*
X78377Y-45819D02*
X78062Y-45819D01*
X78377Y-45639D01*
X78062Y-45639D01*
X78377Y-45489D02*
X78062Y-45489D01*
X78062Y-45414D01*
X78077Y-45369D01*
X78107Y-45339D01*
X78137Y-45324D01*
X78197Y-45309D01*
X78242Y-45309D01*
X78302Y-45324D01*
X78332Y-45339D01*
X78362Y-45369D01*
X78377Y-45414D01*
X78377Y-45489D01*
X77212Y-46254D02*
X77227Y-46209D01*
X77242Y-46194D01*
X77272Y-46179D01*
X77317Y-46179D01*
X77347Y-46194D01*
X77362Y-46209D01*
X77377Y-46239D01*
X77377Y-46359D01*
X77062Y-46359D01*
X77062Y-46254D01*
X77077Y-46224D01*
X77092Y-46209D01*
X77122Y-46194D01*
X77152Y-46194D01*
X77182Y-46209D01*
X77197Y-46224D01*
X77212Y-46254D01*
X77212Y-46359D01*
X77062Y-45984D02*
X77062Y-45924D01*
X77077Y-45894D01*
X77107Y-45864D01*
X77167Y-45849D01*
X77272Y-45849D01*
X77332Y-45864D01*
X77362Y-45894D01*
X77377Y-45924D01*
X77377Y-45984D01*
X77362Y-46014D01*
X77332Y-46044D01*
X77272Y-46059D01*
X77167Y-46059D01*
X77107Y-46044D01*
X77077Y-46014D01*
X77062Y-45984D01*
X77212Y-45609D02*
X77212Y-45714D01*
X77377Y-45714D02*
X77062Y-45714D01*
X77062Y-45564D01*
X77212Y-45339D02*
X77212Y-45444D01*
X77377Y-45444D02*
X77062Y-45444D01*
X77062Y-45294D01*
X76077Y-46627D02*
X75972Y-46477D01*
X75897Y-46627D02*
X75897Y-46312D01*
X76017Y-46312D01*
X76047Y-46327D01*
X76062Y-46342D01*
X76077Y-46372D01*
X76077Y-46417D01*
X76062Y-46447D01*
X76047Y-46462D01*
X76017Y-46477D01*
X75897Y-46477D01*
X76197Y-46612D02*
X76242Y-46627D01*
X76317Y-46627D01*
X76347Y-46612D01*
X76362Y-46597D01*
X76377Y-46567D01*
X76377Y-46537D01*
X76362Y-46507D01*
X76347Y-46492D01*
X76317Y-46477D01*
X76257Y-46462D01*
X76227Y-46447D01*
X76212Y-46432D01*
X76197Y-46402D01*
X76197Y-46372D01*
X76212Y-46342D01*
X76227Y-46327D01*
X76257Y-46312D01*
X76332Y-46312D01*
X76377Y-46327D01*
X76467Y-46312D02*
X76647Y-46312D01*
X76557Y-46627D02*
X76557Y-46312D01*
X75212Y-45857D02*
X75212Y-45739D01*
X75377Y-45688D02*
X75377Y-45857D01*
X75062Y-45857D01*
X75062Y-45688D01*
X75377Y-45536D02*
X75062Y-45536D01*
X75377Y-45334D01*
X75062Y-45334D01*
X74377Y-45819D02*
X74062Y-45819D01*
X74062Y-45744D01*
X74077Y-45699D01*
X74107Y-45669D01*
X74137Y-45654D01*
X74197Y-45639D01*
X74242Y-45639D01*
X74302Y-45654D01*
X74332Y-45669D01*
X74362Y-45699D01*
X74377Y-45744D01*
X74377Y-45819D01*
X74062Y-45444D02*
X74062Y-45384D01*
X74077Y-45354D01*
X74107Y-45324D01*
X74167Y-45309D01*
X74272Y-45309D01*
X74332Y-45324D01*
X74362Y-45354D01*
X74377Y-45384D01*
X74377Y-45444D01*
X74362Y-45474D01*
X74332Y-45504D01*
X74272Y-45519D01*
X74167Y-45519D01*
X74107Y-45504D01*
X74077Y-45474D01*
X74062Y-45444D01*
X73347Y-45879D02*
X73362Y-45894D01*
X73377Y-45939D01*
X73377Y-45969D01*
X73362Y-46014D01*
X73332Y-46044D01*
X73302Y-46059D01*
X73242Y-46074D01*
X73197Y-46074D01*
X73137Y-46059D01*
X73107Y-46044D01*
X73077Y-46014D01*
X73062Y-45969D01*
X73062Y-45939D01*
X73077Y-45894D01*
X73092Y-45879D01*
X73377Y-45594D02*
X73377Y-45744D01*
X73062Y-45744D01*
X73377Y-45489D02*
X73062Y-45489D01*
X73377Y-45309D02*
X73197Y-45444D01*
X73062Y-45309D02*
X73242Y-45489D01*
X72257Y-46584D02*
X72257Y-46344D01*
X72377Y-46464D02*
X72137Y-46464D01*
X72062Y-46224D02*
X72062Y-46029D01*
X72182Y-46134D01*
X72182Y-46089D01*
X72197Y-46059D01*
X72212Y-46044D01*
X72242Y-46029D01*
X72317Y-46029D01*
X72347Y-46044D01*
X72362Y-46059D01*
X72377Y-46089D01*
X72377Y-46179D01*
X72362Y-46209D01*
X72347Y-46224D01*
X72347Y-45894D02*
X72362Y-45879D01*
X72377Y-45894D01*
X72362Y-45909D01*
X72347Y-45894D01*
X72377Y-45894D01*
X72062Y-45774D02*
X72062Y-45579D01*
X72182Y-45684D01*
X72182Y-45639D01*
X72197Y-45609D01*
X72212Y-45594D01*
X72242Y-45579D01*
X72317Y-45579D01*
X72347Y-45594D01*
X72362Y-45609D01*
X72377Y-45639D01*
X72377Y-45729D01*
X72362Y-45759D01*
X72347Y-45774D01*
X72062Y-45489D02*
X72377Y-45384D01*
X72062Y-45279D01*
G54D13*
X91250Y-60800D02*
X91250Y-61700D01*
X91250Y-61700D02*
X90750Y-61700D01*
X90750Y-61700D02*
X90750Y-60800D01*
X90750Y-60800D02*
X91250Y-60800D01*
X93000Y-61700D02*
X93000Y-60800D01*
X93000Y-60800D02*
X93500Y-60800D01*
X93500Y-60800D02*
X93500Y-61700D01*
X93500Y-61700D02*
X93000Y-61700D01*
X91500Y-61700D02*
X91500Y-60800D01*
X91500Y-60800D02*
X92000Y-60800D01*
X92000Y-60800D02*
X92000Y-61700D01*
X92000Y-61700D02*
X91500Y-61700D01*
X92250Y-61700D02*
X92250Y-60800D01*
X92250Y-60800D02*
X92750Y-60800D01*
X92750Y-60800D02*
X92750Y-61700D01*
X92750Y-61700D02*
X92250Y-61700D01*
X93750Y-61700D02*
X93750Y-60800D01*
X93750Y-60800D02*
X94250Y-60800D01*
X94250Y-60800D02*
X94250Y-61700D01*
X94250Y-61700D02*
X93750Y-61700D01*
X89354Y-60315D02*
X89354Y-59685D01*
X89394Y-59685D02*
X89394Y-60315D01*
X88449Y-59685D02*
X89551Y-59685D01*
X89551Y-59685D02*
X89551Y-60315D01*
X89551Y-60315D02*
X88449Y-60315D01*
X88449Y-60315D02*
X88449Y-59685D01*
X97646Y-59685D02*
X97646Y-60315D01*
X97606Y-60315D02*
X97606Y-59685D01*
X98551Y-60315D02*
X97449Y-60315D01*
X97449Y-60315D02*
X97449Y-59685D01*
X97449Y-59685D02*
X98551Y-59685D01*
X98551Y-59685D02*
X98551Y-60315D01*
X89354Y-59565D02*
X89354Y-58935D01*
X89394Y-58935D02*
X89394Y-59565D01*
X88449Y-58935D02*
X89551Y-58935D01*
X89551Y-58935D02*
X89551Y-59565D01*
X89551Y-59565D02*
X88449Y-59565D01*
X88449Y-59565D02*
X88449Y-58935D01*
X89354Y-61065D02*
X89354Y-60435D01*
X89394Y-60435D02*
X89394Y-61065D01*
X88449Y-60435D02*
X89551Y-60435D01*
X89551Y-60435D02*
X89551Y-61065D01*
X89551Y-61065D02*
X88449Y-61065D01*
X88449Y-61065D02*
X88449Y-60435D01*
X97646Y-60435D02*
X97646Y-61065D01*
X97606Y-61065D02*
X97606Y-60435D01*
X98551Y-61065D02*
X97449Y-61065D01*
X97449Y-61065D02*
X97449Y-60435D01*
X97449Y-60435D02*
X98551Y-60435D01*
X98551Y-60435D02*
X98551Y-61065D01*
X86500Y-55050D02*
X86500Y-55950D01*
X86500Y-55950D02*
X86000Y-55950D01*
X86000Y-55950D02*
X86000Y-55050D01*
X86000Y-55050D02*
X86500Y-55050D01*
X82900Y-57750D02*
X84600Y-57750D01*
X82900Y-60200D02*
X84600Y-60200D01*
X84600Y-60200D02*
X84600Y-57300D01*
X84600Y-57300D02*
X82900Y-57300D01*
X82900Y-57300D02*
X82900Y-60200D01*
X84800Y-54150D02*
X84800Y-55400D01*
X84800Y-55400D02*
X85500Y-55400D01*
X85500Y-55400D02*
X85500Y-54150D01*
X83000Y-54150D02*
X83000Y-55400D01*
X83000Y-55400D02*
X83700Y-55400D01*
X83700Y-55400D02*
X83700Y-54150D01*
X85600Y-51750D02*
X85600Y-54150D01*
X85600Y-54150D02*
X82900Y-54150D01*
X82900Y-54150D02*
X82900Y-51050D01*
X82900Y-51000D02*
X85600Y-51000D01*
X85600Y-51050D02*
X85600Y-51750D01*
X89500Y-55300D02*
X89500Y-56200D01*
X89500Y-56200D02*
X89000Y-56200D01*
X89000Y-56200D02*
X89000Y-55300D01*
X89000Y-55300D02*
X89500Y-55300D01*
X88000Y-55300D02*
X88000Y-56200D01*
X88000Y-56200D02*
X87500Y-56200D01*
X87500Y-56200D02*
X87500Y-55300D01*
X87500Y-55300D02*
X88000Y-55300D01*
X91000Y-55300D02*
X91000Y-56200D01*
X91000Y-56200D02*
X90500Y-56200D01*
X90500Y-56200D02*
X90500Y-55300D01*
X90500Y-55300D02*
X91000Y-55300D01*
X95300Y-59750D02*
X96200Y-59750D01*
X96200Y-59750D02*
X96200Y-60250D01*
X96200Y-60250D02*
X95300Y-60250D01*
X95300Y-60250D02*
X95300Y-59750D01*
X83500Y-48450D02*
X83500Y-47550D01*
X83500Y-47550D02*
X84000Y-47550D01*
X84000Y-47550D02*
X84000Y-48450D01*
X84000Y-48450D02*
X83500Y-48450D01*
X92500Y-55300D02*
X92500Y-56200D01*
X92500Y-56200D02*
X92000Y-56200D01*
X92000Y-56200D02*
X92000Y-55300D01*
X92000Y-55300D02*
X92500Y-55300D01*
X83500Y-49950D02*
X83500Y-49050D01*
X83500Y-49050D02*
X84000Y-49050D01*
X84000Y-49050D02*
X84000Y-49950D01*
X84000Y-49950D02*
X83500Y-49950D01*
X84250Y-48450D02*
X84250Y-47550D01*
X84250Y-47550D02*
X84750Y-47550D01*
X84750Y-47550D02*
X84750Y-48450D01*
X84750Y-48450D02*
X84250Y-48450D01*
X94000Y-55300D02*
X94000Y-56200D01*
X94000Y-56200D02*
X93500Y-56200D01*
X93500Y-56200D02*
X93500Y-55300D01*
X93500Y-55300D02*
X94000Y-55300D01*
X95500Y-55300D02*
X95500Y-56200D01*
X95500Y-56200D02*
X95000Y-56200D01*
X95000Y-56200D02*
X95000Y-55300D01*
X95000Y-55300D02*
X95500Y-55300D01*
X97000Y-55300D02*
X97000Y-56200D01*
X97000Y-56200D02*
X96500Y-56200D01*
X96500Y-56200D02*
X96500Y-55300D01*
X96500Y-55300D02*
X97000Y-55300D01*
X82500Y-55050D02*
X82500Y-55950D01*
X82500Y-55950D02*
X82000Y-55950D01*
X82000Y-55950D02*
X82000Y-55050D01*
X82000Y-55050D02*
X82500Y-55050D01*
X98500Y-55300D02*
X98500Y-56200D01*
X98500Y-56200D02*
X98000Y-56200D01*
X98000Y-56200D02*
X98000Y-55300D01*
X98000Y-55300D02*
X98500Y-55300D01*
X84250Y-49950D02*
X84250Y-49050D01*
X84250Y-49050D02*
X84750Y-49050D01*
X84750Y-49050D02*
X84750Y-49950D01*
X84750Y-49950D02*
X84250Y-49950D01*
X87300Y-53250D02*
X88200Y-53250D01*
X88200Y-53250D02*
X88200Y-52600D01*
X87300Y-51900D02*
X87300Y-51250D01*
X87300Y-51250D02*
X88200Y-51250D01*
X88200Y-51250D02*
X88200Y-51900D01*
X87300Y-52600D02*
X87300Y-53250D01*
X97800Y-53250D02*
X98700Y-53250D01*
X98700Y-53250D02*
X98700Y-52600D01*
X97800Y-51900D02*
X97800Y-51250D01*
X97800Y-51250D02*
X98700Y-51250D01*
X98700Y-51250D02*
X98700Y-51900D01*
X97800Y-52600D02*
X97800Y-53250D01*
X96300Y-53250D02*
X97200Y-53250D01*
X97200Y-53250D02*
X97200Y-52600D01*
X96300Y-51900D02*
X96300Y-51250D01*
X96300Y-51250D02*
X97200Y-51250D01*
X97200Y-51250D02*
X97200Y-51900D01*
X96300Y-52600D02*
X96300Y-53250D01*
X94800Y-53250D02*
X95700Y-53250D01*
X95700Y-53250D02*
X95700Y-52600D01*
X94800Y-51900D02*
X94800Y-51250D01*
X94800Y-51250D02*
X95700Y-51250D01*
X95700Y-51250D02*
X95700Y-51900D01*
X94800Y-52600D02*
X94800Y-53250D01*
X88800Y-53250D02*
X89700Y-53250D01*
X89700Y-53250D02*
X89700Y-52600D01*
X88800Y-51900D02*
X88800Y-51250D01*
X88800Y-51250D02*
X89700Y-51250D01*
X89700Y-51250D02*
X89700Y-51900D01*
X88800Y-52600D02*
X88800Y-53250D01*
X91800Y-53250D02*
X92700Y-53250D01*
X92700Y-53250D02*
X92700Y-52600D01*
X91800Y-51900D02*
X91800Y-51250D01*
X91800Y-51250D02*
X92700Y-51250D01*
X92700Y-51250D02*
X92700Y-51900D01*
X91800Y-52600D02*
X91800Y-53250D01*
X90300Y-53250D02*
X91200Y-53250D01*
X91200Y-53250D02*
X91200Y-52600D01*
X90300Y-51900D02*
X90300Y-51250D01*
X90300Y-51250D02*
X91200Y-51250D01*
X91200Y-51250D02*
X91200Y-51900D01*
X90300Y-52600D02*
X90300Y-53250D01*
X93300Y-53250D02*
X94200Y-53250D01*
X94200Y-53250D02*
X94200Y-52600D01*
X93300Y-51900D02*
X93300Y-51250D01*
X93300Y-51250D02*
X94200Y-51250D01*
X94200Y-51250D02*
X94200Y-51900D01*
X93300Y-52600D02*
X93300Y-53250D01*
G54D14*
X95150Y-59700D02*
X90850Y-59700D01*
X90850Y-59700D02*
X90850Y-58300D01*
X90850Y-58300D02*
X95150Y-58300D01*
X95150Y-58300D02*
X95150Y-59700D01*
X95150Y-59200D02*
X94850Y-59200D01*
X94850Y-59200D02*
X94850Y-58800D01*
X94850Y-58800D02*
X95150Y-58800D01*
G54D13*
X84146Y-55935D02*
X84146Y-56565D01*
X84106Y-56565D02*
X84106Y-55935D01*
X85051Y-56565D02*
X83949Y-56565D01*
X83949Y-56565D02*
X83949Y-55935D01*
X83949Y-55935D02*
X85051Y-55935D01*
X85051Y-55935D02*
X85051Y-56565D01*
X92625Y-54525D02*
X92625Y-54785D01*
X91875Y-54525D02*
X91875Y-54785D01*
X92250Y-53975D02*
X92250Y-53715D01*
X91660Y-53975D02*
X92840Y-53975D01*
X92840Y-53975D02*
X92840Y-54525D01*
X92840Y-54525D02*
X91660Y-54525D01*
X91660Y-54525D02*
X91660Y-53975D01*
X94125Y-54525D02*
X94125Y-54785D01*
X93375Y-54525D02*
X93375Y-54785D01*
X93750Y-53975D02*
X93750Y-53715D01*
X93160Y-53975D02*
X94340Y-53975D01*
X94340Y-53975D02*
X94340Y-54525D01*
X94340Y-54525D02*
X93160Y-54525D01*
X93160Y-54525D02*
X93160Y-53975D01*
X95625Y-54525D02*
X95625Y-54785D01*
X94875Y-54525D02*
X94875Y-54785D01*
X95250Y-53975D02*
X95250Y-53715D01*
X94660Y-53975D02*
X95840Y-53975D01*
X95840Y-53975D02*
X95840Y-54525D01*
X95840Y-54525D02*
X94660Y-54525D01*
X94660Y-54525D02*
X94660Y-53975D01*
X88125Y-54525D02*
X88125Y-54785D01*
X87375Y-54525D02*
X87375Y-54785D01*
X87750Y-53975D02*
X87750Y-53715D01*
X87160Y-53975D02*
X88340Y-53975D01*
X88340Y-53975D02*
X88340Y-54525D01*
X88340Y-54525D02*
X87160Y-54525D01*
X87160Y-54525D02*
X87160Y-53975D01*
X97125Y-54525D02*
X97125Y-54785D01*
X96375Y-54525D02*
X96375Y-54785D01*
X96750Y-53975D02*
X96750Y-53715D01*
X96160Y-53975D02*
X97340Y-53975D01*
X97340Y-53975D02*
X97340Y-54525D01*
X97340Y-54525D02*
X96160Y-54525D01*
X96160Y-54525D02*
X96160Y-53975D01*
X91125Y-54525D02*
X91125Y-54785D01*
X90375Y-54525D02*
X90375Y-54785D01*
X90750Y-53975D02*
X90750Y-53715D01*
X90160Y-53975D02*
X91340Y-53975D01*
X91340Y-53975D02*
X91340Y-54525D01*
X91340Y-54525D02*
X90160Y-54525D01*
X90160Y-54525D02*
X90160Y-53975D01*
X98625Y-54525D02*
X98625Y-54785D01*
X97875Y-54525D02*
X97875Y-54785D01*
X98250Y-53975D02*
X98250Y-53715D01*
X97660Y-53975D02*
X98840Y-53975D01*
X98840Y-53975D02*
X98840Y-54525D01*
X98840Y-54525D02*
X97660Y-54525D01*
X97660Y-54525D02*
X97660Y-53975D01*
X89625Y-54525D02*
X89625Y-54785D01*
X88875Y-54525D02*
X88875Y-54785D01*
X89250Y-53975D02*
X89250Y-53715D01*
X88660Y-53975D02*
X89840Y-53975D01*
X89840Y-53975D02*
X89840Y-54525D01*
X89840Y-54525D02*
X88660Y-54525D01*
X88660Y-54525D02*
X88660Y-53975D01*
X85400Y-57750D02*
X87100Y-57750D01*
X85400Y-60200D02*
X87100Y-60200D01*
X87100Y-60200D02*
X87100Y-57300D01*
X87100Y-57300D02*
X85400Y-57300D01*
X85400Y-57300D02*
X85400Y-60200D01*
G54D11*
X85350Y-47600D02*
X85250Y-47600D01*
X85250Y-47600D02*
X85250Y-50000D01*
X97250Y-50000D02*
X97250Y-47600D01*
X97250Y-47600D02*
X85350Y-47600D01*
X94650Y-50000D02*
X94650Y-48200D01*
X94650Y-48200D02*
X95150Y-47700D01*
X95150Y-47700D02*
X95950Y-47700D01*
X95950Y-47700D02*
X96450Y-48200D01*
X96450Y-48200D02*
X96450Y-50000D01*
X86050Y-50000D02*
X86050Y-48200D01*
X86050Y-48200D02*
X86550Y-47700D01*
X86550Y-47700D02*
X87450Y-47700D01*
X87450Y-47700D02*
X87950Y-48200D01*
X87950Y-48200D02*
X87950Y-50000D01*
X85250Y-50000D02*
X97250Y-50000D01*
X100863Y-48150D02*
G75*
G03X100863Y-48150I-763J0D01*
G74*
G01*
X100861Y-67850D02*
G75*
G03X100861Y-67850I-761J0D01*
G74*
G01*
X83163Y-67850D02*
G75*
G03X83163Y-67850I-763J0D01*
G74*
G01*
X83190Y-48150D02*
G75*
G03X83190Y-48150I-790J0D01*
G74*
G01*
G54D13*
X90375Y-62025D02*
X90375Y-68225D01*
X84125Y-68225D02*
X84125Y-62025D01*
X84125Y-68225D02*
X90375Y-68225D01*
X84125Y-62025D02*
X90375Y-62025D01*
X98375Y-68225D02*
X98375Y-62025D01*
X92125Y-62025D02*
X92125Y-68225D01*
X92125Y-68225D02*
X98375Y-68225D01*
X98375Y-62025D02*
X92125Y-62025D01*
X78625Y-68225D02*
X78625Y-62025D01*
X72375Y-62025D02*
X72375Y-68225D01*
X72375Y-68225D02*
X78625Y-68225D01*
X78625Y-62025D02*
X72375Y-62025D01*
X70625Y-62025D02*
X70625Y-68225D01*
X64375Y-68225D02*
X64375Y-62025D01*
X64375Y-68225D02*
X70625Y-68225D01*
X64375Y-62025D02*
X70625Y-62025D01*
G54D11*
X63440Y-48150D02*
G75*
G03X63440Y-48150I-790J0D01*
G74*
G01*
X63413Y-67850D02*
G75*
G03X63413Y-67850I-763J0D01*
G74*
G01*
X81111Y-67850D02*
G75*
G03X81111Y-67850I-761J0D01*
G74*
G01*
X81113Y-48150D02*
G75*
G03X81113Y-48150I-763J0D01*
G74*
G01*
X65600Y-47600D02*
X65500Y-47600D01*
X65500Y-47600D02*
X65500Y-50000D01*
X77500Y-50000D02*
X77500Y-47600D01*
X77500Y-47600D02*
X65600Y-47600D01*
X74900Y-50000D02*
X74900Y-48200D01*
X74900Y-48200D02*
X75400Y-47700D01*
X75400Y-47700D02*
X76200Y-47700D01*
X76200Y-47700D02*
X76700Y-48200D01*
X76700Y-48200D02*
X76700Y-50000D01*
X66300Y-50000D02*
X66300Y-48200D01*
X66300Y-48200D02*
X66800Y-47700D01*
X66800Y-47700D02*
X67700Y-47700D01*
X67700Y-47700D02*
X68200Y-48200D01*
X68200Y-48200D02*
X68200Y-50000D01*
X65500Y-50000D02*
X77500Y-50000D01*
G54D13*
X65650Y-57750D02*
X67350Y-57750D01*
X65650Y-60200D02*
X67350Y-60200D01*
X67350Y-60200D02*
X67350Y-57300D01*
X67350Y-57300D02*
X65650Y-57300D01*
X65650Y-57300D02*
X65650Y-60200D01*
X69875Y-54525D02*
X69875Y-54785D01*
X69125Y-54525D02*
X69125Y-54785D01*
X69500Y-53975D02*
X69500Y-53715D01*
X68910Y-53975D02*
X70090Y-53975D01*
X70090Y-53975D02*
X70090Y-54525D01*
X70090Y-54525D02*
X68910Y-54525D01*
X68910Y-54525D02*
X68910Y-53975D01*
X78875Y-54525D02*
X78875Y-54785D01*
X78125Y-54525D02*
X78125Y-54785D01*
X78500Y-53975D02*
X78500Y-53715D01*
X77910Y-53975D02*
X79090Y-53975D01*
X79090Y-53975D02*
X79090Y-54525D01*
X79090Y-54525D02*
X77910Y-54525D01*
X77910Y-54525D02*
X77910Y-53975D01*
X71375Y-54525D02*
X71375Y-54785D01*
X70625Y-54525D02*
X70625Y-54785D01*
X71000Y-53975D02*
X71000Y-53715D01*
X70410Y-53975D02*
X71590Y-53975D01*
X71590Y-53975D02*
X71590Y-54525D01*
X71590Y-54525D02*
X70410Y-54525D01*
X70410Y-54525D02*
X70410Y-53975D01*
X77375Y-54525D02*
X77375Y-54785D01*
X76625Y-54525D02*
X76625Y-54785D01*
X77000Y-53975D02*
X77000Y-53715D01*
X76410Y-53975D02*
X77590Y-53975D01*
X77590Y-53975D02*
X77590Y-54525D01*
X77590Y-54525D02*
X76410Y-54525D01*
X76410Y-54525D02*
X76410Y-53975D01*
X68375Y-54525D02*
X68375Y-54785D01*
X67625Y-54525D02*
X67625Y-54785D01*
X68000Y-53975D02*
X68000Y-53715D01*
X67410Y-53975D02*
X68590Y-53975D01*
X68590Y-53975D02*
X68590Y-54525D01*
X68590Y-54525D02*
X67410Y-54525D01*
X67410Y-54525D02*
X67410Y-53975D01*
X75875Y-54525D02*
X75875Y-54785D01*
X75125Y-54525D02*
X75125Y-54785D01*
X75500Y-53975D02*
X75500Y-53715D01*
X74910Y-53975D02*
X76090Y-53975D01*
X76090Y-53975D02*
X76090Y-54525D01*
X76090Y-54525D02*
X74910Y-54525D01*
X74910Y-54525D02*
X74910Y-53975D01*
X74375Y-54525D02*
X74375Y-54785D01*
X73625Y-54525D02*
X73625Y-54785D01*
X74000Y-53975D02*
X74000Y-53715D01*
X73410Y-53975D02*
X74590Y-53975D01*
X74590Y-53975D02*
X74590Y-54525D01*
X74590Y-54525D02*
X73410Y-54525D01*
X73410Y-54525D02*
X73410Y-53975D01*
X72875Y-54525D02*
X72875Y-54785D01*
X72125Y-54525D02*
X72125Y-54785D01*
X72500Y-53975D02*
X72500Y-53715D01*
X71910Y-53975D02*
X73090Y-53975D01*
X73090Y-53975D02*
X73090Y-54525D01*
X73090Y-54525D02*
X71910Y-54525D01*
X71910Y-54525D02*
X71910Y-53975D01*
X64396Y-55935D02*
X64396Y-56565D01*
X64356Y-56565D02*
X64356Y-55935D01*
X65301Y-56565D02*
X64199Y-56565D01*
X64199Y-56565D02*
X64199Y-55935D01*
X64199Y-55935D02*
X65301Y-55935D01*
X65301Y-55935D02*
X65301Y-56565D01*
G54D14*
X75400Y-59700D02*
X71100Y-59700D01*
X71100Y-59700D02*
X71100Y-58300D01*
X71100Y-58300D02*
X75400Y-58300D01*
X75400Y-58300D02*
X75400Y-59700D01*
X75400Y-59200D02*
X75100Y-59200D01*
X75100Y-59200D02*
X75100Y-58800D01*
X75100Y-58800D02*
X75400Y-58800D01*
G54D13*
X73550Y-53250D02*
X74450Y-53250D01*
X74450Y-53250D02*
X74450Y-52600D01*
X73550Y-51900D02*
X73550Y-51250D01*
X73550Y-51250D02*
X74450Y-51250D01*
X74450Y-51250D02*
X74450Y-51900D01*
X73550Y-52600D02*
X73550Y-53250D01*
X70550Y-53250D02*
X71450Y-53250D01*
X71450Y-53250D02*
X71450Y-52600D01*
X70550Y-51900D02*
X70550Y-51250D01*
X70550Y-51250D02*
X71450Y-51250D01*
X71450Y-51250D02*
X71450Y-51900D01*
X70550Y-52600D02*
X70550Y-53250D01*
X72050Y-53250D02*
X72950Y-53250D01*
X72950Y-53250D02*
X72950Y-52600D01*
X72050Y-51900D02*
X72050Y-51250D01*
X72050Y-51250D02*
X72950Y-51250D01*
X72950Y-51250D02*
X72950Y-51900D01*
X72050Y-52600D02*
X72050Y-53250D01*
X69050Y-53250D02*
X69950Y-53250D01*
X69950Y-53250D02*
X69950Y-52600D01*
X69050Y-51900D02*
X69050Y-51250D01*
X69050Y-51250D02*
X69950Y-51250D01*
X69950Y-51250D02*
X69950Y-51900D01*
X69050Y-52600D02*
X69050Y-53250D01*
X75050Y-53250D02*
X75950Y-53250D01*
X75950Y-53250D02*
X75950Y-52600D01*
X75050Y-51900D02*
X75050Y-51250D01*
X75050Y-51250D02*
X75950Y-51250D01*
X75950Y-51250D02*
X75950Y-51900D01*
X75050Y-52600D02*
X75050Y-53250D01*
X76550Y-53250D02*
X77450Y-53250D01*
X77450Y-53250D02*
X77450Y-52600D01*
X76550Y-51900D02*
X76550Y-51250D01*
X76550Y-51250D02*
X77450Y-51250D01*
X77450Y-51250D02*
X77450Y-51900D01*
X76550Y-52600D02*
X76550Y-53250D01*
X78050Y-53250D02*
X78950Y-53250D01*
X78950Y-53250D02*
X78950Y-52600D01*
X78050Y-51900D02*
X78050Y-51250D01*
X78050Y-51250D02*
X78950Y-51250D01*
X78950Y-51250D02*
X78950Y-51900D01*
X78050Y-52600D02*
X78050Y-53250D01*
X67550Y-53250D02*
X68450Y-53250D01*
X68450Y-53250D02*
X68450Y-52600D01*
X67550Y-51900D02*
X67550Y-51250D01*
X67550Y-51250D02*
X68450Y-51250D01*
X68450Y-51250D02*
X68450Y-51900D01*
X67550Y-52600D02*
X67550Y-53250D01*
X64500Y-49950D02*
X64500Y-49050D01*
X64500Y-49050D02*
X65000Y-49050D01*
X65000Y-49050D02*
X65000Y-49950D01*
X65000Y-49950D02*
X64500Y-49950D01*
X78750Y-55300D02*
X78750Y-56200D01*
X78750Y-56200D02*
X78250Y-56200D01*
X78250Y-56200D02*
X78250Y-55300D01*
X78250Y-55300D02*
X78750Y-55300D01*
X62750Y-55050D02*
X62750Y-55950D01*
X62750Y-55950D02*
X62250Y-55950D01*
X62250Y-55950D02*
X62250Y-55050D01*
X62250Y-55050D02*
X62750Y-55050D01*
X77250Y-55300D02*
X77250Y-56200D01*
X77250Y-56200D02*
X76750Y-56200D01*
X76750Y-56200D02*
X76750Y-55300D01*
X76750Y-55300D02*
X77250Y-55300D01*
X75750Y-55300D02*
X75750Y-56200D01*
X75750Y-56200D02*
X75250Y-56200D01*
X75250Y-56200D02*
X75250Y-55300D01*
X75250Y-55300D02*
X75750Y-55300D01*
X74250Y-55300D02*
X74250Y-56200D01*
X74250Y-56200D02*
X73750Y-56200D01*
X73750Y-56200D02*
X73750Y-55300D01*
X73750Y-55300D02*
X74250Y-55300D01*
X64500Y-48450D02*
X64500Y-47550D01*
X64500Y-47550D02*
X65000Y-47550D01*
X65000Y-47550D02*
X65000Y-48450D01*
X65000Y-48450D02*
X64500Y-48450D01*
X63750Y-49950D02*
X63750Y-49050D01*
X63750Y-49050D02*
X64250Y-49050D01*
X64250Y-49050D02*
X64250Y-49950D01*
X64250Y-49950D02*
X63750Y-49950D01*
X72750Y-55300D02*
X72750Y-56200D01*
X72750Y-56200D02*
X72250Y-56200D01*
X72250Y-56200D02*
X72250Y-55300D01*
X72250Y-55300D02*
X72750Y-55300D01*
X63750Y-48450D02*
X63750Y-47550D01*
X63750Y-47550D02*
X64250Y-47550D01*
X64250Y-47550D02*
X64250Y-48450D01*
X64250Y-48450D02*
X63750Y-48450D01*
X75550Y-59750D02*
X76450Y-59750D01*
X76450Y-59750D02*
X76450Y-60250D01*
X76450Y-60250D02*
X75550Y-60250D01*
X75550Y-60250D02*
X75550Y-59750D01*
X71250Y-55300D02*
X71250Y-56200D01*
X71250Y-56200D02*
X70750Y-56200D01*
X70750Y-56200D02*
X70750Y-55300D01*
X70750Y-55300D02*
X71250Y-55300D01*
X68250Y-55300D02*
X68250Y-56200D01*
X68250Y-56200D02*
X67750Y-56200D01*
X67750Y-56200D02*
X67750Y-55300D01*
X67750Y-55300D02*
X68250Y-55300D01*
X69750Y-55300D02*
X69750Y-56200D01*
X69750Y-56200D02*
X69250Y-56200D01*
X69250Y-56200D02*
X69250Y-55300D01*
X69250Y-55300D02*
X69750Y-55300D01*
X65050Y-54150D02*
X65050Y-55400D01*
X65050Y-55400D02*
X65750Y-55400D01*
X65750Y-55400D02*
X65750Y-54150D01*
X63250Y-54150D02*
X63250Y-55400D01*
X63250Y-55400D02*
X63950Y-55400D01*
X63950Y-55400D02*
X63950Y-54150D01*
X65850Y-51750D02*
X65850Y-54150D01*
X65850Y-54150D02*
X63150Y-54150D01*
X63150Y-54150D02*
X63150Y-51050D01*
X63150Y-51000D02*
X65850Y-51000D01*
X65850Y-51050D02*
X65850Y-51750D01*
X63150Y-57750D02*
X64850Y-57750D01*
X63150Y-60200D02*
X64850Y-60200D01*
X64850Y-60200D02*
X64850Y-57300D01*
X64850Y-57300D02*
X63150Y-57300D01*
X63150Y-57300D02*
X63150Y-60200D01*
X66750Y-55050D02*
X66750Y-55950D01*
X66750Y-55950D02*
X66250Y-55950D01*
X66250Y-55950D02*
X66250Y-55050D01*
X66250Y-55050D02*
X66750Y-55050D01*
X77896Y-60435D02*
X77896Y-61065D01*
X77856Y-61065D02*
X77856Y-60435D01*
X78801Y-61065D02*
X77699Y-61065D01*
X77699Y-61065D02*
X77699Y-60435D01*
X77699Y-60435D02*
X78801Y-60435D01*
X78801Y-60435D02*
X78801Y-61065D01*
X69604Y-61065D02*
X69604Y-60435D01*
X69644Y-60435D02*
X69644Y-61065D01*
X68699Y-60435D02*
X69801Y-60435D01*
X69801Y-60435D02*
X69801Y-61065D01*
X69801Y-61065D02*
X68699Y-61065D01*
X68699Y-61065D02*
X68699Y-60435D01*
X69604Y-59565D02*
X69604Y-58935D01*
X69644Y-58935D02*
X69644Y-59565D01*
X68699Y-58935D02*
X69801Y-58935D01*
X69801Y-58935D02*
X69801Y-59565D01*
X69801Y-59565D02*
X68699Y-59565D01*
X68699Y-59565D02*
X68699Y-58935D01*
X77896Y-59685D02*
X77896Y-60315D01*
X77856Y-60315D02*
X77856Y-59685D01*
X78801Y-60315D02*
X77699Y-60315D01*
X77699Y-60315D02*
X77699Y-59685D01*
X77699Y-59685D02*
X78801Y-59685D01*
X78801Y-59685D02*
X78801Y-60315D01*
X69604Y-60315D02*
X69604Y-59685D01*
X69644Y-59685D02*
X69644Y-60315D01*
X68699Y-59685D02*
X69801Y-59685D01*
X69801Y-59685D02*
X69801Y-60315D01*
X69801Y-60315D02*
X68699Y-60315D01*
X68699Y-60315D02*
X68699Y-59685D01*
X74000Y-61700D02*
X74000Y-60800D01*
X74000Y-60800D02*
X74500Y-60800D01*
X74500Y-60800D02*
X74500Y-61700D01*
X74500Y-61700D02*
X74000Y-61700D01*
X72500Y-61700D02*
X72500Y-60800D01*
X72500Y-60800D02*
X73000Y-60800D01*
X73000Y-60800D02*
X73000Y-61700D01*
X73000Y-61700D02*
X72500Y-61700D01*
X71750Y-61700D02*
X71750Y-60800D01*
X71750Y-60800D02*
X72250Y-60800D01*
X72250Y-60800D02*
X72250Y-61700D01*
X72250Y-61700D02*
X71750Y-61700D01*
X73250Y-61700D02*
X73250Y-60800D01*
X73250Y-60800D02*
X73750Y-60800D01*
X73750Y-60800D02*
X73750Y-61700D01*
X73750Y-61700D02*
X73250Y-61700D01*
X71500Y-60800D02*
X71500Y-61700D01*
X71500Y-61700D02*
X71000Y-61700D01*
X71000Y-61700D02*
X71000Y-60800D01*
X71000Y-60800D02*
X71500Y-60800D01*
G54D15*
X81644Y-43331D02*
X81644Y-44669D01*
X80856Y-43331D02*
X80856Y-44669D01*
X79990Y-44669D02*
X79990Y-43331D01*
X79990Y-43331D02*
X82510Y-43331D01*
X82510Y-43331D02*
X82510Y-44669D01*
X82510Y-44669D02*
X79990Y-44669D01*
G54D13*
X90500Y-41000D02*
G75*
G03X90500Y-41000I-1000J0D01*
G74*
G01*
X88000Y-42500D02*
X88000Y-39500D01*
X88000Y-39500D02*
X91000Y-39500D01*
X91000Y-39500D02*
X91000Y-42500D01*
X88000Y-42500D02*
X91000Y-42500D01*
X77225Y-43375D02*
X76965Y-43375D01*
X77225Y-42625D02*
X76965Y-42625D01*
X77775Y-43000D02*
X78035Y-43000D01*
X77775Y-42410D02*
X77775Y-43590D01*
X77775Y-43590D02*
X77225Y-43590D01*
X77225Y-43590D02*
X77225Y-42410D01*
X77225Y-42410D02*
X77775Y-42410D01*
X85104Y-34315D02*
X85104Y-33685D01*
X85144Y-33685D02*
X85144Y-34315D01*
X84199Y-33685D02*
X85301Y-33685D01*
X85301Y-33685D02*
X85301Y-34315D01*
X85301Y-34315D02*
X84199Y-34315D01*
X84199Y-34315D02*
X84199Y-33685D01*
X81300Y-38550D02*
X81300Y-38500D01*
X81300Y-38500D02*
X79200Y-38500D01*
X79200Y-40000D02*
X81300Y-40000D01*
X81300Y-40000D02*
X81300Y-38550D01*
X81300Y-39450D02*
X81100Y-39450D01*
X81100Y-39450D02*
X81100Y-39050D01*
X81100Y-39050D02*
X81300Y-39050D01*
X79200Y-40000D02*
X79200Y-38500D01*
X69950Y-43500D02*
X69050Y-43500D01*
X69050Y-43500D02*
X69050Y-44150D01*
X69950Y-44850D02*
X69950Y-45500D01*
X69950Y-45500D02*
X69050Y-45500D01*
X69050Y-45500D02*
X69050Y-44850D01*
X69950Y-44150D02*
X69950Y-43500D01*
X89800Y-37250D02*
X90700Y-37250D01*
X90700Y-37250D02*
X90700Y-37750D01*
X90700Y-37750D02*
X89800Y-37750D01*
X89800Y-37750D02*
X89800Y-37250D01*
X84000Y-41800D02*
X84000Y-42700D01*
X84000Y-42700D02*
X83500Y-42700D01*
X83500Y-42700D02*
X83500Y-41800D01*
X83500Y-41800D02*
X84000Y-41800D01*
X81250Y-41300D02*
X81250Y-42200D01*
X81250Y-42200D02*
X80750Y-42200D01*
X80750Y-42200D02*
X80750Y-41300D01*
X80750Y-41300D02*
X81250Y-41300D01*
X85750Y-41800D02*
X85750Y-42700D01*
X85750Y-42700D02*
X85250Y-42700D01*
X85250Y-42700D02*
X85250Y-41800D01*
X85250Y-41800D02*
X85750Y-41800D01*
X88550Y-37250D02*
X89450Y-37250D01*
X89450Y-37250D02*
X89450Y-37750D01*
X89450Y-37750D02*
X88550Y-37750D01*
X88550Y-37750D02*
X88550Y-37250D01*
X81250Y-36800D02*
X81250Y-37700D01*
X81250Y-37700D02*
X80750Y-37700D01*
X80750Y-37700D02*
X80750Y-36800D01*
X80750Y-36800D02*
X81250Y-36800D01*
X77750Y-41300D02*
X77750Y-42200D01*
X77750Y-42200D02*
X77250Y-42200D01*
X77250Y-42200D02*
X77250Y-41300D01*
X77250Y-41300D02*
X77750Y-41300D01*
X82250Y-38800D02*
X82250Y-39700D01*
X82250Y-39700D02*
X81750Y-39700D01*
X81750Y-39700D02*
X81750Y-38800D01*
X81750Y-38800D02*
X82250Y-38800D01*
X82250Y-40050D02*
X82250Y-40950D01*
X82250Y-40950D02*
X81750Y-40950D01*
X81750Y-40950D02*
X81750Y-40050D01*
X81750Y-40050D02*
X82250Y-40050D01*
X83000Y-37700D02*
X83000Y-36800D01*
X83000Y-36800D02*
X83500Y-36800D01*
X83500Y-36800D02*
X83500Y-37700D01*
X83500Y-37700D02*
X83000Y-37700D01*
X75800Y-45250D02*
X76700Y-45250D01*
X76700Y-45250D02*
X76700Y-45750D01*
X76700Y-45750D02*
X75800Y-45750D01*
X75800Y-45750D02*
X75800Y-45250D01*
X77000Y-41300D02*
X77000Y-42200D01*
X77000Y-42200D02*
X76500Y-42200D01*
X76500Y-42200D02*
X76500Y-41300D01*
X76500Y-41300D02*
X77000Y-41300D01*
X86450Y-32000D02*
X85550Y-32000D01*
X85550Y-32000D02*
X85550Y-31500D01*
X85550Y-31500D02*
X86450Y-31500D01*
X86450Y-31500D02*
X86450Y-32000D01*
X79750Y-36800D02*
X79750Y-37700D01*
X79750Y-37700D02*
X79250Y-37700D01*
X79250Y-37700D02*
X79250Y-36800D01*
X79250Y-36800D02*
X79750Y-36800D01*
X89800Y-36500D02*
X90700Y-36500D01*
X90700Y-36500D02*
X90700Y-37000D01*
X90700Y-37000D02*
X89800Y-37000D01*
X89800Y-37000D02*
X89800Y-36500D01*
X88550Y-36500D02*
X89450Y-36500D01*
X89450Y-36500D02*
X89450Y-37000D01*
X89450Y-37000D02*
X88550Y-37000D01*
X88550Y-37000D02*
X88550Y-36500D01*
X89800Y-35750D02*
X90700Y-35750D01*
X90700Y-35750D02*
X90700Y-36250D01*
X90700Y-36250D02*
X89800Y-36250D01*
X89800Y-36250D02*
X89800Y-35750D01*
X88550Y-35750D02*
X89450Y-35750D01*
X89450Y-35750D02*
X89450Y-36250D01*
X89450Y-36250D02*
X88550Y-36250D01*
X88550Y-36250D02*
X88550Y-35750D01*
X86450Y-36250D02*
X85550Y-36250D01*
X85550Y-36250D02*
X85550Y-35750D01*
X85550Y-35750D02*
X86450Y-35750D01*
X86450Y-35750D02*
X86450Y-36250D01*
X61787Y-36124D02*
X61787Y-42375D01*
X61787Y-42375D02*
X70212Y-42375D01*
X70212Y-42375D02*
X70212Y-36124D01*
X70212Y-36124D02*
X61787Y-36124D01*
X87600Y-34550D02*
X86350Y-34550D01*
X86350Y-34550D02*
X86350Y-35250D01*
X86350Y-35250D02*
X87600Y-35250D01*
X87600Y-32750D02*
X86350Y-32750D01*
X86350Y-32750D02*
X86350Y-33450D01*
X86350Y-33450D02*
X87600Y-33450D01*
X90000Y-35350D02*
X87600Y-35350D01*
X87600Y-35350D02*
X87600Y-32650D01*
X87600Y-32650D02*
X90700Y-32650D01*
X90750Y-32650D02*
X90750Y-35350D01*
X90700Y-35350D02*
X90000Y-35350D01*
X82250Y-34150D02*
X82250Y-35850D01*
X79800Y-34150D02*
X79800Y-35850D01*
X79800Y-35850D02*
X82700Y-35850D01*
X82700Y-35850D02*
X82700Y-34150D01*
X82700Y-34150D02*
X79800Y-34150D01*
X76250Y-35850D02*
X76250Y-34150D01*
X78700Y-35850D02*
X78700Y-34150D01*
X78700Y-34150D02*
X75800Y-34150D01*
X75800Y-34150D02*
X75800Y-35850D01*
X75800Y-35850D02*
X78700Y-35850D01*
G54D16*
X77250Y-30500D02*
X81250Y-30500D01*
X77250Y-30000D02*
X77250Y-33000D01*
X77250Y-33000D02*
X81250Y-33000D01*
X81250Y-33000D02*
X81250Y-30000D01*
X81250Y-30000D02*
X77250Y-30000D01*
G54D14*
X77650Y-39950D02*
X73850Y-39950D01*
X73850Y-39950D02*
X73850Y-38450D01*
X73850Y-38450D02*
X77650Y-38450D01*
X77650Y-38450D02*
X77650Y-39950D01*
X77650Y-39450D02*
X77350Y-39450D01*
X77350Y-39450D02*
X77350Y-39050D01*
X77350Y-39050D02*
X77650Y-39050D01*
G54D16*
X71750Y-44000D02*
X71750Y-44000D01*
X71750Y-44000D02*
X78750Y-44000D01*
X78750Y-44000D02*
X78750Y-45000D01*
X78750Y-45000D02*
X71750Y-45000D01*
X71750Y-45000D02*
X71750Y-44000D01*
X72750Y-45000D02*
X72750Y-45000D01*
X72750Y-45000D02*
X72750Y-44000D01*
G54D17*
X64150Y-31500D02*
G75*
G03X64150Y-31500I-900J0D01*
G74*
G01*
X93650Y-31500D02*
G75*
G03X93650Y-31500I-900J0D01*
G74*
G01*
X93650Y-45500D02*
G75*
G03X93650Y-45500I-900J0D01*
G74*
G01*
X64150Y-45500D02*
G75*
G03X64150Y-45500I-900J0D01*
G74*
G01*
G54D13*
X77146Y-36435D02*
X77146Y-37065D01*
X77106Y-37065D02*
X77106Y-36435D01*
X78051Y-37065D02*
X76949Y-37065D01*
X76949Y-37065D02*
X76949Y-36435D01*
X76949Y-36435D02*
X78051Y-36435D01*
X78051Y-36435D02*
X78051Y-37065D01*
X73854Y-36565D02*
X73854Y-35935D01*
X73894Y-35935D02*
X73894Y-36565D01*
X72949Y-35935D02*
X74051Y-35935D01*
X74051Y-35935D02*
X74051Y-36565D01*
X74051Y-36565D02*
X72949Y-36565D01*
X72949Y-36565D02*
X72949Y-35935D01*
X72065Y-41896D02*
X71435Y-41896D01*
X71435Y-41856D02*
X72065Y-41856D01*
X71435Y-42801D02*
X71435Y-41699D01*
X71435Y-41699D02*
X72065Y-41699D01*
X72065Y-41699D02*
X72065Y-42801D01*
X72065Y-42801D02*
X71435Y-42801D01*
X73065Y-41896D02*
X72435Y-41896D01*
X72435Y-41856D02*
X73065Y-41856D01*
X72435Y-42801D02*
X72435Y-41699D01*
X72435Y-41699D02*
X73065Y-41699D01*
X73065Y-41699D02*
X73065Y-42801D01*
X73065Y-42801D02*
X72435Y-42801D01*
X72450Y-37750D02*
X71550Y-37750D01*
X71550Y-37750D02*
X71550Y-37250D01*
X71550Y-37250D02*
X72450Y-37250D01*
X72450Y-37250D02*
X72450Y-37750D01*
X72450Y-38750D02*
X71550Y-38750D01*
X71550Y-38750D02*
X71550Y-38250D01*
X71550Y-38250D02*
X72450Y-38250D01*
X72450Y-38250D02*
X72450Y-38750D01*
X72450Y-39750D02*
X71550Y-39750D01*
X71550Y-39750D02*
X71550Y-39250D01*
X71550Y-39250D02*
X72450Y-39250D01*
X72450Y-39250D02*
X72450Y-39750D01*
X72450Y-40750D02*
X71550Y-40750D01*
X71550Y-40750D02*
X71550Y-40250D01*
X71550Y-40250D02*
X72450Y-40250D01*
X72450Y-40250D02*
X72450Y-40750D01*
G54D14*
X82850Y-38550D02*
X86650Y-38550D01*
X86650Y-38550D02*
X86650Y-40050D01*
X86650Y-40050D02*
X82850Y-40050D01*
X82850Y-40050D02*
X82850Y-38550D01*
X82850Y-39050D02*
X83150Y-39050D01*
X83150Y-39050D02*
X83150Y-39450D01*
X83150Y-39450D02*
X82850Y-39450D01*
G54D17*
X90957Y-45799D02*
X90957Y-43201D01*
X90957Y-43201D02*
X88043Y-43201D01*
X88043Y-43201D02*
X88043Y-45799D01*
X88043Y-45799D02*
X90957Y-45799D01*
G54D18*
X74250Y-32250D02*
X65250Y-32250D01*
X65250Y-32250D02*
X65250Y-34750D01*
X65250Y-34750D02*
X74250Y-34750D01*
X74250Y-34750D02*
X74250Y-32250D01*
G54D10*
X65250Y-32250D02*
X74250Y-32250D01*
X74250Y-32250D02*
X74250Y-34750D01*
G54D19*
X90884Y-60580D02*
X90824Y-60485D01*
X90781Y-60580D02*
X90781Y-60380D01*
X90850Y-60380D01*
X90867Y-60390D01*
X90875Y-60400D01*
X90884Y-60419D01*
X90884Y-60447D01*
X90875Y-60466D01*
X90867Y-60476D01*
X90850Y-60485D01*
X90781Y-60485D01*
X90952Y-60400D02*
X90961Y-60390D01*
X90978Y-60380D01*
X91021Y-60380D01*
X91038Y-60390D01*
X91047Y-60400D01*
X91055Y-60419D01*
X91055Y-60438D01*
X91047Y-60466D01*
X90944Y-60580D01*
X91055Y-60580D01*
X91115Y-60380D02*
X91227Y-60380D01*
X91167Y-60457D01*
X91192Y-60457D01*
X91210Y-60466D01*
X91218Y-60476D01*
X91227Y-60495D01*
X91227Y-60542D01*
X91218Y-60561D01*
X91210Y-60571D01*
X91192Y-60580D01*
X91141Y-60580D01*
X91124Y-60571D01*
X91115Y-60561D01*
X93134Y-60580D02*
X93074Y-60485D01*
X93031Y-60580D02*
X93031Y-60380D01*
X93100Y-60380D01*
X93117Y-60390D01*
X93125Y-60400D01*
X93134Y-60419D01*
X93134Y-60447D01*
X93125Y-60466D01*
X93117Y-60476D01*
X93100Y-60485D01*
X93031Y-60485D01*
X93202Y-60400D02*
X93211Y-60390D01*
X93228Y-60380D01*
X93271Y-60380D01*
X93288Y-60390D01*
X93297Y-60400D01*
X93305Y-60419D01*
X93305Y-60438D01*
X93297Y-60466D01*
X93194Y-60580D01*
X93305Y-60580D01*
X93374Y-60400D02*
X93382Y-60390D01*
X93400Y-60380D01*
X93442Y-60380D01*
X93460Y-60390D01*
X93468Y-60400D01*
X93477Y-60419D01*
X93477Y-60438D01*
X93468Y-60466D01*
X93365Y-60580D01*
X93477Y-60580D01*
X91634Y-60580D02*
X91574Y-60485D01*
X91531Y-60580D02*
X91531Y-60380D01*
X91600Y-60380D01*
X91617Y-60390D01*
X91625Y-60400D01*
X91634Y-60419D01*
X91634Y-60447D01*
X91625Y-60466D01*
X91617Y-60476D01*
X91600Y-60485D01*
X91531Y-60485D01*
X91702Y-60400D02*
X91711Y-60390D01*
X91728Y-60380D01*
X91771Y-60380D01*
X91788Y-60390D01*
X91797Y-60400D01*
X91805Y-60419D01*
X91805Y-60438D01*
X91797Y-60466D01*
X91694Y-60580D01*
X91805Y-60580D01*
X91977Y-60580D02*
X91874Y-60580D01*
X91925Y-60580D02*
X91925Y-60380D01*
X91908Y-60409D01*
X91891Y-60428D01*
X91874Y-60438D01*
X92384Y-60580D02*
X92324Y-60485D01*
X92281Y-60580D02*
X92281Y-60380D01*
X92350Y-60380D01*
X92367Y-60390D01*
X92375Y-60400D01*
X92384Y-60419D01*
X92384Y-60447D01*
X92375Y-60466D01*
X92367Y-60476D01*
X92350Y-60485D01*
X92281Y-60485D01*
X92452Y-60400D02*
X92461Y-60390D01*
X92478Y-60380D01*
X92521Y-60380D01*
X92538Y-60390D01*
X92547Y-60400D01*
X92555Y-60419D01*
X92555Y-60438D01*
X92547Y-60466D01*
X92444Y-60580D01*
X92555Y-60580D01*
X92667Y-60380D02*
X92684Y-60380D01*
X92701Y-60390D01*
X92710Y-60400D01*
X92718Y-60419D01*
X92727Y-60457D01*
X92727Y-60504D01*
X92718Y-60542D01*
X92710Y-60561D01*
X92701Y-60571D01*
X92684Y-60580D01*
X92667Y-60580D01*
X92650Y-60571D01*
X92641Y-60561D01*
X92632Y-60542D01*
X92624Y-60504D01*
X92624Y-60457D01*
X92632Y-60419D01*
X92641Y-60400D01*
X92650Y-60390D01*
X92667Y-60380D01*
X93884Y-60580D02*
X93824Y-60485D01*
X93781Y-60580D02*
X93781Y-60380D01*
X93850Y-60380D01*
X93867Y-60390D01*
X93875Y-60400D01*
X93884Y-60419D01*
X93884Y-60447D01*
X93875Y-60466D01*
X93867Y-60476D01*
X93850Y-60485D01*
X93781Y-60485D01*
X94055Y-60580D02*
X93952Y-60580D01*
X94004Y-60580D02*
X94004Y-60380D01*
X93987Y-60409D01*
X93970Y-60428D01*
X93952Y-60438D01*
X94141Y-60580D02*
X94175Y-60580D01*
X94192Y-60571D01*
X94201Y-60561D01*
X94218Y-60533D01*
X94227Y-60495D01*
X94227Y-60419D01*
X94218Y-60400D01*
X94210Y-60390D01*
X94192Y-60380D01*
X94158Y-60380D01*
X94141Y-60390D01*
X94132Y-60400D01*
X94124Y-60419D01*
X94124Y-60466D01*
X94132Y-60485D01*
X94141Y-60495D01*
X94158Y-60504D01*
X94192Y-60504D01*
X94210Y-60495D01*
X94218Y-60485D01*
X94227Y-60466D01*
G54D20*
X87634Y-60063D02*
X87634Y-59906D01*
X87671Y-59906D01*
X87693Y-59914D01*
X87708Y-59928D01*
X87716Y-59943D01*
X87723Y-59973D01*
X87723Y-59996D01*
X87716Y-60026D01*
X87708Y-60041D01*
X87693Y-60056D01*
X87671Y-60063D01*
X87634Y-60063D01*
X87813Y-59973D02*
X87798Y-59966D01*
X87791Y-59958D01*
X87783Y-59943D01*
X87783Y-59936D01*
X87791Y-59921D01*
X87798Y-59914D01*
X87813Y-59906D01*
X87843Y-59906D01*
X87858Y-59914D01*
X87865Y-59921D01*
X87873Y-59936D01*
X87873Y-59943D01*
X87865Y-59958D01*
X87858Y-59966D01*
X87843Y-59973D01*
X87813Y-59973D01*
X87798Y-59981D01*
X87791Y-59988D01*
X87783Y-60003D01*
X87783Y-60033D01*
X87791Y-60048D01*
X87798Y-60056D01*
X87813Y-60063D01*
X87843Y-60063D01*
X87858Y-60056D01*
X87865Y-60048D01*
X87873Y-60033D01*
X87873Y-60003D01*
X87865Y-59988D01*
X87858Y-59981D01*
X87843Y-59973D01*
X99134Y-60063D02*
X99134Y-59906D01*
X99171Y-59906D01*
X99193Y-59914D01*
X99208Y-59928D01*
X99216Y-59943D01*
X99223Y-59973D01*
X99223Y-59996D01*
X99216Y-60026D01*
X99208Y-60041D01*
X99193Y-60056D01*
X99171Y-60063D01*
X99134Y-60063D01*
X99276Y-59906D02*
X99380Y-59906D01*
X99313Y-60063D01*
X87634Y-59313D02*
X87634Y-59156D01*
X87671Y-59156D01*
X87693Y-59164D01*
X87708Y-59178D01*
X87716Y-59193D01*
X87723Y-59223D01*
X87723Y-59246D01*
X87716Y-59276D01*
X87708Y-59291D01*
X87693Y-59306D01*
X87671Y-59313D01*
X87634Y-59313D01*
X87858Y-59156D02*
X87828Y-59156D01*
X87813Y-59164D01*
X87806Y-59171D01*
X87791Y-59193D01*
X87783Y-59223D01*
X87783Y-59283D01*
X87791Y-59298D01*
X87798Y-59306D01*
X87813Y-59313D01*
X87843Y-59313D01*
X87858Y-59306D01*
X87865Y-59298D01*
X87873Y-59283D01*
X87873Y-59246D01*
X87865Y-59231D01*
X87858Y-59223D01*
X87843Y-59216D01*
X87813Y-59216D01*
X87798Y-59223D01*
X87791Y-59231D01*
X87783Y-59246D01*
X87634Y-60813D02*
X87634Y-60656D01*
X87671Y-60656D01*
X87693Y-60664D01*
X87708Y-60678D01*
X87716Y-60693D01*
X87723Y-60723D01*
X87723Y-60746D01*
X87716Y-60776D01*
X87708Y-60791D01*
X87693Y-60806D01*
X87671Y-60813D01*
X87634Y-60813D01*
X87865Y-60656D02*
X87791Y-60656D01*
X87783Y-60731D01*
X87791Y-60723D01*
X87806Y-60716D01*
X87843Y-60716D01*
X87858Y-60723D01*
X87865Y-60731D01*
X87873Y-60746D01*
X87873Y-60783D01*
X87865Y-60798D01*
X87858Y-60806D01*
X87843Y-60813D01*
X87806Y-60813D01*
X87791Y-60806D01*
X87783Y-60798D01*
X99134Y-60813D02*
X99134Y-60656D01*
X99171Y-60656D01*
X99193Y-60664D01*
X99208Y-60678D01*
X99216Y-60693D01*
X99223Y-60723D01*
X99223Y-60746D01*
X99216Y-60776D01*
X99208Y-60791D01*
X99193Y-60806D01*
X99171Y-60813D01*
X99134Y-60813D01*
X99358Y-60708D02*
X99358Y-60813D01*
X99321Y-60649D02*
X99283Y-60761D01*
X99380Y-60761D01*
G54D19*
X86811Y-55530D02*
X86821Y-55538D01*
X86830Y-55564D01*
X86830Y-55581D01*
X86821Y-55607D01*
X86802Y-55624D01*
X86783Y-55632D01*
X86745Y-55641D01*
X86716Y-55641D01*
X86678Y-55632D01*
X86659Y-55624D01*
X86640Y-55607D01*
X86630Y-55581D01*
X86630Y-55564D01*
X86640Y-55538D01*
X86650Y-55530D01*
X86630Y-55367D02*
X86630Y-55452D01*
X86726Y-55461D01*
X86716Y-55452D01*
X86707Y-55435D01*
X86707Y-55392D01*
X86716Y-55375D01*
X86726Y-55367D01*
X86745Y-55358D01*
X86792Y-55358D01*
X86811Y-55367D01*
X86821Y-55375D01*
X86830Y-55392D01*
X86830Y-55435D01*
X86821Y-55452D01*
X86811Y-55461D01*
G54D21*
X82735Y-58782D02*
X82745Y-58792D01*
X82754Y-58820D01*
X82754Y-58839D01*
X82745Y-58867D01*
X82726Y-58886D01*
X82707Y-58895D01*
X82670Y-58904D01*
X82642Y-58904D01*
X82604Y-58895D01*
X82585Y-58886D01*
X82567Y-58867D01*
X82557Y-58839D01*
X82557Y-58820D01*
X82567Y-58792D01*
X82576Y-58782D01*
X82576Y-58707D02*
X82567Y-58698D01*
X82557Y-58679D01*
X82557Y-58632D01*
X82567Y-58613D01*
X82576Y-58604D01*
X82595Y-58595D01*
X82614Y-58595D01*
X82642Y-58604D01*
X82754Y-58717D01*
X82754Y-58595D01*
G54D14*
X81952Y-52554D02*
X82357Y-52554D01*
X82404Y-52535D01*
X82428Y-52516D01*
X82452Y-52478D01*
X82452Y-52402D01*
X82428Y-52364D01*
X82404Y-52345D01*
X82357Y-52326D01*
X81952Y-52326D01*
X82000Y-52154D02*
X81976Y-52135D01*
X81952Y-52097D01*
X81952Y-52002D01*
X81976Y-51964D01*
X82000Y-51945D01*
X82047Y-51926D01*
X82095Y-51926D01*
X82166Y-51945D01*
X82452Y-52173D01*
X82452Y-51926D01*
G54D19*
X89830Y-56280D02*
X89735Y-56340D01*
X89830Y-56382D02*
X89630Y-56382D01*
X89630Y-56314D01*
X89640Y-56297D01*
X89650Y-56288D01*
X89669Y-56280D01*
X89697Y-56280D01*
X89716Y-56288D01*
X89726Y-56297D01*
X89735Y-56314D01*
X89735Y-56382D01*
X89830Y-56194D02*
X89830Y-56160D01*
X89821Y-56142D01*
X89811Y-56134D01*
X89783Y-56117D01*
X89745Y-56108D01*
X89669Y-56108D01*
X89650Y-56117D01*
X89640Y-56125D01*
X89630Y-56142D01*
X89630Y-56177D01*
X89640Y-56194D01*
X89650Y-56202D01*
X89669Y-56211D01*
X89716Y-56211D01*
X89735Y-56202D01*
X89745Y-56194D01*
X89754Y-56177D01*
X89754Y-56142D01*
X89745Y-56125D01*
X89735Y-56117D01*
X89716Y-56108D01*
X88330Y-56365D02*
X88235Y-56425D01*
X88330Y-56468D02*
X88130Y-56468D01*
X88130Y-56400D01*
X88140Y-56382D01*
X88150Y-56374D01*
X88169Y-56365D01*
X88197Y-56365D01*
X88216Y-56374D01*
X88226Y-56382D01*
X88235Y-56400D01*
X88235Y-56468D01*
X88330Y-56194D02*
X88330Y-56297D01*
X88330Y-56245D02*
X88130Y-56245D01*
X88159Y-56262D01*
X88178Y-56280D01*
X88188Y-56297D01*
X88130Y-56082D02*
X88130Y-56065D01*
X88140Y-56048D01*
X88150Y-56040D01*
X88169Y-56031D01*
X88207Y-56022D01*
X88254Y-56022D01*
X88292Y-56031D01*
X88311Y-56040D01*
X88321Y-56048D01*
X88330Y-56065D01*
X88330Y-56082D01*
X88321Y-56100D01*
X88311Y-56108D01*
X88292Y-56117D01*
X88254Y-56125D01*
X88207Y-56125D01*
X88169Y-56117D01*
X88150Y-56108D01*
X88140Y-56100D01*
X88130Y-56082D01*
X91330Y-56280D02*
X91235Y-56340D01*
X91330Y-56382D02*
X91130Y-56382D01*
X91130Y-56314D01*
X91140Y-56297D01*
X91150Y-56288D01*
X91169Y-56280D01*
X91197Y-56280D01*
X91216Y-56288D01*
X91226Y-56297D01*
X91235Y-56314D01*
X91235Y-56382D01*
X91216Y-56177D02*
X91207Y-56194D01*
X91197Y-56202D01*
X91178Y-56211D01*
X91169Y-56211D01*
X91150Y-56202D01*
X91140Y-56194D01*
X91130Y-56177D01*
X91130Y-56142D01*
X91140Y-56125D01*
X91150Y-56117D01*
X91169Y-56108D01*
X91178Y-56108D01*
X91197Y-56117D01*
X91207Y-56125D01*
X91216Y-56142D01*
X91216Y-56177D01*
X91226Y-56194D01*
X91235Y-56202D01*
X91254Y-56211D01*
X91292Y-56211D01*
X91311Y-56202D01*
X91321Y-56194D01*
X91330Y-56177D01*
X91330Y-56142D01*
X91321Y-56125D01*
X91311Y-56117D01*
X91292Y-56108D01*
X91254Y-56108D01*
X91235Y-56117D01*
X91226Y-56125D01*
X91216Y-56142D01*
X95720Y-59561D02*
X95711Y-59571D01*
X95685Y-59580D01*
X95668Y-59580D01*
X95642Y-59571D01*
X95625Y-59552D01*
X95617Y-59533D01*
X95608Y-59495D01*
X95608Y-59466D01*
X95617Y-59428D01*
X95625Y-59409D01*
X95642Y-59390D01*
X95668Y-59380D01*
X95685Y-59380D01*
X95711Y-59390D01*
X95720Y-59400D01*
X95891Y-59580D02*
X95788Y-59580D01*
X95840Y-59580D02*
X95840Y-59380D01*
X95822Y-59409D01*
X95805Y-59428D01*
X95788Y-59438D01*
X83830Y-48882D02*
X83630Y-48882D01*
X83630Y-48840D01*
X83640Y-48814D01*
X83659Y-48797D01*
X83678Y-48788D01*
X83716Y-48780D01*
X83745Y-48780D01*
X83783Y-48788D01*
X83802Y-48797D01*
X83821Y-48814D01*
X83830Y-48840D01*
X83830Y-48882D01*
X83830Y-48608D02*
X83830Y-48711D01*
X83830Y-48660D02*
X83630Y-48660D01*
X83659Y-48677D01*
X83678Y-48694D01*
X83688Y-48711D01*
X92830Y-56280D02*
X92735Y-56340D01*
X92830Y-56382D02*
X92630Y-56382D01*
X92630Y-56314D01*
X92640Y-56297D01*
X92650Y-56288D01*
X92669Y-56280D01*
X92697Y-56280D01*
X92716Y-56288D01*
X92726Y-56297D01*
X92735Y-56314D01*
X92735Y-56382D01*
X92630Y-56220D02*
X92630Y-56100D01*
X92830Y-56177D01*
X83330Y-49530D02*
X83235Y-49590D01*
X83330Y-49632D02*
X83130Y-49632D01*
X83130Y-49564D01*
X83140Y-49547D01*
X83150Y-49538D01*
X83169Y-49530D01*
X83197Y-49530D01*
X83216Y-49538D01*
X83226Y-49547D01*
X83235Y-49564D01*
X83235Y-49632D01*
X83330Y-49358D02*
X83330Y-49461D01*
X83330Y-49410D02*
X83130Y-49410D01*
X83159Y-49427D01*
X83178Y-49444D01*
X83188Y-49461D01*
X84580Y-48882D02*
X84380Y-48882D01*
X84380Y-48840D01*
X84390Y-48814D01*
X84409Y-48797D01*
X84428Y-48788D01*
X84466Y-48780D01*
X84495Y-48780D01*
X84533Y-48788D01*
X84552Y-48797D01*
X84571Y-48814D01*
X84580Y-48840D01*
X84580Y-48882D01*
X84380Y-48720D02*
X84380Y-48608D01*
X84457Y-48668D01*
X84457Y-48642D01*
X84466Y-48625D01*
X84476Y-48617D01*
X84495Y-48608D01*
X84542Y-48608D01*
X84561Y-48617D01*
X84571Y-48625D01*
X84580Y-48642D01*
X84580Y-48694D01*
X84571Y-48711D01*
X84561Y-48720D01*
X94330Y-56280D02*
X94235Y-56340D01*
X94330Y-56382D02*
X94130Y-56382D01*
X94130Y-56314D01*
X94140Y-56297D01*
X94150Y-56288D01*
X94169Y-56280D01*
X94197Y-56280D01*
X94216Y-56288D01*
X94226Y-56297D01*
X94235Y-56314D01*
X94235Y-56382D01*
X94130Y-56125D02*
X94130Y-56160D01*
X94140Y-56177D01*
X94150Y-56185D01*
X94178Y-56202D01*
X94216Y-56211D01*
X94292Y-56211D01*
X94311Y-56202D01*
X94321Y-56194D01*
X94330Y-56177D01*
X94330Y-56142D01*
X94321Y-56125D01*
X94311Y-56117D01*
X94292Y-56108D01*
X94245Y-56108D01*
X94226Y-56117D01*
X94216Y-56125D01*
X94207Y-56142D01*
X94207Y-56177D01*
X94216Y-56194D01*
X94226Y-56202D01*
X94245Y-56211D01*
X95830Y-56280D02*
X95735Y-56340D01*
X95830Y-56382D02*
X95630Y-56382D01*
X95630Y-56314D01*
X95640Y-56297D01*
X95650Y-56288D01*
X95669Y-56280D01*
X95697Y-56280D01*
X95716Y-56288D01*
X95726Y-56297D01*
X95735Y-56314D01*
X95735Y-56382D01*
X95630Y-56117D02*
X95630Y-56202D01*
X95726Y-56211D01*
X95716Y-56202D01*
X95707Y-56185D01*
X95707Y-56142D01*
X95716Y-56125D01*
X95726Y-56117D01*
X95745Y-56108D01*
X95792Y-56108D01*
X95811Y-56117D01*
X95821Y-56125D01*
X95830Y-56142D01*
X95830Y-56185D01*
X95821Y-56202D01*
X95811Y-56211D01*
X97330Y-56280D02*
X97235Y-56340D01*
X97330Y-56382D02*
X97130Y-56382D01*
X97130Y-56314D01*
X97140Y-56297D01*
X97150Y-56288D01*
X97169Y-56280D01*
X97197Y-56280D01*
X97216Y-56288D01*
X97226Y-56297D01*
X97235Y-56314D01*
X97235Y-56382D01*
X97197Y-56125D02*
X97330Y-56125D01*
X97121Y-56168D02*
X97264Y-56211D01*
X97264Y-56100D01*
X82811Y-55530D02*
X82821Y-55538D01*
X82830Y-55564D01*
X82830Y-55581D01*
X82821Y-55607D01*
X82802Y-55624D01*
X82783Y-55632D01*
X82745Y-55641D01*
X82716Y-55641D01*
X82678Y-55632D01*
X82659Y-55624D01*
X82640Y-55607D01*
X82630Y-55581D01*
X82630Y-55564D01*
X82640Y-55538D01*
X82650Y-55530D01*
X82630Y-55470D02*
X82630Y-55358D01*
X82707Y-55418D01*
X82707Y-55392D01*
X82716Y-55375D01*
X82726Y-55367D01*
X82745Y-55358D01*
X82792Y-55358D01*
X82811Y-55367D01*
X82821Y-55375D01*
X82830Y-55392D01*
X82830Y-55444D01*
X82821Y-55461D01*
X82811Y-55470D01*
X98830Y-56280D02*
X98735Y-56340D01*
X98830Y-56382D02*
X98630Y-56382D01*
X98630Y-56314D01*
X98640Y-56297D01*
X98650Y-56288D01*
X98669Y-56280D01*
X98697Y-56280D01*
X98716Y-56288D01*
X98726Y-56297D01*
X98735Y-56314D01*
X98735Y-56382D01*
X98630Y-56220D02*
X98630Y-56108D01*
X98707Y-56168D01*
X98707Y-56142D01*
X98716Y-56125D01*
X98726Y-56117D01*
X98745Y-56108D01*
X98792Y-56108D01*
X98811Y-56117D01*
X98821Y-56125D01*
X98830Y-56142D01*
X98830Y-56194D01*
X98821Y-56211D01*
X98811Y-56220D01*
X85080Y-49530D02*
X84985Y-49590D01*
X85080Y-49632D02*
X84880Y-49632D01*
X84880Y-49564D01*
X84890Y-49547D01*
X84900Y-49538D01*
X84919Y-49530D01*
X84947Y-49530D01*
X84966Y-49538D01*
X84976Y-49547D01*
X84985Y-49564D01*
X84985Y-49632D01*
X84900Y-49461D02*
X84890Y-49452D01*
X84880Y-49435D01*
X84880Y-49392D01*
X84890Y-49375D01*
X84900Y-49367D01*
X84919Y-49358D01*
X84938Y-49358D01*
X84966Y-49367D01*
X85080Y-49470D01*
X85080Y-49358D01*
G54D13*
X87121Y-52442D02*
X86978Y-52542D01*
X87121Y-52614D02*
X86821Y-52614D01*
X86821Y-52500D01*
X86835Y-52471D01*
X86850Y-52457D01*
X86878Y-52442D01*
X86921Y-52442D01*
X86950Y-52457D01*
X86964Y-52471D01*
X86978Y-52500D01*
X86978Y-52614D01*
X87121Y-52157D02*
X87121Y-52328D01*
X87121Y-52242D02*
X86821Y-52242D01*
X86864Y-52271D01*
X86892Y-52300D01*
X86907Y-52328D01*
X86950Y-51985D02*
X86935Y-52014D01*
X86921Y-52028D01*
X86892Y-52042D01*
X86878Y-52042D01*
X86850Y-52028D01*
X86835Y-52014D01*
X86821Y-51985D01*
X86821Y-51928D01*
X86835Y-51900D01*
X86850Y-51885D01*
X86878Y-51871D01*
X86892Y-51871D01*
X86921Y-51885D01*
X86935Y-51900D01*
X86950Y-51928D01*
X86950Y-51985D01*
X86964Y-52014D01*
X86978Y-52028D01*
X87007Y-52042D01*
X87064Y-52042D01*
X87092Y-52028D01*
X87107Y-52014D01*
X87121Y-51985D01*
X87121Y-51928D01*
X87107Y-51900D01*
X87092Y-51885D01*
X87064Y-51871D01*
X87007Y-51871D01*
X86978Y-51885D01*
X86964Y-51900D01*
X86950Y-51928D01*
X97621Y-52442D02*
X97478Y-52542D01*
X97621Y-52614D02*
X97321Y-52614D01*
X97321Y-52500D01*
X97335Y-52471D01*
X97350Y-52457D01*
X97378Y-52442D01*
X97421Y-52442D01*
X97450Y-52457D01*
X97464Y-52471D01*
X97478Y-52500D01*
X97478Y-52614D01*
X97621Y-52157D02*
X97621Y-52328D01*
X97621Y-52242D02*
X97321Y-52242D01*
X97364Y-52271D01*
X97392Y-52300D01*
X97407Y-52328D01*
X97621Y-51871D02*
X97621Y-52042D01*
X97621Y-51957D02*
X97321Y-51957D01*
X97364Y-51985D01*
X97392Y-52014D01*
X97407Y-52042D01*
X96121Y-52442D02*
X95978Y-52542D01*
X96121Y-52614D02*
X95821Y-52614D01*
X95821Y-52500D01*
X95835Y-52471D01*
X95850Y-52457D01*
X95878Y-52442D01*
X95921Y-52442D01*
X95950Y-52457D01*
X95964Y-52471D01*
X95978Y-52500D01*
X95978Y-52614D01*
X96121Y-52157D02*
X96121Y-52328D01*
X96121Y-52242D02*
X95821Y-52242D01*
X95864Y-52271D01*
X95892Y-52300D01*
X95907Y-52328D01*
X95850Y-52042D02*
X95835Y-52028D01*
X95821Y-52000D01*
X95821Y-51928D01*
X95835Y-51900D01*
X95850Y-51885D01*
X95878Y-51871D01*
X95907Y-51871D01*
X95950Y-51885D01*
X96121Y-52057D01*
X96121Y-51871D01*
X94621Y-52442D02*
X94478Y-52542D01*
X94621Y-52614D02*
X94321Y-52614D01*
X94321Y-52500D01*
X94335Y-52471D01*
X94350Y-52457D01*
X94378Y-52442D01*
X94421Y-52442D01*
X94450Y-52457D01*
X94464Y-52471D01*
X94478Y-52500D01*
X94478Y-52614D01*
X94621Y-52157D02*
X94621Y-52328D01*
X94621Y-52242D02*
X94321Y-52242D01*
X94364Y-52271D01*
X94392Y-52300D01*
X94407Y-52328D01*
X94321Y-52057D02*
X94321Y-51871D01*
X94435Y-51971D01*
X94435Y-51928D01*
X94450Y-51900D01*
X94464Y-51885D01*
X94492Y-51871D01*
X94564Y-51871D01*
X94592Y-51885D01*
X94607Y-51900D01*
X94621Y-51928D01*
X94621Y-52014D01*
X94607Y-52042D01*
X94592Y-52057D01*
X88621Y-52442D02*
X88478Y-52542D01*
X88621Y-52614D02*
X88321Y-52614D01*
X88321Y-52500D01*
X88335Y-52471D01*
X88350Y-52457D01*
X88378Y-52442D01*
X88421Y-52442D01*
X88450Y-52457D01*
X88464Y-52471D01*
X88478Y-52500D01*
X88478Y-52614D01*
X88621Y-52157D02*
X88621Y-52328D01*
X88621Y-52242D02*
X88321Y-52242D01*
X88364Y-52271D01*
X88392Y-52300D01*
X88407Y-52328D01*
X88321Y-52057D02*
X88321Y-51857D01*
X88621Y-51985D01*
X91621Y-52442D02*
X91478Y-52542D01*
X91621Y-52614D02*
X91321Y-52614D01*
X91321Y-52500D01*
X91335Y-52471D01*
X91350Y-52457D01*
X91378Y-52442D01*
X91421Y-52442D01*
X91450Y-52457D01*
X91464Y-52471D01*
X91478Y-52500D01*
X91478Y-52614D01*
X91621Y-52157D02*
X91621Y-52328D01*
X91621Y-52242D02*
X91321Y-52242D01*
X91364Y-52271D01*
X91392Y-52300D01*
X91407Y-52328D01*
X91321Y-51885D02*
X91321Y-52028D01*
X91464Y-52042D01*
X91450Y-52028D01*
X91435Y-52000D01*
X91435Y-51928D01*
X91450Y-51900D01*
X91464Y-51885D01*
X91492Y-51871D01*
X91564Y-51871D01*
X91592Y-51885D01*
X91607Y-51900D01*
X91621Y-51928D01*
X91621Y-52000D01*
X91607Y-52028D01*
X91592Y-52042D01*
X90121Y-52442D02*
X89978Y-52542D01*
X90121Y-52614D02*
X89821Y-52614D01*
X89821Y-52500D01*
X89835Y-52471D01*
X89850Y-52457D01*
X89878Y-52442D01*
X89921Y-52442D01*
X89950Y-52457D01*
X89964Y-52471D01*
X89978Y-52500D01*
X89978Y-52614D01*
X90121Y-52157D02*
X90121Y-52328D01*
X90121Y-52242D02*
X89821Y-52242D01*
X89864Y-52271D01*
X89892Y-52300D01*
X89907Y-52328D01*
X89821Y-51900D02*
X89821Y-51957D01*
X89835Y-51985D01*
X89850Y-52000D01*
X89892Y-52028D01*
X89950Y-52042D01*
X90064Y-52042D01*
X90092Y-52028D01*
X90107Y-52014D01*
X90121Y-51985D01*
X90121Y-51928D01*
X90107Y-51900D01*
X90092Y-51885D01*
X90064Y-51871D01*
X89992Y-51871D01*
X89964Y-51885D01*
X89950Y-51900D01*
X89935Y-51928D01*
X89935Y-51985D01*
X89950Y-52014D01*
X89964Y-52028D01*
X89992Y-52042D01*
X93121Y-52442D02*
X92978Y-52542D01*
X93121Y-52614D02*
X92821Y-52614D01*
X92821Y-52500D01*
X92835Y-52471D01*
X92850Y-52457D01*
X92878Y-52442D01*
X92921Y-52442D01*
X92950Y-52457D01*
X92964Y-52471D01*
X92978Y-52500D01*
X92978Y-52614D01*
X93121Y-52157D02*
X93121Y-52328D01*
X93121Y-52242D02*
X92821Y-52242D01*
X92864Y-52271D01*
X92892Y-52300D01*
X92907Y-52328D01*
X92921Y-51900D02*
X93121Y-51900D01*
X92807Y-51971D02*
X93021Y-52042D01*
X93021Y-51857D01*
X95407Y-58261D02*
X95407Y-58585D01*
X95428Y-58623D01*
X95450Y-58642D01*
X95492Y-58661D01*
X95578Y-58661D01*
X95621Y-58642D01*
X95642Y-58623D01*
X95664Y-58585D01*
X95664Y-58261D01*
X96114Y-58661D02*
X95857Y-58661D01*
X95985Y-58661D02*
X95985Y-58261D01*
X95942Y-58319D01*
X95900Y-58357D01*
X95857Y-58376D01*
G54D20*
X84384Y-56813D02*
X84384Y-56656D01*
X84421Y-56656D01*
X84443Y-56664D01*
X84458Y-56678D01*
X84466Y-56693D01*
X84473Y-56723D01*
X84473Y-56746D01*
X84466Y-56776D01*
X84458Y-56791D01*
X84443Y-56806D01*
X84421Y-56813D01*
X84384Y-56813D01*
X84533Y-56671D02*
X84541Y-56664D01*
X84556Y-56656D01*
X84593Y-56656D01*
X84608Y-56664D01*
X84615Y-56671D01*
X84623Y-56686D01*
X84623Y-56701D01*
X84615Y-56723D01*
X84526Y-56813D01*
X84623Y-56813D01*
G54D22*
X93068Y-54263D02*
X93062Y-54276D01*
X93049Y-54289D01*
X93029Y-54309D01*
X93022Y-54322D01*
X93022Y-54335D01*
X93055Y-54328D02*
X93049Y-54341D01*
X93036Y-54354D01*
X93009Y-54361D01*
X92963Y-54361D01*
X92937Y-54354D01*
X92924Y-54341D01*
X92917Y-54328D01*
X92917Y-54302D01*
X92924Y-54289D01*
X92937Y-54276D01*
X92963Y-54269D01*
X93009Y-54269D01*
X93036Y-54276D01*
X93049Y-54289D01*
X93055Y-54302D01*
X93055Y-54328D01*
X92917Y-54145D02*
X92917Y-54210D01*
X92983Y-54217D01*
X92977Y-54210D01*
X92970Y-54197D01*
X92970Y-54164D01*
X92977Y-54151D01*
X92983Y-54145D01*
X92996Y-54138D01*
X93029Y-54138D01*
X93042Y-54145D01*
X93049Y-54151D01*
X93055Y-54164D01*
X93055Y-54197D01*
X93049Y-54210D01*
X93042Y-54217D01*
X94568Y-54263D02*
X94562Y-54276D01*
X94549Y-54289D01*
X94529Y-54309D01*
X94522Y-54322D01*
X94522Y-54335D01*
X94555Y-54328D02*
X94549Y-54341D01*
X94536Y-54354D01*
X94509Y-54361D01*
X94463Y-54361D01*
X94437Y-54354D01*
X94424Y-54341D01*
X94417Y-54328D01*
X94417Y-54302D01*
X94424Y-54289D01*
X94437Y-54276D01*
X94463Y-54269D01*
X94509Y-54269D01*
X94536Y-54276D01*
X94549Y-54289D01*
X94555Y-54302D01*
X94555Y-54328D01*
X94463Y-54151D02*
X94555Y-54151D01*
X94411Y-54184D02*
X94509Y-54217D01*
X94509Y-54131D01*
X96068Y-54263D02*
X96062Y-54276D01*
X96049Y-54289D01*
X96029Y-54309D01*
X96022Y-54322D01*
X96022Y-54335D01*
X96055Y-54328D02*
X96049Y-54341D01*
X96036Y-54354D01*
X96009Y-54361D01*
X95963Y-54361D01*
X95937Y-54354D01*
X95924Y-54341D01*
X95917Y-54328D01*
X95917Y-54302D01*
X95924Y-54289D01*
X95937Y-54276D01*
X95963Y-54269D01*
X96009Y-54269D01*
X96036Y-54276D01*
X96049Y-54289D01*
X96055Y-54302D01*
X96055Y-54328D01*
X95917Y-54223D02*
X95917Y-54138D01*
X95970Y-54184D01*
X95970Y-54164D01*
X95977Y-54151D01*
X95983Y-54145D01*
X95996Y-54138D01*
X96029Y-54138D01*
X96042Y-54145D01*
X96049Y-54151D01*
X96055Y-54164D01*
X96055Y-54204D01*
X96049Y-54217D01*
X96042Y-54223D01*
X88568Y-54263D02*
X88562Y-54276D01*
X88549Y-54289D01*
X88529Y-54309D01*
X88522Y-54322D01*
X88522Y-54335D01*
X88555Y-54328D02*
X88549Y-54341D01*
X88536Y-54354D01*
X88509Y-54361D01*
X88463Y-54361D01*
X88437Y-54354D01*
X88424Y-54341D01*
X88417Y-54328D01*
X88417Y-54302D01*
X88424Y-54289D01*
X88437Y-54276D01*
X88463Y-54269D01*
X88509Y-54269D01*
X88536Y-54276D01*
X88549Y-54289D01*
X88555Y-54302D01*
X88555Y-54328D01*
X88477Y-54190D02*
X88470Y-54204D01*
X88463Y-54210D01*
X88450Y-54217D01*
X88444Y-54217D01*
X88431Y-54210D01*
X88424Y-54204D01*
X88417Y-54190D01*
X88417Y-54164D01*
X88424Y-54151D01*
X88431Y-54145D01*
X88444Y-54138D01*
X88450Y-54138D01*
X88463Y-54145D01*
X88470Y-54151D01*
X88477Y-54164D01*
X88477Y-54190D01*
X88483Y-54204D01*
X88490Y-54210D01*
X88503Y-54217D01*
X88529Y-54217D01*
X88542Y-54210D01*
X88549Y-54204D01*
X88555Y-54190D01*
X88555Y-54164D01*
X88549Y-54151D01*
X88542Y-54145D01*
X88529Y-54138D01*
X88503Y-54138D01*
X88490Y-54145D01*
X88483Y-54151D01*
X88477Y-54164D01*
X97568Y-54263D02*
X97562Y-54276D01*
X97549Y-54289D01*
X97529Y-54309D01*
X97522Y-54322D01*
X97522Y-54335D01*
X97555Y-54328D02*
X97549Y-54341D01*
X97536Y-54354D01*
X97509Y-54361D01*
X97463Y-54361D01*
X97437Y-54354D01*
X97424Y-54341D01*
X97417Y-54328D01*
X97417Y-54302D01*
X97424Y-54289D01*
X97437Y-54276D01*
X97463Y-54269D01*
X97509Y-54269D01*
X97536Y-54276D01*
X97549Y-54289D01*
X97555Y-54302D01*
X97555Y-54328D01*
X97431Y-54217D02*
X97424Y-54210D01*
X97417Y-54197D01*
X97417Y-54164D01*
X97424Y-54151D01*
X97431Y-54145D01*
X97444Y-54138D01*
X97457Y-54138D01*
X97477Y-54145D01*
X97555Y-54223D01*
X97555Y-54138D01*
X91568Y-54263D02*
X91562Y-54276D01*
X91549Y-54289D01*
X91529Y-54309D01*
X91522Y-54322D01*
X91522Y-54335D01*
X91555Y-54328D02*
X91549Y-54341D01*
X91536Y-54354D01*
X91509Y-54361D01*
X91463Y-54361D01*
X91437Y-54354D01*
X91424Y-54341D01*
X91417Y-54328D01*
X91417Y-54302D01*
X91424Y-54289D01*
X91437Y-54276D01*
X91463Y-54269D01*
X91509Y-54269D01*
X91536Y-54276D01*
X91549Y-54289D01*
X91555Y-54302D01*
X91555Y-54328D01*
X91417Y-54151D02*
X91417Y-54177D01*
X91424Y-54190D01*
X91431Y-54197D01*
X91450Y-54210D01*
X91477Y-54217D01*
X91529Y-54217D01*
X91542Y-54210D01*
X91549Y-54204D01*
X91555Y-54190D01*
X91555Y-54164D01*
X91549Y-54151D01*
X91542Y-54145D01*
X91529Y-54138D01*
X91496Y-54138D01*
X91483Y-54145D01*
X91477Y-54151D01*
X91470Y-54164D01*
X91470Y-54190D01*
X91477Y-54204D01*
X91483Y-54210D01*
X91496Y-54217D01*
X99068Y-54263D02*
X99062Y-54276D01*
X99049Y-54289D01*
X99029Y-54309D01*
X99022Y-54322D01*
X99022Y-54335D01*
X99055Y-54328D02*
X99049Y-54341D01*
X99036Y-54354D01*
X99009Y-54361D01*
X98963Y-54361D01*
X98937Y-54354D01*
X98924Y-54341D01*
X98917Y-54328D01*
X98917Y-54302D01*
X98924Y-54289D01*
X98937Y-54276D01*
X98963Y-54269D01*
X99009Y-54269D01*
X99036Y-54276D01*
X99049Y-54289D01*
X99055Y-54302D01*
X99055Y-54328D01*
X99055Y-54138D02*
X99055Y-54217D01*
X99055Y-54177D02*
X98917Y-54177D01*
X98937Y-54190D01*
X98950Y-54204D01*
X98957Y-54217D01*
X90068Y-54263D02*
X90062Y-54276D01*
X90049Y-54289D01*
X90029Y-54309D01*
X90022Y-54322D01*
X90022Y-54335D01*
X90055Y-54328D02*
X90049Y-54341D01*
X90036Y-54354D01*
X90009Y-54361D01*
X89963Y-54361D01*
X89937Y-54354D01*
X89924Y-54341D01*
X89917Y-54328D01*
X89917Y-54302D01*
X89924Y-54289D01*
X89937Y-54276D01*
X89963Y-54269D01*
X90009Y-54269D01*
X90036Y-54276D01*
X90049Y-54289D01*
X90055Y-54302D01*
X90055Y-54328D01*
X89917Y-54223D02*
X89917Y-54131D01*
X90055Y-54190D01*
G54D21*
X85235Y-58782D02*
X85245Y-58792D01*
X85254Y-58820D01*
X85254Y-58839D01*
X85245Y-58867D01*
X85226Y-58886D01*
X85207Y-58895D01*
X85170Y-58904D01*
X85142Y-58904D01*
X85104Y-58895D01*
X85085Y-58886D01*
X85067Y-58867D01*
X85057Y-58839D01*
X85057Y-58820D01*
X85067Y-58792D01*
X85076Y-58782D01*
X85123Y-58613D02*
X85254Y-58613D01*
X85048Y-58660D02*
X85189Y-58707D01*
X85189Y-58585D01*
G54D16*
X97538Y-49282D02*
X97538Y-48583D01*
X97776Y-48583D01*
X97836Y-48617D01*
X97866Y-48650D01*
X97895Y-48717D01*
X97895Y-48816D01*
X97866Y-48883D01*
X97836Y-48916D01*
X97776Y-48950D01*
X97538Y-48950D01*
X98491Y-49282D02*
X98133Y-49282D01*
X98312Y-49282D02*
X98312Y-48583D01*
X98252Y-48683D01*
X98193Y-48750D01*
X98133Y-48783D01*
X84550Y-61142D02*
X84550Y-61571D01*
X84521Y-61657D01*
X84464Y-61714D01*
X84378Y-61742D01*
X84321Y-61742D01*
X85150Y-61742D02*
X84807Y-61742D01*
X84978Y-61742D02*
X84978Y-61142D01*
X84921Y-61228D01*
X84864Y-61285D01*
X84807Y-61314D01*
X97300Y-61142D02*
X97300Y-61571D01*
X97271Y-61657D01*
X97214Y-61714D01*
X97128Y-61742D01*
X97071Y-61742D01*
X97557Y-61200D02*
X97585Y-61171D01*
X97642Y-61142D01*
X97785Y-61142D01*
X97842Y-61171D01*
X97871Y-61200D01*
X97900Y-61257D01*
X97900Y-61314D01*
X97871Y-61400D01*
X97528Y-61742D01*
X97900Y-61742D01*
X77550Y-61142D02*
X77550Y-61571D01*
X77521Y-61657D01*
X77464Y-61714D01*
X77378Y-61742D01*
X77321Y-61742D01*
X77807Y-61200D02*
X77835Y-61171D01*
X77892Y-61142D01*
X78035Y-61142D01*
X78092Y-61171D01*
X78121Y-61200D01*
X78150Y-61257D01*
X78150Y-61314D01*
X78121Y-61400D01*
X77778Y-61742D01*
X78150Y-61742D01*
X64800Y-61142D02*
X64800Y-61571D01*
X64771Y-61657D01*
X64714Y-61714D01*
X64628Y-61742D01*
X64571Y-61742D01*
X65400Y-61742D02*
X65057Y-61742D01*
X65228Y-61742D02*
X65228Y-61142D01*
X65171Y-61228D01*
X65114Y-61285D01*
X65057Y-61314D01*
X77788Y-49282D02*
X77788Y-48583D01*
X78026Y-48583D01*
X78086Y-48617D01*
X78116Y-48650D01*
X78145Y-48717D01*
X78145Y-48816D01*
X78116Y-48883D01*
X78086Y-48916D01*
X78026Y-48950D01*
X77788Y-48950D01*
X78741Y-49282D02*
X78383Y-49282D01*
X78562Y-49282D02*
X78562Y-48583D01*
X78502Y-48683D01*
X78443Y-48750D01*
X78383Y-48783D01*
G54D21*
X65485Y-58782D02*
X65495Y-58792D01*
X65504Y-58820D01*
X65504Y-58839D01*
X65495Y-58867D01*
X65476Y-58886D01*
X65457Y-58895D01*
X65420Y-58904D01*
X65392Y-58904D01*
X65354Y-58895D01*
X65335Y-58886D01*
X65317Y-58867D01*
X65307Y-58839D01*
X65307Y-58820D01*
X65317Y-58792D01*
X65326Y-58782D01*
X65373Y-58613D02*
X65504Y-58613D01*
X65298Y-58660D02*
X65439Y-58707D01*
X65439Y-58585D01*
G54D22*
X70318Y-54263D02*
X70312Y-54276D01*
X70299Y-54289D01*
X70279Y-54309D01*
X70272Y-54322D01*
X70272Y-54335D01*
X70305Y-54328D02*
X70299Y-54341D01*
X70286Y-54354D01*
X70259Y-54361D01*
X70213Y-54361D01*
X70187Y-54354D01*
X70174Y-54341D01*
X70167Y-54328D01*
X70167Y-54302D01*
X70174Y-54289D01*
X70187Y-54276D01*
X70213Y-54269D01*
X70259Y-54269D01*
X70286Y-54276D01*
X70299Y-54289D01*
X70305Y-54302D01*
X70305Y-54328D01*
X70167Y-54223D02*
X70167Y-54131D01*
X70305Y-54190D01*
X79318Y-54263D02*
X79312Y-54276D01*
X79299Y-54289D01*
X79279Y-54309D01*
X79272Y-54322D01*
X79272Y-54335D01*
X79305Y-54328D02*
X79299Y-54341D01*
X79286Y-54354D01*
X79259Y-54361D01*
X79213Y-54361D01*
X79187Y-54354D01*
X79174Y-54341D01*
X79167Y-54328D01*
X79167Y-54302D01*
X79174Y-54289D01*
X79187Y-54276D01*
X79213Y-54269D01*
X79259Y-54269D01*
X79286Y-54276D01*
X79299Y-54289D01*
X79305Y-54302D01*
X79305Y-54328D01*
X79305Y-54138D02*
X79305Y-54217D01*
X79305Y-54177D02*
X79167Y-54177D01*
X79187Y-54190D01*
X79200Y-54204D01*
X79207Y-54217D01*
X71818Y-54263D02*
X71812Y-54276D01*
X71799Y-54289D01*
X71779Y-54309D01*
X71772Y-54322D01*
X71772Y-54335D01*
X71805Y-54328D02*
X71799Y-54341D01*
X71786Y-54354D01*
X71759Y-54361D01*
X71713Y-54361D01*
X71687Y-54354D01*
X71674Y-54341D01*
X71667Y-54328D01*
X71667Y-54302D01*
X71674Y-54289D01*
X71687Y-54276D01*
X71713Y-54269D01*
X71759Y-54269D01*
X71786Y-54276D01*
X71799Y-54289D01*
X71805Y-54302D01*
X71805Y-54328D01*
X71667Y-54151D02*
X71667Y-54177D01*
X71674Y-54190D01*
X71681Y-54197D01*
X71700Y-54210D01*
X71727Y-54217D01*
X71779Y-54217D01*
X71792Y-54210D01*
X71799Y-54204D01*
X71805Y-54190D01*
X71805Y-54164D01*
X71799Y-54151D01*
X71792Y-54145D01*
X71779Y-54138D01*
X71746Y-54138D01*
X71733Y-54145D01*
X71727Y-54151D01*
X71720Y-54164D01*
X71720Y-54190D01*
X71727Y-54204D01*
X71733Y-54210D01*
X71746Y-54217D01*
X77818Y-54263D02*
X77812Y-54276D01*
X77799Y-54289D01*
X77779Y-54309D01*
X77772Y-54322D01*
X77772Y-54335D01*
X77805Y-54328D02*
X77799Y-54341D01*
X77786Y-54354D01*
X77759Y-54361D01*
X77713Y-54361D01*
X77687Y-54354D01*
X77674Y-54341D01*
X77667Y-54328D01*
X77667Y-54302D01*
X77674Y-54289D01*
X77687Y-54276D01*
X77713Y-54269D01*
X77759Y-54269D01*
X77786Y-54276D01*
X77799Y-54289D01*
X77805Y-54302D01*
X77805Y-54328D01*
X77681Y-54217D02*
X77674Y-54210D01*
X77667Y-54197D01*
X77667Y-54164D01*
X77674Y-54151D01*
X77681Y-54145D01*
X77694Y-54138D01*
X77707Y-54138D01*
X77727Y-54145D01*
X77805Y-54223D01*
X77805Y-54138D01*
X68818Y-54263D02*
X68812Y-54276D01*
X68799Y-54289D01*
X68779Y-54309D01*
X68772Y-54322D01*
X68772Y-54335D01*
X68805Y-54328D02*
X68799Y-54341D01*
X68786Y-54354D01*
X68759Y-54361D01*
X68713Y-54361D01*
X68687Y-54354D01*
X68674Y-54341D01*
X68667Y-54328D01*
X68667Y-54302D01*
X68674Y-54289D01*
X68687Y-54276D01*
X68713Y-54269D01*
X68759Y-54269D01*
X68786Y-54276D01*
X68799Y-54289D01*
X68805Y-54302D01*
X68805Y-54328D01*
X68727Y-54190D02*
X68720Y-54204D01*
X68713Y-54210D01*
X68700Y-54217D01*
X68694Y-54217D01*
X68681Y-54210D01*
X68674Y-54204D01*
X68667Y-54190D01*
X68667Y-54164D01*
X68674Y-54151D01*
X68681Y-54145D01*
X68694Y-54138D01*
X68700Y-54138D01*
X68713Y-54145D01*
X68720Y-54151D01*
X68727Y-54164D01*
X68727Y-54190D01*
X68733Y-54204D01*
X68740Y-54210D01*
X68753Y-54217D01*
X68779Y-54217D01*
X68792Y-54210D01*
X68799Y-54204D01*
X68805Y-54190D01*
X68805Y-54164D01*
X68799Y-54151D01*
X68792Y-54145D01*
X68779Y-54138D01*
X68753Y-54138D01*
X68740Y-54145D01*
X68733Y-54151D01*
X68727Y-54164D01*
X76318Y-54263D02*
X76312Y-54276D01*
X76299Y-54289D01*
X76279Y-54309D01*
X76272Y-54322D01*
X76272Y-54335D01*
X76305Y-54328D02*
X76299Y-54341D01*
X76286Y-54354D01*
X76259Y-54361D01*
X76213Y-54361D01*
X76187Y-54354D01*
X76174Y-54341D01*
X76167Y-54328D01*
X76167Y-54302D01*
X76174Y-54289D01*
X76187Y-54276D01*
X76213Y-54269D01*
X76259Y-54269D01*
X76286Y-54276D01*
X76299Y-54289D01*
X76305Y-54302D01*
X76305Y-54328D01*
X76167Y-54223D02*
X76167Y-54138D01*
X76220Y-54184D01*
X76220Y-54164D01*
X76227Y-54151D01*
X76233Y-54145D01*
X76246Y-54138D01*
X76279Y-54138D01*
X76292Y-54145D01*
X76299Y-54151D01*
X76305Y-54164D01*
X76305Y-54204D01*
X76299Y-54217D01*
X76292Y-54223D01*
X74818Y-54263D02*
X74812Y-54276D01*
X74799Y-54289D01*
X74779Y-54309D01*
X74772Y-54322D01*
X74772Y-54335D01*
X74805Y-54328D02*
X74799Y-54341D01*
X74786Y-54354D01*
X74759Y-54361D01*
X74713Y-54361D01*
X74687Y-54354D01*
X74674Y-54341D01*
X74667Y-54328D01*
X74667Y-54302D01*
X74674Y-54289D01*
X74687Y-54276D01*
X74713Y-54269D01*
X74759Y-54269D01*
X74786Y-54276D01*
X74799Y-54289D01*
X74805Y-54302D01*
X74805Y-54328D01*
X74713Y-54151D02*
X74805Y-54151D01*
X74661Y-54184D02*
X74759Y-54217D01*
X74759Y-54131D01*
X73318Y-54263D02*
X73312Y-54276D01*
X73299Y-54289D01*
X73279Y-54309D01*
X73272Y-54322D01*
X73272Y-54335D01*
X73305Y-54328D02*
X73299Y-54341D01*
X73286Y-54354D01*
X73259Y-54361D01*
X73213Y-54361D01*
X73187Y-54354D01*
X73174Y-54341D01*
X73167Y-54328D01*
X73167Y-54302D01*
X73174Y-54289D01*
X73187Y-54276D01*
X73213Y-54269D01*
X73259Y-54269D01*
X73286Y-54276D01*
X73299Y-54289D01*
X73305Y-54302D01*
X73305Y-54328D01*
X73167Y-54145D02*
X73167Y-54210D01*
X73233Y-54217D01*
X73227Y-54210D01*
X73220Y-54197D01*
X73220Y-54164D01*
X73227Y-54151D01*
X73233Y-54145D01*
X73246Y-54138D01*
X73279Y-54138D01*
X73292Y-54145D01*
X73299Y-54151D01*
X73305Y-54164D01*
X73305Y-54197D01*
X73299Y-54210D01*
X73292Y-54217D01*
G54D20*
X64634Y-56813D02*
X64634Y-56656D01*
X64671Y-56656D01*
X64693Y-56664D01*
X64708Y-56678D01*
X64716Y-56693D01*
X64723Y-56723D01*
X64723Y-56746D01*
X64716Y-56776D01*
X64708Y-56791D01*
X64693Y-56806D01*
X64671Y-56813D01*
X64634Y-56813D01*
X64783Y-56671D02*
X64791Y-56664D01*
X64806Y-56656D01*
X64843Y-56656D01*
X64858Y-56664D01*
X64865Y-56671D01*
X64873Y-56686D01*
X64873Y-56701D01*
X64865Y-56723D01*
X64776Y-56813D01*
X64873Y-56813D01*
G54D13*
X75657Y-58261D02*
X75657Y-58585D01*
X75678Y-58623D01*
X75700Y-58642D01*
X75742Y-58661D01*
X75828Y-58661D01*
X75871Y-58642D01*
X75892Y-58623D01*
X75914Y-58585D01*
X75914Y-58261D01*
X76364Y-58661D02*
X76107Y-58661D01*
X76235Y-58661D02*
X76235Y-58261D01*
X76192Y-58319D01*
X76150Y-58357D01*
X76107Y-58376D01*
X73371Y-52442D02*
X73228Y-52542D01*
X73371Y-52614D02*
X73071Y-52614D01*
X73071Y-52500D01*
X73085Y-52471D01*
X73100Y-52457D01*
X73128Y-52442D01*
X73171Y-52442D01*
X73200Y-52457D01*
X73214Y-52471D01*
X73228Y-52500D01*
X73228Y-52614D01*
X73371Y-52157D02*
X73371Y-52328D01*
X73371Y-52242D02*
X73071Y-52242D01*
X73114Y-52271D01*
X73142Y-52300D01*
X73157Y-52328D01*
X73171Y-51900D02*
X73371Y-51900D01*
X73057Y-51971D02*
X73271Y-52042D01*
X73271Y-51857D01*
X70371Y-52442D02*
X70228Y-52542D01*
X70371Y-52614D02*
X70071Y-52614D01*
X70071Y-52500D01*
X70085Y-52471D01*
X70100Y-52457D01*
X70128Y-52442D01*
X70171Y-52442D01*
X70200Y-52457D01*
X70214Y-52471D01*
X70228Y-52500D01*
X70228Y-52614D01*
X70371Y-52157D02*
X70371Y-52328D01*
X70371Y-52242D02*
X70071Y-52242D01*
X70114Y-52271D01*
X70142Y-52300D01*
X70157Y-52328D01*
X70071Y-51900D02*
X70071Y-51957D01*
X70085Y-51985D01*
X70100Y-52000D01*
X70142Y-52028D01*
X70200Y-52042D01*
X70314Y-52042D01*
X70342Y-52028D01*
X70357Y-52014D01*
X70371Y-51985D01*
X70371Y-51928D01*
X70357Y-51900D01*
X70342Y-51885D01*
X70314Y-51871D01*
X70242Y-51871D01*
X70214Y-51885D01*
X70200Y-51900D01*
X70185Y-51928D01*
X70185Y-51985D01*
X70200Y-52014D01*
X70214Y-52028D01*
X70242Y-52042D01*
X71871Y-52442D02*
X71728Y-52542D01*
X71871Y-52614D02*
X71571Y-52614D01*
X71571Y-52500D01*
X71585Y-52471D01*
X71600Y-52457D01*
X71628Y-52442D01*
X71671Y-52442D01*
X71700Y-52457D01*
X71714Y-52471D01*
X71728Y-52500D01*
X71728Y-52614D01*
X71871Y-52157D02*
X71871Y-52328D01*
X71871Y-52242D02*
X71571Y-52242D01*
X71614Y-52271D01*
X71642Y-52300D01*
X71657Y-52328D01*
X71571Y-51885D02*
X71571Y-52028D01*
X71714Y-52042D01*
X71700Y-52028D01*
X71685Y-52000D01*
X71685Y-51928D01*
X71700Y-51900D01*
X71714Y-51885D01*
X71742Y-51871D01*
X71814Y-51871D01*
X71842Y-51885D01*
X71857Y-51900D01*
X71871Y-51928D01*
X71871Y-52000D01*
X71857Y-52028D01*
X71842Y-52042D01*
X68871Y-52442D02*
X68728Y-52542D01*
X68871Y-52614D02*
X68571Y-52614D01*
X68571Y-52500D01*
X68585Y-52471D01*
X68600Y-52457D01*
X68628Y-52442D01*
X68671Y-52442D01*
X68700Y-52457D01*
X68714Y-52471D01*
X68728Y-52500D01*
X68728Y-52614D01*
X68871Y-52157D02*
X68871Y-52328D01*
X68871Y-52242D02*
X68571Y-52242D01*
X68614Y-52271D01*
X68642Y-52300D01*
X68657Y-52328D01*
X68571Y-52057D02*
X68571Y-51857D01*
X68871Y-51985D01*
X74871Y-52442D02*
X74728Y-52542D01*
X74871Y-52614D02*
X74571Y-52614D01*
X74571Y-52500D01*
X74585Y-52471D01*
X74600Y-52457D01*
X74628Y-52442D01*
X74671Y-52442D01*
X74700Y-52457D01*
X74714Y-52471D01*
X74728Y-52500D01*
X74728Y-52614D01*
X74871Y-52157D02*
X74871Y-52328D01*
X74871Y-52242D02*
X74571Y-52242D01*
X74614Y-52271D01*
X74642Y-52300D01*
X74657Y-52328D01*
X74571Y-52057D02*
X74571Y-51871D01*
X74685Y-51971D01*
X74685Y-51928D01*
X74700Y-51900D01*
X74714Y-51885D01*
X74742Y-51871D01*
X74814Y-51871D01*
X74842Y-51885D01*
X74857Y-51900D01*
X74871Y-51928D01*
X74871Y-52014D01*
X74857Y-52042D01*
X74842Y-52057D01*
X76371Y-52442D02*
X76228Y-52542D01*
X76371Y-52614D02*
X76071Y-52614D01*
X76071Y-52500D01*
X76085Y-52471D01*
X76100Y-52457D01*
X76128Y-52442D01*
X76171Y-52442D01*
X76200Y-52457D01*
X76214Y-52471D01*
X76228Y-52500D01*
X76228Y-52614D01*
X76371Y-52157D02*
X76371Y-52328D01*
X76371Y-52242D02*
X76071Y-52242D01*
X76114Y-52271D01*
X76142Y-52300D01*
X76157Y-52328D01*
X76100Y-52042D02*
X76085Y-52028D01*
X76071Y-52000D01*
X76071Y-51928D01*
X76085Y-51900D01*
X76100Y-51885D01*
X76128Y-51871D01*
X76157Y-51871D01*
X76200Y-51885D01*
X76371Y-52057D01*
X76371Y-51871D01*
X77871Y-52442D02*
X77728Y-52542D01*
X77871Y-52614D02*
X77571Y-52614D01*
X77571Y-52500D01*
X77585Y-52471D01*
X77600Y-52457D01*
X77628Y-52442D01*
X77671Y-52442D01*
X77700Y-52457D01*
X77714Y-52471D01*
X77728Y-52500D01*
X77728Y-52614D01*
X77871Y-52157D02*
X77871Y-52328D01*
X77871Y-52242D02*
X77571Y-52242D01*
X77614Y-52271D01*
X77642Y-52300D01*
X77657Y-52328D01*
X77871Y-51871D02*
X77871Y-52042D01*
X77871Y-51957D02*
X77571Y-51957D01*
X77614Y-51985D01*
X77642Y-52014D01*
X77657Y-52042D01*
X67371Y-52442D02*
X67228Y-52542D01*
X67371Y-52614D02*
X67071Y-52614D01*
X67071Y-52500D01*
X67085Y-52471D01*
X67100Y-52457D01*
X67128Y-52442D01*
X67171Y-52442D01*
X67200Y-52457D01*
X67214Y-52471D01*
X67228Y-52500D01*
X67228Y-52614D01*
X67371Y-52157D02*
X67371Y-52328D01*
X67371Y-52242D02*
X67071Y-52242D01*
X67114Y-52271D01*
X67142Y-52300D01*
X67157Y-52328D01*
X67200Y-51985D02*
X67185Y-52014D01*
X67171Y-52028D01*
X67142Y-52042D01*
X67128Y-52042D01*
X67100Y-52028D01*
X67085Y-52014D01*
X67071Y-51985D01*
X67071Y-51928D01*
X67085Y-51900D01*
X67100Y-51885D01*
X67128Y-51871D01*
X67142Y-51871D01*
X67171Y-51885D01*
X67185Y-51900D01*
X67200Y-51928D01*
X67200Y-51985D01*
X67214Y-52014D01*
X67228Y-52028D01*
X67257Y-52042D01*
X67314Y-52042D01*
X67342Y-52028D01*
X67357Y-52014D01*
X67371Y-51985D01*
X67371Y-51928D01*
X67357Y-51900D01*
X67342Y-51885D01*
X67314Y-51871D01*
X67257Y-51871D01*
X67228Y-51885D01*
X67214Y-51900D01*
X67200Y-51928D01*
G54D19*
X65330Y-49530D02*
X65235Y-49590D01*
X65330Y-49632D02*
X65130Y-49632D01*
X65130Y-49564D01*
X65140Y-49547D01*
X65150Y-49538D01*
X65169Y-49530D01*
X65197Y-49530D01*
X65216Y-49538D01*
X65226Y-49547D01*
X65235Y-49564D01*
X65235Y-49632D01*
X65150Y-49461D02*
X65140Y-49452D01*
X65130Y-49435D01*
X65130Y-49392D01*
X65140Y-49375D01*
X65150Y-49367D01*
X65169Y-49358D01*
X65188Y-49358D01*
X65216Y-49367D01*
X65330Y-49470D01*
X65330Y-49358D01*
X79080Y-56280D02*
X78985Y-56340D01*
X79080Y-56382D02*
X78880Y-56382D01*
X78880Y-56314D01*
X78890Y-56297D01*
X78900Y-56288D01*
X78919Y-56280D01*
X78947Y-56280D01*
X78966Y-56288D01*
X78976Y-56297D01*
X78985Y-56314D01*
X78985Y-56382D01*
X78880Y-56220D02*
X78880Y-56108D01*
X78957Y-56168D01*
X78957Y-56142D01*
X78966Y-56125D01*
X78976Y-56117D01*
X78995Y-56108D01*
X79042Y-56108D01*
X79061Y-56117D01*
X79071Y-56125D01*
X79080Y-56142D01*
X79080Y-56194D01*
X79071Y-56211D01*
X79061Y-56220D01*
X63061Y-55530D02*
X63071Y-55538D01*
X63080Y-55564D01*
X63080Y-55581D01*
X63071Y-55607D01*
X63052Y-55624D01*
X63033Y-55632D01*
X62995Y-55641D01*
X62966Y-55641D01*
X62928Y-55632D01*
X62909Y-55624D01*
X62890Y-55607D01*
X62880Y-55581D01*
X62880Y-55564D01*
X62890Y-55538D01*
X62900Y-55530D01*
X62880Y-55470D02*
X62880Y-55358D01*
X62957Y-55418D01*
X62957Y-55392D01*
X62966Y-55375D01*
X62976Y-55367D01*
X62995Y-55358D01*
X63042Y-55358D01*
X63061Y-55367D01*
X63071Y-55375D01*
X63080Y-55392D01*
X63080Y-55444D01*
X63071Y-55461D01*
X63061Y-55470D01*
X77580Y-56280D02*
X77485Y-56340D01*
X77580Y-56382D02*
X77380Y-56382D01*
X77380Y-56314D01*
X77390Y-56297D01*
X77400Y-56288D01*
X77419Y-56280D01*
X77447Y-56280D01*
X77466Y-56288D01*
X77476Y-56297D01*
X77485Y-56314D01*
X77485Y-56382D01*
X77447Y-56125D02*
X77580Y-56125D01*
X77371Y-56168D02*
X77514Y-56211D01*
X77514Y-56100D01*
X76080Y-56280D02*
X75985Y-56340D01*
X76080Y-56382D02*
X75880Y-56382D01*
X75880Y-56314D01*
X75890Y-56297D01*
X75900Y-56288D01*
X75919Y-56280D01*
X75947Y-56280D01*
X75966Y-56288D01*
X75976Y-56297D01*
X75985Y-56314D01*
X75985Y-56382D01*
X75880Y-56117D02*
X75880Y-56202D01*
X75976Y-56211D01*
X75966Y-56202D01*
X75957Y-56185D01*
X75957Y-56142D01*
X75966Y-56125D01*
X75976Y-56117D01*
X75995Y-56108D01*
X76042Y-56108D01*
X76061Y-56117D01*
X76071Y-56125D01*
X76080Y-56142D01*
X76080Y-56185D01*
X76071Y-56202D01*
X76061Y-56211D01*
X74580Y-56280D02*
X74485Y-56340D01*
X74580Y-56382D02*
X74380Y-56382D01*
X74380Y-56314D01*
X74390Y-56297D01*
X74400Y-56288D01*
X74419Y-56280D01*
X74447Y-56280D01*
X74466Y-56288D01*
X74476Y-56297D01*
X74485Y-56314D01*
X74485Y-56382D01*
X74380Y-56125D02*
X74380Y-56160D01*
X74390Y-56177D01*
X74400Y-56185D01*
X74428Y-56202D01*
X74466Y-56211D01*
X74542Y-56211D01*
X74561Y-56202D01*
X74571Y-56194D01*
X74580Y-56177D01*
X74580Y-56142D01*
X74571Y-56125D01*
X74561Y-56117D01*
X74542Y-56108D01*
X74495Y-56108D01*
X74476Y-56117D01*
X74466Y-56125D01*
X74457Y-56142D01*
X74457Y-56177D01*
X74466Y-56194D01*
X74476Y-56202D01*
X74495Y-56211D01*
X64830Y-48882D02*
X64630Y-48882D01*
X64630Y-48840D01*
X64640Y-48814D01*
X64659Y-48797D01*
X64678Y-48788D01*
X64716Y-48780D01*
X64745Y-48780D01*
X64783Y-48788D01*
X64802Y-48797D01*
X64821Y-48814D01*
X64830Y-48840D01*
X64830Y-48882D01*
X64630Y-48720D02*
X64630Y-48608D01*
X64707Y-48668D01*
X64707Y-48642D01*
X64716Y-48625D01*
X64726Y-48617D01*
X64745Y-48608D01*
X64792Y-48608D01*
X64811Y-48617D01*
X64821Y-48625D01*
X64830Y-48642D01*
X64830Y-48694D01*
X64821Y-48711D01*
X64811Y-48720D01*
X63580Y-49530D02*
X63485Y-49590D01*
X63580Y-49632D02*
X63380Y-49632D01*
X63380Y-49564D01*
X63390Y-49547D01*
X63400Y-49538D01*
X63419Y-49530D01*
X63447Y-49530D01*
X63466Y-49538D01*
X63476Y-49547D01*
X63485Y-49564D01*
X63485Y-49632D01*
X63580Y-49358D02*
X63580Y-49461D01*
X63580Y-49410D02*
X63380Y-49410D01*
X63409Y-49427D01*
X63428Y-49444D01*
X63438Y-49461D01*
X73080Y-56280D02*
X72985Y-56340D01*
X73080Y-56382D02*
X72880Y-56382D01*
X72880Y-56314D01*
X72890Y-56297D01*
X72900Y-56288D01*
X72919Y-56280D01*
X72947Y-56280D01*
X72966Y-56288D01*
X72976Y-56297D01*
X72985Y-56314D01*
X72985Y-56382D01*
X72880Y-56220D02*
X72880Y-56100D01*
X73080Y-56177D01*
X64080Y-48882D02*
X63880Y-48882D01*
X63880Y-48840D01*
X63890Y-48814D01*
X63909Y-48797D01*
X63928Y-48788D01*
X63966Y-48780D01*
X63995Y-48780D01*
X64033Y-48788D01*
X64052Y-48797D01*
X64071Y-48814D01*
X64080Y-48840D01*
X64080Y-48882D01*
X64080Y-48608D02*
X64080Y-48711D01*
X64080Y-48660D02*
X63880Y-48660D01*
X63909Y-48677D01*
X63928Y-48694D01*
X63938Y-48711D01*
X75970Y-59561D02*
X75961Y-59571D01*
X75935Y-59580D01*
X75918Y-59580D01*
X75892Y-59571D01*
X75875Y-59552D01*
X75867Y-59533D01*
X75858Y-59495D01*
X75858Y-59466D01*
X75867Y-59428D01*
X75875Y-59409D01*
X75892Y-59390D01*
X75918Y-59380D01*
X75935Y-59380D01*
X75961Y-59390D01*
X75970Y-59400D01*
X76141Y-59580D02*
X76038Y-59580D01*
X76090Y-59580D02*
X76090Y-59380D01*
X76072Y-59409D01*
X76055Y-59428D01*
X76038Y-59438D01*
X71580Y-56280D02*
X71485Y-56340D01*
X71580Y-56382D02*
X71380Y-56382D01*
X71380Y-56314D01*
X71390Y-56297D01*
X71400Y-56288D01*
X71419Y-56280D01*
X71447Y-56280D01*
X71466Y-56288D01*
X71476Y-56297D01*
X71485Y-56314D01*
X71485Y-56382D01*
X71466Y-56177D02*
X71457Y-56194D01*
X71447Y-56202D01*
X71428Y-56211D01*
X71419Y-56211D01*
X71400Y-56202D01*
X71390Y-56194D01*
X71380Y-56177D01*
X71380Y-56142D01*
X71390Y-56125D01*
X71400Y-56117D01*
X71419Y-56108D01*
X71428Y-56108D01*
X71447Y-56117D01*
X71457Y-56125D01*
X71466Y-56142D01*
X71466Y-56177D01*
X71476Y-56194D01*
X71485Y-56202D01*
X71504Y-56211D01*
X71542Y-56211D01*
X71561Y-56202D01*
X71571Y-56194D01*
X71580Y-56177D01*
X71580Y-56142D01*
X71571Y-56125D01*
X71561Y-56117D01*
X71542Y-56108D01*
X71504Y-56108D01*
X71485Y-56117D01*
X71476Y-56125D01*
X71466Y-56142D01*
X68580Y-56365D02*
X68485Y-56425D01*
X68580Y-56468D02*
X68380Y-56468D01*
X68380Y-56400D01*
X68390Y-56382D01*
X68400Y-56374D01*
X68419Y-56365D01*
X68447Y-56365D01*
X68466Y-56374D01*
X68476Y-56382D01*
X68485Y-56400D01*
X68485Y-56468D01*
X68580Y-56194D02*
X68580Y-56297D01*
X68580Y-56245D02*
X68380Y-56245D01*
X68409Y-56262D01*
X68428Y-56280D01*
X68438Y-56297D01*
X68380Y-56082D02*
X68380Y-56065D01*
X68390Y-56048D01*
X68400Y-56040D01*
X68419Y-56031D01*
X68457Y-56022D01*
X68504Y-56022D01*
X68542Y-56031D01*
X68561Y-56040D01*
X68571Y-56048D01*
X68580Y-56065D01*
X68580Y-56082D01*
X68571Y-56100D01*
X68561Y-56108D01*
X68542Y-56117D01*
X68504Y-56125D01*
X68457Y-56125D01*
X68419Y-56117D01*
X68400Y-56108D01*
X68390Y-56100D01*
X68380Y-56082D01*
X70080Y-56280D02*
X69985Y-56340D01*
X70080Y-56382D02*
X69880Y-56382D01*
X69880Y-56314D01*
X69890Y-56297D01*
X69900Y-56288D01*
X69919Y-56280D01*
X69947Y-56280D01*
X69966Y-56288D01*
X69976Y-56297D01*
X69985Y-56314D01*
X69985Y-56382D01*
X70080Y-56194D02*
X70080Y-56160D01*
X70071Y-56142D01*
X70061Y-56134D01*
X70033Y-56117D01*
X69995Y-56108D01*
X69919Y-56108D01*
X69900Y-56117D01*
X69890Y-56125D01*
X69880Y-56142D01*
X69880Y-56177D01*
X69890Y-56194D01*
X69900Y-56202D01*
X69919Y-56211D01*
X69966Y-56211D01*
X69985Y-56202D01*
X69995Y-56194D01*
X70004Y-56177D01*
X70004Y-56142D01*
X69995Y-56125D01*
X69985Y-56117D01*
X69966Y-56108D01*
G54D14*
X62202Y-52554D02*
X62607Y-52554D01*
X62654Y-52535D01*
X62678Y-52516D01*
X62702Y-52478D01*
X62702Y-52402D01*
X62678Y-52364D01*
X62654Y-52345D01*
X62607Y-52326D01*
X62202Y-52326D01*
X62250Y-52154D02*
X62226Y-52135D01*
X62202Y-52097D01*
X62202Y-52002D01*
X62226Y-51964D01*
X62250Y-51945D01*
X62297Y-51926D01*
X62345Y-51926D01*
X62416Y-51945D01*
X62702Y-52173D01*
X62702Y-51926D01*
G54D21*
X62985Y-58782D02*
X62995Y-58792D01*
X63004Y-58820D01*
X63004Y-58839D01*
X62995Y-58867D01*
X62976Y-58886D01*
X62957Y-58895D01*
X62920Y-58904D01*
X62892Y-58904D01*
X62854Y-58895D01*
X62835Y-58886D01*
X62817Y-58867D01*
X62807Y-58839D01*
X62807Y-58820D01*
X62817Y-58792D01*
X62826Y-58782D01*
X62826Y-58707D02*
X62817Y-58698D01*
X62807Y-58679D01*
X62807Y-58632D01*
X62817Y-58613D01*
X62826Y-58604D01*
X62845Y-58595D01*
X62864Y-58595D01*
X62892Y-58604D01*
X63004Y-58717D01*
X63004Y-58595D01*
G54D19*
X67061Y-55530D02*
X67071Y-55538D01*
X67080Y-55564D01*
X67080Y-55581D01*
X67071Y-55607D01*
X67052Y-55624D01*
X67033Y-55632D01*
X66995Y-55641D01*
X66966Y-55641D01*
X66928Y-55632D01*
X66909Y-55624D01*
X66890Y-55607D01*
X66880Y-55581D01*
X66880Y-55564D01*
X66890Y-55538D01*
X66900Y-55530D01*
X66880Y-55367D02*
X66880Y-55452D01*
X66976Y-55461D01*
X66966Y-55452D01*
X66957Y-55435D01*
X66957Y-55392D01*
X66966Y-55375D01*
X66976Y-55367D01*
X66995Y-55358D01*
X67042Y-55358D01*
X67061Y-55367D01*
X67071Y-55375D01*
X67080Y-55392D01*
X67080Y-55435D01*
X67071Y-55452D01*
X67061Y-55461D01*
G54D20*
X79384Y-60813D02*
X79384Y-60656D01*
X79421Y-60656D01*
X79443Y-60664D01*
X79458Y-60678D01*
X79466Y-60693D01*
X79473Y-60723D01*
X79473Y-60746D01*
X79466Y-60776D01*
X79458Y-60791D01*
X79443Y-60806D01*
X79421Y-60813D01*
X79384Y-60813D01*
X79608Y-60708D02*
X79608Y-60813D01*
X79571Y-60649D02*
X79533Y-60761D01*
X79630Y-60761D01*
X67884Y-60813D02*
X67884Y-60656D01*
X67921Y-60656D01*
X67943Y-60664D01*
X67958Y-60678D01*
X67966Y-60693D01*
X67973Y-60723D01*
X67973Y-60746D01*
X67966Y-60776D01*
X67958Y-60791D01*
X67943Y-60806D01*
X67921Y-60813D01*
X67884Y-60813D01*
X68115Y-60656D02*
X68041Y-60656D01*
X68033Y-60731D01*
X68041Y-60723D01*
X68056Y-60716D01*
X68093Y-60716D01*
X68108Y-60723D01*
X68115Y-60731D01*
X68123Y-60746D01*
X68123Y-60783D01*
X68115Y-60798D01*
X68108Y-60806D01*
X68093Y-60813D01*
X68056Y-60813D01*
X68041Y-60806D01*
X68033Y-60798D01*
X67884Y-59313D02*
X67884Y-59156D01*
X67921Y-59156D01*
X67943Y-59164D01*
X67958Y-59178D01*
X67966Y-59193D01*
X67973Y-59223D01*
X67973Y-59246D01*
X67966Y-59276D01*
X67958Y-59291D01*
X67943Y-59306D01*
X67921Y-59313D01*
X67884Y-59313D01*
X68108Y-59156D02*
X68078Y-59156D01*
X68063Y-59164D01*
X68056Y-59171D01*
X68041Y-59193D01*
X68033Y-59223D01*
X68033Y-59283D01*
X68041Y-59298D01*
X68048Y-59306D01*
X68063Y-59313D01*
X68093Y-59313D01*
X68108Y-59306D01*
X68115Y-59298D01*
X68123Y-59283D01*
X68123Y-59246D01*
X68115Y-59231D01*
X68108Y-59223D01*
X68093Y-59216D01*
X68063Y-59216D01*
X68048Y-59223D01*
X68041Y-59231D01*
X68033Y-59246D01*
X79384Y-60063D02*
X79384Y-59906D01*
X79421Y-59906D01*
X79443Y-59914D01*
X79458Y-59928D01*
X79466Y-59943D01*
X79473Y-59973D01*
X79473Y-59996D01*
X79466Y-60026D01*
X79458Y-60041D01*
X79443Y-60056D01*
X79421Y-60063D01*
X79384Y-60063D01*
X79526Y-59906D02*
X79630Y-59906D01*
X79563Y-60063D01*
X67884Y-60063D02*
X67884Y-59906D01*
X67921Y-59906D01*
X67943Y-59914D01*
X67958Y-59928D01*
X67966Y-59943D01*
X67973Y-59973D01*
X67973Y-59996D01*
X67966Y-60026D01*
X67958Y-60041D01*
X67943Y-60056D01*
X67921Y-60063D01*
X67884Y-60063D01*
X68063Y-59973D02*
X68048Y-59966D01*
X68041Y-59958D01*
X68033Y-59943D01*
X68033Y-59936D01*
X68041Y-59921D01*
X68048Y-59914D01*
X68063Y-59906D01*
X68093Y-59906D01*
X68108Y-59914D01*
X68115Y-59921D01*
X68123Y-59936D01*
X68123Y-59943D01*
X68115Y-59958D01*
X68108Y-59966D01*
X68093Y-59973D01*
X68063Y-59973D01*
X68048Y-59981D01*
X68041Y-59988D01*
X68033Y-60003D01*
X68033Y-60033D01*
X68041Y-60048D01*
X68048Y-60056D01*
X68063Y-60063D01*
X68093Y-60063D01*
X68108Y-60056D01*
X68115Y-60048D01*
X68123Y-60033D01*
X68123Y-60003D01*
X68115Y-59988D01*
X68108Y-59981D01*
X68093Y-59973D01*
G54D19*
X74134Y-60580D02*
X74074Y-60485D01*
X74031Y-60580D02*
X74031Y-60380D01*
X74100Y-60380D01*
X74117Y-60390D01*
X74125Y-60400D01*
X74134Y-60419D01*
X74134Y-60447D01*
X74125Y-60466D01*
X74117Y-60476D01*
X74100Y-60485D01*
X74031Y-60485D01*
X74305Y-60580D02*
X74202Y-60580D01*
X74254Y-60580D02*
X74254Y-60380D01*
X74237Y-60409D01*
X74220Y-60428D01*
X74202Y-60438D01*
X74391Y-60580D02*
X74425Y-60580D01*
X74442Y-60571D01*
X74451Y-60561D01*
X74468Y-60533D01*
X74477Y-60495D01*
X74477Y-60419D01*
X74468Y-60400D01*
X74460Y-60390D01*
X74442Y-60380D01*
X74408Y-60380D01*
X74391Y-60390D01*
X74382Y-60400D01*
X74374Y-60419D01*
X74374Y-60466D01*
X74382Y-60485D01*
X74391Y-60495D01*
X74408Y-60504D01*
X74442Y-60504D01*
X74460Y-60495D01*
X74468Y-60485D01*
X74477Y-60466D01*
X72634Y-60580D02*
X72574Y-60485D01*
X72531Y-60580D02*
X72531Y-60380D01*
X72600Y-60380D01*
X72617Y-60390D01*
X72625Y-60400D01*
X72634Y-60419D01*
X72634Y-60447D01*
X72625Y-60466D01*
X72617Y-60476D01*
X72600Y-60485D01*
X72531Y-60485D01*
X72702Y-60400D02*
X72711Y-60390D01*
X72728Y-60380D01*
X72771Y-60380D01*
X72788Y-60390D01*
X72797Y-60400D01*
X72805Y-60419D01*
X72805Y-60438D01*
X72797Y-60466D01*
X72694Y-60580D01*
X72805Y-60580D01*
X72917Y-60380D02*
X72934Y-60380D01*
X72951Y-60390D01*
X72960Y-60400D01*
X72968Y-60419D01*
X72977Y-60457D01*
X72977Y-60504D01*
X72968Y-60542D01*
X72960Y-60561D01*
X72951Y-60571D01*
X72934Y-60580D01*
X72917Y-60580D01*
X72900Y-60571D01*
X72891Y-60561D01*
X72882Y-60542D01*
X72874Y-60504D01*
X72874Y-60457D01*
X72882Y-60419D01*
X72891Y-60400D01*
X72900Y-60390D01*
X72917Y-60380D01*
X71884Y-60580D02*
X71824Y-60485D01*
X71781Y-60580D02*
X71781Y-60380D01*
X71850Y-60380D01*
X71867Y-60390D01*
X71875Y-60400D01*
X71884Y-60419D01*
X71884Y-60447D01*
X71875Y-60466D01*
X71867Y-60476D01*
X71850Y-60485D01*
X71781Y-60485D01*
X71952Y-60400D02*
X71961Y-60390D01*
X71978Y-60380D01*
X72021Y-60380D01*
X72038Y-60390D01*
X72047Y-60400D01*
X72055Y-60419D01*
X72055Y-60438D01*
X72047Y-60466D01*
X71944Y-60580D01*
X72055Y-60580D01*
X72227Y-60580D02*
X72124Y-60580D01*
X72175Y-60580D02*
X72175Y-60380D01*
X72158Y-60409D01*
X72141Y-60428D01*
X72124Y-60438D01*
X73384Y-60580D02*
X73324Y-60485D01*
X73281Y-60580D02*
X73281Y-60380D01*
X73350Y-60380D01*
X73367Y-60390D01*
X73375Y-60400D01*
X73384Y-60419D01*
X73384Y-60447D01*
X73375Y-60466D01*
X73367Y-60476D01*
X73350Y-60485D01*
X73281Y-60485D01*
X73452Y-60400D02*
X73461Y-60390D01*
X73478Y-60380D01*
X73521Y-60380D01*
X73538Y-60390D01*
X73547Y-60400D01*
X73555Y-60419D01*
X73555Y-60438D01*
X73547Y-60466D01*
X73444Y-60580D01*
X73555Y-60580D01*
X73624Y-60400D02*
X73632Y-60390D01*
X73650Y-60380D01*
X73692Y-60380D01*
X73710Y-60390D01*
X73718Y-60400D01*
X73727Y-60419D01*
X73727Y-60438D01*
X73718Y-60466D01*
X73615Y-60580D01*
X73727Y-60580D01*
X71134Y-60580D02*
X71074Y-60485D01*
X71031Y-60580D02*
X71031Y-60380D01*
X71100Y-60380D01*
X71117Y-60390D01*
X71125Y-60400D01*
X71134Y-60419D01*
X71134Y-60447D01*
X71125Y-60466D01*
X71117Y-60476D01*
X71100Y-60485D01*
X71031Y-60485D01*
X71202Y-60400D02*
X71211Y-60390D01*
X71228Y-60380D01*
X71271Y-60380D01*
X71288Y-60390D01*
X71297Y-60400D01*
X71305Y-60419D01*
X71305Y-60438D01*
X71297Y-60466D01*
X71194Y-60580D01*
X71305Y-60580D01*
X71365Y-60380D02*
X71477Y-60380D01*
X71417Y-60457D01*
X71442Y-60457D01*
X71460Y-60466D01*
X71468Y-60476D01*
X71477Y-60495D01*
X71477Y-60542D01*
X71468Y-60561D01*
X71460Y-60571D01*
X71442Y-60580D01*
X71391Y-60580D01*
X71374Y-60571D01*
X71365Y-60561D01*
G54D23*
X83015Y-44409D02*
X82884Y-44221D01*
X82790Y-44409D02*
X82790Y-44015D01*
X82940Y-44015D01*
X82978Y-44034D01*
X82996Y-44053D01*
X83015Y-44090D01*
X83015Y-44146D01*
X82996Y-44184D01*
X82978Y-44203D01*
X82940Y-44221D01*
X82790Y-44221D01*
X83128Y-44015D02*
X83259Y-44409D01*
X83390Y-44015D01*
X83728Y-44409D02*
X83503Y-44409D01*
X83615Y-44409D02*
X83615Y-44015D01*
X83578Y-44071D01*
X83540Y-44109D01*
X83503Y-44128D01*
G54D14*
X88966Y-39142D02*
X89023Y-39161D01*
X89119Y-39161D01*
X89157Y-39142D01*
X89176Y-39123D01*
X89195Y-39085D01*
X89195Y-39047D01*
X89176Y-39009D01*
X89157Y-38990D01*
X89119Y-38971D01*
X89042Y-38952D01*
X89004Y-38933D01*
X88985Y-38914D01*
X88966Y-38876D01*
X88966Y-38838D01*
X88985Y-38800D01*
X89004Y-38780D01*
X89042Y-38761D01*
X89138Y-38761D01*
X89195Y-38780D01*
X89328Y-38761D02*
X89423Y-39161D01*
X89500Y-38876D01*
X89576Y-39161D01*
X89671Y-38761D01*
X90033Y-39161D02*
X89804Y-39161D01*
X89919Y-39161D02*
X89919Y-38761D01*
X89880Y-38819D01*
X89842Y-38857D01*
X89804Y-38876D01*
G54D20*
X78481Y-43098D02*
X78462Y-43089D01*
X78443Y-43070D01*
X78415Y-43042D01*
X78396Y-43032D01*
X78378Y-43032D01*
X78387Y-43079D02*
X78368Y-43070D01*
X78349Y-43051D01*
X78340Y-43014D01*
X78340Y-42948D01*
X78349Y-42910D01*
X78368Y-42892D01*
X78387Y-42882D01*
X78424Y-42882D01*
X78443Y-42892D01*
X78462Y-42910D01*
X78471Y-42948D01*
X78471Y-43014D01*
X78462Y-43051D01*
X78443Y-43070D01*
X78424Y-43079D01*
X78387Y-43079D01*
X78546Y-42901D02*
X78556Y-42892D01*
X78575Y-42882D01*
X78621Y-42882D01*
X78640Y-42892D01*
X78650Y-42901D01*
X78659Y-42920D01*
X78659Y-42939D01*
X78650Y-42967D01*
X78537Y-43079D01*
X78659Y-43079D01*
X84634Y-33563D02*
X84634Y-33406D01*
X84671Y-33406D01*
X84693Y-33414D01*
X84708Y-33428D01*
X84716Y-33443D01*
X84723Y-33473D01*
X84723Y-33496D01*
X84716Y-33526D01*
X84708Y-33541D01*
X84693Y-33556D01*
X84671Y-33563D01*
X84634Y-33563D01*
X84776Y-33406D02*
X84873Y-33406D01*
X84821Y-33466D01*
X84843Y-33466D01*
X84858Y-33473D01*
X84865Y-33481D01*
X84873Y-33496D01*
X84873Y-33533D01*
X84865Y-33548D01*
X84858Y-33556D01*
X84843Y-33563D01*
X84798Y-33563D01*
X84783Y-33556D01*
X84776Y-33548D01*
G54D24*
X78157Y-38982D02*
X78157Y-39346D01*
X78178Y-39389D01*
X78200Y-39410D01*
X78242Y-39432D01*
X78328Y-39432D01*
X78371Y-39410D01*
X78392Y-39389D01*
X78414Y-39346D01*
X78414Y-38982D01*
X78864Y-39432D02*
X78607Y-39432D01*
X78735Y-39432D02*
X78735Y-38982D01*
X78692Y-39046D01*
X78650Y-39089D01*
X78607Y-39110D01*
G54D13*
X68871Y-44550D02*
X68728Y-44650D01*
X68871Y-44721D02*
X68571Y-44721D01*
X68571Y-44607D01*
X68585Y-44578D01*
X68600Y-44564D01*
X68628Y-44550D01*
X68671Y-44550D01*
X68700Y-44564D01*
X68714Y-44578D01*
X68728Y-44607D01*
X68728Y-44721D01*
X68571Y-44278D02*
X68571Y-44421D01*
X68714Y-44435D01*
X68700Y-44421D01*
X68685Y-44392D01*
X68685Y-44321D01*
X68700Y-44292D01*
X68714Y-44278D01*
X68742Y-44264D01*
X68814Y-44264D01*
X68842Y-44278D01*
X68857Y-44292D01*
X68871Y-44321D01*
X68871Y-44392D01*
X68857Y-44421D01*
X68842Y-44435D01*
G54D19*
X90867Y-37580D02*
X90867Y-37380D01*
X90910Y-37380D01*
X90935Y-37390D01*
X90952Y-37409D01*
X90961Y-37428D01*
X90970Y-37466D01*
X90970Y-37495D01*
X90961Y-37533D01*
X90952Y-37552D01*
X90935Y-37571D01*
X90910Y-37580D01*
X90867Y-37580D01*
X91141Y-37580D02*
X91038Y-37580D01*
X91090Y-37580D02*
X91090Y-37380D01*
X91072Y-37409D01*
X91055Y-37428D01*
X91038Y-37438D01*
X83830Y-43030D02*
X83735Y-43090D01*
X83830Y-43132D02*
X83630Y-43132D01*
X83630Y-43064D01*
X83640Y-43047D01*
X83650Y-43038D01*
X83669Y-43030D01*
X83697Y-43030D01*
X83716Y-43038D01*
X83726Y-43047D01*
X83735Y-43064D01*
X83735Y-43132D01*
X83716Y-42927D02*
X83707Y-42944D01*
X83697Y-42952D01*
X83678Y-42961D01*
X83669Y-42961D01*
X83650Y-42952D01*
X83640Y-42944D01*
X83630Y-42927D01*
X83630Y-42892D01*
X83640Y-42875D01*
X83650Y-42867D01*
X83669Y-42858D01*
X83678Y-42858D01*
X83697Y-42867D01*
X83707Y-42875D01*
X83716Y-42892D01*
X83716Y-42927D01*
X83726Y-42944D01*
X83735Y-42952D01*
X83754Y-42961D01*
X83792Y-42961D01*
X83811Y-42952D01*
X83821Y-42944D01*
X83830Y-42927D01*
X83830Y-42892D01*
X83821Y-42875D01*
X83811Y-42867D01*
X83792Y-42858D01*
X83754Y-42858D01*
X83735Y-42867D01*
X83726Y-42875D01*
X83716Y-42892D01*
X81080Y-42530D02*
X80985Y-42590D01*
X81080Y-42632D02*
X80880Y-42632D01*
X80880Y-42564D01*
X80890Y-42547D01*
X80900Y-42538D01*
X80919Y-42530D01*
X80947Y-42530D01*
X80966Y-42538D01*
X80976Y-42547D01*
X80985Y-42564D01*
X80985Y-42632D01*
X80880Y-42375D02*
X80880Y-42410D01*
X80890Y-42427D01*
X80900Y-42435D01*
X80928Y-42452D01*
X80966Y-42461D01*
X81042Y-42461D01*
X81061Y-42452D01*
X81071Y-42444D01*
X81080Y-42427D01*
X81080Y-42392D01*
X81071Y-42375D01*
X81061Y-42367D01*
X81042Y-42358D01*
X80995Y-42358D01*
X80976Y-42367D01*
X80966Y-42375D01*
X80957Y-42392D01*
X80957Y-42427D01*
X80966Y-42444D01*
X80976Y-42452D01*
X80995Y-42461D01*
X85580Y-43030D02*
X85485Y-43090D01*
X85580Y-43132D02*
X85380Y-43132D01*
X85380Y-43064D01*
X85390Y-43047D01*
X85400Y-43038D01*
X85419Y-43030D01*
X85447Y-43030D01*
X85466Y-43038D01*
X85476Y-43047D01*
X85485Y-43064D01*
X85485Y-43132D01*
X85380Y-42970D02*
X85380Y-42858D01*
X85457Y-42918D01*
X85457Y-42892D01*
X85466Y-42875D01*
X85476Y-42867D01*
X85495Y-42858D01*
X85542Y-42858D01*
X85561Y-42867D01*
X85571Y-42875D01*
X85580Y-42892D01*
X85580Y-42944D01*
X85571Y-42961D01*
X85561Y-42970D01*
X87970Y-37580D02*
X87910Y-37485D01*
X87867Y-37580D02*
X87867Y-37380D01*
X87935Y-37380D01*
X87952Y-37390D01*
X87961Y-37400D01*
X87970Y-37419D01*
X87970Y-37447D01*
X87961Y-37466D01*
X87952Y-37476D01*
X87935Y-37485D01*
X87867Y-37485D01*
X88030Y-37380D02*
X88150Y-37380D01*
X88072Y-37580D01*
X80580Y-37280D02*
X80485Y-37340D01*
X80580Y-37382D02*
X80380Y-37382D01*
X80380Y-37314D01*
X80390Y-37297D01*
X80400Y-37288D01*
X80419Y-37280D01*
X80447Y-37280D01*
X80466Y-37288D01*
X80476Y-37297D01*
X80485Y-37314D01*
X80485Y-37382D01*
X80400Y-37211D02*
X80390Y-37202D01*
X80380Y-37185D01*
X80380Y-37142D01*
X80390Y-37125D01*
X80400Y-37117D01*
X80419Y-37108D01*
X80438Y-37108D01*
X80466Y-37117D01*
X80580Y-37220D01*
X80580Y-37108D01*
X78061Y-41780D02*
X78071Y-41788D01*
X78080Y-41814D01*
X78080Y-41831D01*
X78071Y-41857D01*
X78052Y-41874D01*
X78033Y-41882D01*
X77995Y-41891D01*
X77966Y-41891D01*
X77928Y-41882D01*
X77909Y-41874D01*
X77890Y-41857D01*
X77880Y-41831D01*
X77880Y-41814D01*
X77890Y-41788D01*
X77900Y-41780D01*
X77900Y-41711D02*
X77890Y-41702D01*
X77880Y-41685D01*
X77880Y-41642D01*
X77890Y-41625D01*
X77900Y-41617D01*
X77919Y-41608D01*
X77938Y-41608D01*
X77966Y-41617D01*
X78080Y-41720D01*
X78080Y-41608D01*
X82580Y-39280D02*
X82485Y-39340D01*
X82580Y-39382D02*
X82380Y-39382D01*
X82380Y-39314D01*
X82390Y-39297D01*
X82400Y-39288D01*
X82419Y-39280D01*
X82447Y-39280D01*
X82466Y-39288D01*
X82476Y-39297D01*
X82485Y-39314D01*
X82485Y-39382D01*
X82447Y-39125D02*
X82580Y-39125D01*
X82371Y-39168D02*
X82514Y-39211D01*
X82514Y-39100D01*
X82561Y-40530D02*
X82571Y-40538D01*
X82580Y-40564D01*
X82580Y-40581D01*
X82571Y-40607D01*
X82552Y-40624D01*
X82533Y-40632D01*
X82495Y-40641D01*
X82466Y-40641D01*
X82428Y-40632D01*
X82409Y-40624D01*
X82390Y-40607D01*
X82380Y-40581D01*
X82380Y-40564D01*
X82390Y-40538D01*
X82400Y-40530D01*
X82580Y-40358D02*
X82580Y-40461D01*
X82580Y-40410D02*
X82380Y-40410D01*
X82409Y-40427D01*
X82428Y-40444D01*
X82438Y-40461D01*
X83311Y-36530D02*
X83321Y-36538D01*
X83330Y-36564D01*
X83330Y-36581D01*
X83321Y-36607D01*
X83302Y-36624D01*
X83283Y-36632D01*
X83245Y-36641D01*
X83216Y-36641D01*
X83178Y-36632D01*
X83159Y-36624D01*
X83140Y-36607D01*
X83130Y-36581D01*
X83130Y-36564D01*
X83140Y-36538D01*
X83150Y-36530D01*
X83130Y-36470D02*
X83130Y-36350D01*
X83330Y-36427D01*
X76134Y-46080D02*
X76074Y-45985D01*
X76031Y-46080D02*
X76031Y-45880D01*
X76100Y-45880D01*
X76117Y-45890D01*
X76125Y-45900D01*
X76134Y-45919D01*
X76134Y-45947D01*
X76125Y-45966D01*
X76117Y-45976D01*
X76100Y-45985D01*
X76031Y-45985D01*
X76305Y-46080D02*
X76202Y-46080D01*
X76254Y-46080D02*
X76254Y-45880D01*
X76237Y-45909D01*
X76220Y-45928D01*
X76202Y-45938D01*
X76374Y-45900D02*
X76382Y-45890D01*
X76400Y-45880D01*
X76442Y-45880D01*
X76460Y-45890D01*
X76468Y-45900D01*
X76477Y-45919D01*
X76477Y-45938D01*
X76468Y-45966D01*
X76365Y-46080D01*
X76477Y-46080D01*
X76330Y-41865D02*
X76235Y-41925D01*
X76330Y-41968D02*
X76130Y-41968D01*
X76130Y-41900D01*
X76140Y-41882D01*
X76150Y-41874D01*
X76169Y-41865D01*
X76197Y-41865D01*
X76216Y-41874D01*
X76226Y-41882D01*
X76235Y-41900D01*
X76235Y-41968D01*
X76330Y-41694D02*
X76330Y-41797D01*
X76330Y-41745D02*
X76130Y-41745D01*
X76159Y-41762D01*
X76178Y-41780D01*
X76188Y-41797D01*
X76330Y-41522D02*
X76330Y-41625D01*
X76330Y-41574D02*
X76130Y-41574D01*
X76159Y-41591D01*
X76178Y-41608D01*
X76188Y-41625D01*
X85970Y-31311D02*
X85961Y-31321D01*
X85935Y-31330D01*
X85918Y-31330D01*
X85892Y-31321D01*
X85875Y-31302D01*
X85867Y-31283D01*
X85858Y-31245D01*
X85858Y-31216D01*
X85867Y-31178D01*
X85875Y-31159D01*
X85892Y-31140D01*
X85918Y-31130D01*
X85935Y-31130D01*
X85961Y-31140D01*
X85970Y-31150D01*
X86124Y-31197D02*
X86124Y-31330D01*
X86081Y-31121D02*
X86038Y-31264D01*
X86150Y-31264D01*
X79080Y-37280D02*
X78985Y-37340D01*
X79080Y-37382D02*
X78880Y-37382D01*
X78880Y-37314D01*
X78890Y-37297D01*
X78900Y-37288D01*
X78919Y-37280D01*
X78947Y-37280D01*
X78966Y-37288D01*
X78976Y-37297D01*
X78985Y-37314D01*
X78985Y-37382D01*
X79080Y-37108D02*
X79080Y-37211D01*
X79080Y-37160D02*
X78880Y-37160D01*
X78909Y-37177D01*
X78928Y-37194D01*
X78938Y-37211D01*
X90867Y-36830D02*
X90867Y-36630D01*
X90910Y-36630D01*
X90935Y-36640D01*
X90952Y-36659D01*
X90961Y-36678D01*
X90970Y-36716D01*
X90970Y-36745D01*
X90961Y-36783D01*
X90952Y-36802D01*
X90935Y-36821D01*
X90910Y-36830D01*
X90867Y-36830D01*
X91038Y-36650D02*
X91047Y-36640D01*
X91064Y-36630D01*
X91107Y-36630D01*
X91124Y-36640D01*
X91132Y-36650D01*
X91141Y-36669D01*
X91141Y-36688D01*
X91132Y-36716D01*
X91030Y-36830D01*
X91141Y-36830D01*
X87970Y-36830D02*
X87910Y-36735D01*
X87867Y-36830D02*
X87867Y-36630D01*
X87935Y-36630D01*
X87952Y-36640D01*
X87961Y-36650D01*
X87970Y-36669D01*
X87970Y-36697D01*
X87961Y-36716D01*
X87952Y-36726D01*
X87935Y-36735D01*
X87867Y-36735D01*
X88055Y-36830D02*
X88090Y-36830D01*
X88107Y-36821D01*
X88115Y-36811D01*
X88132Y-36783D01*
X88141Y-36745D01*
X88141Y-36669D01*
X88132Y-36650D01*
X88124Y-36640D01*
X88107Y-36630D01*
X88072Y-36630D01*
X88055Y-36640D01*
X88047Y-36650D01*
X88038Y-36669D01*
X88038Y-36716D01*
X88047Y-36735D01*
X88055Y-36745D01*
X88072Y-36754D01*
X88107Y-36754D01*
X88124Y-36745D01*
X88132Y-36735D01*
X88141Y-36716D01*
X90867Y-36080D02*
X90867Y-35880D01*
X90910Y-35880D01*
X90935Y-35890D01*
X90952Y-35909D01*
X90961Y-35928D01*
X90970Y-35966D01*
X90970Y-35995D01*
X90961Y-36033D01*
X90952Y-36052D01*
X90935Y-36071D01*
X90910Y-36080D01*
X90867Y-36080D01*
X91124Y-35947D02*
X91124Y-36080D01*
X91081Y-35871D02*
X91038Y-36014D01*
X91150Y-36014D01*
X87884Y-36080D02*
X87824Y-35985D01*
X87781Y-36080D02*
X87781Y-35880D01*
X87850Y-35880D01*
X87867Y-35890D01*
X87875Y-35900D01*
X87884Y-35919D01*
X87884Y-35947D01*
X87875Y-35966D01*
X87867Y-35976D01*
X87850Y-35985D01*
X87781Y-35985D01*
X88055Y-36080D02*
X87952Y-36080D01*
X88004Y-36080D02*
X88004Y-35880D01*
X87987Y-35909D01*
X87970Y-35928D01*
X87952Y-35938D01*
X88167Y-35880D02*
X88184Y-35880D01*
X88201Y-35890D01*
X88210Y-35900D01*
X88218Y-35919D01*
X88227Y-35957D01*
X88227Y-36004D01*
X88218Y-36042D01*
X88210Y-36061D01*
X88201Y-36071D01*
X88184Y-36080D01*
X88167Y-36080D01*
X88150Y-36071D01*
X88141Y-36061D01*
X88132Y-36042D01*
X88124Y-36004D01*
X88124Y-35957D01*
X88132Y-35919D01*
X88141Y-35900D01*
X88150Y-35890D01*
X88167Y-35880D01*
X85970Y-35561D02*
X85961Y-35571D01*
X85935Y-35580D01*
X85918Y-35580D01*
X85892Y-35571D01*
X85875Y-35552D01*
X85867Y-35533D01*
X85858Y-35495D01*
X85858Y-35466D01*
X85867Y-35428D01*
X85875Y-35409D01*
X85892Y-35390D01*
X85918Y-35380D01*
X85935Y-35380D01*
X85961Y-35390D01*
X85970Y-35400D01*
X86124Y-35380D02*
X86090Y-35380D01*
X86072Y-35390D01*
X86064Y-35400D01*
X86047Y-35428D01*
X86038Y-35466D01*
X86038Y-35542D01*
X86047Y-35561D01*
X86055Y-35571D01*
X86072Y-35580D01*
X86107Y-35580D01*
X86124Y-35571D01*
X86132Y-35561D01*
X86141Y-35542D01*
X86141Y-35495D01*
X86132Y-35476D01*
X86124Y-35466D01*
X86107Y-35457D01*
X86072Y-35457D01*
X86055Y-35466D01*
X86047Y-35476D01*
X86038Y-35495D01*
G54D16*
X70550Y-36142D02*
X70550Y-36571D01*
X70521Y-36657D01*
X70464Y-36714D01*
X70378Y-36742D01*
X70321Y-36742D01*
X71150Y-36742D02*
X70807Y-36742D01*
X70978Y-36742D02*
X70978Y-36142D01*
X70921Y-36228D01*
X70864Y-36285D01*
X70807Y-36314D01*
G54D14*
X89195Y-31952D02*
X89195Y-32357D01*
X89214Y-32404D01*
X89233Y-32428D01*
X89271Y-32452D01*
X89347Y-32452D01*
X89385Y-32428D01*
X89404Y-32404D01*
X89423Y-32357D01*
X89423Y-31952D01*
X89785Y-32119D02*
X89785Y-32452D01*
X89690Y-31928D02*
X89595Y-32285D01*
X89842Y-32285D01*
G54D21*
X81217Y-34060D02*
X81207Y-34070D01*
X81179Y-34079D01*
X81160Y-34079D01*
X81132Y-34070D01*
X81113Y-34051D01*
X81104Y-34032D01*
X81095Y-33995D01*
X81095Y-33967D01*
X81104Y-33929D01*
X81113Y-33910D01*
X81132Y-33892D01*
X81160Y-33882D01*
X81179Y-33882D01*
X81207Y-33892D01*
X81217Y-33901D01*
X81395Y-33882D02*
X81301Y-33882D01*
X81292Y-33976D01*
X81301Y-33967D01*
X81320Y-33957D01*
X81367Y-33957D01*
X81386Y-33967D01*
X81395Y-33976D01*
X81404Y-33995D01*
X81404Y-34042D01*
X81395Y-34060D01*
X81386Y-34070D01*
X81367Y-34079D01*
X81320Y-34079D01*
X81301Y-34070D01*
X81292Y-34060D01*
X77217Y-34060D02*
X77207Y-34070D01*
X77179Y-34079D01*
X77160Y-34079D01*
X77132Y-34070D01*
X77113Y-34051D01*
X77104Y-34032D01*
X77095Y-33995D01*
X77095Y-33967D01*
X77104Y-33929D01*
X77113Y-33910D01*
X77132Y-33892D01*
X77160Y-33882D01*
X77179Y-33882D01*
X77207Y-33892D01*
X77217Y-33901D01*
X77282Y-33882D02*
X77404Y-33882D01*
X77339Y-33957D01*
X77367Y-33957D01*
X77386Y-33967D01*
X77395Y-33976D01*
X77404Y-33995D01*
X77404Y-34042D01*
X77395Y-34060D01*
X77386Y-34070D01*
X77367Y-34079D01*
X77310Y-34079D01*
X77292Y-34070D01*
X77282Y-34060D01*
G54D16*
X81807Y-31992D02*
X81807Y-31392D01*
X82035Y-31392D01*
X82092Y-31421D01*
X82121Y-31450D01*
X82150Y-31507D01*
X82150Y-31592D01*
X82121Y-31650D01*
X82092Y-31678D01*
X82035Y-31707D01*
X81807Y-31707D01*
X82721Y-31992D02*
X82378Y-31992D01*
X82550Y-31992D02*
X82550Y-31392D01*
X82492Y-31478D01*
X82435Y-31535D01*
X82378Y-31564D01*
G54D13*
X72907Y-39011D02*
X72907Y-39335D01*
X72928Y-39373D01*
X72950Y-39392D01*
X72992Y-39411D01*
X73078Y-39411D01*
X73121Y-39392D01*
X73142Y-39373D01*
X73164Y-39335D01*
X73164Y-39011D01*
X73335Y-39011D02*
X73614Y-39011D01*
X73464Y-39164D01*
X73528Y-39164D01*
X73571Y-39183D01*
X73592Y-39202D01*
X73614Y-39240D01*
X73614Y-39335D01*
X73592Y-39373D01*
X73571Y-39392D01*
X73528Y-39411D01*
X73400Y-39411D01*
X73357Y-39392D01*
X73335Y-39373D01*
G54D25*
X74934Y-43775D02*
X74934Y-43094D01*
X75097Y-43094D01*
X75137Y-43127D01*
X75158Y-43159D01*
X75178Y-43224D01*
X75178Y-43321D01*
X75158Y-43386D01*
X75137Y-43418D01*
X75097Y-43451D01*
X74934Y-43451D01*
X75341Y-43159D02*
X75362Y-43127D01*
X75402Y-43094D01*
X75504Y-43094D01*
X75545Y-43127D01*
X75565Y-43159D01*
X75586Y-43224D01*
X75586Y-43289D01*
X75565Y-43386D01*
X75321Y-43775D01*
X75586Y-43775D01*
G54D16*
G54D20*
X77384Y-36313D02*
X77384Y-36156D01*
X77421Y-36156D01*
X77443Y-36164D01*
X77458Y-36178D01*
X77466Y-36193D01*
X77473Y-36223D01*
X77473Y-36246D01*
X77466Y-36276D01*
X77458Y-36291D01*
X77443Y-36306D01*
X77421Y-36313D01*
X77384Y-36313D01*
X77615Y-36156D02*
X77541Y-36156D01*
X77533Y-36231D01*
X77541Y-36223D01*
X77556Y-36216D01*
X77593Y-36216D01*
X77608Y-36223D01*
X77615Y-36231D01*
X77623Y-36246D01*
X77623Y-36283D01*
X77615Y-36298D01*
X77608Y-36306D01*
X77593Y-36313D01*
X77556Y-36313D01*
X77541Y-36306D01*
X77533Y-36298D01*
X73384Y-35813D02*
X73384Y-35656D01*
X73421Y-35656D01*
X73443Y-35664D01*
X73458Y-35678D01*
X73466Y-35693D01*
X73473Y-35723D01*
X73473Y-35746D01*
X73466Y-35776D01*
X73458Y-35791D01*
X73443Y-35806D01*
X73421Y-35813D01*
X73384Y-35813D01*
X73608Y-35656D02*
X73578Y-35656D01*
X73563Y-35664D01*
X73556Y-35671D01*
X73541Y-35693D01*
X73533Y-35723D01*
X73533Y-35783D01*
X73541Y-35798D01*
X73548Y-35806D01*
X73563Y-35813D01*
X73593Y-35813D01*
X73608Y-35806D01*
X73615Y-35798D01*
X73623Y-35783D01*
X73623Y-35746D01*
X73615Y-35731D01*
X73608Y-35723D01*
X73593Y-35716D01*
X73563Y-35716D01*
X73548Y-35723D01*
X73541Y-35731D01*
X73533Y-35746D01*
X71313Y-42365D02*
X71156Y-42365D01*
X71156Y-42328D01*
X71164Y-42306D01*
X71178Y-42291D01*
X71193Y-42283D01*
X71223Y-42276D01*
X71246Y-42276D01*
X71276Y-42283D01*
X71291Y-42291D01*
X71306Y-42306D01*
X71313Y-42328D01*
X71313Y-42365D01*
X71156Y-42223D02*
X71156Y-42119D01*
X71313Y-42186D01*
X72313Y-42365D02*
X72156Y-42365D01*
X72156Y-42328D01*
X72164Y-42306D01*
X72178Y-42291D01*
X72193Y-42283D01*
X72223Y-42276D01*
X72246Y-42276D01*
X72276Y-42283D01*
X72291Y-42291D01*
X72306Y-42306D01*
X72313Y-42328D01*
X72313Y-42365D01*
X72223Y-42186D02*
X72216Y-42201D01*
X72208Y-42208D01*
X72193Y-42216D01*
X72186Y-42216D01*
X72171Y-42208D01*
X72164Y-42201D01*
X72156Y-42186D01*
X72156Y-42156D01*
X72164Y-42141D01*
X72171Y-42134D01*
X72186Y-42126D01*
X72193Y-42126D01*
X72208Y-42134D01*
X72216Y-42141D01*
X72223Y-42156D01*
X72223Y-42186D01*
X72231Y-42201D01*
X72238Y-42208D01*
X72253Y-42216D01*
X72283Y-42216D01*
X72298Y-42208D01*
X72306Y-42201D01*
X72313Y-42186D01*
X72313Y-42156D01*
X72306Y-42141D01*
X72298Y-42134D01*
X72283Y-42126D01*
X72253Y-42126D01*
X72238Y-42134D01*
X72231Y-42141D01*
X72223Y-42156D01*
G54D19*
X71884Y-37080D02*
X71824Y-36985D01*
X71781Y-37080D02*
X71781Y-36880D01*
X71850Y-36880D01*
X71867Y-36890D01*
X71875Y-36900D01*
X71884Y-36919D01*
X71884Y-36947D01*
X71875Y-36966D01*
X71867Y-36976D01*
X71850Y-36985D01*
X71781Y-36985D01*
X72055Y-37080D02*
X71952Y-37080D01*
X72004Y-37080D02*
X72004Y-36880D01*
X71987Y-36909D01*
X71970Y-36928D01*
X71952Y-36938D01*
X72115Y-36880D02*
X72227Y-36880D01*
X72167Y-36957D01*
X72192Y-36957D01*
X72210Y-36966D01*
X72218Y-36976D01*
X72227Y-36995D01*
X72227Y-37042D01*
X72218Y-37061D01*
X72210Y-37071D01*
X72192Y-37080D01*
X72141Y-37080D01*
X72124Y-37071D01*
X72115Y-37061D01*
X71884Y-38080D02*
X71824Y-37985D01*
X71781Y-38080D02*
X71781Y-37880D01*
X71850Y-37880D01*
X71867Y-37890D01*
X71875Y-37900D01*
X71884Y-37919D01*
X71884Y-37947D01*
X71875Y-37966D01*
X71867Y-37976D01*
X71850Y-37985D01*
X71781Y-37985D01*
X72055Y-38080D02*
X71952Y-38080D01*
X72004Y-38080D02*
X72004Y-37880D01*
X71987Y-37909D01*
X71970Y-37928D01*
X71952Y-37938D01*
X72210Y-37947D02*
X72210Y-38080D01*
X72167Y-37871D02*
X72124Y-38014D01*
X72235Y-38014D01*
X71884Y-39080D02*
X71824Y-38985D01*
X71781Y-39080D02*
X71781Y-38880D01*
X71850Y-38880D01*
X71867Y-38890D01*
X71875Y-38900D01*
X71884Y-38919D01*
X71884Y-38947D01*
X71875Y-38966D01*
X71867Y-38976D01*
X71850Y-38985D01*
X71781Y-38985D01*
X72055Y-39080D02*
X71952Y-39080D01*
X72004Y-39080D02*
X72004Y-38880D01*
X71987Y-38909D01*
X71970Y-38928D01*
X71952Y-38938D01*
X72218Y-38880D02*
X72132Y-38880D01*
X72124Y-38976D01*
X72132Y-38966D01*
X72150Y-38957D01*
X72192Y-38957D01*
X72210Y-38966D01*
X72218Y-38976D01*
X72227Y-38995D01*
X72227Y-39042D01*
X72218Y-39061D01*
X72210Y-39071D01*
X72192Y-39080D01*
X72150Y-39080D01*
X72132Y-39071D01*
X72124Y-39061D01*
X71884Y-40080D02*
X71824Y-39985D01*
X71781Y-40080D02*
X71781Y-39880D01*
X71850Y-39880D01*
X71867Y-39890D01*
X71875Y-39900D01*
X71884Y-39919D01*
X71884Y-39947D01*
X71875Y-39966D01*
X71867Y-39976D01*
X71850Y-39985D01*
X71781Y-39985D01*
X72055Y-40080D02*
X71952Y-40080D01*
X72004Y-40080D02*
X72004Y-39880D01*
X71987Y-39909D01*
X71970Y-39928D01*
X71952Y-39938D01*
X72210Y-39880D02*
X72175Y-39880D01*
X72158Y-39890D01*
X72150Y-39900D01*
X72132Y-39928D01*
X72124Y-39966D01*
X72124Y-40042D01*
X72132Y-40061D01*
X72141Y-40071D01*
X72158Y-40080D01*
X72192Y-40080D01*
X72210Y-40071D01*
X72218Y-40061D01*
X72227Y-40042D01*
X72227Y-39995D01*
X72218Y-39976D01*
X72210Y-39966D01*
X72192Y-39957D01*
X72158Y-39957D01*
X72141Y-39966D01*
X72132Y-39976D01*
X72124Y-39995D01*
G54D13*
X86907Y-39011D02*
X86907Y-39335D01*
X86928Y-39373D01*
X86950Y-39392D01*
X86992Y-39411D01*
X87078Y-39411D01*
X87121Y-39392D01*
X87142Y-39373D01*
X87164Y-39335D01*
X87164Y-39011D01*
X87357Y-39050D02*
X87378Y-39030D01*
X87421Y-39011D01*
X87528Y-39011D01*
X87571Y-39030D01*
X87592Y-39050D01*
X87614Y-39088D01*
X87614Y-39126D01*
X87592Y-39183D01*
X87335Y-39411D01*
X87614Y-39411D01*
G54D16*
X89042Y-46142D02*
X89042Y-46628D01*
X89071Y-46685D01*
X89100Y-46714D01*
X89157Y-46742D01*
X89271Y-46742D01*
X89328Y-46714D01*
X89357Y-46685D01*
X89385Y-46628D01*
X89385Y-46142D01*
X89957Y-46142D02*
X89671Y-46142D01*
X89642Y-46428D01*
X89671Y-46400D01*
X89728Y-46371D01*
X89871Y-46371D01*
X89928Y-46400D01*
X89957Y-46428D01*
X89985Y-46485D01*
X89985Y-46628D01*
X89957Y-46685D01*
X89928Y-46714D01*
X89871Y-46742D01*
X89728Y-46742D01*
X89671Y-46714D01*
X89642Y-46685D01*
G54D14*
X69583Y-31434D02*
X69416Y-31434D01*
X69416Y-31722D02*
X69416Y-31172D01*
X69654Y-31172D01*
X70107Y-31722D02*
X69821Y-31722D01*
X69964Y-31722D02*
X69964Y-31172D01*
X69916Y-31251D01*
X69869Y-31303D01*
X69821Y-31329D01*
X68195Y-32934D02*
X68028Y-32934D01*
X68028Y-33222D02*
X68028Y-32672D01*
X68266Y-32672D01*
X68457Y-32672D02*
X68457Y-33117D01*
X68480Y-33170D01*
X68504Y-33196D01*
X68552Y-33222D01*
X68647Y-33222D01*
X68695Y-33196D01*
X68719Y-33170D01*
X68742Y-33117D01*
X68742Y-32672D01*
X68957Y-33196D02*
X69028Y-33222D01*
X69147Y-33222D01*
X69195Y-33196D01*
X69219Y-33170D01*
X69242Y-33117D01*
X69242Y-33065D01*
X69219Y-33013D01*
X69195Y-32986D01*
X69147Y-32960D01*
X69052Y-32934D01*
X69004Y-32908D01*
X68980Y-32882D01*
X68957Y-32829D01*
X68957Y-32777D01*
X68980Y-32725D01*
X69004Y-32698D01*
X69052Y-32672D01*
X69171Y-32672D01*
X69242Y-32698D01*
X69457Y-32934D02*
X69623Y-32934D01*
X69695Y-33222D02*
X69457Y-33222D01*
X69457Y-32672D01*
X69695Y-32672D01*
G54D10*
G36*
X69879Y-50450D02*
X69120Y-50450D01*
X69500Y-50070D01*
X69879Y-50450D01*
X69879Y-50450D01*
G37*
G54D26*
X69879Y-50450D02*
X69120Y-50450D01*
X69500Y-50070D01*
X69879Y-50450D01*
G54D10*
G36*
X89629Y-50450D02*
X88870Y-50450D01*
X89250Y-50070D01*
X89629Y-50450D01*
X89629Y-50450D01*
G37*
G54D26*
X89629Y-50450D02*
X88870Y-50450D01*
X89250Y-50070D01*
X89629Y-50450D01*
M02*
