M48
;DRILL file {Pcbnew (2013-may-18)-stable} date Wed 22 Oct 2014 04:52:25 PM CEST
;FORMAT={-:-/ absolute / metric / decimal}
FMAT,2
METRIC,TZ
T1C0.200
T2C0.635
T3C0.813
T4C0.899
T5C1.001
T6C1.270
T7C1.524
T8C1.600
T9C2.500
T10C2.540
T11C3.000
T12C3.048
T13C3.251
%
G90
G05
M71
T1
X61.595Y-182.245
X65.405Y-170.815
X67.31Y-170.815
X68.58Y-191.77
X71.755Y-182.245
X75.565Y-215.265
X76.835Y-213.995
X77.47Y-183.515
X81.28Y-183.515
X81.28Y-201.93
X82.55Y-172.085
X82.55Y-200.66
X83.185Y-196.85
X83.82Y-140.335
X83.82Y-142.875
X83.82Y-145.415
X83.82Y-205.74
X85.09Y-146.685
X85.09Y-183.515
X85.725Y-201.93
X86.995Y-196.85
X87.63Y-142.875
X87.63Y-144.78
X88.265Y-194.31
X88.9Y-140.97
X88.9Y-183.515
X90.17Y-142.24
X90.17Y-147.955
X90.17Y-208.28
X90.805Y-172.72
X91.44Y-146.685
X91.44Y-200.66
X92.075Y-193.675
X92.075Y-215.265
X92.71Y-134.62
X92.71Y-137.795
X92.71Y-183.515
X93.345Y-213.995
X93.98Y-142.24
X93.98Y-146.685
X93.98Y-147.955
X95.25Y-137.795
X95.25Y-143.51
X95.25Y-193.675
X96.52Y-183.515
X97.155Y-208.28
X97.79Y-140.97
X97.79Y-146.685
X98.425Y-165.1
X98.425Y-172.72
X98.425Y-195.58
X99.06Y-137.795
X100.33Y-183.515
X101.6Y-147.955
X103.505Y-149.225
X104.14Y-183.515
X107.315Y-146.685
X111.76Y-147.955
X111.76Y-182.245
X115.57Y-170.815
X117.475Y-146.685
X117.475Y-150.495
X117.475Y-170.815
X118.745Y-191.77
X120.015Y-147.955
X121.92Y-182.245
X125.095Y-139.7
X125.73Y-215.265
X126.365Y-141.605
X127.Y-213.995
X127.635Y-183.515
X131.445Y-183.515
X131.445Y-201.93
X132.715Y-172.085
X132.715Y-200.66
X133.35Y-196.85
X133.985Y-205.74
X135.255Y-183.515
X135.89Y-201.93
X136.525Y-139.7
X137.16Y-196.85
X138.43Y-194.31
X139.065Y-183.515
X140.335Y-208.28
X140.97Y-172.72
X141.605Y-200.66
X142.24Y-193.675
X142.24Y-215.265
X142.875Y-183.515
X143.51Y-213.995
X145.415Y-193.675
X146.685Y-183.515
X147.32Y-208.28
X148.59Y-165.1
X148.59Y-172.72
X148.59Y-195.58
X150.495Y-183.515
X154.305Y-183.515
T2
X119.38Y-141.605
T3
X79.375Y-166.37
X79.375Y-168.91
X81.915Y-166.37
X81.915Y-168.91
X84.455Y-166.37
X84.455Y-168.91
X86.36Y-155.575
X86.995Y-166.37
X86.995Y-168.91
X88.9Y-155.575
X89.535Y-166.37
X89.535Y-168.91
X91.44Y-155.575
X93.98Y-155.575
X96.52Y-155.575
X99.06Y-155.575
X101.6Y-155.575
X127.635Y-142.875
X127.635Y-150.495
X129.54Y-166.37
X129.54Y-168.91
X132.08Y-166.37
X132.08Y-168.91
X132.715Y-142.875
X132.715Y-150.495
X134.62Y-166.37
X134.62Y-168.91
X137.16Y-166.37
X137.16Y-168.91
X139.7Y-166.37
X139.7Y-168.91
T4
X69.85Y-205.105
X71.12Y-202.565
X72.39Y-205.105
X73.66Y-202.565
X74.93Y-205.105
X76.2Y-202.565
X76.835Y-137.795
X76.835Y-140.335
X76.835Y-142.875
X76.835Y-145.415
X77.47Y-205.105
X78.74Y-202.565
X79.375Y-139.065
X79.375Y-141.605
X79.375Y-144.145
X79.375Y-146.685
X90.17Y-205.105
X91.44Y-202.565
X92.71Y-205.105
X93.98Y-202.565
X95.25Y-205.105
X96.52Y-202.565
X97.79Y-205.105
X99.06Y-202.565
X106.721Y-153.055
X109.22Y-155.555
X111.719Y-153.055
X120.015Y-205.105
X121.285Y-202.565
X122.555Y-205.105
X123.825Y-202.565
X125.095Y-205.105
X126.365Y-202.565
X127.635Y-205.105
X128.905Y-202.565
X140.335Y-205.105
X141.605Y-202.565
X142.875Y-205.105
X144.145Y-202.565
X145.415Y-205.105
X146.685Y-202.565
X147.955Y-205.105
X149.225Y-202.565
T5
X68.58Y-127.635
T6
X91.44Y-127.635
T7
X101.6Y-122.555
X106.68Y-122.555
T8
X66.55Y-208.405
X73.535Y-134.495
X73.535Y-149.987
X82.042Y-208.405
X86.87Y-208.405
X102.362Y-208.405
X116.715Y-208.405
X132.207Y-208.405
X137.035Y-208.405
X152.527Y-208.405
T9
X61.976Y-165.481
X61.976Y-215.519
X106.934Y-165.481
X106.934Y-215.519
X112.141Y-165.481
X112.141Y-215.519
X157.099Y-165.481
X157.099Y-215.519
T10
X73.533Y-167.132
X95.377Y-167.132
X123.698Y-167.132
X145.542Y-167.132
T11
X68.58Y-211.455
X80.01Y-211.455
X88.9Y-211.455
X100.33Y-211.455
X118.745Y-211.455
X130.175Y-211.455
X139.065Y-211.455
X150.495Y-211.455
T12
X63.5Y-122.555
X63.5Y-158.115
X138.43Y-122.555
X138.43Y-158.115
T13
X70.485Y-136.525
X70.485Y-147.955
T0
M30
