G04 (created by PCBNEW (2013-may-18)-stable) date Wed 22 Oct 2014 04:52:23 PM CEST*
%MOIN*%
G04 Gerber Fmt 3.4, Leading zero omitted, Abs format*
%FSLAX34Y34*%
G01*
G70*
G90*
G04 APERTURE LIST*
%ADD10C,0.00590551*%
%ADD11C,0.011811*%
%ADD12C,0.00787402*%
%ADD13C,0.005*%
%ADD14C,0.008*%
%ADD15C,0.0118*%
%ADD16C,0.012*%
%ADD17C,0.015*%
%ADD18C,0.019685*%
%ADD19C,0.0045*%
%ADD20C,0.0039*%
%ADD21C,0.0047*%
%ADD22C,0.00344488*%
%ADD23C,0.00984252*%
%ADD24C,0.006*%
%ADD25C,0.0107*%
%ADD26C,0.01*%
G04 APERTURE END LIST*
G54D10*
G54D11*
X45489Y-81220D02*
X44898Y-81220D01*
X45095Y-80938D02*
X45489Y-80938D01*
X45151Y-80938D02*
X45123Y-80910D01*
X45095Y-80854D01*
X45095Y-80770D01*
X45123Y-80714D01*
X45179Y-80685D01*
X45489Y-80685D01*
X45095Y-80404D02*
X45685Y-80404D01*
X45123Y-80404D02*
X45095Y-80348D01*
X45095Y-80235D01*
X45123Y-80179D01*
X45151Y-80151D01*
X45207Y-80123D01*
X45376Y-80123D01*
X45432Y-80151D01*
X45460Y-80179D01*
X45489Y-80235D01*
X45489Y-80348D01*
X45460Y-80404D01*
X45095Y-79617D02*
X45489Y-79617D01*
X45095Y-79870D02*
X45404Y-79870D01*
X45460Y-79842D01*
X45489Y-79785D01*
X45489Y-79701D01*
X45460Y-79645D01*
X45432Y-79617D01*
X45095Y-79420D02*
X45095Y-79195D01*
X44898Y-79336D02*
X45404Y-79336D01*
X45460Y-79307D01*
X45489Y-79251D01*
X45489Y-79195D01*
X60648Y-81445D02*
X60648Y-81332D01*
X60676Y-81276D01*
X60732Y-81220D01*
X60845Y-81192D01*
X61042Y-81192D01*
X61154Y-81220D01*
X61210Y-81276D01*
X61239Y-81332D01*
X61239Y-81445D01*
X61210Y-81501D01*
X61154Y-81557D01*
X61042Y-81585D01*
X60845Y-81585D01*
X60732Y-81557D01*
X60676Y-81501D01*
X60648Y-81445D01*
X60845Y-80685D02*
X61239Y-80685D01*
X60845Y-80938D02*
X61154Y-80938D01*
X61210Y-80910D01*
X61239Y-80854D01*
X61239Y-80770D01*
X61210Y-80714D01*
X61182Y-80685D01*
X60845Y-80489D02*
X60845Y-80264D01*
X60648Y-80404D02*
X61154Y-80404D01*
X61210Y-80376D01*
X61239Y-80320D01*
X61239Y-80264D01*
X60845Y-80067D02*
X61435Y-80067D01*
X60873Y-80067D02*
X60845Y-80010D01*
X60845Y-79898D01*
X60873Y-79842D01*
X60901Y-79814D01*
X60957Y-79785D01*
X61126Y-79785D01*
X61182Y-79814D01*
X61210Y-79842D01*
X61239Y-79898D01*
X61239Y-80010D01*
X61210Y-80067D01*
X60845Y-79279D02*
X61239Y-79279D01*
X60845Y-79532D02*
X61154Y-79532D01*
X61210Y-79504D01*
X61239Y-79448D01*
X61239Y-79364D01*
X61210Y-79307D01*
X61182Y-79279D01*
X60845Y-79082D02*
X60845Y-78857D01*
X60648Y-78998D02*
X61154Y-78998D01*
X61210Y-78970D01*
X61239Y-78914D01*
X61239Y-78857D01*
G54D12*
X62750Y-64250D02*
X43250Y-64250D01*
X43250Y-64250D02*
X43250Y-85750D01*
X43250Y-85750D02*
X62750Y-85750D01*
X62750Y-85750D02*
X62750Y-64250D01*
X43000Y-85750D02*
X43000Y-64250D01*
X23500Y-85750D02*
X43000Y-85750D01*
X23500Y-64250D02*
X23500Y-85750D01*
X43000Y-64250D02*
X23500Y-64250D01*
G54D11*
X40898Y-81445D02*
X40898Y-81332D01*
X40926Y-81276D01*
X40982Y-81220D01*
X41095Y-81192D01*
X41292Y-81192D01*
X41404Y-81220D01*
X41460Y-81276D01*
X41489Y-81332D01*
X41489Y-81445D01*
X41460Y-81501D01*
X41404Y-81557D01*
X41292Y-81585D01*
X41095Y-81585D01*
X40982Y-81557D01*
X40926Y-81501D01*
X40898Y-81445D01*
X41095Y-80685D02*
X41489Y-80685D01*
X41095Y-80938D02*
X41404Y-80938D01*
X41460Y-80910D01*
X41489Y-80854D01*
X41489Y-80770D01*
X41460Y-80714D01*
X41432Y-80685D01*
X41095Y-80489D02*
X41095Y-80264D01*
X40898Y-80404D02*
X41404Y-80404D01*
X41460Y-80376D01*
X41489Y-80320D01*
X41489Y-80264D01*
X41095Y-80067D02*
X41685Y-80067D01*
X41123Y-80067D02*
X41095Y-80010D01*
X41095Y-79898D01*
X41123Y-79842D01*
X41151Y-79814D01*
X41207Y-79785D01*
X41376Y-79785D01*
X41432Y-79814D01*
X41460Y-79842D01*
X41489Y-79898D01*
X41489Y-80010D01*
X41460Y-80067D01*
X41095Y-79279D02*
X41489Y-79279D01*
X41095Y-79532D02*
X41404Y-79532D01*
X41460Y-79504D01*
X41489Y-79448D01*
X41489Y-79364D01*
X41460Y-79307D01*
X41432Y-79279D01*
X41095Y-79082D02*
X41095Y-78857D01*
X40898Y-78998D02*
X41404Y-78998D01*
X41460Y-78970D01*
X41489Y-78914D01*
X41489Y-78857D01*
X25739Y-81220D02*
X25148Y-81220D01*
X25345Y-80938D02*
X25739Y-80938D01*
X25401Y-80938D02*
X25373Y-80910D01*
X25345Y-80854D01*
X25345Y-80770D01*
X25373Y-80714D01*
X25429Y-80685D01*
X25739Y-80685D01*
X25345Y-80404D02*
X25935Y-80404D01*
X25373Y-80404D02*
X25345Y-80348D01*
X25345Y-80235D01*
X25373Y-80179D01*
X25401Y-80151D01*
X25457Y-80123D01*
X25626Y-80123D01*
X25682Y-80151D01*
X25710Y-80179D01*
X25739Y-80235D01*
X25739Y-80348D01*
X25710Y-80404D01*
X25345Y-79617D02*
X25739Y-79617D01*
X25345Y-79870D02*
X25654Y-79870D01*
X25710Y-79842D01*
X25739Y-79785D01*
X25739Y-79701D01*
X25710Y-79645D01*
X25682Y-79617D01*
X25345Y-79420D02*
X25345Y-79195D01*
X25148Y-79336D02*
X25654Y-79336D01*
X25710Y-79307D01*
X25739Y-79251D01*
X25739Y-79195D01*
G54D12*
X23500Y-46750D02*
X23500Y-63750D01*
X56000Y-46750D02*
X23500Y-46750D01*
X56000Y-63750D02*
X56000Y-46750D01*
X23500Y-63750D02*
X56000Y-63750D01*
X39827Y-62719D02*
X39812Y-62749D01*
X39812Y-62794D01*
X39827Y-62839D01*
X39857Y-62869D01*
X39887Y-62884D01*
X39947Y-62899D01*
X39992Y-62899D01*
X40052Y-62884D01*
X40082Y-62869D01*
X40112Y-62839D01*
X40127Y-62794D01*
X40127Y-62764D01*
X40112Y-62719D01*
X40097Y-62704D01*
X39992Y-62704D01*
X39992Y-62764D01*
X40127Y-62569D02*
X39812Y-62569D01*
X40127Y-62389D01*
X39812Y-62389D01*
X40127Y-62239D02*
X39812Y-62239D01*
X39812Y-62164D01*
X39827Y-62119D01*
X39857Y-62089D01*
X39887Y-62074D01*
X39947Y-62059D01*
X39992Y-62059D01*
X40052Y-62074D01*
X40082Y-62089D01*
X40112Y-62119D01*
X40127Y-62164D01*
X40127Y-62239D01*
X38962Y-63004D02*
X38977Y-62959D01*
X38992Y-62944D01*
X39022Y-62929D01*
X39067Y-62929D01*
X39097Y-62944D01*
X39112Y-62959D01*
X39127Y-62989D01*
X39127Y-63109D01*
X38812Y-63109D01*
X38812Y-63004D01*
X38827Y-62974D01*
X38842Y-62959D01*
X38872Y-62944D01*
X38902Y-62944D01*
X38932Y-62959D01*
X38947Y-62974D01*
X38962Y-63004D01*
X38962Y-63109D01*
X38812Y-62734D02*
X38812Y-62674D01*
X38827Y-62644D01*
X38857Y-62614D01*
X38917Y-62599D01*
X39022Y-62599D01*
X39082Y-62614D01*
X39112Y-62644D01*
X39127Y-62674D01*
X39127Y-62734D01*
X39112Y-62764D01*
X39082Y-62794D01*
X39022Y-62809D01*
X38917Y-62809D01*
X38857Y-62794D01*
X38827Y-62764D01*
X38812Y-62734D01*
X38962Y-62359D02*
X38962Y-62464D01*
X39127Y-62464D02*
X38812Y-62464D01*
X38812Y-62314D01*
X38962Y-62089D02*
X38962Y-62194D01*
X39127Y-62194D02*
X38812Y-62194D01*
X38812Y-62044D01*
X37827Y-63377D02*
X37722Y-63227D01*
X37647Y-63377D02*
X37647Y-63062D01*
X37767Y-63062D01*
X37797Y-63077D01*
X37812Y-63092D01*
X37827Y-63122D01*
X37827Y-63167D01*
X37812Y-63197D01*
X37797Y-63212D01*
X37767Y-63227D01*
X37647Y-63227D01*
X37947Y-63362D02*
X37992Y-63377D01*
X38067Y-63377D01*
X38097Y-63362D01*
X38112Y-63347D01*
X38127Y-63317D01*
X38127Y-63287D01*
X38112Y-63257D01*
X38097Y-63242D01*
X38067Y-63227D01*
X38007Y-63212D01*
X37977Y-63197D01*
X37962Y-63182D01*
X37947Y-63152D01*
X37947Y-63122D01*
X37962Y-63092D01*
X37977Y-63077D01*
X38007Y-63062D01*
X38082Y-63062D01*
X38127Y-63077D01*
X38217Y-63062D02*
X38397Y-63062D01*
X38307Y-63377D02*
X38307Y-63062D01*
X36962Y-62607D02*
X36962Y-62489D01*
X37127Y-62438D02*
X37127Y-62607D01*
X36812Y-62607D01*
X36812Y-62438D01*
X37127Y-62286D02*
X36812Y-62286D01*
X37127Y-62084D01*
X36812Y-62084D01*
X36127Y-62569D02*
X35812Y-62569D01*
X35812Y-62494D01*
X35827Y-62449D01*
X35857Y-62419D01*
X35887Y-62404D01*
X35947Y-62389D01*
X35992Y-62389D01*
X36052Y-62404D01*
X36082Y-62419D01*
X36112Y-62449D01*
X36127Y-62494D01*
X36127Y-62569D01*
X35812Y-62194D02*
X35812Y-62134D01*
X35827Y-62104D01*
X35857Y-62074D01*
X35917Y-62059D01*
X36022Y-62059D01*
X36082Y-62074D01*
X36112Y-62104D01*
X36127Y-62134D01*
X36127Y-62194D01*
X36112Y-62224D01*
X36082Y-62254D01*
X36022Y-62269D01*
X35917Y-62269D01*
X35857Y-62254D01*
X35827Y-62224D01*
X35812Y-62194D01*
X35097Y-62629D02*
X35112Y-62644D01*
X35127Y-62689D01*
X35127Y-62719D01*
X35112Y-62764D01*
X35082Y-62794D01*
X35052Y-62809D01*
X34992Y-62824D01*
X34947Y-62824D01*
X34887Y-62809D01*
X34857Y-62794D01*
X34827Y-62764D01*
X34812Y-62719D01*
X34812Y-62689D01*
X34827Y-62644D01*
X34842Y-62629D01*
X35127Y-62344D02*
X35127Y-62494D01*
X34812Y-62494D01*
X35127Y-62239D02*
X34812Y-62239D01*
X35127Y-62059D02*
X34947Y-62194D01*
X34812Y-62059D02*
X34992Y-62239D01*
X34007Y-63334D02*
X34007Y-63094D01*
X34127Y-63214D02*
X33887Y-63214D01*
X33812Y-62974D02*
X33812Y-62779D01*
X33932Y-62884D01*
X33932Y-62839D01*
X33947Y-62809D01*
X33962Y-62794D01*
X33992Y-62779D01*
X34067Y-62779D01*
X34097Y-62794D01*
X34112Y-62809D01*
X34127Y-62839D01*
X34127Y-62929D01*
X34112Y-62959D01*
X34097Y-62974D01*
X34097Y-62644D02*
X34112Y-62629D01*
X34127Y-62644D01*
X34112Y-62659D01*
X34097Y-62644D01*
X34127Y-62644D01*
X33812Y-62524D02*
X33812Y-62329D01*
X33932Y-62434D01*
X33932Y-62389D01*
X33947Y-62359D01*
X33962Y-62344D01*
X33992Y-62329D01*
X34067Y-62329D01*
X34097Y-62344D01*
X34112Y-62359D01*
X34127Y-62389D01*
X34127Y-62479D01*
X34112Y-62509D01*
X34097Y-62524D01*
X33812Y-62239D02*
X34127Y-62134D01*
X33812Y-62029D01*
G54D13*
X53000Y-77800D02*
X53000Y-78700D01*
X53000Y-78700D02*
X52500Y-78700D01*
X52500Y-78700D02*
X52500Y-77800D01*
X52500Y-77800D02*
X53000Y-77800D01*
X54750Y-78700D02*
X54750Y-77800D01*
X54750Y-77800D02*
X55250Y-77800D01*
X55250Y-77800D02*
X55250Y-78700D01*
X55250Y-78700D02*
X54750Y-78700D01*
X53250Y-78700D02*
X53250Y-77800D01*
X53250Y-77800D02*
X53750Y-77800D01*
X53750Y-77800D02*
X53750Y-78700D01*
X53750Y-78700D02*
X53250Y-78700D01*
X54000Y-78700D02*
X54000Y-77800D01*
X54000Y-77800D02*
X54500Y-77800D01*
X54500Y-77800D02*
X54500Y-78700D01*
X54500Y-78700D02*
X54000Y-78700D01*
X55500Y-78700D02*
X55500Y-77800D01*
X55500Y-77800D02*
X56000Y-77800D01*
X56000Y-77800D02*
X56000Y-78700D01*
X56000Y-78700D02*
X55500Y-78700D01*
X51104Y-77315D02*
X51104Y-76685D01*
X51144Y-76685D02*
X51144Y-77315D01*
X50199Y-76685D02*
X51301Y-76685D01*
X51301Y-76685D02*
X51301Y-77315D01*
X51301Y-77315D02*
X50199Y-77315D01*
X50199Y-77315D02*
X50199Y-76685D01*
X59396Y-76685D02*
X59396Y-77315D01*
X59356Y-77315D02*
X59356Y-76685D01*
X60301Y-77315D02*
X59199Y-77315D01*
X59199Y-77315D02*
X59199Y-76685D01*
X59199Y-76685D02*
X60301Y-76685D01*
X60301Y-76685D02*
X60301Y-77315D01*
X51104Y-76565D02*
X51104Y-75935D01*
X51144Y-75935D02*
X51144Y-76565D01*
X50199Y-75935D02*
X51301Y-75935D01*
X51301Y-75935D02*
X51301Y-76565D01*
X51301Y-76565D02*
X50199Y-76565D01*
X50199Y-76565D02*
X50199Y-75935D01*
X51104Y-78065D02*
X51104Y-77435D01*
X51144Y-77435D02*
X51144Y-78065D01*
X50199Y-77435D02*
X51301Y-77435D01*
X51301Y-77435D02*
X51301Y-78065D01*
X51301Y-78065D02*
X50199Y-78065D01*
X50199Y-78065D02*
X50199Y-77435D01*
X59396Y-77435D02*
X59396Y-78065D01*
X59356Y-78065D02*
X59356Y-77435D01*
X60301Y-78065D02*
X59199Y-78065D01*
X59199Y-78065D02*
X59199Y-77435D01*
X59199Y-77435D02*
X60301Y-77435D01*
X60301Y-77435D02*
X60301Y-78065D01*
X48250Y-72050D02*
X48250Y-72950D01*
X48250Y-72950D02*
X47750Y-72950D01*
X47750Y-72950D02*
X47750Y-72050D01*
X47750Y-72050D02*
X48250Y-72050D01*
X44650Y-74750D02*
X46350Y-74750D01*
X44650Y-77200D02*
X46350Y-77200D01*
X46350Y-77200D02*
X46350Y-74300D01*
X46350Y-74300D02*
X44650Y-74300D01*
X44650Y-74300D02*
X44650Y-77200D01*
X46550Y-71150D02*
X46550Y-72400D01*
X46550Y-72400D02*
X47250Y-72400D01*
X47250Y-72400D02*
X47250Y-71150D01*
X44750Y-71150D02*
X44750Y-72400D01*
X44750Y-72400D02*
X45450Y-72400D01*
X45450Y-72400D02*
X45450Y-71150D01*
X47350Y-68750D02*
X47350Y-71150D01*
X47350Y-71150D02*
X44650Y-71150D01*
X44650Y-71150D02*
X44650Y-68050D01*
X44650Y-68000D02*
X47350Y-68000D01*
X47350Y-68050D02*
X47350Y-68750D01*
X51250Y-72300D02*
X51250Y-73200D01*
X51250Y-73200D02*
X50750Y-73200D01*
X50750Y-73200D02*
X50750Y-72300D01*
X50750Y-72300D02*
X51250Y-72300D01*
X49750Y-72300D02*
X49750Y-73200D01*
X49750Y-73200D02*
X49250Y-73200D01*
X49250Y-73200D02*
X49250Y-72300D01*
X49250Y-72300D02*
X49750Y-72300D01*
X52750Y-72300D02*
X52750Y-73200D01*
X52750Y-73200D02*
X52250Y-73200D01*
X52250Y-73200D02*
X52250Y-72300D01*
X52250Y-72300D02*
X52750Y-72300D01*
X57050Y-76750D02*
X57950Y-76750D01*
X57950Y-76750D02*
X57950Y-77250D01*
X57950Y-77250D02*
X57050Y-77250D01*
X57050Y-77250D02*
X57050Y-76750D01*
X45250Y-65450D02*
X45250Y-64550D01*
X45250Y-64550D02*
X45750Y-64550D01*
X45750Y-64550D02*
X45750Y-65450D01*
X45750Y-65450D02*
X45250Y-65450D01*
X54250Y-72300D02*
X54250Y-73200D01*
X54250Y-73200D02*
X53750Y-73200D01*
X53750Y-73200D02*
X53750Y-72300D01*
X53750Y-72300D02*
X54250Y-72300D01*
X45250Y-66950D02*
X45250Y-66050D01*
X45250Y-66050D02*
X45750Y-66050D01*
X45750Y-66050D02*
X45750Y-66950D01*
X45750Y-66950D02*
X45250Y-66950D01*
X46000Y-65450D02*
X46000Y-64550D01*
X46000Y-64550D02*
X46500Y-64550D01*
X46500Y-64550D02*
X46500Y-65450D01*
X46500Y-65450D02*
X46000Y-65450D01*
X55750Y-72300D02*
X55750Y-73200D01*
X55750Y-73200D02*
X55250Y-73200D01*
X55250Y-73200D02*
X55250Y-72300D01*
X55250Y-72300D02*
X55750Y-72300D01*
X57250Y-72300D02*
X57250Y-73200D01*
X57250Y-73200D02*
X56750Y-73200D01*
X56750Y-73200D02*
X56750Y-72300D01*
X56750Y-72300D02*
X57250Y-72300D01*
X58750Y-72300D02*
X58750Y-73200D01*
X58750Y-73200D02*
X58250Y-73200D01*
X58250Y-73200D02*
X58250Y-72300D01*
X58250Y-72300D02*
X58750Y-72300D01*
X44250Y-72050D02*
X44250Y-72950D01*
X44250Y-72950D02*
X43750Y-72950D01*
X43750Y-72950D02*
X43750Y-72050D01*
X43750Y-72050D02*
X44250Y-72050D01*
X60250Y-72300D02*
X60250Y-73200D01*
X60250Y-73200D02*
X59750Y-73200D01*
X59750Y-73200D02*
X59750Y-72300D01*
X59750Y-72300D02*
X60250Y-72300D01*
X46000Y-66950D02*
X46000Y-66050D01*
X46000Y-66050D02*
X46500Y-66050D01*
X46500Y-66050D02*
X46500Y-66950D01*
X46500Y-66950D02*
X46000Y-66950D01*
X49050Y-70250D02*
X49950Y-70250D01*
X49950Y-70250D02*
X49950Y-69600D01*
X49050Y-68900D02*
X49050Y-68250D01*
X49050Y-68250D02*
X49950Y-68250D01*
X49950Y-68250D02*
X49950Y-68900D01*
X49050Y-69600D02*
X49050Y-70250D01*
X59550Y-70250D02*
X60450Y-70250D01*
X60450Y-70250D02*
X60450Y-69600D01*
X59550Y-68900D02*
X59550Y-68250D01*
X59550Y-68250D02*
X60450Y-68250D01*
X60450Y-68250D02*
X60450Y-68900D01*
X59550Y-69600D02*
X59550Y-70250D01*
X58050Y-70250D02*
X58950Y-70250D01*
X58950Y-70250D02*
X58950Y-69600D01*
X58050Y-68900D02*
X58050Y-68250D01*
X58050Y-68250D02*
X58950Y-68250D01*
X58950Y-68250D02*
X58950Y-68900D01*
X58050Y-69600D02*
X58050Y-70250D01*
X56550Y-70250D02*
X57450Y-70250D01*
X57450Y-70250D02*
X57450Y-69600D01*
X56550Y-68900D02*
X56550Y-68250D01*
X56550Y-68250D02*
X57450Y-68250D01*
X57450Y-68250D02*
X57450Y-68900D01*
X56550Y-69600D02*
X56550Y-70250D01*
X50550Y-70250D02*
X51450Y-70250D01*
X51450Y-70250D02*
X51450Y-69600D01*
X50550Y-68900D02*
X50550Y-68250D01*
X50550Y-68250D02*
X51450Y-68250D01*
X51450Y-68250D02*
X51450Y-68900D01*
X50550Y-69600D02*
X50550Y-70250D01*
X53550Y-70250D02*
X54450Y-70250D01*
X54450Y-70250D02*
X54450Y-69600D01*
X53550Y-68900D02*
X53550Y-68250D01*
X53550Y-68250D02*
X54450Y-68250D01*
X54450Y-68250D02*
X54450Y-68900D01*
X53550Y-69600D02*
X53550Y-70250D01*
X52050Y-70250D02*
X52950Y-70250D01*
X52950Y-70250D02*
X52950Y-69600D01*
X52050Y-68900D02*
X52050Y-68250D01*
X52050Y-68250D02*
X52950Y-68250D01*
X52950Y-68250D02*
X52950Y-68900D01*
X52050Y-69600D02*
X52050Y-70250D01*
X55050Y-70250D02*
X55950Y-70250D01*
X55950Y-70250D02*
X55950Y-69600D01*
X55050Y-68900D02*
X55050Y-68250D01*
X55050Y-68250D02*
X55950Y-68250D01*
X55950Y-68250D02*
X55950Y-68900D01*
X55050Y-69600D02*
X55050Y-70250D01*
G54D14*
X56900Y-76700D02*
X52600Y-76700D01*
X52600Y-76700D02*
X52600Y-75300D01*
X52600Y-75300D02*
X56900Y-75300D01*
X56900Y-75300D02*
X56900Y-76700D01*
X56900Y-76200D02*
X56600Y-76200D01*
X56600Y-76200D02*
X56600Y-75800D01*
X56600Y-75800D02*
X56900Y-75800D01*
G54D13*
X45896Y-72935D02*
X45896Y-73565D01*
X45856Y-73565D02*
X45856Y-72935D01*
X46801Y-73565D02*
X45699Y-73565D01*
X45699Y-73565D02*
X45699Y-72935D01*
X45699Y-72935D02*
X46801Y-72935D01*
X46801Y-72935D02*
X46801Y-73565D01*
X54375Y-71525D02*
X54375Y-71785D01*
X53625Y-71525D02*
X53625Y-71785D01*
X54000Y-70975D02*
X54000Y-70715D01*
X53410Y-70975D02*
X54590Y-70975D01*
X54590Y-70975D02*
X54590Y-71525D01*
X54590Y-71525D02*
X53410Y-71525D01*
X53410Y-71525D02*
X53410Y-70975D01*
X55875Y-71525D02*
X55875Y-71785D01*
X55125Y-71525D02*
X55125Y-71785D01*
X55500Y-70975D02*
X55500Y-70715D01*
X54910Y-70975D02*
X56090Y-70975D01*
X56090Y-70975D02*
X56090Y-71525D01*
X56090Y-71525D02*
X54910Y-71525D01*
X54910Y-71525D02*
X54910Y-70975D01*
X57375Y-71525D02*
X57375Y-71785D01*
X56625Y-71525D02*
X56625Y-71785D01*
X57000Y-70975D02*
X57000Y-70715D01*
X56410Y-70975D02*
X57590Y-70975D01*
X57590Y-70975D02*
X57590Y-71525D01*
X57590Y-71525D02*
X56410Y-71525D01*
X56410Y-71525D02*
X56410Y-70975D01*
X49875Y-71525D02*
X49875Y-71785D01*
X49125Y-71525D02*
X49125Y-71785D01*
X49500Y-70975D02*
X49500Y-70715D01*
X48910Y-70975D02*
X50090Y-70975D01*
X50090Y-70975D02*
X50090Y-71525D01*
X50090Y-71525D02*
X48910Y-71525D01*
X48910Y-71525D02*
X48910Y-70975D01*
X58875Y-71525D02*
X58875Y-71785D01*
X58125Y-71525D02*
X58125Y-71785D01*
X58500Y-70975D02*
X58500Y-70715D01*
X57910Y-70975D02*
X59090Y-70975D01*
X59090Y-70975D02*
X59090Y-71525D01*
X59090Y-71525D02*
X57910Y-71525D01*
X57910Y-71525D02*
X57910Y-70975D01*
X52875Y-71525D02*
X52875Y-71785D01*
X52125Y-71525D02*
X52125Y-71785D01*
X52500Y-70975D02*
X52500Y-70715D01*
X51910Y-70975D02*
X53090Y-70975D01*
X53090Y-70975D02*
X53090Y-71525D01*
X53090Y-71525D02*
X51910Y-71525D01*
X51910Y-71525D02*
X51910Y-70975D01*
X60375Y-71525D02*
X60375Y-71785D01*
X59625Y-71525D02*
X59625Y-71785D01*
X60000Y-70975D02*
X60000Y-70715D01*
X59410Y-70975D02*
X60590Y-70975D01*
X60590Y-70975D02*
X60590Y-71525D01*
X60590Y-71525D02*
X59410Y-71525D01*
X59410Y-71525D02*
X59410Y-70975D01*
X51375Y-71525D02*
X51375Y-71785D01*
X50625Y-71525D02*
X50625Y-71785D01*
X51000Y-70975D02*
X51000Y-70715D01*
X50410Y-70975D02*
X51590Y-70975D01*
X51590Y-70975D02*
X51590Y-71525D01*
X51590Y-71525D02*
X50410Y-71525D01*
X50410Y-71525D02*
X50410Y-70975D01*
X47150Y-74750D02*
X48850Y-74750D01*
X47150Y-77200D02*
X48850Y-77200D01*
X48850Y-77200D02*
X48850Y-74300D01*
X48850Y-74300D02*
X47150Y-74300D01*
X47150Y-74300D02*
X47150Y-77200D01*
G54D12*
X47100Y-64600D02*
X47000Y-64600D01*
X47000Y-64600D02*
X47000Y-67000D01*
X59000Y-67000D02*
X59000Y-64600D01*
X59000Y-64600D02*
X47100Y-64600D01*
X56400Y-67000D02*
X56400Y-65200D01*
X56400Y-65200D02*
X56900Y-64700D01*
X56900Y-64700D02*
X57700Y-64700D01*
X57700Y-64700D02*
X58200Y-65200D01*
X58200Y-65200D02*
X58200Y-67000D01*
X47800Y-67000D02*
X47800Y-65200D01*
X47800Y-65200D02*
X48300Y-64700D01*
X48300Y-64700D02*
X49200Y-64700D01*
X49200Y-64700D02*
X49700Y-65200D01*
X49700Y-65200D02*
X49700Y-67000D01*
X47000Y-67000D02*
X59000Y-67000D01*
X62613Y-65150D02*
G75*
G03X62613Y-65150I-763J0D01*
G74*
G01*
X62611Y-84850D02*
G75*
G03X62611Y-84850I-761J0D01*
G74*
G01*
X44913Y-84850D02*
G75*
G03X44913Y-84850I-763J0D01*
G74*
G01*
X44940Y-65150D02*
G75*
G03X44940Y-65150I-790J0D01*
G74*
G01*
G54D13*
X52125Y-79025D02*
X52125Y-85225D01*
X45875Y-85225D02*
X45875Y-79025D01*
X45875Y-85225D02*
X52125Y-85225D01*
X45875Y-79025D02*
X52125Y-79025D01*
X60125Y-85225D02*
X60125Y-79025D01*
X53875Y-79025D02*
X53875Y-85225D01*
X53875Y-85225D02*
X60125Y-85225D01*
X60125Y-79025D02*
X53875Y-79025D01*
X40375Y-85225D02*
X40375Y-79025D01*
X34125Y-79025D02*
X34125Y-85225D01*
X34125Y-85225D02*
X40375Y-85225D01*
X40375Y-79025D02*
X34125Y-79025D01*
X32375Y-79025D02*
X32375Y-85225D01*
X26125Y-85225D02*
X26125Y-79025D01*
X26125Y-85225D02*
X32375Y-85225D01*
X26125Y-79025D02*
X32375Y-79025D01*
G54D12*
X25190Y-65150D02*
G75*
G03X25190Y-65150I-790J0D01*
G74*
G01*
X25163Y-84850D02*
G75*
G03X25163Y-84850I-763J0D01*
G74*
G01*
X42861Y-84850D02*
G75*
G03X42861Y-84850I-761J0D01*
G74*
G01*
X42863Y-65150D02*
G75*
G03X42863Y-65150I-763J0D01*
G74*
G01*
X27350Y-64600D02*
X27250Y-64600D01*
X27250Y-64600D02*
X27250Y-67000D01*
X39250Y-67000D02*
X39250Y-64600D01*
X39250Y-64600D02*
X27350Y-64600D01*
X36650Y-67000D02*
X36650Y-65200D01*
X36650Y-65200D02*
X37150Y-64700D01*
X37150Y-64700D02*
X37950Y-64700D01*
X37950Y-64700D02*
X38450Y-65200D01*
X38450Y-65200D02*
X38450Y-67000D01*
X28050Y-67000D02*
X28050Y-65200D01*
X28050Y-65200D02*
X28550Y-64700D01*
X28550Y-64700D02*
X29450Y-64700D01*
X29450Y-64700D02*
X29950Y-65200D01*
X29950Y-65200D02*
X29950Y-67000D01*
X27250Y-67000D02*
X39250Y-67000D01*
G54D13*
X27400Y-74750D02*
X29100Y-74750D01*
X27400Y-77200D02*
X29100Y-77200D01*
X29100Y-77200D02*
X29100Y-74300D01*
X29100Y-74300D02*
X27400Y-74300D01*
X27400Y-74300D02*
X27400Y-77200D01*
X31625Y-71525D02*
X31625Y-71785D01*
X30875Y-71525D02*
X30875Y-71785D01*
X31250Y-70975D02*
X31250Y-70715D01*
X30660Y-70975D02*
X31840Y-70975D01*
X31840Y-70975D02*
X31840Y-71525D01*
X31840Y-71525D02*
X30660Y-71525D01*
X30660Y-71525D02*
X30660Y-70975D01*
X40625Y-71525D02*
X40625Y-71785D01*
X39875Y-71525D02*
X39875Y-71785D01*
X40250Y-70975D02*
X40250Y-70715D01*
X39660Y-70975D02*
X40840Y-70975D01*
X40840Y-70975D02*
X40840Y-71525D01*
X40840Y-71525D02*
X39660Y-71525D01*
X39660Y-71525D02*
X39660Y-70975D01*
X33125Y-71525D02*
X33125Y-71785D01*
X32375Y-71525D02*
X32375Y-71785D01*
X32750Y-70975D02*
X32750Y-70715D01*
X32160Y-70975D02*
X33340Y-70975D01*
X33340Y-70975D02*
X33340Y-71525D01*
X33340Y-71525D02*
X32160Y-71525D01*
X32160Y-71525D02*
X32160Y-70975D01*
X39125Y-71525D02*
X39125Y-71785D01*
X38375Y-71525D02*
X38375Y-71785D01*
X38750Y-70975D02*
X38750Y-70715D01*
X38160Y-70975D02*
X39340Y-70975D01*
X39340Y-70975D02*
X39340Y-71525D01*
X39340Y-71525D02*
X38160Y-71525D01*
X38160Y-71525D02*
X38160Y-70975D01*
X30125Y-71525D02*
X30125Y-71785D01*
X29375Y-71525D02*
X29375Y-71785D01*
X29750Y-70975D02*
X29750Y-70715D01*
X29160Y-70975D02*
X30340Y-70975D01*
X30340Y-70975D02*
X30340Y-71525D01*
X30340Y-71525D02*
X29160Y-71525D01*
X29160Y-71525D02*
X29160Y-70975D01*
X37625Y-71525D02*
X37625Y-71785D01*
X36875Y-71525D02*
X36875Y-71785D01*
X37250Y-70975D02*
X37250Y-70715D01*
X36660Y-70975D02*
X37840Y-70975D01*
X37840Y-70975D02*
X37840Y-71525D01*
X37840Y-71525D02*
X36660Y-71525D01*
X36660Y-71525D02*
X36660Y-70975D01*
X36125Y-71525D02*
X36125Y-71785D01*
X35375Y-71525D02*
X35375Y-71785D01*
X35750Y-70975D02*
X35750Y-70715D01*
X35160Y-70975D02*
X36340Y-70975D01*
X36340Y-70975D02*
X36340Y-71525D01*
X36340Y-71525D02*
X35160Y-71525D01*
X35160Y-71525D02*
X35160Y-70975D01*
X34625Y-71525D02*
X34625Y-71785D01*
X33875Y-71525D02*
X33875Y-71785D01*
X34250Y-70975D02*
X34250Y-70715D01*
X33660Y-70975D02*
X34840Y-70975D01*
X34840Y-70975D02*
X34840Y-71525D01*
X34840Y-71525D02*
X33660Y-71525D01*
X33660Y-71525D02*
X33660Y-70975D01*
X26146Y-72935D02*
X26146Y-73565D01*
X26106Y-73565D02*
X26106Y-72935D01*
X27051Y-73565D02*
X25949Y-73565D01*
X25949Y-73565D02*
X25949Y-72935D01*
X25949Y-72935D02*
X27051Y-72935D01*
X27051Y-72935D02*
X27051Y-73565D01*
G54D14*
X37150Y-76700D02*
X32850Y-76700D01*
X32850Y-76700D02*
X32850Y-75300D01*
X32850Y-75300D02*
X37150Y-75300D01*
X37150Y-75300D02*
X37150Y-76700D01*
X37150Y-76200D02*
X36850Y-76200D01*
X36850Y-76200D02*
X36850Y-75800D01*
X36850Y-75800D02*
X37150Y-75800D01*
G54D13*
X35300Y-70250D02*
X36200Y-70250D01*
X36200Y-70250D02*
X36200Y-69600D01*
X35300Y-68900D02*
X35300Y-68250D01*
X35300Y-68250D02*
X36200Y-68250D01*
X36200Y-68250D02*
X36200Y-68900D01*
X35300Y-69600D02*
X35300Y-70250D01*
X32300Y-70250D02*
X33200Y-70250D01*
X33200Y-70250D02*
X33200Y-69600D01*
X32300Y-68900D02*
X32300Y-68250D01*
X32300Y-68250D02*
X33200Y-68250D01*
X33200Y-68250D02*
X33200Y-68900D01*
X32300Y-69600D02*
X32300Y-70250D01*
X33800Y-70250D02*
X34700Y-70250D01*
X34700Y-70250D02*
X34700Y-69600D01*
X33800Y-68900D02*
X33800Y-68250D01*
X33800Y-68250D02*
X34700Y-68250D01*
X34700Y-68250D02*
X34700Y-68900D01*
X33800Y-69600D02*
X33800Y-70250D01*
X30800Y-70250D02*
X31700Y-70250D01*
X31700Y-70250D02*
X31700Y-69600D01*
X30800Y-68900D02*
X30800Y-68250D01*
X30800Y-68250D02*
X31700Y-68250D01*
X31700Y-68250D02*
X31700Y-68900D01*
X30800Y-69600D02*
X30800Y-70250D01*
X36800Y-70250D02*
X37700Y-70250D01*
X37700Y-70250D02*
X37700Y-69600D01*
X36800Y-68900D02*
X36800Y-68250D01*
X36800Y-68250D02*
X37700Y-68250D01*
X37700Y-68250D02*
X37700Y-68900D01*
X36800Y-69600D02*
X36800Y-70250D01*
X38300Y-70250D02*
X39200Y-70250D01*
X39200Y-70250D02*
X39200Y-69600D01*
X38300Y-68900D02*
X38300Y-68250D01*
X38300Y-68250D02*
X39200Y-68250D01*
X39200Y-68250D02*
X39200Y-68900D01*
X38300Y-69600D02*
X38300Y-70250D01*
X39800Y-70250D02*
X40700Y-70250D01*
X40700Y-70250D02*
X40700Y-69600D01*
X39800Y-68900D02*
X39800Y-68250D01*
X39800Y-68250D02*
X40700Y-68250D01*
X40700Y-68250D02*
X40700Y-68900D01*
X39800Y-69600D02*
X39800Y-70250D01*
X29300Y-70250D02*
X30200Y-70250D01*
X30200Y-70250D02*
X30200Y-69600D01*
X29300Y-68900D02*
X29300Y-68250D01*
X29300Y-68250D02*
X30200Y-68250D01*
X30200Y-68250D02*
X30200Y-68900D01*
X29300Y-69600D02*
X29300Y-70250D01*
X26250Y-66950D02*
X26250Y-66050D01*
X26250Y-66050D02*
X26750Y-66050D01*
X26750Y-66050D02*
X26750Y-66950D01*
X26750Y-66950D02*
X26250Y-66950D01*
X40500Y-72300D02*
X40500Y-73200D01*
X40500Y-73200D02*
X40000Y-73200D01*
X40000Y-73200D02*
X40000Y-72300D01*
X40000Y-72300D02*
X40500Y-72300D01*
X24500Y-72050D02*
X24500Y-72950D01*
X24500Y-72950D02*
X24000Y-72950D01*
X24000Y-72950D02*
X24000Y-72050D01*
X24000Y-72050D02*
X24500Y-72050D01*
X39000Y-72300D02*
X39000Y-73200D01*
X39000Y-73200D02*
X38500Y-73200D01*
X38500Y-73200D02*
X38500Y-72300D01*
X38500Y-72300D02*
X39000Y-72300D01*
X37500Y-72300D02*
X37500Y-73200D01*
X37500Y-73200D02*
X37000Y-73200D01*
X37000Y-73200D02*
X37000Y-72300D01*
X37000Y-72300D02*
X37500Y-72300D01*
X36000Y-72300D02*
X36000Y-73200D01*
X36000Y-73200D02*
X35500Y-73200D01*
X35500Y-73200D02*
X35500Y-72300D01*
X35500Y-72300D02*
X36000Y-72300D01*
X26250Y-65450D02*
X26250Y-64550D01*
X26250Y-64550D02*
X26750Y-64550D01*
X26750Y-64550D02*
X26750Y-65450D01*
X26750Y-65450D02*
X26250Y-65450D01*
X25500Y-66950D02*
X25500Y-66050D01*
X25500Y-66050D02*
X26000Y-66050D01*
X26000Y-66050D02*
X26000Y-66950D01*
X26000Y-66950D02*
X25500Y-66950D01*
X34500Y-72300D02*
X34500Y-73200D01*
X34500Y-73200D02*
X34000Y-73200D01*
X34000Y-73200D02*
X34000Y-72300D01*
X34000Y-72300D02*
X34500Y-72300D01*
X25500Y-65450D02*
X25500Y-64550D01*
X25500Y-64550D02*
X26000Y-64550D01*
X26000Y-64550D02*
X26000Y-65450D01*
X26000Y-65450D02*
X25500Y-65450D01*
X37300Y-76750D02*
X38200Y-76750D01*
X38200Y-76750D02*
X38200Y-77250D01*
X38200Y-77250D02*
X37300Y-77250D01*
X37300Y-77250D02*
X37300Y-76750D01*
X33000Y-72300D02*
X33000Y-73200D01*
X33000Y-73200D02*
X32500Y-73200D01*
X32500Y-73200D02*
X32500Y-72300D01*
X32500Y-72300D02*
X33000Y-72300D01*
X30000Y-72300D02*
X30000Y-73200D01*
X30000Y-73200D02*
X29500Y-73200D01*
X29500Y-73200D02*
X29500Y-72300D01*
X29500Y-72300D02*
X30000Y-72300D01*
X31500Y-72300D02*
X31500Y-73200D01*
X31500Y-73200D02*
X31000Y-73200D01*
X31000Y-73200D02*
X31000Y-72300D01*
X31000Y-72300D02*
X31500Y-72300D01*
X26800Y-71150D02*
X26800Y-72400D01*
X26800Y-72400D02*
X27500Y-72400D01*
X27500Y-72400D02*
X27500Y-71150D01*
X25000Y-71150D02*
X25000Y-72400D01*
X25000Y-72400D02*
X25700Y-72400D01*
X25700Y-72400D02*
X25700Y-71150D01*
X27600Y-68750D02*
X27600Y-71150D01*
X27600Y-71150D02*
X24900Y-71150D01*
X24900Y-71150D02*
X24900Y-68050D01*
X24900Y-68000D02*
X27600Y-68000D01*
X27600Y-68050D02*
X27600Y-68750D01*
X24900Y-74750D02*
X26600Y-74750D01*
X24900Y-77200D02*
X26600Y-77200D01*
X26600Y-77200D02*
X26600Y-74300D01*
X26600Y-74300D02*
X24900Y-74300D01*
X24900Y-74300D02*
X24900Y-77200D01*
X28500Y-72050D02*
X28500Y-72950D01*
X28500Y-72950D02*
X28000Y-72950D01*
X28000Y-72950D02*
X28000Y-72050D01*
X28000Y-72050D02*
X28500Y-72050D01*
X39646Y-77435D02*
X39646Y-78065D01*
X39606Y-78065D02*
X39606Y-77435D01*
X40551Y-78065D02*
X39449Y-78065D01*
X39449Y-78065D02*
X39449Y-77435D01*
X39449Y-77435D02*
X40551Y-77435D01*
X40551Y-77435D02*
X40551Y-78065D01*
X31354Y-78065D02*
X31354Y-77435D01*
X31394Y-77435D02*
X31394Y-78065D01*
X30449Y-77435D02*
X31551Y-77435D01*
X31551Y-77435D02*
X31551Y-78065D01*
X31551Y-78065D02*
X30449Y-78065D01*
X30449Y-78065D02*
X30449Y-77435D01*
X31354Y-76565D02*
X31354Y-75935D01*
X31394Y-75935D02*
X31394Y-76565D01*
X30449Y-75935D02*
X31551Y-75935D01*
X31551Y-75935D02*
X31551Y-76565D01*
X31551Y-76565D02*
X30449Y-76565D01*
X30449Y-76565D02*
X30449Y-75935D01*
X39646Y-76685D02*
X39646Y-77315D01*
X39606Y-77315D02*
X39606Y-76685D01*
X40551Y-77315D02*
X39449Y-77315D01*
X39449Y-77315D02*
X39449Y-76685D01*
X39449Y-76685D02*
X40551Y-76685D01*
X40551Y-76685D02*
X40551Y-77315D01*
X31354Y-77315D02*
X31354Y-76685D01*
X31394Y-76685D02*
X31394Y-77315D01*
X30449Y-76685D02*
X31551Y-76685D01*
X31551Y-76685D02*
X31551Y-77315D01*
X31551Y-77315D02*
X30449Y-77315D01*
X30449Y-77315D02*
X30449Y-76685D01*
X35750Y-78700D02*
X35750Y-77800D01*
X35750Y-77800D02*
X36250Y-77800D01*
X36250Y-77800D02*
X36250Y-78700D01*
X36250Y-78700D02*
X35750Y-78700D01*
X34250Y-78700D02*
X34250Y-77800D01*
X34250Y-77800D02*
X34750Y-77800D01*
X34750Y-77800D02*
X34750Y-78700D01*
X34750Y-78700D02*
X34250Y-78700D01*
X33500Y-78700D02*
X33500Y-77800D01*
X33500Y-77800D02*
X34000Y-77800D01*
X34000Y-77800D02*
X34000Y-78700D01*
X34000Y-78700D02*
X33500Y-78700D01*
X35000Y-78700D02*
X35000Y-77800D01*
X35000Y-77800D02*
X35500Y-77800D01*
X35500Y-77800D02*
X35500Y-78700D01*
X35500Y-78700D02*
X35000Y-78700D01*
X33250Y-77800D02*
X33250Y-78700D01*
X33250Y-78700D02*
X32750Y-78700D01*
X32750Y-78700D02*
X32750Y-77800D01*
X32750Y-77800D02*
X33250Y-77800D01*
G54D15*
X43394Y-60081D02*
X43394Y-61419D01*
X42606Y-60081D02*
X42606Y-61419D01*
X41740Y-61419D02*
X41740Y-60081D01*
X41740Y-60081D02*
X44260Y-60081D01*
X44260Y-60081D02*
X44260Y-61419D01*
X44260Y-61419D02*
X41740Y-61419D01*
G54D13*
X52250Y-57750D02*
G75*
G03X52250Y-57750I-1000J0D01*
G74*
G01*
X49750Y-59250D02*
X49750Y-56250D01*
X49750Y-56250D02*
X52750Y-56250D01*
X52750Y-56250D02*
X52750Y-59250D01*
X49750Y-59250D02*
X52750Y-59250D01*
X38975Y-60125D02*
X38715Y-60125D01*
X38975Y-59375D02*
X38715Y-59375D01*
X39525Y-59750D02*
X39785Y-59750D01*
X39525Y-59160D02*
X39525Y-60340D01*
X39525Y-60340D02*
X38975Y-60340D01*
X38975Y-60340D02*
X38975Y-59160D01*
X38975Y-59160D02*
X39525Y-59160D01*
X46854Y-51065D02*
X46854Y-50435D01*
X46894Y-50435D02*
X46894Y-51065D01*
X45949Y-50435D02*
X47051Y-50435D01*
X47051Y-50435D02*
X47051Y-51065D01*
X47051Y-51065D02*
X45949Y-51065D01*
X45949Y-51065D02*
X45949Y-50435D01*
X43050Y-55300D02*
X43050Y-55250D01*
X43050Y-55250D02*
X40950Y-55250D01*
X40950Y-56750D02*
X43050Y-56750D01*
X43050Y-56750D02*
X43050Y-55300D01*
X43050Y-56200D02*
X42850Y-56200D01*
X42850Y-56200D02*
X42850Y-55800D01*
X42850Y-55800D02*
X43050Y-55800D01*
X40950Y-56750D02*
X40950Y-55250D01*
X31700Y-60250D02*
X30800Y-60250D01*
X30800Y-60250D02*
X30800Y-60900D01*
X31700Y-61600D02*
X31700Y-62250D01*
X31700Y-62250D02*
X30800Y-62250D01*
X30800Y-62250D02*
X30800Y-61600D01*
X31700Y-60900D02*
X31700Y-60250D01*
X51550Y-54000D02*
X52450Y-54000D01*
X52450Y-54000D02*
X52450Y-54500D01*
X52450Y-54500D02*
X51550Y-54500D01*
X51550Y-54500D02*
X51550Y-54000D01*
X45750Y-58550D02*
X45750Y-59450D01*
X45750Y-59450D02*
X45250Y-59450D01*
X45250Y-59450D02*
X45250Y-58550D01*
X45250Y-58550D02*
X45750Y-58550D01*
X43000Y-58050D02*
X43000Y-58950D01*
X43000Y-58950D02*
X42500Y-58950D01*
X42500Y-58950D02*
X42500Y-58050D01*
X42500Y-58050D02*
X43000Y-58050D01*
X47500Y-58550D02*
X47500Y-59450D01*
X47500Y-59450D02*
X47000Y-59450D01*
X47000Y-59450D02*
X47000Y-58550D01*
X47000Y-58550D02*
X47500Y-58550D01*
X50300Y-54000D02*
X51200Y-54000D01*
X51200Y-54000D02*
X51200Y-54500D01*
X51200Y-54500D02*
X50300Y-54500D01*
X50300Y-54500D02*
X50300Y-54000D01*
X43000Y-53550D02*
X43000Y-54450D01*
X43000Y-54450D02*
X42500Y-54450D01*
X42500Y-54450D02*
X42500Y-53550D01*
X42500Y-53550D02*
X43000Y-53550D01*
X39500Y-58050D02*
X39500Y-58950D01*
X39500Y-58950D02*
X39000Y-58950D01*
X39000Y-58950D02*
X39000Y-58050D01*
X39000Y-58050D02*
X39500Y-58050D01*
X44000Y-55550D02*
X44000Y-56450D01*
X44000Y-56450D02*
X43500Y-56450D01*
X43500Y-56450D02*
X43500Y-55550D01*
X43500Y-55550D02*
X44000Y-55550D01*
X44000Y-56800D02*
X44000Y-57700D01*
X44000Y-57700D02*
X43500Y-57700D01*
X43500Y-57700D02*
X43500Y-56800D01*
X43500Y-56800D02*
X44000Y-56800D01*
X44750Y-54450D02*
X44750Y-53550D01*
X44750Y-53550D02*
X45250Y-53550D01*
X45250Y-53550D02*
X45250Y-54450D01*
X45250Y-54450D02*
X44750Y-54450D01*
X37550Y-62000D02*
X38450Y-62000D01*
X38450Y-62000D02*
X38450Y-62500D01*
X38450Y-62500D02*
X37550Y-62500D01*
X37550Y-62500D02*
X37550Y-62000D01*
X38750Y-58050D02*
X38750Y-58950D01*
X38750Y-58950D02*
X38250Y-58950D01*
X38250Y-58950D02*
X38250Y-58050D01*
X38250Y-58050D02*
X38750Y-58050D01*
X48200Y-48750D02*
X47300Y-48750D01*
X47300Y-48750D02*
X47300Y-48250D01*
X47300Y-48250D02*
X48200Y-48250D01*
X48200Y-48250D02*
X48200Y-48750D01*
X41500Y-53550D02*
X41500Y-54450D01*
X41500Y-54450D02*
X41000Y-54450D01*
X41000Y-54450D02*
X41000Y-53550D01*
X41000Y-53550D02*
X41500Y-53550D01*
X51550Y-53250D02*
X52450Y-53250D01*
X52450Y-53250D02*
X52450Y-53750D01*
X52450Y-53750D02*
X51550Y-53750D01*
X51550Y-53750D02*
X51550Y-53250D01*
X50300Y-53250D02*
X51200Y-53250D01*
X51200Y-53250D02*
X51200Y-53750D01*
X51200Y-53750D02*
X50300Y-53750D01*
X50300Y-53750D02*
X50300Y-53250D01*
X51550Y-52500D02*
X52450Y-52500D01*
X52450Y-52500D02*
X52450Y-53000D01*
X52450Y-53000D02*
X51550Y-53000D01*
X51550Y-53000D02*
X51550Y-52500D01*
X50300Y-52500D02*
X51200Y-52500D01*
X51200Y-52500D02*
X51200Y-53000D01*
X51200Y-53000D02*
X50300Y-53000D01*
X50300Y-53000D02*
X50300Y-52500D01*
X48200Y-53000D02*
X47300Y-53000D01*
X47300Y-53000D02*
X47300Y-52500D01*
X47300Y-52500D02*
X48200Y-52500D01*
X48200Y-52500D02*
X48200Y-53000D01*
X23537Y-52874D02*
X23537Y-59125D01*
X23537Y-59125D02*
X31962Y-59125D01*
X31962Y-59125D02*
X31962Y-52874D01*
X31962Y-52874D02*
X23537Y-52874D01*
X49350Y-51300D02*
X48100Y-51300D01*
X48100Y-51300D02*
X48100Y-52000D01*
X48100Y-52000D02*
X49350Y-52000D01*
X49350Y-49500D02*
X48100Y-49500D01*
X48100Y-49500D02*
X48100Y-50200D01*
X48100Y-50200D02*
X49350Y-50200D01*
X51750Y-52100D02*
X49350Y-52100D01*
X49350Y-52100D02*
X49350Y-49400D01*
X49350Y-49400D02*
X52450Y-49400D01*
X52500Y-49400D02*
X52500Y-52100D01*
X52450Y-52100D02*
X51750Y-52100D01*
X44000Y-50900D02*
X44000Y-52600D01*
X41550Y-50900D02*
X41550Y-52600D01*
X41550Y-52600D02*
X44450Y-52600D01*
X44450Y-52600D02*
X44450Y-50900D01*
X44450Y-50900D02*
X41550Y-50900D01*
X38000Y-52600D02*
X38000Y-50900D01*
X40450Y-52600D02*
X40450Y-50900D01*
X40450Y-50900D02*
X37550Y-50900D01*
X37550Y-50900D02*
X37550Y-52600D01*
X37550Y-52600D02*
X40450Y-52600D01*
G54D16*
X39000Y-47250D02*
X43000Y-47250D01*
X39000Y-46750D02*
X39000Y-49750D01*
X39000Y-49750D02*
X43000Y-49750D01*
X43000Y-49750D02*
X43000Y-46750D01*
X43000Y-46750D02*
X39000Y-46750D01*
G54D14*
X39400Y-56700D02*
X35600Y-56700D01*
X35600Y-56700D02*
X35600Y-55200D01*
X35600Y-55200D02*
X39400Y-55200D01*
X39400Y-55200D02*
X39400Y-56700D01*
X39400Y-56200D02*
X39100Y-56200D01*
X39100Y-56200D02*
X39100Y-55800D01*
X39100Y-55800D02*
X39400Y-55800D01*
G54D16*
X33500Y-60750D02*
X33500Y-60750D01*
X33500Y-60750D02*
X40500Y-60750D01*
X40500Y-60750D02*
X40500Y-61750D01*
X40500Y-61750D02*
X33500Y-61750D01*
X33500Y-61750D02*
X33500Y-60750D01*
X34500Y-61750D02*
X34500Y-61750D01*
X34500Y-61750D02*
X34500Y-60750D01*
G54D17*
X25900Y-48250D02*
G75*
G03X25900Y-48250I-900J0D01*
G74*
G01*
X55400Y-48250D02*
G75*
G03X55400Y-48250I-900J0D01*
G74*
G01*
X55400Y-62250D02*
G75*
G03X55400Y-62250I-900J0D01*
G74*
G01*
X25900Y-62250D02*
G75*
G03X25900Y-62250I-900J0D01*
G74*
G01*
G54D13*
X38896Y-53185D02*
X38896Y-53815D01*
X38856Y-53815D02*
X38856Y-53185D01*
X39801Y-53815D02*
X38699Y-53815D01*
X38699Y-53815D02*
X38699Y-53185D01*
X38699Y-53185D02*
X39801Y-53185D01*
X39801Y-53185D02*
X39801Y-53815D01*
X35604Y-53315D02*
X35604Y-52685D01*
X35644Y-52685D02*
X35644Y-53315D01*
X34699Y-52685D02*
X35801Y-52685D01*
X35801Y-52685D02*
X35801Y-53315D01*
X35801Y-53315D02*
X34699Y-53315D01*
X34699Y-53315D02*
X34699Y-52685D01*
X33815Y-58646D02*
X33185Y-58646D01*
X33185Y-58606D02*
X33815Y-58606D01*
X33185Y-59551D02*
X33185Y-58449D01*
X33185Y-58449D02*
X33815Y-58449D01*
X33815Y-58449D02*
X33815Y-59551D01*
X33815Y-59551D02*
X33185Y-59551D01*
X34815Y-58646D02*
X34185Y-58646D01*
X34185Y-58606D02*
X34815Y-58606D01*
X34185Y-59551D02*
X34185Y-58449D01*
X34185Y-58449D02*
X34815Y-58449D01*
X34815Y-58449D02*
X34815Y-59551D01*
X34815Y-59551D02*
X34185Y-59551D01*
X34200Y-54500D02*
X33300Y-54500D01*
X33300Y-54500D02*
X33300Y-54000D01*
X33300Y-54000D02*
X34200Y-54000D01*
X34200Y-54000D02*
X34200Y-54500D01*
X34200Y-55500D02*
X33300Y-55500D01*
X33300Y-55500D02*
X33300Y-55000D01*
X33300Y-55000D02*
X34200Y-55000D01*
X34200Y-55000D02*
X34200Y-55500D01*
X34200Y-56500D02*
X33300Y-56500D01*
X33300Y-56500D02*
X33300Y-56000D01*
X33300Y-56000D02*
X34200Y-56000D01*
X34200Y-56000D02*
X34200Y-56500D01*
X34200Y-57500D02*
X33300Y-57500D01*
X33300Y-57500D02*
X33300Y-57000D01*
X33300Y-57000D02*
X34200Y-57000D01*
X34200Y-57000D02*
X34200Y-57500D01*
G54D14*
X44600Y-55300D02*
X48400Y-55300D01*
X48400Y-55300D02*
X48400Y-56800D01*
X48400Y-56800D02*
X44600Y-56800D01*
X44600Y-56800D02*
X44600Y-55300D01*
X44600Y-55800D02*
X44900Y-55800D01*
X44900Y-55800D02*
X44900Y-56200D01*
X44900Y-56200D02*
X44600Y-56200D01*
G54D17*
X52707Y-62549D02*
X52707Y-59951D01*
X52707Y-59951D02*
X49793Y-59951D01*
X49793Y-59951D02*
X49793Y-62549D01*
X49793Y-62549D02*
X52707Y-62549D01*
G54D18*
X36000Y-49000D02*
X27000Y-49000D01*
X27000Y-49000D02*
X27000Y-51500D01*
X27000Y-51500D02*
X36000Y-51500D01*
X36000Y-51500D02*
X36000Y-49000D01*
G54D10*
X27000Y-49000D02*
X36000Y-49000D01*
X36000Y-49000D02*
X36000Y-51500D01*
G54D19*
X52634Y-77580D02*
X52574Y-77485D01*
X52531Y-77580D02*
X52531Y-77380D01*
X52600Y-77380D01*
X52617Y-77390D01*
X52625Y-77400D01*
X52634Y-77419D01*
X52634Y-77447D01*
X52625Y-77466D01*
X52617Y-77476D01*
X52600Y-77485D01*
X52531Y-77485D01*
X52702Y-77400D02*
X52711Y-77390D01*
X52728Y-77380D01*
X52771Y-77380D01*
X52788Y-77390D01*
X52797Y-77400D01*
X52805Y-77419D01*
X52805Y-77438D01*
X52797Y-77466D01*
X52694Y-77580D01*
X52805Y-77580D01*
X52865Y-77380D02*
X52977Y-77380D01*
X52917Y-77457D01*
X52942Y-77457D01*
X52960Y-77466D01*
X52968Y-77476D01*
X52977Y-77495D01*
X52977Y-77542D01*
X52968Y-77561D01*
X52960Y-77571D01*
X52942Y-77580D01*
X52891Y-77580D01*
X52874Y-77571D01*
X52865Y-77561D01*
X54884Y-77580D02*
X54824Y-77485D01*
X54781Y-77580D02*
X54781Y-77380D01*
X54850Y-77380D01*
X54867Y-77390D01*
X54875Y-77400D01*
X54884Y-77419D01*
X54884Y-77447D01*
X54875Y-77466D01*
X54867Y-77476D01*
X54850Y-77485D01*
X54781Y-77485D01*
X54952Y-77400D02*
X54961Y-77390D01*
X54978Y-77380D01*
X55021Y-77380D01*
X55038Y-77390D01*
X55047Y-77400D01*
X55055Y-77419D01*
X55055Y-77438D01*
X55047Y-77466D01*
X54944Y-77580D01*
X55055Y-77580D01*
X55124Y-77400D02*
X55132Y-77390D01*
X55150Y-77380D01*
X55192Y-77380D01*
X55210Y-77390D01*
X55218Y-77400D01*
X55227Y-77419D01*
X55227Y-77438D01*
X55218Y-77466D01*
X55115Y-77580D01*
X55227Y-77580D01*
X53384Y-77580D02*
X53324Y-77485D01*
X53281Y-77580D02*
X53281Y-77380D01*
X53350Y-77380D01*
X53367Y-77390D01*
X53375Y-77400D01*
X53384Y-77419D01*
X53384Y-77447D01*
X53375Y-77466D01*
X53367Y-77476D01*
X53350Y-77485D01*
X53281Y-77485D01*
X53452Y-77400D02*
X53461Y-77390D01*
X53478Y-77380D01*
X53521Y-77380D01*
X53538Y-77390D01*
X53547Y-77400D01*
X53555Y-77419D01*
X53555Y-77438D01*
X53547Y-77466D01*
X53444Y-77580D01*
X53555Y-77580D01*
X53727Y-77580D02*
X53624Y-77580D01*
X53675Y-77580D02*
X53675Y-77380D01*
X53658Y-77409D01*
X53641Y-77428D01*
X53624Y-77438D01*
X54134Y-77580D02*
X54074Y-77485D01*
X54031Y-77580D02*
X54031Y-77380D01*
X54100Y-77380D01*
X54117Y-77390D01*
X54125Y-77400D01*
X54134Y-77419D01*
X54134Y-77447D01*
X54125Y-77466D01*
X54117Y-77476D01*
X54100Y-77485D01*
X54031Y-77485D01*
X54202Y-77400D02*
X54211Y-77390D01*
X54228Y-77380D01*
X54271Y-77380D01*
X54288Y-77390D01*
X54297Y-77400D01*
X54305Y-77419D01*
X54305Y-77438D01*
X54297Y-77466D01*
X54194Y-77580D01*
X54305Y-77580D01*
X54417Y-77380D02*
X54434Y-77380D01*
X54451Y-77390D01*
X54460Y-77400D01*
X54468Y-77419D01*
X54477Y-77457D01*
X54477Y-77504D01*
X54468Y-77542D01*
X54460Y-77561D01*
X54451Y-77571D01*
X54434Y-77580D01*
X54417Y-77580D01*
X54400Y-77571D01*
X54391Y-77561D01*
X54382Y-77542D01*
X54374Y-77504D01*
X54374Y-77457D01*
X54382Y-77419D01*
X54391Y-77400D01*
X54400Y-77390D01*
X54417Y-77380D01*
X55634Y-77580D02*
X55574Y-77485D01*
X55531Y-77580D02*
X55531Y-77380D01*
X55600Y-77380D01*
X55617Y-77390D01*
X55625Y-77400D01*
X55634Y-77419D01*
X55634Y-77447D01*
X55625Y-77466D01*
X55617Y-77476D01*
X55600Y-77485D01*
X55531Y-77485D01*
X55805Y-77580D02*
X55702Y-77580D01*
X55754Y-77580D02*
X55754Y-77380D01*
X55737Y-77409D01*
X55720Y-77428D01*
X55702Y-77438D01*
X55891Y-77580D02*
X55925Y-77580D01*
X55942Y-77571D01*
X55951Y-77561D01*
X55968Y-77533D01*
X55977Y-77495D01*
X55977Y-77419D01*
X55968Y-77400D01*
X55960Y-77390D01*
X55942Y-77380D01*
X55908Y-77380D01*
X55891Y-77390D01*
X55882Y-77400D01*
X55874Y-77419D01*
X55874Y-77466D01*
X55882Y-77485D01*
X55891Y-77495D01*
X55908Y-77504D01*
X55942Y-77504D01*
X55960Y-77495D01*
X55968Y-77485D01*
X55977Y-77466D01*
G54D20*
X49384Y-77063D02*
X49384Y-76906D01*
X49421Y-76906D01*
X49443Y-76914D01*
X49458Y-76928D01*
X49466Y-76943D01*
X49473Y-76973D01*
X49473Y-76996D01*
X49466Y-77026D01*
X49458Y-77041D01*
X49443Y-77056D01*
X49421Y-77063D01*
X49384Y-77063D01*
X49563Y-76973D02*
X49548Y-76966D01*
X49541Y-76958D01*
X49533Y-76943D01*
X49533Y-76936D01*
X49541Y-76921D01*
X49548Y-76914D01*
X49563Y-76906D01*
X49593Y-76906D01*
X49608Y-76914D01*
X49615Y-76921D01*
X49623Y-76936D01*
X49623Y-76943D01*
X49615Y-76958D01*
X49608Y-76966D01*
X49593Y-76973D01*
X49563Y-76973D01*
X49548Y-76981D01*
X49541Y-76988D01*
X49533Y-77003D01*
X49533Y-77033D01*
X49541Y-77048D01*
X49548Y-77056D01*
X49563Y-77063D01*
X49593Y-77063D01*
X49608Y-77056D01*
X49615Y-77048D01*
X49623Y-77033D01*
X49623Y-77003D01*
X49615Y-76988D01*
X49608Y-76981D01*
X49593Y-76973D01*
X60884Y-77063D02*
X60884Y-76906D01*
X60921Y-76906D01*
X60943Y-76914D01*
X60958Y-76928D01*
X60966Y-76943D01*
X60973Y-76973D01*
X60973Y-76996D01*
X60966Y-77026D01*
X60958Y-77041D01*
X60943Y-77056D01*
X60921Y-77063D01*
X60884Y-77063D01*
X61026Y-76906D02*
X61130Y-76906D01*
X61063Y-77063D01*
X49384Y-76313D02*
X49384Y-76156D01*
X49421Y-76156D01*
X49443Y-76164D01*
X49458Y-76178D01*
X49466Y-76193D01*
X49473Y-76223D01*
X49473Y-76246D01*
X49466Y-76276D01*
X49458Y-76291D01*
X49443Y-76306D01*
X49421Y-76313D01*
X49384Y-76313D01*
X49608Y-76156D02*
X49578Y-76156D01*
X49563Y-76164D01*
X49556Y-76171D01*
X49541Y-76193D01*
X49533Y-76223D01*
X49533Y-76283D01*
X49541Y-76298D01*
X49548Y-76306D01*
X49563Y-76313D01*
X49593Y-76313D01*
X49608Y-76306D01*
X49615Y-76298D01*
X49623Y-76283D01*
X49623Y-76246D01*
X49615Y-76231D01*
X49608Y-76223D01*
X49593Y-76216D01*
X49563Y-76216D01*
X49548Y-76223D01*
X49541Y-76231D01*
X49533Y-76246D01*
X49384Y-77813D02*
X49384Y-77656D01*
X49421Y-77656D01*
X49443Y-77664D01*
X49458Y-77678D01*
X49466Y-77693D01*
X49473Y-77723D01*
X49473Y-77746D01*
X49466Y-77776D01*
X49458Y-77791D01*
X49443Y-77806D01*
X49421Y-77813D01*
X49384Y-77813D01*
X49615Y-77656D02*
X49541Y-77656D01*
X49533Y-77731D01*
X49541Y-77723D01*
X49556Y-77716D01*
X49593Y-77716D01*
X49608Y-77723D01*
X49615Y-77731D01*
X49623Y-77746D01*
X49623Y-77783D01*
X49615Y-77798D01*
X49608Y-77806D01*
X49593Y-77813D01*
X49556Y-77813D01*
X49541Y-77806D01*
X49533Y-77798D01*
X60884Y-77813D02*
X60884Y-77656D01*
X60921Y-77656D01*
X60943Y-77664D01*
X60958Y-77678D01*
X60966Y-77693D01*
X60973Y-77723D01*
X60973Y-77746D01*
X60966Y-77776D01*
X60958Y-77791D01*
X60943Y-77806D01*
X60921Y-77813D01*
X60884Y-77813D01*
X61108Y-77708D02*
X61108Y-77813D01*
X61071Y-77649D02*
X61033Y-77761D01*
X61130Y-77761D01*
G54D19*
X48561Y-72530D02*
X48571Y-72538D01*
X48580Y-72564D01*
X48580Y-72581D01*
X48571Y-72607D01*
X48552Y-72624D01*
X48533Y-72632D01*
X48495Y-72641D01*
X48466Y-72641D01*
X48428Y-72632D01*
X48409Y-72624D01*
X48390Y-72607D01*
X48380Y-72581D01*
X48380Y-72564D01*
X48390Y-72538D01*
X48400Y-72530D01*
X48380Y-72367D02*
X48380Y-72452D01*
X48476Y-72461D01*
X48466Y-72452D01*
X48457Y-72435D01*
X48457Y-72392D01*
X48466Y-72375D01*
X48476Y-72367D01*
X48495Y-72358D01*
X48542Y-72358D01*
X48561Y-72367D01*
X48571Y-72375D01*
X48580Y-72392D01*
X48580Y-72435D01*
X48571Y-72452D01*
X48561Y-72461D01*
G54D21*
X44485Y-75782D02*
X44495Y-75792D01*
X44504Y-75820D01*
X44504Y-75839D01*
X44495Y-75867D01*
X44476Y-75886D01*
X44457Y-75895D01*
X44420Y-75904D01*
X44392Y-75904D01*
X44354Y-75895D01*
X44335Y-75886D01*
X44317Y-75867D01*
X44307Y-75839D01*
X44307Y-75820D01*
X44317Y-75792D01*
X44326Y-75782D01*
X44326Y-75707D02*
X44317Y-75698D01*
X44307Y-75679D01*
X44307Y-75632D01*
X44317Y-75613D01*
X44326Y-75604D01*
X44345Y-75595D01*
X44364Y-75595D01*
X44392Y-75604D01*
X44504Y-75717D01*
X44504Y-75595D01*
G54D14*
X43702Y-69554D02*
X44107Y-69554D01*
X44154Y-69535D01*
X44178Y-69516D01*
X44202Y-69478D01*
X44202Y-69402D01*
X44178Y-69364D01*
X44154Y-69345D01*
X44107Y-69326D01*
X43702Y-69326D01*
X43750Y-69154D02*
X43726Y-69135D01*
X43702Y-69097D01*
X43702Y-69002D01*
X43726Y-68964D01*
X43750Y-68945D01*
X43797Y-68926D01*
X43845Y-68926D01*
X43916Y-68945D01*
X44202Y-69173D01*
X44202Y-68926D01*
G54D19*
X51580Y-73280D02*
X51485Y-73340D01*
X51580Y-73382D02*
X51380Y-73382D01*
X51380Y-73314D01*
X51390Y-73297D01*
X51400Y-73288D01*
X51419Y-73280D01*
X51447Y-73280D01*
X51466Y-73288D01*
X51476Y-73297D01*
X51485Y-73314D01*
X51485Y-73382D01*
X51580Y-73194D02*
X51580Y-73160D01*
X51571Y-73142D01*
X51561Y-73134D01*
X51533Y-73117D01*
X51495Y-73108D01*
X51419Y-73108D01*
X51400Y-73117D01*
X51390Y-73125D01*
X51380Y-73142D01*
X51380Y-73177D01*
X51390Y-73194D01*
X51400Y-73202D01*
X51419Y-73211D01*
X51466Y-73211D01*
X51485Y-73202D01*
X51495Y-73194D01*
X51504Y-73177D01*
X51504Y-73142D01*
X51495Y-73125D01*
X51485Y-73117D01*
X51466Y-73108D01*
X50080Y-73365D02*
X49985Y-73425D01*
X50080Y-73468D02*
X49880Y-73468D01*
X49880Y-73400D01*
X49890Y-73382D01*
X49900Y-73374D01*
X49919Y-73365D01*
X49947Y-73365D01*
X49966Y-73374D01*
X49976Y-73382D01*
X49985Y-73400D01*
X49985Y-73468D01*
X50080Y-73194D02*
X50080Y-73297D01*
X50080Y-73245D02*
X49880Y-73245D01*
X49909Y-73262D01*
X49928Y-73280D01*
X49938Y-73297D01*
X49880Y-73082D02*
X49880Y-73065D01*
X49890Y-73048D01*
X49900Y-73040D01*
X49919Y-73031D01*
X49957Y-73022D01*
X50004Y-73022D01*
X50042Y-73031D01*
X50061Y-73040D01*
X50071Y-73048D01*
X50080Y-73065D01*
X50080Y-73082D01*
X50071Y-73100D01*
X50061Y-73108D01*
X50042Y-73117D01*
X50004Y-73125D01*
X49957Y-73125D01*
X49919Y-73117D01*
X49900Y-73108D01*
X49890Y-73100D01*
X49880Y-73082D01*
X53080Y-73280D02*
X52985Y-73340D01*
X53080Y-73382D02*
X52880Y-73382D01*
X52880Y-73314D01*
X52890Y-73297D01*
X52900Y-73288D01*
X52919Y-73280D01*
X52947Y-73280D01*
X52966Y-73288D01*
X52976Y-73297D01*
X52985Y-73314D01*
X52985Y-73382D01*
X52966Y-73177D02*
X52957Y-73194D01*
X52947Y-73202D01*
X52928Y-73211D01*
X52919Y-73211D01*
X52900Y-73202D01*
X52890Y-73194D01*
X52880Y-73177D01*
X52880Y-73142D01*
X52890Y-73125D01*
X52900Y-73117D01*
X52919Y-73108D01*
X52928Y-73108D01*
X52947Y-73117D01*
X52957Y-73125D01*
X52966Y-73142D01*
X52966Y-73177D01*
X52976Y-73194D01*
X52985Y-73202D01*
X53004Y-73211D01*
X53042Y-73211D01*
X53061Y-73202D01*
X53071Y-73194D01*
X53080Y-73177D01*
X53080Y-73142D01*
X53071Y-73125D01*
X53061Y-73117D01*
X53042Y-73108D01*
X53004Y-73108D01*
X52985Y-73117D01*
X52976Y-73125D01*
X52966Y-73142D01*
X57470Y-76561D02*
X57461Y-76571D01*
X57435Y-76580D01*
X57418Y-76580D01*
X57392Y-76571D01*
X57375Y-76552D01*
X57367Y-76533D01*
X57358Y-76495D01*
X57358Y-76466D01*
X57367Y-76428D01*
X57375Y-76409D01*
X57392Y-76390D01*
X57418Y-76380D01*
X57435Y-76380D01*
X57461Y-76390D01*
X57470Y-76400D01*
X57641Y-76580D02*
X57538Y-76580D01*
X57590Y-76580D02*
X57590Y-76380D01*
X57572Y-76409D01*
X57555Y-76428D01*
X57538Y-76438D01*
X45580Y-65882D02*
X45380Y-65882D01*
X45380Y-65840D01*
X45390Y-65814D01*
X45409Y-65797D01*
X45428Y-65788D01*
X45466Y-65780D01*
X45495Y-65780D01*
X45533Y-65788D01*
X45552Y-65797D01*
X45571Y-65814D01*
X45580Y-65840D01*
X45580Y-65882D01*
X45580Y-65608D02*
X45580Y-65711D01*
X45580Y-65660D02*
X45380Y-65660D01*
X45409Y-65677D01*
X45428Y-65694D01*
X45438Y-65711D01*
X54580Y-73280D02*
X54485Y-73340D01*
X54580Y-73382D02*
X54380Y-73382D01*
X54380Y-73314D01*
X54390Y-73297D01*
X54400Y-73288D01*
X54419Y-73280D01*
X54447Y-73280D01*
X54466Y-73288D01*
X54476Y-73297D01*
X54485Y-73314D01*
X54485Y-73382D01*
X54380Y-73220D02*
X54380Y-73100D01*
X54580Y-73177D01*
X45080Y-66530D02*
X44985Y-66590D01*
X45080Y-66632D02*
X44880Y-66632D01*
X44880Y-66564D01*
X44890Y-66547D01*
X44900Y-66538D01*
X44919Y-66530D01*
X44947Y-66530D01*
X44966Y-66538D01*
X44976Y-66547D01*
X44985Y-66564D01*
X44985Y-66632D01*
X45080Y-66358D02*
X45080Y-66461D01*
X45080Y-66410D02*
X44880Y-66410D01*
X44909Y-66427D01*
X44928Y-66444D01*
X44938Y-66461D01*
X46330Y-65882D02*
X46130Y-65882D01*
X46130Y-65840D01*
X46140Y-65814D01*
X46159Y-65797D01*
X46178Y-65788D01*
X46216Y-65780D01*
X46245Y-65780D01*
X46283Y-65788D01*
X46302Y-65797D01*
X46321Y-65814D01*
X46330Y-65840D01*
X46330Y-65882D01*
X46130Y-65720D02*
X46130Y-65608D01*
X46207Y-65668D01*
X46207Y-65642D01*
X46216Y-65625D01*
X46226Y-65617D01*
X46245Y-65608D01*
X46292Y-65608D01*
X46311Y-65617D01*
X46321Y-65625D01*
X46330Y-65642D01*
X46330Y-65694D01*
X46321Y-65711D01*
X46311Y-65720D01*
X56080Y-73280D02*
X55985Y-73340D01*
X56080Y-73382D02*
X55880Y-73382D01*
X55880Y-73314D01*
X55890Y-73297D01*
X55900Y-73288D01*
X55919Y-73280D01*
X55947Y-73280D01*
X55966Y-73288D01*
X55976Y-73297D01*
X55985Y-73314D01*
X55985Y-73382D01*
X55880Y-73125D02*
X55880Y-73160D01*
X55890Y-73177D01*
X55900Y-73185D01*
X55928Y-73202D01*
X55966Y-73211D01*
X56042Y-73211D01*
X56061Y-73202D01*
X56071Y-73194D01*
X56080Y-73177D01*
X56080Y-73142D01*
X56071Y-73125D01*
X56061Y-73117D01*
X56042Y-73108D01*
X55995Y-73108D01*
X55976Y-73117D01*
X55966Y-73125D01*
X55957Y-73142D01*
X55957Y-73177D01*
X55966Y-73194D01*
X55976Y-73202D01*
X55995Y-73211D01*
X57580Y-73280D02*
X57485Y-73340D01*
X57580Y-73382D02*
X57380Y-73382D01*
X57380Y-73314D01*
X57390Y-73297D01*
X57400Y-73288D01*
X57419Y-73280D01*
X57447Y-73280D01*
X57466Y-73288D01*
X57476Y-73297D01*
X57485Y-73314D01*
X57485Y-73382D01*
X57380Y-73117D02*
X57380Y-73202D01*
X57476Y-73211D01*
X57466Y-73202D01*
X57457Y-73185D01*
X57457Y-73142D01*
X57466Y-73125D01*
X57476Y-73117D01*
X57495Y-73108D01*
X57542Y-73108D01*
X57561Y-73117D01*
X57571Y-73125D01*
X57580Y-73142D01*
X57580Y-73185D01*
X57571Y-73202D01*
X57561Y-73211D01*
X59080Y-73280D02*
X58985Y-73340D01*
X59080Y-73382D02*
X58880Y-73382D01*
X58880Y-73314D01*
X58890Y-73297D01*
X58900Y-73288D01*
X58919Y-73280D01*
X58947Y-73280D01*
X58966Y-73288D01*
X58976Y-73297D01*
X58985Y-73314D01*
X58985Y-73382D01*
X58947Y-73125D02*
X59080Y-73125D01*
X58871Y-73168D02*
X59014Y-73211D01*
X59014Y-73100D01*
X44561Y-72530D02*
X44571Y-72538D01*
X44580Y-72564D01*
X44580Y-72581D01*
X44571Y-72607D01*
X44552Y-72624D01*
X44533Y-72632D01*
X44495Y-72641D01*
X44466Y-72641D01*
X44428Y-72632D01*
X44409Y-72624D01*
X44390Y-72607D01*
X44380Y-72581D01*
X44380Y-72564D01*
X44390Y-72538D01*
X44400Y-72530D01*
X44380Y-72470D02*
X44380Y-72358D01*
X44457Y-72418D01*
X44457Y-72392D01*
X44466Y-72375D01*
X44476Y-72367D01*
X44495Y-72358D01*
X44542Y-72358D01*
X44561Y-72367D01*
X44571Y-72375D01*
X44580Y-72392D01*
X44580Y-72444D01*
X44571Y-72461D01*
X44561Y-72470D01*
X60580Y-73280D02*
X60485Y-73340D01*
X60580Y-73382D02*
X60380Y-73382D01*
X60380Y-73314D01*
X60390Y-73297D01*
X60400Y-73288D01*
X60419Y-73280D01*
X60447Y-73280D01*
X60466Y-73288D01*
X60476Y-73297D01*
X60485Y-73314D01*
X60485Y-73382D01*
X60380Y-73220D02*
X60380Y-73108D01*
X60457Y-73168D01*
X60457Y-73142D01*
X60466Y-73125D01*
X60476Y-73117D01*
X60495Y-73108D01*
X60542Y-73108D01*
X60561Y-73117D01*
X60571Y-73125D01*
X60580Y-73142D01*
X60580Y-73194D01*
X60571Y-73211D01*
X60561Y-73220D01*
X46830Y-66530D02*
X46735Y-66590D01*
X46830Y-66632D02*
X46630Y-66632D01*
X46630Y-66564D01*
X46640Y-66547D01*
X46650Y-66538D01*
X46669Y-66530D01*
X46697Y-66530D01*
X46716Y-66538D01*
X46726Y-66547D01*
X46735Y-66564D01*
X46735Y-66632D01*
X46650Y-66461D02*
X46640Y-66452D01*
X46630Y-66435D01*
X46630Y-66392D01*
X46640Y-66375D01*
X46650Y-66367D01*
X46669Y-66358D01*
X46688Y-66358D01*
X46716Y-66367D01*
X46830Y-66470D01*
X46830Y-66358D01*
G54D13*
X48871Y-69442D02*
X48728Y-69542D01*
X48871Y-69614D02*
X48571Y-69614D01*
X48571Y-69500D01*
X48585Y-69471D01*
X48600Y-69457D01*
X48628Y-69442D01*
X48671Y-69442D01*
X48700Y-69457D01*
X48714Y-69471D01*
X48728Y-69500D01*
X48728Y-69614D01*
X48871Y-69157D02*
X48871Y-69328D01*
X48871Y-69242D02*
X48571Y-69242D01*
X48614Y-69271D01*
X48642Y-69300D01*
X48657Y-69328D01*
X48700Y-68985D02*
X48685Y-69014D01*
X48671Y-69028D01*
X48642Y-69042D01*
X48628Y-69042D01*
X48600Y-69028D01*
X48585Y-69014D01*
X48571Y-68985D01*
X48571Y-68928D01*
X48585Y-68900D01*
X48600Y-68885D01*
X48628Y-68871D01*
X48642Y-68871D01*
X48671Y-68885D01*
X48685Y-68900D01*
X48700Y-68928D01*
X48700Y-68985D01*
X48714Y-69014D01*
X48728Y-69028D01*
X48757Y-69042D01*
X48814Y-69042D01*
X48842Y-69028D01*
X48857Y-69014D01*
X48871Y-68985D01*
X48871Y-68928D01*
X48857Y-68900D01*
X48842Y-68885D01*
X48814Y-68871D01*
X48757Y-68871D01*
X48728Y-68885D01*
X48714Y-68900D01*
X48700Y-68928D01*
X59371Y-69442D02*
X59228Y-69542D01*
X59371Y-69614D02*
X59071Y-69614D01*
X59071Y-69500D01*
X59085Y-69471D01*
X59100Y-69457D01*
X59128Y-69442D01*
X59171Y-69442D01*
X59200Y-69457D01*
X59214Y-69471D01*
X59228Y-69500D01*
X59228Y-69614D01*
X59371Y-69157D02*
X59371Y-69328D01*
X59371Y-69242D02*
X59071Y-69242D01*
X59114Y-69271D01*
X59142Y-69300D01*
X59157Y-69328D01*
X59371Y-68871D02*
X59371Y-69042D01*
X59371Y-68957D02*
X59071Y-68957D01*
X59114Y-68985D01*
X59142Y-69014D01*
X59157Y-69042D01*
X57871Y-69442D02*
X57728Y-69542D01*
X57871Y-69614D02*
X57571Y-69614D01*
X57571Y-69500D01*
X57585Y-69471D01*
X57600Y-69457D01*
X57628Y-69442D01*
X57671Y-69442D01*
X57700Y-69457D01*
X57714Y-69471D01*
X57728Y-69500D01*
X57728Y-69614D01*
X57871Y-69157D02*
X57871Y-69328D01*
X57871Y-69242D02*
X57571Y-69242D01*
X57614Y-69271D01*
X57642Y-69300D01*
X57657Y-69328D01*
X57600Y-69042D02*
X57585Y-69028D01*
X57571Y-69000D01*
X57571Y-68928D01*
X57585Y-68900D01*
X57600Y-68885D01*
X57628Y-68871D01*
X57657Y-68871D01*
X57700Y-68885D01*
X57871Y-69057D01*
X57871Y-68871D01*
X56371Y-69442D02*
X56228Y-69542D01*
X56371Y-69614D02*
X56071Y-69614D01*
X56071Y-69500D01*
X56085Y-69471D01*
X56100Y-69457D01*
X56128Y-69442D01*
X56171Y-69442D01*
X56200Y-69457D01*
X56214Y-69471D01*
X56228Y-69500D01*
X56228Y-69614D01*
X56371Y-69157D02*
X56371Y-69328D01*
X56371Y-69242D02*
X56071Y-69242D01*
X56114Y-69271D01*
X56142Y-69300D01*
X56157Y-69328D01*
X56071Y-69057D02*
X56071Y-68871D01*
X56185Y-68971D01*
X56185Y-68928D01*
X56200Y-68900D01*
X56214Y-68885D01*
X56242Y-68871D01*
X56314Y-68871D01*
X56342Y-68885D01*
X56357Y-68900D01*
X56371Y-68928D01*
X56371Y-69014D01*
X56357Y-69042D01*
X56342Y-69057D01*
X50371Y-69442D02*
X50228Y-69542D01*
X50371Y-69614D02*
X50071Y-69614D01*
X50071Y-69500D01*
X50085Y-69471D01*
X50100Y-69457D01*
X50128Y-69442D01*
X50171Y-69442D01*
X50200Y-69457D01*
X50214Y-69471D01*
X50228Y-69500D01*
X50228Y-69614D01*
X50371Y-69157D02*
X50371Y-69328D01*
X50371Y-69242D02*
X50071Y-69242D01*
X50114Y-69271D01*
X50142Y-69300D01*
X50157Y-69328D01*
X50071Y-69057D02*
X50071Y-68857D01*
X50371Y-68985D01*
X53371Y-69442D02*
X53228Y-69542D01*
X53371Y-69614D02*
X53071Y-69614D01*
X53071Y-69500D01*
X53085Y-69471D01*
X53100Y-69457D01*
X53128Y-69442D01*
X53171Y-69442D01*
X53200Y-69457D01*
X53214Y-69471D01*
X53228Y-69500D01*
X53228Y-69614D01*
X53371Y-69157D02*
X53371Y-69328D01*
X53371Y-69242D02*
X53071Y-69242D01*
X53114Y-69271D01*
X53142Y-69300D01*
X53157Y-69328D01*
X53071Y-68885D02*
X53071Y-69028D01*
X53214Y-69042D01*
X53200Y-69028D01*
X53185Y-69000D01*
X53185Y-68928D01*
X53200Y-68900D01*
X53214Y-68885D01*
X53242Y-68871D01*
X53314Y-68871D01*
X53342Y-68885D01*
X53357Y-68900D01*
X53371Y-68928D01*
X53371Y-69000D01*
X53357Y-69028D01*
X53342Y-69042D01*
X51871Y-69442D02*
X51728Y-69542D01*
X51871Y-69614D02*
X51571Y-69614D01*
X51571Y-69500D01*
X51585Y-69471D01*
X51600Y-69457D01*
X51628Y-69442D01*
X51671Y-69442D01*
X51700Y-69457D01*
X51714Y-69471D01*
X51728Y-69500D01*
X51728Y-69614D01*
X51871Y-69157D02*
X51871Y-69328D01*
X51871Y-69242D02*
X51571Y-69242D01*
X51614Y-69271D01*
X51642Y-69300D01*
X51657Y-69328D01*
X51571Y-68900D02*
X51571Y-68957D01*
X51585Y-68985D01*
X51600Y-69000D01*
X51642Y-69028D01*
X51700Y-69042D01*
X51814Y-69042D01*
X51842Y-69028D01*
X51857Y-69014D01*
X51871Y-68985D01*
X51871Y-68928D01*
X51857Y-68900D01*
X51842Y-68885D01*
X51814Y-68871D01*
X51742Y-68871D01*
X51714Y-68885D01*
X51700Y-68900D01*
X51685Y-68928D01*
X51685Y-68985D01*
X51700Y-69014D01*
X51714Y-69028D01*
X51742Y-69042D01*
X54871Y-69442D02*
X54728Y-69542D01*
X54871Y-69614D02*
X54571Y-69614D01*
X54571Y-69500D01*
X54585Y-69471D01*
X54600Y-69457D01*
X54628Y-69442D01*
X54671Y-69442D01*
X54700Y-69457D01*
X54714Y-69471D01*
X54728Y-69500D01*
X54728Y-69614D01*
X54871Y-69157D02*
X54871Y-69328D01*
X54871Y-69242D02*
X54571Y-69242D01*
X54614Y-69271D01*
X54642Y-69300D01*
X54657Y-69328D01*
X54671Y-68900D02*
X54871Y-68900D01*
X54557Y-68971D02*
X54771Y-69042D01*
X54771Y-68857D01*
X57157Y-75261D02*
X57157Y-75585D01*
X57178Y-75623D01*
X57200Y-75642D01*
X57242Y-75661D01*
X57328Y-75661D01*
X57371Y-75642D01*
X57392Y-75623D01*
X57414Y-75585D01*
X57414Y-75261D01*
X57864Y-75661D02*
X57607Y-75661D01*
X57735Y-75661D02*
X57735Y-75261D01*
X57692Y-75319D01*
X57650Y-75357D01*
X57607Y-75376D01*
G54D20*
X46134Y-73813D02*
X46134Y-73656D01*
X46171Y-73656D01*
X46193Y-73664D01*
X46208Y-73678D01*
X46216Y-73693D01*
X46223Y-73723D01*
X46223Y-73746D01*
X46216Y-73776D01*
X46208Y-73791D01*
X46193Y-73806D01*
X46171Y-73813D01*
X46134Y-73813D01*
X46283Y-73671D02*
X46291Y-73664D01*
X46306Y-73656D01*
X46343Y-73656D01*
X46358Y-73664D01*
X46365Y-73671D01*
X46373Y-73686D01*
X46373Y-73701D01*
X46365Y-73723D01*
X46276Y-73813D01*
X46373Y-73813D01*
G54D22*
X54818Y-71263D02*
X54812Y-71276D01*
X54799Y-71289D01*
X54779Y-71309D01*
X54772Y-71322D01*
X54772Y-71335D01*
X54805Y-71328D02*
X54799Y-71341D01*
X54786Y-71354D01*
X54759Y-71361D01*
X54713Y-71361D01*
X54687Y-71354D01*
X54674Y-71341D01*
X54667Y-71328D01*
X54667Y-71302D01*
X54674Y-71289D01*
X54687Y-71276D01*
X54713Y-71269D01*
X54759Y-71269D01*
X54786Y-71276D01*
X54799Y-71289D01*
X54805Y-71302D01*
X54805Y-71328D01*
X54667Y-71145D02*
X54667Y-71210D01*
X54733Y-71217D01*
X54727Y-71210D01*
X54720Y-71197D01*
X54720Y-71164D01*
X54727Y-71151D01*
X54733Y-71145D01*
X54746Y-71138D01*
X54779Y-71138D01*
X54792Y-71145D01*
X54799Y-71151D01*
X54805Y-71164D01*
X54805Y-71197D01*
X54799Y-71210D01*
X54792Y-71217D01*
X56318Y-71263D02*
X56312Y-71276D01*
X56299Y-71289D01*
X56279Y-71309D01*
X56272Y-71322D01*
X56272Y-71335D01*
X56305Y-71328D02*
X56299Y-71341D01*
X56286Y-71354D01*
X56259Y-71361D01*
X56213Y-71361D01*
X56187Y-71354D01*
X56174Y-71341D01*
X56167Y-71328D01*
X56167Y-71302D01*
X56174Y-71289D01*
X56187Y-71276D01*
X56213Y-71269D01*
X56259Y-71269D01*
X56286Y-71276D01*
X56299Y-71289D01*
X56305Y-71302D01*
X56305Y-71328D01*
X56213Y-71151D02*
X56305Y-71151D01*
X56161Y-71184D02*
X56259Y-71217D01*
X56259Y-71131D01*
X57818Y-71263D02*
X57812Y-71276D01*
X57799Y-71289D01*
X57779Y-71309D01*
X57772Y-71322D01*
X57772Y-71335D01*
X57805Y-71328D02*
X57799Y-71341D01*
X57786Y-71354D01*
X57759Y-71361D01*
X57713Y-71361D01*
X57687Y-71354D01*
X57674Y-71341D01*
X57667Y-71328D01*
X57667Y-71302D01*
X57674Y-71289D01*
X57687Y-71276D01*
X57713Y-71269D01*
X57759Y-71269D01*
X57786Y-71276D01*
X57799Y-71289D01*
X57805Y-71302D01*
X57805Y-71328D01*
X57667Y-71223D02*
X57667Y-71138D01*
X57720Y-71184D01*
X57720Y-71164D01*
X57727Y-71151D01*
X57733Y-71145D01*
X57746Y-71138D01*
X57779Y-71138D01*
X57792Y-71145D01*
X57799Y-71151D01*
X57805Y-71164D01*
X57805Y-71204D01*
X57799Y-71217D01*
X57792Y-71223D01*
X50318Y-71263D02*
X50312Y-71276D01*
X50299Y-71289D01*
X50279Y-71309D01*
X50272Y-71322D01*
X50272Y-71335D01*
X50305Y-71328D02*
X50299Y-71341D01*
X50286Y-71354D01*
X50259Y-71361D01*
X50213Y-71361D01*
X50187Y-71354D01*
X50174Y-71341D01*
X50167Y-71328D01*
X50167Y-71302D01*
X50174Y-71289D01*
X50187Y-71276D01*
X50213Y-71269D01*
X50259Y-71269D01*
X50286Y-71276D01*
X50299Y-71289D01*
X50305Y-71302D01*
X50305Y-71328D01*
X50227Y-71190D02*
X50220Y-71204D01*
X50213Y-71210D01*
X50200Y-71217D01*
X50194Y-71217D01*
X50181Y-71210D01*
X50174Y-71204D01*
X50167Y-71190D01*
X50167Y-71164D01*
X50174Y-71151D01*
X50181Y-71145D01*
X50194Y-71138D01*
X50200Y-71138D01*
X50213Y-71145D01*
X50220Y-71151D01*
X50227Y-71164D01*
X50227Y-71190D01*
X50233Y-71204D01*
X50240Y-71210D01*
X50253Y-71217D01*
X50279Y-71217D01*
X50292Y-71210D01*
X50299Y-71204D01*
X50305Y-71190D01*
X50305Y-71164D01*
X50299Y-71151D01*
X50292Y-71145D01*
X50279Y-71138D01*
X50253Y-71138D01*
X50240Y-71145D01*
X50233Y-71151D01*
X50227Y-71164D01*
X59318Y-71263D02*
X59312Y-71276D01*
X59299Y-71289D01*
X59279Y-71309D01*
X59272Y-71322D01*
X59272Y-71335D01*
X59305Y-71328D02*
X59299Y-71341D01*
X59286Y-71354D01*
X59259Y-71361D01*
X59213Y-71361D01*
X59187Y-71354D01*
X59174Y-71341D01*
X59167Y-71328D01*
X59167Y-71302D01*
X59174Y-71289D01*
X59187Y-71276D01*
X59213Y-71269D01*
X59259Y-71269D01*
X59286Y-71276D01*
X59299Y-71289D01*
X59305Y-71302D01*
X59305Y-71328D01*
X59181Y-71217D02*
X59174Y-71210D01*
X59167Y-71197D01*
X59167Y-71164D01*
X59174Y-71151D01*
X59181Y-71145D01*
X59194Y-71138D01*
X59207Y-71138D01*
X59227Y-71145D01*
X59305Y-71223D01*
X59305Y-71138D01*
X53318Y-71263D02*
X53312Y-71276D01*
X53299Y-71289D01*
X53279Y-71309D01*
X53272Y-71322D01*
X53272Y-71335D01*
X53305Y-71328D02*
X53299Y-71341D01*
X53286Y-71354D01*
X53259Y-71361D01*
X53213Y-71361D01*
X53187Y-71354D01*
X53174Y-71341D01*
X53167Y-71328D01*
X53167Y-71302D01*
X53174Y-71289D01*
X53187Y-71276D01*
X53213Y-71269D01*
X53259Y-71269D01*
X53286Y-71276D01*
X53299Y-71289D01*
X53305Y-71302D01*
X53305Y-71328D01*
X53167Y-71151D02*
X53167Y-71177D01*
X53174Y-71190D01*
X53181Y-71197D01*
X53200Y-71210D01*
X53227Y-71217D01*
X53279Y-71217D01*
X53292Y-71210D01*
X53299Y-71204D01*
X53305Y-71190D01*
X53305Y-71164D01*
X53299Y-71151D01*
X53292Y-71145D01*
X53279Y-71138D01*
X53246Y-71138D01*
X53233Y-71145D01*
X53227Y-71151D01*
X53220Y-71164D01*
X53220Y-71190D01*
X53227Y-71204D01*
X53233Y-71210D01*
X53246Y-71217D01*
X60818Y-71263D02*
X60812Y-71276D01*
X60799Y-71289D01*
X60779Y-71309D01*
X60772Y-71322D01*
X60772Y-71335D01*
X60805Y-71328D02*
X60799Y-71341D01*
X60786Y-71354D01*
X60759Y-71361D01*
X60713Y-71361D01*
X60687Y-71354D01*
X60674Y-71341D01*
X60667Y-71328D01*
X60667Y-71302D01*
X60674Y-71289D01*
X60687Y-71276D01*
X60713Y-71269D01*
X60759Y-71269D01*
X60786Y-71276D01*
X60799Y-71289D01*
X60805Y-71302D01*
X60805Y-71328D01*
X60805Y-71138D02*
X60805Y-71217D01*
X60805Y-71177D02*
X60667Y-71177D01*
X60687Y-71190D01*
X60700Y-71204D01*
X60707Y-71217D01*
X51818Y-71263D02*
X51812Y-71276D01*
X51799Y-71289D01*
X51779Y-71309D01*
X51772Y-71322D01*
X51772Y-71335D01*
X51805Y-71328D02*
X51799Y-71341D01*
X51786Y-71354D01*
X51759Y-71361D01*
X51713Y-71361D01*
X51687Y-71354D01*
X51674Y-71341D01*
X51667Y-71328D01*
X51667Y-71302D01*
X51674Y-71289D01*
X51687Y-71276D01*
X51713Y-71269D01*
X51759Y-71269D01*
X51786Y-71276D01*
X51799Y-71289D01*
X51805Y-71302D01*
X51805Y-71328D01*
X51667Y-71223D02*
X51667Y-71131D01*
X51805Y-71190D01*
G54D21*
X46985Y-75782D02*
X46995Y-75792D01*
X47004Y-75820D01*
X47004Y-75839D01*
X46995Y-75867D01*
X46976Y-75886D01*
X46957Y-75895D01*
X46920Y-75904D01*
X46892Y-75904D01*
X46854Y-75895D01*
X46835Y-75886D01*
X46817Y-75867D01*
X46807Y-75839D01*
X46807Y-75820D01*
X46817Y-75792D01*
X46826Y-75782D01*
X46873Y-75613D02*
X47004Y-75613D01*
X46798Y-75660D02*
X46939Y-75707D01*
X46939Y-75585D01*
G54D16*
X59288Y-66282D02*
X59288Y-65583D01*
X59526Y-65583D01*
X59586Y-65617D01*
X59616Y-65650D01*
X59645Y-65717D01*
X59645Y-65816D01*
X59616Y-65883D01*
X59586Y-65916D01*
X59526Y-65950D01*
X59288Y-65950D01*
X60241Y-66282D02*
X59883Y-66282D01*
X60062Y-66282D02*
X60062Y-65583D01*
X60002Y-65683D01*
X59943Y-65750D01*
X59883Y-65783D01*
X46300Y-78142D02*
X46300Y-78571D01*
X46271Y-78657D01*
X46214Y-78714D01*
X46128Y-78742D01*
X46071Y-78742D01*
X46900Y-78742D02*
X46557Y-78742D01*
X46728Y-78742D02*
X46728Y-78142D01*
X46671Y-78228D01*
X46614Y-78285D01*
X46557Y-78314D01*
X59050Y-78142D02*
X59050Y-78571D01*
X59021Y-78657D01*
X58964Y-78714D01*
X58878Y-78742D01*
X58821Y-78742D01*
X59307Y-78200D02*
X59335Y-78171D01*
X59392Y-78142D01*
X59535Y-78142D01*
X59592Y-78171D01*
X59621Y-78200D01*
X59650Y-78257D01*
X59650Y-78314D01*
X59621Y-78400D01*
X59278Y-78742D01*
X59650Y-78742D01*
X39300Y-78142D02*
X39300Y-78571D01*
X39271Y-78657D01*
X39214Y-78714D01*
X39128Y-78742D01*
X39071Y-78742D01*
X39557Y-78200D02*
X39585Y-78171D01*
X39642Y-78142D01*
X39785Y-78142D01*
X39842Y-78171D01*
X39871Y-78200D01*
X39900Y-78257D01*
X39900Y-78314D01*
X39871Y-78400D01*
X39528Y-78742D01*
X39900Y-78742D01*
X26550Y-78142D02*
X26550Y-78571D01*
X26521Y-78657D01*
X26464Y-78714D01*
X26378Y-78742D01*
X26321Y-78742D01*
X27150Y-78742D02*
X26807Y-78742D01*
X26978Y-78742D02*
X26978Y-78142D01*
X26921Y-78228D01*
X26864Y-78285D01*
X26807Y-78314D01*
X39538Y-66282D02*
X39538Y-65583D01*
X39776Y-65583D01*
X39836Y-65617D01*
X39866Y-65650D01*
X39895Y-65717D01*
X39895Y-65816D01*
X39866Y-65883D01*
X39836Y-65916D01*
X39776Y-65950D01*
X39538Y-65950D01*
X40491Y-66282D02*
X40133Y-66282D01*
X40312Y-66282D02*
X40312Y-65583D01*
X40252Y-65683D01*
X40193Y-65750D01*
X40133Y-65783D01*
G54D21*
X27235Y-75782D02*
X27245Y-75792D01*
X27254Y-75820D01*
X27254Y-75839D01*
X27245Y-75867D01*
X27226Y-75886D01*
X27207Y-75895D01*
X27170Y-75904D01*
X27142Y-75904D01*
X27104Y-75895D01*
X27085Y-75886D01*
X27067Y-75867D01*
X27057Y-75839D01*
X27057Y-75820D01*
X27067Y-75792D01*
X27076Y-75782D01*
X27123Y-75613D02*
X27254Y-75613D01*
X27048Y-75660D02*
X27189Y-75707D01*
X27189Y-75585D01*
G54D22*
X32068Y-71263D02*
X32062Y-71276D01*
X32049Y-71289D01*
X32029Y-71309D01*
X32022Y-71322D01*
X32022Y-71335D01*
X32055Y-71328D02*
X32049Y-71341D01*
X32036Y-71354D01*
X32009Y-71361D01*
X31963Y-71361D01*
X31937Y-71354D01*
X31924Y-71341D01*
X31917Y-71328D01*
X31917Y-71302D01*
X31924Y-71289D01*
X31937Y-71276D01*
X31963Y-71269D01*
X32009Y-71269D01*
X32036Y-71276D01*
X32049Y-71289D01*
X32055Y-71302D01*
X32055Y-71328D01*
X31917Y-71223D02*
X31917Y-71131D01*
X32055Y-71190D01*
X41068Y-71263D02*
X41062Y-71276D01*
X41049Y-71289D01*
X41029Y-71309D01*
X41022Y-71322D01*
X41022Y-71335D01*
X41055Y-71328D02*
X41049Y-71341D01*
X41036Y-71354D01*
X41009Y-71361D01*
X40963Y-71361D01*
X40937Y-71354D01*
X40924Y-71341D01*
X40917Y-71328D01*
X40917Y-71302D01*
X40924Y-71289D01*
X40937Y-71276D01*
X40963Y-71269D01*
X41009Y-71269D01*
X41036Y-71276D01*
X41049Y-71289D01*
X41055Y-71302D01*
X41055Y-71328D01*
X41055Y-71138D02*
X41055Y-71217D01*
X41055Y-71177D02*
X40917Y-71177D01*
X40937Y-71190D01*
X40950Y-71204D01*
X40957Y-71217D01*
X33568Y-71263D02*
X33562Y-71276D01*
X33549Y-71289D01*
X33529Y-71309D01*
X33522Y-71322D01*
X33522Y-71335D01*
X33555Y-71328D02*
X33549Y-71341D01*
X33536Y-71354D01*
X33509Y-71361D01*
X33463Y-71361D01*
X33437Y-71354D01*
X33424Y-71341D01*
X33417Y-71328D01*
X33417Y-71302D01*
X33424Y-71289D01*
X33437Y-71276D01*
X33463Y-71269D01*
X33509Y-71269D01*
X33536Y-71276D01*
X33549Y-71289D01*
X33555Y-71302D01*
X33555Y-71328D01*
X33417Y-71151D02*
X33417Y-71177D01*
X33424Y-71190D01*
X33431Y-71197D01*
X33450Y-71210D01*
X33477Y-71217D01*
X33529Y-71217D01*
X33542Y-71210D01*
X33549Y-71204D01*
X33555Y-71190D01*
X33555Y-71164D01*
X33549Y-71151D01*
X33542Y-71145D01*
X33529Y-71138D01*
X33496Y-71138D01*
X33483Y-71145D01*
X33477Y-71151D01*
X33470Y-71164D01*
X33470Y-71190D01*
X33477Y-71204D01*
X33483Y-71210D01*
X33496Y-71217D01*
X39568Y-71263D02*
X39562Y-71276D01*
X39549Y-71289D01*
X39529Y-71309D01*
X39522Y-71322D01*
X39522Y-71335D01*
X39555Y-71328D02*
X39549Y-71341D01*
X39536Y-71354D01*
X39509Y-71361D01*
X39463Y-71361D01*
X39437Y-71354D01*
X39424Y-71341D01*
X39417Y-71328D01*
X39417Y-71302D01*
X39424Y-71289D01*
X39437Y-71276D01*
X39463Y-71269D01*
X39509Y-71269D01*
X39536Y-71276D01*
X39549Y-71289D01*
X39555Y-71302D01*
X39555Y-71328D01*
X39431Y-71217D02*
X39424Y-71210D01*
X39417Y-71197D01*
X39417Y-71164D01*
X39424Y-71151D01*
X39431Y-71145D01*
X39444Y-71138D01*
X39457Y-71138D01*
X39477Y-71145D01*
X39555Y-71223D01*
X39555Y-71138D01*
X30568Y-71263D02*
X30562Y-71276D01*
X30549Y-71289D01*
X30529Y-71309D01*
X30522Y-71322D01*
X30522Y-71335D01*
X30555Y-71328D02*
X30549Y-71341D01*
X30536Y-71354D01*
X30509Y-71361D01*
X30463Y-71361D01*
X30437Y-71354D01*
X30424Y-71341D01*
X30417Y-71328D01*
X30417Y-71302D01*
X30424Y-71289D01*
X30437Y-71276D01*
X30463Y-71269D01*
X30509Y-71269D01*
X30536Y-71276D01*
X30549Y-71289D01*
X30555Y-71302D01*
X30555Y-71328D01*
X30477Y-71190D02*
X30470Y-71204D01*
X30463Y-71210D01*
X30450Y-71217D01*
X30444Y-71217D01*
X30431Y-71210D01*
X30424Y-71204D01*
X30417Y-71190D01*
X30417Y-71164D01*
X30424Y-71151D01*
X30431Y-71145D01*
X30444Y-71138D01*
X30450Y-71138D01*
X30463Y-71145D01*
X30470Y-71151D01*
X30477Y-71164D01*
X30477Y-71190D01*
X30483Y-71204D01*
X30490Y-71210D01*
X30503Y-71217D01*
X30529Y-71217D01*
X30542Y-71210D01*
X30549Y-71204D01*
X30555Y-71190D01*
X30555Y-71164D01*
X30549Y-71151D01*
X30542Y-71145D01*
X30529Y-71138D01*
X30503Y-71138D01*
X30490Y-71145D01*
X30483Y-71151D01*
X30477Y-71164D01*
X38068Y-71263D02*
X38062Y-71276D01*
X38049Y-71289D01*
X38029Y-71309D01*
X38022Y-71322D01*
X38022Y-71335D01*
X38055Y-71328D02*
X38049Y-71341D01*
X38036Y-71354D01*
X38009Y-71361D01*
X37963Y-71361D01*
X37937Y-71354D01*
X37924Y-71341D01*
X37917Y-71328D01*
X37917Y-71302D01*
X37924Y-71289D01*
X37937Y-71276D01*
X37963Y-71269D01*
X38009Y-71269D01*
X38036Y-71276D01*
X38049Y-71289D01*
X38055Y-71302D01*
X38055Y-71328D01*
X37917Y-71223D02*
X37917Y-71138D01*
X37970Y-71184D01*
X37970Y-71164D01*
X37977Y-71151D01*
X37983Y-71145D01*
X37996Y-71138D01*
X38029Y-71138D01*
X38042Y-71145D01*
X38049Y-71151D01*
X38055Y-71164D01*
X38055Y-71204D01*
X38049Y-71217D01*
X38042Y-71223D01*
X36568Y-71263D02*
X36562Y-71276D01*
X36549Y-71289D01*
X36529Y-71309D01*
X36522Y-71322D01*
X36522Y-71335D01*
X36555Y-71328D02*
X36549Y-71341D01*
X36536Y-71354D01*
X36509Y-71361D01*
X36463Y-71361D01*
X36437Y-71354D01*
X36424Y-71341D01*
X36417Y-71328D01*
X36417Y-71302D01*
X36424Y-71289D01*
X36437Y-71276D01*
X36463Y-71269D01*
X36509Y-71269D01*
X36536Y-71276D01*
X36549Y-71289D01*
X36555Y-71302D01*
X36555Y-71328D01*
X36463Y-71151D02*
X36555Y-71151D01*
X36411Y-71184D02*
X36509Y-71217D01*
X36509Y-71131D01*
X35068Y-71263D02*
X35062Y-71276D01*
X35049Y-71289D01*
X35029Y-71309D01*
X35022Y-71322D01*
X35022Y-71335D01*
X35055Y-71328D02*
X35049Y-71341D01*
X35036Y-71354D01*
X35009Y-71361D01*
X34963Y-71361D01*
X34937Y-71354D01*
X34924Y-71341D01*
X34917Y-71328D01*
X34917Y-71302D01*
X34924Y-71289D01*
X34937Y-71276D01*
X34963Y-71269D01*
X35009Y-71269D01*
X35036Y-71276D01*
X35049Y-71289D01*
X35055Y-71302D01*
X35055Y-71328D01*
X34917Y-71145D02*
X34917Y-71210D01*
X34983Y-71217D01*
X34977Y-71210D01*
X34970Y-71197D01*
X34970Y-71164D01*
X34977Y-71151D01*
X34983Y-71145D01*
X34996Y-71138D01*
X35029Y-71138D01*
X35042Y-71145D01*
X35049Y-71151D01*
X35055Y-71164D01*
X35055Y-71197D01*
X35049Y-71210D01*
X35042Y-71217D01*
G54D20*
X26384Y-73813D02*
X26384Y-73656D01*
X26421Y-73656D01*
X26443Y-73664D01*
X26458Y-73678D01*
X26466Y-73693D01*
X26473Y-73723D01*
X26473Y-73746D01*
X26466Y-73776D01*
X26458Y-73791D01*
X26443Y-73806D01*
X26421Y-73813D01*
X26384Y-73813D01*
X26533Y-73671D02*
X26541Y-73664D01*
X26556Y-73656D01*
X26593Y-73656D01*
X26608Y-73664D01*
X26615Y-73671D01*
X26623Y-73686D01*
X26623Y-73701D01*
X26615Y-73723D01*
X26526Y-73813D01*
X26623Y-73813D01*
G54D13*
X37407Y-75261D02*
X37407Y-75585D01*
X37428Y-75623D01*
X37450Y-75642D01*
X37492Y-75661D01*
X37578Y-75661D01*
X37621Y-75642D01*
X37642Y-75623D01*
X37664Y-75585D01*
X37664Y-75261D01*
X38114Y-75661D02*
X37857Y-75661D01*
X37985Y-75661D02*
X37985Y-75261D01*
X37942Y-75319D01*
X37900Y-75357D01*
X37857Y-75376D01*
X35121Y-69442D02*
X34978Y-69542D01*
X35121Y-69614D02*
X34821Y-69614D01*
X34821Y-69500D01*
X34835Y-69471D01*
X34850Y-69457D01*
X34878Y-69442D01*
X34921Y-69442D01*
X34950Y-69457D01*
X34964Y-69471D01*
X34978Y-69500D01*
X34978Y-69614D01*
X35121Y-69157D02*
X35121Y-69328D01*
X35121Y-69242D02*
X34821Y-69242D01*
X34864Y-69271D01*
X34892Y-69300D01*
X34907Y-69328D01*
X34921Y-68900D02*
X35121Y-68900D01*
X34807Y-68971D02*
X35021Y-69042D01*
X35021Y-68857D01*
X32121Y-69442D02*
X31978Y-69542D01*
X32121Y-69614D02*
X31821Y-69614D01*
X31821Y-69500D01*
X31835Y-69471D01*
X31850Y-69457D01*
X31878Y-69442D01*
X31921Y-69442D01*
X31950Y-69457D01*
X31964Y-69471D01*
X31978Y-69500D01*
X31978Y-69614D01*
X32121Y-69157D02*
X32121Y-69328D01*
X32121Y-69242D02*
X31821Y-69242D01*
X31864Y-69271D01*
X31892Y-69300D01*
X31907Y-69328D01*
X31821Y-68900D02*
X31821Y-68957D01*
X31835Y-68985D01*
X31850Y-69000D01*
X31892Y-69028D01*
X31950Y-69042D01*
X32064Y-69042D01*
X32092Y-69028D01*
X32107Y-69014D01*
X32121Y-68985D01*
X32121Y-68928D01*
X32107Y-68900D01*
X32092Y-68885D01*
X32064Y-68871D01*
X31992Y-68871D01*
X31964Y-68885D01*
X31950Y-68900D01*
X31935Y-68928D01*
X31935Y-68985D01*
X31950Y-69014D01*
X31964Y-69028D01*
X31992Y-69042D01*
X33621Y-69442D02*
X33478Y-69542D01*
X33621Y-69614D02*
X33321Y-69614D01*
X33321Y-69500D01*
X33335Y-69471D01*
X33350Y-69457D01*
X33378Y-69442D01*
X33421Y-69442D01*
X33450Y-69457D01*
X33464Y-69471D01*
X33478Y-69500D01*
X33478Y-69614D01*
X33621Y-69157D02*
X33621Y-69328D01*
X33621Y-69242D02*
X33321Y-69242D01*
X33364Y-69271D01*
X33392Y-69300D01*
X33407Y-69328D01*
X33321Y-68885D02*
X33321Y-69028D01*
X33464Y-69042D01*
X33450Y-69028D01*
X33435Y-69000D01*
X33435Y-68928D01*
X33450Y-68900D01*
X33464Y-68885D01*
X33492Y-68871D01*
X33564Y-68871D01*
X33592Y-68885D01*
X33607Y-68900D01*
X33621Y-68928D01*
X33621Y-69000D01*
X33607Y-69028D01*
X33592Y-69042D01*
X30621Y-69442D02*
X30478Y-69542D01*
X30621Y-69614D02*
X30321Y-69614D01*
X30321Y-69500D01*
X30335Y-69471D01*
X30350Y-69457D01*
X30378Y-69442D01*
X30421Y-69442D01*
X30450Y-69457D01*
X30464Y-69471D01*
X30478Y-69500D01*
X30478Y-69614D01*
X30621Y-69157D02*
X30621Y-69328D01*
X30621Y-69242D02*
X30321Y-69242D01*
X30364Y-69271D01*
X30392Y-69300D01*
X30407Y-69328D01*
X30321Y-69057D02*
X30321Y-68857D01*
X30621Y-68985D01*
X36621Y-69442D02*
X36478Y-69542D01*
X36621Y-69614D02*
X36321Y-69614D01*
X36321Y-69500D01*
X36335Y-69471D01*
X36350Y-69457D01*
X36378Y-69442D01*
X36421Y-69442D01*
X36450Y-69457D01*
X36464Y-69471D01*
X36478Y-69500D01*
X36478Y-69614D01*
X36621Y-69157D02*
X36621Y-69328D01*
X36621Y-69242D02*
X36321Y-69242D01*
X36364Y-69271D01*
X36392Y-69300D01*
X36407Y-69328D01*
X36321Y-69057D02*
X36321Y-68871D01*
X36435Y-68971D01*
X36435Y-68928D01*
X36450Y-68900D01*
X36464Y-68885D01*
X36492Y-68871D01*
X36564Y-68871D01*
X36592Y-68885D01*
X36607Y-68900D01*
X36621Y-68928D01*
X36621Y-69014D01*
X36607Y-69042D01*
X36592Y-69057D01*
X38121Y-69442D02*
X37978Y-69542D01*
X38121Y-69614D02*
X37821Y-69614D01*
X37821Y-69500D01*
X37835Y-69471D01*
X37850Y-69457D01*
X37878Y-69442D01*
X37921Y-69442D01*
X37950Y-69457D01*
X37964Y-69471D01*
X37978Y-69500D01*
X37978Y-69614D01*
X38121Y-69157D02*
X38121Y-69328D01*
X38121Y-69242D02*
X37821Y-69242D01*
X37864Y-69271D01*
X37892Y-69300D01*
X37907Y-69328D01*
X37850Y-69042D02*
X37835Y-69028D01*
X37821Y-69000D01*
X37821Y-68928D01*
X37835Y-68900D01*
X37850Y-68885D01*
X37878Y-68871D01*
X37907Y-68871D01*
X37950Y-68885D01*
X38121Y-69057D01*
X38121Y-68871D01*
X39621Y-69442D02*
X39478Y-69542D01*
X39621Y-69614D02*
X39321Y-69614D01*
X39321Y-69500D01*
X39335Y-69471D01*
X39350Y-69457D01*
X39378Y-69442D01*
X39421Y-69442D01*
X39450Y-69457D01*
X39464Y-69471D01*
X39478Y-69500D01*
X39478Y-69614D01*
X39621Y-69157D02*
X39621Y-69328D01*
X39621Y-69242D02*
X39321Y-69242D01*
X39364Y-69271D01*
X39392Y-69300D01*
X39407Y-69328D01*
X39621Y-68871D02*
X39621Y-69042D01*
X39621Y-68957D02*
X39321Y-68957D01*
X39364Y-68985D01*
X39392Y-69014D01*
X39407Y-69042D01*
X29121Y-69442D02*
X28978Y-69542D01*
X29121Y-69614D02*
X28821Y-69614D01*
X28821Y-69500D01*
X28835Y-69471D01*
X28850Y-69457D01*
X28878Y-69442D01*
X28921Y-69442D01*
X28950Y-69457D01*
X28964Y-69471D01*
X28978Y-69500D01*
X28978Y-69614D01*
X29121Y-69157D02*
X29121Y-69328D01*
X29121Y-69242D02*
X28821Y-69242D01*
X28864Y-69271D01*
X28892Y-69300D01*
X28907Y-69328D01*
X28950Y-68985D02*
X28935Y-69014D01*
X28921Y-69028D01*
X28892Y-69042D01*
X28878Y-69042D01*
X28850Y-69028D01*
X28835Y-69014D01*
X28821Y-68985D01*
X28821Y-68928D01*
X28835Y-68900D01*
X28850Y-68885D01*
X28878Y-68871D01*
X28892Y-68871D01*
X28921Y-68885D01*
X28935Y-68900D01*
X28950Y-68928D01*
X28950Y-68985D01*
X28964Y-69014D01*
X28978Y-69028D01*
X29007Y-69042D01*
X29064Y-69042D01*
X29092Y-69028D01*
X29107Y-69014D01*
X29121Y-68985D01*
X29121Y-68928D01*
X29107Y-68900D01*
X29092Y-68885D01*
X29064Y-68871D01*
X29007Y-68871D01*
X28978Y-68885D01*
X28964Y-68900D01*
X28950Y-68928D01*
G54D19*
X27080Y-66530D02*
X26985Y-66590D01*
X27080Y-66632D02*
X26880Y-66632D01*
X26880Y-66564D01*
X26890Y-66547D01*
X26900Y-66538D01*
X26919Y-66530D01*
X26947Y-66530D01*
X26966Y-66538D01*
X26976Y-66547D01*
X26985Y-66564D01*
X26985Y-66632D01*
X26900Y-66461D02*
X26890Y-66452D01*
X26880Y-66435D01*
X26880Y-66392D01*
X26890Y-66375D01*
X26900Y-66367D01*
X26919Y-66358D01*
X26938Y-66358D01*
X26966Y-66367D01*
X27080Y-66470D01*
X27080Y-66358D01*
X40830Y-73280D02*
X40735Y-73340D01*
X40830Y-73382D02*
X40630Y-73382D01*
X40630Y-73314D01*
X40640Y-73297D01*
X40650Y-73288D01*
X40669Y-73280D01*
X40697Y-73280D01*
X40716Y-73288D01*
X40726Y-73297D01*
X40735Y-73314D01*
X40735Y-73382D01*
X40630Y-73220D02*
X40630Y-73108D01*
X40707Y-73168D01*
X40707Y-73142D01*
X40716Y-73125D01*
X40726Y-73117D01*
X40745Y-73108D01*
X40792Y-73108D01*
X40811Y-73117D01*
X40821Y-73125D01*
X40830Y-73142D01*
X40830Y-73194D01*
X40821Y-73211D01*
X40811Y-73220D01*
X24811Y-72530D02*
X24821Y-72538D01*
X24830Y-72564D01*
X24830Y-72581D01*
X24821Y-72607D01*
X24802Y-72624D01*
X24783Y-72632D01*
X24745Y-72641D01*
X24716Y-72641D01*
X24678Y-72632D01*
X24659Y-72624D01*
X24640Y-72607D01*
X24630Y-72581D01*
X24630Y-72564D01*
X24640Y-72538D01*
X24650Y-72530D01*
X24630Y-72470D02*
X24630Y-72358D01*
X24707Y-72418D01*
X24707Y-72392D01*
X24716Y-72375D01*
X24726Y-72367D01*
X24745Y-72358D01*
X24792Y-72358D01*
X24811Y-72367D01*
X24821Y-72375D01*
X24830Y-72392D01*
X24830Y-72444D01*
X24821Y-72461D01*
X24811Y-72470D01*
X39330Y-73280D02*
X39235Y-73340D01*
X39330Y-73382D02*
X39130Y-73382D01*
X39130Y-73314D01*
X39140Y-73297D01*
X39150Y-73288D01*
X39169Y-73280D01*
X39197Y-73280D01*
X39216Y-73288D01*
X39226Y-73297D01*
X39235Y-73314D01*
X39235Y-73382D01*
X39197Y-73125D02*
X39330Y-73125D01*
X39121Y-73168D02*
X39264Y-73211D01*
X39264Y-73100D01*
X37830Y-73280D02*
X37735Y-73340D01*
X37830Y-73382D02*
X37630Y-73382D01*
X37630Y-73314D01*
X37640Y-73297D01*
X37650Y-73288D01*
X37669Y-73280D01*
X37697Y-73280D01*
X37716Y-73288D01*
X37726Y-73297D01*
X37735Y-73314D01*
X37735Y-73382D01*
X37630Y-73117D02*
X37630Y-73202D01*
X37726Y-73211D01*
X37716Y-73202D01*
X37707Y-73185D01*
X37707Y-73142D01*
X37716Y-73125D01*
X37726Y-73117D01*
X37745Y-73108D01*
X37792Y-73108D01*
X37811Y-73117D01*
X37821Y-73125D01*
X37830Y-73142D01*
X37830Y-73185D01*
X37821Y-73202D01*
X37811Y-73211D01*
X36330Y-73280D02*
X36235Y-73340D01*
X36330Y-73382D02*
X36130Y-73382D01*
X36130Y-73314D01*
X36140Y-73297D01*
X36150Y-73288D01*
X36169Y-73280D01*
X36197Y-73280D01*
X36216Y-73288D01*
X36226Y-73297D01*
X36235Y-73314D01*
X36235Y-73382D01*
X36130Y-73125D02*
X36130Y-73160D01*
X36140Y-73177D01*
X36150Y-73185D01*
X36178Y-73202D01*
X36216Y-73211D01*
X36292Y-73211D01*
X36311Y-73202D01*
X36321Y-73194D01*
X36330Y-73177D01*
X36330Y-73142D01*
X36321Y-73125D01*
X36311Y-73117D01*
X36292Y-73108D01*
X36245Y-73108D01*
X36226Y-73117D01*
X36216Y-73125D01*
X36207Y-73142D01*
X36207Y-73177D01*
X36216Y-73194D01*
X36226Y-73202D01*
X36245Y-73211D01*
X26580Y-65882D02*
X26380Y-65882D01*
X26380Y-65840D01*
X26390Y-65814D01*
X26409Y-65797D01*
X26428Y-65788D01*
X26466Y-65780D01*
X26495Y-65780D01*
X26533Y-65788D01*
X26552Y-65797D01*
X26571Y-65814D01*
X26580Y-65840D01*
X26580Y-65882D01*
X26380Y-65720D02*
X26380Y-65608D01*
X26457Y-65668D01*
X26457Y-65642D01*
X26466Y-65625D01*
X26476Y-65617D01*
X26495Y-65608D01*
X26542Y-65608D01*
X26561Y-65617D01*
X26571Y-65625D01*
X26580Y-65642D01*
X26580Y-65694D01*
X26571Y-65711D01*
X26561Y-65720D01*
X25330Y-66530D02*
X25235Y-66590D01*
X25330Y-66632D02*
X25130Y-66632D01*
X25130Y-66564D01*
X25140Y-66547D01*
X25150Y-66538D01*
X25169Y-66530D01*
X25197Y-66530D01*
X25216Y-66538D01*
X25226Y-66547D01*
X25235Y-66564D01*
X25235Y-66632D01*
X25330Y-66358D02*
X25330Y-66461D01*
X25330Y-66410D02*
X25130Y-66410D01*
X25159Y-66427D01*
X25178Y-66444D01*
X25188Y-66461D01*
X34830Y-73280D02*
X34735Y-73340D01*
X34830Y-73382D02*
X34630Y-73382D01*
X34630Y-73314D01*
X34640Y-73297D01*
X34650Y-73288D01*
X34669Y-73280D01*
X34697Y-73280D01*
X34716Y-73288D01*
X34726Y-73297D01*
X34735Y-73314D01*
X34735Y-73382D01*
X34630Y-73220D02*
X34630Y-73100D01*
X34830Y-73177D01*
X25830Y-65882D02*
X25630Y-65882D01*
X25630Y-65840D01*
X25640Y-65814D01*
X25659Y-65797D01*
X25678Y-65788D01*
X25716Y-65780D01*
X25745Y-65780D01*
X25783Y-65788D01*
X25802Y-65797D01*
X25821Y-65814D01*
X25830Y-65840D01*
X25830Y-65882D01*
X25830Y-65608D02*
X25830Y-65711D01*
X25830Y-65660D02*
X25630Y-65660D01*
X25659Y-65677D01*
X25678Y-65694D01*
X25688Y-65711D01*
X37720Y-76561D02*
X37711Y-76571D01*
X37685Y-76580D01*
X37668Y-76580D01*
X37642Y-76571D01*
X37625Y-76552D01*
X37617Y-76533D01*
X37608Y-76495D01*
X37608Y-76466D01*
X37617Y-76428D01*
X37625Y-76409D01*
X37642Y-76390D01*
X37668Y-76380D01*
X37685Y-76380D01*
X37711Y-76390D01*
X37720Y-76400D01*
X37891Y-76580D02*
X37788Y-76580D01*
X37840Y-76580D02*
X37840Y-76380D01*
X37822Y-76409D01*
X37805Y-76428D01*
X37788Y-76438D01*
X33330Y-73280D02*
X33235Y-73340D01*
X33330Y-73382D02*
X33130Y-73382D01*
X33130Y-73314D01*
X33140Y-73297D01*
X33150Y-73288D01*
X33169Y-73280D01*
X33197Y-73280D01*
X33216Y-73288D01*
X33226Y-73297D01*
X33235Y-73314D01*
X33235Y-73382D01*
X33216Y-73177D02*
X33207Y-73194D01*
X33197Y-73202D01*
X33178Y-73211D01*
X33169Y-73211D01*
X33150Y-73202D01*
X33140Y-73194D01*
X33130Y-73177D01*
X33130Y-73142D01*
X33140Y-73125D01*
X33150Y-73117D01*
X33169Y-73108D01*
X33178Y-73108D01*
X33197Y-73117D01*
X33207Y-73125D01*
X33216Y-73142D01*
X33216Y-73177D01*
X33226Y-73194D01*
X33235Y-73202D01*
X33254Y-73211D01*
X33292Y-73211D01*
X33311Y-73202D01*
X33321Y-73194D01*
X33330Y-73177D01*
X33330Y-73142D01*
X33321Y-73125D01*
X33311Y-73117D01*
X33292Y-73108D01*
X33254Y-73108D01*
X33235Y-73117D01*
X33226Y-73125D01*
X33216Y-73142D01*
X30330Y-73365D02*
X30235Y-73425D01*
X30330Y-73468D02*
X30130Y-73468D01*
X30130Y-73400D01*
X30140Y-73382D01*
X30150Y-73374D01*
X30169Y-73365D01*
X30197Y-73365D01*
X30216Y-73374D01*
X30226Y-73382D01*
X30235Y-73400D01*
X30235Y-73468D01*
X30330Y-73194D02*
X30330Y-73297D01*
X30330Y-73245D02*
X30130Y-73245D01*
X30159Y-73262D01*
X30178Y-73280D01*
X30188Y-73297D01*
X30130Y-73082D02*
X30130Y-73065D01*
X30140Y-73048D01*
X30150Y-73040D01*
X30169Y-73031D01*
X30207Y-73022D01*
X30254Y-73022D01*
X30292Y-73031D01*
X30311Y-73040D01*
X30321Y-73048D01*
X30330Y-73065D01*
X30330Y-73082D01*
X30321Y-73100D01*
X30311Y-73108D01*
X30292Y-73117D01*
X30254Y-73125D01*
X30207Y-73125D01*
X30169Y-73117D01*
X30150Y-73108D01*
X30140Y-73100D01*
X30130Y-73082D01*
X31830Y-73280D02*
X31735Y-73340D01*
X31830Y-73382D02*
X31630Y-73382D01*
X31630Y-73314D01*
X31640Y-73297D01*
X31650Y-73288D01*
X31669Y-73280D01*
X31697Y-73280D01*
X31716Y-73288D01*
X31726Y-73297D01*
X31735Y-73314D01*
X31735Y-73382D01*
X31830Y-73194D02*
X31830Y-73160D01*
X31821Y-73142D01*
X31811Y-73134D01*
X31783Y-73117D01*
X31745Y-73108D01*
X31669Y-73108D01*
X31650Y-73117D01*
X31640Y-73125D01*
X31630Y-73142D01*
X31630Y-73177D01*
X31640Y-73194D01*
X31650Y-73202D01*
X31669Y-73211D01*
X31716Y-73211D01*
X31735Y-73202D01*
X31745Y-73194D01*
X31754Y-73177D01*
X31754Y-73142D01*
X31745Y-73125D01*
X31735Y-73117D01*
X31716Y-73108D01*
G54D14*
X23952Y-69554D02*
X24357Y-69554D01*
X24404Y-69535D01*
X24428Y-69516D01*
X24452Y-69478D01*
X24452Y-69402D01*
X24428Y-69364D01*
X24404Y-69345D01*
X24357Y-69326D01*
X23952Y-69326D01*
X24000Y-69154D02*
X23976Y-69135D01*
X23952Y-69097D01*
X23952Y-69002D01*
X23976Y-68964D01*
X24000Y-68945D01*
X24047Y-68926D01*
X24095Y-68926D01*
X24166Y-68945D01*
X24452Y-69173D01*
X24452Y-68926D01*
G54D21*
X24735Y-75782D02*
X24745Y-75792D01*
X24754Y-75820D01*
X24754Y-75839D01*
X24745Y-75867D01*
X24726Y-75886D01*
X24707Y-75895D01*
X24670Y-75904D01*
X24642Y-75904D01*
X24604Y-75895D01*
X24585Y-75886D01*
X24567Y-75867D01*
X24557Y-75839D01*
X24557Y-75820D01*
X24567Y-75792D01*
X24576Y-75782D01*
X24576Y-75707D02*
X24567Y-75698D01*
X24557Y-75679D01*
X24557Y-75632D01*
X24567Y-75613D01*
X24576Y-75604D01*
X24595Y-75595D01*
X24614Y-75595D01*
X24642Y-75604D01*
X24754Y-75717D01*
X24754Y-75595D01*
G54D19*
X28811Y-72530D02*
X28821Y-72538D01*
X28830Y-72564D01*
X28830Y-72581D01*
X28821Y-72607D01*
X28802Y-72624D01*
X28783Y-72632D01*
X28745Y-72641D01*
X28716Y-72641D01*
X28678Y-72632D01*
X28659Y-72624D01*
X28640Y-72607D01*
X28630Y-72581D01*
X28630Y-72564D01*
X28640Y-72538D01*
X28650Y-72530D01*
X28630Y-72367D02*
X28630Y-72452D01*
X28726Y-72461D01*
X28716Y-72452D01*
X28707Y-72435D01*
X28707Y-72392D01*
X28716Y-72375D01*
X28726Y-72367D01*
X28745Y-72358D01*
X28792Y-72358D01*
X28811Y-72367D01*
X28821Y-72375D01*
X28830Y-72392D01*
X28830Y-72435D01*
X28821Y-72452D01*
X28811Y-72461D01*
G54D20*
X41134Y-77813D02*
X41134Y-77656D01*
X41171Y-77656D01*
X41193Y-77664D01*
X41208Y-77678D01*
X41216Y-77693D01*
X41223Y-77723D01*
X41223Y-77746D01*
X41216Y-77776D01*
X41208Y-77791D01*
X41193Y-77806D01*
X41171Y-77813D01*
X41134Y-77813D01*
X41358Y-77708D02*
X41358Y-77813D01*
X41321Y-77649D02*
X41283Y-77761D01*
X41380Y-77761D01*
X29634Y-77813D02*
X29634Y-77656D01*
X29671Y-77656D01*
X29693Y-77664D01*
X29708Y-77678D01*
X29716Y-77693D01*
X29723Y-77723D01*
X29723Y-77746D01*
X29716Y-77776D01*
X29708Y-77791D01*
X29693Y-77806D01*
X29671Y-77813D01*
X29634Y-77813D01*
X29865Y-77656D02*
X29791Y-77656D01*
X29783Y-77731D01*
X29791Y-77723D01*
X29806Y-77716D01*
X29843Y-77716D01*
X29858Y-77723D01*
X29865Y-77731D01*
X29873Y-77746D01*
X29873Y-77783D01*
X29865Y-77798D01*
X29858Y-77806D01*
X29843Y-77813D01*
X29806Y-77813D01*
X29791Y-77806D01*
X29783Y-77798D01*
X29634Y-76313D02*
X29634Y-76156D01*
X29671Y-76156D01*
X29693Y-76164D01*
X29708Y-76178D01*
X29716Y-76193D01*
X29723Y-76223D01*
X29723Y-76246D01*
X29716Y-76276D01*
X29708Y-76291D01*
X29693Y-76306D01*
X29671Y-76313D01*
X29634Y-76313D01*
X29858Y-76156D02*
X29828Y-76156D01*
X29813Y-76164D01*
X29806Y-76171D01*
X29791Y-76193D01*
X29783Y-76223D01*
X29783Y-76283D01*
X29791Y-76298D01*
X29798Y-76306D01*
X29813Y-76313D01*
X29843Y-76313D01*
X29858Y-76306D01*
X29865Y-76298D01*
X29873Y-76283D01*
X29873Y-76246D01*
X29865Y-76231D01*
X29858Y-76223D01*
X29843Y-76216D01*
X29813Y-76216D01*
X29798Y-76223D01*
X29791Y-76231D01*
X29783Y-76246D01*
X41134Y-77063D02*
X41134Y-76906D01*
X41171Y-76906D01*
X41193Y-76914D01*
X41208Y-76928D01*
X41216Y-76943D01*
X41223Y-76973D01*
X41223Y-76996D01*
X41216Y-77026D01*
X41208Y-77041D01*
X41193Y-77056D01*
X41171Y-77063D01*
X41134Y-77063D01*
X41276Y-76906D02*
X41380Y-76906D01*
X41313Y-77063D01*
X29634Y-77063D02*
X29634Y-76906D01*
X29671Y-76906D01*
X29693Y-76914D01*
X29708Y-76928D01*
X29716Y-76943D01*
X29723Y-76973D01*
X29723Y-76996D01*
X29716Y-77026D01*
X29708Y-77041D01*
X29693Y-77056D01*
X29671Y-77063D01*
X29634Y-77063D01*
X29813Y-76973D02*
X29798Y-76966D01*
X29791Y-76958D01*
X29783Y-76943D01*
X29783Y-76936D01*
X29791Y-76921D01*
X29798Y-76914D01*
X29813Y-76906D01*
X29843Y-76906D01*
X29858Y-76914D01*
X29865Y-76921D01*
X29873Y-76936D01*
X29873Y-76943D01*
X29865Y-76958D01*
X29858Y-76966D01*
X29843Y-76973D01*
X29813Y-76973D01*
X29798Y-76981D01*
X29791Y-76988D01*
X29783Y-77003D01*
X29783Y-77033D01*
X29791Y-77048D01*
X29798Y-77056D01*
X29813Y-77063D01*
X29843Y-77063D01*
X29858Y-77056D01*
X29865Y-77048D01*
X29873Y-77033D01*
X29873Y-77003D01*
X29865Y-76988D01*
X29858Y-76981D01*
X29843Y-76973D01*
G54D19*
X35884Y-77580D02*
X35824Y-77485D01*
X35781Y-77580D02*
X35781Y-77380D01*
X35850Y-77380D01*
X35867Y-77390D01*
X35875Y-77400D01*
X35884Y-77419D01*
X35884Y-77447D01*
X35875Y-77466D01*
X35867Y-77476D01*
X35850Y-77485D01*
X35781Y-77485D01*
X36055Y-77580D02*
X35952Y-77580D01*
X36004Y-77580D02*
X36004Y-77380D01*
X35987Y-77409D01*
X35970Y-77428D01*
X35952Y-77438D01*
X36141Y-77580D02*
X36175Y-77580D01*
X36192Y-77571D01*
X36201Y-77561D01*
X36218Y-77533D01*
X36227Y-77495D01*
X36227Y-77419D01*
X36218Y-77400D01*
X36210Y-77390D01*
X36192Y-77380D01*
X36158Y-77380D01*
X36141Y-77390D01*
X36132Y-77400D01*
X36124Y-77419D01*
X36124Y-77466D01*
X36132Y-77485D01*
X36141Y-77495D01*
X36158Y-77504D01*
X36192Y-77504D01*
X36210Y-77495D01*
X36218Y-77485D01*
X36227Y-77466D01*
X34384Y-77580D02*
X34324Y-77485D01*
X34281Y-77580D02*
X34281Y-77380D01*
X34350Y-77380D01*
X34367Y-77390D01*
X34375Y-77400D01*
X34384Y-77419D01*
X34384Y-77447D01*
X34375Y-77466D01*
X34367Y-77476D01*
X34350Y-77485D01*
X34281Y-77485D01*
X34452Y-77400D02*
X34461Y-77390D01*
X34478Y-77380D01*
X34521Y-77380D01*
X34538Y-77390D01*
X34547Y-77400D01*
X34555Y-77419D01*
X34555Y-77438D01*
X34547Y-77466D01*
X34444Y-77580D01*
X34555Y-77580D01*
X34667Y-77380D02*
X34684Y-77380D01*
X34701Y-77390D01*
X34710Y-77400D01*
X34718Y-77419D01*
X34727Y-77457D01*
X34727Y-77504D01*
X34718Y-77542D01*
X34710Y-77561D01*
X34701Y-77571D01*
X34684Y-77580D01*
X34667Y-77580D01*
X34650Y-77571D01*
X34641Y-77561D01*
X34632Y-77542D01*
X34624Y-77504D01*
X34624Y-77457D01*
X34632Y-77419D01*
X34641Y-77400D01*
X34650Y-77390D01*
X34667Y-77380D01*
X33634Y-77580D02*
X33574Y-77485D01*
X33531Y-77580D02*
X33531Y-77380D01*
X33600Y-77380D01*
X33617Y-77390D01*
X33625Y-77400D01*
X33634Y-77419D01*
X33634Y-77447D01*
X33625Y-77466D01*
X33617Y-77476D01*
X33600Y-77485D01*
X33531Y-77485D01*
X33702Y-77400D02*
X33711Y-77390D01*
X33728Y-77380D01*
X33771Y-77380D01*
X33788Y-77390D01*
X33797Y-77400D01*
X33805Y-77419D01*
X33805Y-77438D01*
X33797Y-77466D01*
X33694Y-77580D01*
X33805Y-77580D01*
X33977Y-77580D02*
X33874Y-77580D01*
X33925Y-77580D02*
X33925Y-77380D01*
X33908Y-77409D01*
X33891Y-77428D01*
X33874Y-77438D01*
X35134Y-77580D02*
X35074Y-77485D01*
X35031Y-77580D02*
X35031Y-77380D01*
X35100Y-77380D01*
X35117Y-77390D01*
X35125Y-77400D01*
X35134Y-77419D01*
X35134Y-77447D01*
X35125Y-77466D01*
X35117Y-77476D01*
X35100Y-77485D01*
X35031Y-77485D01*
X35202Y-77400D02*
X35211Y-77390D01*
X35228Y-77380D01*
X35271Y-77380D01*
X35288Y-77390D01*
X35297Y-77400D01*
X35305Y-77419D01*
X35305Y-77438D01*
X35297Y-77466D01*
X35194Y-77580D01*
X35305Y-77580D01*
X35374Y-77400D02*
X35382Y-77390D01*
X35400Y-77380D01*
X35442Y-77380D01*
X35460Y-77390D01*
X35468Y-77400D01*
X35477Y-77419D01*
X35477Y-77438D01*
X35468Y-77466D01*
X35365Y-77580D01*
X35477Y-77580D01*
X32884Y-77580D02*
X32824Y-77485D01*
X32781Y-77580D02*
X32781Y-77380D01*
X32850Y-77380D01*
X32867Y-77390D01*
X32875Y-77400D01*
X32884Y-77419D01*
X32884Y-77447D01*
X32875Y-77466D01*
X32867Y-77476D01*
X32850Y-77485D01*
X32781Y-77485D01*
X32952Y-77400D02*
X32961Y-77390D01*
X32978Y-77380D01*
X33021Y-77380D01*
X33038Y-77390D01*
X33047Y-77400D01*
X33055Y-77419D01*
X33055Y-77438D01*
X33047Y-77466D01*
X32944Y-77580D01*
X33055Y-77580D01*
X33115Y-77380D02*
X33227Y-77380D01*
X33167Y-77457D01*
X33192Y-77457D01*
X33210Y-77466D01*
X33218Y-77476D01*
X33227Y-77495D01*
X33227Y-77542D01*
X33218Y-77561D01*
X33210Y-77571D01*
X33192Y-77580D01*
X33141Y-77580D01*
X33124Y-77571D01*
X33115Y-77561D01*
G54D23*
X44765Y-61159D02*
X44634Y-60971D01*
X44540Y-61159D02*
X44540Y-60765D01*
X44690Y-60765D01*
X44728Y-60784D01*
X44746Y-60803D01*
X44765Y-60840D01*
X44765Y-60896D01*
X44746Y-60934D01*
X44728Y-60953D01*
X44690Y-60971D01*
X44540Y-60971D01*
X44878Y-60765D02*
X45009Y-61159D01*
X45140Y-60765D01*
X45478Y-61159D02*
X45253Y-61159D01*
X45365Y-61159D02*
X45365Y-60765D01*
X45328Y-60821D01*
X45290Y-60859D01*
X45253Y-60878D01*
G54D14*
X50716Y-55892D02*
X50773Y-55911D01*
X50869Y-55911D01*
X50907Y-55892D01*
X50926Y-55873D01*
X50945Y-55835D01*
X50945Y-55797D01*
X50926Y-55759D01*
X50907Y-55740D01*
X50869Y-55721D01*
X50792Y-55702D01*
X50754Y-55683D01*
X50735Y-55664D01*
X50716Y-55626D01*
X50716Y-55588D01*
X50735Y-55550D01*
X50754Y-55530D01*
X50792Y-55511D01*
X50888Y-55511D01*
X50945Y-55530D01*
X51078Y-55511D02*
X51173Y-55911D01*
X51250Y-55626D01*
X51326Y-55911D01*
X51421Y-55511D01*
X51783Y-55911D02*
X51554Y-55911D01*
X51669Y-55911D02*
X51669Y-55511D01*
X51630Y-55569D01*
X51592Y-55607D01*
X51554Y-55626D01*
G54D20*
X40231Y-59848D02*
X40212Y-59839D01*
X40193Y-59820D01*
X40165Y-59792D01*
X40146Y-59782D01*
X40128Y-59782D01*
X40137Y-59829D02*
X40118Y-59820D01*
X40099Y-59801D01*
X40090Y-59764D01*
X40090Y-59698D01*
X40099Y-59660D01*
X40118Y-59642D01*
X40137Y-59632D01*
X40174Y-59632D01*
X40193Y-59642D01*
X40212Y-59660D01*
X40221Y-59698D01*
X40221Y-59764D01*
X40212Y-59801D01*
X40193Y-59820D01*
X40174Y-59829D01*
X40137Y-59829D01*
X40296Y-59651D02*
X40306Y-59642D01*
X40325Y-59632D01*
X40371Y-59632D01*
X40390Y-59642D01*
X40400Y-59651D01*
X40409Y-59670D01*
X40409Y-59689D01*
X40400Y-59717D01*
X40287Y-59829D01*
X40409Y-59829D01*
X46384Y-50313D02*
X46384Y-50156D01*
X46421Y-50156D01*
X46443Y-50164D01*
X46458Y-50178D01*
X46466Y-50193D01*
X46473Y-50223D01*
X46473Y-50246D01*
X46466Y-50276D01*
X46458Y-50291D01*
X46443Y-50306D01*
X46421Y-50313D01*
X46384Y-50313D01*
X46526Y-50156D02*
X46623Y-50156D01*
X46571Y-50216D01*
X46593Y-50216D01*
X46608Y-50223D01*
X46615Y-50231D01*
X46623Y-50246D01*
X46623Y-50283D01*
X46615Y-50298D01*
X46608Y-50306D01*
X46593Y-50313D01*
X46548Y-50313D01*
X46533Y-50306D01*
X46526Y-50298D01*
G54D24*
X39907Y-55732D02*
X39907Y-56096D01*
X39928Y-56139D01*
X39950Y-56160D01*
X39992Y-56182D01*
X40078Y-56182D01*
X40121Y-56160D01*
X40142Y-56139D01*
X40164Y-56096D01*
X40164Y-55732D01*
X40614Y-56182D02*
X40357Y-56182D01*
X40485Y-56182D02*
X40485Y-55732D01*
X40442Y-55796D01*
X40400Y-55839D01*
X40357Y-55860D01*
G54D13*
X30621Y-61300D02*
X30478Y-61400D01*
X30621Y-61471D02*
X30321Y-61471D01*
X30321Y-61357D01*
X30335Y-61328D01*
X30350Y-61314D01*
X30378Y-61300D01*
X30421Y-61300D01*
X30450Y-61314D01*
X30464Y-61328D01*
X30478Y-61357D01*
X30478Y-61471D01*
X30321Y-61028D02*
X30321Y-61171D01*
X30464Y-61185D01*
X30450Y-61171D01*
X30435Y-61142D01*
X30435Y-61071D01*
X30450Y-61042D01*
X30464Y-61028D01*
X30492Y-61014D01*
X30564Y-61014D01*
X30592Y-61028D01*
X30607Y-61042D01*
X30621Y-61071D01*
X30621Y-61142D01*
X30607Y-61171D01*
X30592Y-61185D01*
G54D19*
X52617Y-54330D02*
X52617Y-54130D01*
X52660Y-54130D01*
X52685Y-54140D01*
X52702Y-54159D01*
X52711Y-54178D01*
X52720Y-54216D01*
X52720Y-54245D01*
X52711Y-54283D01*
X52702Y-54302D01*
X52685Y-54321D01*
X52660Y-54330D01*
X52617Y-54330D01*
X52891Y-54330D02*
X52788Y-54330D01*
X52840Y-54330D02*
X52840Y-54130D01*
X52822Y-54159D01*
X52805Y-54178D01*
X52788Y-54188D01*
X45580Y-59780D02*
X45485Y-59840D01*
X45580Y-59882D02*
X45380Y-59882D01*
X45380Y-59814D01*
X45390Y-59797D01*
X45400Y-59788D01*
X45419Y-59780D01*
X45447Y-59780D01*
X45466Y-59788D01*
X45476Y-59797D01*
X45485Y-59814D01*
X45485Y-59882D01*
X45466Y-59677D02*
X45457Y-59694D01*
X45447Y-59702D01*
X45428Y-59711D01*
X45419Y-59711D01*
X45400Y-59702D01*
X45390Y-59694D01*
X45380Y-59677D01*
X45380Y-59642D01*
X45390Y-59625D01*
X45400Y-59617D01*
X45419Y-59608D01*
X45428Y-59608D01*
X45447Y-59617D01*
X45457Y-59625D01*
X45466Y-59642D01*
X45466Y-59677D01*
X45476Y-59694D01*
X45485Y-59702D01*
X45504Y-59711D01*
X45542Y-59711D01*
X45561Y-59702D01*
X45571Y-59694D01*
X45580Y-59677D01*
X45580Y-59642D01*
X45571Y-59625D01*
X45561Y-59617D01*
X45542Y-59608D01*
X45504Y-59608D01*
X45485Y-59617D01*
X45476Y-59625D01*
X45466Y-59642D01*
X42830Y-59280D02*
X42735Y-59340D01*
X42830Y-59382D02*
X42630Y-59382D01*
X42630Y-59314D01*
X42640Y-59297D01*
X42650Y-59288D01*
X42669Y-59280D01*
X42697Y-59280D01*
X42716Y-59288D01*
X42726Y-59297D01*
X42735Y-59314D01*
X42735Y-59382D01*
X42630Y-59125D02*
X42630Y-59160D01*
X42640Y-59177D01*
X42650Y-59185D01*
X42678Y-59202D01*
X42716Y-59211D01*
X42792Y-59211D01*
X42811Y-59202D01*
X42821Y-59194D01*
X42830Y-59177D01*
X42830Y-59142D01*
X42821Y-59125D01*
X42811Y-59117D01*
X42792Y-59108D01*
X42745Y-59108D01*
X42726Y-59117D01*
X42716Y-59125D01*
X42707Y-59142D01*
X42707Y-59177D01*
X42716Y-59194D01*
X42726Y-59202D01*
X42745Y-59211D01*
X47330Y-59780D02*
X47235Y-59840D01*
X47330Y-59882D02*
X47130Y-59882D01*
X47130Y-59814D01*
X47140Y-59797D01*
X47150Y-59788D01*
X47169Y-59780D01*
X47197Y-59780D01*
X47216Y-59788D01*
X47226Y-59797D01*
X47235Y-59814D01*
X47235Y-59882D01*
X47130Y-59720D02*
X47130Y-59608D01*
X47207Y-59668D01*
X47207Y-59642D01*
X47216Y-59625D01*
X47226Y-59617D01*
X47245Y-59608D01*
X47292Y-59608D01*
X47311Y-59617D01*
X47321Y-59625D01*
X47330Y-59642D01*
X47330Y-59694D01*
X47321Y-59711D01*
X47311Y-59720D01*
X49720Y-54330D02*
X49660Y-54235D01*
X49617Y-54330D02*
X49617Y-54130D01*
X49685Y-54130D01*
X49702Y-54140D01*
X49711Y-54150D01*
X49720Y-54169D01*
X49720Y-54197D01*
X49711Y-54216D01*
X49702Y-54226D01*
X49685Y-54235D01*
X49617Y-54235D01*
X49780Y-54130D02*
X49900Y-54130D01*
X49822Y-54330D01*
X42330Y-54030D02*
X42235Y-54090D01*
X42330Y-54132D02*
X42130Y-54132D01*
X42130Y-54064D01*
X42140Y-54047D01*
X42150Y-54038D01*
X42169Y-54030D01*
X42197Y-54030D01*
X42216Y-54038D01*
X42226Y-54047D01*
X42235Y-54064D01*
X42235Y-54132D01*
X42150Y-53961D02*
X42140Y-53952D01*
X42130Y-53935D01*
X42130Y-53892D01*
X42140Y-53875D01*
X42150Y-53867D01*
X42169Y-53858D01*
X42188Y-53858D01*
X42216Y-53867D01*
X42330Y-53970D01*
X42330Y-53858D01*
X39811Y-58530D02*
X39821Y-58538D01*
X39830Y-58564D01*
X39830Y-58581D01*
X39821Y-58607D01*
X39802Y-58624D01*
X39783Y-58632D01*
X39745Y-58641D01*
X39716Y-58641D01*
X39678Y-58632D01*
X39659Y-58624D01*
X39640Y-58607D01*
X39630Y-58581D01*
X39630Y-58564D01*
X39640Y-58538D01*
X39650Y-58530D01*
X39650Y-58461D02*
X39640Y-58452D01*
X39630Y-58435D01*
X39630Y-58392D01*
X39640Y-58375D01*
X39650Y-58367D01*
X39669Y-58358D01*
X39688Y-58358D01*
X39716Y-58367D01*
X39830Y-58470D01*
X39830Y-58358D01*
X44330Y-56030D02*
X44235Y-56090D01*
X44330Y-56132D02*
X44130Y-56132D01*
X44130Y-56064D01*
X44140Y-56047D01*
X44150Y-56038D01*
X44169Y-56030D01*
X44197Y-56030D01*
X44216Y-56038D01*
X44226Y-56047D01*
X44235Y-56064D01*
X44235Y-56132D01*
X44197Y-55875D02*
X44330Y-55875D01*
X44121Y-55918D02*
X44264Y-55961D01*
X44264Y-55850D01*
X44311Y-57280D02*
X44321Y-57288D01*
X44330Y-57314D01*
X44330Y-57331D01*
X44321Y-57357D01*
X44302Y-57374D01*
X44283Y-57382D01*
X44245Y-57391D01*
X44216Y-57391D01*
X44178Y-57382D01*
X44159Y-57374D01*
X44140Y-57357D01*
X44130Y-57331D01*
X44130Y-57314D01*
X44140Y-57288D01*
X44150Y-57280D01*
X44330Y-57108D02*
X44330Y-57211D01*
X44330Y-57160D02*
X44130Y-57160D01*
X44159Y-57177D01*
X44178Y-57194D01*
X44188Y-57211D01*
X45061Y-53280D02*
X45071Y-53288D01*
X45080Y-53314D01*
X45080Y-53331D01*
X45071Y-53357D01*
X45052Y-53374D01*
X45033Y-53382D01*
X44995Y-53391D01*
X44966Y-53391D01*
X44928Y-53382D01*
X44909Y-53374D01*
X44890Y-53357D01*
X44880Y-53331D01*
X44880Y-53314D01*
X44890Y-53288D01*
X44900Y-53280D01*
X44880Y-53220D02*
X44880Y-53100D01*
X45080Y-53177D01*
X37884Y-62830D02*
X37824Y-62735D01*
X37781Y-62830D02*
X37781Y-62630D01*
X37850Y-62630D01*
X37867Y-62640D01*
X37875Y-62650D01*
X37884Y-62669D01*
X37884Y-62697D01*
X37875Y-62716D01*
X37867Y-62726D01*
X37850Y-62735D01*
X37781Y-62735D01*
X38055Y-62830D02*
X37952Y-62830D01*
X38004Y-62830D02*
X38004Y-62630D01*
X37987Y-62659D01*
X37970Y-62678D01*
X37952Y-62688D01*
X38124Y-62650D02*
X38132Y-62640D01*
X38150Y-62630D01*
X38192Y-62630D01*
X38210Y-62640D01*
X38218Y-62650D01*
X38227Y-62669D01*
X38227Y-62688D01*
X38218Y-62716D01*
X38115Y-62830D01*
X38227Y-62830D01*
X38080Y-58615D02*
X37985Y-58675D01*
X38080Y-58718D02*
X37880Y-58718D01*
X37880Y-58650D01*
X37890Y-58632D01*
X37900Y-58624D01*
X37919Y-58615D01*
X37947Y-58615D01*
X37966Y-58624D01*
X37976Y-58632D01*
X37985Y-58650D01*
X37985Y-58718D01*
X38080Y-58444D02*
X38080Y-58547D01*
X38080Y-58495D02*
X37880Y-58495D01*
X37909Y-58512D01*
X37928Y-58530D01*
X37938Y-58547D01*
X38080Y-58272D02*
X38080Y-58375D01*
X38080Y-58324D02*
X37880Y-58324D01*
X37909Y-58341D01*
X37928Y-58358D01*
X37938Y-58375D01*
X47720Y-48061D02*
X47711Y-48071D01*
X47685Y-48080D01*
X47668Y-48080D01*
X47642Y-48071D01*
X47625Y-48052D01*
X47617Y-48033D01*
X47608Y-47995D01*
X47608Y-47966D01*
X47617Y-47928D01*
X47625Y-47909D01*
X47642Y-47890D01*
X47668Y-47880D01*
X47685Y-47880D01*
X47711Y-47890D01*
X47720Y-47900D01*
X47874Y-47947D02*
X47874Y-48080D01*
X47831Y-47871D02*
X47788Y-48014D01*
X47900Y-48014D01*
X40830Y-54030D02*
X40735Y-54090D01*
X40830Y-54132D02*
X40630Y-54132D01*
X40630Y-54064D01*
X40640Y-54047D01*
X40650Y-54038D01*
X40669Y-54030D01*
X40697Y-54030D01*
X40716Y-54038D01*
X40726Y-54047D01*
X40735Y-54064D01*
X40735Y-54132D01*
X40830Y-53858D02*
X40830Y-53961D01*
X40830Y-53910D02*
X40630Y-53910D01*
X40659Y-53927D01*
X40678Y-53944D01*
X40688Y-53961D01*
X52617Y-53580D02*
X52617Y-53380D01*
X52660Y-53380D01*
X52685Y-53390D01*
X52702Y-53409D01*
X52711Y-53428D01*
X52720Y-53466D01*
X52720Y-53495D01*
X52711Y-53533D01*
X52702Y-53552D01*
X52685Y-53571D01*
X52660Y-53580D01*
X52617Y-53580D01*
X52788Y-53400D02*
X52797Y-53390D01*
X52814Y-53380D01*
X52857Y-53380D01*
X52874Y-53390D01*
X52882Y-53400D01*
X52891Y-53419D01*
X52891Y-53438D01*
X52882Y-53466D01*
X52780Y-53580D01*
X52891Y-53580D01*
X49720Y-53580D02*
X49660Y-53485D01*
X49617Y-53580D02*
X49617Y-53380D01*
X49685Y-53380D01*
X49702Y-53390D01*
X49711Y-53400D01*
X49720Y-53419D01*
X49720Y-53447D01*
X49711Y-53466D01*
X49702Y-53476D01*
X49685Y-53485D01*
X49617Y-53485D01*
X49805Y-53580D02*
X49840Y-53580D01*
X49857Y-53571D01*
X49865Y-53561D01*
X49882Y-53533D01*
X49891Y-53495D01*
X49891Y-53419D01*
X49882Y-53400D01*
X49874Y-53390D01*
X49857Y-53380D01*
X49822Y-53380D01*
X49805Y-53390D01*
X49797Y-53400D01*
X49788Y-53419D01*
X49788Y-53466D01*
X49797Y-53485D01*
X49805Y-53495D01*
X49822Y-53504D01*
X49857Y-53504D01*
X49874Y-53495D01*
X49882Y-53485D01*
X49891Y-53466D01*
X52617Y-52830D02*
X52617Y-52630D01*
X52660Y-52630D01*
X52685Y-52640D01*
X52702Y-52659D01*
X52711Y-52678D01*
X52720Y-52716D01*
X52720Y-52745D01*
X52711Y-52783D01*
X52702Y-52802D01*
X52685Y-52821D01*
X52660Y-52830D01*
X52617Y-52830D01*
X52874Y-52697D02*
X52874Y-52830D01*
X52831Y-52621D02*
X52788Y-52764D01*
X52900Y-52764D01*
X49634Y-52830D02*
X49574Y-52735D01*
X49531Y-52830D02*
X49531Y-52630D01*
X49600Y-52630D01*
X49617Y-52640D01*
X49625Y-52650D01*
X49634Y-52669D01*
X49634Y-52697D01*
X49625Y-52716D01*
X49617Y-52726D01*
X49600Y-52735D01*
X49531Y-52735D01*
X49805Y-52830D02*
X49702Y-52830D01*
X49754Y-52830D02*
X49754Y-52630D01*
X49737Y-52659D01*
X49720Y-52678D01*
X49702Y-52688D01*
X49917Y-52630D02*
X49934Y-52630D01*
X49951Y-52640D01*
X49960Y-52650D01*
X49968Y-52669D01*
X49977Y-52707D01*
X49977Y-52754D01*
X49968Y-52792D01*
X49960Y-52811D01*
X49951Y-52821D01*
X49934Y-52830D01*
X49917Y-52830D01*
X49900Y-52821D01*
X49891Y-52811D01*
X49882Y-52792D01*
X49874Y-52754D01*
X49874Y-52707D01*
X49882Y-52669D01*
X49891Y-52650D01*
X49900Y-52640D01*
X49917Y-52630D01*
X47720Y-52311D02*
X47711Y-52321D01*
X47685Y-52330D01*
X47668Y-52330D01*
X47642Y-52321D01*
X47625Y-52302D01*
X47617Y-52283D01*
X47608Y-52245D01*
X47608Y-52216D01*
X47617Y-52178D01*
X47625Y-52159D01*
X47642Y-52140D01*
X47668Y-52130D01*
X47685Y-52130D01*
X47711Y-52140D01*
X47720Y-52150D01*
X47874Y-52130D02*
X47840Y-52130D01*
X47822Y-52140D01*
X47814Y-52150D01*
X47797Y-52178D01*
X47788Y-52216D01*
X47788Y-52292D01*
X47797Y-52311D01*
X47805Y-52321D01*
X47822Y-52330D01*
X47857Y-52330D01*
X47874Y-52321D01*
X47882Y-52311D01*
X47891Y-52292D01*
X47891Y-52245D01*
X47882Y-52226D01*
X47874Y-52216D01*
X47857Y-52207D01*
X47822Y-52207D01*
X47805Y-52216D01*
X47797Y-52226D01*
X47788Y-52245D01*
G54D16*
X32300Y-52892D02*
X32300Y-53321D01*
X32271Y-53407D01*
X32214Y-53464D01*
X32128Y-53492D01*
X32071Y-53492D01*
X32900Y-53492D02*
X32557Y-53492D01*
X32728Y-53492D02*
X32728Y-52892D01*
X32671Y-52978D01*
X32614Y-53035D01*
X32557Y-53064D01*
G54D14*
X50945Y-48702D02*
X50945Y-49107D01*
X50964Y-49154D01*
X50983Y-49178D01*
X51021Y-49202D01*
X51097Y-49202D01*
X51135Y-49178D01*
X51154Y-49154D01*
X51173Y-49107D01*
X51173Y-48702D01*
X51535Y-48869D02*
X51535Y-49202D01*
X51440Y-48678D02*
X51345Y-49035D01*
X51592Y-49035D01*
G54D21*
X42967Y-50810D02*
X42957Y-50820D01*
X42929Y-50829D01*
X42910Y-50829D01*
X42882Y-50820D01*
X42863Y-50801D01*
X42854Y-50782D01*
X42845Y-50745D01*
X42845Y-50717D01*
X42854Y-50679D01*
X42863Y-50660D01*
X42882Y-50642D01*
X42910Y-50632D01*
X42929Y-50632D01*
X42957Y-50642D01*
X42967Y-50651D01*
X43145Y-50632D02*
X43051Y-50632D01*
X43042Y-50726D01*
X43051Y-50717D01*
X43070Y-50707D01*
X43117Y-50707D01*
X43136Y-50717D01*
X43145Y-50726D01*
X43154Y-50745D01*
X43154Y-50792D01*
X43145Y-50810D01*
X43136Y-50820D01*
X43117Y-50829D01*
X43070Y-50829D01*
X43051Y-50820D01*
X43042Y-50810D01*
X38967Y-50810D02*
X38957Y-50820D01*
X38929Y-50829D01*
X38910Y-50829D01*
X38882Y-50820D01*
X38863Y-50801D01*
X38854Y-50782D01*
X38845Y-50745D01*
X38845Y-50717D01*
X38854Y-50679D01*
X38863Y-50660D01*
X38882Y-50642D01*
X38910Y-50632D01*
X38929Y-50632D01*
X38957Y-50642D01*
X38967Y-50651D01*
X39032Y-50632D02*
X39154Y-50632D01*
X39089Y-50707D01*
X39117Y-50707D01*
X39136Y-50717D01*
X39145Y-50726D01*
X39154Y-50745D01*
X39154Y-50792D01*
X39145Y-50810D01*
X39136Y-50820D01*
X39117Y-50829D01*
X39060Y-50829D01*
X39042Y-50820D01*
X39032Y-50810D01*
G54D16*
X43557Y-48742D02*
X43557Y-48142D01*
X43785Y-48142D01*
X43842Y-48171D01*
X43871Y-48200D01*
X43900Y-48257D01*
X43900Y-48342D01*
X43871Y-48400D01*
X43842Y-48428D01*
X43785Y-48457D01*
X43557Y-48457D01*
X44471Y-48742D02*
X44128Y-48742D01*
X44300Y-48742D02*
X44300Y-48142D01*
X44242Y-48228D01*
X44185Y-48285D01*
X44128Y-48314D01*
G54D13*
X34657Y-55761D02*
X34657Y-56085D01*
X34678Y-56123D01*
X34700Y-56142D01*
X34742Y-56161D01*
X34828Y-56161D01*
X34871Y-56142D01*
X34892Y-56123D01*
X34914Y-56085D01*
X34914Y-55761D01*
X35085Y-55761D02*
X35364Y-55761D01*
X35214Y-55914D01*
X35278Y-55914D01*
X35321Y-55933D01*
X35342Y-55952D01*
X35364Y-55990D01*
X35364Y-56085D01*
X35342Y-56123D01*
X35321Y-56142D01*
X35278Y-56161D01*
X35150Y-56161D01*
X35107Y-56142D01*
X35085Y-56123D01*
G54D25*
X36684Y-60525D02*
X36684Y-59844D01*
X36847Y-59844D01*
X36887Y-59877D01*
X36908Y-59909D01*
X36928Y-59974D01*
X36928Y-60071D01*
X36908Y-60136D01*
X36887Y-60168D01*
X36847Y-60201D01*
X36684Y-60201D01*
X37091Y-59909D02*
X37112Y-59877D01*
X37152Y-59844D01*
X37254Y-59844D01*
X37295Y-59877D01*
X37315Y-59909D01*
X37336Y-59974D01*
X37336Y-60039D01*
X37315Y-60136D01*
X37071Y-60525D01*
X37336Y-60525D01*
G54D16*
G54D20*
X39134Y-53063D02*
X39134Y-52906D01*
X39171Y-52906D01*
X39193Y-52914D01*
X39208Y-52928D01*
X39216Y-52943D01*
X39223Y-52973D01*
X39223Y-52996D01*
X39216Y-53026D01*
X39208Y-53041D01*
X39193Y-53056D01*
X39171Y-53063D01*
X39134Y-53063D01*
X39365Y-52906D02*
X39291Y-52906D01*
X39283Y-52981D01*
X39291Y-52973D01*
X39306Y-52966D01*
X39343Y-52966D01*
X39358Y-52973D01*
X39365Y-52981D01*
X39373Y-52996D01*
X39373Y-53033D01*
X39365Y-53048D01*
X39358Y-53056D01*
X39343Y-53063D01*
X39306Y-53063D01*
X39291Y-53056D01*
X39283Y-53048D01*
X35134Y-52563D02*
X35134Y-52406D01*
X35171Y-52406D01*
X35193Y-52414D01*
X35208Y-52428D01*
X35216Y-52443D01*
X35223Y-52473D01*
X35223Y-52496D01*
X35216Y-52526D01*
X35208Y-52541D01*
X35193Y-52556D01*
X35171Y-52563D01*
X35134Y-52563D01*
X35358Y-52406D02*
X35328Y-52406D01*
X35313Y-52414D01*
X35306Y-52421D01*
X35291Y-52443D01*
X35283Y-52473D01*
X35283Y-52533D01*
X35291Y-52548D01*
X35298Y-52556D01*
X35313Y-52563D01*
X35343Y-52563D01*
X35358Y-52556D01*
X35365Y-52548D01*
X35373Y-52533D01*
X35373Y-52496D01*
X35365Y-52481D01*
X35358Y-52473D01*
X35343Y-52466D01*
X35313Y-52466D01*
X35298Y-52473D01*
X35291Y-52481D01*
X35283Y-52496D01*
X33063Y-59115D02*
X32906Y-59115D01*
X32906Y-59078D01*
X32914Y-59056D01*
X32928Y-59041D01*
X32943Y-59033D01*
X32973Y-59026D01*
X32996Y-59026D01*
X33026Y-59033D01*
X33041Y-59041D01*
X33056Y-59056D01*
X33063Y-59078D01*
X33063Y-59115D01*
X32906Y-58973D02*
X32906Y-58869D01*
X33063Y-58936D01*
X34063Y-59115D02*
X33906Y-59115D01*
X33906Y-59078D01*
X33914Y-59056D01*
X33928Y-59041D01*
X33943Y-59033D01*
X33973Y-59026D01*
X33996Y-59026D01*
X34026Y-59033D01*
X34041Y-59041D01*
X34056Y-59056D01*
X34063Y-59078D01*
X34063Y-59115D01*
X33973Y-58936D02*
X33966Y-58951D01*
X33958Y-58958D01*
X33943Y-58966D01*
X33936Y-58966D01*
X33921Y-58958D01*
X33914Y-58951D01*
X33906Y-58936D01*
X33906Y-58906D01*
X33914Y-58891D01*
X33921Y-58884D01*
X33936Y-58876D01*
X33943Y-58876D01*
X33958Y-58884D01*
X33966Y-58891D01*
X33973Y-58906D01*
X33973Y-58936D01*
X33981Y-58951D01*
X33988Y-58958D01*
X34003Y-58966D01*
X34033Y-58966D01*
X34048Y-58958D01*
X34056Y-58951D01*
X34063Y-58936D01*
X34063Y-58906D01*
X34056Y-58891D01*
X34048Y-58884D01*
X34033Y-58876D01*
X34003Y-58876D01*
X33988Y-58884D01*
X33981Y-58891D01*
X33973Y-58906D01*
G54D19*
X33634Y-53830D02*
X33574Y-53735D01*
X33531Y-53830D02*
X33531Y-53630D01*
X33600Y-53630D01*
X33617Y-53640D01*
X33625Y-53650D01*
X33634Y-53669D01*
X33634Y-53697D01*
X33625Y-53716D01*
X33617Y-53726D01*
X33600Y-53735D01*
X33531Y-53735D01*
X33805Y-53830D02*
X33702Y-53830D01*
X33754Y-53830D02*
X33754Y-53630D01*
X33737Y-53659D01*
X33720Y-53678D01*
X33702Y-53688D01*
X33865Y-53630D02*
X33977Y-53630D01*
X33917Y-53707D01*
X33942Y-53707D01*
X33960Y-53716D01*
X33968Y-53726D01*
X33977Y-53745D01*
X33977Y-53792D01*
X33968Y-53811D01*
X33960Y-53821D01*
X33942Y-53830D01*
X33891Y-53830D01*
X33874Y-53821D01*
X33865Y-53811D01*
X33634Y-54830D02*
X33574Y-54735D01*
X33531Y-54830D02*
X33531Y-54630D01*
X33600Y-54630D01*
X33617Y-54640D01*
X33625Y-54650D01*
X33634Y-54669D01*
X33634Y-54697D01*
X33625Y-54716D01*
X33617Y-54726D01*
X33600Y-54735D01*
X33531Y-54735D01*
X33805Y-54830D02*
X33702Y-54830D01*
X33754Y-54830D02*
X33754Y-54630D01*
X33737Y-54659D01*
X33720Y-54678D01*
X33702Y-54688D01*
X33960Y-54697D02*
X33960Y-54830D01*
X33917Y-54621D02*
X33874Y-54764D01*
X33985Y-54764D01*
X33634Y-55830D02*
X33574Y-55735D01*
X33531Y-55830D02*
X33531Y-55630D01*
X33600Y-55630D01*
X33617Y-55640D01*
X33625Y-55650D01*
X33634Y-55669D01*
X33634Y-55697D01*
X33625Y-55716D01*
X33617Y-55726D01*
X33600Y-55735D01*
X33531Y-55735D01*
X33805Y-55830D02*
X33702Y-55830D01*
X33754Y-55830D02*
X33754Y-55630D01*
X33737Y-55659D01*
X33720Y-55678D01*
X33702Y-55688D01*
X33968Y-55630D02*
X33882Y-55630D01*
X33874Y-55726D01*
X33882Y-55716D01*
X33900Y-55707D01*
X33942Y-55707D01*
X33960Y-55716D01*
X33968Y-55726D01*
X33977Y-55745D01*
X33977Y-55792D01*
X33968Y-55811D01*
X33960Y-55821D01*
X33942Y-55830D01*
X33900Y-55830D01*
X33882Y-55821D01*
X33874Y-55811D01*
X33634Y-56830D02*
X33574Y-56735D01*
X33531Y-56830D02*
X33531Y-56630D01*
X33600Y-56630D01*
X33617Y-56640D01*
X33625Y-56650D01*
X33634Y-56669D01*
X33634Y-56697D01*
X33625Y-56716D01*
X33617Y-56726D01*
X33600Y-56735D01*
X33531Y-56735D01*
X33805Y-56830D02*
X33702Y-56830D01*
X33754Y-56830D02*
X33754Y-56630D01*
X33737Y-56659D01*
X33720Y-56678D01*
X33702Y-56688D01*
X33960Y-56630D02*
X33925Y-56630D01*
X33908Y-56640D01*
X33900Y-56650D01*
X33882Y-56678D01*
X33874Y-56716D01*
X33874Y-56792D01*
X33882Y-56811D01*
X33891Y-56821D01*
X33908Y-56830D01*
X33942Y-56830D01*
X33960Y-56821D01*
X33968Y-56811D01*
X33977Y-56792D01*
X33977Y-56745D01*
X33968Y-56726D01*
X33960Y-56716D01*
X33942Y-56707D01*
X33908Y-56707D01*
X33891Y-56716D01*
X33882Y-56726D01*
X33874Y-56745D01*
G54D13*
X48657Y-55761D02*
X48657Y-56085D01*
X48678Y-56123D01*
X48700Y-56142D01*
X48742Y-56161D01*
X48828Y-56161D01*
X48871Y-56142D01*
X48892Y-56123D01*
X48914Y-56085D01*
X48914Y-55761D01*
X49107Y-55800D02*
X49128Y-55780D01*
X49171Y-55761D01*
X49278Y-55761D01*
X49321Y-55780D01*
X49342Y-55800D01*
X49364Y-55838D01*
X49364Y-55876D01*
X49342Y-55933D01*
X49085Y-56161D01*
X49364Y-56161D01*
G54D16*
X50792Y-62892D02*
X50792Y-63378D01*
X50821Y-63435D01*
X50850Y-63464D01*
X50907Y-63492D01*
X51021Y-63492D01*
X51078Y-63464D01*
X51107Y-63435D01*
X51135Y-63378D01*
X51135Y-62892D01*
X51707Y-62892D02*
X51421Y-62892D01*
X51392Y-63178D01*
X51421Y-63150D01*
X51478Y-63121D01*
X51621Y-63121D01*
X51678Y-63150D01*
X51707Y-63178D01*
X51735Y-63235D01*
X51735Y-63378D01*
X51707Y-63435D01*
X51678Y-63464D01*
X51621Y-63492D01*
X51478Y-63492D01*
X51421Y-63464D01*
X51392Y-63435D01*
G54D14*
X31333Y-48184D02*
X31166Y-48184D01*
X31166Y-48472D02*
X31166Y-47922D01*
X31404Y-47922D01*
X31857Y-48472D02*
X31571Y-48472D01*
X31714Y-48472D02*
X31714Y-47922D01*
X31666Y-48001D01*
X31619Y-48053D01*
X31571Y-48079D01*
X29945Y-49684D02*
X29778Y-49684D01*
X29778Y-49972D02*
X29778Y-49422D01*
X30016Y-49422D01*
X30207Y-49422D02*
X30207Y-49867D01*
X30230Y-49920D01*
X30254Y-49946D01*
X30302Y-49972D01*
X30397Y-49972D01*
X30445Y-49946D01*
X30469Y-49920D01*
X30492Y-49867D01*
X30492Y-49422D01*
X30707Y-49946D02*
X30778Y-49972D01*
X30897Y-49972D01*
X30945Y-49946D01*
X30969Y-49920D01*
X30992Y-49867D01*
X30992Y-49815D01*
X30969Y-49763D01*
X30945Y-49736D01*
X30897Y-49710D01*
X30802Y-49684D01*
X30754Y-49658D01*
X30730Y-49632D01*
X30707Y-49579D01*
X30707Y-49527D01*
X30730Y-49475D01*
X30754Y-49448D01*
X30802Y-49422D01*
X30921Y-49422D01*
X30992Y-49448D01*
X31207Y-49684D02*
X31373Y-49684D01*
X31445Y-49972D02*
X31207Y-49972D01*
X31207Y-49422D01*
X31445Y-49422D01*
G54D10*
G36*
X31629Y-67450D02*
X30870Y-67450D01*
X31250Y-67070D01*
X31629Y-67450D01*
X31629Y-67450D01*
G37*
G54D26*
X31629Y-67450D02*
X30870Y-67450D01*
X31250Y-67070D01*
X31629Y-67450D01*
G54D10*
G36*
X51379Y-67450D02*
X50620Y-67450D01*
X51000Y-67070D01*
X51379Y-67450D01*
X51379Y-67450D01*
G37*
G54D26*
X51379Y-67450D02*
X50620Y-67450D01*
X51000Y-67070D01*
X51379Y-67450D01*
M02*
