G04 (created by PCBNEW (2013-may-18)-stable) date Wed 22 Oct 2014 05:26:26 PM CEST*
%MOIN*%
G04 Gerber Fmt 3.4, Leading zero omitted, Abs format*
%FSLAX34Y34*%
G01*
G70*
G90*
G04 APERTURE LIST*
%ADD10C,0.00590551*%
%ADD11C,0.12*%
%ADD12R,0.06X0.06*%
%ADD13C,0.06*%
%ADD14C,0.137795*%
%ADD15C,0.11811*%
%ADD16R,0.0591X0.0591*%
%ADD17C,0.0591*%
%ADD18C,0.0984252*%
%ADD19C,0.0689*%
%ADD20C,0.055*%
%ADD21C,0.1437*%
%ADD22R,0.1X0.1*%
%ADD23C,0.1*%
%ADD24R,0.055X0.055*%
%ADD25C,0.177165*%
%ADD26C,0.1575*%
%ADD27C,0.023622*%
%ADD28C,0.035*%
%ADD29C,0.0393701*%
%ADD30C,0.019685*%
%ADD31C,0.0067*%
%ADD32C,0.00669291*%
G04 APERTURE END LIST*
G54D10*
G54D11*
X57300Y-65800D03*
X48700Y-65800D03*
G54D12*
X51000Y-66500D03*
G54D13*
X51000Y-65500D03*
X52000Y-66500D03*
X52000Y-65500D03*
X53000Y-66500D03*
X53000Y-65500D03*
X54000Y-66500D03*
X54000Y-65500D03*
X55000Y-66500D03*
X55000Y-65500D03*
G54D14*
X61850Y-65150D03*
X61850Y-84850D03*
X44150Y-84850D03*
X44150Y-65150D03*
G54D15*
X51250Y-83250D03*
X46750Y-83250D03*
G54D16*
X47250Y-80750D03*
G54D17*
X47750Y-79750D03*
X48250Y-80750D03*
X48750Y-79750D03*
X49250Y-80750D03*
X49750Y-79750D03*
X50250Y-80750D03*
X50750Y-79750D03*
G54D18*
X45950Y-82049D03*
X52050Y-82049D03*
G54D15*
X59250Y-83250D03*
X54750Y-83250D03*
G54D16*
X55250Y-80750D03*
G54D17*
X55750Y-79750D03*
X56250Y-80750D03*
X56750Y-79750D03*
X57250Y-80750D03*
X57750Y-79750D03*
X58250Y-80750D03*
X58750Y-79750D03*
G54D18*
X53950Y-82049D03*
X60050Y-82049D03*
G54D15*
X39500Y-83250D03*
X35000Y-83250D03*
G54D16*
X35500Y-80750D03*
G54D17*
X36000Y-79750D03*
X36500Y-80750D03*
X37000Y-79750D03*
X37500Y-80750D03*
X38000Y-79750D03*
X38500Y-80750D03*
X39000Y-79750D03*
G54D18*
X34200Y-82049D03*
X40300Y-82049D03*
G54D15*
X31500Y-83250D03*
X27000Y-83250D03*
G54D16*
X27500Y-80750D03*
G54D17*
X28000Y-79750D03*
X28500Y-80750D03*
X29000Y-79750D03*
X29500Y-80750D03*
X30000Y-79750D03*
X30500Y-80750D03*
X31000Y-79750D03*
G54D18*
X26200Y-82049D03*
X32300Y-82049D03*
G54D14*
X24400Y-65150D03*
X24400Y-84850D03*
X42100Y-84850D03*
X42100Y-65150D03*
G54D11*
X37550Y-65800D03*
X28950Y-65800D03*
G54D12*
X31250Y-66500D03*
G54D13*
X31250Y-65500D03*
X32250Y-66500D03*
X32250Y-65500D03*
X33250Y-66500D03*
X33250Y-65500D03*
X34250Y-66500D03*
X34250Y-65500D03*
X35250Y-66500D03*
X35250Y-65500D03*
G54D19*
X43984Y-60258D03*
X43000Y-61242D03*
X42016Y-60258D03*
G54D20*
X50250Y-56250D03*
X52250Y-56250D03*
X50250Y-59250D03*
X52250Y-59250D03*
G54D21*
X27750Y-58250D03*
X27750Y-53750D03*
G54D16*
X30250Y-54250D03*
G54D17*
X31250Y-54750D03*
X30250Y-55250D03*
X31250Y-55750D03*
X30250Y-56250D03*
X31250Y-56750D03*
X30250Y-57250D03*
X31250Y-57750D03*
G54D18*
X28950Y-52950D03*
X28950Y-59050D03*
G54D22*
X42000Y-48250D03*
G54D23*
X40000Y-48250D03*
G54D24*
X34000Y-61250D03*
G54D20*
X35000Y-61250D03*
X36000Y-61250D03*
X37000Y-61250D03*
X38000Y-61250D03*
X39000Y-61250D03*
X40000Y-61250D03*
G54D25*
X25000Y-48250D03*
X54500Y-48250D03*
X54500Y-62250D03*
X25000Y-62250D03*
G54D26*
X27000Y-50250D03*
X36000Y-50250D03*
G54D27*
X44000Y-71750D03*
X45500Y-67250D03*
X46750Y-75500D03*
X27000Y-75500D03*
X25750Y-67250D03*
X24250Y-71750D03*
X49250Y-55000D03*
X53750Y-55000D03*
X48000Y-71750D03*
X46250Y-67250D03*
X26500Y-67250D03*
X28250Y-71750D03*
X47250Y-58250D03*
X40000Y-58250D03*
X44000Y-58250D03*
X38500Y-55500D03*
X35000Y-55500D03*
X37000Y-56000D03*
X35500Y-58250D03*
X37000Y-58250D03*
X35500Y-56000D03*
G54D28*
X47000Y-55750D03*
G54D27*
X49750Y-55750D03*
X37000Y-57750D03*
X38500Y-57750D03*
X37500Y-54250D03*
X39000Y-54250D03*
X49500Y-84750D03*
X56000Y-84750D03*
X36250Y-84750D03*
X29750Y-84750D03*
X55750Y-79000D03*
X52250Y-79000D03*
X32500Y-79000D03*
X36000Y-79000D03*
X52750Y-81000D03*
X33000Y-81000D03*
X33000Y-56250D03*
X56500Y-84250D03*
X50000Y-84250D03*
X30250Y-84250D03*
X36750Y-84250D03*
X33000Y-55250D03*
X56000Y-76250D03*
X57250Y-76250D03*
X37500Y-76250D03*
X36250Y-76250D03*
X50250Y-72250D03*
X51750Y-72250D03*
X53250Y-72250D03*
X54750Y-72250D03*
X56250Y-72250D03*
X57750Y-72250D03*
X59250Y-72250D03*
X60750Y-72250D03*
X41000Y-72250D03*
X39500Y-72250D03*
X38000Y-72250D03*
X36500Y-72250D03*
X35000Y-72250D03*
X33500Y-72250D03*
X32000Y-72250D03*
X30500Y-72250D03*
X46250Y-59250D03*
X34500Y-57000D03*
X37500Y-56500D03*
X33500Y-57750D03*
X36000Y-57750D03*
X34500Y-56250D03*
X36500Y-53000D03*
X36500Y-54250D03*
X54000Y-77500D03*
X52500Y-77500D03*
X32750Y-77500D03*
X34250Y-77500D03*
X54500Y-76500D03*
X58500Y-77000D03*
X38750Y-77000D03*
X34750Y-76500D03*
X51750Y-79500D03*
X53500Y-79500D03*
X58000Y-82000D03*
X55250Y-82000D03*
X35500Y-82000D03*
X38250Y-82000D03*
X33750Y-79500D03*
X32000Y-79500D03*
X33000Y-57250D03*
X58500Y-68000D03*
X58500Y-65000D03*
X38750Y-65000D03*
X38750Y-68000D03*
X55500Y-68000D03*
X35750Y-68000D03*
X52250Y-67750D03*
X32500Y-67750D03*
X40750Y-58750D03*
X46250Y-57750D03*
X42250Y-57750D03*
G54D29*
X47750Y-79750D02*
X48750Y-79750D01*
X55750Y-79750D02*
X56750Y-79750D01*
X48750Y-78750D02*
X48750Y-79750D01*
X48750Y-78750D02*
X48750Y-78750D01*
X48750Y-78750D02*
X50500Y-77000D01*
X50500Y-77000D02*
X50500Y-77000D01*
X56750Y-78250D02*
X55500Y-77000D01*
X56750Y-79750D02*
X56750Y-78250D01*
X54000Y-77000D02*
X55500Y-77000D01*
X50500Y-77000D02*
X54000Y-77000D01*
G54D30*
X44000Y-67750D02*
X44000Y-71750D01*
X44000Y-67750D02*
X44500Y-67250D01*
X44500Y-67250D02*
X45500Y-67250D01*
G54D29*
X51000Y-65500D02*
X51000Y-66500D01*
X53250Y-67250D02*
X54000Y-68000D01*
X51250Y-67250D02*
X53250Y-67250D01*
X51000Y-67000D02*
X51250Y-67250D01*
X51000Y-67000D02*
X51000Y-66500D01*
X54000Y-76250D02*
X54000Y-68000D01*
X54000Y-77000D02*
X54000Y-76250D01*
G54D30*
X46750Y-75500D02*
X46750Y-78750D01*
X46750Y-78750D02*
X47750Y-79750D01*
X27000Y-78750D02*
X28000Y-79750D01*
X27000Y-75500D02*
X27000Y-78750D01*
G54D29*
X34250Y-77000D02*
X34250Y-76250D01*
X34250Y-76250D02*
X34250Y-68000D01*
X31250Y-67000D02*
X31250Y-66500D01*
X31250Y-67000D02*
X31500Y-67250D01*
X31500Y-67250D02*
X33500Y-67250D01*
X33500Y-67250D02*
X34250Y-68000D01*
X31250Y-65500D02*
X31250Y-66500D01*
G54D30*
X24750Y-67250D02*
X25750Y-67250D01*
X24250Y-67750D02*
X24750Y-67250D01*
X24250Y-67750D02*
X24250Y-71750D01*
G54D29*
X30750Y-77000D02*
X34250Y-77000D01*
X34250Y-77000D02*
X35750Y-77000D01*
X37000Y-79750D02*
X37000Y-78250D01*
X37000Y-78250D02*
X35750Y-77000D01*
X30750Y-77000D02*
X30750Y-77000D01*
X29000Y-78750D02*
X30750Y-77000D01*
X29000Y-78750D02*
X29000Y-78750D01*
X29000Y-78750D02*
X29000Y-79750D01*
X36000Y-79750D02*
X37000Y-79750D01*
X28000Y-79750D02*
X29000Y-79750D01*
G54D30*
X53750Y-55000D02*
X49250Y-55000D01*
X48000Y-68000D02*
X48000Y-71750D01*
X47750Y-67750D02*
X48000Y-68000D01*
X46750Y-67750D02*
X47750Y-67750D01*
X46250Y-67250D02*
X46750Y-67750D01*
X26500Y-67250D02*
X27000Y-67750D01*
X27000Y-67750D02*
X28000Y-67750D01*
X28000Y-67750D02*
X28250Y-68000D01*
X28250Y-68000D02*
X28250Y-71750D01*
X46250Y-58250D02*
X47250Y-58250D01*
X44000Y-58250D02*
X40000Y-58250D01*
X44000Y-58250D02*
X46250Y-58250D01*
X35000Y-55500D02*
X38500Y-55500D01*
X35500Y-56000D02*
X37000Y-56000D01*
X37000Y-58250D02*
X35500Y-58250D01*
X44750Y-55750D02*
X40500Y-55750D01*
X46250Y-55750D02*
X47000Y-55750D01*
X47000Y-55750D02*
X49250Y-55750D01*
X45250Y-55750D02*
X46250Y-55750D01*
X44750Y-55750D02*
X45250Y-55750D01*
X49500Y-55750D02*
X49750Y-55750D01*
X49250Y-55750D02*
X49500Y-55750D01*
X38500Y-57750D02*
X37000Y-57750D01*
X39750Y-57750D02*
X38500Y-57750D01*
X40500Y-55750D02*
X40250Y-55750D01*
X40250Y-55750D02*
X40250Y-54500D01*
X39750Y-54250D02*
X39000Y-54250D01*
X40000Y-54250D02*
X40250Y-54500D01*
X39750Y-54250D02*
X40000Y-54250D01*
X40250Y-57250D02*
X40250Y-55750D01*
X40250Y-57250D02*
X39750Y-57750D01*
X37500Y-54250D02*
X39000Y-54250D01*
X49500Y-84750D02*
X56000Y-84750D01*
X29750Y-84750D02*
X36250Y-84750D01*
X55750Y-79000D02*
X52250Y-79000D01*
X36000Y-79000D02*
X32500Y-79000D01*
X52750Y-81000D02*
X54000Y-81000D01*
X54000Y-81000D02*
X54250Y-81000D01*
X54250Y-81000D02*
X54750Y-81500D01*
X54750Y-81500D02*
X57000Y-81500D01*
X57000Y-81500D02*
X57250Y-81250D01*
X57250Y-81250D02*
X57250Y-80750D01*
X37500Y-81250D02*
X37500Y-80750D01*
X37250Y-81500D02*
X37500Y-81250D01*
X35000Y-81500D02*
X37250Y-81500D01*
X34500Y-81000D02*
X35000Y-81500D01*
X34250Y-81000D02*
X34500Y-81000D01*
X33000Y-81000D02*
X34250Y-81000D01*
X30250Y-56250D02*
X33000Y-56250D01*
X50000Y-84250D02*
X56500Y-84250D01*
X30250Y-84250D02*
X36750Y-84250D01*
X33000Y-55250D02*
X30250Y-55250D01*
X56000Y-76250D02*
X56750Y-76250D01*
X56750Y-76250D02*
X57250Y-76250D01*
X37000Y-76250D02*
X37500Y-76250D01*
X36250Y-76250D02*
X37000Y-76250D01*
X46250Y-59250D02*
X50250Y-59250D01*
X37500Y-56500D02*
X35000Y-56500D01*
X35000Y-56500D02*
X34750Y-56750D01*
X34750Y-56750D02*
X34500Y-57000D01*
X34500Y-57000D02*
X34500Y-57000D01*
X33500Y-57750D02*
X36000Y-57750D01*
X34500Y-56250D02*
X33500Y-57250D01*
X33500Y-57250D02*
X33500Y-57750D01*
X36500Y-53000D02*
X36500Y-54250D01*
X52500Y-77500D02*
X54000Y-77500D01*
X32750Y-77500D02*
X34250Y-77500D01*
X55750Y-76500D02*
X56250Y-77000D01*
X56250Y-77000D02*
X58500Y-77000D01*
X54500Y-76500D02*
X55750Y-76500D01*
X34750Y-76500D02*
X36000Y-76500D01*
X36500Y-77000D02*
X38750Y-77000D01*
X36000Y-76500D02*
X36500Y-77000D01*
X51750Y-79500D02*
X53500Y-79500D01*
X55250Y-82000D02*
X58000Y-82000D01*
X35500Y-82000D02*
X38250Y-82000D01*
X32000Y-79500D02*
X33750Y-79500D01*
X33000Y-57250D02*
X30250Y-57250D01*
X58500Y-65000D02*
X58500Y-68000D01*
X38750Y-65000D02*
X38750Y-68000D01*
X54250Y-64750D02*
X54000Y-65000D01*
X54000Y-65000D02*
X54000Y-65500D01*
X55750Y-67000D02*
X55750Y-65000D01*
X55500Y-68000D02*
X55500Y-67500D01*
X55500Y-67500D02*
X55750Y-67250D01*
X55750Y-67250D02*
X55750Y-67000D01*
X55750Y-65000D02*
X55500Y-64750D01*
X55500Y-64750D02*
X54250Y-64750D01*
X35750Y-64750D02*
X34500Y-64750D01*
X36000Y-65000D02*
X35750Y-64750D01*
X36000Y-67250D02*
X36000Y-67000D01*
X35750Y-67500D02*
X36000Y-67250D01*
X35750Y-68000D02*
X35750Y-67500D01*
X36000Y-67000D02*
X36000Y-65000D01*
X34250Y-65000D02*
X34250Y-65500D01*
X34500Y-64750D02*
X34250Y-65000D01*
X52250Y-67750D02*
X52250Y-67750D01*
X52250Y-67750D02*
X52250Y-67750D01*
X50500Y-64750D02*
X52750Y-64750D01*
X50250Y-65000D02*
X50500Y-64750D01*
X50250Y-67250D02*
X50250Y-67000D01*
X50750Y-67750D02*
X50250Y-67250D01*
X50250Y-67000D02*
X50250Y-65000D01*
X53000Y-65500D02*
X53000Y-65000D01*
X52750Y-64750D02*
X53000Y-65000D01*
X50750Y-67750D02*
X52250Y-67750D01*
X31000Y-67750D02*
X32500Y-67750D01*
X33000Y-64750D02*
X33250Y-65000D01*
X33250Y-65500D02*
X33250Y-65000D01*
X30500Y-67000D02*
X30500Y-65000D01*
X31000Y-67750D02*
X30500Y-67250D01*
X30500Y-67250D02*
X30500Y-67000D01*
X30500Y-65000D02*
X30750Y-64750D01*
X30750Y-64750D02*
X33000Y-64750D01*
X32500Y-67750D02*
X32500Y-67750D01*
X32500Y-67750D02*
X32500Y-67750D01*
X31750Y-57750D02*
X32750Y-58750D01*
X32750Y-58750D02*
X40750Y-58750D01*
X31250Y-57750D02*
X31750Y-57750D01*
X46250Y-57750D02*
X42250Y-57750D01*
G54D10*
G36*
X42966Y-85716D02*
X42922Y-85716D01*
X42922Y-84687D01*
X42922Y-64987D01*
X42797Y-64684D01*
X42566Y-64453D01*
X42264Y-64327D01*
X41937Y-64327D01*
X41634Y-64452D01*
X41403Y-64683D01*
X41277Y-64985D01*
X41277Y-65312D01*
X41402Y-65615D01*
X41633Y-65846D01*
X41935Y-65972D01*
X42262Y-65972D01*
X42565Y-65847D01*
X42796Y-65616D01*
X42922Y-65314D01*
X42922Y-64987D01*
X42922Y-84687D01*
X42797Y-84384D01*
X42566Y-84153D01*
X42264Y-84027D01*
X41937Y-84027D01*
X41634Y-84152D01*
X41403Y-84383D01*
X41277Y-84685D01*
X41277Y-85012D01*
X41402Y-85315D01*
X41633Y-85546D01*
X41935Y-85672D01*
X42262Y-85672D01*
X42565Y-85547D01*
X42796Y-85316D01*
X42922Y-85014D01*
X42922Y-84687D01*
X42922Y-85716D01*
X40925Y-85716D01*
X40925Y-81925D01*
X40830Y-81695D01*
X40654Y-81519D01*
X40424Y-81423D01*
X40176Y-81423D01*
X39946Y-81518D01*
X39769Y-81694D01*
X39674Y-81924D01*
X39674Y-82173D01*
X39769Y-82403D01*
X39945Y-82579D01*
X40175Y-82674D01*
X40423Y-82674D01*
X40653Y-82579D01*
X40830Y-82404D01*
X40925Y-82174D01*
X40925Y-81925D01*
X40925Y-85716D01*
X40224Y-85716D01*
X40224Y-83106D01*
X40114Y-82840D01*
X39910Y-82636D01*
X39644Y-82526D01*
X39399Y-82525D01*
X39399Y-79694D01*
X39390Y-79648D01*
X39350Y-79607D01*
X39208Y-79750D01*
X39350Y-79892D01*
X39390Y-79851D01*
X39399Y-79694D01*
X39399Y-82525D01*
X39356Y-82525D01*
X39142Y-82614D01*
X39142Y-80100D01*
X39142Y-79399D01*
X39101Y-79359D01*
X39001Y-79353D01*
X39001Y-76950D01*
X39001Y-67950D01*
X38981Y-67902D01*
X38981Y-65097D01*
X39001Y-65050D01*
X39001Y-64950D01*
X38963Y-64857D01*
X38892Y-64786D01*
X38800Y-64748D01*
X38700Y-64748D01*
X38607Y-64786D01*
X38536Y-64857D01*
X38498Y-64949D01*
X38498Y-65049D01*
X38518Y-65097D01*
X38518Y-67902D01*
X38498Y-67949D01*
X38498Y-68049D01*
X38536Y-68142D01*
X38607Y-68213D01*
X38699Y-68251D01*
X38799Y-68251D01*
X38892Y-68213D01*
X38963Y-68142D01*
X39001Y-68050D01*
X39001Y-67950D01*
X39001Y-76950D01*
X38963Y-76857D01*
X38892Y-76786D01*
X38800Y-76748D01*
X38700Y-76748D01*
X38652Y-76768D01*
X38283Y-76768D01*
X38283Y-65654D01*
X38172Y-65385D01*
X37966Y-65178D01*
X37696Y-65066D01*
X37404Y-65066D01*
X37135Y-65177D01*
X36928Y-65383D01*
X36816Y-65653D01*
X36816Y-65945D01*
X36927Y-66214D01*
X37133Y-66421D01*
X37403Y-66533D01*
X37695Y-66533D01*
X37964Y-66422D01*
X38171Y-66216D01*
X38283Y-65946D01*
X38283Y-65654D01*
X38283Y-76768D01*
X36596Y-76768D01*
X36320Y-76492D01*
X36347Y-76481D01*
X37000Y-76481D01*
X37402Y-76481D01*
X37449Y-76501D01*
X37549Y-76501D01*
X37642Y-76463D01*
X37713Y-76392D01*
X37751Y-76300D01*
X37751Y-76200D01*
X37713Y-76107D01*
X37642Y-76036D01*
X37550Y-75998D01*
X37450Y-75998D01*
X37402Y-76018D01*
X37000Y-76018D01*
X36347Y-76018D01*
X36300Y-75998D01*
X36231Y-75998D01*
X36231Y-67250D01*
X36231Y-67000D01*
X36231Y-65000D01*
X36214Y-64911D01*
X36163Y-64836D01*
X36163Y-64836D01*
X35913Y-64586D01*
X35838Y-64535D01*
X35750Y-64518D01*
X35749Y-64518D01*
X34500Y-64518D01*
X34411Y-64535D01*
X34336Y-64586D01*
X34336Y-64586D01*
X34086Y-64836D01*
X34035Y-64911D01*
X34018Y-65000D01*
X34018Y-65000D01*
X34018Y-65126D01*
X34004Y-65132D01*
X33882Y-65254D01*
X33816Y-65413D01*
X33816Y-65585D01*
X33882Y-65745D01*
X34004Y-65867D01*
X34163Y-65933D01*
X34335Y-65933D01*
X34495Y-65867D01*
X34617Y-65745D01*
X34683Y-65586D01*
X34683Y-65414D01*
X34617Y-65254D01*
X34495Y-65132D01*
X34481Y-65126D01*
X34481Y-65096D01*
X34596Y-64981D01*
X35653Y-64981D01*
X35768Y-65096D01*
X35768Y-67000D01*
X35768Y-67153D01*
X35683Y-67238D01*
X35683Y-66414D01*
X35683Y-65414D01*
X35617Y-65254D01*
X35495Y-65132D01*
X35336Y-65066D01*
X35164Y-65066D01*
X35004Y-65132D01*
X34882Y-65254D01*
X34816Y-65413D01*
X34816Y-65585D01*
X34882Y-65745D01*
X35004Y-65867D01*
X35163Y-65933D01*
X35335Y-65933D01*
X35495Y-65867D01*
X35617Y-65745D01*
X35683Y-65586D01*
X35683Y-65414D01*
X35683Y-66414D01*
X35617Y-66254D01*
X35495Y-66132D01*
X35336Y-66066D01*
X35164Y-66066D01*
X35004Y-66132D01*
X34882Y-66254D01*
X34816Y-66413D01*
X34816Y-66585D01*
X34882Y-66745D01*
X35004Y-66867D01*
X35163Y-66933D01*
X35335Y-66933D01*
X35495Y-66867D01*
X35617Y-66745D01*
X35683Y-66586D01*
X35683Y-66414D01*
X35683Y-67238D01*
X35586Y-67336D01*
X35535Y-67411D01*
X35518Y-67500D01*
X35518Y-67500D01*
X35518Y-67902D01*
X35498Y-67949D01*
X35498Y-68049D01*
X35536Y-68142D01*
X35607Y-68213D01*
X35699Y-68251D01*
X35799Y-68251D01*
X35892Y-68213D01*
X35963Y-68142D01*
X36001Y-68050D01*
X36001Y-67950D01*
X35981Y-67902D01*
X35981Y-67596D01*
X36163Y-67413D01*
X36163Y-67413D01*
X36163Y-67413D01*
X36214Y-67338D01*
X36231Y-67250D01*
X36231Y-75998D01*
X36200Y-75998D01*
X36107Y-76036D01*
X36036Y-76107D01*
X35998Y-76199D01*
X35998Y-76268D01*
X34847Y-76268D01*
X34800Y-76248D01*
X34700Y-76248D01*
X34683Y-76255D01*
X34683Y-66414D01*
X34617Y-66254D01*
X34495Y-66132D01*
X34336Y-66066D01*
X34164Y-66066D01*
X34004Y-66132D01*
X33882Y-66254D01*
X33816Y-66413D01*
X33816Y-66585D01*
X33882Y-66745D01*
X34004Y-66867D01*
X34163Y-66933D01*
X34335Y-66933D01*
X34495Y-66867D01*
X34617Y-66745D01*
X34683Y-66586D01*
X34683Y-66414D01*
X34683Y-76255D01*
X34607Y-76286D01*
X34580Y-76313D01*
X34580Y-76250D01*
X34580Y-68000D01*
X34580Y-67999D01*
X34555Y-67873D01*
X34483Y-67766D01*
X34483Y-67766D01*
X33733Y-67016D01*
X33626Y-66944D01*
X33500Y-66919D01*
X33369Y-66919D01*
X33495Y-66867D01*
X33617Y-66745D01*
X33683Y-66586D01*
X33683Y-66414D01*
X33617Y-66254D01*
X33495Y-66132D01*
X33336Y-66066D01*
X33164Y-66066D01*
X33004Y-66132D01*
X32882Y-66254D01*
X32816Y-66413D01*
X32816Y-66585D01*
X32882Y-66745D01*
X33004Y-66867D01*
X33130Y-66919D01*
X32369Y-66919D01*
X32495Y-66867D01*
X32617Y-66745D01*
X32683Y-66586D01*
X32683Y-66414D01*
X32683Y-65414D01*
X32617Y-65254D01*
X32495Y-65132D01*
X32336Y-65066D01*
X32164Y-65066D01*
X32004Y-65132D01*
X31882Y-65254D01*
X31816Y-65413D01*
X31816Y-65585D01*
X31882Y-65745D01*
X32004Y-65867D01*
X32163Y-65933D01*
X32335Y-65933D01*
X32495Y-65867D01*
X32617Y-65745D01*
X32683Y-65586D01*
X32683Y-65414D01*
X32683Y-66414D01*
X32617Y-66254D01*
X32495Y-66132D01*
X32336Y-66066D01*
X32164Y-66066D01*
X32004Y-66132D01*
X31882Y-66254D01*
X31816Y-66413D01*
X31816Y-66585D01*
X31882Y-66745D01*
X32004Y-66867D01*
X32130Y-66919D01*
X31636Y-66919D01*
X31627Y-66910D01*
X31663Y-66875D01*
X31683Y-66826D01*
X31683Y-66773D01*
X31683Y-66173D01*
X31663Y-66124D01*
X31625Y-66086D01*
X31580Y-66068D01*
X31580Y-65782D01*
X31617Y-65745D01*
X31683Y-65586D01*
X31683Y-65414D01*
X31617Y-65254D01*
X31495Y-65132D01*
X31336Y-65066D01*
X31164Y-65066D01*
X31004Y-65132D01*
X30882Y-65254D01*
X30816Y-65413D01*
X30816Y-65585D01*
X30882Y-65745D01*
X30919Y-65782D01*
X30919Y-66068D01*
X30874Y-66086D01*
X30836Y-66124D01*
X30816Y-66173D01*
X30816Y-66226D01*
X30816Y-66826D01*
X30836Y-66875D01*
X30874Y-66913D01*
X30919Y-66931D01*
X30919Y-67000D01*
X30944Y-67126D01*
X31016Y-67233D01*
X31266Y-67483D01*
X31266Y-67483D01*
X31318Y-67518D01*
X31096Y-67518D01*
X30731Y-67153D01*
X30731Y-67000D01*
X30731Y-65096D01*
X30846Y-64981D01*
X32903Y-64981D01*
X33018Y-65096D01*
X33018Y-65126D01*
X33004Y-65132D01*
X32882Y-65254D01*
X32816Y-65413D01*
X32816Y-65585D01*
X32882Y-65745D01*
X33004Y-65867D01*
X33163Y-65933D01*
X33335Y-65933D01*
X33495Y-65867D01*
X33617Y-65745D01*
X33683Y-65586D01*
X33683Y-65414D01*
X33617Y-65254D01*
X33495Y-65132D01*
X33481Y-65126D01*
X33481Y-65000D01*
X33464Y-64911D01*
X33413Y-64836D01*
X33413Y-64836D01*
X33163Y-64586D01*
X33088Y-64535D01*
X33000Y-64518D01*
X32999Y-64518D01*
X30750Y-64518D01*
X30661Y-64535D01*
X30586Y-64586D01*
X30586Y-64586D01*
X30336Y-64836D01*
X30285Y-64911D01*
X30268Y-65000D01*
X30268Y-65000D01*
X30268Y-67000D01*
X30268Y-67249D01*
X30268Y-67250D01*
X30285Y-67338D01*
X30336Y-67413D01*
X30836Y-67913D01*
X30836Y-67913D01*
X30911Y-67964D01*
X31000Y-67981D01*
X31000Y-67981D01*
X31000Y-67981D01*
X32402Y-67981D01*
X32449Y-68001D01*
X32549Y-68001D01*
X32642Y-67963D01*
X32713Y-67892D01*
X32751Y-67800D01*
X32751Y-67700D01*
X32713Y-67607D01*
X32686Y-67580D01*
X33363Y-67580D01*
X33919Y-68136D01*
X33919Y-76250D01*
X33919Y-76669D01*
X30750Y-76669D01*
X30623Y-76694D01*
X30516Y-76766D01*
X29683Y-77599D01*
X29683Y-65654D01*
X29572Y-65385D01*
X29366Y-65178D01*
X29096Y-65066D01*
X28804Y-65066D01*
X28535Y-65177D01*
X28328Y-65383D01*
X28216Y-65653D01*
X28216Y-65945D01*
X28327Y-66214D01*
X28533Y-66421D01*
X28803Y-66533D01*
X29095Y-66533D01*
X29364Y-66422D01*
X29571Y-66216D01*
X29683Y-65946D01*
X29683Y-65654D01*
X29683Y-77599D01*
X28766Y-78516D01*
X28694Y-78623D01*
X28669Y-78750D01*
X28669Y-79419D01*
X28501Y-79419D01*
X28501Y-71700D01*
X28481Y-71652D01*
X28481Y-68000D01*
X28464Y-67911D01*
X28413Y-67836D01*
X28413Y-67836D01*
X28163Y-67586D01*
X28088Y-67535D01*
X28000Y-67518D01*
X27999Y-67518D01*
X27096Y-67518D01*
X26732Y-67154D01*
X26713Y-67107D01*
X26642Y-67036D01*
X26550Y-66998D01*
X26450Y-66998D01*
X26357Y-67036D01*
X26286Y-67107D01*
X26248Y-67199D01*
X26248Y-67299D01*
X26286Y-67392D01*
X26357Y-67463D01*
X26405Y-67482D01*
X26836Y-67913D01*
X26836Y-67913D01*
X26911Y-67964D01*
X27000Y-67981D01*
X27000Y-67981D01*
X27000Y-67981D01*
X27903Y-67981D01*
X28018Y-68096D01*
X28018Y-71652D01*
X27998Y-71699D01*
X27998Y-71799D01*
X28036Y-71892D01*
X28107Y-71963D01*
X28199Y-72001D01*
X28299Y-72001D01*
X28392Y-71963D01*
X28463Y-71892D01*
X28501Y-71800D01*
X28501Y-71700D01*
X28501Y-79419D01*
X28276Y-79419D01*
X28243Y-79386D01*
X28085Y-79321D01*
X27915Y-79320D01*
X27903Y-79325D01*
X27231Y-78653D01*
X27231Y-75597D01*
X27251Y-75550D01*
X27251Y-75450D01*
X27213Y-75357D01*
X27142Y-75286D01*
X27050Y-75248D01*
X26950Y-75248D01*
X26857Y-75286D01*
X26786Y-75357D01*
X26748Y-75449D01*
X26748Y-75549D01*
X26768Y-75597D01*
X26768Y-78749D01*
X26768Y-78750D01*
X26785Y-78838D01*
X26836Y-78913D01*
X27575Y-79653D01*
X27571Y-79664D01*
X27570Y-79834D01*
X27636Y-79992D01*
X27756Y-80113D01*
X27914Y-80178D01*
X28084Y-80179D01*
X28242Y-80113D01*
X28276Y-80080D01*
X28723Y-80080D01*
X28756Y-80113D01*
X28914Y-80178D01*
X29084Y-80179D01*
X29242Y-80113D01*
X29363Y-79993D01*
X29428Y-79835D01*
X29429Y-79665D01*
X29363Y-79507D01*
X29330Y-79473D01*
X29330Y-78886D01*
X30886Y-77330D01*
X32563Y-77330D01*
X32536Y-77357D01*
X32498Y-77449D01*
X32498Y-77549D01*
X32536Y-77642D01*
X32607Y-77713D01*
X32699Y-77751D01*
X32799Y-77751D01*
X32847Y-77731D01*
X34152Y-77731D01*
X34199Y-77751D01*
X34299Y-77751D01*
X34392Y-77713D01*
X34463Y-77642D01*
X34501Y-77550D01*
X34501Y-77450D01*
X34463Y-77357D01*
X34436Y-77330D01*
X35613Y-77330D01*
X36669Y-78386D01*
X36669Y-79419D01*
X36276Y-79419D01*
X36251Y-79394D01*
X36251Y-78950D01*
X36213Y-78857D01*
X36142Y-78786D01*
X36050Y-78748D01*
X35950Y-78748D01*
X35902Y-78768D01*
X32597Y-78768D01*
X32550Y-78748D01*
X32450Y-78748D01*
X32357Y-78786D01*
X32286Y-78857D01*
X32248Y-78949D01*
X32248Y-79049D01*
X32286Y-79142D01*
X32357Y-79213D01*
X32449Y-79251D01*
X32549Y-79251D01*
X32597Y-79231D01*
X35902Y-79231D01*
X35949Y-79251D01*
X36049Y-79251D01*
X36142Y-79213D01*
X36213Y-79142D01*
X36251Y-79050D01*
X36251Y-78950D01*
X36251Y-79394D01*
X36243Y-79386D01*
X36085Y-79321D01*
X35915Y-79320D01*
X35757Y-79386D01*
X35636Y-79506D01*
X35571Y-79664D01*
X35570Y-79834D01*
X35636Y-79992D01*
X35756Y-80113D01*
X35914Y-80178D01*
X36084Y-80179D01*
X36242Y-80113D01*
X36276Y-80080D01*
X36723Y-80080D01*
X36756Y-80113D01*
X36914Y-80178D01*
X37084Y-80179D01*
X37242Y-80113D01*
X37363Y-79993D01*
X37428Y-79835D01*
X37429Y-79665D01*
X37363Y-79507D01*
X37330Y-79473D01*
X37330Y-78250D01*
X37305Y-78123D01*
X37233Y-78016D01*
X36436Y-77219D01*
X36500Y-77231D01*
X36500Y-77231D01*
X36500Y-77231D01*
X38652Y-77231D01*
X38699Y-77251D01*
X38799Y-77251D01*
X38892Y-77213D01*
X38963Y-77142D01*
X39001Y-77050D01*
X39001Y-76950D01*
X39001Y-79353D01*
X38944Y-79350D01*
X38898Y-79359D01*
X38857Y-79399D01*
X39000Y-79541D01*
X39142Y-79399D01*
X39142Y-80100D01*
X39000Y-79958D01*
X38857Y-80100D01*
X38898Y-80140D01*
X39055Y-80149D01*
X39101Y-80140D01*
X39142Y-80100D01*
X39142Y-82614D01*
X39090Y-82635D01*
X38929Y-82796D01*
X38929Y-80665D01*
X38863Y-80507D01*
X38791Y-80434D01*
X38791Y-79750D01*
X38649Y-79607D01*
X38609Y-79648D01*
X38600Y-79805D01*
X38609Y-79851D01*
X38649Y-79892D01*
X38791Y-79750D01*
X38791Y-80434D01*
X38743Y-80386D01*
X38585Y-80321D01*
X38415Y-80320D01*
X38399Y-80327D01*
X38399Y-79694D01*
X38390Y-79648D01*
X38350Y-79607D01*
X38208Y-79750D01*
X38350Y-79892D01*
X38390Y-79851D01*
X38399Y-79694D01*
X38399Y-80327D01*
X38257Y-80386D01*
X38142Y-80501D01*
X38142Y-80100D01*
X38142Y-79399D01*
X38101Y-79359D01*
X37944Y-79350D01*
X37898Y-79359D01*
X37857Y-79399D01*
X38000Y-79541D01*
X38142Y-79399D01*
X38142Y-80100D01*
X38000Y-79958D01*
X37857Y-80100D01*
X37898Y-80140D01*
X38055Y-80149D01*
X38101Y-80140D01*
X38142Y-80100D01*
X38142Y-80501D01*
X38136Y-80506D01*
X38071Y-80664D01*
X38070Y-80834D01*
X38136Y-80992D01*
X38256Y-81113D01*
X38414Y-81178D01*
X38584Y-81179D01*
X38742Y-81113D01*
X38863Y-80993D01*
X38928Y-80835D01*
X38929Y-80665D01*
X38929Y-82796D01*
X38886Y-82839D01*
X38776Y-83105D01*
X38775Y-83393D01*
X38885Y-83659D01*
X39089Y-83863D01*
X39355Y-83973D01*
X39643Y-83974D01*
X39909Y-83864D01*
X40113Y-83660D01*
X40223Y-83394D01*
X40224Y-83106D01*
X40224Y-85716D01*
X38501Y-85716D01*
X38501Y-81950D01*
X38463Y-81857D01*
X38392Y-81786D01*
X38300Y-81748D01*
X38200Y-81748D01*
X38152Y-81768D01*
X37929Y-81768D01*
X37929Y-80665D01*
X37863Y-80507D01*
X37791Y-80434D01*
X37791Y-79750D01*
X37649Y-79607D01*
X37609Y-79648D01*
X37600Y-79805D01*
X37609Y-79851D01*
X37649Y-79892D01*
X37791Y-79750D01*
X37791Y-80434D01*
X37743Y-80386D01*
X37585Y-80321D01*
X37415Y-80320D01*
X37257Y-80386D01*
X37136Y-80506D01*
X37071Y-80664D01*
X37070Y-80834D01*
X37136Y-80992D01*
X37256Y-81113D01*
X37268Y-81118D01*
X37268Y-81153D01*
X37153Y-81268D01*
X36929Y-81268D01*
X36929Y-80665D01*
X36863Y-80507D01*
X36743Y-80386D01*
X36585Y-80321D01*
X36415Y-80320D01*
X36257Y-80386D01*
X36136Y-80506D01*
X36071Y-80664D01*
X36070Y-80834D01*
X36136Y-80992D01*
X36256Y-81113D01*
X36414Y-81178D01*
X36584Y-81179D01*
X36742Y-81113D01*
X36863Y-80993D01*
X36928Y-80835D01*
X36929Y-80665D01*
X36929Y-81268D01*
X35929Y-81268D01*
X35929Y-81019D01*
X35929Y-80428D01*
X35908Y-80378D01*
X35871Y-80341D01*
X35822Y-80321D01*
X35769Y-80320D01*
X35178Y-80320D01*
X35128Y-80341D01*
X35091Y-80378D01*
X35071Y-80427D01*
X35070Y-80480D01*
X35070Y-81071D01*
X35091Y-81121D01*
X35128Y-81158D01*
X35177Y-81178D01*
X35230Y-81179D01*
X35821Y-81179D01*
X35871Y-81158D01*
X35908Y-81121D01*
X35928Y-81072D01*
X35929Y-81019D01*
X35929Y-81268D01*
X35096Y-81268D01*
X34663Y-80836D01*
X34588Y-80785D01*
X34500Y-80768D01*
X34499Y-80768D01*
X34250Y-80768D01*
X34001Y-80768D01*
X34001Y-79450D01*
X33963Y-79357D01*
X33892Y-79286D01*
X33800Y-79248D01*
X33700Y-79248D01*
X33652Y-79268D01*
X32097Y-79268D01*
X32050Y-79248D01*
X31950Y-79248D01*
X31857Y-79286D01*
X31786Y-79357D01*
X31748Y-79449D01*
X31748Y-79549D01*
X31786Y-79642D01*
X31857Y-79713D01*
X31949Y-79751D01*
X32049Y-79751D01*
X32097Y-79731D01*
X33652Y-79731D01*
X33699Y-79751D01*
X33799Y-79751D01*
X33892Y-79713D01*
X33963Y-79642D01*
X34001Y-79550D01*
X34001Y-79450D01*
X34001Y-80768D01*
X33097Y-80768D01*
X33050Y-80748D01*
X32950Y-80748D01*
X32857Y-80786D01*
X32786Y-80857D01*
X32748Y-80949D01*
X32748Y-81049D01*
X32786Y-81142D01*
X32857Y-81213D01*
X32949Y-81251D01*
X33049Y-81251D01*
X33097Y-81231D01*
X34250Y-81231D01*
X34403Y-81231D01*
X34836Y-81663D01*
X34836Y-81663D01*
X34911Y-81714D01*
X35000Y-81731D01*
X35000Y-81731D01*
X35000Y-81731D01*
X37249Y-81731D01*
X37250Y-81731D01*
X37250Y-81731D01*
X37338Y-81714D01*
X37413Y-81663D01*
X37663Y-81413D01*
X37663Y-81413D01*
X37663Y-81413D01*
X37714Y-81338D01*
X37731Y-81250D01*
X37731Y-81118D01*
X37742Y-81113D01*
X37863Y-80993D01*
X37928Y-80835D01*
X37929Y-80665D01*
X37929Y-81768D01*
X35597Y-81768D01*
X35550Y-81748D01*
X35450Y-81748D01*
X35357Y-81786D01*
X35286Y-81857D01*
X35248Y-81949D01*
X35248Y-82049D01*
X35286Y-82142D01*
X35357Y-82213D01*
X35449Y-82251D01*
X35549Y-82251D01*
X35597Y-82231D01*
X38152Y-82231D01*
X38199Y-82251D01*
X38299Y-82251D01*
X38392Y-82213D01*
X38463Y-82142D01*
X38501Y-82050D01*
X38501Y-81950D01*
X38501Y-85716D01*
X37001Y-85716D01*
X37001Y-84200D01*
X36963Y-84107D01*
X36892Y-84036D01*
X36800Y-83998D01*
X36700Y-83998D01*
X36652Y-84018D01*
X35724Y-84018D01*
X35724Y-83106D01*
X35614Y-82840D01*
X35410Y-82636D01*
X35144Y-82526D01*
X34856Y-82525D01*
X34794Y-82551D01*
X34794Y-81938D01*
X34791Y-81923D01*
X34745Y-81852D01*
X34548Y-82049D01*
X34745Y-82245D01*
X34791Y-82174D01*
X34794Y-81938D01*
X34794Y-82551D01*
X34590Y-82635D01*
X34397Y-82828D01*
X34397Y-82593D01*
X34397Y-81504D01*
X34326Y-81458D01*
X34090Y-81455D01*
X34075Y-81458D01*
X34004Y-81504D01*
X34200Y-81701D01*
X34397Y-81504D01*
X34397Y-82593D01*
X34200Y-82397D01*
X34004Y-82593D01*
X34075Y-82640D01*
X34311Y-82643D01*
X34326Y-82640D01*
X34397Y-82593D01*
X34397Y-82828D01*
X34386Y-82839D01*
X34276Y-83105D01*
X34275Y-83393D01*
X34385Y-83659D01*
X34589Y-83863D01*
X34855Y-83973D01*
X35143Y-83974D01*
X35409Y-83864D01*
X35613Y-83660D01*
X35723Y-83394D01*
X35724Y-83106D01*
X35724Y-84018D01*
X33852Y-84018D01*
X33852Y-82049D01*
X33656Y-81852D01*
X33609Y-81923D01*
X33606Y-82159D01*
X33609Y-82174D01*
X33656Y-82245D01*
X33852Y-82049D01*
X33852Y-84018D01*
X32925Y-84018D01*
X32925Y-81925D01*
X32830Y-81695D01*
X32654Y-81519D01*
X32424Y-81423D01*
X32176Y-81423D01*
X31946Y-81518D01*
X31769Y-81694D01*
X31674Y-81924D01*
X31674Y-82173D01*
X31769Y-82403D01*
X31945Y-82579D01*
X32175Y-82674D01*
X32423Y-82674D01*
X32653Y-82579D01*
X32830Y-82404D01*
X32925Y-82174D01*
X32925Y-81925D01*
X32925Y-84018D01*
X32224Y-84018D01*
X32224Y-83106D01*
X32114Y-82840D01*
X31910Y-82636D01*
X31644Y-82526D01*
X31399Y-82525D01*
X31399Y-79694D01*
X31390Y-79648D01*
X31350Y-79607D01*
X31208Y-79750D01*
X31350Y-79892D01*
X31390Y-79851D01*
X31399Y-79694D01*
X31399Y-82525D01*
X31356Y-82525D01*
X31142Y-82614D01*
X31142Y-80100D01*
X31142Y-79399D01*
X31101Y-79359D01*
X30944Y-79350D01*
X30898Y-79359D01*
X30857Y-79399D01*
X31000Y-79541D01*
X31142Y-79399D01*
X31142Y-80100D01*
X31000Y-79958D01*
X30857Y-80100D01*
X30898Y-80140D01*
X31055Y-80149D01*
X31101Y-80140D01*
X31142Y-80100D01*
X31142Y-82614D01*
X31090Y-82635D01*
X30929Y-82796D01*
X30929Y-80665D01*
X30863Y-80507D01*
X30791Y-80434D01*
X30791Y-79750D01*
X30649Y-79607D01*
X30609Y-79648D01*
X30600Y-79805D01*
X30609Y-79851D01*
X30649Y-79892D01*
X30791Y-79750D01*
X30791Y-80434D01*
X30743Y-80386D01*
X30585Y-80321D01*
X30415Y-80320D01*
X30399Y-80327D01*
X30399Y-79694D01*
X30390Y-79648D01*
X30350Y-79607D01*
X30208Y-79750D01*
X30350Y-79892D01*
X30390Y-79851D01*
X30399Y-79694D01*
X30399Y-80327D01*
X30257Y-80386D01*
X30142Y-80501D01*
X30142Y-80100D01*
X30142Y-79399D01*
X30101Y-79359D01*
X29944Y-79350D01*
X29898Y-79359D01*
X29857Y-79399D01*
X30000Y-79541D01*
X30142Y-79399D01*
X30142Y-80100D01*
X30000Y-79958D01*
X29857Y-80100D01*
X29898Y-80140D01*
X30055Y-80149D01*
X30101Y-80140D01*
X30142Y-80100D01*
X30142Y-80501D01*
X30136Y-80506D01*
X30071Y-80664D01*
X30070Y-80834D01*
X30136Y-80992D01*
X30256Y-81113D01*
X30414Y-81178D01*
X30584Y-81179D01*
X30742Y-81113D01*
X30863Y-80993D01*
X30928Y-80835D01*
X30929Y-80665D01*
X30929Y-82796D01*
X30886Y-82839D01*
X30776Y-83105D01*
X30775Y-83393D01*
X30885Y-83659D01*
X31089Y-83863D01*
X31355Y-83973D01*
X31643Y-83974D01*
X31909Y-83864D01*
X32113Y-83660D01*
X32223Y-83394D01*
X32224Y-83106D01*
X32224Y-84018D01*
X30347Y-84018D01*
X30300Y-83998D01*
X30200Y-83998D01*
X30107Y-84036D01*
X30036Y-84107D01*
X29998Y-84199D01*
X29998Y-84299D01*
X30036Y-84392D01*
X30107Y-84463D01*
X30199Y-84501D01*
X30299Y-84501D01*
X30347Y-84481D01*
X36652Y-84481D01*
X36699Y-84501D01*
X36799Y-84501D01*
X36892Y-84463D01*
X36963Y-84392D01*
X37001Y-84300D01*
X37001Y-84200D01*
X37001Y-85716D01*
X36501Y-85716D01*
X36501Y-84700D01*
X36463Y-84607D01*
X36392Y-84536D01*
X36300Y-84498D01*
X36200Y-84498D01*
X36152Y-84518D01*
X29929Y-84518D01*
X29929Y-80665D01*
X29863Y-80507D01*
X29791Y-80434D01*
X29791Y-79750D01*
X29649Y-79607D01*
X29609Y-79648D01*
X29600Y-79805D01*
X29609Y-79851D01*
X29649Y-79892D01*
X29791Y-79750D01*
X29791Y-80434D01*
X29743Y-80386D01*
X29585Y-80321D01*
X29415Y-80320D01*
X29257Y-80386D01*
X29136Y-80506D01*
X29071Y-80664D01*
X29070Y-80834D01*
X29136Y-80992D01*
X29256Y-81113D01*
X29414Y-81178D01*
X29584Y-81179D01*
X29742Y-81113D01*
X29863Y-80993D01*
X29928Y-80835D01*
X29929Y-80665D01*
X29929Y-84518D01*
X29847Y-84518D01*
X29800Y-84498D01*
X29700Y-84498D01*
X29607Y-84536D01*
X29536Y-84607D01*
X29498Y-84699D01*
X29498Y-84799D01*
X29536Y-84892D01*
X29607Y-84963D01*
X29699Y-85001D01*
X29799Y-85001D01*
X29847Y-84981D01*
X36152Y-84981D01*
X36199Y-85001D01*
X36299Y-85001D01*
X36392Y-84963D01*
X36463Y-84892D01*
X36501Y-84800D01*
X36501Y-84700D01*
X36501Y-85716D01*
X28929Y-85716D01*
X28929Y-80665D01*
X28863Y-80507D01*
X28743Y-80386D01*
X28585Y-80321D01*
X28415Y-80320D01*
X28257Y-80386D01*
X28136Y-80506D01*
X28071Y-80664D01*
X28070Y-80834D01*
X28136Y-80992D01*
X28256Y-81113D01*
X28414Y-81178D01*
X28584Y-81179D01*
X28742Y-81113D01*
X28863Y-80993D01*
X28928Y-80835D01*
X28929Y-80665D01*
X28929Y-85716D01*
X27929Y-85716D01*
X27929Y-81019D01*
X27929Y-80428D01*
X27908Y-80378D01*
X27871Y-80341D01*
X27822Y-80321D01*
X27769Y-80320D01*
X27178Y-80320D01*
X27128Y-80341D01*
X27091Y-80378D01*
X27071Y-80427D01*
X27070Y-80480D01*
X27070Y-81071D01*
X27091Y-81121D01*
X27128Y-81158D01*
X27177Y-81178D01*
X27230Y-81179D01*
X27821Y-81179D01*
X27871Y-81158D01*
X27908Y-81121D01*
X27928Y-81072D01*
X27929Y-81019D01*
X27929Y-85716D01*
X27724Y-85716D01*
X27724Y-83106D01*
X27614Y-82840D01*
X27410Y-82636D01*
X27144Y-82526D01*
X26856Y-82525D01*
X26794Y-82551D01*
X26794Y-81938D01*
X26791Y-81923D01*
X26745Y-81852D01*
X26548Y-82049D01*
X26745Y-82245D01*
X26791Y-82174D01*
X26794Y-81938D01*
X26794Y-82551D01*
X26590Y-82635D01*
X26397Y-82828D01*
X26397Y-82593D01*
X26397Y-81504D01*
X26326Y-81458D01*
X26090Y-81455D01*
X26075Y-81458D01*
X26004Y-81504D01*
X26200Y-81701D01*
X26397Y-81504D01*
X26397Y-82593D01*
X26200Y-82397D01*
X26004Y-82593D01*
X26075Y-82640D01*
X26311Y-82643D01*
X26326Y-82640D01*
X26397Y-82593D01*
X26397Y-82828D01*
X26386Y-82839D01*
X26276Y-83105D01*
X26275Y-83393D01*
X26385Y-83659D01*
X26589Y-83863D01*
X26855Y-83973D01*
X27143Y-83974D01*
X27409Y-83864D01*
X27613Y-83660D01*
X27723Y-83394D01*
X27724Y-83106D01*
X27724Y-85716D01*
X26001Y-85716D01*
X26001Y-67200D01*
X25963Y-67107D01*
X25892Y-67036D01*
X25800Y-66998D01*
X25700Y-66998D01*
X25652Y-67018D01*
X25222Y-67018D01*
X25222Y-64987D01*
X25097Y-64684D01*
X24866Y-64453D01*
X24564Y-64327D01*
X24237Y-64327D01*
X23934Y-64452D01*
X23703Y-64683D01*
X23577Y-64985D01*
X23577Y-65312D01*
X23702Y-65615D01*
X23933Y-65846D01*
X24235Y-65972D01*
X24562Y-65972D01*
X24865Y-65847D01*
X25096Y-65616D01*
X25222Y-65314D01*
X25222Y-64987D01*
X25222Y-67018D01*
X24750Y-67018D01*
X24750Y-67018D01*
X24661Y-67035D01*
X24586Y-67086D01*
X24586Y-67086D01*
X24086Y-67586D01*
X24035Y-67661D01*
X24018Y-67750D01*
X24018Y-67750D01*
X24018Y-71652D01*
X23998Y-71699D01*
X23998Y-71799D01*
X24036Y-71892D01*
X24107Y-71963D01*
X24199Y-72001D01*
X24299Y-72001D01*
X24392Y-71963D01*
X24463Y-71892D01*
X24501Y-71800D01*
X24501Y-71700D01*
X24481Y-71652D01*
X24481Y-67846D01*
X24846Y-67481D01*
X25652Y-67481D01*
X25699Y-67501D01*
X25799Y-67501D01*
X25892Y-67463D01*
X25963Y-67392D01*
X26001Y-67300D01*
X26001Y-67200D01*
X26001Y-85716D01*
X25852Y-85716D01*
X25852Y-82049D01*
X25656Y-81852D01*
X25609Y-81923D01*
X25606Y-82159D01*
X25609Y-82174D01*
X25656Y-82245D01*
X25852Y-82049D01*
X25852Y-85716D01*
X25222Y-85716D01*
X25222Y-84687D01*
X25097Y-84384D01*
X24866Y-84153D01*
X24564Y-84027D01*
X24237Y-84027D01*
X23934Y-84152D01*
X23703Y-84383D01*
X23577Y-84685D01*
X23577Y-85012D01*
X23702Y-85315D01*
X23933Y-85546D01*
X24235Y-85672D01*
X24562Y-85672D01*
X24865Y-85547D01*
X25096Y-85316D01*
X25222Y-85014D01*
X25222Y-84687D01*
X25222Y-85716D01*
X23533Y-85716D01*
X23533Y-64283D01*
X42966Y-64283D01*
X42966Y-85716D01*
X42966Y-85716D01*
G37*
G54D31*
X42966Y-85716D02*
X42922Y-85716D01*
X42922Y-84687D01*
X42922Y-64987D01*
X42797Y-64684D01*
X42566Y-64453D01*
X42264Y-64327D01*
X41937Y-64327D01*
X41634Y-64452D01*
X41403Y-64683D01*
X41277Y-64985D01*
X41277Y-65312D01*
X41402Y-65615D01*
X41633Y-65846D01*
X41935Y-65972D01*
X42262Y-65972D01*
X42565Y-65847D01*
X42796Y-65616D01*
X42922Y-65314D01*
X42922Y-64987D01*
X42922Y-84687D01*
X42797Y-84384D01*
X42566Y-84153D01*
X42264Y-84027D01*
X41937Y-84027D01*
X41634Y-84152D01*
X41403Y-84383D01*
X41277Y-84685D01*
X41277Y-85012D01*
X41402Y-85315D01*
X41633Y-85546D01*
X41935Y-85672D01*
X42262Y-85672D01*
X42565Y-85547D01*
X42796Y-85316D01*
X42922Y-85014D01*
X42922Y-84687D01*
X42922Y-85716D01*
X40925Y-85716D01*
X40925Y-81925D01*
X40830Y-81695D01*
X40654Y-81519D01*
X40424Y-81423D01*
X40176Y-81423D01*
X39946Y-81518D01*
X39769Y-81694D01*
X39674Y-81924D01*
X39674Y-82173D01*
X39769Y-82403D01*
X39945Y-82579D01*
X40175Y-82674D01*
X40423Y-82674D01*
X40653Y-82579D01*
X40830Y-82404D01*
X40925Y-82174D01*
X40925Y-81925D01*
X40925Y-85716D01*
X40224Y-85716D01*
X40224Y-83106D01*
X40114Y-82840D01*
X39910Y-82636D01*
X39644Y-82526D01*
X39399Y-82525D01*
X39399Y-79694D01*
X39390Y-79648D01*
X39350Y-79607D01*
X39208Y-79750D01*
X39350Y-79892D01*
X39390Y-79851D01*
X39399Y-79694D01*
X39399Y-82525D01*
X39356Y-82525D01*
X39142Y-82614D01*
X39142Y-80100D01*
X39142Y-79399D01*
X39101Y-79359D01*
X39001Y-79353D01*
X39001Y-76950D01*
X39001Y-67950D01*
X38981Y-67902D01*
X38981Y-65097D01*
X39001Y-65050D01*
X39001Y-64950D01*
X38963Y-64857D01*
X38892Y-64786D01*
X38800Y-64748D01*
X38700Y-64748D01*
X38607Y-64786D01*
X38536Y-64857D01*
X38498Y-64949D01*
X38498Y-65049D01*
X38518Y-65097D01*
X38518Y-67902D01*
X38498Y-67949D01*
X38498Y-68049D01*
X38536Y-68142D01*
X38607Y-68213D01*
X38699Y-68251D01*
X38799Y-68251D01*
X38892Y-68213D01*
X38963Y-68142D01*
X39001Y-68050D01*
X39001Y-67950D01*
X39001Y-76950D01*
X38963Y-76857D01*
X38892Y-76786D01*
X38800Y-76748D01*
X38700Y-76748D01*
X38652Y-76768D01*
X38283Y-76768D01*
X38283Y-65654D01*
X38172Y-65385D01*
X37966Y-65178D01*
X37696Y-65066D01*
X37404Y-65066D01*
X37135Y-65177D01*
X36928Y-65383D01*
X36816Y-65653D01*
X36816Y-65945D01*
X36927Y-66214D01*
X37133Y-66421D01*
X37403Y-66533D01*
X37695Y-66533D01*
X37964Y-66422D01*
X38171Y-66216D01*
X38283Y-65946D01*
X38283Y-65654D01*
X38283Y-76768D01*
X36596Y-76768D01*
X36320Y-76492D01*
X36347Y-76481D01*
X37000Y-76481D01*
X37402Y-76481D01*
X37449Y-76501D01*
X37549Y-76501D01*
X37642Y-76463D01*
X37713Y-76392D01*
X37751Y-76300D01*
X37751Y-76200D01*
X37713Y-76107D01*
X37642Y-76036D01*
X37550Y-75998D01*
X37450Y-75998D01*
X37402Y-76018D01*
X37000Y-76018D01*
X36347Y-76018D01*
X36300Y-75998D01*
X36231Y-75998D01*
X36231Y-67250D01*
X36231Y-67000D01*
X36231Y-65000D01*
X36214Y-64911D01*
X36163Y-64836D01*
X36163Y-64836D01*
X35913Y-64586D01*
X35838Y-64535D01*
X35750Y-64518D01*
X35749Y-64518D01*
X34500Y-64518D01*
X34411Y-64535D01*
X34336Y-64586D01*
X34336Y-64586D01*
X34086Y-64836D01*
X34035Y-64911D01*
X34018Y-65000D01*
X34018Y-65000D01*
X34018Y-65126D01*
X34004Y-65132D01*
X33882Y-65254D01*
X33816Y-65413D01*
X33816Y-65585D01*
X33882Y-65745D01*
X34004Y-65867D01*
X34163Y-65933D01*
X34335Y-65933D01*
X34495Y-65867D01*
X34617Y-65745D01*
X34683Y-65586D01*
X34683Y-65414D01*
X34617Y-65254D01*
X34495Y-65132D01*
X34481Y-65126D01*
X34481Y-65096D01*
X34596Y-64981D01*
X35653Y-64981D01*
X35768Y-65096D01*
X35768Y-67000D01*
X35768Y-67153D01*
X35683Y-67238D01*
X35683Y-66414D01*
X35683Y-65414D01*
X35617Y-65254D01*
X35495Y-65132D01*
X35336Y-65066D01*
X35164Y-65066D01*
X35004Y-65132D01*
X34882Y-65254D01*
X34816Y-65413D01*
X34816Y-65585D01*
X34882Y-65745D01*
X35004Y-65867D01*
X35163Y-65933D01*
X35335Y-65933D01*
X35495Y-65867D01*
X35617Y-65745D01*
X35683Y-65586D01*
X35683Y-65414D01*
X35683Y-66414D01*
X35617Y-66254D01*
X35495Y-66132D01*
X35336Y-66066D01*
X35164Y-66066D01*
X35004Y-66132D01*
X34882Y-66254D01*
X34816Y-66413D01*
X34816Y-66585D01*
X34882Y-66745D01*
X35004Y-66867D01*
X35163Y-66933D01*
X35335Y-66933D01*
X35495Y-66867D01*
X35617Y-66745D01*
X35683Y-66586D01*
X35683Y-66414D01*
X35683Y-67238D01*
X35586Y-67336D01*
X35535Y-67411D01*
X35518Y-67500D01*
X35518Y-67500D01*
X35518Y-67902D01*
X35498Y-67949D01*
X35498Y-68049D01*
X35536Y-68142D01*
X35607Y-68213D01*
X35699Y-68251D01*
X35799Y-68251D01*
X35892Y-68213D01*
X35963Y-68142D01*
X36001Y-68050D01*
X36001Y-67950D01*
X35981Y-67902D01*
X35981Y-67596D01*
X36163Y-67413D01*
X36163Y-67413D01*
X36163Y-67413D01*
X36214Y-67338D01*
X36231Y-67250D01*
X36231Y-75998D01*
X36200Y-75998D01*
X36107Y-76036D01*
X36036Y-76107D01*
X35998Y-76199D01*
X35998Y-76268D01*
X34847Y-76268D01*
X34800Y-76248D01*
X34700Y-76248D01*
X34683Y-76255D01*
X34683Y-66414D01*
X34617Y-66254D01*
X34495Y-66132D01*
X34336Y-66066D01*
X34164Y-66066D01*
X34004Y-66132D01*
X33882Y-66254D01*
X33816Y-66413D01*
X33816Y-66585D01*
X33882Y-66745D01*
X34004Y-66867D01*
X34163Y-66933D01*
X34335Y-66933D01*
X34495Y-66867D01*
X34617Y-66745D01*
X34683Y-66586D01*
X34683Y-66414D01*
X34683Y-76255D01*
X34607Y-76286D01*
X34580Y-76313D01*
X34580Y-76250D01*
X34580Y-68000D01*
X34580Y-67999D01*
X34555Y-67873D01*
X34483Y-67766D01*
X34483Y-67766D01*
X33733Y-67016D01*
X33626Y-66944D01*
X33500Y-66919D01*
X33369Y-66919D01*
X33495Y-66867D01*
X33617Y-66745D01*
X33683Y-66586D01*
X33683Y-66414D01*
X33617Y-66254D01*
X33495Y-66132D01*
X33336Y-66066D01*
X33164Y-66066D01*
X33004Y-66132D01*
X32882Y-66254D01*
X32816Y-66413D01*
X32816Y-66585D01*
X32882Y-66745D01*
X33004Y-66867D01*
X33130Y-66919D01*
X32369Y-66919D01*
X32495Y-66867D01*
X32617Y-66745D01*
X32683Y-66586D01*
X32683Y-66414D01*
X32683Y-65414D01*
X32617Y-65254D01*
X32495Y-65132D01*
X32336Y-65066D01*
X32164Y-65066D01*
X32004Y-65132D01*
X31882Y-65254D01*
X31816Y-65413D01*
X31816Y-65585D01*
X31882Y-65745D01*
X32004Y-65867D01*
X32163Y-65933D01*
X32335Y-65933D01*
X32495Y-65867D01*
X32617Y-65745D01*
X32683Y-65586D01*
X32683Y-65414D01*
X32683Y-66414D01*
X32617Y-66254D01*
X32495Y-66132D01*
X32336Y-66066D01*
X32164Y-66066D01*
X32004Y-66132D01*
X31882Y-66254D01*
X31816Y-66413D01*
X31816Y-66585D01*
X31882Y-66745D01*
X32004Y-66867D01*
X32130Y-66919D01*
X31636Y-66919D01*
X31627Y-66910D01*
X31663Y-66875D01*
X31683Y-66826D01*
X31683Y-66773D01*
X31683Y-66173D01*
X31663Y-66124D01*
X31625Y-66086D01*
X31580Y-66068D01*
X31580Y-65782D01*
X31617Y-65745D01*
X31683Y-65586D01*
X31683Y-65414D01*
X31617Y-65254D01*
X31495Y-65132D01*
X31336Y-65066D01*
X31164Y-65066D01*
X31004Y-65132D01*
X30882Y-65254D01*
X30816Y-65413D01*
X30816Y-65585D01*
X30882Y-65745D01*
X30919Y-65782D01*
X30919Y-66068D01*
X30874Y-66086D01*
X30836Y-66124D01*
X30816Y-66173D01*
X30816Y-66226D01*
X30816Y-66826D01*
X30836Y-66875D01*
X30874Y-66913D01*
X30919Y-66931D01*
X30919Y-67000D01*
X30944Y-67126D01*
X31016Y-67233D01*
X31266Y-67483D01*
X31266Y-67483D01*
X31318Y-67518D01*
X31096Y-67518D01*
X30731Y-67153D01*
X30731Y-67000D01*
X30731Y-65096D01*
X30846Y-64981D01*
X32903Y-64981D01*
X33018Y-65096D01*
X33018Y-65126D01*
X33004Y-65132D01*
X32882Y-65254D01*
X32816Y-65413D01*
X32816Y-65585D01*
X32882Y-65745D01*
X33004Y-65867D01*
X33163Y-65933D01*
X33335Y-65933D01*
X33495Y-65867D01*
X33617Y-65745D01*
X33683Y-65586D01*
X33683Y-65414D01*
X33617Y-65254D01*
X33495Y-65132D01*
X33481Y-65126D01*
X33481Y-65000D01*
X33464Y-64911D01*
X33413Y-64836D01*
X33413Y-64836D01*
X33163Y-64586D01*
X33088Y-64535D01*
X33000Y-64518D01*
X32999Y-64518D01*
X30750Y-64518D01*
X30661Y-64535D01*
X30586Y-64586D01*
X30586Y-64586D01*
X30336Y-64836D01*
X30285Y-64911D01*
X30268Y-65000D01*
X30268Y-65000D01*
X30268Y-67000D01*
X30268Y-67249D01*
X30268Y-67250D01*
X30285Y-67338D01*
X30336Y-67413D01*
X30836Y-67913D01*
X30836Y-67913D01*
X30911Y-67964D01*
X31000Y-67981D01*
X31000Y-67981D01*
X31000Y-67981D01*
X32402Y-67981D01*
X32449Y-68001D01*
X32549Y-68001D01*
X32642Y-67963D01*
X32713Y-67892D01*
X32751Y-67800D01*
X32751Y-67700D01*
X32713Y-67607D01*
X32686Y-67580D01*
X33363Y-67580D01*
X33919Y-68136D01*
X33919Y-76250D01*
X33919Y-76669D01*
X30750Y-76669D01*
X30623Y-76694D01*
X30516Y-76766D01*
X29683Y-77599D01*
X29683Y-65654D01*
X29572Y-65385D01*
X29366Y-65178D01*
X29096Y-65066D01*
X28804Y-65066D01*
X28535Y-65177D01*
X28328Y-65383D01*
X28216Y-65653D01*
X28216Y-65945D01*
X28327Y-66214D01*
X28533Y-66421D01*
X28803Y-66533D01*
X29095Y-66533D01*
X29364Y-66422D01*
X29571Y-66216D01*
X29683Y-65946D01*
X29683Y-65654D01*
X29683Y-77599D01*
X28766Y-78516D01*
X28694Y-78623D01*
X28669Y-78750D01*
X28669Y-79419D01*
X28501Y-79419D01*
X28501Y-71700D01*
X28481Y-71652D01*
X28481Y-68000D01*
X28464Y-67911D01*
X28413Y-67836D01*
X28413Y-67836D01*
X28163Y-67586D01*
X28088Y-67535D01*
X28000Y-67518D01*
X27999Y-67518D01*
X27096Y-67518D01*
X26732Y-67154D01*
X26713Y-67107D01*
X26642Y-67036D01*
X26550Y-66998D01*
X26450Y-66998D01*
X26357Y-67036D01*
X26286Y-67107D01*
X26248Y-67199D01*
X26248Y-67299D01*
X26286Y-67392D01*
X26357Y-67463D01*
X26405Y-67482D01*
X26836Y-67913D01*
X26836Y-67913D01*
X26911Y-67964D01*
X27000Y-67981D01*
X27000Y-67981D01*
X27000Y-67981D01*
X27903Y-67981D01*
X28018Y-68096D01*
X28018Y-71652D01*
X27998Y-71699D01*
X27998Y-71799D01*
X28036Y-71892D01*
X28107Y-71963D01*
X28199Y-72001D01*
X28299Y-72001D01*
X28392Y-71963D01*
X28463Y-71892D01*
X28501Y-71800D01*
X28501Y-71700D01*
X28501Y-79419D01*
X28276Y-79419D01*
X28243Y-79386D01*
X28085Y-79321D01*
X27915Y-79320D01*
X27903Y-79325D01*
X27231Y-78653D01*
X27231Y-75597D01*
X27251Y-75550D01*
X27251Y-75450D01*
X27213Y-75357D01*
X27142Y-75286D01*
X27050Y-75248D01*
X26950Y-75248D01*
X26857Y-75286D01*
X26786Y-75357D01*
X26748Y-75449D01*
X26748Y-75549D01*
X26768Y-75597D01*
X26768Y-78749D01*
X26768Y-78750D01*
X26785Y-78838D01*
X26836Y-78913D01*
X27575Y-79653D01*
X27571Y-79664D01*
X27570Y-79834D01*
X27636Y-79992D01*
X27756Y-80113D01*
X27914Y-80178D01*
X28084Y-80179D01*
X28242Y-80113D01*
X28276Y-80080D01*
X28723Y-80080D01*
X28756Y-80113D01*
X28914Y-80178D01*
X29084Y-80179D01*
X29242Y-80113D01*
X29363Y-79993D01*
X29428Y-79835D01*
X29429Y-79665D01*
X29363Y-79507D01*
X29330Y-79473D01*
X29330Y-78886D01*
X30886Y-77330D01*
X32563Y-77330D01*
X32536Y-77357D01*
X32498Y-77449D01*
X32498Y-77549D01*
X32536Y-77642D01*
X32607Y-77713D01*
X32699Y-77751D01*
X32799Y-77751D01*
X32847Y-77731D01*
X34152Y-77731D01*
X34199Y-77751D01*
X34299Y-77751D01*
X34392Y-77713D01*
X34463Y-77642D01*
X34501Y-77550D01*
X34501Y-77450D01*
X34463Y-77357D01*
X34436Y-77330D01*
X35613Y-77330D01*
X36669Y-78386D01*
X36669Y-79419D01*
X36276Y-79419D01*
X36251Y-79394D01*
X36251Y-78950D01*
X36213Y-78857D01*
X36142Y-78786D01*
X36050Y-78748D01*
X35950Y-78748D01*
X35902Y-78768D01*
X32597Y-78768D01*
X32550Y-78748D01*
X32450Y-78748D01*
X32357Y-78786D01*
X32286Y-78857D01*
X32248Y-78949D01*
X32248Y-79049D01*
X32286Y-79142D01*
X32357Y-79213D01*
X32449Y-79251D01*
X32549Y-79251D01*
X32597Y-79231D01*
X35902Y-79231D01*
X35949Y-79251D01*
X36049Y-79251D01*
X36142Y-79213D01*
X36213Y-79142D01*
X36251Y-79050D01*
X36251Y-78950D01*
X36251Y-79394D01*
X36243Y-79386D01*
X36085Y-79321D01*
X35915Y-79320D01*
X35757Y-79386D01*
X35636Y-79506D01*
X35571Y-79664D01*
X35570Y-79834D01*
X35636Y-79992D01*
X35756Y-80113D01*
X35914Y-80178D01*
X36084Y-80179D01*
X36242Y-80113D01*
X36276Y-80080D01*
X36723Y-80080D01*
X36756Y-80113D01*
X36914Y-80178D01*
X37084Y-80179D01*
X37242Y-80113D01*
X37363Y-79993D01*
X37428Y-79835D01*
X37429Y-79665D01*
X37363Y-79507D01*
X37330Y-79473D01*
X37330Y-78250D01*
X37305Y-78123D01*
X37233Y-78016D01*
X36436Y-77219D01*
X36500Y-77231D01*
X36500Y-77231D01*
X36500Y-77231D01*
X38652Y-77231D01*
X38699Y-77251D01*
X38799Y-77251D01*
X38892Y-77213D01*
X38963Y-77142D01*
X39001Y-77050D01*
X39001Y-76950D01*
X39001Y-79353D01*
X38944Y-79350D01*
X38898Y-79359D01*
X38857Y-79399D01*
X39000Y-79541D01*
X39142Y-79399D01*
X39142Y-80100D01*
X39000Y-79958D01*
X38857Y-80100D01*
X38898Y-80140D01*
X39055Y-80149D01*
X39101Y-80140D01*
X39142Y-80100D01*
X39142Y-82614D01*
X39090Y-82635D01*
X38929Y-82796D01*
X38929Y-80665D01*
X38863Y-80507D01*
X38791Y-80434D01*
X38791Y-79750D01*
X38649Y-79607D01*
X38609Y-79648D01*
X38600Y-79805D01*
X38609Y-79851D01*
X38649Y-79892D01*
X38791Y-79750D01*
X38791Y-80434D01*
X38743Y-80386D01*
X38585Y-80321D01*
X38415Y-80320D01*
X38399Y-80327D01*
X38399Y-79694D01*
X38390Y-79648D01*
X38350Y-79607D01*
X38208Y-79750D01*
X38350Y-79892D01*
X38390Y-79851D01*
X38399Y-79694D01*
X38399Y-80327D01*
X38257Y-80386D01*
X38142Y-80501D01*
X38142Y-80100D01*
X38142Y-79399D01*
X38101Y-79359D01*
X37944Y-79350D01*
X37898Y-79359D01*
X37857Y-79399D01*
X38000Y-79541D01*
X38142Y-79399D01*
X38142Y-80100D01*
X38000Y-79958D01*
X37857Y-80100D01*
X37898Y-80140D01*
X38055Y-80149D01*
X38101Y-80140D01*
X38142Y-80100D01*
X38142Y-80501D01*
X38136Y-80506D01*
X38071Y-80664D01*
X38070Y-80834D01*
X38136Y-80992D01*
X38256Y-81113D01*
X38414Y-81178D01*
X38584Y-81179D01*
X38742Y-81113D01*
X38863Y-80993D01*
X38928Y-80835D01*
X38929Y-80665D01*
X38929Y-82796D01*
X38886Y-82839D01*
X38776Y-83105D01*
X38775Y-83393D01*
X38885Y-83659D01*
X39089Y-83863D01*
X39355Y-83973D01*
X39643Y-83974D01*
X39909Y-83864D01*
X40113Y-83660D01*
X40223Y-83394D01*
X40224Y-83106D01*
X40224Y-85716D01*
X38501Y-85716D01*
X38501Y-81950D01*
X38463Y-81857D01*
X38392Y-81786D01*
X38300Y-81748D01*
X38200Y-81748D01*
X38152Y-81768D01*
X37929Y-81768D01*
X37929Y-80665D01*
X37863Y-80507D01*
X37791Y-80434D01*
X37791Y-79750D01*
X37649Y-79607D01*
X37609Y-79648D01*
X37600Y-79805D01*
X37609Y-79851D01*
X37649Y-79892D01*
X37791Y-79750D01*
X37791Y-80434D01*
X37743Y-80386D01*
X37585Y-80321D01*
X37415Y-80320D01*
X37257Y-80386D01*
X37136Y-80506D01*
X37071Y-80664D01*
X37070Y-80834D01*
X37136Y-80992D01*
X37256Y-81113D01*
X37268Y-81118D01*
X37268Y-81153D01*
X37153Y-81268D01*
X36929Y-81268D01*
X36929Y-80665D01*
X36863Y-80507D01*
X36743Y-80386D01*
X36585Y-80321D01*
X36415Y-80320D01*
X36257Y-80386D01*
X36136Y-80506D01*
X36071Y-80664D01*
X36070Y-80834D01*
X36136Y-80992D01*
X36256Y-81113D01*
X36414Y-81178D01*
X36584Y-81179D01*
X36742Y-81113D01*
X36863Y-80993D01*
X36928Y-80835D01*
X36929Y-80665D01*
X36929Y-81268D01*
X35929Y-81268D01*
X35929Y-81019D01*
X35929Y-80428D01*
X35908Y-80378D01*
X35871Y-80341D01*
X35822Y-80321D01*
X35769Y-80320D01*
X35178Y-80320D01*
X35128Y-80341D01*
X35091Y-80378D01*
X35071Y-80427D01*
X35070Y-80480D01*
X35070Y-81071D01*
X35091Y-81121D01*
X35128Y-81158D01*
X35177Y-81178D01*
X35230Y-81179D01*
X35821Y-81179D01*
X35871Y-81158D01*
X35908Y-81121D01*
X35928Y-81072D01*
X35929Y-81019D01*
X35929Y-81268D01*
X35096Y-81268D01*
X34663Y-80836D01*
X34588Y-80785D01*
X34500Y-80768D01*
X34499Y-80768D01*
X34250Y-80768D01*
X34001Y-80768D01*
X34001Y-79450D01*
X33963Y-79357D01*
X33892Y-79286D01*
X33800Y-79248D01*
X33700Y-79248D01*
X33652Y-79268D01*
X32097Y-79268D01*
X32050Y-79248D01*
X31950Y-79248D01*
X31857Y-79286D01*
X31786Y-79357D01*
X31748Y-79449D01*
X31748Y-79549D01*
X31786Y-79642D01*
X31857Y-79713D01*
X31949Y-79751D01*
X32049Y-79751D01*
X32097Y-79731D01*
X33652Y-79731D01*
X33699Y-79751D01*
X33799Y-79751D01*
X33892Y-79713D01*
X33963Y-79642D01*
X34001Y-79550D01*
X34001Y-79450D01*
X34001Y-80768D01*
X33097Y-80768D01*
X33050Y-80748D01*
X32950Y-80748D01*
X32857Y-80786D01*
X32786Y-80857D01*
X32748Y-80949D01*
X32748Y-81049D01*
X32786Y-81142D01*
X32857Y-81213D01*
X32949Y-81251D01*
X33049Y-81251D01*
X33097Y-81231D01*
X34250Y-81231D01*
X34403Y-81231D01*
X34836Y-81663D01*
X34836Y-81663D01*
X34911Y-81714D01*
X35000Y-81731D01*
X35000Y-81731D01*
X35000Y-81731D01*
X37249Y-81731D01*
X37250Y-81731D01*
X37250Y-81731D01*
X37338Y-81714D01*
X37413Y-81663D01*
X37663Y-81413D01*
X37663Y-81413D01*
X37663Y-81413D01*
X37714Y-81338D01*
X37731Y-81250D01*
X37731Y-81118D01*
X37742Y-81113D01*
X37863Y-80993D01*
X37928Y-80835D01*
X37929Y-80665D01*
X37929Y-81768D01*
X35597Y-81768D01*
X35550Y-81748D01*
X35450Y-81748D01*
X35357Y-81786D01*
X35286Y-81857D01*
X35248Y-81949D01*
X35248Y-82049D01*
X35286Y-82142D01*
X35357Y-82213D01*
X35449Y-82251D01*
X35549Y-82251D01*
X35597Y-82231D01*
X38152Y-82231D01*
X38199Y-82251D01*
X38299Y-82251D01*
X38392Y-82213D01*
X38463Y-82142D01*
X38501Y-82050D01*
X38501Y-81950D01*
X38501Y-85716D01*
X37001Y-85716D01*
X37001Y-84200D01*
X36963Y-84107D01*
X36892Y-84036D01*
X36800Y-83998D01*
X36700Y-83998D01*
X36652Y-84018D01*
X35724Y-84018D01*
X35724Y-83106D01*
X35614Y-82840D01*
X35410Y-82636D01*
X35144Y-82526D01*
X34856Y-82525D01*
X34794Y-82551D01*
X34794Y-81938D01*
X34791Y-81923D01*
X34745Y-81852D01*
X34548Y-82049D01*
X34745Y-82245D01*
X34791Y-82174D01*
X34794Y-81938D01*
X34794Y-82551D01*
X34590Y-82635D01*
X34397Y-82828D01*
X34397Y-82593D01*
X34397Y-81504D01*
X34326Y-81458D01*
X34090Y-81455D01*
X34075Y-81458D01*
X34004Y-81504D01*
X34200Y-81701D01*
X34397Y-81504D01*
X34397Y-82593D01*
X34200Y-82397D01*
X34004Y-82593D01*
X34075Y-82640D01*
X34311Y-82643D01*
X34326Y-82640D01*
X34397Y-82593D01*
X34397Y-82828D01*
X34386Y-82839D01*
X34276Y-83105D01*
X34275Y-83393D01*
X34385Y-83659D01*
X34589Y-83863D01*
X34855Y-83973D01*
X35143Y-83974D01*
X35409Y-83864D01*
X35613Y-83660D01*
X35723Y-83394D01*
X35724Y-83106D01*
X35724Y-84018D01*
X33852Y-84018D01*
X33852Y-82049D01*
X33656Y-81852D01*
X33609Y-81923D01*
X33606Y-82159D01*
X33609Y-82174D01*
X33656Y-82245D01*
X33852Y-82049D01*
X33852Y-84018D01*
X32925Y-84018D01*
X32925Y-81925D01*
X32830Y-81695D01*
X32654Y-81519D01*
X32424Y-81423D01*
X32176Y-81423D01*
X31946Y-81518D01*
X31769Y-81694D01*
X31674Y-81924D01*
X31674Y-82173D01*
X31769Y-82403D01*
X31945Y-82579D01*
X32175Y-82674D01*
X32423Y-82674D01*
X32653Y-82579D01*
X32830Y-82404D01*
X32925Y-82174D01*
X32925Y-81925D01*
X32925Y-84018D01*
X32224Y-84018D01*
X32224Y-83106D01*
X32114Y-82840D01*
X31910Y-82636D01*
X31644Y-82526D01*
X31399Y-82525D01*
X31399Y-79694D01*
X31390Y-79648D01*
X31350Y-79607D01*
X31208Y-79750D01*
X31350Y-79892D01*
X31390Y-79851D01*
X31399Y-79694D01*
X31399Y-82525D01*
X31356Y-82525D01*
X31142Y-82614D01*
X31142Y-80100D01*
X31142Y-79399D01*
X31101Y-79359D01*
X30944Y-79350D01*
X30898Y-79359D01*
X30857Y-79399D01*
X31000Y-79541D01*
X31142Y-79399D01*
X31142Y-80100D01*
X31000Y-79958D01*
X30857Y-80100D01*
X30898Y-80140D01*
X31055Y-80149D01*
X31101Y-80140D01*
X31142Y-80100D01*
X31142Y-82614D01*
X31090Y-82635D01*
X30929Y-82796D01*
X30929Y-80665D01*
X30863Y-80507D01*
X30791Y-80434D01*
X30791Y-79750D01*
X30649Y-79607D01*
X30609Y-79648D01*
X30600Y-79805D01*
X30609Y-79851D01*
X30649Y-79892D01*
X30791Y-79750D01*
X30791Y-80434D01*
X30743Y-80386D01*
X30585Y-80321D01*
X30415Y-80320D01*
X30399Y-80327D01*
X30399Y-79694D01*
X30390Y-79648D01*
X30350Y-79607D01*
X30208Y-79750D01*
X30350Y-79892D01*
X30390Y-79851D01*
X30399Y-79694D01*
X30399Y-80327D01*
X30257Y-80386D01*
X30142Y-80501D01*
X30142Y-80100D01*
X30142Y-79399D01*
X30101Y-79359D01*
X29944Y-79350D01*
X29898Y-79359D01*
X29857Y-79399D01*
X30000Y-79541D01*
X30142Y-79399D01*
X30142Y-80100D01*
X30000Y-79958D01*
X29857Y-80100D01*
X29898Y-80140D01*
X30055Y-80149D01*
X30101Y-80140D01*
X30142Y-80100D01*
X30142Y-80501D01*
X30136Y-80506D01*
X30071Y-80664D01*
X30070Y-80834D01*
X30136Y-80992D01*
X30256Y-81113D01*
X30414Y-81178D01*
X30584Y-81179D01*
X30742Y-81113D01*
X30863Y-80993D01*
X30928Y-80835D01*
X30929Y-80665D01*
X30929Y-82796D01*
X30886Y-82839D01*
X30776Y-83105D01*
X30775Y-83393D01*
X30885Y-83659D01*
X31089Y-83863D01*
X31355Y-83973D01*
X31643Y-83974D01*
X31909Y-83864D01*
X32113Y-83660D01*
X32223Y-83394D01*
X32224Y-83106D01*
X32224Y-84018D01*
X30347Y-84018D01*
X30300Y-83998D01*
X30200Y-83998D01*
X30107Y-84036D01*
X30036Y-84107D01*
X29998Y-84199D01*
X29998Y-84299D01*
X30036Y-84392D01*
X30107Y-84463D01*
X30199Y-84501D01*
X30299Y-84501D01*
X30347Y-84481D01*
X36652Y-84481D01*
X36699Y-84501D01*
X36799Y-84501D01*
X36892Y-84463D01*
X36963Y-84392D01*
X37001Y-84300D01*
X37001Y-84200D01*
X37001Y-85716D01*
X36501Y-85716D01*
X36501Y-84700D01*
X36463Y-84607D01*
X36392Y-84536D01*
X36300Y-84498D01*
X36200Y-84498D01*
X36152Y-84518D01*
X29929Y-84518D01*
X29929Y-80665D01*
X29863Y-80507D01*
X29791Y-80434D01*
X29791Y-79750D01*
X29649Y-79607D01*
X29609Y-79648D01*
X29600Y-79805D01*
X29609Y-79851D01*
X29649Y-79892D01*
X29791Y-79750D01*
X29791Y-80434D01*
X29743Y-80386D01*
X29585Y-80321D01*
X29415Y-80320D01*
X29257Y-80386D01*
X29136Y-80506D01*
X29071Y-80664D01*
X29070Y-80834D01*
X29136Y-80992D01*
X29256Y-81113D01*
X29414Y-81178D01*
X29584Y-81179D01*
X29742Y-81113D01*
X29863Y-80993D01*
X29928Y-80835D01*
X29929Y-80665D01*
X29929Y-84518D01*
X29847Y-84518D01*
X29800Y-84498D01*
X29700Y-84498D01*
X29607Y-84536D01*
X29536Y-84607D01*
X29498Y-84699D01*
X29498Y-84799D01*
X29536Y-84892D01*
X29607Y-84963D01*
X29699Y-85001D01*
X29799Y-85001D01*
X29847Y-84981D01*
X36152Y-84981D01*
X36199Y-85001D01*
X36299Y-85001D01*
X36392Y-84963D01*
X36463Y-84892D01*
X36501Y-84800D01*
X36501Y-84700D01*
X36501Y-85716D01*
X28929Y-85716D01*
X28929Y-80665D01*
X28863Y-80507D01*
X28743Y-80386D01*
X28585Y-80321D01*
X28415Y-80320D01*
X28257Y-80386D01*
X28136Y-80506D01*
X28071Y-80664D01*
X28070Y-80834D01*
X28136Y-80992D01*
X28256Y-81113D01*
X28414Y-81178D01*
X28584Y-81179D01*
X28742Y-81113D01*
X28863Y-80993D01*
X28928Y-80835D01*
X28929Y-80665D01*
X28929Y-85716D01*
X27929Y-85716D01*
X27929Y-81019D01*
X27929Y-80428D01*
X27908Y-80378D01*
X27871Y-80341D01*
X27822Y-80321D01*
X27769Y-80320D01*
X27178Y-80320D01*
X27128Y-80341D01*
X27091Y-80378D01*
X27071Y-80427D01*
X27070Y-80480D01*
X27070Y-81071D01*
X27091Y-81121D01*
X27128Y-81158D01*
X27177Y-81178D01*
X27230Y-81179D01*
X27821Y-81179D01*
X27871Y-81158D01*
X27908Y-81121D01*
X27928Y-81072D01*
X27929Y-81019D01*
X27929Y-85716D01*
X27724Y-85716D01*
X27724Y-83106D01*
X27614Y-82840D01*
X27410Y-82636D01*
X27144Y-82526D01*
X26856Y-82525D01*
X26794Y-82551D01*
X26794Y-81938D01*
X26791Y-81923D01*
X26745Y-81852D01*
X26548Y-82049D01*
X26745Y-82245D01*
X26791Y-82174D01*
X26794Y-81938D01*
X26794Y-82551D01*
X26590Y-82635D01*
X26397Y-82828D01*
X26397Y-82593D01*
X26397Y-81504D01*
X26326Y-81458D01*
X26090Y-81455D01*
X26075Y-81458D01*
X26004Y-81504D01*
X26200Y-81701D01*
X26397Y-81504D01*
X26397Y-82593D01*
X26200Y-82397D01*
X26004Y-82593D01*
X26075Y-82640D01*
X26311Y-82643D01*
X26326Y-82640D01*
X26397Y-82593D01*
X26397Y-82828D01*
X26386Y-82839D01*
X26276Y-83105D01*
X26275Y-83393D01*
X26385Y-83659D01*
X26589Y-83863D01*
X26855Y-83973D01*
X27143Y-83974D01*
X27409Y-83864D01*
X27613Y-83660D01*
X27723Y-83394D01*
X27724Y-83106D01*
X27724Y-85716D01*
X26001Y-85716D01*
X26001Y-67200D01*
X25963Y-67107D01*
X25892Y-67036D01*
X25800Y-66998D01*
X25700Y-66998D01*
X25652Y-67018D01*
X25222Y-67018D01*
X25222Y-64987D01*
X25097Y-64684D01*
X24866Y-64453D01*
X24564Y-64327D01*
X24237Y-64327D01*
X23934Y-64452D01*
X23703Y-64683D01*
X23577Y-64985D01*
X23577Y-65312D01*
X23702Y-65615D01*
X23933Y-65846D01*
X24235Y-65972D01*
X24562Y-65972D01*
X24865Y-65847D01*
X25096Y-65616D01*
X25222Y-65314D01*
X25222Y-64987D01*
X25222Y-67018D01*
X24750Y-67018D01*
X24750Y-67018D01*
X24661Y-67035D01*
X24586Y-67086D01*
X24586Y-67086D01*
X24086Y-67586D01*
X24035Y-67661D01*
X24018Y-67750D01*
X24018Y-67750D01*
X24018Y-71652D01*
X23998Y-71699D01*
X23998Y-71799D01*
X24036Y-71892D01*
X24107Y-71963D01*
X24199Y-72001D01*
X24299Y-72001D01*
X24392Y-71963D01*
X24463Y-71892D01*
X24501Y-71800D01*
X24501Y-71700D01*
X24481Y-71652D01*
X24481Y-67846D01*
X24846Y-67481D01*
X25652Y-67481D01*
X25699Y-67501D01*
X25799Y-67501D01*
X25892Y-67463D01*
X25963Y-67392D01*
X26001Y-67300D01*
X26001Y-67200D01*
X26001Y-85716D01*
X25852Y-85716D01*
X25852Y-82049D01*
X25656Y-81852D01*
X25609Y-81923D01*
X25606Y-82159D01*
X25609Y-82174D01*
X25656Y-82245D01*
X25852Y-82049D01*
X25852Y-85716D01*
X25222Y-85716D01*
X25222Y-84687D01*
X25097Y-84384D01*
X24866Y-84153D01*
X24564Y-84027D01*
X24237Y-84027D01*
X23934Y-84152D01*
X23703Y-84383D01*
X23577Y-84685D01*
X23577Y-85012D01*
X23702Y-85315D01*
X23933Y-85546D01*
X24235Y-85672D01*
X24562Y-85672D01*
X24865Y-85547D01*
X25096Y-85316D01*
X25222Y-85014D01*
X25222Y-84687D01*
X25222Y-85716D01*
X23533Y-85716D01*
X23533Y-64283D01*
X42966Y-64283D01*
X42966Y-85716D01*
G54D10*
G36*
X55966Y-63716D02*
X55519Y-63716D01*
X55519Y-62150D01*
X55519Y-48150D01*
X55480Y-47953D01*
X55404Y-47769D01*
X55293Y-47602D01*
X55152Y-47460D01*
X54987Y-47349D01*
X54802Y-47271D01*
X54607Y-47231D01*
X54407Y-47229D01*
X54210Y-47267D01*
X54025Y-47342D01*
X53858Y-47451D01*
X53715Y-47591D01*
X53602Y-47756D01*
X53523Y-47940D01*
X53482Y-48135D01*
X53479Y-48335D01*
X53515Y-48532D01*
X53589Y-48718D01*
X53697Y-48886D01*
X53836Y-49029D01*
X54000Y-49144D01*
X54183Y-49224D01*
X54378Y-49267D01*
X54578Y-49271D01*
X54775Y-49236D01*
X54961Y-49164D01*
X55130Y-49057D01*
X55275Y-48919D01*
X55390Y-48755D01*
X55471Y-48573D01*
X55516Y-48378D01*
X55519Y-48150D01*
X55519Y-62150D01*
X55480Y-61953D01*
X55404Y-61769D01*
X55293Y-61602D01*
X55152Y-61460D01*
X54987Y-61349D01*
X54802Y-61271D01*
X54607Y-61231D01*
X54407Y-61229D01*
X54210Y-61267D01*
X54025Y-61342D01*
X54001Y-61357D01*
X54001Y-54975D01*
X53992Y-54926D01*
X53973Y-54881D01*
X53945Y-54840D01*
X53911Y-54805D01*
X53870Y-54777D01*
X53824Y-54758D01*
X53776Y-54748D01*
X53727Y-54748D01*
X53678Y-54757D01*
X53652Y-54768D01*
X49347Y-54768D01*
X49324Y-54758D01*
X49276Y-54748D01*
X49227Y-54748D01*
X49178Y-54757D01*
X49132Y-54775D01*
X49091Y-54802D01*
X49056Y-54837D01*
X49028Y-54878D01*
X49009Y-54923D01*
X48998Y-54971D01*
X48998Y-55021D01*
X49007Y-55069D01*
X49025Y-55115D01*
X49051Y-55157D01*
X49086Y-55192D01*
X49126Y-55220D01*
X49171Y-55240D01*
X49220Y-55251D01*
X49269Y-55252D01*
X49317Y-55243D01*
X49347Y-55231D01*
X53652Y-55231D01*
X53671Y-55240D01*
X53720Y-55251D01*
X53769Y-55252D01*
X53817Y-55243D01*
X53863Y-55225D01*
X53905Y-55199D01*
X53941Y-55165D01*
X53969Y-55124D01*
X53989Y-55079D01*
X54000Y-55031D01*
X54001Y-54975D01*
X54001Y-61357D01*
X53858Y-61451D01*
X53715Y-61591D01*
X53602Y-61756D01*
X53523Y-61940D01*
X53482Y-62135D01*
X53479Y-62335D01*
X53515Y-62532D01*
X53589Y-62718D01*
X53697Y-62886D01*
X53836Y-63029D01*
X54000Y-63144D01*
X54183Y-63224D01*
X54378Y-63267D01*
X54578Y-63271D01*
X54775Y-63236D01*
X54961Y-63164D01*
X55130Y-63057D01*
X55275Y-62919D01*
X55390Y-62755D01*
X55471Y-62573D01*
X55516Y-62378D01*
X55519Y-62150D01*
X55519Y-63716D01*
X52626Y-63716D01*
X52626Y-59272D01*
X52626Y-56272D01*
X52623Y-56198D01*
X52614Y-56154D01*
X52576Y-56118D01*
X52444Y-56250D01*
X52576Y-56381D01*
X52614Y-56345D01*
X52626Y-56272D01*
X52626Y-59272D01*
X52623Y-59198D01*
X52614Y-59154D01*
X52576Y-59118D01*
X52444Y-59250D01*
X52576Y-59381D01*
X52614Y-59345D01*
X52626Y-59272D01*
X52626Y-63716D01*
X52381Y-63716D01*
X52381Y-59576D01*
X52381Y-58923D01*
X52381Y-56576D01*
X52381Y-55923D01*
X52345Y-55885D01*
X52272Y-55873D01*
X52198Y-55876D01*
X52154Y-55885D01*
X52118Y-55923D01*
X52250Y-56055D01*
X52381Y-55923D01*
X52381Y-56576D01*
X52250Y-56444D01*
X52118Y-56576D01*
X52154Y-56614D01*
X52227Y-56626D01*
X52301Y-56623D01*
X52345Y-56614D01*
X52381Y-56576D01*
X52381Y-58923D01*
X52345Y-58885D01*
X52272Y-58873D01*
X52198Y-58876D01*
X52154Y-58885D01*
X52118Y-58923D01*
X52250Y-59055D01*
X52381Y-58923D01*
X52381Y-59576D01*
X52250Y-59444D01*
X52118Y-59576D01*
X52154Y-59614D01*
X52227Y-59626D01*
X52301Y-59623D01*
X52345Y-59614D01*
X52381Y-59576D01*
X52381Y-63716D01*
X52055Y-63716D01*
X52055Y-59250D01*
X52055Y-56250D01*
X51923Y-56118D01*
X51885Y-56154D01*
X51873Y-56227D01*
X51876Y-56301D01*
X51885Y-56345D01*
X51923Y-56381D01*
X52055Y-56250D01*
X52055Y-59250D01*
X51923Y-59118D01*
X51885Y-59154D01*
X51873Y-59227D01*
X51876Y-59301D01*
X51885Y-59345D01*
X51923Y-59381D01*
X52055Y-59250D01*
X52055Y-63716D01*
X50658Y-63716D01*
X50658Y-59209D01*
X50658Y-56209D01*
X50642Y-56131D01*
X50612Y-56057D01*
X50568Y-55990D01*
X50511Y-55933D01*
X50445Y-55888D01*
X50371Y-55857D01*
X50292Y-55841D01*
X50212Y-55841D01*
X50134Y-55856D01*
X50059Y-55886D01*
X50001Y-55924D01*
X50001Y-55725D01*
X49992Y-55676D01*
X49973Y-55631D01*
X49945Y-55590D01*
X49911Y-55555D01*
X49870Y-55527D01*
X49824Y-55508D01*
X49776Y-55498D01*
X49727Y-55498D01*
X49678Y-55507D01*
X49652Y-55518D01*
X49500Y-55518D01*
X49250Y-55518D01*
X47204Y-55518D01*
X47197Y-55511D01*
X47147Y-55477D01*
X47091Y-55453D01*
X47032Y-55441D01*
X46971Y-55441D01*
X46912Y-55452D01*
X46856Y-55475D01*
X46805Y-55508D01*
X46795Y-55518D01*
X46250Y-55518D01*
X45250Y-55518D01*
X44750Y-55518D01*
X42600Y-55518D01*
X42600Y-48740D01*
X42600Y-47759D01*
X42600Y-47739D01*
X42596Y-47720D01*
X42588Y-47702D01*
X42577Y-47685D01*
X42563Y-47671D01*
X42547Y-47660D01*
X42529Y-47653D01*
X42509Y-47649D01*
X42275Y-47649D01*
X42250Y-47674D01*
X42250Y-48000D01*
X42575Y-48000D01*
X42600Y-47974D01*
X42600Y-47759D01*
X42600Y-48740D01*
X42600Y-48525D01*
X42575Y-48500D01*
X42250Y-48500D01*
X42250Y-48825D01*
X42275Y-48850D01*
X42509Y-48850D01*
X42529Y-48846D01*
X42547Y-48839D01*
X42563Y-48828D01*
X42577Y-48814D01*
X42588Y-48797D01*
X42596Y-48779D01*
X42600Y-48760D01*
X42600Y-48740D01*
X42600Y-55518D01*
X41750Y-55518D01*
X41750Y-48825D01*
X41750Y-48500D01*
X41750Y-48000D01*
X41750Y-47674D01*
X41724Y-47649D01*
X41490Y-47649D01*
X41470Y-47653D01*
X41452Y-47660D01*
X41436Y-47671D01*
X41422Y-47685D01*
X41411Y-47702D01*
X41403Y-47720D01*
X41399Y-47739D01*
X41399Y-47759D01*
X41399Y-47974D01*
X41424Y-48000D01*
X41750Y-48000D01*
X41750Y-48500D01*
X41424Y-48500D01*
X41399Y-48525D01*
X41399Y-48740D01*
X41399Y-48760D01*
X41403Y-48779D01*
X41411Y-48797D01*
X41422Y-48814D01*
X41436Y-48828D01*
X41452Y-48839D01*
X41470Y-48846D01*
X41490Y-48850D01*
X41724Y-48850D01*
X41750Y-48825D01*
X41750Y-55518D01*
X40633Y-55518D01*
X40633Y-48187D01*
X40609Y-48066D01*
X40562Y-47951D01*
X40493Y-47847D01*
X40405Y-47759D01*
X40302Y-47690D01*
X40188Y-47641D01*
X40066Y-47616D01*
X39942Y-47616D01*
X39820Y-47639D01*
X39705Y-47685D01*
X39601Y-47753D01*
X39512Y-47840D01*
X39442Y-47943D01*
X39393Y-48057D01*
X39367Y-48179D01*
X39365Y-48303D01*
X39388Y-48425D01*
X39433Y-48540D01*
X39501Y-48645D01*
X39587Y-48734D01*
X39689Y-48805D01*
X39803Y-48855D01*
X39924Y-48882D01*
X40048Y-48884D01*
X40171Y-48863D01*
X40286Y-48818D01*
X40391Y-48751D01*
X40481Y-48665D01*
X40553Y-48564D01*
X40603Y-48450D01*
X40631Y-48329D01*
X40633Y-48187D01*
X40633Y-55518D01*
X40500Y-55518D01*
X40481Y-55518D01*
X40481Y-54500D01*
X40479Y-54478D01*
X40477Y-54457D01*
X40477Y-54456D01*
X40477Y-54454D01*
X40471Y-54434D01*
X40465Y-54413D01*
X40464Y-54412D01*
X40464Y-54411D01*
X40454Y-54392D01*
X40444Y-54373D01*
X40443Y-54372D01*
X40443Y-54371D01*
X40429Y-54355D01*
X40416Y-54338D01*
X40414Y-54336D01*
X40414Y-54336D01*
X40414Y-54336D01*
X40413Y-54336D01*
X40163Y-54086D01*
X40147Y-54072D01*
X40131Y-54058D01*
X40129Y-54058D01*
X40128Y-54057D01*
X40110Y-54047D01*
X40091Y-54036D01*
X40090Y-54036D01*
X40089Y-54035D01*
X40068Y-54029D01*
X40048Y-54023D01*
X40047Y-54023D01*
X40045Y-54022D01*
X40024Y-54020D01*
X40003Y-54018D01*
X40000Y-54018D01*
X40000Y-54018D01*
X40000Y-54018D01*
X40000Y-54018D01*
X39750Y-54018D01*
X39097Y-54018D01*
X39074Y-54008D01*
X39026Y-53998D01*
X38977Y-53998D01*
X38928Y-54007D01*
X38902Y-54018D01*
X37597Y-54018D01*
X37574Y-54008D01*
X37526Y-53998D01*
X37477Y-53998D01*
X37428Y-54007D01*
X37382Y-54025D01*
X37341Y-54052D01*
X37306Y-54087D01*
X37278Y-54128D01*
X37259Y-54173D01*
X37248Y-54221D01*
X37248Y-54271D01*
X37257Y-54319D01*
X37275Y-54365D01*
X37301Y-54407D01*
X37336Y-54442D01*
X37376Y-54470D01*
X37421Y-54490D01*
X37470Y-54501D01*
X37519Y-54502D01*
X37567Y-54493D01*
X37597Y-54481D01*
X38902Y-54481D01*
X38921Y-54490D01*
X38970Y-54501D01*
X39019Y-54502D01*
X39067Y-54493D01*
X39097Y-54481D01*
X39750Y-54481D01*
X39903Y-54481D01*
X40018Y-54596D01*
X40018Y-55750D01*
X40018Y-57153D01*
X39653Y-57518D01*
X38751Y-57518D01*
X38751Y-55475D01*
X38742Y-55426D01*
X38723Y-55381D01*
X38695Y-55340D01*
X38661Y-55305D01*
X38620Y-55277D01*
X38574Y-55258D01*
X38526Y-55248D01*
X38477Y-55248D01*
X38428Y-55257D01*
X38402Y-55268D01*
X36921Y-55268D01*
X36921Y-50159D01*
X36885Y-49982D01*
X36817Y-49815D01*
X36717Y-49665D01*
X36589Y-49536D01*
X36440Y-49435D01*
X36273Y-49365D01*
X36096Y-49329D01*
X35916Y-49328D01*
X35738Y-49362D01*
X35571Y-49429D01*
X35420Y-49528D01*
X35291Y-49655D01*
X35189Y-49804D01*
X35117Y-49970D01*
X35080Y-50146D01*
X35077Y-50327D01*
X35110Y-50505D01*
X35176Y-50673D01*
X35274Y-50824D01*
X35400Y-50954D01*
X35548Y-51057D01*
X35714Y-51130D01*
X35890Y-51168D01*
X36070Y-51172D01*
X36248Y-51141D01*
X36417Y-51076D01*
X36569Y-50979D01*
X36700Y-50854D01*
X36804Y-50707D01*
X36878Y-50542D01*
X36918Y-50365D01*
X36921Y-50159D01*
X36921Y-55268D01*
X36751Y-55268D01*
X36751Y-54225D01*
X36742Y-54176D01*
X36731Y-54152D01*
X36731Y-53097D01*
X36739Y-53079D01*
X36750Y-53031D01*
X36751Y-52975D01*
X36742Y-52926D01*
X36723Y-52881D01*
X36695Y-52840D01*
X36661Y-52805D01*
X36620Y-52777D01*
X36574Y-52758D01*
X36526Y-52748D01*
X36477Y-52748D01*
X36428Y-52757D01*
X36382Y-52775D01*
X36341Y-52802D01*
X36306Y-52837D01*
X36278Y-52878D01*
X36259Y-52923D01*
X36248Y-52971D01*
X36248Y-53021D01*
X36257Y-53069D01*
X36268Y-53097D01*
X36268Y-54152D01*
X36259Y-54173D01*
X36248Y-54221D01*
X36248Y-54271D01*
X36257Y-54319D01*
X36275Y-54365D01*
X36301Y-54407D01*
X36336Y-54442D01*
X36376Y-54470D01*
X36421Y-54490D01*
X36470Y-54501D01*
X36519Y-54502D01*
X36567Y-54493D01*
X36613Y-54475D01*
X36655Y-54449D01*
X36691Y-54415D01*
X36719Y-54374D01*
X36739Y-54329D01*
X36750Y-54281D01*
X36751Y-54225D01*
X36751Y-55268D01*
X35097Y-55268D01*
X35074Y-55258D01*
X35026Y-55248D01*
X34977Y-55248D01*
X34928Y-55257D01*
X34882Y-55275D01*
X34841Y-55302D01*
X34806Y-55337D01*
X34778Y-55378D01*
X34759Y-55423D01*
X34748Y-55471D01*
X34748Y-55521D01*
X34757Y-55569D01*
X34775Y-55615D01*
X34801Y-55657D01*
X34836Y-55692D01*
X34876Y-55720D01*
X34921Y-55740D01*
X34970Y-55751D01*
X35019Y-55752D01*
X35067Y-55743D01*
X35097Y-55731D01*
X38402Y-55731D01*
X38421Y-55740D01*
X38470Y-55751D01*
X38519Y-55752D01*
X38567Y-55743D01*
X38613Y-55725D01*
X38655Y-55699D01*
X38691Y-55665D01*
X38719Y-55624D01*
X38739Y-55579D01*
X38750Y-55531D01*
X38751Y-55475D01*
X38751Y-57518D01*
X38597Y-57518D01*
X38574Y-57508D01*
X38526Y-57498D01*
X38477Y-57498D01*
X38428Y-57507D01*
X38402Y-57518D01*
X37751Y-57518D01*
X37751Y-56475D01*
X37742Y-56426D01*
X37723Y-56381D01*
X37695Y-56340D01*
X37661Y-56305D01*
X37620Y-56277D01*
X37574Y-56258D01*
X37526Y-56248D01*
X37477Y-56248D01*
X37428Y-56257D01*
X37402Y-56268D01*
X37251Y-56268D01*
X37251Y-55975D01*
X37242Y-55926D01*
X37223Y-55881D01*
X37195Y-55840D01*
X37161Y-55805D01*
X37120Y-55777D01*
X37074Y-55758D01*
X37026Y-55748D01*
X36977Y-55748D01*
X36928Y-55757D01*
X36902Y-55768D01*
X35597Y-55768D01*
X35574Y-55758D01*
X35526Y-55748D01*
X35477Y-55748D01*
X35428Y-55757D01*
X35382Y-55775D01*
X35341Y-55802D01*
X35306Y-55837D01*
X35278Y-55878D01*
X35259Y-55923D01*
X35248Y-55971D01*
X35248Y-56021D01*
X35257Y-56069D01*
X35275Y-56115D01*
X35301Y-56157D01*
X35336Y-56192D01*
X35376Y-56220D01*
X35421Y-56240D01*
X35470Y-56251D01*
X35519Y-56252D01*
X35567Y-56243D01*
X35597Y-56231D01*
X36902Y-56231D01*
X36921Y-56240D01*
X36970Y-56251D01*
X37019Y-56252D01*
X37067Y-56243D01*
X37113Y-56225D01*
X37155Y-56199D01*
X37191Y-56165D01*
X37219Y-56124D01*
X37239Y-56079D01*
X37250Y-56031D01*
X37251Y-55975D01*
X37251Y-56268D01*
X35000Y-56268D01*
X34978Y-56270D01*
X34957Y-56272D01*
X34956Y-56272D01*
X34954Y-56272D01*
X34934Y-56278D01*
X34913Y-56284D01*
X34912Y-56285D01*
X34911Y-56285D01*
X34892Y-56295D01*
X34873Y-56305D01*
X34872Y-56306D01*
X34871Y-56306D01*
X34855Y-56320D01*
X34838Y-56333D01*
X34836Y-56335D01*
X34836Y-56335D01*
X34836Y-56335D01*
X34836Y-56336D01*
X34586Y-56586D01*
X34586Y-56586D01*
X34405Y-56767D01*
X34382Y-56775D01*
X34341Y-56802D01*
X34306Y-56837D01*
X34278Y-56878D01*
X34259Y-56923D01*
X34248Y-56971D01*
X34248Y-57021D01*
X34257Y-57069D01*
X34275Y-57115D01*
X34301Y-57157D01*
X34336Y-57192D01*
X34376Y-57220D01*
X34421Y-57240D01*
X34470Y-57251D01*
X34519Y-57252D01*
X34567Y-57243D01*
X34613Y-57225D01*
X34655Y-57199D01*
X34691Y-57165D01*
X34719Y-57124D01*
X34733Y-57094D01*
X34913Y-56913D01*
X34913Y-56913D01*
X34913Y-56913D01*
X35096Y-56731D01*
X37402Y-56731D01*
X37421Y-56740D01*
X37470Y-56751D01*
X37519Y-56752D01*
X37567Y-56743D01*
X37613Y-56725D01*
X37655Y-56699D01*
X37691Y-56665D01*
X37719Y-56624D01*
X37739Y-56579D01*
X37750Y-56531D01*
X37751Y-56475D01*
X37751Y-57518D01*
X37097Y-57518D01*
X37074Y-57508D01*
X37026Y-57498D01*
X36977Y-57498D01*
X36928Y-57507D01*
X36882Y-57525D01*
X36841Y-57552D01*
X36806Y-57587D01*
X36778Y-57628D01*
X36759Y-57673D01*
X36748Y-57721D01*
X36748Y-57771D01*
X36757Y-57819D01*
X36775Y-57865D01*
X36801Y-57907D01*
X36836Y-57942D01*
X36876Y-57970D01*
X36921Y-57990D01*
X36966Y-58000D01*
X36928Y-58007D01*
X36902Y-58018D01*
X36251Y-58018D01*
X36251Y-57725D01*
X36242Y-57676D01*
X36223Y-57631D01*
X36195Y-57590D01*
X36161Y-57555D01*
X36120Y-57527D01*
X36074Y-57508D01*
X36026Y-57498D01*
X35977Y-57498D01*
X35928Y-57507D01*
X35902Y-57518D01*
X33731Y-57518D01*
X33731Y-57346D01*
X34594Y-56483D01*
X34613Y-56475D01*
X34655Y-56449D01*
X34691Y-56415D01*
X34719Y-56374D01*
X34739Y-56329D01*
X34750Y-56281D01*
X34751Y-56225D01*
X34742Y-56176D01*
X34723Y-56131D01*
X34695Y-56090D01*
X34661Y-56055D01*
X34620Y-56027D01*
X34574Y-56008D01*
X34526Y-55998D01*
X34477Y-55998D01*
X34428Y-56007D01*
X34382Y-56025D01*
X34341Y-56052D01*
X34306Y-56087D01*
X34278Y-56128D01*
X34266Y-56155D01*
X33336Y-57086D01*
X33322Y-57102D01*
X33308Y-57118D01*
X33308Y-57120D01*
X33307Y-57121D01*
X33297Y-57139D01*
X33286Y-57158D01*
X33286Y-57159D01*
X33285Y-57160D01*
X33279Y-57181D01*
X33273Y-57201D01*
X33273Y-57202D01*
X33272Y-57204D01*
X33270Y-57225D01*
X33268Y-57246D01*
X33268Y-57249D01*
X33268Y-57249D01*
X33268Y-57249D01*
X33268Y-57250D01*
X33268Y-57652D01*
X33259Y-57673D01*
X33248Y-57721D01*
X33248Y-57771D01*
X33257Y-57819D01*
X33275Y-57865D01*
X33301Y-57907D01*
X33336Y-57942D01*
X33376Y-57970D01*
X33421Y-57990D01*
X33470Y-58001D01*
X33519Y-58002D01*
X33567Y-57993D01*
X33597Y-57981D01*
X35902Y-57981D01*
X35921Y-57990D01*
X35970Y-58001D01*
X36019Y-58002D01*
X36067Y-57993D01*
X36113Y-57975D01*
X36155Y-57949D01*
X36191Y-57915D01*
X36219Y-57874D01*
X36239Y-57829D01*
X36250Y-57781D01*
X36251Y-57725D01*
X36251Y-58018D01*
X35597Y-58018D01*
X35574Y-58008D01*
X35526Y-57998D01*
X35477Y-57998D01*
X35428Y-58007D01*
X35382Y-58025D01*
X35341Y-58052D01*
X35306Y-58087D01*
X35278Y-58128D01*
X35259Y-58173D01*
X35248Y-58221D01*
X35248Y-58271D01*
X35257Y-58319D01*
X35275Y-58365D01*
X35301Y-58407D01*
X35336Y-58442D01*
X35376Y-58470D01*
X35421Y-58490D01*
X35470Y-58501D01*
X35519Y-58502D01*
X35567Y-58493D01*
X35597Y-58481D01*
X36902Y-58481D01*
X36921Y-58490D01*
X36970Y-58501D01*
X37019Y-58502D01*
X37067Y-58493D01*
X37113Y-58475D01*
X37155Y-58449D01*
X37191Y-58415D01*
X37219Y-58374D01*
X37239Y-58329D01*
X37250Y-58281D01*
X37251Y-58225D01*
X37242Y-58176D01*
X37223Y-58131D01*
X37195Y-58090D01*
X37161Y-58055D01*
X37120Y-58027D01*
X37074Y-58008D01*
X37032Y-57999D01*
X37067Y-57993D01*
X37097Y-57981D01*
X38402Y-57981D01*
X38421Y-57990D01*
X38470Y-58001D01*
X38519Y-58002D01*
X38567Y-57993D01*
X38597Y-57981D01*
X39750Y-57981D01*
X39771Y-57979D01*
X39792Y-57977D01*
X39793Y-57977D01*
X39795Y-57977D01*
X39815Y-57971D01*
X39836Y-57965D01*
X39837Y-57964D01*
X39838Y-57964D01*
X39857Y-57954D01*
X39876Y-57944D01*
X39877Y-57943D01*
X39878Y-57943D01*
X39894Y-57929D01*
X39911Y-57916D01*
X39913Y-57914D01*
X39913Y-57914D01*
X39913Y-57914D01*
X39913Y-57913D01*
X40413Y-57413D01*
X40427Y-57397D01*
X40441Y-57381D01*
X40441Y-57379D01*
X40442Y-57378D01*
X40452Y-57360D01*
X40463Y-57341D01*
X40463Y-57340D01*
X40464Y-57339D01*
X40470Y-57318D01*
X40476Y-57298D01*
X40476Y-57297D01*
X40477Y-57295D01*
X40479Y-57274D01*
X40481Y-57253D01*
X40481Y-57250D01*
X40481Y-57250D01*
X40481Y-57250D01*
X40481Y-57250D01*
X40481Y-55981D01*
X40500Y-55981D01*
X44750Y-55981D01*
X45250Y-55981D01*
X46250Y-55981D01*
X46795Y-55981D01*
X46799Y-55986D01*
X46848Y-56020D01*
X46904Y-56044D01*
X46963Y-56057D01*
X47023Y-56059D01*
X47083Y-56048D01*
X47139Y-56026D01*
X47190Y-55994D01*
X47203Y-55981D01*
X49250Y-55981D01*
X49500Y-55981D01*
X49652Y-55981D01*
X49671Y-55990D01*
X49720Y-56001D01*
X49769Y-56002D01*
X49817Y-55993D01*
X49863Y-55975D01*
X49905Y-55949D01*
X49941Y-55915D01*
X49969Y-55874D01*
X49989Y-55829D01*
X50000Y-55781D01*
X50001Y-55725D01*
X50001Y-55924D01*
X49992Y-55930D01*
X49935Y-55986D01*
X49890Y-56052D01*
X49858Y-56125D01*
X49842Y-56204D01*
X49840Y-56284D01*
X49855Y-56363D01*
X49884Y-56437D01*
X49928Y-56504D01*
X49983Y-56562D01*
X50049Y-56608D01*
X50123Y-56640D01*
X50201Y-56657D01*
X50281Y-56659D01*
X50360Y-56645D01*
X50435Y-56616D01*
X50502Y-56573D01*
X50560Y-56518D01*
X50606Y-56452D01*
X50639Y-56379D01*
X50657Y-56301D01*
X50658Y-56209D01*
X50658Y-59209D01*
X50642Y-59131D01*
X50612Y-59057D01*
X50568Y-58990D01*
X50511Y-58933D01*
X50445Y-58888D01*
X50371Y-58857D01*
X50292Y-58841D01*
X50212Y-58841D01*
X50134Y-58856D01*
X50059Y-58886D01*
X49992Y-58930D01*
X49935Y-58986D01*
X49913Y-59018D01*
X47501Y-59018D01*
X47501Y-58225D01*
X47492Y-58176D01*
X47473Y-58131D01*
X47445Y-58090D01*
X47411Y-58055D01*
X47370Y-58027D01*
X47324Y-58008D01*
X47276Y-57998D01*
X47227Y-57998D01*
X47178Y-58007D01*
X47152Y-58018D01*
X46501Y-58018D01*
X46501Y-57725D01*
X46492Y-57676D01*
X46473Y-57631D01*
X46445Y-57590D01*
X46411Y-57555D01*
X46370Y-57527D01*
X46324Y-57508D01*
X46276Y-57498D01*
X46227Y-57498D01*
X46178Y-57507D01*
X46152Y-57518D01*
X42347Y-57518D01*
X42324Y-57508D01*
X42276Y-57498D01*
X42227Y-57498D01*
X42178Y-57507D01*
X42132Y-57525D01*
X42091Y-57552D01*
X42056Y-57587D01*
X42028Y-57628D01*
X42009Y-57673D01*
X41998Y-57721D01*
X41998Y-57771D01*
X42007Y-57819D01*
X42025Y-57865D01*
X42051Y-57907D01*
X42086Y-57942D01*
X42126Y-57970D01*
X42171Y-57990D01*
X42220Y-58001D01*
X42269Y-58002D01*
X42317Y-57993D01*
X42347Y-57981D01*
X46152Y-57981D01*
X46171Y-57990D01*
X46220Y-58001D01*
X46269Y-58002D01*
X46317Y-57993D01*
X46363Y-57975D01*
X46405Y-57949D01*
X46441Y-57915D01*
X46469Y-57874D01*
X46489Y-57829D01*
X46500Y-57781D01*
X46501Y-57725D01*
X46501Y-58018D01*
X46250Y-58018D01*
X44097Y-58018D01*
X44074Y-58008D01*
X44026Y-57998D01*
X43977Y-57998D01*
X43928Y-58007D01*
X43902Y-58018D01*
X40097Y-58018D01*
X40074Y-58008D01*
X40026Y-57998D01*
X39977Y-57998D01*
X39928Y-58007D01*
X39882Y-58025D01*
X39841Y-58052D01*
X39806Y-58087D01*
X39778Y-58128D01*
X39759Y-58173D01*
X39748Y-58221D01*
X39748Y-58271D01*
X39757Y-58319D01*
X39775Y-58365D01*
X39801Y-58407D01*
X39836Y-58442D01*
X39876Y-58470D01*
X39921Y-58490D01*
X39970Y-58501D01*
X40019Y-58502D01*
X40067Y-58493D01*
X40097Y-58481D01*
X43902Y-58481D01*
X43921Y-58490D01*
X43970Y-58501D01*
X44019Y-58502D01*
X44067Y-58493D01*
X44097Y-58481D01*
X46250Y-58481D01*
X47152Y-58481D01*
X47171Y-58490D01*
X47220Y-58501D01*
X47269Y-58502D01*
X47317Y-58493D01*
X47363Y-58475D01*
X47405Y-58449D01*
X47441Y-58415D01*
X47469Y-58374D01*
X47489Y-58329D01*
X47500Y-58281D01*
X47501Y-58225D01*
X47501Y-59018D01*
X46347Y-59018D01*
X46324Y-59008D01*
X46276Y-58998D01*
X46227Y-58998D01*
X46178Y-59007D01*
X46132Y-59025D01*
X46091Y-59052D01*
X46056Y-59087D01*
X46028Y-59128D01*
X46009Y-59173D01*
X45998Y-59221D01*
X45998Y-59271D01*
X46007Y-59319D01*
X46025Y-59365D01*
X46051Y-59407D01*
X46086Y-59442D01*
X46126Y-59470D01*
X46171Y-59490D01*
X46220Y-59501D01*
X46269Y-59502D01*
X46317Y-59493D01*
X46347Y-59481D01*
X49913Y-59481D01*
X49928Y-59504D01*
X49983Y-59562D01*
X50049Y-59608D01*
X50123Y-59640D01*
X50201Y-59657D01*
X50281Y-59659D01*
X50360Y-59645D01*
X50435Y-59616D01*
X50502Y-59573D01*
X50560Y-59518D01*
X50606Y-59452D01*
X50639Y-59379D01*
X50657Y-59301D01*
X50658Y-59209D01*
X50658Y-63716D01*
X44461Y-63716D01*
X44461Y-60211D01*
X44443Y-60119D01*
X44408Y-60032D01*
X44356Y-59954D01*
X44290Y-59887D01*
X44212Y-59835D01*
X44126Y-59799D01*
X44034Y-59780D01*
X43940Y-59779D01*
X43848Y-59797D01*
X43761Y-59832D01*
X43683Y-59883D01*
X43616Y-59949D01*
X43563Y-60026D01*
X43526Y-60112D01*
X43506Y-60204D01*
X43505Y-60298D01*
X43522Y-60390D01*
X43556Y-60477D01*
X43607Y-60556D01*
X43672Y-60623D01*
X43749Y-60677D01*
X43835Y-60714D01*
X43927Y-60734D01*
X44020Y-60736D01*
X44113Y-60720D01*
X44200Y-60686D01*
X44279Y-60636D01*
X44347Y-60571D01*
X44401Y-60495D01*
X44439Y-60409D01*
X44460Y-60318D01*
X44461Y-60211D01*
X44461Y-63716D01*
X43477Y-63716D01*
X43477Y-61195D01*
X43459Y-61103D01*
X43424Y-61016D01*
X43372Y-60938D01*
X43306Y-60871D01*
X43228Y-60819D01*
X43142Y-60783D01*
X43050Y-60764D01*
X42956Y-60763D01*
X42864Y-60781D01*
X42777Y-60816D01*
X42699Y-60867D01*
X42632Y-60933D01*
X42579Y-61010D01*
X42542Y-61096D01*
X42522Y-61188D01*
X42521Y-61282D01*
X42538Y-61374D01*
X42572Y-61461D01*
X42623Y-61540D01*
X42688Y-61607D01*
X42765Y-61661D01*
X42851Y-61698D01*
X42943Y-61718D01*
X43036Y-61720D01*
X43129Y-61704D01*
X43216Y-61670D01*
X43295Y-61620D01*
X43363Y-61555D01*
X43417Y-61479D01*
X43455Y-61393D01*
X43476Y-61302D01*
X43477Y-61195D01*
X43477Y-63716D01*
X42462Y-63716D01*
X42462Y-60274D01*
X42457Y-60187D01*
X42450Y-60154D01*
X42410Y-60107D01*
X42259Y-60258D01*
X42410Y-60408D01*
X42450Y-60361D01*
X42462Y-60274D01*
X42462Y-63716D01*
X42166Y-63716D01*
X42166Y-60652D01*
X42166Y-59863D01*
X42119Y-59823D01*
X42032Y-59811D01*
X41945Y-59816D01*
X41912Y-59823D01*
X41865Y-59863D01*
X42016Y-60014D01*
X42166Y-59863D01*
X42166Y-60652D01*
X42016Y-60501D01*
X41865Y-60652D01*
X41912Y-60692D01*
X41999Y-60704D01*
X42086Y-60699D01*
X42119Y-60692D01*
X42166Y-60652D01*
X42166Y-63716D01*
X41772Y-63716D01*
X41772Y-60258D01*
X41621Y-60107D01*
X41581Y-60154D01*
X41569Y-60241D01*
X41574Y-60328D01*
X41581Y-60361D01*
X41621Y-60408D01*
X41772Y-60258D01*
X41772Y-63716D01*
X41001Y-63716D01*
X41001Y-58725D01*
X40992Y-58676D01*
X40973Y-58631D01*
X40945Y-58590D01*
X40911Y-58555D01*
X40870Y-58527D01*
X40824Y-58508D01*
X40776Y-58498D01*
X40727Y-58498D01*
X40678Y-58507D01*
X40652Y-58518D01*
X32846Y-58518D01*
X31913Y-57586D01*
X31897Y-57572D01*
X31881Y-57558D01*
X31879Y-57558D01*
X31878Y-57557D01*
X31860Y-57547D01*
X31841Y-57536D01*
X31840Y-57536D01*
X31839Y-57535D01*
X31818Y-57529D01*
X31798Y-57523D01*
X31797Y-57523D01*
X31795Y-57522D01*
X31774Y-57520D01*
X31753Y-57518D01*
X31750Y-57518D01*
X31750Y-57518D01*
X31750Y-57518D01*
X31750Y-57518D01*
X31610Y-57518D01*
X31586Y-57481D01*
X32902Y-57481D01*
X32921Y-57490D01*
X32970Y-57501D01*
X33019Y-57502D01*
X33067Y-57493D01*
X33113Y-57475D01*
X33155Y-57449D01*
X33191Y-57415D01*
X33219Y-57374D01*
X33239Y-57329D01*
X33250Y-57281D01*
X33251Y-57225D01*
X33242Y-57176D01*
X33223Y-57131D01*
X33195Y-57090D01*
X33161Y-57055D01*
X33120Y-57027D01*
X33074Y-57008D01*
X33026Y-56998D01*
X32977Y-56998D01*
X32928Y-57007D01*
X32902Y-57018D01*
X31585Y-57018D01*
X31624Y-56962D01*
X31659Y-56886D01*
X31677Y-56804D01*
X31678Y-56707D01*
X31662Y-56625D01*
X31630Y-56547D01*
X31586Y-56481D01*
X32902Y-56481D01*
X32921Y-56490D01*
X32970Y-56501D01*
X33019Y-56502D01*
X33067Y-56493D01*
X33113Y-56475D01*
X33155Y-56449D01*
X33191Y-56415D01*
X33219Y-56374D01*
X33239Y-56329D01*
X33250Y-56281D01*
X33251Y-56225D01*
X33242Y-56176D01*
X33223Y-56131D01*
X33195Y-56090D01*
X33161Y-56055D01*
X33120Y-56027D01*
X33074Y-56008D01*
X33026Y-55998D01*
X32977Y-55998D01*
X32928Y-56007D01*
X32902Y-56018D01*
X31585Y-56018D01*
X31624Y-55962D01*
X31659Y-55886D01*
X31677Y-55804D01*
X31678Y-55707D01*
X31662Y-55625D01*
X31630Y-55547D01*
X31586Y-55481D01*
X32902Y-55481D01*
X32921Y-55490D01*
X32970Y-55501D01*
X33019Y-55502D01*
X33067Y-55493D01*
X33113Y-55475D01*
X33155Y-55449D01*
X33191Y-55415D01*
X33219Y-55374D01*
X33239Y-55329D01*
X33250Y-55281D01*
X33251Y-55225D01*
X33242Y-55176D01*
X33223Y-55131D01*
X33195Y-55090D01*
X33161Y-55055D01*
X33120Y-55027D01*
X33074Y-55008D01*
X33026Y-54998D01*
X32977Y-54998D01*
X32928Y-55007D01*
X32902Y-55018D01*
X31585Y-55018D01*
X31624Y-54962D01*
X31659Y-54886D01*
X31677Y-54804D01*
X31678Y-54707D01*
X31662Y-54625D01*
X31630Y-54547D01*
X31584Y-54477D01*
X31524Y-54417D01*
X31455Y-54370D01*
X31377Y-54338D01*
X31295Y-54321D01*
X31210Y-54320D01*
X31128Y-54336D01*
X31050Y-54368D01*
X30979Y-54414D01*
X30919Y-54472D01*
X30872Y-54542D01*
X30839Y-54619D01*
X30821Y-54701D01*
X30820Y-54786D01*
X30835Y-54868D01*
X30866Y-54947D01*
X30912Y-55017D01*
X30912Y-55018D01*
X30679Y-55018D01*
X30679Y-54533D01*
X30678Y-53941D01*
X30673Y-53915D01*
X30663Y-53891D01*
X30649Y-53869D01*
X30630Y-53851D01*
X30609Y-53836D01*
X30585Y-53826D01*
X30559Y-53821D01*
X30533Y-53820D01*
X29941Y-53821D01*
X29915Y-53826D01*
X29891Y-53836D01*
X29869Y-53850D01*
X29851Y-53869D01*
X29836Y-53890D01*
X29826Y-53914D01*
X29821Y-53940D01*
X29820Y-53966D01*
X29821Y-54558D01*
X29826Y-54584D01*
X29836Y-54608D01*
X29850Y-54630D01*
X29869Y-54648D01*
X29890Y-54663D01*
X29914Y-54673D01*
X29940Y-54678D01*
X29966Y-54679D01*
X30558Y-54678D01*
X30584Y-54673D01*
X30608Y-54663D01*
X30630Y-54649D01*
X30648Y-54630D01*
X30663Y-54609D01*
X30673Y-54585D01*
X30678Y-54559D01*
X30679Y-54533D01*
X30679Y-55018D01*
X30610Y-55018D01*
X30584Y-54977D01*
X30524Y-54917D01*
X30455Y-54870D01*
X30377Y-54838D01*
X30295Y-54821D01*
X30210Y-54820D01*
X30128Y-54836D01*
X30050Y-54868D01*
X29979Y-54914D01*
X29919Y-54972D01*
X29872Y-55042D01*
X29839Y-55119D01*
X29821Y-55201D01*
X29820Y-55286D01*
X29835Y-55368D01*
X29866Y-55447D01*
X29912Y-55517D01*
X29970Y-55578D01*
X30039Y-55626D01*
X30116Y-55659D01*
X30198Y-55678D01*
X30283Y-55679D01*
X30365Y-55665D01*
X30444Y-55634D01*
X30515Y-55589D01*
X30576Y-55531D01*
X30611Y-55481D01*
X30913Y-55481D01*
X30872Y-55542D01*
X30839Y-55619D01*
X30821Y-55701D01*
X30820Y-55786D01*
X30835Y-55868D01*
X30866Y-55947D01*
X30912Y-56017D01*
X30912Y-56018D01*
X30610Y-56018D01*
X30584Y-55977D01*
X30524Y-55917D01*
X30455Y-55870D01*
X30377Y-55838D01*
X30295Y-55821D01*
X30210Y-55820D01*
X30128Y-55836D01*
X30050Y-55868D01*
X29979Y-55914D01*
X29919Y-55972D01*
X29872Y-56042D01*
X29839Y-56119D01*
X29821Y-56201D01*
X29820Y-56286D01*
X29835Y-56368D01*
X29866Y-56447D01*
X29912Y-56517D01*
X29970Y-56578D01*
X30039Y-56626D01*
X30116Y-56659D01*
X30198Y-56678D01*
X30283Y-56679D01*
X30365Y-56665D01*
X30444Y-56634D01*
X30515Y-56589D01*
X30576Y-56531D01*
X30611Y-56481D01*
X30913Y-56481D01*
X30872Y-56542D01*
X30839Y-56619D01*
X30821Y-56701D01*
X30820Y-56786D01*
X30835Y-56868D01*
X30866Y-56947D01*
X30912Y-57017D01*
X30912Y-57018D01*
X30610Y-57018D01*
X30584Y-56977D01*
X30524Y-56917D01*
X30455Y-56870D01*
X30377Y-56838D01*
X30295Y-56821D01*
X30210Y-56820D01*
X30128Y-56836D01*
X30050Y-56868D01*
X29979Y-56914D01*
X29919Y-56972D01*
X29872Y-57042D01*
X29839Y-57119D01*
X29821Y-57201D01*
X29820Y-57286D01*
X29835Y-57368D01*
X29866Y-57447D01*
X29912Y-57517D01*
X29970Y-57578D01*
X30039Y-57626D01*
X30116Y-57659D01*
X30198Y-57678D01*
X30283Y-57679D01*
X30365Y-57665D01*
X30444Y-57634D01*
X30515Y-57589D01*
X30576Y-57531D01*
X30611Y-57481D01*
X30913Y-57481D01*
X30872Y-57542D01*
X30839Y-57619D01*
X30821Y-57701D01*
X30820Y-57786D01*
X30835Y-57868D01*
X30866Y-57947D01*
X30912Y-58017D01*
X30970Y-58078D01*
X31039Y-58126D01*
X31116Y-58159D01*
X31198Y-58178D01*
X31283Y-58179D01*
X31365Y-58165D01*
X31444Y-58134D01*
X31515Y-58089D01*
X31576Y-58031D01*
X31611Y-57981D01*
X31653Y-57981D01*
X32586Y-58913D01*
X32602Y-58927D01*
X32618Y-58941D01*
X32620Y-58941D01*
X32621Y-58942D01*
X32639Y-58952D01*
X32658Y-58963D01*
X32659Y-58963D01*
X32660Y-58964D01*
X32681Y-58970D01*
X32701Y-58976D01*
X32702Y-58976D01*
X32704Y-58977D01*
X32725Y-58979D01*
X32746Y-58981D01*
X32749Y-58981D01*
X32749Y-58981D01*
X32749Y-58981D01*
X32750Y-58981D01*
X40652Y-58981D01*
X40671Y-58990D01*
X40720Y-59001D01*
X40769Y-59002D01*
X40817Y-58993D01*
X40863Y-58975D01*
X40905Y-58949D01*
X40941Y-58915D01*
X40969Y-58874D01*
X40989Y-58829D01*
X41000Y-58781D01*
X41001Y-58725D01*
X41001Y-63716D01*
X40376Y-63716D01*
X40376Y-61272D01*
X40373Y-61198D01*
X40364Y-61154D01*
X40326Y-61118D01*
X40194Y-61250D01*
X40326Y-61381D01*
X40364Y-61345D01*
X40376Y-61272D01*
X40376Y-63716D01*
X40131Y-63716D01*
X40131Y-61576D01*
X40131Y-60923D01*
X40095Y-60885D01*
X40022Y-60873D01*
X39948Y-60876D01*
X39904Y-60885D01*
X39868Y-60923D01*
X40000Y-61055D01*
X40131Y-60923D01*
X40131Y-61576D01*
X40000Y-61444D01*
X39868Y-61576D01*
X39904Y-61614D01*
X39977Y-61626D01*
X40051Y-61623D01*
X40095Y-61614D01*
X40131Y-61576D01*
X40131Y-63716D01*
X39805Y-63716D01*
X39805Y-61250D01*
X39673Y-61118D01*
X39635Y-61154D01*
X39623Y-61227D01*
X39626Y-61301D01*
X39635Y-61345D01*
X39673Y-61381D01*
X39805Y-61250D01*
X39805Y-63716D01*
X39408Y-63716D01*
X39408Y-61209D01*
X39392Y-61131D01*
X39362Y-61057D01*
X39318Y-60990D01*
X39261Y-60933D01*
X39195Y-60888D01*
X39121Y-60857D01*
X39042Y-60841D01*
X38962Y-60841D01*
X38884Y-60856D01*
X38809Y-60886D01*
X38742Y-60930D01*
X38685Y-60986D01*
X38640Y-61052D01*
X38608Y-61125D01*
X38592Y-61204D01*
X38590Y-61284D01*
X38605Y-61363D01*
X38634Y-61437D01*
X38678Y-61504D01*
X38733Y-61562D01*
X38799Y-61608D01*
X38873Y-61640D01*
X38951Y-61657D01*
X39031Y-61659D01*
X39110Y-61645D01*
X39185Y-61616D01*
X39252Y-61573D01*
X39310Y-61518D01*
X39356Y-61452D01*
X39389Y-61379D01*
X39407Y-61301D01*
X39408Y-61209D01*
X39408Y-63716D01*
X38408Y-63716D01*
X38408Y-61209D01*
X38392Y-61131D01*
X38362Y-61057D01*
X38318Y-60990D01*
X38261Y-60933D01*
X38195Y-60888D01*
X38121Y-60857D01*
X38042Y-60841D01*
X37962Y-60841D01*
X37884Y-60856D01*
X37809Y-60886D01*
X37742Y-60930D01*
X37685Y-60986D01*
X37640Y-61052D01*
X37608Y-61125D01*
X37592Y-61204D01*
X37590Y-61284D01*
X37605Y-61363D01*
X37634Y-61437D01*
X37678Y-61504D01*
X37733Y-61562D01*
X37799Y-61608D01*
X37873Y-61640D01*
X37951Y-61657D01*
X38031Y-61659D01*
X38110Y-61645D01*
X38185Y-61616D01*
X38252Y-61573D01*
X38310Y-61518D01*
X38356Y-61452D01*
X38389Y-61379D01*
X38407Y-61301D01*
X38408Y-61209D01*
X38408Y-63716D01*
X37408Y-63716D01*
X37408Y-61209D01*
X37392Y-61131D01*
X37362Y-61057D01*
X37318Y-60990D01*
X37261Y-60933D01*
X37195Y-60888D01*
X37121Y-60857D01*
X37042Y-60841D01*
X36962Y-60841D01*
X36884Y-60856D01*
X36809Y-60886D01*
X36742Y-60930D01*
X36685Y-60986D01*
X36640Y-61052D01*
X36608Y-61125D01*
X36592Y-61204D01*
X36590Y-61284D01*
X36605Y-61363D01*
X36634Y-61437D01*
X36678Y-61504D01*
X36733Y-61562D01*
X36799Y-61608D01*
X36873Y-61640D01*
X36951Y-61657D01*
X37031Y-61659D01*
X37110Y-61645D01*
X37185Y-61616D01*
X37252Y-61573D01*
X37310Y-61518D01*
X37356Y-61452D01*
X37389Y-61379D01*
X37407Y-61301D01*
X37408Y-61209D01*
X37408Y-63716D01*
X36408Y-63716D01*
X36408Y-61209D01*
X36392Y-61131D01*
X36362Y-61057D01*
X36318Y-60990D01*
X36261Y-60933D01*
X36195Y-60888D01*
X36121Y-60857D01*
X36042Y-60841D01*
X35962Y-60841D01*
X35884Y-60856D01*
X35809Y-60886D01*
X35742Y-60930D01*
X35685Y-60986D01*
X35640Y-61052D01*
X35608Y-61125D01*
X35592Y-61204D01*
X35590Y-61284D01*
X35605Y-61363D01*
X35634Y-61437D01*
X35678Y-61504D01*
X35733Y-61562D01*
X35799Y-61608D01*
X35873Y-61640D01*
X35951Y-61657D01*
X36031Y-61659D01*
X36110Y-61645D01*
X36185Y-61616D01*
X36252Y-61573D01*
X36310Y-61518D01*
X36356Y-61452D01*
X36389Y-61379D01*
X36407Y-61301D01*
X36408Y-61209D01*
X36408Y-63716D01*
X35408Y-63716D01*
X35408Y-61209D01*
X35392Y-61131D01*
X35362Y-61057D01*
X35318Y-60990D01*
X35261Y-60933D01*
X35195Y-60888D01*
X35121Y-60857D01*
X35042Y-60841D01*
X34962Y-60841D01*
X34884Y-60856D01*
X34809Y-60886D01*
X34742Y-60930D01*
X34685Y-60986D01*
X34640Y-61052D01*
X34608Y-61125D01*
X34592Y-61204D01*
X34590Y-61284D01*
X34605Y-61363D01*
X34634Y-61437D01*
X34678Y-61504D01*
X34733Y-61562D01*
X34799Y-61608D01*
X34873Y-61640D01*
X34951Y-61657D01*
X35031Y-61659D01*
X35110Y-61645D01*
X35185Y-61616D01*
X35252Y-61573D01*
X35310Y-61518D01*
X35356Y-61452D01*
X35389Y-61379D01*
X35407Y-61301D01*
X35408Y-61209D01*
X35408Y-63716D01*
X34408Y-63716D01*
X34408Y-61512D01*
X34408Y-60961D01*
X34403Y-60936D01*
X34393Y-60912D01*
X34378Y-60890D01*
X34360Y-60871D01*
X34338Y-60857D01*
X34314Y-60846D01*
X34289Y-60841D01*
X34262Y-60841D01*
X33711Y-60841D01*
X33686Y-60846D01*
X33662Y-60856D01*
X33640Y-60871D01*
X33621Y-60889D01*
X33607Y-60911D01*
X33596Y-60935D01*
X33591Y-60960D01*
X33591Y-60987D01*
X33591Y-61538D01*
X33596Y-61563D01*
X33606Y-61587D01*
X33621Y-61609D01*
X33639Y-61628D01*
X33661Y-61642D01*
X33685Y-61653D01*
X33710Y-61658D01*
X33737Y-61658D01*
X34288Y-61658D01*
X34313Y-61653D01*
X34337Y-61643D01*
X34359Y-61628D01*
X34378Y-61610D01*
X34392Y-61588D01*
X34403Y-61564D01*
X34408Y-61539D01*
X34408Y-61512D01*
X34408Y-63716D01*
X29576Y-63716D01*
X29576Y-58988D01*
X29576Y-52889D01*
X29552Y-52769D01*
X29505Y-52655D01*
X29437Y-52553D01*
X29351Y-52466D01*
X29249Y-52397D01*
X29136Y-52350D01*
X29016Y-52325D01*
X28893Y-52324D01*
X28773Y-52347D01*
X28659Y-52393D01*
X28556Y-52460D01*
X28469Y-52546D01*
X28399Y-52647D01*
X28351Y-52760D01*
X28326Y-52880D01*
X28324Y-53003D01*
X28346Y-53124D01*
X28358Y-53153D01*
X28295Y-53090D01*
X28157Y-52996D01*
X28003Y-52932D01*
X27921Y-52915D01*
X27921Y-50159D01*
X27885Y-49982D01*
X27817Y-49815D01*
X27717Y-49665D01*
X27589Y-49536D01*
X27440Y-49435D01*
X27273Y-49365D01*
X27096Y-49329D01*
X26916Y-49328D01*
X26738Y-49362D01*
X26571Y-49429D01*
X26420Y-49528D01*
X26291Y-49655D01*
X26189Y-49804D01*
X26117Y-49970D01*
X26080Y-50146D01*
X26077Y-50327D01*
X26110Y-50505D01*
X26176Y-50673D01*
X26274Y-50824D01*
X26400Y-50954D01*
X26548Y-51057D01*
X26714Y-51130D01*
X26890Y-51168D01*
X27070Y-51172D01*
X27248Y-51141D01*
X27417Y-51076D01*
X27569Y-50979D01*
X27700Y-50854D01*
X27804Y-50707D01*
X27878Y-50542D01*
X27918Y-50365D01*
X27921Y-50159D01*
X27921Y-52915D01*
X27839Y-52898D01*
X27672Y-52897D01*
X27508Y-52928D01*
X27353Y-52991D01*
X27213Y-53082D01*
X27094Y-53199D01*
X26999Y-53337D01*
X26933Y-53491D01*
X26899Y-53654D01*
X26896Y-53821D01*
X26927Y-53985D01*
X26988Y-54141D01*
X27079Y-54281D01*
X27195Y-54401D01*
X27332Y-54497D01*
X27485Y-54564D01*
X27648Y-54600D01*
X27815Y-54603D01*
X27980Y-54574D01*
X28135Y-54514D01*
X28277Y-54424D01*
X28398Y-54309D01*
X28494Y-54172D01*
X28562Y-54020D01*
X28599Y-53857D01*
X28602Y-53666D01*
X28569Y-53502D01*
X28536Y-53422D01*
X28543Y-53429D01*
X28644Y-53499D01*
X28756Y-53548D01*
X28876Y-53574D01*
X28999Y-53577D01*
X29119Y-53556D01*
X29234Y-53511D01*
X29337Y-53446D01*
X29426Y-53361D01*
X29497Y-53261D01*
X29547Y-53149D01*
X29574Y-53029D01*
X29576Y-52889D01*
X29576Y-58988D01*
X29552Y-58868D01*
X29505Y-58754D01*
X29437Y-58652D01*
X29351Y-58565D01*
X29249Y-58497D01*
X29136Y-58449D01*
X29016Y-58424D01*
X28893Y-58423D01*
X28773Y-58446D01*
X28659Y-58492D01*
X28556Y-58560D01*
X28535Y-58581D01*
X28562Y-58520D01*
X28599Y-58357D01*
X28602Y-58166D01*
X28569Y-58002D01*
X28505Y-57848D01*
X28413Y-57708D01*
X28295Y-57590D01*
X28157Y-57496D01*
X28003Y-57432D01*
X27839Y-57398D01*
X27672Y-57397D01*
X27508Y-57428D01*
X27353Y-57491D01*
X27213Y-57582D01*
X27094Y-57699D01*
X26999Y-57837D01*
X26933Y-57991D01*
X26899Y-58154D01*
X26896Y-58321D01*
X26927Y-58485D01*
X26988Y-58641D01*
X27079Y-58781D01*
X27195Y-58901D01*
X27332Y-58997D01*
X27485Y-59064D01*
X27648Y-59100D01*
X27815Y-59103D01*
X27980Y-59074D01*
X28135Y-59014D01*
X28277Y-58924D01*
X28356Y-58849D01*
X28351Y-58859D01*
X28326Y-58979D01*
X28324Y-59102D01*
X28346Y-59223D01*
X28391Y-59337D01*
X28458Y-59440D01*
X28543Y-59528D01*
X28644Y-59598D01*
X28756Y-59647D01*
X28876Y-59674D01*
X28999Y-59676D01*
X29119Y-59655D01*
X29234Y-59611D01*
X29337Y-59545D01*
X29426Y-59460D01*
X29497Y-59360D01*
X29547Y-59248D01*
X29574Y-59128D01*
X29576Y-58988D01*
X29576Y-63716D01*
X26019Y-63716D01*
X26019Y-62150D01*
X26019Y-48150D01*
X25980Y-47953D01*
X25904Y-47769D01*
X25793Y-47602D01*
X25652Y-47460D01*
X25487Y-47349D01*
X25302Y-47271D01*
X25107Y-47231D01*
X24907Y-47229D01*
X24710Y-47267D01*
X24525Y-47342D01*
X24358Y-47451D01*
X24215Y-47591D01*
X24102Y-47756D01*
X24023Y-47940D01*
X23982Y-48135D01*
X23979Y-48335D01*
X24015Y-48532D01*
X24089Y-48718D01*
X24197Y-48886D01*
X24336Y-49029D01*
X24500Y-49144D01*
X24683Y-49224D01*
X24878Y-49267D01*
X25078Y-49271D01*
X25275Y-49236D01*
X25461Y-49164D01*
X25630Y-49057D01*
X25775Y-48919D01*
X25890Y-48755D01*
X25971Y-48573D01*
X26016Y-48378D01*
X26019Y-48150D01*
X26019Y-62150D01*
X25980Y-61953D01*
X25904Y-61769D01*
X25793Y-61602D01*
X25652Y-61460D01*
X25487Y-61349D01*
X25302Y-61271D01*
X25107Y-61231D01*
X24907Y-61229D01*
X24710Y-61267D01*
X24525Y-61342D01*
X24358Y-61451D01*
X24215Y-61591D01*
X24102Y-61756D01*
X24023Y-61940D01*
X23982Y-62135D01*
X23979Y-62335D01*
X24015Y-62532D01*
X24089Y-62718D01*
X24197Y-62886D01*
X24336Y-63029D01*
X24500Y-63144D01*
X24683Y-63224D01*
X24878Y-63267D01*
X25078Y-63271D01*
X25275Y-63236D01*
X25461Y-63164D01*
X25630Y-63057D01*
X25775Y-62919D01*
X25890Y-62755D01*
X25971Y-62573D01*
X26016Y-62378D01*
X26019Y-62150D01*
X26019Y-63716D01*
X23533Y-63716D01*
X23533Y-46783D01*
X55966Y-46783D01*
X55966Y-63716D01*
X55966Y-63716D01*
G37*
G54D32*
X55966Y-63716D02*
X55519Y-63716D01*
X55519Y-62150D01*
X55519Y-48150D01*
X55480Y-47953D01*
X55404Y-47769D01*
X55293Y-47602D01*
X55152Y-47460D01*
X54987Y-47349D01*
X54802Y-47271D01*
X54607Y-47231D01*
X54407Y-47229D01*
X54210Y-47267D01*
X54025Y-47342D01*
X53858Y-47451D01*
X53715Y-47591D01*
X53602Y-47756D01*
X53523Y-47940D01*
X53482Y-48135D01*
X53479Y-48335D01*
X53515Y-48532D01*
X53589Y-48718D01*
X53697Y-48886D01*
X53836Y-49029D01*
X54000Y-49144D01*
X54183Y-49224D01*
X54378Y-49267D01*
X54578Y-49271D01*
X54775Y-49236D01*
X54961Y-49164D01*
X55130Y-49057D01*
X55275Y-48919D01*
X55390Y-48755D01*
X55471Y-48573D01*
X55516Y-48378D01*
X55519Y-48150D01*
X55519Y-62150D01*
X55480Y-61953D01*
X55404Y-61769D01*
X55293Y-61602D01*
X55152Y-61460D01*
X54987Y-61349D01*
X54802Y-61271D01*
X54607Y-61231D01*
X54407Y-61229D01*
X54210Y-61267D01*
X54025Y-61342D01*
X54001Y-61357D01*
X54001Y-54975D01*
X53992Y-54926D01*
X53973Y-54881D01*
X53945Y-54840D01*
X53911Y-54805D01*
X53870Y-54777D01*
X53824Y-54758D01*
X53776Y-54748D01*
X53727Y-54748D01*
X53678Y-54757D01*
X53652Y-54768D01*
X49347Y-54768D01*
X49324Y-54758D01*
X49276Y-54748D01*
X49227Y-54748D01*
X49178Y-54757D01*
X49132Y-54775D01*
X49091Y-54802D01*
X49056Y-54837D01*
X49028Y-54878D01*
X49009Y-54923D01*
X48998Y-54971D01*
X48998Y-55021D01*
X49007Y-55069D01*
X49025Y-55115D01*
X49051Y-55157D01*
X49086Y-55192D01*
X49126Y-55220D01*
X49171Y-55240D01*
X49220Y-55251D01*
X49269Y-55252D01*
X49317Y-55243D01*
X49347Y-55231D01*
X53652Y-55231D01*
X53671Y-55240D01*
X53720Y-55251D01*
X53769Y-55252D01*
X53817Y-55243D01*
X53863Y-55225D01*
X53905Y-55199D01*
X53941Y-55165D01*
X53969Y-55124D01*
X53989Y-55079D01*
X54000Y-55031D01*
X54001Y-54975D01*
X54001Y-61357D01*
X53858Y-61451D01*
X53715Y-61591D01*
X53602Y-61756D01*
X53523Y-61940D01*
X53482Y-62135D01*
X53479Y-62335D01*
X53515Y-62532D01*
X53589Y-62718D01*
X53697Y-62886D01*
X53836Y-63029D01*
X54000Y-63144D01*
X54183Y-63224D01*
X54378Y-63267D01*
X54578Y-63271D01*
X54775Y-63236D01*
X54961Y-63164D01*
X55130Y-63057D01*
X55275Y-62919D01*
X55390Y-62755D01*
X55471Y-62573D01*
X55516Y-62378D01*
X55519Y-62150D01*
X55519Y-63716D01*
X52626Y-63716D01*
X52626Y-59272D01*
X52626Y-56272D01*
X52623Y-56198D01*
X52614Y-56154D01*
X52576Y-56118D01*
X52444Y-56250D01*
X52576Y-56381D01*
X52614Y-56345D01*
X52626Y-56272D01*
X52626Y-59272D01*
X52623Y-59198D01*
X52614Y-59154D01*
X52576Y-59118D01*
X52444Y-59250D01*
X52576Y-59381D01*
X52614Y-59345D01*
X52626Y-59272D01*
X52626Y-63716D01*
X52381Y-63716D01*
X52381Y-59576D01*
X52381Y-58923D01*
X52381Y-56576D01*
X52381Y-55923D01*
X52345Y-55885D01*
X52272Y-55873D01*
X52198Y-55876D01*
X52154Y-55885D01*
X52118Y-55923D01*
X52250Y-56055D01*
X52381Y-55923D01*
X52381Y-56576D01*
X52250Y-56444D01*
X52118Y-56576D01*
X52154Y-56614D01*
X52227Y-56626D01*
X52301Y-56623D01*
X52345Y-56614D01*
X52381Y-56576D01*
X52381Y-58923D01*
X52345Y-58885D01*
X52272Y-58873D01*
X52198Y-58876D01*
X52154Y-58885D01*
X52118Y-58923D01*
X52250Y-59055D01*
X52381Y-58923D01*
X52381Y-59576D01*
X52250Y-59444D01*
X52118Y-59576D01*
X52154Y-59614D01*
X52227Y-59626D01*
X52301Y-59623D01*
X52345Y-59614D01*
X52381Y-59576D01*
X52381Y-63716D01*
X52055Y-63716D01*
X52055Y-59250D01*
X52055Y-56250D01*
X51923Y-56118D01*
X51885Y-56154D01*
X51873Y-56227D01*
X51876Y-56301D01*
X51885Y-56345D01*
X51923Y-56381D01*
X52055Y-56250D01*
X52055Y-59250D01*
X51923Y-59118D01*
X51885Y-59154D01*
X51873Y-59227D01*
X51876Y-59301D01*
X51885Y-59345D01*
X51923Y-59381D01*
X52055Y-59250D01*
X52055Y-63716D01*
X50658Y-63716D01*
X50658Y-59209D01*
X50658Y-56209D01*
X50642Y-56131D01*
X50612Y-56057D01*
X50568Y-55990D01*
X50511Y-55933D01*
X50445Y-55888D01*
X50371Y-55857D01*
X50292Y-55841D01*
X50212Y-55841D01*
X50134Y-55856D01*
X50059Y-55886D01*
X50001Y-55924D01*
X50001Y-55725D01*
X49992Y-55676D01*
X49973Y-55631D01*
X49945Y-55590D01*
X49911Y-55555D01*
X49870Y-55527D01*
X49824Y-55508D01*
X49776Y-55498D01*
X49727Y-55498D01*
X49678Y-55507D01*
X49652Y-55518D01*
X49500Y-55518D01*
X49250Y-55518D01*
X47204Y-55518D01*
X47197Y-55511D01*
X47147Y-55477D01*
X47091Y-55453D01*
X47032Y-55441D01*
X46971Y-55441D01*
X46912Y-55452D01*
X46856Y-55475D01*
X46805Y-55508D01*
X46795Y-55518D01*
X46250Y-55518D01*
X45250Y-55518D01*
X44750Y-55518D01*
X42600Y-55518D01*
X42600Y-48740D01*
X42600Y-47759D01*
X42600Y-47739D01*
X42596Y-47720D01*
X42588Y-47702D01*
X42577Y-47685D01*
X42563Y-47671D01*
X42547Y-47660D01*
X42529Y-47653D01*
X42509Y-47649D01*
X42275Y-47649D01*
X42250Y-47674D01*
X42250Y-48000D01*
X42575Y-48000D01*
X42600Y-47974D01*
X42600Y-47759D01*
X42600Y-48740D01*
X42600Y-48525D01*
X42575Y-48500D01*
X42250Y-48500D01*
X42250Y-48825D01*
X42275Y-48850D01*
X42509Y-48850D01*
X42529Y-48846D01*
X42547Y-48839D01*
X42563Y-48828D01*
X42577Y-48814D01*
X42588Y-48797D01*
X42596Y-48779D01*
X42600Y-48760D01*
X42600Y-48740D01*
X42600Y-55518D01*
X41750Y-55518D01*
X41750Y-48825D01*
X41750Y-48500D01*
X41750Y-48000D01*
X41750Y-47674D01*
X41724Y-47649D01*
X41490Y-47649D01*
X41470Y-47653D01*
X41452Y-47660D01*
X41436Y-47671D01*
X41422Y-47685D01*
X41411Y-47702D01*
X41403Y-47720D01*
X41399Y-47739D01*
X41399Y-47759D01*
X41399Y-47974D01*
X41424Y-48000D01*
X41750Y-48000D01*
X41750Y-48500D01*
X41424Y-48500D01*
X41399Y-48525D01*
X41399Y-48740D01*
X41399Y-48760D01*
X41403Y-48779D01*
X41411Y-48797D01*
X41422Y-48814D01*
X41436Y-48828D01*
X41452Y-48839D01*
X41470Y-48846D01*
X41490Y-48850D01*
X41724Y-48850D01*
X41750Y-48825D01*
X41750Y-55518D01*
X40633Y-55518D01*
X40633Y-48187D01*
X40609Y-48066D01*
X40562Y-47951D01*
X40493Y-47847D01*
X40405Y-47759D01*
X40302Y-47690D01*
X40188Y-47641D01*
X40066Y-47616D01*
X39942Y-47616D01*
X39820Y-47639D01*
X39705Y-47685D01*
X39601Y-47753D01*
X39512Y-47840D01*
X39442Y-47943D01*
X39393Y-48057D01*
X39367Y-48179D01*
X39365Y-48303D01*
X39388Y-48425D01*
X39433Y-48540D01*
X39501Y-48645D01*
X39587Y-48734D01*
X39689Y-48805D01*
X39803Y-48855D01*
X39924Y-48882D01*
X40048Y-48884D01*
X40171Y-48863D01*
X40286Y-48818D01*
X40391Y-48751D01*
X40481Y-48665D01*
X40553Y-48564D01*
X40603Y-48450D01*
X40631Y-48329D01*
X40633Y-48187D01*
X40633Y-55518D01*
X40500Y-55518D01*
X40481Y-55518D01*
X40481Y-54500D01*
X40479Y-54478D01*
X40477Y-54457D01*
X40477Y-54456D01*
X40477Y-54454D01*
X40471Y-54434D01*
X40465Y-54413D01*
X40464Y-54412D01*
X40464Y-54411D01*
X40454Y-54392D01*
X40444Y-54373D01*
X40443Y-54372D01*
X40443Y-54371D01*
X40429Y-54355D01*
X40416Y-54338D01*
X40414Y-54336D01*
X40414Y-54336D01*
X40414Y-54336D01*
X40413Y-54336D01*
X40163Y-54086D01*
X40147Y-54072D01*
X40131Y-54058D01*
X40129Y-54058D01*
X40128Y-54057D01*
X40110Y-54047D01*
X40091Y-54036D01*
X40090Y-54036D01*
X40089Y-54035D01*
X40068Y-54029D01*
X40048Y-54023D01*
X40047Y-54023D01*
X40045Y-54022D01*
X40024Y-54020D01*
X40003Y-54018D01*
X40000Y-54018D01*
X40000Y-54018D01*
X40000Y-54018D01*
X40000Y-54018D01*
X39750Y-54018D01*
X39097Y-54018D01*
X39074Y-54008D01*
X39026Y-53998D01*
X38977Y-53998D01*
X38928Y-54007D01*
X38902Y-54018D01*
X37597Y-54018D01*
X37574Y-54008D01*
X37526Y-53998D01*
X37477Y-53998D01*
X37428Y-54007D01*
X37382Y-54025D01*
X37341Y-54052D01*
X37306Y-54087D01*
X37278Y-54128D01*
X37259Y-54173D01*
X37248Y-54221D01*
X37248Y-54271D01*
X37257Y-54319D01*
X37275Y-54365D01*
X37301Y-54407D01*
X37336Y-54442D01*
X37376Y-54470D01*
X37421Y-54490D01*
X37470Y-54501D01*
X37519Y-54502D01*
X37567Y-54493D01*
X37597Y-54481D01*
X38902Y-54481D01*
X38921Y-54490D01*
X38970Y-54501D01*
X39019Y-54502D01*
X39067Y-54493D01*
X39097Y-54481D01*
X39750Y-54481D01*
X39903Y-54481D01*
X40018Y-54596D01*
X40018Y-55750D01*
X40018Y-57153D01*
X39653Y-57518D01*
X38751Y-57518D01*
X38751Y-55475D01*
X38742Y-55426D01*
X38723Y-55381D01*
X38695Y-55340D01*
X38661Y-55305D01*
X38620Y-55277D01*
X38574Y-55258D01*
X38526Y-55248D01*
X38477Y-55248D01*
X38428Y-55257D01*
X38402Y-55268D01*
X36921Y-55268D01*
X36921Y-50159D01*
X36885Y-49982D01*
X36817Y-49815D01*
X36717Y-49665D01*
X36589Y-49536D01*
X36440Y-49435D01*
X36273Y-49365D01*
X36096Y-49329D01*
X35916Y-49328D01*
X35738Y-49362D01*
X35571Y-49429D01*
X35420Y-49528D01*
X35291Y-49655D01*
X35189Y-49804D01*
X35117Y-49970D01*
X35080Y-50146D01*
X35077Y-50327D01*
X35110Y-50505D01*
X35176Y-50673D01*
X35274Y-50824D01*
X35400Y-50954D01*
X35548Y-51057D01*
X35714Y-51130D01*
X35890Y-51168D01*
X36070Y-51172D01*
X36248Y-51141D01*
X36417Y-51076D01*
X36569Y-50979D01*
X36700Y-50854D01*
X36804Y-50707D01*
X36878Y-50542D01*
X36918Y-50365D01*
X36921Y-50159D01*
X36921Y-55268D01*
X36751Y-55268D01*
X36751Y-54225D01*
X36742Y-54176D01*
X36731Y-54152D01*
X36731Y-53097D01*
X36739Y-53079D01*
X36750Y-53031D01*
X36751Y-52975D01*
X36742Y-52926D01*
X36723Y-52881D01*
X36695Y-52840D01*
X36661Y-52805D01*
X36620Y-52777D01*
X36574Y-52758D01*
X36526Y-52748D01*
X36477Y-52748D01*
X36428Y-52757D01*
X36382Y-52775D01*
X36341Y-52802D01*
X36306Y-52837D01*
X36278Y-52878D01*
X36259Y-52923D01*
X36248Y-52971D01*
X36248Y-53021D01*
X36257Y-53069D01*
X36268Y-53097D01*
X36268Y-54152D01*
X36259Y-54173D01*
X36248Y-54221D01*
X36248Y-54271D01*
X36257Y-54319D01*
X36275Y-54365D01*
X36301Y-54407D01*
X36336Y-54442D01*
X36376Y-54470D01*
X36421Y-54490D01*
X36470Y-54501D01*
X36519Y-54502D01*
X36567Y-54493D01*
X36613Y-54475D01*
X36655Y-54449D01*
X36691Y-54415D01*
X36719Y-54374D01*
X36739Y-54329D01*
X36750Y-54281D01*
X36751Y-54225D01*
X36751Y-55268D01*
X35097Y-55268D01*
X35074Y-55258D01*
X35026Y-55248D01*
X34977Y-55248D01*
X34928Y-55257D01*
X34882Y-55275D01*
X34841Y-55302D01*
X34806Y-55337D01*
X34778Y-55378D01*
X34759Y-55423D01*
X34748Y-55471D01*
X34748Y-55521D01*
X34757Y-55569D01*
X34775Y-55615D01*
X34801Y-55657D01*
X34836Y-55692D01*
X34876Y-55720D01*
X34921Y-55740D01*
X34970Y-55751D01*
X35019Y-55752D01*
X35067Y-55743D01*
X35097Y-55731D01*
X38402Y-55731D01*
X38421Y-55740D01*
X38470Y-55751D01*
X38519Y-55752D01*
X38567Y-55743D01*
X38613Y-55725D01*
X38655Y-55699D01*
X38691Y-55665D01*
X38719Y-55624D01*
X38739Y-55579D01*
X38750Y-55531D01*
X38751Y-55475D01*
X38751Y-57518D01*
X38597Y-57518D01*
X38574Y-57508D01*
X38526Y-57498D01*
X38477Y-57498D01*
X38428Y-57507D01*
X38402Y-57518D01*
X37751Y-57518D01*
X37751Y-56475D01*
X37742Y-56426D01*
X37723Y-56381D01*
X37695Y-56340D01*
X37661Y-56305D01*
X37620Y-56277D01*
X37574Y-56258D01*
X37526Y-56248D01*
X37477Y-56248D01*
X37428Y-56257D01*
X37402Y-56268D01*
X37251Y-56268D01*
X37251Y-55975D01*
X37242Y-55926D01*
X37223Y-55881D01*
X37195Y-55840D01*
X37161Y-55805D01*
X37120Y-55777D01*
X37074Y-55758D01*
X37026Y-55748D01*
X36977Y-55748D01*
X36928Y-55757D01*
X36902Y-55768D01*
X35597Y-55768D01*
X35574Y-55758D01*
X35526Y-55748D01*
X35477Y-55748D01*
X35428Y-55757D01*
X35382Y-55775D01*
X35341Y-55802D01*
X35306Y-55837D01*
X35278Y-55878D01*
X35259Y-55923D01*
X35248Y-55971D01*
X35248Y-56021D01*
X35257Y-56069D01*
X35275Y-56115D01*
X35301Y-56157D01*
X35336Y-56192D01*
X35376Y-56220D01*
X35421Y-56240D01*
X35470Y-56251D01*
X35519Y-56252D01*
X35567Y-56243D01*
X35597Y-56231D01*
X36902Y-56231D01*
X36921Y-56240D01*
X36970Y-56251D01*
X37019Y-56252D01*
X37067Y-56243D01*
X37113Y-56225D01*
X37155Y-56199D01*
X37191Y-56165D01*
X37219Y-56124D01*
X37239Y-56079D01*
X37250Y-56031D01*
X37251Y-55975D01*
X37251Y-56268D01*
X35000Y-56268D01*
X34978Y-56270D01*
X34957Y-56272D01*
X34956Y-56272D01*
X34954Y-56272D01*
X34934Y-56278D01*
X34913Y-56284D01*
X34912Y-56285D01*
X34911Y-56285D01*
X34892Y-56295D01*
X34873Y-56305D01*
X34872Y-56306D01*
X34871Y-56306D01*
X34855Y-56320D01*
X34838Y-56333D01*
X34836Y-56335D01*
X34836Y-56335D01*
X34836Y-56335D01*
X34836Y-56336D01*
X34586Y-56586D01*
X34586Y-56586D01*
X34405Y-56767D01*
X34382Y-56775D01*
X34341Y-56802D01*
X34306Y-56837D01*
X34278Y-56878D01*
X34259Y-56923D01*
X34248Y-56971D01*
X34248Y-57021D01*
X34257Y-57069D01*
X34275Y-57115D01*
X34301Y-57157D01*
X34336Y-57192D01*
X34376Y-57220D01*
X34421Y-57240D01*
X34470Y-57251D01*
X34519Y-57252D01*
X34567Y-57243D01*
X34613Y-57225D01*
X34655Y-57199D01*
X34691Y-57165D01*
X34719Y-57124D01*
X34733Y-57094D01*
X34913Y-56913D01*
X34913Y-56913D01*
X34913Y-56913D01*
X35096Y-56731D01*
X37402Y-56731D01*
X37421Y-56740D01*
X37470Y-56751D01*
X37519Y-56752D01*
X37567Y-56743D01*
X37613Y-56725D01*
X37655Y-56699D01*
X37691Y-56665D01*
X37719Y-56624D01*
X37739Y-56579D01*
X37750Y-56531D01*
X37751Y-56475D01*
X37751Y-57518D01*
X37097Y-57518D01*
X37074Y-57508D01*
X37026Y-57498D01*
X36977Y-57498D01*
X36928Y-57507D01*
X36882Y-57525D01*
X36841Y-57552D01*
X36806Y-57587D01*
X36778Y-57628D01*
X36759Y-57673D01*
X36748Y-57721D01*
X36748Y-57771D01*
X36757Y-57819D01*
X36775Y-57865D01*
X36801Y-57907D01*
X36836Y-57942D01*
X36876Y-57970D01*
X36921Y-57990D01*
X36966Y-58000D01*
X36928Y-58007D01*
X36902Y-58018D01*
X36251Y-58018D01*
X36251Y-57725D01*
X36242Y-57676D01*
X36223Y-57631D01*
X36195Y-57590D01*
X36161Y-57555D01*
X36120Y-57527D01*
X36074Y-57508D01*
X36026Y-57498D01*
X35977Y-57498D01*
X35928Y-57507D01*
X35902Y-57518D01*
X33731Y-57518D01*
X33731Y-57346D01*
X34594Y-56483D01*
X34613Y-56475D01*
X34655Y-56449D01*
X34691Y-56415D01*
X34719Y-56374D01*
X34739Y-56329D01*
X34750Y-56281D01*
X34751Y-56225D01*
X34742Y-56176D01*
X34723Y-56131D01*
X34695Y-56090D01*
X34661Y-56055D01*
X34620Y-56027D01*
X34574Y-56008D01*
X34526Y-55998D01*
X34477Y-55998D01*
X34428Y-56007D01*
X34382Y-56025D01*
X34341Y-56052D01*
X34306Y-56087D01*
X34278Y-56128D01*
X34266Y-56155D01*
X33336Y-57086D01*
X33322Y-57102D01*
X33308Y-57118D01*
X33308Y-57120D01*
X33307Y-57121D01*
X33297Y-57139D01*
X33286Y-57158D01*
X33286Y-57159D01*
X33285Y-57160D01*
X33279Y-57181D01*
X33273Y-57201D01*
X33273Y-57202D01*
X33272Y-57204D01*
X33270Y-57225D01*
X33268Y-57246D01*
X33268Y-57249D01*
X33268Y-57249D01*
X33268Y-57249D01*
X33268Y-57250D01*
X33268Y-57652D01*
X33259Y-57673D01*
X33248Y-57721D01*
X33248Y-57771D01*
X33257Y-57819D01*
X33275Y-57865D01*
X33301Y-57907D01*
X33336Y-57942D01*
X33376Y-57970D01*
X33421Y-57990D01*
X33470Y-58001D01*
X33519Y-58002D01*
X33567Y-57993D01*
X33597Y-57981D01*
X35902Y-57981D01*
X35921Y-57990D01*
X35970Y-58001D01*
X36019Y-58002D01*
X36067Y-57993D01*
X36113Y-57975D01*
X36155Y-57949D01*
X36191Y-57915D01*
X36219Y-57874D01*
X36239Y-57829D01*
X36250Y-57781D01*
X36251Y-57725D01*
X36251Y-58018D01*
X35597Y-58018D01*
X35574Y-58008D01*
X35526Y-57998D01*
X35477Y-57998D01*
X35428Y-58007D01*
X35382Y-58025D01*
X35341Y-58052D01*
X35306Y-58087D01*
X35278Y-58128D01*
X35259Y-58173D01*
X35248Y-58221D01*
X35248Y-58271D01*
X35257Y-58319D01*
X35275Y-58365D01*
X35301Y-58407D01*
X35336Y-58442D01*
X35376Y-58470D01*
X35421Y-58490D01*
X35470Y-58501D01*
X35519Y-58502D01*
X35567Y-58493D01*
X35597Y-58481D01*
X36902Y-58481D01*
X36921Y-58490D01*
X36970Y-58501D01*
X37019Y-58502D01*
X37067Y-58493D01*
X37113Y-58475D01*
X37155Y-58449D01*
X37191Y-58415D01*
X37219Y-58374D01*
X37239Y-58329D01*
X37250Y-58281D01*
X37251Y-58225D01*
X37242Y-58176D01*
X37223Y-58131D01*
X37195Y-58090D01*
X37161Y-58055D01*
X37120Y-58027D01*
X37074Y-58008D01*
X37032Y-57999D01*
X37067Y-57993D01*
X37097Y-57981D01*
X38402Y-57981D01*
X38421Y-57990D01*
X38470Y-58001D01*
X38519Y-58002D01*
X38567Y-57993D01*
X38597Y-57981D01*
X39750Y-57981D01*
X39771Y-57979D01*
X39792Y-57977D01*
X39793Y-57977D01*
X39795Y-57977D01*
X39815Y-57971D01*
X39836Y-57965D01*
X39837Y-57964D01*
X39838Y-57964D01*
X39857Y-57954D01*
X39876Y-57944D01*
X39877Y-57943D01*
X39878Y-57943D01*
X39894Y-57929D01*
X39911Y-57916D01*
X39913Y-57914D01*
X39913Y-57914D01*
X39913Y-57914D01*
X39913Y-57913D01*
X40413Y-57413D01*
X40427Y-57397D01*
X40441Y-57381D01*
X40441Y-57379D01*
X40442Y-57378D01*
X40452Y-57360D01*
X40463Y-57341D01*
X40463Y-57340D01*
X40464Y-57339D01*
X40470Y-57318D01*
X40476Y-57298D01*
X40476Y-57297D01*
X40477Y-57295D01*
X40479Y-57274D01*
X40481Y-57253D01*
X40481Y-57250D01*
X40481Y-57250D01*
X40481Y-57250D01*
X40481Y-57250D01*
X40481Y-55981D01*
X40500Y-55981D01*
X44750Y-55981D01*
X45250Y-55981D01*
X46250Y-55981D01*
X46795Y-55981D01*
X46799Y-55986D01*
X46848Y-56020D01*
X46904Y-56044D01*
X46963Y-56057D01*
X47023Y-56059D01*
X47083Y-56048D01*
X47139Y-56026D01*
X47190Y-55994D01*
X47203Y-55981D01*
X49250Y-55981D01*
X49500Y-55981D01*
X49652Y-55981D01*
X49671Y-55990D01*
X49720Y-56001D01*
X49769Y-56002D01*
X49817Y-55993D01*
X49863Y-55975D01*
X49905Y-55949D01*
X49941Y-55915D01*
X49969Y-55874D01*
X49989Y-55829D01*
X50000Y-55781D01*
X50001Y-55725D01*
X50001Y-55924D01*
X49992Y-55930D01*
X49935Y-55986D01*
X49890Y-56052D01*
X49858Y-56125D01*
X49842Y-56204D01*
X49840Y-56284D01*
X49855Y-56363D01*
X49884Y-56437D01*
X49928Y-56504D01*
X49983Y-56562D01*
X50049Y-56608D01*
X50123Y-56640D01*
X50201Y-56657D01*
X50281Y-56659D01*
X50360Y-56645D01*
X50435Y-56616D01*
X50502Y-56573D01*
X50560Y-56518D01*
X50606Y-56452D01*
X50639Y-56379D01*
X50657Y-56301D01*
X50658Y-56209D01*
X50658Y-59209D01*
X50642Y-59131D01*
X50612Y-59057D01*
X50568Y-58990D01*
X50511Y-58933D01*
X50445Y-58888D01*
X50371Y-58857D01*
X50292Y-58841D01*
X50212Y-58841D01*
X50134Y-58856D01*
X50059Y-58886D01*
X49992Y-58930D01*
X49935Y-58986D01*
X49913Y-59018D01*
X47501Y-59018D01*
X47501Y-58225D01*
X47492Y-58176D01*
X47473Y-58131D01*
X47445Y-58090D01*
X47411Y-58055D01*
X47370Y-58027D01*
X47324Y-58008D01*
X47276Y-57998D01*
X47227Y-57998D01*
X47178Y-58007D01*
X47152Y-58018D01*
X46501Y-58018D01*
X46501Y-57725D01*
X46492Y-57676D01*
X46473Y-57631D01*
X46445Y-57590D01*
X46411Y-57555D01*
X46370Y-57527D01*
X46324Y-57508D01*
X46276Y-57498D01*
X46227Y-57498D01*
X46178Y-57507D01*
X46152Y-57518D01*
X42347Y-57518D01*
X42324Y-57508D01*
X42276Y-57498D01*
X42227Y-57498D01*
X42178Y-57507D01*
X42132Y-57525D01*
X42091Y-57552D01*
X42056Y-57587D01*
X42028Y-57628D01*
X42009Y-57673D01*
X41998Y-57721D01*
X41998Y-57771D01*
X42007Y-57819D01*
X42025Y-57865D01*
X42051Y-57907D01*
X42086Y-57942D01*
X42126Y-57970D01*
X42171Y-57990D01*
X42220Y-58001D01*
X42269Y-58002D01*
X42317Y-57993D01*
X42347Y-57981D01*
X46152Y-57981D01*
X46171Y-57990D01*
X46220Y-58001D01*
X46269Y-58002D01*
X46317Y-57993D01*
X46363Y-57975D01*
X46405Y-57949D01*
X46441Y-57915D01*
X46469Y-57874D01*
X46489Y-57829D01*
X46500Y-57781D01*
X46501Y-57725D01*
X46501Y-58018D01*
X46250Y-58018D01*
X44097Y-58018D01*
X44074Y-58008D01*
X44026Y-57998D01*
X43977Y-57998D01*
X43928Y-58007D01*
X43902Y-58018D01*
X40097Y-58018D01*
X40074Y-58008D01*
X40026Y-57998D01*
X39977Y-57998D01*
X39928Y-58007D01*
X39882Y-58025D01*
X39841Y-58052D01*
X39806Y-58087D01*
X39778Y-58128D01*
X39759Y-58173D01*
X39748Y-58221D01*
X39748Y-58271D01*
X39757Y-58319D01*
X39775Y-58365D01*
X39801Y-58407D01*
X39836Y-58442D01*
X39876Y-58470D01*
X39921Y-58490D01*
X39970Y-58501D01*
X40019Y-58502D01*
X40067Y-58493D01*
X40097Y-58481D01*
X43902Y-58481D01*
X43921Y-58490D01*
X43970Y-58501D01*
X44019Y-58502D01*
X44067Y-58493D01*
X44097Y-58481D01*
X46250Y-58481D01*
X47152Y-58481D01*
X47171Y-58490D01*
X47220Y-58501D01*
X47269Y-58502D01*
X47317Y-58493D01*
X47363Y-58475D01*
X47405Y-58449D01*
X47441Y-58415D01*
X47469Y-58374D01*
X47489Y-58329D01*
X47500Y-58281D01*
X47501Y-58225D01*
X47501Y-59018D01*
X46347Y-59018D01*
X46324Y-59008D01*
X46276Y-58998D01*
X46227Y-58998D01*
X46178Y-59007D01*
X46132Y-59025D01*
X46091Y-59052D01*
X46056Y-59087D01*
X46028Y-59128D01*
X46009Y-59173D01*
X45998Y-59221D01*
X45998Y-59271D01*
X46007Y-59319D01*
X46025Y-59365D01*
X46051Y-59407D01*
X46086Y-59442D01*
X46126Y-59470D01*
X46171Y-59490D01*
X46220Y-59501D01*
X46269Y-59502D01*
X46317Y-59493D01*
X46347Y-59481D01*
X49913Y-59481D01*
X49928Y-59504D01*
X49983Y-59562D01*
X50049Y-59608D01*
X50123Y-59640D01*
X50201Y-59657D01*
X50281Y-59659D01*
X50360Y-59645D01*
X50435Y-59616D01*
X50502Y-59573D01*
X50560Y-59518D01*
X50606Y-59452D01*
X50639Y-59379D01*
X50657Y-59301D01*
X50658Y-59209D01*
X50658Y-63716D01*
X44461Y-63716D01*
X44461Y-60211D01*
X44443Y-60119D01*
X44408Y-60032D01*
X44356Y-59954D01*
X44290Y-59887D01*
X44212Y-59835D01*
X44126Y-59799D01*
X44034Y-59780D01*
X43940Y-59779D01*
X43848Y-59797D01*
X43761Y-59832D01*
X43683Y-59883D01*
X43616Y-59949D01*
X43563Y-60026D01*
X43526Y-60112D01*
X43506Y-60204D01*
X43505Y-60298D01*
X43522Y-60390D01*
X43556Y-60477D01*
X43607Y-60556D01*
X43672Y-60623D01*
X43749Y-60677D01*
X43835Y-60714D01*
X43927Y-60734D01*
X44020Y-60736D01*
X44113Y-60720D01*
X44200Y-60686D01*
X44279Y-60636D01*
X44347Y-60571D01*
X44401Y-60495D01*
X44439Y-60409D01*
X44460Y-60318D01*
X44461Y-60211D01*
X44461Y-63716D01*
X43477Y-63716D01*
X43477Y-61195D01*
X43459Y-61103D01*
X43424Y-61016D01*
X43372Y-60938D01*
X43306Y-60871D01*
X43228Y-60819D01*
X43142Y-60783D01*
X43050Y-60764D01*
X42956Y-60763D01*
X42864Y-60781D01*
X42777Y-60816D01*
X42699Y-60867D01*
X42632Y-60933D01*
X42579Y-61010D01*
X42542Y-61096D01*
X42522Y-61188D01*
X42521Y-61282D01*
X42538Y-61374D01*
X42572Y-61461D01*
X42623Y-61540D01*
X42688Y-61607D01*
X42765Y-61661D01*
X42851Y-61698D01*
X42943Y-61718D01*
X43036Y-61720D01*
X43129Y-61704D01*
X43216Y-61670D01*
X43295Y-61620D01*
X43363Y-61555D01*
X43417Y-61479D01*
X43455Y-61393D01*
X43476Y-61302D01*
X43477Y-61195D01*
X43477Y-63716D01*
X42462Y-63716D01*
X42462Y-60274D01*
X42457Y-60187D01*
X42450Y-60154D01*
X42410Y-60107D01*
X42259Y-60258D01*
X42410Y-60408D01*
X42450Y-60361D01*
X42462Y-60274D01*
X42462Y-63716D01*
X42166Y-63716D01*
X42166Y-60652D01*
X42166Y-59863D01*
X42119Y-59823D01*
X42032Y-59811D01*
X41945Y-59816D01*
X41912Y-59823D01*
X41865Y-59863D01*
X42016Y-60014D01*
X42166Y-59863D01*
X42166Y-60652D01*
X42016Y-60501D01*
X41865Y-60652D01*
X41912Y-60692D01*
X41999Y-60704D01*
X42086Y-60699D01*
X42119Y-60692D01*
X42166Y-60652D01*
X42166Y-63716D01*
X41772Y-63716D01*
X41772Y-60258D01*
X41621Y-60107D01*
X41581Y-60154D01*
X41569Y-60241D01*
X41574Y-60328D01*
X41581Y-60361D01*
X41621Y-60408D01*
X41772Y-60258D01*
X41772Y-63716D01*
X41001Y-63716D01*
X41001Y-58725D01*
X40992Y-58676D01*
X40973Y-58631D01*
X40945Y-58590D01*
X40911Y-58555D01*
X40870Y-58527D01*
X40824Y-58508D01*
X40776Y-58498D01*
X40727Y-58498D01*
X40678Y-58507D01*
X40652Y-58518D01*
X32846Y-58518D01*
X31913Y-57586D01*
X31897Y-57572D01*
X31881Y-57558D01*
X31879Y-57558D01*
X31878Y-57557D01*
X31860Y-57547D01*
X31841Y-57536D01*
X31840Y-57536D01*
X31839Y-57535D01*
X31818Y-57529D01*
X31798Y-57523D01*
X31797Y-57523D01*
X31795Y-57522D01*
X31774Y-57520D01*
X31753Y-57518D01*
X31750Y-57518D01*
X31750Y-57518D01*
X31750Y-57518D01*
X31750Y-57518D01*
X31610Y-57518D01*
X31586Y-57481D01*
X32902Y-57481D01*
X32921Y-57490D01*
X32970Y-57501D01*
X33019Y-57502D01*
X33067Y-57493D01*
X33113Y-57475D01*
X33155Y-57449D01*
X33191Y-57415D01*
X33219Y-57374D01*
X33239Y-57329D01*
X33250Y-57281D01*
X33251Y-57225D01*
X33242Y-57176D01*
X33223Y-57131D01*
X33195Y-57090D01*
X33161Y-57055D01*
X33120Y-57027D01*
X33074Y-57008D01*
X33026Y-56998D01*
X32977Y-56998D01*
X32928Y-57007D01*
X32902Y-57018D01*
X31585Y-57018D01*
X31624Y-56962D01*
X31659Y-56886D01*
X31677Y-56804D01*
X31678Y-56707D01*
X31662Y-56625D01*
X31630Y-56547D01*
X31586Y-56481D01*
X32902Y-56481D01*
X32921Y-56490D01*
X32970Y-56501D01*
X33019Y-56502D01*
X33067Y-56493D01*
X33113Y-56475D01*
X33155Y-56449D01*
X33191Y-56415D01*
X33219Y-56374D01*
X33239Y-56329D01*
X33250Y-56281D01*
X33251Y-56225D01*
X33242Y-56176D01*
X33223Y-56131D01*
X33195Y-56090D01*
X33161Y-56055D01*
X33120Y-56027D01*
X33074Y-56008D01*
X33026Y-55998D01*
X32977Y-55998D01*
X32928Y-56007D01*
X32902Y-56018D01*
X31585Y-56018D01*
X31624Y-55962D01*
X31659Y-55886D01*
X31677Y-55804D01*
X31678Y-55707D01*
X31662Y-55625D01*
X31630Y-55547D01*
X31586Y-55481D01*
X32902Y-55481D01*
X32921Y-55490D01*
X32970Y-55501D01*
X33019Y-55502D01*
X33067Y-55493D01*
X33113Y-55475D01*
X33155Y-55449D01*
X33191Y-55415D01*
X33219Y-55374D01*
X33239Y-55329D01*
X33250Y-55281D01*
X33251Y-55225D01*
X33242Y-55176D01*
X33223Y-55131D01*
X33195Y-55090D01*
X33161Y-55055D01*
X33120Y-55027D01*
X33074Y-55008D01*
X33026Y-54998D01*
X32977Y-54998D01*
X32928Y-55007D01*
X32902Y-55018D01*
X31585Y-55018D01*
X31624Y-54962D01*
X31659Y-54886D01*
X31677Y-54804D01*
X31678Y-54707D01*
X31662Y-54625D01*
X31630Y-54547D01*
X31584Y-54477D01*
X31524Y-54417D01*
X31455Y-54370D01*
X31377Y-54338D01*
X31295Y-54321D01*
X31210Y-54320D01*
X31128Y-54336D01*
X31050Y-54368D01*
X30979Y-54414D01*
X30919Y-54472D01*
X30872Y-54542D01*
X30839Y-54619D01*
X30821Y-54701D01*
X30820Y-54786D01*
X30835Y-54868D01*
X30866Y-54947D01*
X30912Y-55017D01*
X30912Y-55018D01*
X30679Y-55018D01*
X30679Y-54533D01*
X30678Y-53941D01*
X30673Y-53915D01*
X30663Y-53891D01*
X30649Y-53869D01*
X30630Y-53851D01*
X30609Y-53836D01*
X30585Y-53826D01*
X30559Y-53821D01*
X30533Y-53820D01*
X29941Y-53821D01*
X29915Y-53826D01*
X29891Y-53836D01*
X29869Y-53850D01*
X29851Y-53869D01*
X29836Y-53890D01*
X29826Y-53914D01*
X29821Y-53940D01*
X29820Y-53966D01*
X29821Y-54558D01*
X29826Y-54584D01*
X29836Y-54608D01*
X29850Y-54630D01*
X29869Y-54648D01*
X29890Y-54663D01*
X29914Y-54673D01*
X29940Y-54678D01*
X29966Y-54679D01*
X30558Y-54678D01*
X30584Y-54673D01*
X30608Y-54663D01*
X30630Y-54649D01*
X30648Y-54630D01*
X30663Y-54609D01*
X30673Y-54585D01*
X30678Y-54559D01*
X30679Y-54533D01*
X30679Y-55018D01*
X30610Y-55018D01*
X30584Y-54977D01*
X30524Y-54917D01*
X30455Y-54870D01*
X30377Y-54838D01*
X30295Y-54821D01*
X30210Y-54820D01*
X30128Y-54836D01*
X30050Y-54868D01*
X29979Y-54914D01*
X29919Y-54972D01*
X29872Y-55042D01*
X29839Y-55119D01*
X29821Y-55201D01*
X29820Y-55286D01*
X29835Y-55368D01*
X29866Y-55447D01*
X29912Y-55517D01*
X29970Y-55578D01*
X30039Y-55626D01*
X30116Y-55659D01*
X30198Y-55678D01*
X30283Y-55679D01*
X30365Y-55665D01*
X30444Y-55634D01*
X30515Y-55589D01*
X30576Y-55531D01*
X30611Y-55481D01*
X30913Y-55481D01*
X30872Y-55542D01*
X30839Y-55619D01*
X30821Y-55701D01*
X30820Y-55786D01*
X30835Y-55868D01*
X30866Y-55947D01*
X30912Y-56017D01*
X30912Y-56018D01*
X30610Y-56018D01*
X30584Y-55977D01*
X30524Y-55917D01*
X30455Y-55870D01*
X30377Y-55838D01*
X30295Y-55821D01*
X30210Y-55820D01*
X30128Y-55836D01*
X30050Y-55868D01*
X29979Y-55914D01*
X29919Y-55972D01*
X29872Y-56042D01*
X29839Y-56119D01*
X29821Y-56201D01*
X29820Y-56286D01*
X29835Y-56368D01*
X29866Y-56447D01*
X29912Y-56517D01*
X29970Y-56578D01*
X30039Y-56626D01*
X30116Y-56659D01*
X30198Y-56678D01*
X30283Y-56679D01*
X30365Y-56665D01*
X30444Y-56634D01*
X30515Y-56589D01*
X30576Y-56531D01*
X30611Y-56481D01*
X30913Y-56481D01*
X30872Y-56542D01*
X30839Y-56619D01*
X30821Y-56701D01*
X30820Y-56786D01*
X30835Y-56868D01*
X30866Y-56947D01*
X30912Y-57017D01*
X30912Y-57018D01*
X30610Y-57018D01*
X30584Y-56977D01*
X30524Y-56917D01*
X30455Y-56870D01*
X30377Y-56838D01*
X30295Y-56821D01*
X30210Y-56820D01*
X30128Y-56836D01*
X30050Y-56868D01*
X29979Y-56914D01*
X29919Y-56972D01*
X29872Y-57042D01*
X29839Y-57119D01*
X29821Y-57201D01*
X29820Y-57286D01*
X29835Y-57368D01*
X29866Y-57447D01*
X29912Y-57517D01*
X29970Y-57578D01*
X30039Y-57626D01*
X30116Y-57659D01*
X30198Y-57678D01*
X30283Y-57679D01*
X30365Y-57665D01*
X30444Y-57634D01*
X30515Y-57589D01*
X30576Y-57531D01*
X30611Y-57481D01*
X30913Y-57481D01*
X30872Y-57542D01*
X30839Y-57619D01*
X30821Y-57701D01*
X30820Y-57786D01*
X30835Y-57868D01*
X30866Y-57947D01*
X30912Y-58017D01*
X30970Y-58078D01*
X31039Y-58126D01*
X31116Y-58159D01*
X31198Y-58178D01*
X31283Y-58179D01*
X31365Y-58165D01*
X31444Y-58134D01*
X31515Y-58089D01*
X31576Y-58031D01*
X31611Y-57981D01*
X31653Y-57981D01*
X32586Y-58913D01*
X32602Y-58927D01*
X32618Y-58941D01*
X32620Y-58941D01*
X32621Y-58942D01*
X32639Y-58952D01*
X32658Y-58963D01*
X32659Y-58963D01*
X32660Y-58964D01*
X32681Y-58970D01*
X32701Y-58976D01*
X32702Y-58976D01*
X32704Y-58977D01*
X32725Y-58979D01*
X32746Y-58981D01*
X32749Y-58981D01*
X32749Y-58981D01*
X32749Y-58981D01*
X32750Y-58981D01*
X40652Y-58981D01*
X40671Y-58990D01*
X40720Y-59001D01*
X40769Y-59002D01*
X40817Y-58993D01*
X40863Y-58975D01*
X40905Y-58949D01*
X40941Y-58915D01*
X40969Y-58874D01*
X40989Y-58829D01*
X41000Y-58781D01*
X41001Y-58725D01*
X41001Y-63716D01*
X40376Y-63716D01*
X40376Y-61272D01*
X40373Y-61198D01*
X40364Y-61154D01*
X40326Y-61118D01*
X40194Y-61250D01*
X40326Y-61381D01*
X40364Y-61345D01*
X40376Y-61272D01*
X40376Y-63716D01*
X40131Y-63716D01*
X40131Y-61576D01*
X40131Y-60923D01*
X40095Y-60885D01*
X40022Y-60873D01*
X39948Y-60876D01*
X39904Y-60885D01*
X39868Y-60923D01*
X40000Y-61055D01*
X40131Y-60923D01*
X40131Y-61576D01*
X40000Y-61444D01*
X39868Y-61576D01*
X39904Y-61614D01*
X39977Y-61626D01*
X40051Y-61623D01*
X40095Y-61614D01*
X40131Y-61576D01*
X40131Y-63716D01*
X39805Y-63716D01*
X39805Y-61250D01*
X39673Y-61118D01*
X39635Y-61154D01*
X39623Y-61227D01*
X39626Y-61301D01*
X39635Y-61345D01*
X39673Y-61381D01*
X39805Y-61250D01*
X39805Y-63716D01*
X39408Y-63716D01*
X39408Y-61209D01*
X39392Y-61131D01*
X39362Y-61057D01*
X39318Y-60990D01*
X39261Y-60933D01*
X39195Y-60888D01*
X39121Y-60857D01*
X39042Y-60841D01*
X38962Y-60841D01*
X38884Y-60856D01*
X38809Y-60886D01*
X38742Y-60930D01*
X38685Y-60986D01*
X38640Y-61052D01*
X38608Y-61125D01*
X38592Y-61204D01*
X38590Y-61284D01*
X38605Y-61363D01*
X38634Y-61437D01*
X38678Y-61504D01*
X38733Y-61562D01*
X38799Y-61608D01*
X38873Y-61640D01*
X38951Y-61657D01*
X39031Y-61659D01*
X39110Y-61645D01*
X39185Y-61616D01*
X39252Y-61573D01*
X39310Y-61518D01*
X39356Y-61452D01*
X39389Y-61379D01*
X39407Y-61301D01*
X39408Y-61209D01*
X39408Y-63716D01*
X38408Y-63716D01*
X38408Y-61209D01*
X38392Y-61131D01*
X38362Y-61057D01*
X38318Y-60990D01*
X38261Y-60933D01*
X38195Y-60888D01*
X38121Y-60857D01*
X38042Y-60841D01*
X37962Y-60841D01*
X37884Y-60856D01*
X37809Y-60886D01*
X37742Y-60930D01*
X37685Y-60986D01*
X37640Y-61052D01*
X37608Y-61125D01*
X37592Y-61204D01*
X37590Y-61284D01*
X37605Y-61363D01*
X37634Y-61437D01*
X37678Y-61504D01*
X37733Y-61562D01*
X37799Y-61608D01*
X37873Y-61640D01*
X37951Y-61657D01*
X38031Y-61659D01*
X38110Y-61645D01*
X38185Y-61616D01*
X38252Y-61573D01*
X38310Y-61518D01*
X38356Y-61452D01*
X38389Y-61379D01*
X38407Y-61301D01*
X38408Y-61209D01*
X38408Y-63716D01*
X37408Y-63716D01*
X37408Y-61209D01*
X37392Y-61131D01*
X37362Y-61057D01*
X37318Y-60990D01*
X37261Y-60933D01*
X37195Y-60888D01*
X37121Y-60857D01*
X37042Y-60841D01*
X36962Y-60841D01*
X36884Y-60856D01*
X36809Y-60886D01*
X36742Y-60930D01*
X36685Y-60986D01*
X36640Y-61052D01*
X36608Y-61125D01*
X36592Y-61204D01*
X36590Y-61284D01*
X36605Y-61363D01*
X36634Y-61437D01*
X36678Y-61504D01*
X36733Y-61562D01*
X36799Y-61608D01*
X36873Y-61640D01*
X36951Y-61657D01*
X37031Y-61659D01*
X37110Y-61645D01*
X37185Y-61616D01*
X37252Y-61573D01*
X37310Y-61518D01*
X37356Y-61452D01*
X37389Y-61379D01*
X37407Y-61301D01*
X37408Y-61209D01*
X37408Y-63716D01*
X36408Y-63716D01*
X36408Y-61209D01*
X36392Y-61131D01*
X36362Y-61057D01*
X36318Y-60990D01*
X36261Y-60933D01*
X36195Y-60888D01*
X36121Y-60857D01*
X36042Y-60841D01*
X35962Y-60841D01*
X35884Y-60856D01*
X35809Y-60886D01*
X35742Y-60930D01*
X35685Y-60986D01*
X35640Y-61052D01*
X35608Y-61125D01*
X35592Y-61204D01*
X35590Y-61284D01*
X35605Y-61363D01*
X35634Y-61437D01*
X35678Y-61504D01*
X35733Y-61562D01*
X35799Y-61608D01*
X35873Y-61640D01*
X35951Y-61657D01*
X36031Y-61659D01*
X36110Y-61645D01*
X36185Y-61616D01*
X36252Y-61573D01*
X36310Y-61518D01*
X36356Y-61452D01*
X36389Y-61379D01*
X36407Y-61301D01*
X36408Y-61209D01*
X36408Y-63716D01*
X35408Y-63716D01*
X35408Y-61209D01*
X35392Y-61131D01*
X35362Y-61057D01*
X35318Y-60990D01*
X35261Y-60933D01*
X35195Y-60888D01*
X35121Y-60857D01*
X35042Y-60841D01*
X34962Y-60841D01*
X34884Y-60856D01*
X34809Y-60886D01*
X34742Y-60930D01*
X34685Y-60986D01*
X34640Y-61052D01*
X34608Y-61125D01*
X34592Y-61204D01*
X34590Y-61284D01*
X34605Y-61363D01*
X34634Y-61437D01*
X34678Y-61504D01*
X34733Y-61562D01*
X34799Y-61608D01*
X34873Y-61640D01*
X34951Y-61657D01*
X35031Y-61659D01*
X35110Y-61645D01*
X35185Y-61616D01*
X35252Y-61573D01*
X35310Y-61518D01*
X35356Y-61452D01*
X35389Y-61379D01*
X35407Y-61301D01*
X35408Y-61209D01*
X35408Y-63716D01*
X34408Y-63716D01*
X34408Y-61512D01*
X34408Y-60961D01*
X34403Y-60936D01*
X34393Y-60912D01*
X34378Y-60890D01*
X34360Y-60871D01*
X34338Y-60857D01*
X34314Y-60846D01*
X34289Y-60841D01*
X34262Y-60841D01*
X33711Y-60841D01*
X33686Y-60846D01*
X33662Y-60856D01*
X33640Y-60871D01*
X33621Y-60889D01*
X33607Y-60911D01*
X33596Y-60935D01*
X33591Y-60960D01*
X33591Y-60987D01*
X33591Y-61538D01*
X33596Y-61563D01*
X33606Y-61587D01*
X33621Y-61609D01*
X33639Y-61628D01*
X33661Y-61642D01*
X33685Y-61653D01*
X33710Y-61658D01*
X33737Y-61658D01*
X34288Y-61658D01*
X34313Y-61653D01*
X34337Y-61643D01*
X34359Y-61628D01*
X34378Y-61610D01*
X34392Y-61588D01*
X34403Y-61564D01*
X34408Y-61539D01*
X34408Y-61512D01*
X34408Y-63716D01*
X29576Y-63716D01*
X29576Y-58988D01*
X29576Y-52889D01*
X29552Y-52769D01*
X29505Y-52655D01*
X29437Y-52553D01*
X29351Y-52466D01*
X29249Y-52397D01*
X29136Y-52350D01*
X29016Y-52325D01*
X28893Y-52324D01*
X28773Y-52347D01*
X28659Y-52393D01*
X28556Y-52460D01*
X28469Y-52546D01*
X28399Y-52647D01*
X28351Y-52760D01*
X28326Y-52880D01*
X28324Y-53003D01*
X28346Y-53124D01*
X28358Y-53153D01*
X28295Y-53090D01*
X28157Y-52996D01*
X28003Y-52932D01*
X27921Y-52915D01*
X27921Y-50159D01*
X27885Y-49982D01*
X27817Y-49815D01*
X27717Y-49665D01*
X27589Y-49536D01*
X27440Y-49435D01*
X27273Y-49365D01*
X27096Y-49329D01*
X26916Y-49328D01*
X26738Y-49362D01*
X26571Y-49429D01*
X26420Y-49528D01*
X26291Y-49655D01*
X26189Y-49804D01*
X26117Y-49970D01*
X26080Y-50146D01*
X26077Y-50327D01*
X26110Y-50505D01*
X26176Y-50673D01*
X26274Y-50824D01*
X26400Y-50954D01*
X26548Y-51057D01*
X26714Y-51130D01*
X26890Y-51168D01*
X27070Y-51172D01*
X27248Y-51141D01*
X27417Y-51076D01*
X27569Y-50979D01*
X27700Y-50854D01*
X27804Y-50707D01*
X27878Y-50542D01*
X27918Y-50365D01*
X27921Y-50159D01*
X27921Y-52915D01*
X27839Y-52898D01*
X27672Y-52897D01*
X27508Y-52928D01*
X27353Y-52991D01*
X27213Y-53082D01*
X27094Y-53199D01*
X26999Y-53337D01*
X26933Y-53491D01*
X26899Y-53654D01*
X26896Y-53821D01*
X26927Y-53985D01*
X26988Y-54141D01*
X27079Y-54281D01*
X27195Y-54401D01*
X27332Y-54497D01*
X27485Y-54564D01*
X27648Y-54600D01*
X27815Y-54603D01*
X27980Y-54574D01*
X28135Y-54514D01*
X28277Y-54424D01*
X28398Y-54309D01*
X28494Y-54172D01*
X28562Y-54020D01*
X28599Y-53857D01*
X28602Y-53666D01*
X28569Y-53502D01*
X28536Y-53422D01*
X28543Y-53429D01*
X28644Y-53499D01*
X28756Y-53548D01*
X28876Y-53574D01*
X28999Y-53577D01*
X29119Y-53556D01*
X29234Y-53511D01*
X29337Y-53446D01*
X29426Y-53361D01*
X29497Y-53261D01*
X29547Y-53149D01*
X29574Y-53029D01*
X29576Y-52889D01*
X29576Y-58988D01*
X29552Y-58868D01*
X29505Y-58754D01*
X29437Y-58652D01*
X29351Y-58565D01*
X29249Y-58497D01*
X29136Y-58449D01*
X29016Y-58424D01*
X28893Y-58423D01*
X28773Y-58446D01*
X28659Y-58492D01*
X28556Y-58560D01*
X28535Y-58581D01*
X28562Y-58520D01*
X28599Y-58357D01*
X28602Y-58166D01*
X28569Y-58002D01*
X28505Y-57848D01*
X28413Y-57708D01*
X28295Y-57590D01*
X28157Y-57496D01*
X28003Y-57432D01*
X27839Y-57398D01*
X27672Y-57397D01*
X27508Y-57428D01*
X27353Y-57491D01*
X27213Y-57582D01*
X27094Y-57699D01*
X26999Y-57837D01*
X26933Y-57991D01*
X26899Y-58154D01*
X26896Y-58321D01*
X26927Y-58485D01*
X26988Y-58641D01*
X27079Y-58781D01*
X27195Y-58901D01*
X27332Y-58997D01*
X27485Y-59064D01*
X27648Y-59100D01*
X27815Y-59103D01*
X27980Y-59074D01*
X28135Y-59014D01*
X28277Y-58924D01*
X28356Y-58849D01*
X28351Y-58859D01*
X28326Y-58979D01*
X28324Y-59102D01*
X28346Y-59223D01*
X28391Y-59337D01*
X28458Y-59440D01*
X28543Y-59528D01*
X28644Y-59598D01*
X28756Y-59647D01*
X28876Y-59674D01*
X28999Y-59676D01*
X29119Y-59655D01*
X29234Y-59611D01*
X29337Y-59545D01*
X29426Y-59460D01*
X29497Y-59360D01*
X29547Y-59248D01*
X29574Y-59128D01*
X29576Y-58988D01*
X29576Y-63716D01*
X26019Y-63716D01*
X26019Y-62150D01*
X26019Y-48150D01*
X25980Y-47953D01*
X25904Y-47769D01*
X25793Y-47602D01*
X25652Y-47460D01*
X25487Y-47349D01*
X25302Y-47271D01*
X25107Y-47231D01*
X24907Y-47229D01*
X24710Y-47267D01*
X24525Y-47342D01*
X24358Y-47451D01*
X24215Y-47591D01*
X24102Y-47756D01*
X24023Y-47940D01*
X23982Y-48135D01*
X23979Y-48335D01*
X24015Y-48532D01*
X24089Y-48718D01*
X24197Y-48886D01*
X24336Y-49029D01*
X24500Y-49144D01*
X24683Y-49224D01*
X24878Y-49267D01*
X25078Y-49271D01*
X25275Y-49236D01*
X25461Y-49164D01*
X25630Y-49057D01*
X25775Y-48919D01*
X25890Y-48755D01*
X25971Y-48573D01*
X26016Y-48378D01*
X26019Y-48150D01*
X26019Y-62150D01*
X25980Y-61953D01*
X25904Y-61769D01*
X25793Y-61602D01*
X25652Y-61460D01*
X25487Y-61349D01*
X25302Y-61271D01*
X25107Y-61231D01*
X24907Y-61229D01*
X24710Y-61267D01*
X24525Y-61342D01*
X24358Y-61451D01*
X24215Y-61591D01*
X24102Y-61756D01*
X24023Y-61940D01*
X23982Y-62135D01*
X23979Y-62335D01*
X24015Y-62532D01*
X24089Y-62718D01*
X24197Y-62886D01*
X24336Y-63029D01*
X24500Y-63144D01*
X24683Y-63224D01*
X24878Y-63267D01*
X25078Y-63271D01*
X25275Y-63236D01*
X25461Y-63164D01*
X25630Y-63057D01*
X25775Y-62919D01*
X25890Y-62755D01*
X25971Y-62573D01*
X26016Y-62378D01*
X26019Y-62150D01*
X26019Y-63716D01*
X23533Y-63716D01*
X23533Y-46783D01*
X55966Y-46783D01*
X55966Y-63716D01*
G54D10*
G36*
X62716Y-85716D02*
X62672Y-85716D01*
X62672Y-84687D01*
X62672Y-64987D01*
X62547Y-64684D01*
X62316Y-64453D01*
X62014Y-64327D01*
X61687Y-64327D01*
X61384Y-64452D01*
X61153Y-64683D01*
X61027Y-64985D01*
X61027Y-65312D01*
X61152Y-65615D01*
X61383Y-65846D01*
X61685Y-65972D01*
X62012Y-65972D01*
X62315Y-65847D01*
X62546Y-65616D01*
X62672Y-65314D01*
X62672Y-64987D01*
X62672Y-84687D01*
X62547Y-84384D01*
X62316Y-84153D01*
X62014Y-84027D01*
X61687Y-84027D01*
X61384Y-84152D01*
X61153Y-84383D01*
X61027Y-84685D01*
X61027Y-85012D01*
X61152Y-85315D01*
X61383Y-85546D01*
X61685Y-85672D01*
X62012Y-85672D01*
X62315Y-85547D01*
X62546Y-85316D01*
X62672Y-85014D01*
X62672Y-84687D01*
X62672Y-85716D01*
X60675Y-85716D01*
X60675Y-81925D01*
X60580Y-81695D01*
X60404Y-81519D01*
X60174Y-81423D01*
X59926Y-81423D01*
X59696Y-81518D01*
X59519Y-81694D01*
X59424Y-81924D01*
X59424Y-82173D01*
X59519Y-82403D01*
X59695Y-82579D01*
X59925Y-82674D01*
X60173Y-82674D01*
X60403Y-82579D01*
X60580Y-82404D01*
X60675Y-82174D01*
X60675Y-81925D01*
X60675Y-85716D01*
X59974Y-85716D01*
X59974Y-83106D01*
X59864Y-82840D01*
X59660Y-82636D01*
X59394Y-82526D01*
X59149Y-82525D01*
X59149Y-79694D01*
X59140Y-79648D01*
X59100Y-79607D01*
X58958Y-79750D01*
X59100Y-79892D01*
X59140Y-79851D01*
X59149Y-79694D01*
X59149Y-82525D01*
X59106Y-82525D01*
X58892Y-82614D01*
X58892Y-80100D01*
X58892Y-79399D01*
X58851Y-79359D01*
X58751Y-79353D01*
X58751Y-76950D01*
X58751Y-67950D01*
X58731Y-67902D01*
X58731Y-65097D01*
X58751Y-65050D01*
X58751Y-64950D01*
X58713Y-64857D01*
X58642Y-64786D01*
X58550Y-64748D01*
X58450Y-64748D01*
X58357Y-64786D01*
X58286Y-64857D01*
X58248Y-64949D01*
X58248Y-65049D01*
X58268Y-65097D01*
X58268Y-67902D01*
X58248Y-67949D01*
X58248Y-68049D01*
X58286Y-68142D01*
X58357Y-68213D01*
X58449Y-68251D01*
X58549Y-68251D01*
X58642Y-68213D01*
X58713Y-68142D01*
X58751Y-68050D01*
X58751Y-67950D01*
X58751Y-76950D01*
X58713Y-76857D01*
X58642Y-76786D01*
X58550Y-76748D01*
X58450Y-76748D01*
X58402Y-76768D01*
X58033Y-76768D01*
X58033Y-65654D01*
X57922Y-65385D01*
X57716Y-65178D01*
X57446Y-65066D01*
X57154Y-65066D01*
X56885Y-65177D01*
X56678Y-65383D01*
X56566Y-65653D01*
X56566Y-65945D01*
X56677Y-66214D01*
X56883Y-66421D01*
X57153Y-66533D01*
X57445Y-66533D01*
X57714Y-66422D01*
X57921Y-66216D01*
X58033Y-65946D01*
X58033Y-65654D01*
X58033Y-76768D01*
X56346Y-76768D01*
X56070Y-76492D01*
X56097Y-76481D01*
X56750Y-76481D01*
X57152Y-76481D01*
X57199Y-76501D01*
X57299Y-76501D01*
X57392Y-76463D01*
X57463Y-76392D01*
X57501Y-76300D01*
X57501Y-76200D01*
X57463Y-76107D01*
X57392Y-76036D01*
X57300Y-75998D01*
X57200Y-75998D01*
X57152Y-76018D01*
X56750Y-76018D01*
X56097Y-76018D01*
X56050Y-75998D01*
X55981Y-75998D01*
X55981Y-67250D01*
X55981Y-67000D01*
X55981Y-65000D01*
X55964Y-64911D01*
X55913Y-64836D01*
X55913Y-64836D01*
X55663Y-64586D01*
X55588Y-64535D01*
X55500Y-64518D01*
X55499Y-64518D01*
X54250Y-64518D01*
X54161Y-64535D01*
X54086Y-64586D01*
X54086Y-64586D01*
X53836Y-64836D01*
X53785Y-64911D01*
X53768Y-65000D01*
X53768Y-65000D01*
X53768Y-65126D01*
X53754Y-65132D01*
X53632Y-65254D01*
X53566Y-65413D01*
X53566Y-65585D01*
X53632Y-65745D01*
X53754Y-65867D01*
X53913Y-65933D01*
X54085Y-65933D01*
X54245Y-65867D01*
X54367Y-65745D01*
X54433Y-65586D01*
X54433Y-65414D01*
X54367Y-65254D01*
X54245Y-65132D01*
X54231Y-65126D01*
X54231Y-65096D01*
X54346Y-64981D01*
X55403Y-64981D01*
X55518Y-65096D01*
X55518Y-67000D01*
X55518Y-67153D01*
X55433Y-67238D01*
X55433Y-66414D01*
X55433Y-65414D01*
X55367Y-65254D01*
X55245Y-65132D01*
X55086Y-65066D01*
X54914Y-65066D01*
X54754Y-65132D01*
X54632Y-65254D01*
X54566Y-65413D01*
X54566Y-65585D01*
X54632Y-65745D01*
X54754Y-65867D01*
X54913Y-65933D01*
X55085Y-65933D01*
X55245Y-65867D01*
X55367Y-65745D01*
X55433Y-65586D01*
X55433Y-65414D01*
X55433Y-66414D01*
X55367Y-66254D01*
X55245Y-66132D01*
X55086Y-66066D01*
X54914Y-66066D01*
X54754Y-66132D01*
X54632Y-66254D01*
X54566Y-66413D01*
X54566Y-66585D01*
X54632Y-66745D01*
X54754Y-66867D01*
X54913Y-66933D01*
X55085Y-66933D01*
X55245Y-66867D01*
X55367Y-66745D01*
X55433Y-66586D01*
X55433Y-66414D01*
X55433Y-67238D01*
X55336Y-67336D01*
X55285Y-67411D01*
X55268Y-67500D01*
X55268Y-67500D01*
X55268Y-67902D01*
X55248Y-67949D01*
X55248Y-68049D01*
X55286Y-68142D01*
X55357Y-68213D01*
X55449Y-68251D01*
X55549Y-68251D01*
X55642Y-68213D01*
X55713Y-68142D01*
X55751Y-68050D01*
X55751Y-67950D01*
X55731Y-67902D01*
X55731Y-67596D01*
X55913Y-67413D01*
X55913Y-67413D01*
X55913Y-67413D01*
X55964Y-67338D01*
X55981Y-67250D01*
X55981Y-75998D01*
X55950Y-75998D01*
X55857Y-76036D01*
X55786Y-76107D01*
X55748Y-76199D01*
X55748Y-76268D01*
X54597Y-76268D01*
X54550Y-76248D01*
X54450Y-76248D01*
X54433Y-76255D01*
X54433Y-66414D01*
X54367Y-66254D01*
X54245Y-66132D01*
X54086Y-66066D01*
X53914Y-66066D01*
X53754Y-66132D01*
X53632Y-66254D01*
X53566Y-66413D01*
X53566Y-66585D01*
X53632Y-66745D01*
X53754Y-66867D01*
X53913Y-66933D01*
X54085Y-66933D01*
X54245Y-66867D01*
X54367Y-66745D01*
X54433Y-66586D01*
X54433Y-66414D01*
X54433Y-76255D01*
X54357Y-76286D01*
X54330Y-76313D01*
X54330Y-76250D01*
X54330Y-68000D01*
X54330Y-67999D01*
X54305Y-67873D01*
X54233Y-67766D01*
X54233Y-67766D01*
X53483Y-67016D01*
X53376Y-66944D01*
X53250Y-66919D01*
X53119Y-66919D01*
X53245Y-66867D01*
X53367Y-66745D01*
X53433Y-66586D01*
X53433Y-66414D01*
X53367Y-66254D01*
X53245Y-66132D01*
X53086Y-66066D01*
X52914Y-66066D01*
X52754Y-66132D01*
X52632Y-66254D01*
X52566Y-66413D01*
X52566Y-66585D01*
X52632Y-66745D01*
X52754Y-66867D01*
X52880Y-66919D01*
X52119Y-66919D01*
X52245Y-66867D01*
X52367Y-66745D01*
X52433Y-66586D01*
X52433Y-66414D01*
X52433Y-65414D01*
X52367Y-65254D01*
X52245Y-65132D01*
X52086Y-65066D01*
X51914Y-65066D01*
X51754Y-65132D01*
X51632Y-65254D01*
X51566Y-65413D01*
X51566Y-65585D01*
X51632Y-65745D01*
X51754Y-65867D01*
X51913Y-65933D01*
X52085Y-65933D01*
X52245Y-65867D01*
X52367Y-65745D01*
X52433Y-65586D01*
X52433Y-65414D01*
X52433Y-66414D01*
X52367Y-66254D01*
X52245Y-66132D01*
X52086Y-66066D01*
X51914Y-66066D01*
X51754Y-66132D01*
X51632Y-66254D01*
X51566Y-66413D01*
X51566Y-66585D01*
X51632Y-66745D01*
X51754Y-66867D01*
X51880Y-66919D01*
X51386Y-66919D01*
X51377Y-66910D01*
X51413Y-66875D01*
X51433Y-66826D01*
X51433Y-66773D01*
X51433Y-66173D01*
X51413Y-66124D01*
X51375Y-66086D01*
X51330Y-66068D01*
X51330Y-65782D01*
X51367Y-65745D01*
X51433Y-65586D01*
X51433Y-65414D01*
X51367Y-65254D01*
X51245Y-65132D01*
X51086Y-65066D01*
X50914Y-65066D01*
X50754Y-65132D01*
X50632Y-65254D01*
X50566Y-65413D01*
X50566Y-65585D01*
X50632Y-65745D01*
X50669Y-65782D01*
X50669Y-66068D01*
X50624Y-66086D01*
X50586Y-66124D01*
X50566Y-66173D01*
X50566Y-66226D01*
X50566Y-66826D01*
X50586Y-66875D01*
X50624Y-66913D01*
X50669Y-66931D01*
X50669Y-67000D01*
X50694Y-67126D01*
X50766Y-67233D01*
X51016Y-67483D01*
X51016Y-67483D01*
X51068Y-67518D01*
X50846Y-67518D01*
X50481Y-67153D01*
X50481Y-67000D01*
X50481Y-65096D01*
X50596Y-64981D01*
X52653Y-64981D01*
X52768Y-65096D01*
X52768Y-65126D01*
X52754Y-65132D01*
X52632Y-65254D01*
X52566Y-65413D01*
X52566Y-65585D01*
X52632Y-65745D01*
X52754Y-65867D01*
X52913Y-65933D01*
X53085Y-65933D01*
X53245Y-65867D01*
X53367Y-65745D01*
X53433Y-65586D01*
X53433Y-65414D01*
X53367Y-65254D01*
X53245Y-65132D01*
X53231Y-65126D01*
X53231Y-65000D01*
X53214Y-64911D01*
X53163Y-64836D01*
X53163Y-64836D01*
X52913Y-64586D01*
X52838Y-64535D01*
X52750Y-64518D01*
X52749Y-64518D01*
X50500Y-64518D01*
X50411Y-64535D01*
X50336Y-64586D01*
X50336Y-64586D01*
X50086Y-64836D01*
X50035Y-64911D01*
X50018Y-65000D01*
X50018Y-65000D01*
X50018Y-67000D01*
X50018Y-67249D01*
X50018Y-67250D01*
X50035Y-67338D01*
X50086Y-67413D01*
X50586Y-67913D01*
X50586Y-67913D01*
X50661Y-67964D01*
X50750Y-67981D01*
X50750Y-67981D01*
X50750Y-67981D01*
X52152Y-67981D01*
X52199Y-68001D01*
X52299Y-68001D01*
X52392Y-67963D01*
X52463Y-67892D01*
X52501Y-67800D01*
X52501Y-67700D01*
X52463Y-67607D01*
X52436Y-67580D01*
X53113Y-67580D01*
X53669Y-68136D01*
X53669Y-76250D01*
X53669Y-76669D01*
X50500Y-76669D01*
X50373Y-76694D01*
X50266Y-76766D01*
X49433Y-77599D01*
X49433Y-65654D01*
X49322Y-65385D01*
X49116Y-65178D01*
X48846Y-65066D01*
X48554Y-65066D01*
X48285Y-65177D01*
X48078Y-65383D01*
X47966Y-65653D01*
X47966Y-65945D01*
X48077Y-66214D01*
X48283Y-66421D01*
X48553Y-66533D01*
X48845Y-66533D01*
X49114Y-66422D01*
X49321Y-66216D01*
X49433Y-65946D01*
X49433Y-65654D01*
X49433Y-77599D01*
X48516Y-78516D01*
X48444Y-78623D01*
X48419Y-78750D01*
X48419Y-79419D01*
X48251Y-79419D01*
X48251Y-71700D01*
X48231Y-71652D01*
X48231Y-68000D01*
X48214Y-67911D01*
X48163Y-67836D01*
X48163Y-67836D01*
X47913Y-67586D01*
X47838Y-67535D01*
X47750Y-67518D01*
X47749Y-67518D01*
X46846Y-67518D01*
X46482Y-67154D01*
X46463Y-67107D01*
X46392Y-67036D01*
X46300Y-66998D01*
X46200Y-66998D01*
X46107Y-67036D01*
X46036Y-67107D01*
X45998Y-67199D01*
X45998Y-67299D01*
X46036Y-67392D01*
X46107Y-67463D01*
X46155Y-67482D01*
X46586Y-67913D01*
X46586Y-67913D01*
X46661Y-67964D01*
X46750Y-67981D01*
X46750Y-67981D01*
X46750Y-67981D01*
X47653Y-67981D01*
X47768Y-68096D01*
X47768Y-71652D01*
X47748Y-71699D01*
X47748Y-71799D01*
X47786Y-71892D01*
X47857Y-71963D01*
X47949Y-72001D01*
X48049Y-72001D01*
X48142Y-71963D01*
X48213Y-71892D01*
X48251Y-71800D01*
X48251Y-71700D01*
X48251Y-79419D01*
X48026Y-79419D01*
X47993Y-79386D01*
X47835Y-79321D01*
X47665Y-79320D01*
X47653Y-79325D01*
X46981Y-78653D01*
X46981Y-75597D01*
X47001Y-75550D01*
X47001Y-75450D01*
X46963Y-75357D01*
X46892Y-75286D01*
X46800Y-75248D01*
X46700Y-75248D01*
X46607Y-75286D01*
X46536Y-75357D01*
X46498Y-75449D01*
X46498Y-75549D01*
X46518Y-75597D01*
X46518Y-78749D01*
X46518Y-78750D01*
X46535Y-78838D01*
X46586Y-78913D01*
X47325Y-79653D01*
X47321Y-79664D01*
X47320Y-79834D01*
X47386Y-79992D01*
X47506Y-80113D01*
X47664Y-80178D01*
X47834Y-80179D01*
X47992Y-80113D01*
X48026Y-80080D01*
X48473Y-80080D01*
X48506Y-80113D01*
X48664Y-80178D01*
X48834Y-80179D01*
X48992Y-80113D01*
X49113Y-79993D01*
X49178Y-79835D01*
X49179Y-79665D01*
X49113Y-79507D01*
X49080Y-79473D01*
X49080Y-78886D01*
X50636Y-77330D01*
X52313Y-77330D01*
X52286Y-77357D01*
X52248Y-77449D01*
X52248Y-77549D01*
X52286Y-77642D01*
X52357Y-77713D01*
X52449Y-77751D01*
X52549Y-77751D01*
X52597Y-77731D01*
X53902Y-77731D01*
X53949Y-77751D01*
X54049Y-77751D01*
X54142Y-77713D01*
X54213Y-77642D01*
X54251Y-77550D01*
X54251Y-77450D01*
X54213Y-77357D01*
X54186Y-77330D01*
X55363Y-77330D01*
X56419Y-78386D01*
X56419Y-79419D01*
X56026Y-79419D01*
X56001Y-79394D01*
X56001Y-78950D01*
X55963Y-78857D01*
X55892Y-78786D01*
X55800Y-78748D01*
X55700Y-78748D01*
X55652Y-78768D01*
X52347Y-78768D01*
X52300Y-78748D01*
X52200Y-78748D01*
X52107Y-78786D01*
X52036Y-78857D01*
X51998Y-78949D01*
X51998Y-79049D01*
X52036Y-79142D01*
X52107Y-79213D01*
X52199Y-79251D01*
X52299Y-79251D01*
X52347Y-79231D01*
X55652Y-79231D01*
X55699Y-79251D01*
X55799Y-79251D01*
X55892Y-79213D01*
X55963Y-79142D01*
X56001Y-79050D01*
X56001Y-78950D01*
X56001Y-79394D01*
X55993Y-79386D01*
X55835Y-79321D01*
X55665Y-79320D01*
X55507Y-79386D01*
X55386Y-79506D01*
X55321Y-79664D01*
X55320Y-79834D01*
X55386Y-79992D01*
X55506Y-80113D01*
X55664Y-80178D01*
X55834Y-80179D01*
X55992Y-80113D01*
X56026Y-80080D01*
X56473Y-80080D01*
X56506Y-80113D01*
X56664Y-80178D01*
X56834Y-80179D01*
X56992Y-80113D01*
X57113Y-79993D01*
X57178Y-79835D01*
X57179Y-79665D01*
X57113Y-79507D01*
X57080Y-79473D01*
X57080Y-78250D01*
X57055Y-78123D01*
X56983Y-78016D01*
X56186Y-77219D01*
X56250Y-77231D01*
X56250Y-77231D01*
X56250Y-77231D01*
X58402Y-77231D01*
X58449Y-77251D01*
X58549Y-77251D01*
X58642Y-77213D01*
X58713Y-77142D01*
X58751Y-77050D01*
X58751Y-76950D01*
X58751Y-79353D01*
X58694Y-79350D01*
X58648Y-79359D01*
X58607Y-79399D01*
X58750Y-79541D01*
X58892Y-79399D01*
X58892Y-80100D01*
X58750Y-79958D01*
X58607Y-80100D01*
X58648Y-80140D01*
X58805Y-80149D01*
X58851Y-80140D01*
X58892Y-80100D01*
X58892Y-82614D01*
X58840Y-82635D01*
X58679Y-82796D01*
X58679Y-80665D01*
X58613Y-80507D01*
X58541Y-80434D01*
X58541Y-79750D01*
X58399Y-79607D01*
X58359Y-79648D01*
X58350Y-79805D01*
X58359Y-79851D01*
X58399Y-79892D01*
X58541Y-79750D01*
X58541Y-80434D01*
X58493Y-80386D01*
X58335Y-80321D01*
X58165Y-80320D01*
X58149Y-80327D01*
X58149Y-79694D01*
X58140Y-79648D01*
X58100Y-79607D01*
X57958Y-79750D01*
X58100Y-79892D01*
X58140Y-79851D01*
X58149Y-79694D01*
X58149Y-80327D01*
X58007Y-80386D01*
X57892Y-80501D01*
X57892Y-80100D01*
X57892Y-79399D01*
X57851Y-79359D01*
X57694Y-79350D01*
X57648Y-79359D01*
X57607Y-79399D01*
X57750Y-79541D01*
X57892Y-79399D01*
X57892Y-80100D01*
X57750Y-79958D01*
X57607Y-80100D01*
X57648Y-80140D01*
X57805Y-80149D01*
X57851Y-80140D01*
X57892Y-80100D01*
X57892Y-80501D01*
X57886Y-80506D01*
X57821Y-80664D01*
X57820Y-80834D01*
X57886Y-80992D01*
X58006Y-81113D01*
X58164Y-81178D01*
X58334Y-81179D01*
X58492Y-81113D01*
X58613Y-80993D01*
X58678Y-80835D01*
X58679Y-80665D01*
X58679Y-82796D01*
X58636Y-82839D01*
X58526Y-83105D01*
X58525Y-83393D01*
X58635Y-83659D01*
X58839Y-83863D01*
X59105Y-83973D01*
X59393Y-83974D01*
X59659Y-83864D01*
X59863Y-83660D01*
X59973Y-83394D01*
X59974Y-83106D01*
X59974Y-85716D01*
X58251Y-85716D01*
X58251Y-81950D01*
X58213Y-81857D01*
X58142Y-81786D01*
X58050Y-81748D01*
X57950Y-81748D01*
X57902Y-81768D01*
X57679Y-81768D01*
X57679Y-80665D01*
X57613Y-80507D01*
X57541Y-80434D01*
X57541Y-79750D01*
X57399Y-79607D01*
X57359Y-79648D01*
X57350Y-79805D01*
X57359Y-79851D01*
X57399Y-79892D01*
X57541Y-79750D01*
X57541Y-80434D01*
X57493Y-80386D01*
X57335Y-80321D01*
X57165Y-80320D01*
X57007Y-80386D01*
X56886Y-80506D01*
X56821Y-80664D01*
X56820Y-80834D01*
X56886Y-80992D01*
X57006Y-81113D01*
X57018Y-81118D01*
X57018Y-81153D01*
X56903Y-81268D01*
X56679Y-81268D01*
X56679Y-80665D01*
X56613Y-80507D01*
X56493Y-80386D01*
X56335Y-80321D01*
X56165Y-80320D01*
X56007Y-80386D01*
X55886Y-80506D01*
X55821Y-80664D01*
X55820Y-80834D01*
X55886Y-80992D01*
X56006Y-81113D01*
X56164Y-81178D01*
X56334Y-81179D01*
X56492Y-81113D01*
X56613Y-80993D01*
X56678Y-80835D01*
X56679Y-80665D01*
X56679Y-81268D01*
X55679Y-81268D01*
X55679Y-81019D01*
X55679Y-80428D01*
X55658Y-80378D01*
X55621Y-80341D01*
X55572Y-80321D01*
X55519Y-80320D01*
X54928Y-80320D01*
X54878Y-80341D01*
X54841Y-80378D01*
X54821Y-80427D01*
X54820Y-80480D01*
X54820Y-81071D01*
X54841Y-81121D01*
X54878Y-81158D01*
X54927Y-81178D01*
X54980Y-81179D01*
X55571Y-81179D01*
X55621Y-81158D01*
X55658Y-81121D01*
X55678Y-81072D01*
X55679Y-81019D01*
X55679Y-81268D01*
X54846Y-81268D01*
X54413Y-80836D01*
X54338Y-80785D01*
X54250Y-80768D01*
X54249Y-80768D01*
X54000Y-80768D01*
X53751Y-80768D01*
X53751Y-79450D01*
X53713Y-79357D01*
X53642Y-79286D01*
X53550Y-79248D01*
X53450Y-79248D01*
X53402Y-79268D01*
X51847Y-79268D01*
X51800Y-79248D01*
X51700Y-79248D01*
X51607Y-79286D01*
X51536Y-79357D01*
X51498Y-79449D01*
X51498Y-79549D01*
X51536Y-79642D01*
X51607Y-79713D01*
X51699Y-79751D01*
X51799Y-79751D01*
X51847Y-79731D01*
X53402Y-79731D01*
X53449Y-79751D01*
X53549Y-79751D01*
X53642Y-79713D01*
X53713Y-79642D01*
X53751Y-79550D01*
X53751Y-79450D01*
X53751Y-80768D01*
X52847Y-80768D01*
X52800Y-80748D01*
X52700Y-80748D01*
X52607Y-80786D01*
X52536Y-80857D01*
X52498Y-80949D01*
X52498Y-81049D01*
X52536Y-81142D01*
X52607Y-81213D01*
X52699Y-81251D01*
X52799Y-81251D01*
X52847Y-81231D01*
X54000Y-81231D01*
X54153Y-81231D01*
X54586Y-81663D01*
X54586Y-81663D01*
X54661Y-81714D01*
X54750Y-81731D01*
X54750Y-81731D01*
X54750Y-81731D01*
X56999Y-81731D01*
X57000Y-81731D01*
X57000Y-81731D01*
X57088Y-81714D01*
X57163Y-81663D01*
X57413Y-81413D01*
X57413Y-81413D01*
X57413Y-81413D01*
X57464Y-81338D01*
X57481Y-81250D01*
X57481Y-81118D01*
X57492Y-81113D01*
X57613Y-80993D01*
X57678Y-80835D01*
X57679Y-80665D01*
X57679Y-81768D01*
X55347Y-81768D01*
X55300Y-81748D01*
X55200Y-81748D01*
X55107Y-81786D01*
X55036Y-81857D01*
X54998Y-81949D01*
X54998Y-82049D01*
X55036Y-82142D01*
X55107Y-82213D01*
X55199Y-82251D01*
X55299Y-82251D01*
X55347Y-82231D01*
X57902Y-82231D01*
X57949Y-82251D01*
X58049Y-82251D01*
X58142Y-82213D01*
X58213Y-82142D01*
X58251Y-82050D01*
X58251Y-81950D01*
X58251Y-85716D01*
X56751Y-85716D01*
X56751Y-84200D01*
X56713Y-84107D01*
X56642Y-84036D01*
X56550Y-83998D01*
X56450Y-83998D01*
X56402Y-84018D01*
X55474Y-84018D01*
X55474Y-83106D01*
X55364Y-82840D01*
X55160Y-82636D01*
X54894Y-82526D01*
X54606Y-82525D01*
X54544Y-82551D01*
X54544Y-81938D01*
X54541Y-81923D01*
X54495Y-81852D01*
X54298Y-82049D01*
X54495Y-82245D01*
X54541Y-82174D01*
X54544Y-81938D01*
X54544Y-82551D01*
X54340Y-82635D01*
X54147Y-82828D01*
X54147Y-82593D01*
X54147Y-81504D01*
X54076Y-81458D01*
X53840Y-81455D01*
X53825Y-81458D01*
X53754Y-81504D01*
X53950Y-81701D01*
X54147Y-81504D01*
X54147Y-82593D01*
X53950Y-82397D01*
X53754Y-82593D01*
X53825Y-82640D01*
X54061Y-82643D01*
X54076Y-82640D01*
X54147Y-82593D01*
X54147Y-82828D01*
X54136Y-82839D01*
X54026Y-83105D01*
X54025Y-83393D01*
X54135Y-83659D01*
X54339Y-83863D01*
X54605Y-83973D01*
X54893Y-83974D01*
X55159Y-83864D01*
X55363Y-83660D01*
X55473Y-83394D01*
X55474Y-83106D01*
X55474Y-84018D01*
X53602Y-84018D01*
X53602Y-82049D01*
X53406Y-81852D01*
X53359Y-81923D01*
X53356Y-82159D01*
X53359Y-82174D01*
X53406Y-82245D01*
X53602Y-82049D01*
X53602Y-84018D01*
X52675Y-84018D01*
X52675Y-81925D01*
X52580Y-81695D01*
X52404Y-81519D01*
X52174Y-81423D01*
X51926Y-81423D01*
X51696Y-81518D01*
X51519Y-81694D01*
X51424Y-81924D01*
X51424Y-82173D01*
X51519Y-82403D01*
X51695Y-82579D01*
X51925Y-82674D01*
X52173Y-82674D01*
X52403Y-82579D01*
X52580Y-82404D01*
X52675Y-82174D01*
X52675Y-81925D01*
X52675Y-84018D01*
X51974Y-84018D01*
X51974Y-83106D01*
X51864Y-82840D01*
X51660Y-82636D01*
X51394Y-82526D01*
X51149Y-82525D01*
X51149Y-79694D01*
X51140Y-79648D01*
X51100Y-79607D01*
X50958Y-79750D01*
X51100Y-79892D01*
X51140Y-79851D01*
X51149Y-79694D01*
X51149Y-82525D01*
X51106Y-82525D01*
X50892Y-82614D01*
X50892Y-80100D01*
X50892Y-79399D01*
X50851Y-79359D01*
X50694Y-79350D01*
X50648Y-79359D01*
X50607Y-79399D01*
X50750Y-79541D01*
X50892Y-79399D01*
X50892Y-80100D01*
X50750Y-79958D01*
X50607Y-80100D01*
X50648Y-80140D01*
X50805Y-80149D01*
X50851Y-80140D01*
X50892Y-80100D01*
X50892Y-82614D01*
X50840Y-82635D01*
X50679Y-82796D01*
X50679Y-80665D01*
X50613Y-80507D01*
X50541Y-80434D01*
X50541Y-79750D01*
X50399Y-79607D01*
X50359Y-79648D01*
X50350Y-79805D01*
X50359Y-79851D01*
X50399Y-79892D01*
X50541Y-79750D01*
X50541Y-80434D01*
X50493Y-80386D01*
X50335Y-80321D01*
X50165Y-80320D01*
X50149Y-80327D01*
X50149Y-79694D01*
X50140Y-79648D01*
X50100Y-79607D01*
X49958Y-79750D01*
X50100Y-79892D01*
X50140Y-79851D01*
X50149Y-79694D01*
X50149Y-80327D01*
X50007Y-80386D01*
X49892Y-80501D01*
X49892Y-80100D01*
X49892Y-79399D01*
X49851Y-79359D01*
X49694Y-79350D01*
X49648Y-79359D01*
X49607Y-79399D01*
X49750Y-79541D01*
X49892Y-79399D01*
X49892Y-80100D01*
X49750Y-79958D01*
X49607Y-80100D01*
X49648Y-80140D01*
X49805Y-80149D01*
X49851Y-80140D01*
X49892Y-80100D01*
X49892Y-80501D01*
X49886Y-80506D01*
X49821Y-80664D01*
X49820Y-80834D01*
X49886Y-80992D01*
X50006Y-81113D01*
X50164Y-81178D01*
X50334Y-81179D01*
X50492Y-81113D01*
X50613Y-80993D01*
X50678Y-80835D01*
X50679Y-80665D01*
X50679Y-82796D01*
X50636Y-82839D01*
X50526Y-83105D01*
X50525Y-83393D01*
X50635Y-83659D01*
X50839Y-83863D01*
X51105Y-83973D01*
X51393Y-83974D01*
X51659Y-83864D01*
X51863Y-83660D01*
X51973Y-83394D01*
X51974Y-83106D01*
X51974Y-84018D01*
X50097Y-84018D01*
X50050Y-83998D01*
X49950Y-83998D01*
X49857Y-84036D01*
X49786Y-84107D01*
X49748Y-84199D01*
X49748Y-84299D01*
X49786Y-84392D01*
X49857Y-84463D01*
X49949Y-84501D01*
X50049Y-84501D01*
X50097Y-84481D01*
X56402Y-84481D01*
X56449Y-84501D01*
X56549Y-84501D01*
X56642Y-84463D01*
X56713Y-84392D01*
X56751Y-84300D01*
X56751Y-84200D01*
X56751Y-85716D01*
X56251Y-85716D01*
X56251Y-84700D01*
X56213Y-84607D01*
X56142Y-84536D01*
X56050Y-84498D01*
X55950Y-84498D01*
X55902Y-84518D01*
X49679Y-84518D01*
X49679Y-80665D01*
X49613Y-80507D01*
X49541Y-80434D01*
X49541Y-79750D01*
X49399Y-79607D01*
X49359Y-79648D01*
X49350Y-79805D01*
X49359Y-79851D01*
X49399Y-79892D01*
X49541Y-79750D01*
X49541Y-80434D01*
X49493Y-80386D01*
X49335Y-80321D01*
X49165Y-80320D01*
X49007Y-80386D01*
X48886Y-80506D01*
X48821Y-80664D01*
X48820Y-80834D01*
X48886Y-80992D01*
X49006Y-81113D01*
X49164Y-81178D01*
X49334Y-81179D01*
X49492Y-81113D01*
X49613Y-80993D01*
X49678Y-80835D01*
X49679Y-80665D01*
X49679Y-84518D01*
X49597Y-84518D01*
X49550Y-84498D01*
X49450Y-84498D01*
X49357Y-84536D01*
X49286Y-84607D01*
X49248Y-84699D01*
X49248Y-84799D01*
X49286Y-84892D01*
X49357Y-84963D01*
X49449Y-85001D01*
X49549Y-85001D01*
X49597Y-84981D01*
X55902Y-84981D01*
X55949Y-85001D01*
X56049Y-85001D01*
X56142Y-84963D01*
X56213Y-84892D01*
X56251Y-84800D01*
X56251Y-84700D01*
X56251Y-85716D01*
X48679Y-85716D01*
X48679Y-80665D01*
X48613Y-80507D01*
X48493Y-80386D01*
X48335Y-80321D01*
X48165Y-80320D01*
X48007Y-80386D01*
X47886Y-80506D01*
X47821Y-80664D01*
X47820Y-80834D01*
X47886Y-80992D01*
X48006Y-81113D01*
X48164Y-81178D01*
X48334Y-81179D01*
X48492Y-81113D01*
X48613Y-80993D01*
X48678Y-80835D01*
X48679Y-80665D01*
X48679Y-85716D01*
X47679Y-85716D01*
X47679Y-81019D01*
X47679Y-80428D01*
X47658Y-80378D01*
X47621Y-80341D01*
X47572Y-80321D01*
X47519Y-80320D01*
X46928Y-80320D01*
X46878Y-80341D01*
X46841Y-80378D01*
X46821Y-80427D01*
X46820Y-80480D01*
X46820Y-81071D01*
X46841Y-81121D01*
X46878Y-81158D01*
X46927Y-81178D01*
X46980Y-81179D01*
X47571Y-81179D01*
X47621Y-81158D01*
X47658Y-81121D01*
X47678Y-81072D01*
X47679Y-81019D01*
X47679Y-85716D01*
X47474Y-85716D01*
X47474Y-83106D01*
X47364Y-82840D01*
X47160Y-82636D01*
X46894Y-82526D01*
X46606Y-82525D01*
X46544Y-82551D01*
X46544Y-81938D01*
X46541Y-81923D01*
X46495Y-81852D01*
X46298Y-82049D01*
X46495Y-82245D01*
X46541Y-82174D01*
X46544Y-81938D01*
X46544Y-82551D01*
X46340Y-82635D01*
X46147Y-82828D01*
X46147Y-82593D01*
X46147Y-81504D01*
X46076Y-81458D01*
X45840Y-81455D01*
X45825Y-81458D01*
X45754Y-81504D01*
X45950Y-81701D01*
X46147Y-81504D01*
X46147Y-82593D01*
X45950Y-82397D01*
X45754Y-82593D01*
X45825Y-82640D01*
X46061Y-82643D01*
X46076Y-82640D01*
X46147Y-82593D01*
X46147Y-82828D01*
X46136Y-82839D01*
X46026Y-83105D01*
X46025Y-83393D01*
X46135Y-83659D01*
X46339Y-83863D01*
X46605Y-83973D01*
X46893Y-83974D01*
X47159Y-83864D01*
X47363Y-83660D01*
X47473Y-83394D01*
X47474Y-83106D01*
X47474Y-85716D01*
X45751Y-85716D01*
X45751Y-67200D01*
X45713Y-67107D01*
X45642Y-67036D01*
X45550Y-66998D01*
X45450Y-66998D01*
X45402Y-67018D01*
X44972Y-67018D01*
X44972Y-64987D01*
X44847Y-64684D01*
X44616Y-64453D01*
X44314Y-64327D01*
X43987Y-64327D01*
X43684Y-64452D01*
X43453Y-64683D01*
X43327Y-64985D01*
X43327Y-65312D01*
X43452Y-65615D01*
X43683Y-65846D01*
X43985Y-65972D01*
X44312Y-65972D01*
X44615Y-65847D01*
X44846Y-65616D01*
X44972Y-65314D01*
X44972Y-64987D01*
X44972Y-67018D01*
X44500Y-67018D01*
X44500Y-67018D01*
X44411Y-67035D01*
X44336Y-67086D01*
X44336Y-67086D01*
X43836Y-67586D01*
X43785Y-67661D01*
X43768Y-67750D01*
X43768Y-67750D01*
X43768Y-71652D01*
X43748Y-71699D01*
X43748Y-71799D01*
X43786Y-71892D01*
X43857Y-71963D01*
X43949Y-72001D01*
X44049Y-72001D01*
X44142Y-71963D01*
X44213Y-71892D01*
X44251Y-71800D01*
X44251Y-71700D01*
X44231Y-71652D01*
X44231Y-67846D01*
X44596Y-67481D01*
X45402Y-67481D01*
X45449Y-67501D01*
X45549Y-67501D01*
X45642Y-67463D01*
X45713Y-67392D01*
X45751Y-67300D01*
X45751Y-67200D01*
X45751Y-85716D01*
X45602Y-85716D01*
X45602Y-82049D01*
X45406Y-81852D01*
X45359Y-81923D01*
X45356Y-82159D01*
X45359Y-82174D01*
X45406Y-82245D01*
X45602Y-82049D01*
X45602Y-85716D01*
X44972Y-85716D01*
X44972Y-84687D01*
X44847Y-84384D01*
X44616Y-84153D01*
X44314Y-84027D01*
X43987Y-84027D01*
X43684Y-84152D01*
X43453Y-84383D01*
X43327Y-84685D01*
X43327Y-85012D01*
X43452Y-85315D01*
X43683Y-85546D01*
X43985Y-85672D01*
X44312Y-85672D01*
X44615Y-85547D01*
X44846Y-85316D01*
X44972Y-85014D01*
X44972Y-84687D01*
X44972Y-85716D01*
X43283Y-85716D01*
X43283Y-64283D01*
X62716Y-64283D01*
X62716Y-85716D01*
X62716Y-85716D01*
G37*
G54D31*
X62716Y-85716D02*
X62672Y-85716D01*
X62672Y-84687D01*
X62672Y-64987D01*
X62547Y-64684D01*
X62316Y-64453D01*
X62014Y-64327D01*
X61687Y-64327D01*
X61384Y-64452D01*
X61153Y-64683D01*
X61027Y-64985D01*
X61027Y-65312D01*
X61152Y-65615D01*
X61383Y-65846D01*
X61685Y-65972D01*
X62012Y-65972D01*
X62315Y-65847D01*
X62546Y-65616D01*
X62672Y-65314D01*
X62672Y-64987D01*
X62672Y-84687D01*
X62547Y-84384D01*
X62316Y-84153D01*
X62014Y-84027D01*
X61687Y-84027D01*
X61384Y-84152D01*
X61153Y-84383D01*
X61027Y-84685D01*
X61027Y-85012D01*
X61152Y-85315D01*
X61383Y-85546D01*
X61685Y-85672D01*
X62012Y-85672D01*
X62315Y-85547D01*
X62546Y-85316D01*
X62672Y-85014D01*
X62672Y-84687D01*
X62672Y-85716D01*
X60675Y-85716D01*
X60675Y-81925D01*
X60580Y-81695D01*
X60404Y-81519D01*
X60174Y-81423D01*
X59926Y-81423D01*
X59696Y-81518D01*
X59519Y-81694D01*
X59424Y-81924D01*
X59424Y-82173D01*
X59519Y-82403D01*
X59695Y-82579D01*
X59925Y-82674D01*
X60173Y-82674D01*
X60403Y-82579D01*
X60580Y-82404D01*
X60675Y-82174D01*
X60675Y-81925D01*
X60675Y-85716D01*
X59974Y-85716D01*
X59974Y-83106D01*
X59864Y-82840D01*
X59660Y-82636D01*
X59394Y-82526D01*
X59149Y-82525D01*
X59149Y-79694D01*
X59140Y-79648D01*
X59100Y-79607D01*
X58958Y-79750D01*
X59100Y-79892D01*
X59140Y-79851D01*
X59149Y-79694D01*
X59149Y-82525D01*
X59106Y-82525D01*
X58892Y-82614D01*
X58892Y-80100D01*
X58892Y-79399D01*
X58851Y-79359D01*
X58751Y-79353D01*
X58751Y-76950D01*
X58751Y-67950D01*
X58731Y-67902D01*
X58731Y-65097D01*
X58751Y-65050D01*
X58751Y-64950D01*
X58713Y-64857D01*
X58642Y-64786D01*
X58550Y-64748D01*
X58450Y-64748D01*
X58357Y-64786D01*
X58286Y-64857D01*
X58248Y-64949D01*
X58248Y-65049D01*
X58268Y-65097D01*
X58268Y-67902D01*
X58248Y-67949D01*
X58248Y-68049D01*
X58286Y-68142D01*
X58357Y-68213D01*
X58449Y-68251D01*
X58549Y-68251D01*
X58642Y-68213D01*
X58713Y-68142D01*
X58751Y-68050D01*
X58751Y-67950D01*
X58751Y-76950D01*
X58713Y-76857D01*
X58642Y-76786D01*
X58550Y-76748D01*
X58450Y-76748D01*
X58402Y-76768D01*
X58033Y-76768D01*
X58033Y-65654D01*
X57922Y-65385D01*
X57716Y-65178D01*
X57446Y-65066D01*
X57154Y-65066D01*
X56885Y-65177D01*
X56678Y-65383D01*
X56566Y-65653D01*
X56566Y-65945D01*
X56677Y-66214D01*
X56883Y-66421D01*
X57153Y-66533D01*
X57445Y-66533D01*
X57714Y-66422D01*
X57921Y-66216D01*
X58033Y-65946D01*
X58033Y-65654D01*
X58033Y-76768D01*
X56346Y-76768D01*
X56070Y-76492D01*
X56097Y-76481D01*
X56750Y-76481D01*
X57152Y-76481D01*
X57199Y-76501D01*
X57299Y-76501D01*
X57392Y-76463D01*
X57463Y-76392D01*
X57501Y-76300D01*
X57501Y-76200D01*
X57463Y-76107D01*
X57392Y-76036D01*
X57300Y-75998D01*
X57200Y-75998D01*
X57152Y-76018D01*
X56750Y-76018D01*
X56097Y-76018D01*
X56050Y-75998D01*
X55981Y-75998D01*
X55981Y-67250D01*
X55981Y-67000D01*
X55981Y-65000D01*
X55964Y-64911D01*
X55913Y-64836D01*
X55913Y-64836D01*
X55663Y-64586D01*
X55588Y-64535D01*
X55500Y-64518D01*
X55499Y-64518D01*
X54250Y-64518D01*
X54161Y-64535D01*
X54086Y-64586D01*
X54086Y-64586D01*
X53836Y-64836D01*
X53785Y-64911D01*
X53768Y-65000D01*
X53768Y-65000D01*
X53768Y-65126D01*
X53754Y-65132D01*
X53632Y-65254D01*
X53566Y-65413D01*
X53566Y-65585D01*
X53632Y-65745D01*
X53754Y-65867D01*
X53913Y-65933D01*
X54085Y-65933D01*
X54245Y-65867D01*
X54367Y-65745D01*
X54433Y-65586D01*
X54433Y-65414D01*
X54367Y-65254D01*
X54245Y-65132D01*
X54231Y-65126D01*
X54231Y-65096D01*
X54346Y-64981D01*
X55403Y-64981D01*
X55518Y-65096D01*
X55518Y-67000D01*
X55518Y-67153D01*
X55433Y-67238D01*
X55433Y-66414D01*
X55433Y-65414D01*
X55367Y-65254D01*
X55245Y-65132D01*
X55086Y-65066D01*
X54914Y-65066D01*
X54754Y-65132D01*
X54632Y-65254D01*
X54566Y-65413D01*
X54566Y-65585D01*
X54632Y-65745D01*
X54754Y-65867D01*
X54913Y-65933D01*
X55085Y-65933D01*
X55245Y-65867D01*
X55367Y-65745D01*
X55433Y-65586D01*
X55433Y-65414D01*
X55433Y-66414D01*
X55367Y-66254D01*
X55245Y-66132D01*
X55086Y-66066D01*
X54914Y-66066D01*
X54754Y-66132D01*
X54632Y-66254D01*
X54566Y-66413D01*
X54566Y-66585D01*
X54632Y-66745D01*
X54754Y-66867D01*
X54913Y-66933D01*
X55085Y-66933D01*
X55245Y-66867D01*
X55367Y-66745D01*
X55433Y-66586D01*
X55433Y-66414D01*
X55433Y-67238D01*
X55336Y-67336D01*
X55285Y-67411D01*
X55268Y-67500D01*
X55268Y-67500D01*
X55268Y-67902D01*
X55248Y-67949D01*
X55248Y-68049D01*
X55286Y-68142D01*
X55357Y-68213D01*
X55449Y-68251D01*
X55549Y-68251D01*
X55642Y-68213D01*
X55713Y-68142D01*
X55751Y-68050D01*
X55751Y-67950D01*
X55731Y-67902D01*
X55731Y-67596D01*
X55913Y-67413D01*
X55913Y-67413D01*
X55913Y-67413D01*
X55964Y-67338D01*
X55981Y-67250D01*
X55981Y-75998D01*
X55950Y-75998D01*
X55857Y-76036D01*
X55786Y-76107D01*
X55748Y-76199D01*
X55748Y-76268D01*
X54597Y-76268D01*
X54550Y-76248D01*
X54450Y-76248D01*
X54433Y-76255D01*
X54433Y-66414D01*
X54367Y-66254D01*
X54245Y-66132D01*
X54086Y-66066D01*
X53914Y-66066D01*
X53754Y-66132D01*
X53632Y-66254D01*
X53566Y-66413D01*
X53566Y-66585D01*
X53632Y-66745D01*
X53754Y-66867D01*
X53913Y-66933D01*
X54085Y-66933D01*
X54245Y-66867D01*
X54367Y-66745D01*
X54433Y-66586D01*
X54433Y-66414D01*
X54433Y-76255D01*
X54357Y-76286D01*
X54330Y-76313D01*
X54330Y-76250D01*
X54330Y-68000D01*
X54330Y-67999D01*
X54305Y-67873D01*
X54233Y-67766D01*
X54233Y-67766D01*
X53483Y-67016D01*
X53376Y-66944D01*
X53250Y-66919D01*
X53119Y-66919D01*
X53245Y-66867D01*
X53367Y-66745D01*
X53433Y-66586D01*
X53433Y-66414D01*
X53367Y-66254D01*
X53245Y-66132D01*
X53086Y-66066D01*
X52914Y-66066D01*
X52754Y-66132D01*
X52632Y-66254D01*
X52566Y-66413D01*
X52566Y-66585D01*
X52632Y-66745D01*
X52754Y-66867D01*
X52880Y-66919D01*
X52119Y-66919D01*
X52245Y-66867D01*
X52367Y-66745D01*
X52433Y-66586D01*
X52433Y-66414D01*
X52433Y-65414D01*
X52367Y-65254D01*
X52245Y-65132D01*
X52086Y-65066D01*
X51914Y-65066D01*
X51754Y-65132D01*
X51632Y-65254D01*
X51566Y-65413D01*
X51566Y-65585D01*
X51632Y-65745D01*
X51754Y-65867D01*
X51913Y-65933D01*
X52085Y-65933D01*
X52245Y-65867D01*
X52367Y-65745D01*
X52433Y-65586D01*
X52433Y-65414D01*
X52433Y-66414D01*
X52367Y-66254D01*
X52245Y-66132D01*
X52086Y-66066D01*
X51914Y-66066D01*
X51754Y-66132D01*
X51632Y-66254D01*
X51566Y-66413D01*
X51566Y-66585D01*
X51632Y-66745D01*
X51754Y-66867D01*
X51880Y-66919D01*
X51386Y-66919D01*
X51377Y-66910D01*
X51413Y-66875D01*
X51433Y-66826D01*
X51433Y-66773D01*
X51433Y-66173D01*
X51413Y-66124D01*
X51375Y-66086D01*
X51330Y-66068D01*
X51330Y-65782D01*
X51367Y-65745D01*
X51433Y-65586D01*
X51433Y-65414D01*
X51367Y-65254D01*
X51245Y-65132D01*
X51086Y-65066D01*
X50914Y-65066D01*
X50754Y-65132D01*
X50632Y-65254D01*
X50566Y-65413D01*
X50566Y-65585D01*
X50632Y-65745D01*
X50669Y-65782D01*
X50669Y-66068D01*
X50624Y-66086D01*
X50586Y-66124D01*
X50566Y-66173D01*
X50566Y-66226D01*
X50566Y-66826D01*
X50586Y-66875D01*
X50624Y-66913D01*
X50669Y-66931D01*
X50669Y-67000D01*
X50694Y-67126D01*
X50766Y-67233D01*
X51016Y-67483D01*
X51016Y-67483D01*
X51068Y-67518D01*
X50846Y-67518D01*
X50481Y-67153D01*
X50481Y-67000D01*
X50481Y-65096D01*
X50596Y-64981D01*
X52653Y-64981D01*
X52768Y-65096D01*
X52768Y-65126D01*
X52754Y-65132D01*
X52632Y-65254D01*
X52566Y-65413D01*
X52566Y-65585D01*
X52632Y-65745D01*
X52754Y-65867D01*
X52913Y-65933D01*
X53085Y-65933D01*
X53245Y-65867D01*
X53367Y-65745D01*
X53433Y-65586D01*
X53433Y-65414D01*
X53367Y-65254D01*
X53245Y-65132D01*
X53231Y-65126D01*
X53231Y-65000D01*
X53214Y-64911D01*
X53163Y-64836D01*
X53163Y-64836D01*
X52913Y-64586D01*
X52838Y-64535D01*
X52750Y-64518D01*
X52749Y-64518D01*
X50500Y-64518D01*
X50411Y-64535D01*
X50336Y-64586D01*
X50336Y-64586D01*
X50086Y-64836D01*
X50035Y-64911D01*
X50018Y-65000D01*
X50018Y-65000D01*
X50018Y-67000D01*
X50018Y-67249D01*
X50018Y-67250D01*
X50035Y-67338D01*
X50086Y-67413D01*
X50586Y-67913D01*
X50586Y-67913D01*
X50661Y-67964D01*
X50750Y-67981D01*
X50750Y-67981D01*
X50750Y-67981D01*
X52152Y-67981D01*
X52199Y-68001D01*
X52299Y-68001D01*
X52392Y-67963D01*
X52463Y-67892D01*
X52501Y-67800D01*
X52501Y-67700D01*
X52463Y-67607D01*
X52436Y-67580D01*
X53113Y-67580D01*
X53669Y-68136D01*
X53669Y-76250D01*
X53669Y-76669D01*
X50500Y-76669D01*
X50373Y-76694D01*
X50266Y-76766D01*
X49433Y-77599D01*
X49433Y-65654D01*
X49322Y-65385D01*
X49116Y-65178D01*
X48846Y-65066D01*
X48554Y-65066D01*
X48285Y-65177D01*
X48078Y-65383D01*
X47966Y-65653D01*
X47966Y-65945D01*
X48077Y-66214D01*
X48283Y-66421D01*
X48553Y-66533D01*
X48845Y-66533D01*
X49114Y-66422D01*
X49321Y-66216D01*
X49433Y-65946D01*
X49433Y-65654D01*
X49433Y-77599D01*
X48516Y-78516D01*
X48444Y-78623D01*
X48419Y-78750D01*
X48419Y-79419D01*
X48251Y-79419D01*
X48251Y-71700D01*
X48231Y-71652D01*
X48231Y-68000D01*
X48214Y-67911D01*
X48163Y-67836D01*
X48163Y-67836D01*
X47913Y-67586D01*
X47838Y-67535D01*
X47750Y-67518D01*
X47749Y-67518D01*
X46846Y-67518D01*
X46482Y-67154D01*
X46463Y-67107D01*
X46392Y-67036D01*
X46300Y-66998D01*
X46200Y-66998D01*
X46107Y-67036D01*
X46036Y-67107D01*
X45998Y-67199D01*
X45998Y-67299D01*
X46036Y-67392D01*
X46107Y-67463D01*
X46155Y-67482D01*
X46586Y-67913D01*
X46586Y-67913D01*
X46661Y-67964D01*
X46750Y-67981D01*
X46750Y-67981D01*
X46750Y-67981D01*
X47653Y-67981D01*
X47768Y-68096D01*
X47768Y-71652D01*
X47748Y-71699D01*
X47748Y-71799D01*
X47786Y-71892D01*
X47857Y-71963D01*
X47949Y-72001D01*
X48049Y-72001D01*
X48142Y-71963D01*
X48213Y-71892D01*
X48251Y-71800D01*
X48251Y-71700D01*
X48251Y-79419D01*
X48026Y-79419D01*
X47993Y-79386D01*
X47835Y-79321D01*
X47665Y-79320D01*
X47653Y-79325D01*
X46981Y-78653D01*
X46981Y-75597D01*
X47001Y-75550D01*
X47001Y-75450D01*
X46963Y-75357D01*
X46892Y-75286D01*
X46800Y-75248D01*
X46700Y-75248D01*
X46607Y-75286D01*
X46536Y-75357D01*
X46498Y-75449D01*
X46498Y-75549D01*
X46518Y-75597D01*
X46518Y-78749D01*
X46518Y-78750D01*
X46535Y-78838D01*
X46586Y-78913D01*
X47325Y-79653D01*
X47321Y-79664D01*
X47320Y-79834D01*
X47386Y-79992D01*
X47506Y-80113D01*
X47664Y-80178D01*
X47834Y-80179D01*
X47992Y-80113D01*
X48026Y-80080D01*
X48473Y-80080D01*
X48506Y-80113D01*
X48664Y-80178D01*
X48834Y-80179D01*
X48992Y-80113D01*
X49113Y-79993D01*
X49178Y-79835D01*
X49179Y-79665D01*
X49113Y-79507D01*
X49080Y-79473D01*
X49080Y-78886D01*
X50636Y-77330D01*
X52313Y-77330D01*
X52286Y-77357D01*
X52248Y-77449D01*
X52248Y-77549D01*
X52286Y-77642D01*
X52357Y-77713D01*
X52449Y-77751D01*
X52549Y-77751D01*
X52597Y-77731D01*
X53902Y-77731D01*
X53949Y-77751D01*
X54049Y-77751D01*
X54142Y-77713D01*
X54213Y-77642D01*
X54251Y-77550D01*
X54251Y-77450D01*
X54213Y-77357D01*
X54186Y-77330D01*
X55363Y-77330D01*
X56419Y-78386D01*
X56419Y-79419D01*
X56026Y-79419D01*
X56001Y-79394D01*
X56001Y-78950D01*
X55963Y-78857D01*
X55892Y-78786D01*
X55800Y-78748D01*
X55700Y-78748D01*
X55652Y-78768D01*
X52347Y-78768D01*
X52300Y-78748D01*
X52200Y-78748D01*
X52107Y-78786D01*
X52036Y-78857D01*
X51998Y-78949D01*
X51998Y-79049D01*
X52036Y-79142D01*
X52107Y-79213D01*
X52199Y-79251D01*
X52299Y-79251D01*
X52347Y-79231D01*
X55652Y-79231D01*
X55699Y-79251D01*
X55799Y-79251D01*
X55892Y-79213D01*
X55963Y-79142D01*
X56001Y-79050D01*
X56001Y-78950D01*
X56001Y-79394D01*
X55993Y-79386D01*
X55835Y-79321D01*
X55665Y-79320D01*
X55507Y-79386D01*
X55386Y-79506D01*
X55321Y-79664D01*
X55320Y-79834D01*
X55386Y-79992D01*
X55506Y-80113D01*
X55664Y-80178D01*
X55834Y-80179D01*
X55992Y-80113D01*
X56026Y-80080D01*
X56473Y-80080D01*
X56506Y-80113D01*
X56664Y-80178D01*
X56834Y-80179D01*
X56992Y-80113D01*
X57113Y-79993D01*
X57178Y-79835D01*
X57179Y-79665D01*
X57113Y-79507D01*
X57080Y-79473D01*
X57080Y-78250D01*
X57055Y-78123D01*
X56983Y-78016D01*
X56186Y-77219D01*
X56250Y-77231D01*
X56250Y-77231D01*
X56250Y-77231D01*
X58402Y-77231D01*
X58449Y-77251D01*
X58549Y-77251D01*
X58642Y-77213D01*
X58713Y-77142D01*
X58751Y-77050D01*
X58751Y-76950D01*
X58751Y-79353D01*
X58694Y-79350D01*
X58648Y-79359D01*
X58607Y-79399D01*
X58750Y-79541D01*
X58892Y-79399D01*
X58892Y-80100D01*
X58750Y-79958D01*
X58607Y-80100D01*
X58648Y-80140D01*
X58805Y-80149D01*
X58851Y-80140D01*
X58892Y-80100D01*
X58892Y-82614D01*
X58840Y-82635D01*
X58679Y-82796D01*
X58679Y-80665D01*
X58613Y-80507D01*
X58541Y-80434D01*
X58541Y-79750D01*
X58399Y-79607D01*
X58359Y-79648D01*
X58350Y-79805D01*
X58359Y-79851D01*
X58399Y-79892D01*
X58541Y-79750D01*
X58541Y-80434D01*
X58493Y-80386D01*
X58335Y-80321D01*
X58165Y-80320D01*
X58149Y-80327D01*
X58149Y-79694D01*
X58140Y-79648D01*
X58100Y-79607D01*
X57958Y-79750D01*
X58100Y-79892D01*
X58140Y-79851D01*
X58149Y-79694D01*
X58149Y-80327D01*
X58007Y-80386D01*
X57892Y-80501D01*
X57892Y-80100D01*
X57892Y-79399D01*
X57851Y-79359D01*
X57694Y-79350D01*
X57648Y-79359D01*
X57607Y-79399D01*
X57750Y-79541D01*
X57892Y-79399D01*
X57892Y-80100D01*
X57750Y-79958D01*
X57607Y-80100D01*
X57648Y-80140D01*
X57805Y-80149D01*
X57851Y-80140D01*
X57892Y-80100D01*
X57892Y-80501D01*
X57886Y-80506D01*
X57821Y-80664D01*
X57820Y-80834D01*
X57886Y-80992D01*
X58006Y-81113D01*
X58164Y-81178D01*
X58334Y-81179D01*
X58492Y-81113D01*
X58613Y-80993D01*
X58678Y-80835D01*
X58679Y-80665D01*
X58679Y-82796D01*
X58636Y-82839D01*
X58526Y-83105D01*
X58525Y-83393D01*
X58635Y-83659D01*
X58839Y-83863D01*
X59105Y-83973D01*
X59393Y-83974D01*
X59659Y-83864D01*
X59863Y-83660D01*
X59973Y-83394D01*
X59974Y-83106D01*
X59974Y-85716D01*
X58251Y-85716D01*
X58251Y-81950D01*
X58213Y-81857D01*
X58142Y-81786D01*
X58050Y-81748D01*
X57950Y-81748D01*
X57902Y-81768D01*
X57679Y-81768D01*
X57679Y-80665D01*
X57613Y-80507D01*
X57541Y-80434D01*
X57541Y-79750D01*
X57399Y-79607D01*
X57359Y-79648D01*
X57350Y-79805D01*
X57359Y-79851D01*
X57399Y-79892D01*
X57541Y-79750D01*
X57541Y-80434D01*
X57493Y-80386D01*
X57335Y-80321D01*
X57165Y-80320D01*
X57007Y-80386D01*
X56886Y-80506D01*
X56821Y-80664D01*
X56820Y-80834D01*
X56886Y-80992D01*
X57006Y-81113D01*
X57018Y-81118D01*
X57018Y-81153D01*
X56903Y-81268D01*
X56679Y-81268D01*
X56679Y-80665D01*
X56613Y-80507D01*
X56493Y-80386D01*
X56335Y-80321D01*
X56165Y-80320D01*
X56007Y-80386D01*
X55886Y-80506D01*
X55821Y-80664D01*
X55820Y-80834D01*
X55886Y-80992D01*
X56006Y-81113D01*
X56164Y-81178D01*
X56334Y-81179D01*
X56492Y-81113D01*
X56613Y-80993D01*
X56678Y-80835D01*
X56679Y-80665D01*
X56679Y-81268D01*
X55679Y-81268D01*
X55679Y-81019D01*
X55679Y-80428D01*
X55658Y-80378D01*
X55621Y-80341D01*
X55572Y-80321D01*
X55519Y-80320D01*
X54928Y-80320D01*
X54878Y-80341D01*
X54841Y-80378D01*
X54821Y-80427D01*
X54820Y-80480D01*
X54820Y-81071D01*
X54841Y-81121D01*
X54878Y-81158D01*
X54927Y-81178D01*
X54980Y-81179D01*
X55571Y-81179D01*
X55621Y-81158D01*
X55658Y-81121D01*
X55678Y-81072D01*
X55679Y-81019D01*
X55679Y-81268D01*
X54846Y-81268D01*
X54413Y-80836D01*
X54338Y-80785D01*
X54250Y-80768D01*
X54249Y-80768D01*
X54000Y-80768D01*
X53751Y-80768D01*
X53751Y-79450D01*
X53713Y-79357D01*
X53642Y-79286D01*
X53550Y-79248D01*
X53450Y-79248D01*
X53402Y-79268D01*
X51847Y-79268D01*
X51800Y-79248D01*
X51700Y-79248D01*
X51607Y-79286D01*
X51536Y-79357D01*
X51498Y-79449D01*
X51498Y-79549D01*
X51536Y-79642D01*
X51607Y-79713D01*
X51699Y-79751D01*
X51799Y-79751D01*
X51847Y-79731D01*
X53402Y-79731D01*
X53449Y-79751D01*
X53549Y-79751D01*
X53642Y-79713D01*
X53713Y-79642D01*
X53751Y-79550D01*
X53751Y-79450D01*
X53751Y-80768D01*
X52847Y-80768D01*
X52800Y-80748D01*
X52700Y-80748D01*
X52607Y-80786D01*
X52536Y-80857D01*
X52498Y-80949D01*
X52498Y-81049D01*
X52536Y-81142D01*
X52607Y-81213D01*
X52699Y-81251D01*
X52799Y-81251D01*
X52847Y-81231D01*
X54000Y-81231D01*
X54153Y-81231D01*
X54586Y-81663D01*
X54586Y-81663D01*
X54661Y-81714D01*
X54750Y-81731D01*
X54750Y-81731D01*
X54750Y-81731D01*
X56999Y-81731D01*
X57000Y-81731D01*
X57000Y-81731D01*
X57088Y-81714D01*
X57163Y-81663D01*
X57413Y-81413D01*
X57413Y-81413D01*
X57413Y-81413D01*
X57464Y-81338D01*
X57481Y-81250D01*
X57481Y-81118D01*
X57492Y-81113D01*
X57613Y-80993D01*
X57678Y-80835D01*
X57679Y-80665D01*
X57679Y-81768D01*
X55347Y-81768D01*
X55300Y-81748D01*
X55200Y-81748D01*
X55107Y-81786D01*
X55036Y-81857D01*
X54998Y-81949D01*
X54998Y-82049D01*
X55036Y-82142D01*
X55107Y-82213D01*
X55199Y-82251D01*
X55299Y-82251D01*
X55347Y-82231D01*
X57902Y-82231D01*
X57949Y-82251D01*
X58049Y-82251D01*
X58142Y-82213D01*
X58213Y-82142D01*
X58251Y-82050D01*
X58251Y-81950D01*
X58251Y-85716D01*
X56751Y-85716D01*
X56751Y-84200D01*
X56713Y-84107D01*
X56642Y-84036D01*
X56550Y-83998D01*
X56450Y-83998D01*
X56402Y-84018D01*
X55474Y-84018D01*
X55474Y-83106D01*
X55364Y-82840D01*
X55160Y-82636D01*
X54894Y-82526D01*
X54606Y-82525D01*
X54544Y-82551D01*
X54544Y-81938D01*
X54541Y-81923D01*
X54495Y-81852D01*
X54298Y-82049D01*
X54495Y-82245D01*
X54541Y-82174D01*
X54544Y-81938D01*
X54544Y-82551D01*
X54340Y-82635D01*
X54147Y-82828D01*
X54147Y-82593D01*
X54147Y-81504D01*
X54076Y-81458D01*
X53840Y-81455D01*
X53825Y-81458D01*
X53754Y-81504D01*
X53950Y-81701D01*
X54147Y-81504D01*
X54147Y-82593D01*
X53950Y-82397D01*
X53754Y-82593D01*
X53825Y-82640D01*
X54061Y-82643D01*
X54076Y-82640D01*
X54147Y-82593D01*
X54147Y-82828D01*
X54136Y-82839D01*
X54026Y-83105D01*
X54025Y-83393D01*
X54135Y-83659D01*
X54339Y-83863D01*
X54605Y-83973D01*
X54893Y-83974D01*
X55159Y-83864D01*
X55363Y-83660D01*
X55473Y-83394D01*
X55474Y-83106D01*
X55474Y-84018D01*
X53602Y-84018D01*
X53602Y-82049D01*
X53406Y-81852D01*
X53359Y-81923D01*
X53356Y-82159D01*
X53359Y-82174D01*
X53406Y-82245D01*
X53602Y-82049D01*
X53602Y-84018D01*
X52675Y-84018D01*
X52675Y-81925D01*
X52580Y-81695D01*
X52404Y-81519D01*
X52174Y-81423D01*
X51926Y-81423D01*
X51696Y-81518D01*
X51519Y-81694D01*
X51424Y-81924D01*
X51424Y-82173D01*
X51519Y-82403D01*
X51695Y-82579D01*
X51925Y-82674D01*
X52173Y-82674D01*
X52403Y-82579D01*
X52580Y-82404D01*
X52675Y-82174D01*
X52675Y-81925D01*
X52675Y-84018D01*
X51974Y-84018D01*
X51974Y-83106D01*
X51864Y-82840D01*
X51660Y-82636D01*
X51394Y-82526D01*
X51149Y-82525D01*
X51149Y-79694D01*
X51140Y-79648D01*
X51100Y-79607D01*
X50958Y-79750D01*
X51100Y-79892D01*
X51140Y-79851D01*
X51149Y-79694D01*
X51149Y-82525D01*
X51106Y-82525D01*
X50892Y-82614D01*
X50892Y-80100D01*
X50892Y-79399D01*
X50851Y-79359D01*
X50694Y-79350D01*
X50648Y-79359D01*
X50607Y-79399D01*
X50750Y-79541D01*
X50892Y-79399D01*
X50892Y-80100D01*
X50750Y-79958D01*
X50607Y-80100D01*
X50648Y-80140D01*
X50805Y-80149D01*
X50851Y-80140D01*
X50892Y-80100D01*
X50892Y-82614D01*
X50840Y-82635D01*
X50679Y-82796D01*
X50679Y-80665D01*
X50613Y-80507D01*
X50541Y-80434D01*
X50541Y-79750D01*
X50399Y-79607D01*
X50359Y-79648D01*
X50350Y-79805D01*
X50359Y-79851D01*
X50399Y-79892D01*
X50541Y-79750D01*
X50541Y-80434D01*
X50493Y-80386D01*
X50335Y-80321D01*
X50165Y-80320D01*
X50149Y-80327D01*
X50149Y-79694D01*
X50140Y-79648D01*
X50100Y-79607D01*
X49958Y-79750D01*
X50100Y-79892D01*
X50140Y-79851D01*
X50149Y-79694D01*
X50149Y-80327D01*
X50007Y-80386D01*
X49892Y-80501D01*
X49892Y-80100D01*
X49892Y-79399D01*
X49851Y-79359D01*
X49694Y-79350D01*
X49648Y-79359D01*
X49607Y-79399D01*
X49750Y-79541D01*
X49892Y-79399D01*
X49892Y-80100D01*
X49750Y-79958D01*
X49607Y-80100D01*
X49648Y-80140D01*
X49805Y-80149D01*
X49851Y-80140D01*
X49892Y-80100D01*
X49892Y-80501D01*
X49886Y-80506D01*
X49821Y-80664D01*
X49820Y-80834D01*
X49886Y-80992D01*
X50006Y-81113D01*
X50164Y-81178D01*
X50334Y-81179D01*
X50492Y-81113D01*
X50613Y-80993D01*
X50678Y-80835D01*
X50679Y-80665D01*
X50679Y-82796D01*
X50636Y-82839D01*
X50526Y-83105D01*
X50525Y-83393D01*
X50635Y-83659D01*
X50839Y-83863D01*
X51105Y-83973D01*
X51393Y-83974D01*
X51659Y-83864D01*
X51863Y-83660D01*
X51973Y-83394D01*
X51974Y-83106D01*
X51974Y-84018D01*
X50097Y-84018D01*
X50050Y-83998D01*
X49950Y-83998D01*
X49857Y-84036D01*
X49786Y-84107D01*
X49748Y-84199D01*
X49748Y-84299D01*
X49786Y-84392D01*
X49857Y-84463D01*
X49949Y-84501D01*
X50049Y-84501D01*
X50097Y-84481D01*
X56402Y-84481D01*
X56449Y-84501D01*
X56549Y-84501D01*
X56642Y-84463D01*
X56713Y-84392D01*
X56751Y-84300D01*
X56751Y-84200D01*
X56751Y-85716D01*
X56251Y-85716D01*
X56251Y-84700D01*
X56213Y-84607D01*
X56142Y-84536D01*
X56050Y-84498D01*
X55950Y-84498D01*
X55902Y-84518D01*
X49679Y-84518D01*
X49679Y-80665D01*
X49613Y-80507D01*
X49541Y-80434D01*
X49541Y-79750D01*
X49399Y-79607D01*
X49359Y-79648D01*
X49350Y-79805D01*
X49359Y-79851D01*
X49399Y-79892D01*
X49541Y-79750D01*
X49541Y-80434D01*
X49493Y-80386D01*
X49335Y-80321D01*
X49165Y-80320D01*
X49007Y-80386D01*
X48886Y-80506D01*
X48821Y-80664D01*
X48820Y-80834D01*
X48886Y-80992D01*
X49006Y-81113D01*
X49164Y-81178D01*
X49334Y-81179D01*
X49492Y-81113D01*
X49613Y-80993D01*
X49678Y-80835D01*
X49679Y-80665D01*
X49679Y-84518D01*
X49597Y-84518D01*
X49550Y-84498D01*
X49450Y-84498D01*
X49357Y-84536D01*
X49286Y-84607D01*
X49248Y-84699D01*
X49248Y-84799D01*
X49286Y-84892D01*
X49357Y-84963D01*
X49449Y-85001D01*
X49549Y-85001D01*
X49597Y-84981D01*
X55902Y-84981D01*
X55949Y-85001D01*
X56049Y-85001D01*
X56142Y-84963D01*
X56213Y-84892D01*
X56251Y-84800D01*
X56251Y-84700D01*
X56251Y-85716D01*
X48679Y-85716D01*
X48679Y-80665D01*
X48613Y-80507D01*
X48493Y-80386D01*
X48335Y-80321D01*
X48165Y-80320D01*
X48007Y-80386D01*
X47886Y-80506D01*
X47821Y-80664D01*
X47820Y-80834D01*
X47886Y-80992D01*
X48006Y-81113D01*
X48164Y-81178D01*
X48334Y-81179D01*
X48492Y-81113D01*
X48613Y-80993D01*
X48678Y-80835D01*
X48679Y-80665D01*
X48679Y-85716D01*
X47679Y-85716D01*
X47679Y-81019D01*
X47679Y-80428D01*
X47658Y-80378D01*
X47621Y-80341D01*
X47572Y-80321D01*
X47519Y-80320D01*
X46928Y-80320D01*
X46878Y-80341D01*
X46841Y-80378D01*
X46821Y-80427D01*
X46820Y-80480D01*
X46820Y-81071D01*
X46841Y-81121D01*
X46878Y-81158D01*
X46927Y-81178D01*
X46980Y-81179D01*
X47571Y-81179D01*
X47621Y-81158D01*
X47658Y-81121D01*
X47678Y-81072D01*
X47679Y-81019D01*
X47679Y-85716D01*
X47474Y-85716D01*
X47474Y-83106D01*
X47364Y-82840D01*
X47160Y-82636D01*
X46894Y-82526D01*
X46606Y-82525D01*
X46544Y-82551D01*
X46544Y-81938D01*
X46541Y-81923D01*
X46495Y-81852D01*
X46298Y-82049D01*
X46495Y-82245D01*
X46541Y-82174D01*
X46544Y-81938D01*
X46544Y-82551D01*
X46340Y-82635D01*
X46147Y-82828D01*
X46147Y-82593D01*
X46147Y-81504D01*
X46076Y-81458D01*
X45840Y-81455D01*
X45825Y-81458D01*
X45754Y-81504D01*
X45950Y-81701D01*
X46147Y-81504D01*
X46147Y-82593D01*
X45950Y-82397D01*
X45754Y-82593D01*
X45825Y-82640D01*
X46061Y-82643D01*
X46076Y-82640D01*
X46147Y-82593D01*
X46147Y-82828D01*
X46136Y-82839D01*
X46026Y-83105D01*
X46025Y-83393D01*
X46135Y-83659D01*
X46339Y-83863D01*
X46605Y-83973D01*
X46893Y-83974D01*
X47159Y-83864D01*
X47363Y-83660D01*
X47473Y-83394D01*
X47474Y-83106D01*
X47474Y-85716D01*
X45751Y-85716D01*
X45751Y-67200D01*
X45713Y-67107D01*
X45642Y-67036D01*
X45550Y-66998D01*
X45450Y-66998D01*
X45402Y-67018D01*
X44972Y-67018D01*
X44972Y-64987D01*
X44847Y-64684D01*
X44616Y-64453D01*
X44314Y-64327D01*
X43987Y-64327D01*
X43684Y-64452D01*
X43453Y-64683D01*
X43327Y-64985D01*
X43327Y-65312D01*
X43452Y-65615D01*
X43683Y-65846D01*
X43985Y-65972D01*
X44312Y-65972D01*
X44615Y-65847D01*
X44846Y-65616D01*
X44972Y-65314D01*
X44972Y-64987D01*
X44972Y-67018D01*
X44500Y-67018D01*
X44500Y-67018D01*
X44411Y-67035D01*
X44336Y-67086D01*
X44336Y-67086D01*
X43836Y-67586D01*
X43785Y-67661D01*
X43768Y-67750D01*
X43768Y-67750D01*
X43768Y-71652D01*
X43748Y-71699D01*
X43748Y-71799D01*
X43786Y-71892D01*
X43857Y-71963D01*
X43949Y-72001D01*
X44049Y-72001D01*
X44142Y-71963D01*
X44213Y-71892D01*
X44251Y-71800D01*
X44251Y-71700D01*
X44231Y-71652D01*
X44231Y-67846D01*
X44596Y-67481D01*
X45402Y-67481D01*
X45449Y-67501D01*
X45549Y-67501D01*
X45642Y-67463D01*
X45713Y-67392D01*
X45751Y-67300D01*
X45751Y-67200D01*
X45751Y-85716D01*
X45602Y-85716D01*
X45602Y-82049D01*
X45406Y-81852D01*
X45359Y-81923D01*
X45356Y-82159D01*
X45359Y-82174D01*
X45406Y-82245D01*
X45602Y-82049D01*
X45602Y-85716D01*
X44972Y-85716D01*
X44972Y-84687D01*
X44847Y-84384D01*
X44616Y-84153D01*
X44314Y-84027D01*
X43987Y-84027D01*
X43684Y-84152D01*
X43453Y-84383D01*
X43327Y-84685D01*
X43327Y-85012D01*
X43452Y-85315D01*
X43683Y-85546D01*
X43985Y-85672D01*
X44312Y-85672D01*
X44615Y-85547D01*
X44846Y-85316D01*
X44972Y-85014D01*
X44972Y-84687D01*
X44972Y-85716D01*
X43283Y-85716D01*
X43283Y-64283D01*
X62716Y-64283D01*
X62716Y-85716D01*
G54D10*
G36*
X62716Y-63716D02*
X56283Y-63716D01*
X56283Y-46783D01*
X62716Y-46783D01*
X62716Y-63716D01*
X62716Y-63716D01*
G37*
G54D31*
X62716Y-63716D02*
X56283Y-63716D01*
X56283Y-46783D01*
X62716Y-46783D01*
X62716Y-63716D01*
M02*
