M48
;DRILL file {Pcbnew (2013-may-18)-stable} date Tue 21 Oct 2014 09:47:38 PM CEST
;FORMAT={3:3/ absolute / metric / suppress leading zeros}
FMAT,2
METRIC,TZ
T1C0.200
T2C0.635
T3C0.813
T4C0.899
T5C1.001
T6C1.270
T7C1.524
T8C1.600
T9C2.500
T10C2.540
T11C3.000
T12C3.048
T13C3.251
%
G90
G05
M71
T1
X158750Y-139065
X162560Y-127635
X164465Y-127635
X165735Y-148590
X168910Y-139065
X172720Y-172085
X173990Y-170815
X174625Y-140335
X178435Y-140335
X178435Y-158750
X179705Y-128905
X179705Y-157480
X180340Y-153670
X180975Y-97790
X180975Y-100330
X180975Y-102870
X180975Y-162560
X182245Y-104140
X182245Y-140335
X182880Y-158750
X184150Y-153670
X184785Y-100330
X184785Y-102235
X185420Y-151130
X186055Y-98425
X186055Y-140335
X187325Y-99695
X187325Y-105410
X187325Y-165100
X187960Y-129540
X188595Y-104140
X188595Y-157480
X189230Y-150495
X189230Y-172085
X189865Y-92075
X189865Y-95250
X189865Y-140335
X190500Y-170815
X191135Y-99695
X191135Y-104140
X191135Y-105410
X192405Y-95250
X192405Y-100965
X192405Y-150495
X193675Y-140335
X194310Y-165100
X194945Y-98425
X194945Y-104140
X195580Y-121920
X195580Y-129540
X195580Y-152400
X196215Y-95250
X197485Y-140335
X198755Y-105410
X200660Y-106680
X201295Y-140335
X204470Y-104140
X208915Y-105410
X208915Y-139065
X212725Y-127635
X214630Y-104140
X214630Y-107950
X214630Y-127635
X215900Y-148590
X217170Y-105410
X219075Y-139065
X222250Y-97155
X222885Y-172085
X223520Y-99060
X224155Y-170815
X224790Y-140335
X228600Y-140335
X228600Y-158750
X229870Y-128905
X229870Y-157480
X230505Y-153670
X231140Y-162560
X232410Y-140335
X233045Y-158750
X233680Y-97155
X234315Y-153670
X235585Y-151130
X236220Y-140335
X237490Y-165100
X238125Y-129540
X238760Y-157480
X239395Y-150495
X239395Y-172085
X240030Y-140335
X240665Y-170815
X242570Y-150495
X243840Y-140335
X244475Y-165100
X245745Y-121920
X245745Y-129540
X245745Y-152400
X247650Y-140335
X251460Y-140335
T2
X216535Y-99060
T3
X176530Y-123190
X176530Y-125730
X179070Y-123190
X179070Y-125730
X181610Y-123190
X181610Y-125730
X183515Y-113030
X184150Y-123190
X184150Y-125730
X186055Y-113030
X186690Y-123190
X186690Y-125730
X188595Y-113030
X191135Y-113030
X193675Y-113030
X196215Y-113030
X198755Y-113030
X224790Y-100330
X224790Y-107950
X226695Y-123190
X226695Y-125730
X229235Y-123190
X229235Y-125730
X229870Y-100330
X229870Y-107950
X231775Y-123190
X231775Y-125730
X234315Y-123190
X234315Y-125730
X236855Y-123190
X236855Y-125730
T4
X167005Y-161925
X168275Y-159385
X169545Y-161925
X170815Y-159385
X172085Y-161925
X173355Y-159385
X173990Y-95250
X173990Y-97790
X173990Y-100330
X173990Y-102870
X174625Y-161925
X175895Y-159385
X176530Y-96520
X176530Y-99060
X176530Y-101600
X176530Y-104140
X187325Y-161925
X188595Y-159385
X189865Y-161925
X191135Y-159385
X192405Y-161925
X193675Y-159385
X194945Y-161925
X196215Y-159385
X203876Y-110510
X206375Y-113010
X208874Y-110510
X217170Y-161925
X218440Y-159385
X219710Y-161925
X220980Y-159385
X222250Y-161925
X223520Y-159385
X224790Y-161925
X226060Y-159385
X237490Y-161925
X238760Y-159385
X240030Y-161925
X241300Y-159385
X242570Y-161925
X243840Y-159385
X245110Y-161925
X246380Y-159385
T5
X165735Y-85090
T6
X188595Y-85090
T7
X198755Y-80010
X203835Y-80010
T8
X163705Y-165225
X170690Y-91950
X170690Y-107442
X179197Y-165225
X184025Y-165225
X199517Y-165225
X213870Y-165225
X229362Y-165225
X234190Y-165225
X249682Y-165225
T9
X159131Y-122301
X159131Y-172339
X204089Y-122301
X204089Y-172339
X209296Y-122301
X209296Y-172339
X254254Y-122301
X254254Y-172339
T10
X170688Y-123952
X192532Y-123952
X220853Y-123952
X242697Y-123952
T11
X165735Y-168275
X177165Y-168275
X186055Y-168275
X197485Y-168275
X215900Y-168275
X227330Y-168275
X236220Y-168275
X247650Y-168275
T12
X160655Y-80010
X160655Y-115570
X235585Y-80010
X235585Y-115570
T13
X167640Y-93980
X167640Y-105410
T0
M30
