G04 (created by PCBNEW (2013-may-18)-stable) date Thu 01 May 2014 09:02:58 PM CEST*
%MOIN*%
G04 Gerber Fmt 3.4, Leading zero omitted, Abs format*
%FSLAX34Y34*%
G01*
G70*
G90*
G04 APERTURE LIST*
%ADD10C,0.00590551*%
%ADD11C,0.011811*%
%ADD12C,0.00787402*%
%ADD13C,0.005*%
%ADD14C,0.008*%
%ADD15C,0.0118*%
%ADD16C,0.015*%
%ADD17C,0.012*%
%ADD18C,0.0045*%
%ADD19C,0.0047*%
%ADD20C,0.0039*%
%ADD21C,0.00344488*%
%ADD22C,0.00984252*%
%ADD23C,0.006*%
%ADD24C,0.0107*%
%ADD25C,0.01*%
%ADD26R,0.045X0.025*%
%ADD27R,0.1063X0.1004*%
%ADD28R,0.1496X0.1004*%
%ADD29R,0.065X0.12*%
%ADD30R,0.24X0.24*%
%ADD31R,0.025X0.045*%
%ADD32R,0.08X0.06*%
%ADD33R,0.02X0.045*%
%ADD34R,0.0335X0.0335*%
%ADD35R,0.0236X0.0394*%
%ADD36C,0.12*%
%ADD37R,0.06X0.06*%
%ADD38C,0.06*%
%ADD39C,0.137795*%
%ADD40C,0.1437*%
%ADD41R,0.0591X0.0591*%
%ADD42C,0.0591*%
%ADD43C,0.0984252*%
%ADD44C,0.11811*%
%ADD45C,0.0689*%
%ADD46C,0.055*%
%ADD47R,0.0394X0.0236*%
%ADD48R,0.0236X0.0551*%
%ADD49C,0.1575*%
%ADD50R,0.12X0.065*%
%ADD51R,0.1004X0.1063*%
%ADD52R,0.1004X0.1496*%
%ADD53R,0.1X0.1*%
%ADD54C,0.1*%
%ADD55R,0.055X0.055*%
%ADD56C,0.177165*%
G04 APERTURE END LIST*
G54D10*
G54D11*
X44279Y-27989D02*
X44279Y-27398D01*
X44561Y-27595D02*
X44561Y-27989D01*
X44561Y-27651D02*
X44589Y-27623D01*
X44645Y-27595D01*
X44729Y-27595D01*
X44785Y-27623D01*
X44814Y-27679D01*
X44814Y-27989D01*
X45095Y-27595D02*
X45095Y-28185D01*
X45095Y-27623D02*
X45151Y-27595D01*
X45264Y-27595D01*
X45320Y-27623D01*
X45348Y-27651D01*
X45376Y-27707D01*
X45376Y-27876D01*
X45348Y-27932D01*
X45320Y-27960D01*
X45264Y-27989D01*
X45151Y-27989D01*
X45095Y-27960D01*
X45882Y-27595D02*
X45882Y-27989D01*
X45629Y-27595D02*
X45629Y-27904D01*
X45657Y-27960D01*
X45714Y-27989D01*
X45798Y-27989D01*
X45854Y-27960D01*
X45882Y-27932D01*
X46079Y-27595D02*
X46304Y-27595D01*
X46163Y-27398D02*
X46163Y-27904D01*
X46192Y-27960D01*
X46248Y-27989D01*
X46304Y-27989D01*
X51554Y-27398D02*
X51667Y-27398D01*
X51723Y-27426D01*
X51779Y-27482D01*
X51807Y-27595D01*
X51807Y-27792D01*
X51779Y-27904D01*
X51723Y-27960D01*
X51667Y-27989D01*
X51554Y-27989D01*
X51498Y-27960D01*
X51442Y-27904D01*
X51414Y-27792D01*
X51414Y-27595D01*
X51442Y-27482D01*
X51498Y-27426D01*
X51554Y-27398D01*
X52314Y-27595D02*
X52314Y-27989D01*
X52061Y-27595D02*
X52061Y-27904D01*
X52089Y-27960D01*
X52145Y-27989D01*
X52229Y-27989D01*
X52285Y-27960D01*
X52314Y-27932D01*
X52510Y-27595D02*
X52735Y-27595D01*
X52595Y-27398D02*
X52595Y-27904D01*
X52623Y-27960D01*
X52679Y-27989D01*
X52735Y-27989D01*
X52932Y-27595D02*
X52932Y-28185D01*
X52932Y-27623D02*
X52989Y-27595D01*
X53101Y-27595D01*
X53157Y-27623D01*
X53185Y-27651D01*
X53214Y-27707D01*
X53214Y-27876D01*
X53185Y-27932D01*
X53157Y-27960D01*
X53101Y-27989D01*
X52989Y-27989D01*
X52932Y-27960D01*
X53720Y-27595D02*
X53720Y-27989D01*
X53467Y-27595D02*
X53467Y-27904D01*
X53495Y-27960D01*
X53551Y-27989D01*
X53635Y-27989D01*
X53692Y-27960D01*
X53720Y-27932D01*
X53917Y-27595D02*
X54142Y-27595D01*
X54001Y-27398D02*
X54001Y-27904D01*
X54029Y-27960D01*
X54085Y-27989D01*
X54142Y-27989D01*
G54D12*
X58750Y-13500D02*
X39250Y-13500D01*
X39250Y-13500D02*
X39250Y-35000D01*
X39250Y-35000D02*
X58750Y-35000D01*
X58750Y-35000D02*
X58750Y-13500D01*
X39000Y-35000D02*
X39000Y-13500D01*
X19500Y-35000D02*
X39000Y-35000D01*
X19500Y-13500D02*
X19500Y-35000D01*
X39000Y-13500D02*
X19500Y-13500D01*
G54D11*
X31804Y-27398D02*
X31917Y-27398D01*
X31973Y-27426D01*
X32029Y-27482D01*
X32057Y-27595D01*
X32057Y-27792D01*
X32029Y-27904D01*
X31973Y-27960D01*
X31917Y-27989D01*
X31804Y-27989D01*
X31748Y-27960D01*
X31692Y-27904D01*
X31664Y-27792D01*
X31664Y-27595D01*
X31692Y-27482D01*
X31748Y-27426D01*
X31804Y-27398D01*
X32564Y-27595D02*
X32564Y-27989D01*
X32311Y-27595D02*
X32311Y-27904D01*
X32339Y-27960D01*
X32395Y-27989D01*
X32479Y-27989D01*
X32535Y-27960D01*
X32564Y-27932D01*
X32760Y-27595D02*
X32985Y-27595D01*
X32845Y-27398D02*
X32845Y-27904D01*
X32873Y-27960D01*
X32929Y-27989D01*
X32985Y-27989D01*
X33182Y-27595D02*
X33182Y-28185D01*
X33182Y-27623D02*
X33239Y-27595D01*
X33351Y-27595D01*
X33407Y-27623D01*
X33435Y-27651D01*
X33464Y-27707D01*
X33464Y-27876D01*
X33435Y-27932D01*
X33407Y-27960D01*
X33351Y-27989D01*
X33239Y-27989D01*
X33182Y-27960D01*
X33970Y-27595D02*
X33970Y-27989D01*
X33717Y-27595D02*
X33717Y-27904D01*
X33745Y-27960D01*
X33801Y-27989D01*
X33885Y-27989D01*
X33942Y-27960D01*
X33970Y-27932D01*
X34167Y-27595D02*
X34392Y-27595D01*
X34251Y-27398D02*
X34251Y-27904D01*
X34279Y-27960D01*
X34335Y-27989D01*
X34392Y-27989D01*
X24529Y-27989D02*
X24529Y-27398D01*
X24811Y-27595D02*
X24811Y-27989D01*
X24811Y-27651D02*
X24839Y-27623D01*
X24895Y-27595D01*
X24979Y-27595D01*
X25035Y-27623D01*
X25064Y-27679D01*
X25064Y-27989D01*
X25345Y-27595D02*
X25345Y-28185D01*
X25345Y-27623D02*
X25401Y-27595D01*
X25514Y-27595D01*
X25570Y-27623D01*
X25598Y-27651D01*
X25626Y-27707D01*
X25626Y-27876D01*
X25598Y-27932D01*
X25570Y-27960D01*
X25514Y-27989D01*
X25401Y-27989D01*
X25345Y-27960D01*
X26132Y-27595D02*
X26132Y-27989D01*
X25879Y-27595D02*
X25879Y-27904D01*
X25907Y-27960D01*
X25964Y-27989D01*
X26048Y-27989D01*
X26104Y-27960D01*
X26132Y-27932D01*
X26329Y-27595D02*
X26554Y-27595D01*
X26413Y-27398D02*
X26413Y-27904D01*
X26442Y-27960D01*
X26498Y-27989D01*
X26554Y-27989D01*
G54D12*
X19500Y-35500D02*
X19500Y-52500D01*
X52000Y-35500D02*
X19500Y-35500D01*
X52000Y-52500D02*
X52000Y-35500D01*
X19500Y-52500D02*
X52000Y-52500D01*
X35827Y-51469D02*
X35812Y-51499D01*
X35812Y-51544D01*
X35827Y-51589D01*
X35857Y-51619D01*
X35887Y-51634D01*
X35947Y-51649D01*
X35992Y-51649D01*
X36052Y-51634D01*
X36082Y-51619D01*
X36112Y-51589D01*
X36127Y-51544D01*
X36127Y-51514D01*
X36112Y-51469D01*
X36097Y-51454D01*
X35992Y-51454D01*
X35992Y-51514D01*
X36127Y-51319D02*
X35812Y-51319D01*
X36127Y-51139D01*
X35812Y-51139D01*
X36127Y-50989D02*
X35812Y-50989D01*
X35812Y-50914D01*
X35827Y-50869D01*
X35857Y-50839D01*
X35887Y-50824D01*
X35947Y-50809D01*
X35992Y-50809D01*
X36052Y-50824D01*
X36082Y-50839D01*
X36112Y-50869D01*
X36127Y-50914D01*
X36127Y-50989D01*
X34962Y-51754D02*
X34977Y-51709D01*
X34992Y-51694D01*
X35022Y-51679D01*
X35067Y-51679D01*
X35097Y-51694D01*
X35112Y-51709D01*
X35127Y-51739D01*
X35127Y-51859D01*
X34812Y-51859D01*
X34812Y-51754D01*
X34827Y-51724D01*
X34842Y-51709D01*
X34872Y-51694D01*
X34902Y-51694D01*
X34932Y-51709D01*
X34947Y-51724D01*
X34962Y-51754D01*
X34962Y-51859D01*
X34812Y-51484D02*
X34812Y-51424D01*
X34827Y-51394D01*
X34857Y-51364D01*
X34917Y-51349D01*
X35022Y-51349D01*
X35082Y-51364D01*
X35112Y-51394D01*
X35127Y-51424D01*
X35127Y-51484D01*
X35112Y-51514D01*
X35082Y-51544D01*
X35022Y-51559D01*
X34917Y-51559D01*
X34857Y-51544D01*
X34827Y-51514D01*
X34812Y-51484D01*
X34962Y-51109D02*
X34962Y-51214D01*
X35127Y-51214D02*
X34812Y-51214D01*
X34812Y-51064D01*
X34962Y-50839D02*
X34962Y-50944D01*
X35127Y-50944D02*
X34812Y-50944D01*
X34812Y-50794D01*
X33827Y-52127D02*
X33722Y-51977D01*
X33647Y-52127D02*
X33647Y-51812D01*
X33767Y-51812D01*
X33797Y-51827D01*
X33812Y-51842D01*
X33827Y-51872D01*
X33827Y-51917D01*
X33812Y-51947D01*
X33797Y-51962D01*
X33767Y-51977D01*
X33647Y-51977D01*
X33947Y-52112D02*
X33992Y-52127D01*
X34067Y-52127D01*
X34097Y-52112D01*
X34112Y-52097D01*
X34127Y-52067D01*
X34127Y-52037D01*
X34112Y-52007D01*
X34097Y-51992D01*
X34067Y-51977D01*
X34007Y-51962D01*
X33977Y-51947D01*
X33962Y-51932D01*
X33947Y-51902D01*
X33947Y-51872D01*
X33962Y-51842D01*
X33977Y-51827D01*
X34007Y-51812D01*
X34082Y-51812D01*
X34127Y-51827D01*
X34217Y-51812D02*
X34397Y-51812D01*
X34307Y-52127D02*
X34307Y-51812D01*
X32962Y-51357D02*
X32962Y-51239D01*
X33127Y-51188D02*
X33127Y-51357D01*
X32812Y-51357D01*
X32812Y-51188D01*
X33127Y-51036D02*
X32812Y-51036D01*
X33127Y-50834D01*
X32812Y-50834D01*
X32127Y-51319D02*
X31812Y-51319D01*
X31812Y-51244D01*
X31827Y-51199D01*
X31857Y-51169D01*
X31887Y-51154D01*
X31947Y-51139D01*
X31992Y-51139D01*
X32052Y-51154D01*
X32082Y-51169D01*
X32112Y-51199D01*
X32127Y-51244D01*
X32127Y-51319D01*
X31812Y-50944D02*
X31812Y-50884D01*
X31827Y-50854D01*
X31857Y-50824D01*
X31917Y-50809D01*
X32022Y-50809D01*
X32082Y-50824D01*
X32112Y-50854D01*
X32127Y-50884D01*
X32127Y-50944D01*
X32112Y-50974D01*
X32082Y-51004D01*
X32022Y-51019D01*
X31917Y-51019D01*
X31857Y-51004D01*
X31827Y-50974D01*
X31812Y-50944D01*
X31097Y-51379D02*
X31112Y-51394D01*
X31127Y-51439D01*
X31127Y-51469D01*
X31112Y-51514D01*
X31082Y-51544D01*
X31052Y-51559D01*
X30992Y-51574D01*
X30947Y-51574D01*
X30887Y-51559D01*
X30857Y-51544D01*
X30827Y-51514D01*
X30812Y-51469D01*
X30812Y-51439D01*
X30827Y-51394D01*
X30842Y-51379D01*
X31127Y-51094D02*
X31127Y-51244D01*
X30812Y-51244D01*
X31127Y-50989D02*
X30812Y-50989D01*
X31127Y-50809D02*
X30947Y-50944D01*
X30812Y-50809D02*
X30992Y-50989D01*
X30007Y-52084D02*
X30007Y-51844D01*
X30127Y-51964D02*
X29887Y-51964D01*
X29812Y-51724D02*
X29812Y-51529D01*
X29932Y-51634D01*
X29932Y-51589D01*
X29947Y-51559D01*
X29962Y-51544D01*
X29992Y-51529D01*
X30067Y-51529D01*
X30097Y-51544D01*
X30112Y-51559D01*
X30127Y-51589D01*
X30127Y-51679D01*
X30112Y-51709D01*
X30097Y-51724D01*
X30097Y-51394D02*
X30112Y-51379D01*
X30127Y-51394D01*
X30112Y-51409D01*
X30097Y-51394D01*
X30127Y-51394D01*
X29812Y-51274D02*
X29812Y-51079D01*
X29932Y-51184D01*
X29932Y-51139D01*
X29947Y-51109D01*
X29962Y-51094D01*
X29992Y-51079D01*
X30067Y-51079D01*
X30097Y-51094D01*
X30112Y-51109D01*
X30127Y-51139D01*
X30127Y-51229D01*
X30112Y-51259D01*
X30097Y-51274D01*
X29812Y-50989D02*
X30127Y-50884D01*
X29812Y-50779D01*
G54D13*
X44250Y-21300D02*
X44250Y-22200D01*
X44250Y-22200D02*
X43750Y-22200D01*
X43750Y-22200D02*
X43750Y-21300D01*
X43750Y-21300D02*
X44250Y-21300D01*
X40650Y-24000D02*
X42350Y-24000D01*
X40650Y-26450D02*
X42350Y-26450D01*
X42350Y-26450D02*
X42350Y-23550D01*
X42350Y-23550D02*
X40650Y-23550D01*
X40650Y-23550D02*
X40650Y-26450D01*
X42550Y-20400D02*
X42550Y-21650D01*
X42550Y-21650D02*
X43250Y-21650D01*
X43250Y-21650D02*
X43250Y-20400D01*
X40750Y-20400D02*
X40750Y-21650D01*
X40750Y-21650D02*
X41450Y-21650D01*
X41450Y-21650D02*
X41450Y-20400D01*
X43350Y-18000D02*
X43350Y-20400D01*
X43350Y-20400D02*
X40650Y-20400D01*
X40650Y-20400D02*
X40650Y-17300D01*
X40650Y-17250D02*
X43350Y-17250D01*
X43350Y-17300D02*
X43350Y-18000D01*
X48250Y-21050D02*
X48250Y-21950D01*
X48250Y-21950D02*
X47750Y-21950D01*
X47750Y-21950D02*
X47750Y-21050D01*
X47750Y-21050D02*
X48250Y-21050D01*
X46750Y-21050D02*
X46750Y-21950D01*
X46750Y-21950D02*
X46250Y-21950D01*
X46250Y-21950D02*
X46250Y-21050D01*
X46250Y-21050D02*
X46750Y-21050D01*
X49750Y-21050D02*
X49750Y-21950D01*
X49750Y-21950D02*
X49250Y-21950D01*
X49250Y-21950D02*
X49250Y-21050D01*
X49250Y-21050D02*
X49750Y-21050D01*
X52800Y-26500D02*
X53700Y-26500D01*
X53700Y-26500D02*
X53700Y-27000D01*
X53700Y-27000D02*
X52800Y-27000D01*
X52800Y-27000D02*
X52800Y-26500D01*
X41250Y-14700D02*
X41250Y-13800D01*
X41250Y-13800D02*
X41750Y-13800D01*
X41750Y-13800D02*
X41750Y-14700D01*
X41750Y-14700D02*
X41250Y-14700D01*
X51250Y-21050D02*
X51250Y-21950D01*
X51250Y-21950D02*
X50750Y-21950D01*
X50750Y-21950D02*
X50750Y-21050D01*
X50750Y-21050D02*
X51250Y-21050D01*
X41250Y-16200D02*
X41250Y-15300D01*
X41250Y-15300D02*
X41750Y-15300D01*
X41750Y-15300D02*
X41750Y-16200D01*
X41750Y-16200D02*
X41250Y-16200D01*
X42000Y-14700D02*
X42000Y-13800D01*
X42000Y-13800D02*
X42500Y-13800D01*
X42500Y-13800D02*
X42500Y-14700D01*
X42500Y-14700D02*
X42000Y-14700D01*
X52750Y-21050D02*
X52750Y-21950D01*
X52750Y-21950D02*
X52250Y-21950D01*
X52250Y-21950D02*
X52250Y-21050D01*
X52250Y-21050D02*
X52750Y-21050D01*
X54250Y-21050D02*
X54250Y-21950D01*
X54250Y-21950D02*
X53750Y-21950D01*
X53750Y-21950D02*
X53750Y-21050D01*
X53750Y-21050D02*
X54250Y-21050D01*
X55750Y-21050D02*
X55750Y-21950D01*
X55750Y-21950D02*
X55250Y-21950D01*
X55250Y-21950D02*
X55250Y-21050D01*
X55250Y-21050D02*
X55750Y-21050D01*
X40250Y-21300D02*
X40250Y-22200D01*
X40250Y-22200D02*
X39750Y-22200D01*
X39750Y-22200D02*
X39750Y-21300D01*
X39750Y-21300D02*
X40250Y-21300D01*
X57250Y-21050D02*
X57250Y-21950D01*
X57250Y-21950D02*
X56750Y-21950D01*
X56750Y-21950D02*
X56750Y-21050D01*
X56750Y-21050D02*
X57250Y-21050D01*
X42000Y-16200D02*
X42000Y-15300D01*
X42000Y-15300D02*
X42500Y-15300D01*
X42500Y-15300D02*
X42500Y-16200D01*
X42500Y-16200D02*
X42000Y-16200D01*
X45050Y-19500D02*
X45950Y-19500D01*
X45950Y-19500D02*
X45950Y-18850D01*
X45050Y-18150D02*
X45050Y-17500D01*
X45050Y-17500D02*
X45950Y-17500D01*
X45950Y-17500D02*
X45950Y-18150D01*
X45050Y-18850D02*
X45050Y-19500D01*
X55550Y-19500D02*
X56450Y-19500D01*
X56450Y-19500D02*
X56450Y-18850D01*
X55550Y-18150D02*
X55550Y-17500D01*
X55550Y-17500D02*
X56450Y-17500D01*
X56450Y-17500D02*
X56450Y-18150D01*
X55550Y-18850D02*
X55550Y-19500D01*
X54050Y-19500D02*
X54950Y-19500D01*
X54950Y-19500D02*
X54950Y-18850D01*
X54050Y-18150D02*
X54050Y-17500D01*
X54050Y-17500D02*
X54950Y-17500D01*
X54950Y-17500D02*
X54950Y-18150D01*
X54050Y-18850D02*
X54050Y-19500D01*
X52550Y-19500D02*
X53450Y-19500D01*
X53450Y-19500D02*
X53450Y-18850D01*
X52550Y-18150D02*
X52550Y-17500D01*
X52550Y-17500D02*
X53450Y-17500D01*
X53450Y-17500D02*
X53450Y-18150D01*
X52550Y-18850D02*
X52550Y-19500D01*
X46550Y-19500D02*
X47450Y-19500D01*
X47450Y-19500D02*
X47450Y-18850D01*
X46550Y-18150D02*
X46550Y-17500D01*
X46550Y-17500D02*
X47450Y-17500D01*
X47450Y-17500D02*
X47450Y-18150D01*
X46550Y-18850D02*
X46550Y-19500D01*
X49550Y-19500D02*
X50450Y-19500D01*
X50450Y-19500D02*
X50450Y-18850D01*
X49550Y-18150D02*
X49550Y-17500D01*
X49550Y-17500D02*
X50450Y-17500D01*
X50450Y-17500D02*
X50450Y-18150D01*
X49550Y-18850D02*
X49550Y-19500D01*
X48050Y-19500D02*
X48950Y-19500D01*
X48950Y-19500D02*
X48950Y-18850D01*
X48050Y-18150D02*
X48050Y-17500D01*
X48050Y-17500D02*
X48950Y-17500D01*
X48950Y-17500D02*
X48950Y-18150D01*
X48050Y-18850D02*
X48050Y-19500D01*
X51050Y-19500D02*
X51950Y-19500D01*
X51950Y-19500D02*
X51950Y-18850D01*
X51050Y-18150D02*
X51050Y-17500D01*
X51050Y-17500D02*
X51950Y-17500D01*
X51950Y-17500D02*
X51950Y-18150D01*
X51050Y-18850D02*
X51050Y-19500D01*
G54D14*
X52900Y-25950D02*
X48600Y-25950D01*
X48600Y-25950D02*
X48600Y-24550D01*
X48600Y-24550D02*
X52900Y-24550D01*
X52900Y-24550D02*
X52900Y-25950D01*
X52900Y-25450D02*
X52600Y-25450D01*
X52600Y-25450D02*
X52600Y-25050D01*
X52600Y-25050D02*
X52900Y-25050D01*
G54D13*
X41896Y-22185D02*
X41896Y-22815D01*
X41856Y-22815D02*
X41856Y-22185D01*
X42801Y-22815D02*
X41699Y-22815D01*
X41699Y-22815D02*
X41699Y-22185D01*
X41699Y-22185D02*
X42801Y-22185D01*
X42801Y-22185D02*
X42801Y-22815D01*
X49875Y-20225D02*
X49875Y-19965D01*
X50625Y-20225D02*
X50625Y-19965D01*
X50250Y-20775D02*
X50250Y-21035D01*
X50840Y-20775D02*
X49660Y-20775D01*
X49660Y-20775D02*
X49660Y-20225D01*
X49660Y-20225D02*
X50840Y-20225D01*
X50840Y-20225D02*
X50840Y-20775D01*
X51375Y-20225D02*
X51375Y-19965D01*
X52125Y-20225D02*
X52125Y-19965D01*
X51750Y-20775D02*
X51750Y-21035D01*
X52340Y-20775D02*
X51160Y-20775D01*
X51160Y-20775D02*
X51160Y-20225D01*
X51160Y-20225D02*
X52340Y-20225D01*
X52340Y-20225D02*
X52340Y-20775D01*
X52875Y-20225D02*
X52875Y-19965D01*
X53625Y-20225D02*
X53625Y-19965D01*
X53250Y-20775D02*
X53250Y-21035D01*
X53840Y-20775D02*
X52660Y-20775D01*
X52660Y-20775D02*
X52660Y-20225D01*
X52660Y-20225D02*
X53840Y-20225D01*
X53840Y-20225D02*
X53840Y-20775D01*
X45375Y-20225D02*
X45375Y-19965D01*
X46125Y-20225D02*
X46125Y-19965D01*
X45750Y-20775D02*
X45750Y-21035D01*
X46340Y-20775D02*
X45160Y-20775D01*
X45160Y-20775D02*
X45160Y-20225D01*
X45160Y-20225D02*
X46340Y-20225D01*
X46340Y-20225D02*
X46340Y-20775D01*
X54375Y-20225D02*
X54375Y-19965D01*
X55125Y-20225D02*
X55125Y-19965D01*
X54750Y-20775D02*
X54750Y-21035D01*
X55340Y-20775D02*
X54160Y-20775D01*
X54160Y-20775D02*
X54160Y-20225D01*
X54160Y-20225D02*
X55340Y-20225D01*
X55340Y-20225D02*
X55340Y-20775D01*
X48375Y-20225D02*
X48375Y-19965D01*
X49125Y-20225D02*
X49125Y-19965D01*
X48750Y-20775D02*
X48750Y-21035D01*
X49340Y-20775D02*
X48160Y-20775D01*
X48160Y-20775D02*
X48160Y-20225D01*
X48160Y-20225D02*
X49340Y-20225D01*
X49340Y-20225D02*
X49340Y-20775D01*
X55875Y-20225D02*
X55875Y-19965D01*
X56625Y-20225D02*
X56625Y-19965D01*
X56250Y-20775D02*
X56250Y-21035D01*
X56840Y-20775D02*
X55660Y-20775D01*
X55660Y-20775D02*
X55660Y-20225D01*
X55660Y-20225D02*
X56840Y-20225D01*
X56840Y-20225D02*
X56840Y-20775D01*
X46875Y-20225D02*
X46875Y-19965D01*
X47625Y-20225D02*
X47625Y-19965D01*
X47250Y-20775D02*
X47250Y-21035D01*
X47840Y-20775D02*
X46660Y-20775D01*
X46660Y-20775D02*
X46660Y-20225D01*
X46660Y-20225D02*
X47840Y-20225D01*
X47840Y-20225D02*
X47840Y-20775D01*
X43150Y-24000D02*
X44850Y-24000D01*
X43150Y-26450D02*
X44850Y-26450D01*
X44850Y-26450D02*
X44850Y-23550D01*
X44850Y-23550D02*
X43150Y-23550D01*
X43150Y-23550D02*
X43150Y-26450D01*
G54D12*
X43100Y-13850D02*
X43000Y-13850D01*
X43000Y-13850D02*
X43000Y-16250D01*
X55000Y-16250D02*
X55000Y-13850D01*
X55000Y-13850D02*
X43100Y-13850D01*
X52400Y-16250D02*
X52400Y-14450D01*
X52400Y-14450D02*
X52900Y-13950D01*
X52900Y-13950D02*
X53700Y-13950D01*
X53700Y-13950D02*
X54200Y-14450D01*
X54200Y-14450D02*
X54200Y-16250D01*
X43800Y-16250D02*
X43800Y-14450D01*
X43800Y-14450D02*
X44300Y-13950D01*
X44300Y-13950D02*
X45200Y-13950D01*
X45200Y-13950D02*
X45700Y-14450D01*
X45700Y-14450D02*
X45700Y-16250D01*
X43000Y-16250D02*
X55000Y-16250D01*
X58613Y-14400D02*
G75*
G03X58613Y-14400I-763J0D01*
G74*
G01*
X58611Y-34100D02*
G75*
G03X58611Y-34100I-761J0D01*
G74*
G01*
X40913Y-34100D02*
G75*
G03X40913Y-34100I-763J0D01*
G74*
G01*
X40940Y-14400D02*
G75*
G03X40940Y-14400I-790J0D01*
G74*
G01*
G54D13*
X48125Y-28275D02*
X48125Y-34475D01*
X41875Y-34475D02*
X41875Y-28275D01*
X41875Y-34475D02*
X48125Y-34475D01*
X41875Y-28275D02*
X48125Y-28275D01*
X56125Y-34475D02*
X56125Y-28275D01*
X49875Y-28275D02*
X49875Y-34475D01*
X49875Y-34475D02*
X56125Y-34475D01*
X56125Y-28275D02*
X49875Y-28275D01*
X36375Y-34475D02*
X36375Y-28275D01*
X30125Y-28275D02*
X30125Y-34475D01*
X30125Y-34475D02*
X36375Y-34475D01*
X36375Y-28275D02*
X30125Y-28275D01*
X28375Y-28275D02*
X28375Y-34475D01*
X22125Y-34475D02*
X22125Y-28275D01*
X22125Y-34475D02*
X28375Y-34475D01*
X22125Y-28275D02*
X28375Y-28275D01*
G54D12*
X21190Y-14400D02*
G75*
G03X21190Y-14400I-790J0D01*
G74*
G01*
X21163Y-34100D02*
G75*
G03X21163Y-34100I-763J0D01*
G74*
G01*
X38861Y-34100D02*
G75*
G03X38861Y-34100I-761J0D01*
G74*
G01*
X38863Y-14400D02*
G75*
G03X38863Y-14400I-763J0D01*
G74*
G01*
X23350Y-13850D02*
X23250Y-13850D01*
X23250Y-13850D02*
X23250Y-16250D01*
X35250Y-16250D02*
X35250Y-13850D01*
X35250Y-13850D02*
X23350Y-13850D01*
X32650Y-16250D02*
X32650Y-14450D01*
X32650Y-14450D02*
X33150Y-13950D01*
X33150Y-13950D02*
X33950Y-13950D01*
X33950Y-13950D02*
X34450Y-14450D01*
X34450Y-14450D02*
X34450Y-16250D01*
X24050Y-16250D02*
X24050Y-14450D01*
X24050Y-14450D02*
X24550Y-13950D01*
X24550Y-13950D02*
X25450Y-13950D01*
X25450Y-13950D02*
X25950Y-14450D01*
X25950Y-14450D02*
X25950Y-16250D01*
X23250Y-16250D02*
X35250Y-16250D01*
G54D13*
X23400Y-24000D02*
X25100Y-24000D01*
X23400Y-26450D02*
X25100Y-26450D01*
X25100Y-26450D02*
X25100Y-23550D01*
X25100Y-23550D02*
X23400Y-23550D01*
X23400Y-23550D02*
X23400Y-26450D01*
X27125Y-20225D02*
X27125Y-19965D01*
X27875Y-20225D02*
X27875Y-19965D01*
X27500Y-20775D02*
X27500Y-21035D01*
X28090Y-20775D02*
X26910Y-20775D01*
X26910Y-20775D02*
X26910Y-20225D01*
X26910Y-20225D02*
X28090Y-20225D01*
X28090Y-20225D02*
X28090Y-20775D01*
X36125Y-20225D02*
X36125Y-19965D01*
X36875Y-20225D02*
X36875Y-19965D01*
X36500Y-20775D02*
X36500Y-21035D01*
X37090Y-20775D02*
X35910Y-20775D01*
X35910Y-20775D02*
X35910Y-20225D01*
X35910Y-20225D02*
X37090Y-20225D01*
X37090Y-20225D02*
X37090Y-20775D01*
X28625Y-20225D02*
X28625Y-19965D01*
X29375Y-20225D02*
X29375Y-19965D01*
X29000Y-20775D02*
X29000Y-21035D01*
X29590Y-20775D02*
X28410Y-20775D01*
X28410Y-20775D02*
X28410Y-20225D01*
X28410Y-20225D02*
X29590Y-20225D01*
X29590Y-20225D02*
X29590Y-20775D01*
X34625Y-20225D02*
X34625Y-19965D01*
X35375Y-20225D02*
X35375Y-19965D01*
X35000Y-20775D02*
X35000Y-21035D01*
X35590Y-20775D02*
X34410Y-20775D01*
X34410Y-20775D02*
X34410Y-20225D01*
X34410Y-20225D02*
X35590Y-20225D01*
X35590Y-20225D02*
X35590Y-20775D01*
X25625Y-20225D02*
X25625Y-19965D01*
X26375Y-20225D02*
X26375Y-19965D01*
X26000Y-20775D02*
X26000Y-21035D01*
X26590Y-20775D02*
X25410Y-20775D01*
X25410Y-20775D02*
X25410Y-20225D01*
X25410Y-20225D02*
X26590Y-20225D01*
X26590Y-20225D02*
X26590Y-20775D01*
X33125Y-20225D02*
X33125Y-19965D01*
X33875Y-20225D02*
X33875Y-19965D01*
X33500Y-20775D02*
X33500Y-21035D01*
X34090Y-20775D02*
X32910Y-20775D01*
X32910Y-20775D02*
X32910Y-20225D01*
X32910Y-20225D02*
X34090Y-20225D01*
X34090Y-20225D02*
X34090Y-20775D01*
X31625Y-20225D02*
X31625Y-19965D01*
X32375Y-20225D02*
X32375Y-19965D01*
X32000Y-20775D02*
X32000Y-21035D01*
X32590Y-20775D02*
X31410Y-20775D01*
X31410Y-20775D02*
X31410Y-20225D01*
X31410Y-20225D02*
X32590Y-20225D01*
X32590Y-20225D02*
X32590Y-20775D01*
X30125Y-20225D02*
X30125Y-19965D01*
X30875Y-20225D02*
X30875Y-19965D01*
X30500Y-20775D02*
X30500Y-21035D01*
X31090Y-20775D02*
X29910Y-20775D01*
X29910Y-20775D02*
X29910Y-20225D01*
X29910Y-20225D02*
X31090Y-20225D01*
X31090Y-20225D02*
X31090Y-20775D01*
X22146Y-22185D02*
X22146Y-22815D01*
X22106Y-22815D02*
X22106Y-22185D01*
X23051Y-22815D02*
X21949Y-22815D01*
X21949Y-22815D02*
X21949Y-22185D01*
X21949Y-22185D02*
X23051Y-22185D01*
X23051Y-22185D02*
X23051Y-22815D01*
G54D14*
X33150Y-25950D02*
X28850Y-25950D01*
X28850Y-25950D02*
X28850Y-24550D01*
X28850Y-24550D02*
X33150Y-24550D01*
X33150Y-24550D02*
X33150Y-25950D01*
X33150Y-25450D02*
X32850Y-25450D01*
X32850Y-25450D02*
X32850Y-25050D01*
X32850Y-25050D02*
X33150Y-25050D01*
G54D13*
X31300Y-19500D02*
X32200Y-19500D01*
X32200Y-19500D02*
X32200Y-18850D01*
X31300Y-18150D02*
X31300Y-17500D01*
X31300Y-17500D02*
X32200Y-17500D01*
X32200Y-17500D02*
X32200Y-18150D01*
X31300Y-18850D02*
X31300Y-19500D01*
X28300Y-19500D02*
X29200Y-19500D01*
X29200Y-19500D02*
X29200Y-18850D01*
X28300Y-18150D02*
X28300Y-17500D01*
X28300Y-17500D02*
X29200Y-17500D01*
X29200Y-17500D02*
X29200Y-18150D01*
X28300Y-18850D02*
X28300Y-19500D01*
X29800Y-19500D02*
X30700Y-19500D01*
X30700Y-19500D02*
X30700Y-18850D01*
X29800Y-18150D02*
X29800Y-17500D01*
X29800Y-17500D02*
X30700Y-17500D01*
X30700Y-17500D02*
X30700Y-18150D01*
X29800Y-18850D02*
X29800Y-19500D01*
X26800Y-19500D02*
X27700Y-19500D01*
X27700Y-19500D02*
X27700Y-18850D01*
X26800Y-18150D02*
X26800Y-17500D01*
X26800Y-17500D02*
X27700Y-17500D01*
X27700Y-17500D02*
X27700Y-18150D01*
X26800Y-18850D02*
X26800Y-19500D01*
X32800Y-19500D02*
X33700Y-19500D01*
X33700Y-19500D02*
X33700Y-18850D01*
X32800Y-18150D02*
X32800Y-17500D01*
X32800Y-17500D02*
X33700Y-17500D01*
X33700Y-17500D02*
X33700Y-18150D01*
X32800Y-18850D02*
X32800Y-19500D01*
X34300Y-19500D02*
X35200Y-19500D01*
X35200Y-19500D02*
X35200Y-18850D01*
X34300Y-18150D02*
X34300Y-17500D01*
X34300Y-17500D02*
X35200Y-17500D01*
X35200Y-17500D02*
X35200Y-18150D01*
X34300Y-18850D02*
X34300Y-19500D01*
X35800Y-19500D02*
X36700Y-19500D01*
X36700Y-19500D02*
X36700Y-18850D01*
X35800Y-18150D02*
X35800Y-17500D01*
X35800Y-17500D02*
X36700Y-17500D01*
X36700Y-17500D02*
X36700Y-18150D01*
X35800Y-18850D02*
X35800Y-19500D01*
X25300Y-19500D02*
X26200Y-19500D01*
X26200Y-19500D02*
X26200Y-18850D01*
X25300Y-18150D02*
X25300Y-17500D01*
X25300Y-17500D02*
X26200Y-17500D01*
X26200Y-17500D02*
X26200Y-18150D01*
X25300Y-18850D02*
X25300Y-19500D01*
X22250Y-16200D02*
X22250Y-15300D01*
X22250Y-15300D02*
X22750Y-15300D01*
X22750Y-15300D02*
X22750Y-16200D01*
X22750Y-16200D02*
X22250Y-16200D01*
X37500Y-21050D02*
X37500Y-21950D01*
X37500Y-21950D02*
X37000Y-21950D01*
X37000Y-21950D02*
X37000Y-21050D01*
X37000Y-21050D02*
X37500Y-21050D01*
X20500Y-21300D02*
X20500Y-22200D01*
X20500Y-22200D02*
X20000Y-22200D01*
X20000Y-22200D02*
X20000Y-21300D01*
X20000Y-21300D02*
X20500Y-21300D01*
X36000Y-21050D02*
X36000Y-21950D01*
X36000Y-21950D02*
X35500Y-21950D01*
X35500Y-21950D02*
X35500Y-21050D01*
X35500Y-21050D02*
X36000Y-21050D01*
X34500Y-21050D02*
X34500Y-21950D01*
X34500Y-21950D02*
X34000Y-21950D01*
X34000Y-21950D02*
X34000Y-21050D01*
X34000Y-21050D02*
X34500Y-21050D01*
X33000Y-21050D02*
X33000Y-21950D01*
X33000Y-21950D02*
X32500Y-21950D01*
X32500Y-21950D02*
X32500Y-21050D01*
X32500Y-21050D02*
X33000Y-21050D01*
X22250Y-14700D02*
X22250Y-13800D01*
X22250Y-13800D02*
X22750Y-13800D01*
X22750Y-13800D02*
X22750Y-14700D01*
X22750Y-14700D02*
X22250Y-14700D01*
X21500Y-16200D02*
X21500Y-15300D01*
X21500Y-15300D02*
X22000Y-15300D01*
X22000Y-15300D02*
X22000Y-16200D01*
X22000Y-16200D02*
X21500Y-16200D01*
X31500Y-21050D02*
X31500Y-21950D01*
X31500Y-21950D02*
X31000Y-21950D01*
X31000Y-21950D02*
X31000Y-21050D01*
X31000Y-21050D02*
X31500Y-21050D01*
X21500Y-14700D02*
X21500Y-13800D01*
X21500Y-13800D02*
X22000Y-13800D01*
X22000Y-13800D02*
X22000Y-14700D01*
X22000Y-14700D02*
X21500Y-14700D01*
X33050Y-26500D02*
X33950Y-26500D01*
X33950Y-26500D02*
X33950Y-27000D01*
X33950Y-27000D02*
X33050Y-27000D01*
X33050Y-27000D02*
X33050Y-26500D01*
X30000Y-21050D02*
X30000Y-21950D01*
X30000Y-21950D02*
X29500Y-21950D01*
X29500Y-21950D02*
X29500Y-21050D01*
X29500Y-21050D02*
X30000Y-21050D01*
X27000Y-21050D02*
X27000Y-21950D01*
X27000Y-21950D02*
X26500Y-21950D01*
X26500Y-21950D02*
X26500Y-21050D01*
X26500Y-21050D02*
X27000Y-21050D01*
X28500Y-21050D02*
X28500Y-21950D01*
X28500Y-21950D02*
X28000Y-21950D01*
X28000Y-21950D02*
X28000Y-21050D01*
X28000Y-21050D02*
X28500Y-21050D01*
X22800Y-20400D02*
X22800Y-21650D01*
X22800Y-21650D02*
X23500Y-21650D01*
X23500Y-21650D02*
X23500Y-20400D01*
X21000Y-20400D02*
X21000Y-21650D01*
X21000Y-21650D02*
X21700Y-21650D01*
X21700Y-21650D02*
X21700Y-20400D01*
X23600Y-18000D02*
X23600Y-20400D01*
X23600Y-20400D02*
X20900Y-20400D01*
X20900Y-20400D02*
X20900Y-17300D01*
X20900Y-17250D02*
X23600Y-17250D01*
X23600Y-17300D02*
X23600Y-18000D01*
X20900Y-24000D02*
X22600Y-24000D01*
X20900Y-26450D02*
X22600Y-26450D01*
X22600Y-26450D02*
X22600Y-23550D01*
X22600Y-23550D02*
X20900Y-23550D01*
X20900Y-23550D02*
X20900Y-26450D01*
X24500Y-21300D02*
X24500Y-22200D01*
X24500Y-22200D02*
X24000Y-22200D01*
X24000Y-22200D02*
X24000Y-21300D01*
X24000Y-21300D02*
X24500Y-21300D01*
G54D15*
X39394Y-48831D02*
X39394Y-50169D01*
X38606Y-48831D02*
X38606Y-50169D01*
X37740Y-50169D02*
X37740Y-48831D01*
X37740Y-48831D02*
X40260Y-48831D01*
X40260Y-48831D02*
X40260Y-50169D01*
X40260Y-50169D02*
X37740Y-50169D01*
G54D13*
X48250Y-46500D02*
G75*
G03X48250Y-46500I-1000J0D01*
G74*
G01*
X45750Y-48000D02*
X45750Y-45000D01*
X45750Y-45000D02*
X48750Y-45000D01*
X48750Y-45000D02*
X48750Y-48000D01*
X45750Y-48000D02*
X48750Y-48000D01*
X34975Y-48875D02*
X34715Y-48875D01*
X34975Y-48125D02*
X34715Y-48125D01*
X35525Y-48500D02*
X35785Y-48500D01*
X35525Y-47910D02*
X35525Y-49090D01*
X35525Y-49090D02*
X34975Y-49090D01*
X34975Y-49090D02*
X34975Y-47910D01*
X34975Y-47910D02*
X35525Y-47910D01*
X42854Y-39815D02*
X42854Y-39185D01*
X42894Y-39185D02*
X42894Y-39815D01*
X41949Y-39185D02*
X43051Y-39185D01*
X43051Y-39185D02*
X43051Y-39815D01*
X43051Y-39815D02*
X41949Y-39815D01*
X41949Y-39815D02*
X41949Y-39185D01*
X42550Y-44050D02*
X42550Y-44000D01*
X42550Y-44000D02*
X40450Y-44000D01*
X40450Y-45500D02*
X42550Y-45500D01*
X42550Y-45500D02*
X42550Y-44050D01*
X42550Y-44950D02*
X42350Y-44950D01*
X42350Y-44950D02*
X42350Y-44550D01*
X42350Y-44550D02*
X42550Y-44550D01*
X40450Y-45500D02*
X40450Y-44000D01*
X39050Y-44050D02*
X39050Y-44000D01*
X39050Y-44000D02*
X36950Y-44000D01*
X36950Y-45500D02*
X39050Y-45500D01*
X39050Y-45500D02*
X39050Y-44050D01*
X39050Y-44950D02*
X38850Y-44950D01*
X38850Y-44950D02*
X38850Y-44550D01*
X38850Y-44550D02*
X39050Y-44550D01*
X36950Y-45500D02*
X36950Y-44000D01*
X27700Y-49000D02*
X26800Y-49000D01*
X26800Y-49000D02*
X26800Y-49650D01*
X27700Y-50350D02*
X27700Y-51000D01*
X27700Y-51000D02*
X26800Y-51000D01*
X26800Y-51000D02*
X26800Y-50350D01*
X27700Y-49650D02*
X27700Y-49000D01*
X47550Y-42750D02*
X48450Y-42750D01*
X48450Y-42750D02*
X48450Y-43250D01*
X48450Y-43250D02*
X47550Y-43250D01*
X47550Y-43250D02*
X47550Y-42750D01*
X41750Y-47300D02*
X41750Y-48200D01*
X41750Y-48200D02*
X41250Y-48200D01*
X41250Y-48200D02*
X41250Y-47300D01*
X41250Y-47300D02*
X41750Y-47300D01*
X39000Y-46800D02*
X39000Y-47700D01*
X39000Y-47700D02*
X38500Y-47700D01*
X38500Y-47700D02*
X38500Y-46800D01*
X38500Y-46800D02*
X39000Y-46800D01*
X43500Y-47300D02*
X43500Y-48200D01*
X43500Y-48200D02*
X43000Y-48200D01*
X43000Y-48200D02*
X43000Y-47300D01*
X43000Y-47300D02*
X43500Y-47300D01*
X46300Y-42750D02*
X47200Y-42750D01*
X47200Y-42750D02*
X47200Y-43250D01*
X47200Y-43250D02*
X46300Y-43250D01*
X46300Y-43250D02*
X46300Y-42750D01*
X39000Y-42300D02*
X39000Y-43200D01*
X39000Y-43200D02*
X38500Y-43200D01*
X38500Y-43200D02*
X38500Y-42300D01*
X38500Y-42300D02*
X39000Y-42300D01*
X35500Y-46800D02*
X35500Y-47700D01*
X35500Y-47700D02*
X35000Y-47700D01*
X35000Y-47700D02*
X35000Y-46800D01*
X35000Y-46800D02*
X35500Y-46800D01*
X40000Y-44300D02*
X40000Y-45200D01*
X40000Y-45200D02*
X39500Y-45200D01*
X39500Y-45200D02*
X39500Y-44300D01*
X39500Y-44300D02*
X40000Y-44300D01*
X40000Y-45550D02*
X40000Y-46450D01*
X40000Y-46450D02*
X39500Y-46450D01*
X39500Y-46450D02*
X39500Y-45550D01*
X39500Y-45550D02*
X40000Y-45550D01*
X42500Y-47300D02*
X42500Y-48200D01*
X42500Y-48200D02*
X42000Y-48200D01*
X42000Y-48200D02*
X42000Y-47300D01*
X42000Y-47300D02*
X42500Y-47300D01*
X33550Y-50750D02*
X34450Y-50750D01*
X34450Y-50750D02*
X34450Y-51250D01*
X34450Y-51250D02*
X33550Y-51250D01*
X33550Y-51250D02*
X33550Y-50750D01*
X34750Y-46800D02*
X34750Y-47700D01*
X34750Y-47700D02*
X34250Y-47700D01*
X34250Y-47700D02*
X34250Y-46800D01*
X34250Y-46800D02*
X34750Y-46800D01*
X44200Y-37500D02*
X43300Y-37500D01*
X43300Y-37500D02*
X43300Y-37000D01*
X43300Y-37000D02*
X44200Y-37000D01*
X44200Y-37000D02*
X44200Y-37500D01*
X37500Y-42300D02*
X37500Y-43200D01*
X37500Y-43200D02*
X37000Y-43200D01*
X37000Y-43200D02*
X37000Y-42300D01*
X37000Y-42300D02*
X37500Y-42300D01*
X47550Y-42000D02*
X48450Y-42000D01*
X48450Y-42000D02*
X48450Y-42500D01*
X48450Y-42500D02*
X47550Y-42500D01*
X47550Y-42500D02*
X47550Y-42000D01*
X46300Y-42000D02*
X47200Y-42000D01*
X47200Y-42000D02*
X47200Y-42500D01*
X47200Y-42500D02*
X46300Y-42500D01*
X46300Y-42500D02*
X46300Y-42000D01*
X47550Y-41250D02*
X48450Y-41250D01*
X48450Y-41250D02*
X48450Y-41750D01*
X48450Y-41750D02*
X47550Y-41750D01*
X47550Y-41750D02*
X47550Y-41250D01*
X46300Y-41250D02*
X47200Y-41250D01*
X47200Y-41250D02*
X47200Y-41750D01*
X47200Y-41750D02*
X46300Y-41750D01*
X46300Y-41750D02*
X46300Y-41250D01*
X44200Y-41750D02*
X43300Y-41750D01*
X43300Y-41750D02*
X43300Y-41250D01*
X43300Y-41250D02*
X44200Y-41250D01*
X44200Y-41250D02*
X44200Y-41750D01*
X19537Y-41624D02*
X19537Y-47875D01*
X19537Y-47875D02*
X27962Y-47875D01*
X27962Y-47875D02*
X27962Y-41624D01*
X27962Y-41624D02*
X19537Y-41624D01*
G54D16*
X33750Y-41000D02*
X34250Y-41000D01*
X34250Y-41000D02*
X34250Y-39000D01*
X25250Y-39000D02*
X34250Y-39000D01*
X33750Y-41000D02*
X25250Y-41000D01*
X25250Y-41000D02*
X25250Y-39000D01*
G54D13*
X45350Y-40050D02*
X44100Y-40050D01*
X44100Y-40050D02*
X44100Y-40750D01*
X44100Y-40750D02*
X45350Y-40750D01*
X45350Y-38250D02*
X44100Y-38250D01*
X44100Y-38250D02*
X44100Y-38950D01*
X44100Y-38950D02*
X45350Y-38950D01*
X47750Y-40850D02*
X45350Y-40850D01*
X45350Y-40850D02*
X45350Y-38150D01*
X45350Y-38150D02*
X48450Y-38150D01*
X48500Y-38150D02*
X48500Y-40850D01*
X48450Y-40850D02*
X47750Y-40850D01*
X40000Y-39650D02*
X40000Y-41350D01*
X37550Y-39650D02*
X37550Y-41350D01*
X37550Y-41350D02*
X40450Y-41350D01*
X40450Y-41350D02*
X40450Y-39650D01*
X40450Y-39650D02*
X37550Y-39650D01*
X34900Y-38500D02*
X36600Y-38500D01*
X34900Y-40950D02*
X36600Y-40950D01*
X36600Y-40950D02*
X36600Y-38050D01*
X36600Y-38050D02*
X34900Y-38050D01*
X34900Y-38050D02*
X34900Y-40950D01*
G54D17*
X25250Y-36000D02*
X29250Y-36000D01*
X25250Y-35500D02*
X25250Y-38500D01*
X25250Y-38500D02*
X29250Y-38500D01*
X29250Y-38500D02*
X29250Y-35500D01*
X29250Y-35500D02*
X25250Y-35500D01*
G54D14*
X35400Y-45450D02*
X31600Y-45450D01*
X31600Y-45450D02*
X31600Y-43950D01*
X31600Y-43950D02*
X35400Y-43950D01*
X35400Y-43950D02*
X35400Y-45450D01*
X35400Y-44950D02*
X35100Y-44950D01*
X35100Y-44950D02*
X35100Y-44550D01*
X35100Y-44550D02*
X35400Y-44550D01*
G54D13*
X45350Y-50550D02*
X44100Y-50550D01*
X44100Y-50550D02*
X44100Y-51250D01*
X44100Y-51250D02*
X45350Y-51250D01*
X45350Y-48750D02*
X44100Y-48750D01*
X44100Y-48750D02*
X44100Y-49450D01*
X44100Y-49450D02*
X45350Y-49450D01*
X47750Y-51350D02*
X45350Y-51350D01*
X45350Y-51350D02*
X45350Y-48650D01*
X45350Y-48650D02*
X48450Y-48650D01*
X48500Y-48650D02*
X48500Y-51350D01*
X48450Y-51350D02*
X47750Y-51350D01*
G54D17*
X29500Y-49500D02*
X29500Y-49500D01*
X29500Y-49500D02*
X36500Y-49500D01*
X36500Y-49500D02*
X36500Y-50500D01*
X36500Y-50500D02*
X29500Y-50500D01*
X29500Y-50500D02*
X29500Y-49500D01*
X30500Y-50500D02*
X30500Y-50500D01*
X30500Y-50500D02*
X30500Y-49500D01*
G54D16*
X21900Y-37000D02*
G75*
G03X21900Y-37000I-900J0D01*
G74*
G01*
X51400Y-37000D02*
G75*
G03X51400Y-37000I-900J0D01*
G74*
G01*
X51400Y-51000D02*
G75*
G03X51400Y-51000I-900J0D01*
G74*
G01*
X21900Y-51000D02*
G75*
G03X21900Y-51000I-900J0D01*
G74*
G01*
G54D18*
X44561Y-21780D02*
X44571Y-21788D01*
X44580Y-21814D01*
X44580Y-21831D01*
X44571Y-21857D01*
X44552Y-21874D01*
X44533Y-21882D01*
X44495Y-21891D01*
X44466Y-21891D01*
X44428Y-21882D01*
X44409Y-21874D01*
X44390Y-21857D01*
X44380Y-21831D01*
X44380Y-21814D01*
X44390Y-21788D01*
X44400Y-21780D01*
X44380Y-21617D02*
X44380Y-21702D01*
X44476Y-21711D01*
X44466Y-21702D01*
X44457Y-21685D01*
X44457Y-21642D01*
X44466Y-21625D01*
X44476Y-21617D01*
X44495Y-21608D01*
X44542Y-21608D01*
X44561Y-21617D01*
X44571Y-21625D01*
X44580Y-21642D01*
X44580Y-21685D01*
X44571Y-21702D01*
X44561Y-21711D01*
G54D19*
X40485Y-25032D02*
X40495Y-25042D01*
X40504Y-25070D01*
X40504Y-25089D01*
X40495Y-25117D01*
X40476Y-25136D01*
X40457Y-25145D01*
X40420Y-25154D01*
X40392Y-25154D01*
X40354Y-25145D01*
X40335Y-25136D01*
X40317Y-25117D01*
X40307Y-25089D01*
X40307Y-25070D01*
X40317Y-25042D01*
X40326Y-25032D01*
X40326Y-24957D02*
X40317Y-24948D01*
X40307Y-24929D01*
X40307Y-24882D01*
X40317Y-24863D01*
X40326Y-24854D01*
X40345Y-24845D01*
X40364Y-24845D01*
X40392Y-24854D01*
X40504Y-24967D01*
X40504Y-24845D01*
G54D14*
X39702Y-18804D02*
X40107Y-18804D01*
X40154Y-18785D01*
X40178Y-18766D01*
X40202Y-18728D01*
X40202Y-18652D01*
X40178Y-18614D01*
X40154Y-18595D01*
X40107Y-18576D01*
X39702Y-18576D01*
X39750Y-18404D02*
X39726Y-18385D01*
X39702Y-18347D01*
X39702Y-18252D01*
X39726Y-18214D01*
X39750Y-18195D01*
X39797Y-18176D01*
X39845Y-18176D01*
X39916Y-18195D01*
X40202Y-18423D01*
X40202Y-18176D01*
G54D18*
X48580Y-22030D02*
X48485Y-22090D01*
X48580Y-22132D02*
X48380Y-22132D01*
X48380Y-22064D01*
X48390Y-22047D01*
X48400Y-22038D01*
X48419Y-22030D01*
X48447Y-22030D01*
X48466Y-22038D01*
X48476Y-22047D01*
X48485Y-22064D01*
X48485Y-22132D01*
X48580Y-21944D02*
X48580Y-21910D01*
X48571Y-21892D01*
X48561Y-21884D01*
X48533Y-21867D01*
X48495Y-21858D01*
X48419Y-21858D01*
X48400Y-21867D01*
X48390Y-21875D01*
X48380Y-21892D01*
X48380Y-21927D01*
X48390Y-21944D01*
X48400Y-21952D01*
X48419Y-21961D01*
X48466Y-21961D01*
X48485Y-21952D01*
X48495Y-21944D01*
X48504Y-21927D01*
X48504Y-21892D01*
X48495Y-21875D01*
X48485Y-21867D01*
X48466Y-21858D01*
X47080Y-22115D02*
X46985Y-22175D01*
X47080Y-22218D02*
X46880Y-22218D01*
X46880Y-22150D01*
X46890Y-22132D01*
X46900Y-22124D01*
X46919Y-22115D01*
X46947Y-22115D01*
X46966Y-22124D01*
X46976Y-22132D01*
X46985Y-22150D01*
X46985Y-22218D01*
X47080Y-21944D02*
X47080Y-22047D01*
X47080Y-21995D02*
X46880Y-21995D01*
X46909Y-22012D01*
X46928Y-22030D01*
X46938Y-22047D01*
X46880Y-21832D02*
X46880Y-21815D01*
X46890Y-21798D01*
X46900Y-21790D01*
X46919Y-21781D01*
X46957Y-21772D01*
X47004Y-21772D01*
X47042Y-21781D01*
X47061Y-21790D01*
X47071Y-21798D01*
X47080Y-21815D01*
X47080Y-21832D01*
X47071Y-21850D01*
X47061Y-21858D01*
X47042Y-21867D01*
X47004Y-21875D01*
X46957Y-21875D01*
X46919Y-21867D01*
X46900Y-21858D01*
X46890Y-21850D01*
X46880Y-21832D01*
X50080Y-22030D02*
X49985Y-22090D01*
X50080Y-22132D02*
X49880Y-22132D01*
X49880Y-22064D01*
X49890Y-22047D01*
X49900Y-22038D01*
X49919Y-22030D01*
X49947Y-22030D01*
X49966Y-22038D01*
X49976Y-22047D01*
X49985Y-22064D01*
X49985Y-22132D01*
X49966Y-21927D02*
X49957Y-21944D01*
X49947Y-21952D01*
X49928Y-21961D01*
X49919Y-21961D01*
X49900Y-21952D01*
X49890Y-21944D01*
X49880Y-21927D01*
X49880Y-21892D01*
X49890Y-21875D01*
X49900Y-21867D01*
X49919Y-21858D01*
X49928Y-21858D01*
X49947Y-21867D01*
X49957Y-21875D01*
X49966Y-21892D01*
X49966Y-21927D01*
X49976Y-21944D01*
X49985Y-21952D01*
X50004Y-21961D01*
X50042Y-21961D01*
X50061Y-21952D01*
X50071Y-21944D01*
X50080Y-21927D01*
X50080Y-21892D01*
X50071Y-21875D01*
X50061Y-21867D01*
X50042Y-21858D01*
X50004Y-21858D01*
X49985Y-21867D01*
X49976Y-21875D01*
X49966Y-21892D01*
X53220Y-26311D02*
X53211Y-26321D01*
X53185Y-26330D01*
X53168Y-26330D01*
X53142Y-26321D01*
X53125Y-26302D01*
X53117Y-26283D01*
X53108Y-26245D01*
X53108Y-26216D01*
X53117Y-26178D01*
X53125Y-26159D01*
X53142Y-26140D01*
X53168Y-26130D01*
X53185Y-26130D01*
X53211Y-26140D01*
X53220Y-26150D01*
X53391Y-26330D02*
X53288Y-26330D01*
X53340Y-26330D02*
X53340Y-26130D01*
X53322Y-26159D01*
X53305Y-26178D01*
X53288Y-26188D01*
X41580Y-15132D02*
X41380Y-15132D01*
X41380Y-15090D01*
X41390Y-15064D01*
X41409Y-15047D01*
X41428Y-15038D01*
X41466Y-15030D01*
X41495Y-15030D01*
X41533Y-15038D01*
X41552Y-15047D01*
X41571Y-15064D01*
X41580Y-15090D01*
X41580Y-15132D01*
X41580Y-14858D02*
X41580Y-14961D01*
X41580Y-14910D02*
X41380Y-14910D01*
X41409Y-14927D01*
X41428Y-14944D01*
X41438Y-14961D01*
X51580Y-22030D02*
X51485Y-22090D01*
X51580Y-22132D02*
X51380Y-22132D01*
X51380Y-22064D01*
X51390Y-22047D01*
X51400Y-22038D01*
X51419Y-22030D01*
X51447Y-22030D01*
X51466Y-22038D01*
X51476Y-22047D01*
X51485Y-22064D01*
X51485Y-22132D01*
X51380Y-21970D02*
X51380Y-21850D01*
X51580Y-21927D01*
X41080Y-15780D02*
X40985Y-15840D01*
X41080Y-15882D02*
X40880Y-15882D01*
X40880Y-15814D01*
X40890Y-15797D01*
X40900Y-15788D01*
X40919Y-15780D01*
X40947Y-15780D01*
X40966Y-15788D01*
X40976Y-15797D01*
X40985Y-15814D01*
X40985Y-15882D01*
X41080Y-15608D02*
X41080Y-15711D01*
X41080Y-15660D02*
X40880Y-15660D01*
X40909Y-15677D01*
X40928Y-15694D01*
X40938Y-15711D01*
X42330Y-15132D02*
X42130Y-15132D01*
X42130Y-15090D01*
X42140Y-15064D01*
X42159Y-15047D01*
X42178Y-15038D01*
X42216Y-15030D01*
X42245Y-15030D01*
X42283Y-15038D01*
X42302Y-15047D01*
X42321Y-15064D01*
X42330Y-15090D01*
X42330Y-15132D01*
X42130Y-14970D02*
X42130Y-14858D01*
X42207Y-14918D01*
X42207Y-14892D01*
X42216Y-14875D01*
X42226Y-14867D01*
X42245Y-14858D01*
X42292Y-14858D01*
X42311Y-14867D01*
X42321Y-14875D01*
X42330Y-14892D01*
X42330Y-14944D01*
X42321Y-14961D01*
X42311Y-14970D01*
X53080Y-22030D02*
X52985Y-22090D01*
X53080Y-22132D02*
X52880Y-22132D01*
X52880Y-22064D01*
X52890Y-22047D01*
X52900Y-22038D01*
X52919Y-22030D01*
X52947Y-22030D01*
X52966Y-22038D01*
X52976Y-22047D01*
X52985Y-22064D01*
X52985Y-22132D01*
X52880Y-21875D02*
X52880Y-21910D01*
X52890Y-21927D01*
X52900Y-21935D01*
X52928Y-21952D01*
X52966Y-21961D01*
X53042Y-21961D01*
X53061Y-21952D01*
X53071Y-21944D01*
X53080Y-21927D01*
X53080Y-21892D01*
X53071Y-21875D01*
X53061Y-21867D01*
X53042Y-21858D01*
X52995Y-21858D01*
X52976Y-21867D01*
X52966Y-21875D01*
X52957Y-21892D01*
X52957Y-21927D01*
X52966Y-21944D01*
X52976Y-21952D01*
X52995Y-21961D01*
X54580Y-22030D02*
X54485Y-22090D01*
X54580Y-22132D02*
X54380Y-22132D01*
X54380Y-22064D01*
X54390Y-22047D01*
X54400Y-22038D01*
X54419Y-22030D01*
X54447Y-22030D01*
X54466Y-22038D01*
X54476Y-22047D01*
X54485Y-22064D01*
X54485Y-22132D01*
X54380Y-21867D02*
X54380Y-21952D01*
X54476Y-21961D01*
X54466Y-21952D01*
X54457Y-21935D01*
X54457Y-21892D01*
X54466Y-21875D01*
X54476Y-21867D01*
X54495Y-21858D01*
X54542Y-21858D01*
X54561Y-21867D01*
X54571Y-21875D01*
X54580Y-21892D01*
X54580Y-21935D01*
X54571Y-21952D01*
X54561Y-21961D01*
X56080Y-22030D02*
X55985Y-22090D01*
X56080Y-22132D02*
X55880Y-22132D01*
X55880Y-22064D01*
X55890Y-22047D01*
X55900Y-22038D01*
X55919Y-22030D01*
X55947Y-22030D01*
X55966Y-22038D01*
X55976Y-22047D01*
X55985Y-22064D01*
X55985Y-22132D01*
X55947Y-21875D02*
X56080Y-21875D01*
X55871Y-21918D02*
X56014Y-21961D01*
X56014Y-21850D01*
X40561Y-21780D02*
X40571Y-21788D01*
X40580Y-21814D01*
X40580Y-21831D01*
X40571Y-21857D01*
X40552Y-21874D01*
X40533Y-21882D01*
X40495Y-21891D01*
X40466Y-21891D01*
X40428Y-21882D01*
X40409Y-21874D01*
X40390Y-21857D01*
X40380Y-21831D01*
X40380Y-21814D01*
X40390Y-21788D01*
X40400Y-21780D01*
X40380Y-21720D02*
X40380Y-21608D01*
X40457Y-21668D01*
X40457Y-21642D01*
X40466Y-21625D01*
X40476Y-21617D01*
X40495Y-21608D01*
X40542Y-21608D01*
X40561Y-21617D01*
X40571Y-21625D01*
X40580Y-21642D01*
X40580Y-21694D01*
X40571Y-21711D01*
X40561Y-21720D01*
X57580Y-22030D02*
X57485Y-22090D01*
X57580Y-22132D02*
X57380Y-22132D01*
X57380Y-22064D01*
X57390Y-22047D01*
X57400Y-22038D01*
X57419Y-22030D01*
X57447Y-22030D01*
X57466Y-22038D01*
X57476Y-22047D01*
X57485Y-22064D01*
X57485Y-22132D01*
X57380Y-21970D02*
X57380Y-21858D01*
X57457Y-21918D01*
X57457Y-21892D01*
X57466Y-21875D01*
X57476Y-21867D01*
X57495Y-21858D01*
X57542Y-21858D01*
X57561Y-21867D01*
X57571Y-21875D01*
X57580Y-21892D01*
X57580Y-21944D01*
X57571Y-21961D01*
X57561Y-21970D01*
X42830Y-15780D02*
X42735Y-15840D01*
X42830Y-15882D02*
X42630Y-15882D01*
X42630Y-15814D01*
X42640Y-15797D01*
X42650Y-15788D01*
X42669Y-15780D01*
X42697Y-15780D01*
X42716Y-15788D01*
X42726Y-15797D01*
X42735Y-15814D01*
X42735Y-15882D01*
X42650Y-15711D02*
X42640Y-15702D01*
X42630Y-15685D01*
X42630Y-15642D01*
X42640Y-15625D01*
X42650Y-15617D01*
X42669Y-15608D01*
X42688Y-15608D01*
X42716Y-15617D01*
X42830Y-15720D01*
X42830Y-15608D01*
G54D13*
X44871Y-18692D02*
X44728Y-18792D01*
X44871Y-18864D02*
X44571Y-18864D01*
X44571Y-18750D01*
X44585Y-18721D01*
X44600Y-18707D01*
X44628Y-18692D01*
X44671Y-18692D01*
X44700Y-18707D01*
X44714Y-18721D01*
X44728Y-18750D01*
X44728Y-18864D01*
X44871Y-18407D02*
X44871Y-18578D01*
X44871Y-18492D02*
X44571Y-18492D01*
X44614Y-18521D01*
X44642Y-18550D01*
X44657Y-18578D01*
X44700Y-18235D02*
X44685Y-18264D01*
X44671Y-18278D01*
X44642Y-18292D01*
X44628Y-18292D01*
X44600Y-18278D01*
X44585Y-18264D01*
X44571Y-18235D01*
X44571Y-18178D01*
X44585Y-18150D01*
X44600Y-18135D01*
X44628Y-18121D01*
X44642Y-18121D01*
X44671Y-18135D01*
X44685Y-18150D01*
X44700Y-18178D01*
X44700Y-18235D01*
X44714Y-18264D01*
X44728Y-18278D01*
X44757Y-18292D01*
X44814Y-18292D01*
X44842Y-18278D01*
X44857Y-18264D01*
X44871Y-18235D01*
X44871Y-18178D01*
X44857Y-18150D01*
X44842Y-18135D01*
X44814Y-18121D01*
X44757Y-18121D01*
X44728Y-18135D01*
X44714Y-18150D01*
X44700Y-18178D01*
X55371Y-18692D02*
X55228Y-18792D01*
X55371Y-18864D02*
X55071Y-18864D01*
X55071Y-18750D01*
X55085Y-18721D01*
X55100Y-18707D01*
X55128Y-18692D01*
X55171Y-18692D01*
X55200Y-18707D01*
X55214Y-18721D01*
X55228Y-18750D01*
X55228Y-18864D01*
X55371Y-18407D02*
X55371Y-18578D01*
X55371Y-18492D02*
X55071Y-18492D01*
X55114Y-18521D01*
X55142Y-18550D01*
X55157Y-18578D01*
X55371Y-18121D02*
X55371Y-18292D01*
X55371Y-18207D02*
X55071Y-18207D01*
X55114Y-18235D01*
X55142Y-18264D01*
X55157Y-18292D01*
X53871Y-18692D02*
X53728Y-18792D01*
X53871Y-18864D02*
X53571Y-18864D01*
X53571Y-18750D01*
X53585Y-18721D01*
X53600Y-18707D01*
X53628Y-18692D01*
X53671Y-18692D01*
X53700Y-18707D01*
X53714Y-18721D01*
X53728Y-18750D01*
X53728Y-18864D01*
X53871Y-18407D02*
X53871Y-18578D01*
X53871Y-18492D02*
X53571Y-18492D01*
X53614Y-18521D01*
X53642Y-18550D01*
X53657Y-18578D01*
X53600Y-18292D02*
X53585Y-18278D01*
X53571Y-18250D01*
X53571Y-18178D01*
X53585Y-18150D01*
X53600Y-18135D01*
X53628Y-18121D01*
X53657Y-18121D01*
X53700Y-18135D01*
X53871Y-18307D01*
X53871Y-18121D01*
X52371Y-18692D02*
X52228Y-18792D01*
X52371Y-18864D02*
X52071Y-18864D01*
X52071Y-18750D01*
X52085Y-18721D01*
X52100Y-18707D01*
X52128Y-18692D01*
X52171Y-18692D01*
X52200Y-18707D01*
X52214Y-18721D01*
X52228Y-18750D01*
X52228Y-18864D01*
X52371Y-18407D02*
X52371Y-18578D01*
X52371Y-18492D02*
X52071Y-18492D01*
X52114Y-18521D01*
X52142Y-18550D01*
X52157Y-18578D01*
X52071Y-18307D02*
X52071Y-18121D01*
X52185Y-18221D01*
X52185Y-18178D01*
X52200Y-18150D01*
X52214Y-18135D01*
X52242Y-18121D01*
X52314Y-18121D01*
X52342Y-18135D01*
X52357Y-18150D01*
X52371Y-18178D01*
X52371Y-18264D01*
X52357Y-18292D01*
X52342Y-18307D01*
X46371Y-18692D02*
X46228Y-18792D01*
X46371Y-18864D02*
X46071Y-18864D01*
X46071Y-18750D01*
X46085Y-18721D01*
X46100Y-18707D01*
X46128Y-18692D01*
X46171Y-18692D01*
X46200Y-18707D01*
X46214Y-18721D01*
X46228Y-18750D01*
X46228Y-18864D01*
X46371Y-18407D02*
X46371Y-18578D01*
X46371Y-18492D02*
X46071Y-18492D01*
X46114Y-18521D01*
X46142Y-18550D01*
X46157Y-18578D01*
X46071Y-18307D02*
X46071Y-18107D01*
X46371Y-18235D01*
X49371Y-18692D02*
X49228Y-18792D01*
X49371Y-18864D02*
X49071Y-18864D01*
X49071Y-18750D01*
X49085Y-18721D01*
X49100Y-18707D01*
X49128Y-18692D01*
X49171Y-18692D01*
X49200Y-18707D01*
X49214Y-18721D01*
X49228Y-18750D01*
X49228Y-18864D01*
X49371Y-18407D02*
X49371Y-18578D01*
X49371Y-18492D02*
X49071Y-18492D01*
X49114Y-18521D01*
X49142Y-18550D01*
X49157Y-18578D01*
X49071Y-18135D02*
X49071Y-18278D01*
X49214Y-18292D01*
X49200Y-18278D01*
X49185Y-18250D01*
X49185Y-18178D01*
X49200Y-18150D01*
X49214Y-18135D01*
X49242Y-18121D01*
X49314Y-18121D01*
X49342Y-18135D01*
X49357Y-18150D01*
X49371Y-18178D01*
X49371Y-18250D01*
X49357Y-18278D01*
X49342Y-18292D01*
X47871Y-18692D02*
X47728Y-18792D01*
X47871Y-18864D02*
X47571Y-18864D01*
X47571Y-18750D01*
X47585Y-18721D01*
X47600Y-18707D01*
X47628Y-18692D01*
X47671Y-18692D01*
X47700Y-18707D01*
X47714Y-18721D01*
X47728Y-18750D01*
X47728Y-18864D01*
X47871Y-18407D02*
X47871Y-18578D01*
X47871Y-18492D02*
X47571Y-18492D01*
X47614Y-18521D01*
X47642Y-18550D01*
X47657Y-18578D01*
X47571Y-18150D02*
X47571Y-18207D01*
X47585Y-18235D01*
X47600Y-18250D01*
X47642Y-18278D01*
X47700Y-18292D01*
X47814Y-18292D01*
X47842Y-18278D01*
X47857Y-18264D01*
X47871Y-18235D01*
X47871Y-18178D01*
X47857Y-18150D01*
X47842Y-18135D01*
X47814Y-18121D01*
X47742Y-18121D01*
X47714Y-18135D01*
X47700Y-18150D01*
X47685Y-18178D01*
X47685Y-18235D01*
X47700Y-18264D01*
X47714Y-18278D01*
X47742Y-18292D01*
X50871Y-18692D02*
X50728Y-18792D01*
X50871Y-18864D02*
X50571Y-18864D01*
X50571Y-18750D01*
X50585Y-18721D01*
X50600Y-18707D01*
X50628Y-18692D01*
X50671Y-18692D01*
X50700Y-18707D01*
X50714Y-18721D01*
X50728Y-18750D01*
X50728Y-18864D01*
X50871Y-18407D02*
X50871Y-18578D01*
X50871Y-18492D02*
X50571Y-18492D01*
X50614Y-18521D01*
X50642Y-18550D01*
X50657Y-18578D01*
X50671Y-18150D02*
X50871Y-18150D01*
X50557Y-18221D02*
X50771Y-18292D01*
X50771Y-18107D01*
X53157Y-24511D02*
X53157Y-24835D01*
X53178Y-24873D01*
X53200Y-24892D01*
X53242Y-24911D01*
X53328Y-24911D01*
X53371Y-24892D01*
X53392Y-24873D01*
X53414Y-24835D01*
X53414Y-24511D01*
X53864Y-24911D02*
X53607Y-24911D01*
X53735Y-24911D02*
X53735Y-24511D01*
X53692Y-24569D01*
X53650Y-24607D01*
X53607Y-24626D01*
G54D20*
X42134Y-23063D02*
X42134Y-22906D01*
X42171Y-22906D01*
X42193Y-22914D01*
X42208Y-22928D01*
X42216Y-22943D01*
X42223Y-22973D01*
X42223Y-22996D01*
X42216Y-23026D01*
X42208Y-23041D01*
X42193Y-23056D01*
X42171Y-23063D01*
X42134Y-23063D01*
X42283Y-22921D02*
X42291Y-22914D01*
X42306Y-22906D01*
X42343Y-22906D01*
X42358Y-22914D01*
X42365Y-22921D01*
X42373Y-22936D01*
X42373Y-22951D01*
X42365Y-22973D01*
X42276Y-23063D01*
X42373Y-23063D01*
G54D21*
X49568Y-20513D02*
X49562Y-20526D01*
X49549Y-20539D01*
X49529Y-20559D01*
X49522Y-20572D01*
X49522Y-20585D01*
X49555Y-20578D02*
X49549Y-20591D01*
X49536Y-20604D01*
X49509Y-20611D01*
X49463Y-20611D01*
X49437Y-20604D01*
X49424Y-20591D01*
X49417Y-20578D01*
X49417Y-20552D01*
X49424Y-20539D01*
X49437Y-20526D01*
X49463Y-20519D01*
X49509Y-20519D01*
X49536Y-20526D01*
X49549Y-20539D01*
X49555Y-20552D01*
X49555Y-20578D01*
X49417Y-20395D02*
X49417Y-20460D01*
X49483Y-20467D01*
X49477Y-20460D01*
X49470Y-20447D01*
X49470Y-20414D01*
X49477Y-20401D01*
X49483Y-20395D01*
X49496Y-20388D01*
X49529Y-20388D01*
X49542Y-20395D01*
X49549Y-20401D01*
X49555Y-20414D01*
X49555Y-20447D01*
X49549Y-20460D01*
X49542Y-20467D01*
X51068Y-20513D02*
X51062Y-20526D01*
X51049Y-20539D01*
X51029Y-20559D01*
X51022Y-20572D01*
X51022Y-20585D01*
X51055Y-20578D02*
X51049Y-20591D01*
X51036Y-20604D01*
X51009Y-20611D01*
X50963Y-20611D01*
X50937Y-20604D01*
X50924Y-20591D01*
X50917Y-20578D01*
X50917Y-20552D01*
X50924Y-20539D01*
X50937Y-20526D01*
X50963Y-20519D01*
X51009Y-20519D01*
X51036Y-20526D01*
X51049Y-20539D01*
X51055Y-20552D01*
X51055Y-20578D01*
X50963Y-20401D02*
X51055Y-20401D01*
X50911Y-20434D02*
X51009Y-20467D01*
X51009Y-20381D01*
X52568Y-20513D02*
X52562Y-20526D01*
X52549Y-20539D01*
X52529Y-20559D01*
X52522Y-20572D01*
X52522Y-20585D01*
X52555Y-20578D02*
X52549Y-20591D01*
X52536Y-20604D01*
X52509Y-20611D01*
X52463Y-20611D01*
X52437Y-20604D01*
X52424Y-20591D01*
X52417Y-20578D01*
X52417Y-20552D01*
X52424Y-20539D01*
X52437Y-20526D01*
X52463Y-20519D01*
X52509Y-20519D01*
X52536Y-20526D01*
X52549Y-20539D01*
X52555Y-20552D01*
X52555Y-20578D01*
X52417Y-20473D02*
X52417Y-20388D01*
X52470Y-20434D01*
X52470Y-20414D01*
X52477Y-20401D01*
X52483Y-20395D01*
X52496Y-20388D01*
X52529Y-20388D01*
X52542Y-20395D01*
X52549Y-20401D01*
X52555Y-20414D01*
X52555Y-20454D01*
X52549Y-20467D01*
X52542Y-20473D01*
X45068Y-20513D02*
X45062Y-20526D01*
X45049Y-20539D01*
X45029Y-20559D01*
X45022Y-20572D01*
X45022Y-20585D01*
X45055Y-20578D02*
X45049Y-20591D01*
X45036Y-20604D01*
X45009Y-20611D01*
X44963Y-20611D01*
X44937Y-20604D01*
X44924Y-20591D01*
X44917Y-20578D01*
X44917Y-20552D01*
X44924Y-20539D01*
X44937Y-20526D01*
X44963Y-20519D01*
X45009Y-20519D01*
X45036Y-20526D01*
X45049Y-20539D01*
X45055Y-20552D01*
X45055Y-20578D01*
X44977Y-20440D02*
X44970Y-20454D01*
X44963Y-20460D01*
X44950Y-20467D01*
X44944Y-20467D01*
X44931Y-20460D01*
X44924Y-20454D01*
X44917Y-20440D01*
X44917Y-20414D01*
X44924Y-20401D01*
X44931Y-20395D01*
X44944Y-20388D01*
X44950Y-20388D01*
X44963Y-20395D01*
X44970Y-20401D01*
X44977Y-20414D01*
X44977Y-20440D01*
X44983Y-20454D01*
X44990Y-20460D01*
X45003Y-20467D01*
X45029Y-20467D01*
X45042Y-20460D01*
X45049Y-20454D01*
X45055Y-20440D01*
X45055Y-20414D01*
X45049Y-20401D01*
X45042Y-20395D01*
X45029Y-20388D01*
X45003Y-20388D01*
X44990Y-20395D01*
X44983Y-20401D01*
X44977Y-20414D01*
X54068Y-20513D02*
X54062Y-20526D01*
X54049Y-20539D01*
X54029Y-20559D01*
X54022Y-20572D01*
X54022Y-20585D01*
X54055Y-20578D02*
X54049Y-20591D01*
X54036Y-20604D01*
X54009Y-20611D01*
X53963Y-20611D01*
X53937Y-20604D01*
X53924Y-20591D01*
X53917Y-20578D01*
X53917Y-20552D01*
X53924Y-20539D01*
X53937Y-20526D01*
X53963Y-20519D01*
X54009Y-20519D01*
X54036Y-20526D01*
X54049Y-20539D01*
X54055Y-20552D01*
X54055Y-20578D01*
X53931Y-20467D02*
X53924Y-20460D01*
X53917Y-20447D01*
X53917Y-20414D01*
X53924Y-20401D01*
X53931Y-20395D01*
X53944Y-20388D01*
X53957Y-20388D01*
X53977Y-20395D01*
X54055Y-20473D01*
X54055Y-20388D01*
X48068Y-20513D02*
X48062Y-20526D01*
X48049Y-20539D01*
X48029Y-20559D01*
X48022Y-20572D01*
X48022Y-20585D01*
X48055Y-20578D02*
X48049Y-20591D01*
X48036Y-20604D01*
X48009Y-20611D01*
X47963Y-20611D01*
X47937Y-20604D01*
X47924Y-20591D01*
X47917Y-20578D01*
X47917Y-20552D01*
X47924Y-20539D01*
X47937Y-20526D01*
X47963Y-20519D01*
X48009Y-20519D01*
X48036Y-20526D01*
X48049Y-20539D01*
X48055Y-20552D01*
X48055Y-20578D01*
X47917Y-20401D02*
X47917Y-20427D01*
X47924Y-20440D01*
X47931Y-20447D01*
X47950Y-20460D01*
X47977Y-20467D01*
X48029Y-20467D01*
X48042Y-20460D01*
X48049Y-20454D01*
X48055Y-20440D01*
X48055Y-20414D01*
X48049Y-20401D01*
X48042Y-20395D01*
X48029Y-20388D01*
X47996Y-20388D01*
X47983Y-20395D01*
X47977Y-20401D01*
X47970Y-20414D01*
X47970Y-20440D01*
X47977Y-20454D01*
X47983Y-20460D01*
X47996Y-20467D01*
X55568Y-20513D02*
X55562Y-20526D01*
X55549Y-20539D01*
X55529Y-20559D01*
X55522Y-20572D01*
X55522Y-20585D01*
X55555Y-20578D02*
X55549Y-20591D01*
X55536Y-20604D01*
X55509Y-20611D01*
X55463Y-20611D01*
X55437Y-20604D01*
X55424Y-20591D01*
X55417Y-20578D01*
X55417Y-20552D01*
X55424Y-20539D01*
X55437Y-20526D01*
X55463Y-20519D01*
X55509Y-20519D01*
X55536Y-20526D01*
X55549Y-20539D01*
X55555Y-20552D01*
X55555Y-20578D01*
X55555Y-20388D02*
X55555Y-20467D01*
X55555Y-20427D02*
X55417Y-20427D01*
X55437Y-20440D01*
X55450Y-20454D01*
X55457Y-20467D01*
X46568Y-20513D02*
X46562Y-20526D01*
X46549Y-20539D01*
X46529Y-20559D01*
X46522Y-20572D01*
X46522Y-20585D01*
X46555Y-20578D02*
X46549Y-20591D01*
X46536Y-20604D01*
X46509Y-20611D01*
X46463Y-20611D01*
X46437Y-20604D01*
X46424Y-20591D01*
X46417Y-20578D01*
X46417Y-20552D01*
X46424Y-20539D01*
X46437Y-20526D01*
X46463Y-20519D01*
X46509Y-20519D01*
X46536Y-20526D01*
X46549Y-20539D01*
X46555Y-20552D01*
X46555Y-20578D01*
X46417Y-20473D02*
X46417Y-20381D01*
X46555Y-20440D01*
G54D19*
X42985Y-25032D02*
X42995Y-25042D01*
X43004Y-25070D01*
X43004Y-25089D01*
X42995Y-25117D01*
X42976Y-25136D01*
X42957Y-25145D01*
X42920Y-25154D01*
X42892Y-25154D01*
X42854Y-25145D01*
X42835Y-25136D01*
X42817Y-25117D01*
X42807Y-25089D01*
X42807Y-25070D01*
X42817Y-25042D01*
X42826Y-25032D01*
X42873Y-24863D02*
X43004Y-24863D01*
X42798Y-24910D02*
X42939Y-24957D01*
X42939Y-24835D01*
G54D17*
X55288Y-15532D02*
X55288Y-14833D01*
X55526Y-14833D01*
X55586Y-14867D01*
X55616Y-14900D01*
X55645Y-14967D01*
X55645Y-15066D01*
X55616Y-15133D01*
X55586Y-15166D01*
X55526Y-15200D01*
X55288Y-15200D01*
X56241Y-15532D02*
X55883Y-15532D01*
X56062Y-15532D02*
X56062Y-14833D01*
X56002Y-14933D01*
X55943Y-15000D01*
X55883Y-15033D01*
X42300Y-27392D02*
X42300Y-27821D01*
X42271Y-27907D01*
X42214Y-27964D01*
X42128Y-27992D01*
X42071Y-27992D01*
X42900Y-27992D02*
X42557Y-27992D01*
X42728Y-27992D02*
X42728Y-27392D01*
X42671Y-27478D01*
X42614Y-27535D01*
X42557Y-27564D01*
X55050Y-27392D02*
X55050Y-27821D01*
X55021Y-27907D01*
X54964Y-27964D01*
X54878Y-27992D01*
X54821Y-27992D01*
X55307Y-27450D02*
X55335Y-27421D01*
X55392Y-27392D01*
X55535Y-27392D01*
X55592Y-27421D01*
X55621Y-27450D01*
X55650Y-27507D01*
X55650Y-27564D01*
X55621Y-27650D01*
X55278Y-27992D01*
X55650Y-27992D01*
X35300Y-27392D02*
X35300Y-27821D01*
X35271Y-27907D01*
X35214Y-27964D01*
X35128Y-27992D01*
X35071Y-27992D01*
X35557Y-27450D02*
X35585Y-27421D01*
X35642Y-27392D01*
X35785Y-27392D01*
X35842Y-27421D01*
X35871Y-27450D01*
X35900Y-27507D01*
X35900Y-27564D01*
X35871Y-27650D01*
X35528Y-27992D01*
X35900Y-27992D01*
X22550Y-27392D02*
X22550Y-27821D01*
X22521Y-27907D01*
X22464Y-27964D01*
X22378Y-27992D01*
X22321Y-27992D01*
X23150Y-27992D02*
X22807Y-27992D01*
X22978Y-27992D02*
X22978Y-27392D01*
X22921Y-27478D01*
X22864Y-27535D01*
X22807Y-27564D01*
X35538Y-15532D02*
X35538Y-14833D01*
X35776Y-14833D01*
X35836Y-14867D01*
X35866Y-14900D01*
X35895Y-14967D01*
X35895Y-15066D01*
X35866Y-15133D01*
X35836Y-15166D01*
X35776Y-15200D01*
X35538Y-15200D01*
X36491Y-15532D02*
X36133Y-15532D01*
X36312Y-15532D02*
X36312Y-14833D01*
X36252Y-14933D01*
X36193Y-15000D01*
X36133Y-15033D01*
G54D19*
X23235Y-25032D02*
X23245Y-25042D01*
X23254Y-25070D01*
X23254Y-25089D01*
X23245Y-25117D01*
X23226Y-25136D01*
X23207Y-25145D01*
X23170Y-25154D01*
X23142Y-25154D01*
X23104Y-25145D01*
X23085Y-25136D01*
X23067Y-25117D01*
X23057Y-25089D01*
X23057Y-25070D01*
X23067Y-25042D01*
X23076Y-25032D01*
X23123Y-24863D02*
X23254Y-24863D01*
X23048Y-24910D02*
X23189Y-24957D01*
X23189Y-24835D01*
G54D21*
X26818Y-20513D02*
X26812Y-20526D01*
X26799Y-20539D01*
X26779Y-20559D01*
X26772Y-20572D01*
X26772Y-20585D01*
X26805Y-20578D02*
X26799Y-20591D01*
X26786Y-20604D01*
X26759Y-20611D01*
X26713Y-20611D01*
X26687Y-20604D01*
X26674Y-20591D01*
X26667Y-20578D01*
X26667Y-20552D01*
X26674Y-20539D01*
X26687Y-20526D01*
X26713Y-20519D01*
X26759Y-20519D01*
X26786Y-20526D01*
X26799Y-20539D01*
X26805Y-20552D01*
X26805Y-20578D01*
X26667Y-20473D02*
X26667Y-20381D01*
X26805Y-20440D01*
X35818Y-20513D02*
X35812Y-20526D01*
X35799Y-20539D01*
X35779Y-20559D01*
X35772Y-20572D01*
X35772Y-20585D01*
X35805Y-20578D02*
X35799Y-20591D01*
X35786Y-20604D01*
X35759Y-20611D01*
X35713Y-20611D01*
X35687Y-20604D01*
X35674Y-20591D01*
X35667Y-20578D01*
X35667Y-20552D01*
X35674Y-20539D01*
X35687Y-20526D01*
X35713Y-20519D01*
X35759Y-20519D01*
X35786Y-20526D01*
X35799Y-20539D01*
X35805Y-20552D01*
X35805Y-20578D01*
X35805Y-20388D02*
X35805Y-20467D01*
X35805Y-20427D02*
X35667Y-20427D01*
X35687Y-20440D01*
X35700Y-20454D01*
X35707Y-20467D01*
X28318Y-20513D02*
X28312Y-20526D01*
X28299Y-20539D01*
X28279Y-20559D01*
X28272Y-20572D01*
X28272Y-20585D01*
X28305Y-20578D02*
X28299Y-20591D01*
X28286Y-20604D01*
X28259Y-20611D01*
X28213Y-20611D01*
X28187Y-20604D01*
X28174Y-20591D01*
X28167Y-20578D01*
X28167Y-20552D01*
X28174Y-20539D01*
X28187Y-20526D01*
X28213Y-20519D01*
X28259Y-20519D01*
X28286Y-20526D01*
X28299Y-20539D01*
X28305Y-20552D01*
X28305Y-20578D01*
X28167Y-20401D02*
X28167Y-20427D01*
X28174Y-20440D01*
X28181Y-20447D01*
X28200Y-20460D01*
X28227Y-20467D01*
X28279Y-20467D01*
X28292Y-20460D01*
X28299Y-20454D01*
X28305Y-20440D01*
X28305Y-20414D01*
X28299Y-20401D01*
X28292Y-20395D01*
X28279Y-20388D01*
X28246Y-20388D01*
X28233Y-20395D01*
X28227Y-20401D01*
X28220Y-20414D01*
X28220Y-20440D01*
X28227Y-20454D01*
X28233Y-20460D01*
X28246Y-20467D01*
X34318Y-20513D02*
X34312Y-20526D01*
X34299Y-20539D01*
X34279Y-20559D01*
X34272Y-20572D01*
X34272Y-20585D01*
X34305Y-20578D02*
X34299Y-20591D01*
X34286Y-20604D01*
X34259Y-20611D01*
X34213Y-20611D01*
X34187Y-20604D01*
X34174Y-20591D01*
X34167Y-20578D01*
X34167Y-20552D01*
X34174Y-20539D01*
X34187Y-20526D01*
X34213Y-20519D01*
X34259Y-20519D01*
X34286Y-20526D01*
X34299Y-20539D01*
X34305Y-20552D01*
X34305Y-20578D01*
X34181Y-20467D02*
X34174Y-20460D01*
X34167Y-20447D01*
X34167Y-20414D01*
X34174Y-20401D01*
X34181Y-20395D01*
X34194Y-20388D01*
X34207Y-20388D01*
X34227Y-20395D01*
X34305Y-20473D01*
X34305Y-20388D01*
X25318Y-20513D02*
X25312Y-20526D01*
X25299Y-20539D01*
X25279Y-20559D01*
X25272Y-20572D01*
X25272Y-20585D01*
X25305Y-20578D02*
X25299Y-20591D01*
X25286Y-20604D01*
X25259Y-20611D01*
X25213Y-20611D01*
X25187Y-20604D01*
X25174Y-20591D01*
X25167Y-20578D01*
X25167Y-20552D01*
X25174Y-20539D01*
X25187Y-20526D01*
X25213Y-20519D01*
X25259Y-20519D01*
X25286Y-20526D01*
X25299Y-20539D01*
X25305Y-20552D01*
X25305Y-20578D01*
X25227Y-20440D02*
X25220Y-20454D01*
X25213Y-20460D01*
X25200Y-20467D01*
X25194Y-20467D01*
X25181Y-20460D01*
X25174Y-20454D01*
X25167Y-20440D01*
X25167Y-20414D01*
X25174Y-20401D01*
X25181Y-20395D01*
X25194Y-20388D01*
X25200Y-20388D01*
X25213Y-20395D01*
X25220Y-20401D01*
X25227Y-20414D01*
X25227Y-20440D01*
X25233Y-20454D01*
X25240Y-20460D01*
X25253Y-20467D01*
X25279Y-20467D01*
X25292Y-20460D01*
X25299Y-20454D01*
X25305Y-20440D01*
X25305Y-20414D01*
X25299Y-20401D01*
X25292Y-20395D01*
X25279Y-20388D01*
X25253Y-20388D01*
X25240Y-20395D01*
X25233Y-20401D01*
X25227Y-20414D01*
X32818Y-20513D02*
X32812Y-20526D01*
X32799Y-20539D01*
X32779Y-20559D01*
X32772Y-20572D01*
X32772Y-20585D01*
X32805Y-20578D02*
X32799Y-20591D01*
X32786Y-20604D01*
X32759Y-20611D01*
X32713Y-20611D01*
X32687Y-20604D01*
X32674Y-20591D01*
X32667Y-20578D01*
X32667Y-20552D01*
X32674Y-20539D01*
X32687Y-20526D01*
X32713Y-20519D01*
X32759Y-20519D01*
X32786Y-20526D01*
X32799Y-20539D01*
X32805Y-20552D01*
X32805Y-20578D01*
X32667Y-20473D02*
X32667Y-20388D01*
X32720Y-20434D01*
X32720Y-20414D01*
X32727Y-20401D01*
X32733Y-20395D01*
X32746Y-20388D01*
X32779Y-20388D01*
X32792Y-20395D01*
X32799Y-20401D01*
X32805Y-20414D01*
X32805Y-20454D01*
X32799Y-20467D01*
X32792Y-20473D01*
X31318Y-20513D02*
X31312Y-20526D01*
X31299Y-20539D01*
X31279Y-20559D01*
X31272Y-20572D01*
X31272Y-20585D01*
X31305Y-20578D02*
X31299Y-20591D01*
X31286Y-20604D01*
X31259Y-20611D01*
X31213Y-20611D01*
X31187Y-20604D01*
X31174Y-20591D01*
X31167Y-20578D01*
X31167Y-20552D01*
X31174Y-20539D01*
X31187Y-20526D01*
X31213Y-20519D01*
X31259Y-20519D01*
X31286Y-20526D01*
X31299Y-20539D01*
X31305Y-20552D01*
X31305Y-20578D01*
X31213Y-20401D02*
X31305Y-20401D01*
X31161Y-20434D02*
X31259Y-20467D01*
X31259Y-20381D01*
X29818Y-20513D02*
X29812Y-20526D01*
X29799Y-20539D01*
X29779Y-20559D01*
X29772Y-20572D01*
X29772Y-20585D01*
X29805Y-20578D02*
X29799Y-20591D01*
X29786Y-20604D01*
X29759Y-20611D01*
X29713Y-20611D01*
X29687Y-20604D01*
X29674Y-20591D01*
X29667Y-20578D01*
X29667Y-20552D01*
X29674Y-20539D01*
X29687Y-20526D01*
X29713Y-20519D01*
X29759Y-20519D01*
X29786Y-20526D01*
X29799Y-20539D01*
X29805Y-20552D01*
X29805Y-20578D01*
X29667Y-20395D02*
X29667Y-20460D01*
X29733Y-20467D01*
X29727Y-20460D01*
X29720Y-20447D01*
X29720Y-20414D01*
X29727Y-20401D01*
X29733Y-20395D01*
X29746Y-20388D01*
X29779Y-20388D01*
X29792Y-20395D01*
X29799Y-20401D01*
X29805Y-20414D01*
X29805Y-20447D01*
X29799Y-20460D01*
X29792Y-20467D01*
G54D20*
X22384Y-23063D02*
X22384Y-22906D01*
X22421Y-22906D01*
X22443Y-22914D01*
X22458Y-22928D01*
X22466Y-22943D01*
X22473Y-22973D01*
X22473Y-22996D01*
X22466Y-23026D01*
X22458Y-23041D01*
X22443Y-23056D01*
X22421Y-23063D01*
X22384Y-23063D01*
X22533Y-22921D02*
X22541Y-22914D01*
X22556Y-22906D01*
X22593Y-22906D01*
X22608Y-22914D01*
X22615Y-22921D01*
X22623Y-22936D01*
X22623Y-22951D01*
X22615Y-22973D01*
X22526Y-23063D01*
X22623Y-23063D01*
G54D13*
X33407Y-24511D02*
X33407Y-24835D01*
X33428Y-24873D01*
X33450Y-24892D01*
X33492Y-24911D01*
X33578Y-24911D01*
X33621Y-24892D01*
X33642Y-24873D01*
X33664Y-24835D01*
X33664Y-24511D01*
X34114Y-24911D02*
X33857Y-24911D01*
X33985Y-24911D02*
X33985Y-24511D01*
X33942Y-24569D01*
X33900Y-24607D01*
X33857Y-24626D01*
X31121Y-18692D02*
X30978Y-18792D01*
X31121Y-18864D02*
X30821Y-18864D01*
X30821Y-18750D01*
X30835Y-18721D01*
X30850Y-18707D01*
X30878Y-18692D01*
X30921Y-18692D01*
X30950Y-18707D01*
X30964Y-18721D01*
X30978Y-18750D01*
X30978Y-18864D01*
X31121Y-18407D02*
X31121Y-18578D01*
X31121Y-18492D02*
X30821Y-18492D01*
X30864Y-18521D01*
X30892Y-18550D01*
X30907Y-18578D01*
X30921Y-18150D02*
X31121Y-18150D01*
X30807Y-18221D02*
X31021Y-18292D01*
X31021Y-18107D01*
X28121Y-18692D02*
X27978Y-18792D01*
X28121Y-18864D02*
X27821Y-18864D01*
X27821Y-18750D01*
X27835Y-18721D01*
X27850Y-18707D01*
X27878Y-18692D01*
X27921Y-18692D01*
X27950Y-18707D01*
X27964Y-18721D01*
X27978Y-18750D01*
X27978Y-18864D01*
X28121Y-18407D02*
X28121Y-18578D01*
X28121Y-18492D02*
X27821Y-18492D01*
X27864Y-18521D01*
X27892Y-18550D01*
X27907Y-18578D01*
X27821Y-18150D02*
X27821Y-18207D01*
X27835Y-18235D01*
X27850Y-18250D01*
X27892Y-18278D01*
X27950Y-18292D01*
X28064Y-18292D01*
X28092Y-18278D01*
X28107Y-18264D01*
X28121Y-18235D01*
X28121Y-18178D01*
X28107Y-18150D01*
X28092Y-18135D01*
X28064Y-18121D01*
X27992Y-18121D01*
X27964Y-18135D01*
X27950Y-18150D01*
X27935Y-18178D01*
X27935Y-18235D01*
X27950Y-18264D01*
X27964Y-18278D01*
X27992Y-18292D01*
X29621Y-18692D02*
X29478Y-18792D01*
X29621Y-18864D02*
X29321Y-18864D01*
X29321Y-18750D01*
X29335Y-18721D01*
X29350Y-18707D01*
X29378Y-18692D01*
X29421Y-18692D01*
X29450Y-18707D01*
X29464Y-18721D01*
X29478Y-18750D01*
X29478Y-18864D01*
X29621Y-18407D02*
X29621Y-18578D01*
X29621Y-18492D02*
X29321Y-18492D01*
X29364Y-18521D01*
X29392Y-18550D01*
X29407Y-18578D01*
X29321Y-18135D02*
X29321Y-18278D01*
X29464Y-18292D01*
X29450Y-18278D01*
X29435Y-18250D01*
X29435Y-18178D01*
X29450Y-18150D01*
X29464Y-18135D01*
X29492Y-18121D01*
X29564Y-18121D01*
X29592Y-18135D01*
X29607Y-18150D01*
X29621Y-18178D01*
X29621Y-18250D01*
X29607Y-18278D01*
X29592Y-18292D01*
X26621Y-18692D02*
X26478Y-18792D01*
X26621Y-18864D02*
X26321Y-18864D01*
X26321Y-18750D01*
X26335Y-18721D01*
X26350Y-18707D01*
X26378Y-18692D01*
X26421Y-18692D01*
X26450Y-18707D01*
X26464Y-18721D01*
X26478Y-18750D01*
X26478Y-18864D01*
X26621Y-18407D02*
X26621Y-18578D01*
X26621Y-18492D02*
X26321Y-18492D01*
X26364Y-18521D01*
X26392Y-18550D01*
X26407Y-18578D01*
X26321Y-18307D02*
X26321Y-18107D01*
X26621Y-18235D01*
X32621Y-18692D02*
X32478Y-18792D01*
X32621Y-18864D02*
X32321Y-18864D01*
X32321Y-18750D01*
X32335Y-18721D01*
X32350Y-18707D01*
X32378Y-18692D01*
X32421Y-18692D01*
X32450Y-18707D01*
X32464Y-18721D01*
X32478Y-18750D01*
X32478Y-18864D01*
X32621Y-18407D02*
X32621Y-18578D01*
X32621Y-18492D02*
X32321Y-18492D01*
X32364Y-18521D01*
X32392Y-18550D01*
X32407Y-18578D01*
X32321Y-18307D02*
X32321Y-18121D01*
X32435Y-18221D01*
X32435Y-18178D01*
X32450Y-18150D01*
X32464Y-18135D01*
X32492Y-18121D01*
X32564Y-18121D01*
X32592Y-18135D01*
X32607Y-18150D01*
X32621Y-18178D01*
X32621Y-18264D01*
X32607Y-18292D01*
X32592Y-18307D01*
X34121Y-18692D02*
X33978Y-18792D01*
X34121Y-18864D02*
X33821Y-18864D01*
X33821Y-18750D01*
X33835Y-18721D01*
X33850Y-18707D01*
X33878Y-18692D01*
X33921Y-18692D01*
X33950Y-18707D01*
X33964Y-18721D01*
X33978Y-18750D01*
X33978Y-18864D01*
X34121Y-18407D02*
X34121Y-18578D01*
X34121Y-18492D02*
X33821Y-18492D01*
X33864Y-18521D01*
X33892Y-18550D01*
X33907Y-18578D01*
X33850Y-18292D02*
X33835Y-18278D01*
X33821Y-18250D01*
X33821Y-18178D01*
X33835Y-18150D01*
X33850Y-18135D01*
X33878Y-18121D01*
X33907Y-18121D01*
X33950Y-18135D01*
X34121Y-18307D01*
X34121Y-18121D01*
X35621Y-18692D02*
X35478Y-18792D01*
X35621Y-18864D02*
X35321Y-18864D01*
X35321Y-18750D01*
X35335Y-18721D01*
X35350Y-18707D01*
X35378Y-18692D01*
X35421Y-18692D01*
X35450Y-18707D01*
X35464Y-18721D01*
X35478Y-18750D01*
X35478Y-18864D01*
X35621Y-18407D02*
X35621Y-18578D01*
X35621Y-18492D02*
X35321Y-18492D01*
X35364Y-18521D01*
X35392Y-18550D01*
X35407Y-18578D01*
X35621Y-18121D02*
X35621Y-18292D01*
X35621Y-18207D02*
X35321Y-18207D01*
X35364Y-18235D01*
X35392Y-18264D01*
X35407Y-18292D01*
X25121Y-18692D02*
X24978Y-18792D01*
X25121Y-18864D02*
X24821Y-18864D01*
X24821Y-18750D01*
X24835Y-18721D01*
X24850Y-18707D01*
X24878Y-18692D01*
X24921Y-18692D01*
X24950Y-18707D01*
X24964Y-18721D01*
X24978Y-18750D01*
X24978Y-18864D01*
X25121Y-18407D02*
X25121Y-18578D01*
X25121Y-18492D02*
X24821Y-18492D01*
X24864Y-18521D01*
X24892Y-18550D01*
X24907Y-18578D01*
X24950Y-18235D02*
X24935Y-18264D01*
X24921Y-18278D01*
X24892Y-18292D01*
X24878Y-18292D01*
X24850Y-18278D01*
X24835Y-18264D01*
X24821Y-18235D01*
X24821Y-18178D01*
X24835Y-18150D01*
X24850Y-18135D01*
X24878Y-18121D01*
X24892Y-18121D01*
X24921Y-18135D01*
X24935Y-18150D01*
X24950Y-18178D01*
X24950Y-18235D01*
X24964Y-18264D01*
X24978Y-18278D01*
X25007Y-18292D01*
X25064Y-18292D01*
X25092Y-18278D01*
X25107Y-18264D01*
X25121Y-18235D01*
X25121Y-18178D01*
X25107Y-18150D01*
X25092Y-18135D01*
X25064Y-18121D01*
X25007Y-18121D01*
X24978Y-18135D01*
X24964Y-18150D01*
X24950Y-18178D01*
G54D18*
X23080Y-15780D02*
X22985Y-15840D01*
X23080Y-15882D02*
X22880Y-15882D01*
X22880Y-15814D01*
X22890Y-15797D01*
X22900Y-15788D01*
X22919Y-15780D01*
X22947Y-15780D01*
X22966Y-15788D01*
X22976Y-15797D01*
X22985Y-15814D01*
X22985Y-15882D01*
X22900Y-15711D02*
X22890Y-15702D01*
X22880Y-15685D01*
X22880Y-15642D01*
X22890Y-15625D01*
X22900Y-15617D01*
X22919Y-15608D01*
X22938Y-15608D01*
X22966Y-15617D01*
X23080Y-15720D01*
X23080Y-15608D01*
X37830Y-22030D02*
X37735Y-22090D01*
X37830Y-22132D02*
X37630Y-22132D01*
X37630Y-22064D01*
X37640Y-22047D01*
X37650Y-22038D01*
X37669Y-22030D01*
X37697Y-22030D01*
X37716Y-22038D01*
X37726Y-22047D01*
X37735Y-22064D01*
X37735Y-22132D01*
X37630Y-21970D02*
X37630Y-21858D01*
X37707Y-21918D01*
X37707Y-21892D01*
X37716Y-21875D01*
X37726Y-21867D01*
X37745Y-21858D01*
X37792Y-21858D01*
X37811Y-21867D01*
X37821Y-21875D01*
X37830Y-21892D01*
X37830Y-21944D01*
X37821Y-21961D01*
X37811Y-21970D01*
X20811Y-21780D02*
X20821Y-21788D01*
X20830Y-21814D01*
X20830Y-21831D01*
X20821Y-21857D01*
X20802Y-21874D01*
X20783Y-21882D01*
X20745Y-21891D01*
X20716Y-21891D01*
X20678Y-21882D01*
X20659Y-21874D01*
X20640Y-21857D01*
X20630Y-21831D01*
X20630Y-21814D01*
X20640Y-21788D01*
X20650Y-21780D01*
X20630Y-21720D02*
X20630Y-21608D01*
X20707Y-21668D01*
X20707Y-21642D01*
X20716Y-21625D01*
X20726Y-21617D01*
X20745Y-21608D01*
X20792Y-21608D01*
X20811Y-21617D01*
X20821Y-21625D01*
X20830Y-21642D01*
X20830Y-21694D01*
X20821Y-21711D01*
X20811Y-21720D01*
X36330Y-22030D02*
X36235Y-22090D01*
X36330Y-22132D02*
X36130Y-22132D01*
X36130Y-22064D01*
X36140Y-22047D01*
X36150Y-22038D01*
X36169Y-22030D01*
X36197Y-22030D01*
X36216Y-22038D01*
X36226Y-22047D01*
X36235Y-22064D01*
X36235Y-22132D01*
X36197Y-21875D02*
X36330Y-21875D01*
X36121Y-21918D02*
X36264Y-21961D01*
X36264Y-21850D01*
X34830Y-22030D02*
X34735Y-22090D01*
X34830Y-22132D02*
X34630Y-22132D01*
X34630Y-22064D01*
X34640Y-22047D01*
X34650Y-22038D01*
X34669Y-22030D01*
X34697Y-22030D01*
X34716Y-22038D01*
X34726Y-22047D01*
X34735Y-22064D01*
X34735Y-22132D01*
X34630Y-21867D02*
X34630Y-21952D01*
X34726Y-21961D01*
X34716Y-21952D01*
X34707Y-21935D01*
X34707Y-21892D01*
X34716Y-21875D01*
X34726Y-21867D01*
X34745Y-21858D01*
X34792Y-21858D01*
X34811Y-21867D01*
X34821Y-21875D01*
X34830Y-21892D01*
X34830Y-21935D01*
X34821Y-21952D01*
X34811Y-21961D01*
X33330Y-22030D02*
X33235Y-22090D01*
X33330Y-22132D02*
X33130Y-22132D01*
X33130Y-22064D01*
X33140Y-22047D01*
X33150Y-22038D01*
X33169Y-22030D01*
X33197Y-22030D01*
X33216Y-22038D01*
X33226Y-22047D01*
X33235Y-22064D01*
X33235Y-22132D01*
X33130Y-21875D02*
X33130Y-21910D01*
X33140Y-21927D01*
X33150Y-21935D01*
X33178Y-21952D01*
X33216Y-21961D01*
X33292Y-21961D01*
X33311Y-21952D01*
X33321Y-21944D01*
X33330Y-21927D01*
X33330Y-21892D01*
X33321Y-21875D01*
X33311Y-21867D01*
X33292Y-21858D01*
X33245Y-21858D01*
X33226Y-21867D01*
X33216Y-21875D01*
X33207Y-21892D01*
X33207Y-21927D01*
X33216Y-21944D01*
X33226Y-21952D01*
X33245Y-21961D01*
X22580Y-15132D02*
X22380Y-15132D01*
X22380Y-15090D01*
X22390Y-15064D01*
X22409Y-15047D01*
X22428Y-15038D01*
X22466Y-15030D01*
X22495Y-15030D01*
X22533Y-15038D01*
X22552Y-15047D01*
X22571Y-15064D01*
X22580Y-15090D01*
X22580Y-15132D01*
X22380Y-14970D02*
X22380Y-14858D01*
X22457Y-14918D01*
X22457Y-14892D01*
X22466Y-14875D01*
X22476Y-14867D01*
X22495Y-14858D01*
X22542Y-14858D01*
X22561Y-14867D01*
X22571Y-14875D01*
X22580Y-14892D01*
X22580Y-14944D01*
X22571Y-14961D01*
X22561Y-14970D01*
X21330Y-15780D02*
X21235Y-15840D01*
X21330Y-15882D02*
X21130Y-15882D01*
X21130Y-15814D01*
X21140Y-15797D01*
X21150Y-15788D01*
X21169Y-15780D01*
X21197Y-15780D01*
X21216Y-15788D01*
X21226Y-15797D01*
X21235Y-15814D01*
X21235Y-15882D01*
X21330Y-15608D02*
X21330Y-15711D01*
X21330Y-15660D02*
X21130Y-15660D01*
X21159Y-15677D01*
X21178Y-15694D01*
X21188Y-15711D01*
X31830Y-22030D02*
X31735Y-22090D01*
X31830Y-22132D02*
X31630Y-22132D01*
X31630Y-22064D01*
X31640Y-22047D01*
X31650Y-22038D01*
X31669Y-22030D01*
X31697Y-22030D01*
X31716Y-22038D01*
X31726Y-22047D01*
X31735Y-22064D01*
X31735Y-22132D01*
X31630Y-21970D02*
X31630Y-21850D01*
X31830Y-21927D01*
X21830Y-15132D02*
X21630Y-15132D01*
X21630Y-15090D01*
X21640Y-15064D01*
X21659Y-15047D01*
X21678Y-15038D01*
X21716Y-15030D01*
X21745Y-15030D01*
X21783Y-15038D01*
X21802Y-15047D01*
X21821Y-15064D01*
X21830Y-15090D01*
X21830Y-15132D01*
X21830Y-14858D02*
X21830Y-14961D01*
X21830Y-14910D02*
X21630Y-14910D01*
X21659Y-14927D01*
X21678Y-14944D01*
X21688Y-14961D01*
X33470Y-26311D02*
X33461Y-26321D01*
X33435Y-26330D01*
X33418Y-26330D01*
X33392Y-26321D01*
X33375Y-26302D01*
X33367Y-26283D01*
X33358Y-26245D01*
X33358Y-26216D01*
X33367Y-26178D01*
X33375Y-26159D01*
X33392Y-26140D01*
X33418Y-26130D01*
X33435Y-26130D01*
X33461Y-26140D01*
X33470Y-26150D01*
X33641Y-26330D02*
X33538Y-26330D01*
X33590Y-26330D02*
X33590Y-26130D01*
X33572Y-26159D01*
X33555Y-26178D01*
X33538Y-26188D01*
X30330Y-22030D02*
X30235Y-22090D01*
X30330Y-22132D02*
X30130Y-22132D01*
X30130Y-22064D01*
X30140Y-22047D01*
X30150Y-22038D01*
X30169Y-22030D01*
X30197Y-22030D01*
X30216Y-22038D01*
X30226Y-22047D01*
X30235Y-22064D01*
X30235Y-22132D01*
X30216Y-21927D02*
X30207Y-21944D01*
X30197Y-21952D01*
X30178Y-21961D01*
X30169Y-21961D01*
X30150Y-21952D01*
X30140Y-21944D01*
X30130Y-21927D01*
X30130Y-21892D01*
X30140Y-21875D01*
X30150Y-21867D01*
X30169Y-21858D01*
X30178Y-21858D01*
X30197Y-21867D01*
X30207Y-21875D01*
X30216Y-21892D01*
X30216Y-21927D01*
X30226Y-21944D01*
X30235Y-21952D01*
X30254Y-21961D01*
X30292Y-21961D01*
X30311Y-21952D01*
X30321Y-21944D01*
X30330Y-21927D01*
X30330Y-21892D01*
X30321Y-21875D01*
X30311Y-21867D01*
X30292Y-21858D01*
X30254Y-21858D01*
X30235Y-21867D01*
X30226Y-21875D01*
X30216Y-21892D01*
X27330Y-22115D02*
X27235Y-22175D01*
X27330Y-22218D02*
X27130Y-22218D01*
X27130Y-22150D01*
X27140Y-22132D01*
X27150Y-22124D01*
X27169Y-22115D01*
X27197Y-22115D01*
X27216Y-22124D01*
X27226Y-22132D01*
X27235Y-22150D01*
X27235Y-22218D01*
X27330Y-21944D02*
X27330Y-22047D01*
X27330Y-21995D02*
X27130Y-21995D01*
X27159Y-22012D01*
X27178Y-22030D01*
X27188Y-22047D01*
X27130Y-21832D02*
X27130Y-21815D01*
X27140Y-21798D01*
X27150Y-21790D01*
X27169Y-21781D01*
X27207Y-21772D01*
X27254Y-21772D01*
X27292Y-21781D01*
X27311Y-21790D01*
X27321Y-21798D01*
X27330Y-21815D01*
X27330Y-21832D01*
X27321Y-21850D01*
X27311Y-21858D01*
X27292Y-21867D01*
X27254Y-21875D01*
X27207Y-21875D01*
X27169Y-21867D01*
X27150Y-21858D01*
X27140Y-21850D01*
X27130Y-21832D01*
X28830Y-22030D02*
X28735Y-22090D01*
X28830Y-22132D02*
X28630Y-22132D01*
X28630Y-22064D01*
X28640Y-22047D01*
X28650Y-22038D01*
X28669Y-22030D01*
X28697Y-22030D01*
X28716Y-22038D01*
X28726Y-22047D01*
X28735Y-22064D01*
X28735Y-22132D01*
X28830Y-21944D02*
X28830Y-21910D01*
X28821Y-21892D01*
X28811Y-21884D01*
X28783Y-21867D01*
X28745Y-21858D01*
X28669Y-21858D01*
X28650Y-21867D01*
X28640Y-21875D01*
X28630Y-21892D01*
X28630Y-21927D01*
X28640Y-21944D01*
X28650Y-21952D01*
X28669Y-21961D01*
X28716Y-21961D01*
X28735Y-21952D01*
X28745Y-21944D01*
X28754Y-21927D01*
X28754Y-21892D01*
X28745Y-21875D01*
X28735Y-21867D01*
X28716Y-21858D01*
G54D14*
X19952Y-18804D02*
X20357Y-18804D01*
X20404Y-18785D01*
X20428Y-18766D01*
X20452Y-18728D01*
X20452Y-18652D01*
X20428Y-18614D01*
X20404Y-18595D01*
X20357Y-18576D01*
X19952Y-18576D01*
X20000Y-18404D02*
X19976Y-18385D01*
X19952Y-18347D01*
X19952Y-18252D01*
X19976Y-18214D01*
X20000Y-18195D01*
X20047Y-18176D01*
X20095Y-18176D01*
X20166Y-18195D01*
X20452Y-18423D01*
X20452Y-18176D01*
G54D19*
X20735Y-25032D02*
X20745Y-25042D01*
X20754Y-25070D01*
X20754Y-25089D01*
X20745Y-25117D01*
X20726Y-25136D01*
X20707Y-25145D01*
X20670Y-25154D01*
X20642Y-25154D01*
X20604Y-25145D01*
X20585Y-25136D01*
X20567Y-25117D01*
X20557Y-25089D01*
X20557Y-25070D01*
X20567Y-25042D01*
X20576Y-25032D01*
X20576Y-24957D02*
X20567Y-24948D01*
X20557Y-24929D01*
X20557Y-24882D01*
X20567Y-24863D01*
X20576Y-24854D01*
X20595Y-24845D01*
X20614Y-24845D01*
X20642Y-24854D01*
X20754Y-24967D01*
X20754Y-24845D01*
G54D18*
X24811Y-21780D02*
X24821Y-21788D01*
X24830Y-21814D01*
X24830Y-21831D01*
X24821Y-21857D01*
X24802Y-21874D01*
X24783Y-21882D01*
X24745Y-21891D01*
X24716Y-21891D01*
X24678Y-21882D01*
X24659Y-21874D01*
X24640Y-21857D01*
X24630Y-21831D01*
X24630Y-21814D01*
X24640Y-21788D01*
X24650Y-21780D01*
X24630Y-21617D02*
X24630Y-21702D01*
X24726Y-21711D01*
X24716Y-21702D01*
X24707Y-21685D01*
X24707Y-21642D01*
X24716Y-21625D01*
X24726Y-21617D01*
X24745Y-21608D01*
X24792Y-21608D01*
X24811Y-21617D01*
X24821Y-21625D01*
X24830Y-21642D01*
X24830Y-21685D01*
X24821Y-21702D01*
X24811Y-21711D01*
G54D22*
X40765Y-49909D02*
X40634Y-49721D01*
X40540Y-49909D02*
X40540Y-49515D01*
X40690Y-49515D01*
X40728Y-49534D01*
X40746Y-49553D01*
X40765Y-49590D01*
X40765Y-49646D01*
X40746Y-49684D01*
X40728Y-49703D01*
X40690Y-49721D01*
X40540Y-49721D01*
X40878Y-49515D02*
X41009Y-49909D01*
X41140Y-49515D01*
X41478Y-49909D02*
X41253Y-49909D01*
X41365Y-49909D02*
X41365Y-49515D01*
X41328Y-49571D01*
X41290Y-49609D01*
X41253Y-49628D01*
G54D14*
X46716Y-44642D02*
X46773Y-44661D01*
X46869Y-44661D01*
X46907Y-44642D01*
X46926Y-44623D01*
X46945Y-44585D01*
X46945Y-44547D01*
X46926Y-44509D01*
X46907Y-44490D01*
X46869Y-44471D01*
X46792Y-44452D01*
X46754Y-44433D01*
X46735Y-44414D01*
X46716Y-44376D01*
X46716Y-44338D01*
X46735Y-44300D01*
X46754Y-44280D01*
X46792Y-44261D01*
X46888Y-44261D01*
X46945Y-44280D01*
X47078Y-44261D02*
X47173Y-44661D01*
X47250Y-44376D01*
X47326Y-44661D01*
X47421Y-44261D01*
X47783Y-44661D02*
X47554Y-44661D01*
X47669Y-44661D02*
X47669Y-44261D01*
X47630Y-44319D01*
X47592Y-44357D01*
X47554Y-44376D01*
G54D20*
X34231Y-48598D02*
X34212Y-48589D01*
X34193Y-48570D01*
X34165Y-48542D01*
X34146Y-48532D01*
X34128Y-48532D01*
X34137Y-48579D02*
X34118Y-48570D01*
X34099Y-48551D01*
X34090Y-48514D01*
X34090Y-48448D01*
X34099Y-48410D01*
X34118Y-48392D01*
X34137Y-48382D01*
X34174Y-48382D01*
X34193Y-48392D01*
X34212Y-48410D01*
X34221Y-48448D01*
X34221Y-48514D01*
X34212Y-48551D01*
X34193Y-48570D01*
X34174Y-48579D01*
X34137Y-48579D01*
X34296Y-48401D02*
X34306Y-48392D01*
X34325Y-48382D01*
X34371Y-48382D01*
X34390Y-48392D01*
X34400Y-48401D01*
X34409Y-48420D01*
X34409Y-48439D01*
X34400Y-48467D01*
X34287Y-48579D01*
X34409Y-48579D01*
X42384Y-39063D02*
X42384Y-38906D01*
X42421Y-38906D01*
X42443Y-38914D01*
X42458Y-38928D01*
X42466Y-38943D01*
X42473Y-38973D01*
X42473Y-38996D01*
X42466Y-39026D01*
X42458Y-39041D01*
X42443Y-39056D01*
X42421Y-39063D01*
X42384Y-39063D01*
X42526Y-38906D02*
X42623Y-38906D01*
X42571Y-38966D01*
X42593Y-38966D01*
X42608Y-38973D01*
X42615Y-38981D01*
X42623Y-38996D01*
X42623Y-39033D01*
X42615Y-39048D01*
X42608Y-39056D01*
X42593Y-39063D01*
X42548Y-39063D01*
X42533Y-39056D01*
X42526Y-39048D01*
G54D23*
X42907Y-44482D02*
X42907Y-44846D01*
X42928Y-44889D01*
X42950Y-44910D01*
X42992Y-44932D01*
X43078Y-44932D01*
X43121Y-44910D01*
X43142Y-44889D01*
X43164Y-44846D01*
X43164Y-44482D01*
X43357Y-44525D02*
X43378Y-44503D01*
X43421Y-44482D01*
X43528Y-44482D01*
X43571Y-44503D01*
X43592Y-44525D01*
X43614Y-44567D01*
X43614Y-44610D01*
X43592Y-44675D01*
X43335Y-44932D01*
X43614Y-44932D01*
X35907Y-44482D02*
X35907Y-44846D01*
X35928Y-44889D01*
X35950Y-44910D01*
X35992Y-44932D01*
X36078Y-44932D01*
X36121Y-44910D01*
X36142Y-44889D01*
X36164Y-44846D01*
X36164Y-44482D01*
X36614Y-44932D02*
X36357Y-44932D01*
X36485Y-44932D02*
X36485Y-44482D01*
X36442Y-44546D01*
X36400Y-44589D01*
X36357Y-44610D01*
G54D13*
X27371Y-50050D02*
X27228Y-50150D01*
X27371Y-50221D02*
X27071Y-50221D01*
X27071Y-50107D01*
X27085Y-50078D01*
X27100Y-50064D01*
X27128Y-50050D01*
X27171Y-50050D01*
X27200Y-50064D01*
X27214Y-50078D01*
X27228Y-50107D01*
X27228Y-50221D01*
X27071Y-49778D02*
X27071Y-49921D01*
X27214Y-49935D01*
X27200Y-49921D01*
X27185Y-49892D01*
X27185Y-49821D01*
X27200Y-49792D01*
X27214Y-49778D01*
X27242Y-49764D01*
X27314Y-49764D01*
X27342Y-49778D01*
X27357Y-49792D01*
X27371Y-49821D01*
X27371Y-49892D01*
X27357Y-49921D01*
X27342Y-49935D01*
G54D18*
X48617Y-43080D02*
X48617Y-42880D01*
X48660Y-42880D01*
X48685Y-42890D01*
X48702Y-42909D01*
X48711Y-42928D01*
X48720Y-42966D01*
X48720Y-42995D01*
X48711Y-43033D01*
X48702Y-43052D01*
X48685Y-43071D01*
X48660Y-43080D01*
X48617Y-43080D01*
X48891Y-43080D02*
X48788Y-43080D01*
X48840Y-43080D02*
X48840Y-42880D01*
X48822Y-42909D01*
X48805Y-42928D01*
X48788Y-42938D01*
X41580Y-48530D02*
X41485Y-48590D01*
X41580Y-48632D02*
X41380Y-48632D01*
X41380Y-48564D01*
X41390Y-48547D01*
X41400Y-48538D01*
X41419Y-48530D01*
X41447Y-48530D01*
X41466Y-48538D01*
X41476Y-48547D01*
X41485Y-48564D01*
X41485Y-48632D01*
X41466Y-48427D02*
X41457Y-48444D01*
X41447Y-48452D01*
X41428Y-48461D01*
X41419Y-48461D01*
X41400Y-48452D01*
X41390Y-48444D01*
X41380Y-48427D01*
X41380Y-48392D01*
X41390Y-48375D01*
X41400Y-48367D01*
X41419Y-48358D01*
X41428Y-48358D01*
X41447Y-48367D01*
X41457Y-48375D01*
X41466Y-48392D01*
X41466Y-48427D01*
X41476Y-48444D01*
X41485Y-48452D01*
X41504Y-48461D01*
X41542Y-48461D01*
X41561Y-48452D01*
X41571Y-48444D01*
X41580Y-48427D01*
X41580Y-48392D01*
X41571Y-48375D01*
X41561Y-48367D01*
X41542Y-48358D01*
X41504Y-48358D01*
X41485Y-48367D01*
X41476Y-48375D01*
X41466Y-48392D01*
X38830Y-48030D02*
X38735Y-48090D01*
X38830Y-48132D02*
X38630Y-48132D01*
X38630Y-48064D01*
X38640Y-48047D01*
X38650Y-48038D01*
X38669Y-48030D01*
X38697Y-48030D01*
X38716Y-48038D01*
X38726Y-48047D01*
X38735Y-48064D01*
X38735Y-48132D01*
X38630Y-47875D02*
X38630Y-47910D01*
X38640Y-47927D01*
X38650Y-47935D01*
X38678Y-47952D01*
X38716Y-47961D01*
X38792Y-47961D01*
X38811Y-47952D01*
X38821Y-47944D01*
X38830Y-47927D01*
X38830Y-47892D01*
X38821Y-47875D01*
X38811Y-47867D01*
X38792Y-47858D01*
X38745Y-47858D01*
X38726Y-47867D01*
X38716Y-47875D01*
X38707Y-47892D01*
X38707Y-47927D01*
X38716Y-47944D01*
X38726Y-47952D01*
X38745Y-47961D01*
X43330Y-48530D02*
X43235Y-48590D01*
X43330Y-48632D02*
X43130Y-48632D01*
X43130Y-48564D01*
X43140Y-48547D01*
X43150Y-48538D01*
X43169Y-48530D01*
X43197Y-48530D01*
X43216Y-48538D01*
X43226Y-48547D01*
X43235Y-48564D01*
X43235Y-48632D01*
X43130Y-48470D02*
X43130Y-48358D01*
X43207Y-48418D01*
X43207Y-48392D01*
X43216Y-48375D01*
X43226Y-48367D01*
X43245Y-48358D01*
X43292Y-48358D01*
X43311Y-48367D01*
X43321Y-48375D01*
X43330Y-48392D01*
X43330Y-48444D01*
X43321Y-48461D01*
X43311Y-48470D01*
X45720Y-43080D02*
X45660Y-42985D01*
X45617Y-43080D02*
X45617Y-42880D01*
X45685Y-42880D01*
X45702Y-42890D01*
X45711Y-42900D01*
X45720Y-42919D01*
X45720Y-42947D01*
X45711Y-42966D01*
X45702Y-42976D01*
X45685Y-42985D01*
X45617Y-42985D01*
X45780Y-42880D02*
X45900Y-42880D01*
X45822Y-43080D01*
X38330Y-42780D02*
X38235Y-42840D01*
X38330Y-42882D02*
X38130Y-42882D01*
X38130Y-42814D01*
X38140Y-42797D01*
X38150Y-42788D01*
X38169Y-42780D01*
X38197Y-42780D01*
X38216Y-42788D01*
X38226Y-42797D01*
X38235Y-42814D01*
X38235Y-42882D01*
X38150Y-42711D02*
X38140Y-42702D01*
X38130Y-42685D01*
X38130Y-42642D01*
X38140Y-42625D01*
X38150Y-42617D01*
X38169Y-42608D01*
X38188Y-42608D01*
X38216Y-42617D01*
X38330Y-42720D01*
X38330Y-42608D01*
X35811Y-47280D02*
X35821Y-47288D01*
X35830Y-47314D01*
X35830Y-47331D01*
X35821Y-47357D01*
X35802Y-47374D01*
X35783Y-47382D01*
X35745Y-47391D01*
X35716Y-47391D01*
X35678Y-47382D01*
X35659Y-47374D01*
X35640Y-47357D01*
X35630Y-47331D01*
X35630Y-47314D01*
X35640Y-47288D01*
X35650Y-47280D01*
X35650Y-47211D02*
X35640Y-47202D01*
X35630Y-47185D01*
X35630Y-47142D01*
X35640Y-47125D01*
X35650Y-47117D01*
X35669Y-47108D01*
X35688Y-47108D01*
X35716Y-47117D01*
X35830Y-47220D01*
X35830Y-47108D01*
X40330Y-44780D02*
X40235Y-44840D01*
X40330Y-44882D02*
X40130Y-44882D01*
X40130Y-44814D01*
X40140Y-44797D01*
X40150Y-44788D01*
X40169Y-44780D01*
X40197Y-44780D01*
X40216Y-44788D01*
X40226Y-44797D01*
X40235Y-44814D01*
X40235Y-44882D01*
X40197Y-44625D02*
X40330Y-44625D01*
X40121Y-44668D02*
X40264Y-44711D01*
X40264Y-44600D01*
X40311Y-46030D02*
X40321Y-46038D01*
X40330Y-46064D01*
X40330Y-46081D01*
X40321Y-46107D01*
X40302Y-46124D01*
X40283Y-46132D01*
X40245Y-46141D01*
X40216Y-46141D01*
X40178Y-46132D01*
X40159Y-46124D01*
X40140Y-46107D01*
X40130Y-46081D01*
X40130Y-46064D01*
X40140Y-46038D01*
X40150Y-46030D01*
X40330Y-45858D02*
X40330Y-45961D01*
X40330Y-45910D02*
X40130Y-45910D01*
X40159Y-45927D01*
X40178Y-45944D01*
X40188Y-45961D01*
X42311Y-48530D02*
X42321Y-48538D01*
X42330Y-48564D01*
X42330Y-48581D01*
X42321Y-48607D01*
X42302Y-48624D01*
X42283Y-48632D01*
X42245Y-48641D01*
X42216Y-48641D01*
X42178Y-48632D01*
X42159Y-48624D01*
X42140Y-48607D01*
X42130Y-48581D01*
X42130Y-48564D01*
X42140Y-48538D01*
X42150Y-48530D01*
X42130Y-48470D02*
X42130Y-48350D01*
X42330Y-48427D01*
X33884Y-51580D02*
X33824Y-51485D01*
X33781Y-51580D02*
X33781Y-51380D01*
X33850Y-51380D01*
X33867Y-51390D01*
X33875Y-51400D01*
X33884Y-51419D01*
X33884Y-51447D01*
X33875Y-51466D01*
X33867Y-51476D01*
X33850Y-51485D01*
X33781Y-51485D01*
X34055Y-51580D02*
X33952Y-51580D01*
X34004Y-51580D02*
X34004Y-51380D01*
X33987Y-51409D01*
X33970Y-51428D01*
X33952Y-51438D01*
X34124Y-51400D02*
X34132Y-51390D01*
X34150Y-51380D01*
X34192Y-51380D01*
X34210Y-51390D01*
X34218Y-51400D01*
X34227Y-51419D01*
X34227Y-51438D01*
X34218Y-51466D01*
X34115Y-51580D01*
X34227Y-51580D01*
X34080Y-47365D02*
X33985Y-47425D01*
X34080Y-47468D02*
X33880Y-47468D01*
X33880Y-47400D01*
X33890Y-47382D01*
X33900Y-47374D01*
X33919Y-47365D01*
X33947Y-47365D01*
X33966Y-47374D01*
X33976Y-47382D01*
X33985Y-47400D01*
X33985Y-47468D01*
X34080Y-47194D02*
X34080Y-47297D01*
X34080Y-47245D02*
X33880Y-47245D01*
X33909Y-47262D01*
X33928Y-47280D01*
X33938Y-47297D01*
X34080Y-47022D02*
X34080Y-47125D01*
X34080Y-47074D02*
X33880Y-47074D01*
X33909Y-47091D01*
X33928Y-47108D01*
X33938Y-47125D01*
X43720Y-36811D02*
X43711Y-36821D01*
X43685Y-36830D01*
X43668Y-36830D01*
X43642Y-36821D01*
X43625Y-36802D01*
X43617Y-36783D01*
X43608Y-36745D01*
X43608Y-36716D01*
X43617Y-36678D01*
X43625Y-36659D01*
X43642Y-36640D01*
X43668Y-36630D01*
X43685Y-36630D01*
X43711Y-36640D01*
X43720Y-36650D01*
X43874Y-36697D02*
X43874Y-36830D01*
X43831Y-36621D02*
X43788Y-36764D01*
X43900Y-36764D01*
X36830Y-42780D02*
X36735Y-42840D01*
X36830Y-42882D02*
X36630Y-42882D01*
X36630Y-42814D01*
X36640Y-42797D01*
X36650Y-42788D01*
X36669Y-42780D01*
X36697Y-42780D01*
X36716Y-42788D01*
X36726Y-42797D01*
X36735Y-42814D01*
X36735Y-42882D01*
X36830Y-42608D02*
X36830Y-42711D01*
X36830Y-42660D02*
X36630Y-42660D01*
X36659Y-42677D01*
X36678Y-42694D01*
X36688Y-42711D01*
X48617Y-42330D02*
X48617Y-42130D01*
X48660Y-42130D01*
X48685Y-42140D01*
X48702Y-42159D01*
X48711Y-42178D01*
X48720Y-42216D01*
X48720Y-42245D01*
X48711Y-42283D01*
X48702Y-42302D01*
X48685Y-42321D01*
X48660Y-42330D01*
X48617Y-42330D01*
X48788Y-42150D02*
X48797Y-42140D01*
X48814Y-42130D01*
X48857Y-42130D01*
X48874Y-42140D01*
X48882Y-42150D01*
X48891Y-42169D01*
X48891Y-42188D01*
X48882Y-42216D01*
X48780Y-42330D01*
X48891Y-42330D01*
X45720Y-42330D02*
X45660Y-42235D01*
X45617Y-42330D02*
X45617Y-42130D01*
X45685Y-42130D01*
X45702Y-42140D01*
X45711Y-42150D01*
X45720Y-42169D01*
X45720Y-42197D01*
X45711Y-42216D01*
X45702Y-42226D01*
X45685Y-42235D01*
X45617Y-42235D01*
X45805Y-42330D02*
X45840Y-42330D01*
X45857Y-42321D01*
X45865Y-42311D01*
X45882Y-42283D01*
X45891Y-42245D01*
X45891Y-42169D01*
X45882Y-42150D01*
X45874Y-42140D01*
X45857Y-42130D01*
X45822Y-42130D01*
X45805Y-42140D01*
X45797Y-42150D01*
X45788Y-42169D01*
X45788Y-42216D01*
X45797Y-42235D01*
X45805Y-42245D01*
X45822Y-42254D01*
X45857Y-42254D01*
X45874Y-42245D01*
X45882Y-42235D01*
X45891Y-42216D01*
X48617Y-41580D02*
X48617Y-41380D01*
X48660Y-41380D01*
X48685Y-41390D01*
X48702Y-41409D01*
X48711Y-41428D01*
X48720Y-41466D01*
X48720Y-41495D01*
X48711Y-41533D01*
X48702Y-41552D01*
X48685Y-41571D01*
X48660Y-41580D01*
X48617Y-41580D01*
X48874Y-41447D02*
X48874Y-41580D01*
X48831Y-41371D02*
X48788Y-41514D01*
X48900Y-41514D01*
X45634Y-41580D02*
X45574Y-41485D01*
X45531Y-41580D02*
X45531Y-41380D01*
X45600Y-41380D01*
X45617Y-41390D01*
X45625Y-41400D01*
X45634Y-41419D01*
X45634Y-41447D01*
X45625Y-41466D01*
X45617Y-41476D01*
X45600Y-41485D01*
X45531Y-41485D01*
X45805Y-41580D02*
X45702Y-41580D01*
X45754Y-41580D02*
X45754Y-41380D01*
X45737Y-41409D01*
X45720Y-41428D01*
X45702Y-41438D01*
X45917Y-41380D02*
X45934Y-41380D01*
X45951Y-41390D01*
X45960Y-41400D01*
X45968Y-41419D01*
X45977Y-41457D01*
X45977Y-41504D01*
X45968Y-41542D01*
X45960Y-41561D01*
X45951Y-41571D01*
X45934Y-41580D01*
X45917Y-41580D01*
X45900Y-41571D01*
X45891Y-41561D01*
X45882Y-41542D01*
X45874Y-41504D01*
X45874Y-41457D01*
X45882Y-41419D01*
X45891Y-41400D01*
X45900Y-41390D01*
X45917Y-41380D01*
X43720Y-41061D02*
X43711Y-41071D01*
X43685Y-41080D01*
X43668Y-41080D01*
X43642Y-41071D01*
X43625Y-41052D01*
X43617Y-41033D01*
X43608Y-40995D01*
X43608Y-40966D01*
X43617Y-40928D01*
X43625Y-40909D01*
X43642Y-40890D01*
X43668Y-40880D01*
X43685Y-40880D01*
X43711Y-40890D01*
X43720Y-40900D01*
X43874Y-40880D02*
X43840Y-40880D01*
X43822Y-40890D01*
X43814Y-40900D01*
X43797Y-40928D01*
X43788Y-40966D01*
X43788Y-41042D01*
X43797Y-41061D01*
X43805Y-41071D01*
X43822Y-41080D01*
X43857Y-41080D01*
X43874Y-41071D01*
X43882Y-41061D01*
X43891Y-41042D01*
X43891Y-40995D01*
X43882Y-40976D01*
X43874Y-40966D01*
X43857Y-40957D01*
X43822Y-40957D01*
X43805Y-40966D01*
X43797Y-40976D01*
X43788Y-40995D01*
G54D17*
X28550Y-44392D02*
X28550Y-44821D01*
X28521Y-44907D01*
X28464Y-44964D01*
X28378Y-44992D01*
X28321Y-44992D01*
X29150Y-44992D02*
X28807Y-44992D01*
X28978Y-44992D02*
X28978Y-44392D01*
X28921Y-44478D01*
X28864Y-44535D01*
X28807Y-44564D01*
G54D14*
X29583Y-41934D02*
X29416Y-41934D01*
X29416Y-42222D02*
X29416Y-41672D01*
X29654Y-41672D01*
X30107Y-42222D02*
X29821Y-42222D01*
X29964Y-42222D02*
X29964Y-41672D01*
X29916Y-41751D01*
X29869Y-41803D01*
X29821Y-41829D01*
X46945Y-37452D02*
X46945Y-37857D01*
X46964Y-37904D01*
X46983Y-37928D01*
X47021Y-37952D01*
X47097Y-37952D01*
X47135Y-37928D01*
X47154Y-37904D01*
X47173Y-37857D01*
X47173Y-37452D01*
X47535Y-37619D02*
X47535Y-37952D01*
X47440Y-37428D02*
X47345Y-37785D01*
X47592Y-37785D01*
G54D19*
X38967Y-39485D02*
X38957Y-39495D01*
X38929Y-39504D01*
X38910Y-39504D01*
X38882Y-39495D01*
X38863Y-39476D01*
X38854Y-39457D01*
X38845Y-39420D01*
X38845Y-39392D01*
X38854Y-39354D01*
X38863Y-39335D01*
X38882Y-39317D01*
X38910Y-39307D01*
X38929Y-39307D01*
X38957Y-39317D01*
X38967Y-39326D01*
X39145Y-39307D02*
X39051Y-39307D01*
X39042Y-39401D01*
X39051Y-39392D01*
X39070Y-39382D01*
X39117Y-39382D01*
X39136Y-39392D01*
X39145Y-39401D01*
X39154Y-39420D01*
X39154Y-39467D01*
X39145Y-39485D01*
X39136Y-39495D01*
X39117Y-39504D01*
X39070Y-39504D01*
X39051Y-39495D01*
X39042Y-39485D01*
X34735Y-39532D02*
X34745Y-39542D01*
X34754Y-39570D01*
X34754Y-39589D01*
X34745Y-39617D01*
X34726Y-39636D01*
X34707Y-39645D01*
X34670Y-39654D01*
X34642Y-39654D01*
X34604Y-39645D01*
X34585Y-39636D01*
X34567Y-39617D01*
X34557Y-39589D01*
X34557Y-39570D01*
X34567Y-39542D01*
X34576Y-39532D01*
X34557Y-39467D02*
X34557Y-39345D01*
X34632Y-39410D01*
X34632Y-39382D01*
X34642Y-39363D01*
X34651Y-39354D01*
X34670Y-39345D01*
X34717Y-39345D01*
X34735Y-39354D01*
X34745Y-39363D01*
X34754Y-39382D01*
X34754Y-39439D01*
X34745Y-39457D01*
X34735Y-39467D01*
G54D17*
X29807Y-37492D02*
X29807Y-36892D01*
X30035Y-36892D01*
X30092Y-36921D01*
X30121Y-36950D01*
X30150Y-37007D01*
X30150Y-37092D01*
X30121Y-37150D01*
X30092Y-37178D01*
X30035Y-37207D01*
X29807Y-37207D01*
X30721Y-37492D02*
X30378Y-37492D01*
X30550Y-37492D02*
X30550Y-36892D01*
X30492Y-36978D01*
X30435Y-37035D01*
X30378Y-37064D01*
G54D13*
X30657Y-44511D02*
X30657Y-44835D01*
X30678Y-44873D01*
X30700Y-44892D01*
X30742Y-44911D01*
X30828Y-44911D01*
X30871Y-44892D01*
X30892Y-44873D01*
X30914Y-44835D01*
X30914Y-44511D01*
X31085Y-44511D02*
X31364Y-44511D01*
X31214Y-44664D01*
X31278Y-44664D01*
X31321Y-44683D01*
X31342Y-44702D01*
X31364Y-44740D01*
X31364Y-44835D01*
X31342Y-44873D01*
X31321Y-44892D01*
X31278Y-44911D01*
X31150Y-44911D01*
X31107Y-44892D01*
X31085Y-44873D01*
G54D14*
X46961Y-52250D02*
X46923Y-52226D01*
X46885Y-52178D01*
X46828Y-52107D01*
X46790Y-52083D01*
X46752Y-52083D01*
X46771Y-52202D02*
X46733Y-52178D01*
X46695Y-52130D01*
X46676Y-52035D01*
X46676Y-51869D01*
X46695Y-51773D01*
X46733Y-51726D01*
X46771Y-51702D01*
X46847Y-51702D01*
X46885Y-51726D01*
X46923Y-51773D01*
X46942Y-51869D01*
X46942Y-52035D01*
X46923Y-52130D01*
X46885Y-52178D01*
X46847Y-52202D01*
X46771Y-52202D01*
X47323Y-52202D02*
X47095Y-52202D01*
X47209Y-52202D02*
X47209Y-51702D01*
X47171Y-51773D01*
X47133Y-51821D01*
X47095Y-51845D01*
G54D24*
X32684Y-49275D02*
X32684Y-48594D01*
X32847Y-48594D01*
X32887Y-48627D01*
X32908Y-48659D01*
X32928Y-48724D01*
X32928Y-48821D01*
X32908Y-48886D01*
X32887Y-48918D01*
X32847Y-48951D01*
X32684Y-48951D01*
X33091Y-48659D02*
X33112Y-48627D01*
X33152Y-48594D01*
X33254Y-48594D01*
X33295Y-48627D01*
X33315Y-48659D01*
X33336Y-48724D01*
X33336Y-48789D01*
X33315Y-48886D01*
X33071Y-49275D01*
X33336Y-49275D01*
G54D17*
G54D10*
G36*
X27629Y-16700D02*
X26870Y-16700D01*
X27250Y-16320D01*
X27629Y-16700D01*
X27629Y-16700D01*
G37*
G54D25*
X27629Y-16700D02*
X26870Y-16700D01*
X27250Y-16320D01*
X27629Y-16700D01*
G54D10*
G36*
X47379Y-16700D02*
X46620Y-16700D01*
X47000Y-16320D01*
X47379Y-16700D01*
X47379Y-16700D01*
G37*
G54D25*
X47379Y-16700D02*
X46620Y-16700D01*
X47000Y-16320D01*
X47379Y-16700D01*
%LPC*%
G54D26*
X44000Y-21450D03*
X44000Y-22050D03*
G54D27*
X41500Y-23819D03*
G54D28*
X41500Y-26181D03*
G54D29*
X41100Y-21000D03*
G54D30*
X42000Y-18500D03*
G54D29*
X42900Y-21000D03*
G54D26*
X48000Y-21200D03*
X48000Y-21800D03*
X46500Y-21200D03*
X46500Y-21800D03*
X49500Y-21200D03*
X49500Y-21800D03*
G54D31*
X52950Y-26750D03*
X53550Y-26750D03*
G54D26*
X41500Y-14550D03*
X41500Y-13950D03*
X51000Y-21200D03*
X51000Y-21800D03*
X41500Y-16050D03*
X41500Y-15450D03*
X42250Y-14550D03*
X42250Y-13950D03*
X52500Y-21200D03*
X52500Y-21800D03*
X54000Y-21200D03*
X54000Y-21800D03*
X55500Y-21200D03*
X55500Y-21800D03*
X40000Y-21450D03*
X40000Y-22050D03*
X57000Y-21200D03*
X57000Y-21800D03*
X42250Y-16050D03*
X42250Y-15450D03*
G54D32*
X45500Y-19150D03*
X45500Y-17850D03*
X56000Y-19150D03*
X56000Y-17850D03*
X54500Y-19150D03*
X54500Y-17850D03*
X53000Y-19150D03*
X53000Y-17850D03*
X47000Y-19150D03*
X47000Y-17850D03*
X50000Y-19150D03*
X50000Y-17850D03*
X48500Y-19150D03*
X48500Y-17850D03*
X51500Y-19150D03*
X51500Y-17850D03*
G54D33*
X52500Y-24250D03*
X52000Y-24250D03*
X51500Y-24250D03*
X51000Y-24250D03*
X50500Y-24250D03*
X50000Y-24250D03*
X49500Y-24250D03*
X49000Y-24250D03*
X49000Y-26250D03*
X49500Y-26250D03*
X50000Y-26250D03*
X50500Y-26250D03*
X51000Y-26250D03*
X51500Y-26250D03*
X52000Y-26250D03*
X52500Y-26250D03*
G54D34*
X41591Y-22500D03*
X42909Y-22500D03*
G54D35*
X50625Y-20084D03*
X50250Y-20916D03*
X49875Y-20084D03*
X52125Y-20084D03*
X51750Y-20916D03*
X51375Y-20084D03*
X53625Y-20084D03*
X53250Y-20916D03*
X52875Y-20084D03*
X46125Y-20084D03*
X45750Y-20916D03*
X45375Y-20084D03*
X55125Y-20084D03*
X54750Y-20916D03*
X54375Y-20084D03*
X49125Y-20084D03*
X48750Y-20916D03*
X48375Y-20084D03*
X56625Y-20084D03*
X56250Y-20916D03*
X55875Y-20084D03*
X47625Y-20084D03*
X47250Y-20916D03*
X46875Y-20084D03*
G54D27*
X44000Y-23819D03*
G54D28*
X44000Y-26181D03*
G54D36*
X53300Y-15050D03*
X44700Y-15050D03*
G54D37*
X47000Y-15750D03*
G54D38*
X47000Y-14750D03*
X48000Y-15750D03*
X48000Y-14750D03*
X49000Y-15750D03*
X49000Y-14750D03*
X50000Y-15750D03*
X50000Y-14750D03*
X51000Y-15750D03*
X51000Y-14750D03*
G54D39*
X57850Y-14400D03*
X57850Y-34100D03*
X40150Y-34100D03*
X40150Y-14400D03*
G54D40*
X47250Y-32500D03*
X42750Y-32500D03*
G54D41*
X43250Y-30000D03*
G54D42*
X43750Y-29000D03*
X44250Y-30000D03*
X44750Y-29000D03*
X45250Y-30000D03*
X45750Y-29000D03*
X46250Y-30000D03*
X46750Y-29000D03*
G54D43*
X41950Y-31299D03*
X48050Y-31299D03*
G54D40*
X55250Y-32500D03*
X50750Y-32500D03*
G54D41*
X51250Y-30000D03*
G54D42*
X51750Y-29000D03*
X52250Y-30000D03*
X52750Y-29000D03*
X53250Y-30000D03*
X53750Y-29000D03*
X54250Y-30000D03*
X54750Y-29000D03*
G54D43*
X49950Y-31299D03*
X56050Y-31299D03*
G54D40*
X35500Y-32500D03*
X31000Y-32500D03*
G54D41*
X31500Y-30000D03*
G54D42*
X32000Y-29000D03*
X32500Y-30000D03*
X33000Y-29000D03*
X33500Y-30000D03*
X34000Y-29000D03*
X34500Y-30000D03*
X35000Y-29000D03*
G54D43*
X30200Y-31299D03*
X36300Y-31299D03*
G54D40*
X27500Y-32500D03*
G54D44*
X23000Y-32500D03*
G54D41*
X23500Y-30000D03*
G54D42*
X24000Y-29000D03*
X24500Y-30000D03*
X25000Y-29000D03*
X25500Y-30000D03*
X26000Y-29000D03*
X26500Y-30000D03*
X27000Y-29000D03*
G54D43*
X22200Y-31299D03*
X28300Y-31299D03*
G54D39*
X20400Y-14400D03*
X20400Y-34100D03*
X38100Y-34100D03*
X38100Y-14400D03*
G54D36*
X33550Y-15050D03*
X24950Y-15050D03*
G54D37*
X27250Y-15750D03*
G54D38*
X27250Y-14750D03*
X28250Y-15750D03*
X28250Y-14750D03*
X29250Y-15750D03*
X29250Y-14750D03*
X30250Y-15750D03*
X30250Y-14750D03*
X31250Y-15750D03*
X31250Y-14750D03*
G54D27*
X24250Y-23819D03*
G54D28*
X24250Y-26181D03*
G54D35*
X27875Y-20084D03*
X27500Y-20916D03*
X27125Y-20084D03*
X36875Y-20084D03*
X36500Y-20916D03*
X36125Y-20084D03*
X29375Y-20084D03*
X29000Y-20916D03*
X28625Y-20084D03*
X35375Y-20084D03*
X35000Y-20916D03*
X34625Y-20084D03*
X26375Y-20084D03*
X26000Y-20916D03*
X25625Y-20084D03*
X33875Y-20084D03*
X33500Y-20916D03*
X33125Y-20084D03*
X32375Y-20084D03*
X32000Y-20916D03*
X31625Y-20084D03*
X30875Y-20084D03*
X30500Y-20916D03*
X30125Y-20084D03*
G54D34*
X21841Y-22500D03*
X23159Y-22500D03*
G54D33*
X32750Y-24250D03*
X32250Y-24250D03*
X31750Y-24250D03*
X31250Y-24250D03*
X30750Y-24250D03*
X30250Y-24250D03*
X29750Y-24250D03*
X29250Y-24250D03*
X29250Y-26250D03*
X29750Y-26250D03*
X30250Y-26250D03*
X30750Y-26250D03*
X31250Y-26250D03*
X31750Y-26250D03*
X32250Y-26250D03*
X32750Y-26250D03*
G54D32*
X31750Y-19150D03*
X31750Y-17850D03*
X28750Y-19150D03*
X28750Y-17850D03*
X30250Y-19150D03*
X30250Y-17850D03*
X27250Y-19150D03*
X27250Y-17850D03*
X33250Y-19150D03*
X33250Y-17850D03*
X34750Y-19150D03*
X34750Y-17850D03*
X36250Y-19150D03*
X36250Y-17850D03*
X25750Y-19150D03*
X25750Y-17850D03*
G54D26*
X22500Y-16050D03*
X22500Y-15450D03*
X37250Y-21200D03*
X37250Y-21800D03*
X20250Y-21450D03*
X20250Y-22050D03*
X35750Y-21200D03*
X35750Y-21800D03*
X34250Y-21200D03*
X34250Y-21800D03*
X32750Y-21200D03*
X32750Y-21800D03*
X22500Y-14550D03*
X22500Y-13950D03*
X21750Y-16050D03*
X21750Y-15450D03*
X31250Y-21200D03*
X31250Y-21800D03*
X21750Y-14550D03*
X21750Y-13950D03*
G54D31*
X33200Y-26750D03*
X33800Y-26750D03*
G54D26*
X29750Y-21200D03*
X29750Y-21800D03*
X26750Y-21200D03*
X26750Y-21800D03*
X28250Y-21200D03*
X28250Y-21800D03*
G54D29*
X21350Y-21000D03*
G54D30*
X22250Y-18500D03*
G54D29*
X23150Y-21000D03*
G54D27*
X21750Y-23819D03*
G54D28*
X21750Y-26181D03*
G54D26*
X24250Y-21450D03*
X24250Y-22050D03*
G54D45*
X39984Y-49008D03*
X39000Y-49992D03*
X38016Y-49008D03*
G54D46*
X46250Y-45000D03*
X48250Y-45000D03*
X46250Y-48000D03*
X48250Y-48000D03*
G54D47*
X34834Y-48125D03*
X35666Y-48500D03*
X34834Y-48875D03*
G54D34*
X43159Y-39500D03*
X41841Y-39500D03*
G54D48*
X42250Y-45800D03*
X42250Y-43700D03*
X41750Y-45800D03*
X41250Y-45800D03*
X40750Y-45800D03*
X41750Y-43700D03*
X41250Y-43700D03*
X40750Y-43700D03*
X38750Y-45800D03*
X38750Y-43700D03*
X38250Y-45800D03*
X37750Y-45800D03*
X37250Y-45800D03*
X38250Y-43700D03*
X37750Y-43700D03*
X37250Y-43700D03*
G54D32*
X27250Y-49350D03*
X27250Y-50650D03*
G54D31*
X47700Y-43000D03*
X48300Y-43000D03*
G54D26*
X41500Y-47450D03*
X41500Y-48050D03*
X38750Y-46950D03*
X38750Y-47550D03*
X43250Y-47450D03*
X43250Y-48050D03*
G54D31*
X46450Y-43000D03*
X47050Y-43000D03*
G54D26*
X38750Y-42450D03*
X38750Y-43050D03*
X35250Y-46950D03*
X35250Y-47550D03*
X39750Y-44450D03*
X39750Y-45050D03*
X39750Y-45700D03*
X39750Y-46300D03*
X42250Y-47450D03*
X42250Y-48050D03*
G54D31*
X33700Y-51000D03*
X34300Y-51000D03*
G54D26*
X34500Y-46950D03*
X34500Y-47550D03*
G54D31*
X44050Y-37250D03*
X43450Y-37250D03*
G54D26*
X37250Y-42450D03*
X37250Y-43050D03*
G54D31*
X47700Y-42250D03*
X48300Y-42250D03*
X46450Y-42250D03*
X47050Y-42250D03*
X47700Y-41500D03*
X48300Y-41500D03*
X46450Y-41500D03*
X47050Y-41500D03*
X44050Y-41500D03*
X43450Y-41500D03*
G54D40*
X23750Y-47000D03*
X23750Y-42500D03*
G54D41*
X26250Y-43000D03*
G54D42*
X27250Y-43500D03*
X26250Y-44000D03*
X27250Y-44500D03*
X26250Y-45000D03*
X27250Y-45500D03*
X26250Y-46000D03*
X27250Y-46500D03*
G54D43*
X24950Y-41700D03*
X24950Y-47800D03*
G54D49*
X26250Y-40000D03*
X33250Y-40000D03*
G54D50*
X44750Y-38600D03*
G54D30*
X47250Y-39500D03*
G54D50*
X44750Y-40400D03*
G54D51*
X40181Y-40500D03*
G54D52*
X37819Y-40500D03*
G54D27*
X35750Y-38319D03*
G54D28*
X35750Y-40681D03*
G54D53*
X28250Y-37000D03*
G54D54*
X26250Y-37000D03*
G54D33*
X35000Y-43650D03*
X34500Y-43650D03*
X34000Y-43650D03*
X33500Y-43650D03*
X33000Y-43650D03*
X32500Y-43650D03*
X32000Y-43650D03*
X32000Y-45750D03*
X32500Y-45750D03*
X33000Y-45750D03*
X33500Y-45750D03*
X34000Y-45750D03*
X34500Y-45750D03*
X35000Y-45750D03*
G54D50*
X44750Y-49100D03*
G54D30*
X47250Y-50000D03*
G54D50*
X44750Y-50900D03*
G54D55*
X30000Y-50000D03*
G54D46*
X31000Y-50000D03*
X32000Y-50000D03*
X33000Y-50000D03*
X34000Y-50000D03*
X35000Y-50000D03*
X36000Y-50000D03*
G54D56*
X21000Y-37000D03*
X50500Y-37000D03*
X50500Y-51000D03*
X21000Y-51000D03*
M02*
