G04 (created by PCBNEW (2013-may-18)-stable) date Tue 21 Oct 2014 09:53:05 PM CEST*
%MOIN*%
G04 Gerber Fmt 3.4, Leading zero omitted, Abs format*
%FSLAX34Y34*%
G01*
G70*
G90*
G04 APERTURE LIST*
%ADD10C,0.00590551*%
%ADD11R,0.045X0.025*%
%ADD12R,0.0335X0.0335*%
%ADD13R,0.1063X0.1004*%
%ADD14R,0.1496X0.1004*%
%ADD15R,0.065X0.12*%
%ADD16R,0.24X0.24*%
%ADD17R,0.025X0.045*%
%ADD18R,0.08X0.06*%
%ADD19R,0.02X0.045*%
%ADD20R,0.0236X0.0394*%
%ADD21R,0.0394X0.0236*%
%ADD22R,0.0236X0.0551*%
%ADD23R,0.12X0.065*%
%ADD24R,0.1004X0.1063*%
%ADD25R,0.1004X0.1496*%
%ADD26R,0.2677X0.2461*%
%ADD27R,0.1181X0.0319*%
G04 APERTURE END LIST*
G54D10*
G54D11*
X91000Y-60950D03*
X91000Y-61550D03*
X93250Y-61550D03*
X93250Y-60950D03*
X91750Y-61550D03*
X91750Y-60950D03*
X92500Y-61550D03*
X92500Y-60950D03*
X94000Y-61550D03*
X94000Y-60950D03*
G54D12*
X89659Y-60000D03*
X88341Y-60000D03*
X97341Y-60000D03*
X98659Y-60000D03*
X89659Y-59250D03*
X88341Y-59250D03*
X89659Y-60750D03*
X88341Y-60750D03*
X97341Y-60750D03*
X98659Y-60750D03*
G54D11*
X86250Y-55200D03*
X86250Y-55800D03*
G54D13*
X83750Y-57569D03*
G54D14*
X83750Y-59931D03*
G54D15*
X83350Y-54750D03*
G54D16*
X84250Y-52250D03*
G54D15*
X85150Y-54750D03*
G54D11*
X89250Y-55450D03*
X89250Y-56050D03*
X87750Y-55450D03*
X87750Y-56050D03*
X90750Y-55450D03*
X90750Y-56050D03*
G54D17*
X95450Y-60000D03*
X96050Y-60000D03*
G54D11*
X83750Y-48300D03*
X83750Y-47700D03*
X92250Y-55450D03*
X92250Y-56050D03*
X83750Y-49800D03*
X83750Y-49200D03*
X84500Y-48300D03*
X84500Y-47700D03*
X93750Y-55450D03*
X93750Y-56050D03*
X95250Y-55450D03*
X95250Y-56050D03*
X96750Y-55450D03*
X96750Y-56050D03*
X82250Y-55200D03*
X82250Y-55800D03*
X98250Y-55450D03*
X98250Y-56050D03*
X84500Y-49800D03*
X84500Y-49200D03*
G54D18*
X87750Y-52900D03*
X87750Y-51600D03*
X98250Y-52900D03*
X98250Y-51600D03*
X96750Y-52900D03*
X96750Y-51600D03*
X95250Y-52900D03*
X95250Y-51600D03*
X89250Y-52900D03*
X89250Y-51600D03*
X92250Y-52900D03*
X92250Y-51600D03*
X90750Y-52900D03*
X90750Y-51600D03*
X93750Y-52900D03*
X93750Y-51600D03*
G54D19*
X94750Y-58000D03*
X94250Y-58000D03*
X93750Y-58000D03*
X93250Y-58000D03*
X92750Y-58000D03*
X92250Y-58000D03*
X91750Y-58000D03*
X91250Y-58000D03*
X91250Y-60000D03*
X91750Y-60000D03*
X92250Y-60000D03*
X92750Y-60000D03*
X93250Y-60000D03*
X93750Y-60000D03*
X94250Y-60000D03*
X94750Y-60000D03*
G54D12*
X83841Y-56250D03*
X85159Y-56250D03*
G54D20*
X91875Y-54666D03*
X92250Y-53834D03*
X92625Y-54666D03*
X93375Y-54666D03*
X93750Y-53834D03*
X94125Y-54666D03*
X94875Y-54666D03*
X95250Y-53834D03*
X95625Y-54666D03*
X87375Y-54666D03*
X87750Y-53834D03*
X88125Y-54666D03*
X96375Y-54666D03*
X96750Y-53834D03*
X97125Y-54666D03*
X90375Y-54666D03*
X90750Y-53834D03*
X91125Y-54666D03*
X97875Y-54666D03*
X98250Y-53834D03*
X98625Y-54666D03*
X88875Y-54666D03*
X89250Y-53834D03*
X89625Y-54666D03*
G54D13*
X86250Y-57569D03*
G54D14*
X86250Y-59931D03*
G54D13*
X66500Y-57569D03*
G54D14*
X66500Y-59931D03*
G54D20*
X69125Y-54666D03*
X69500Y-53834D03*
X69875Y-54666D03*
X78125Y-54666D03*
X78500Y-53834D03*
X78875Y-54666D03*
X70625Y-54666D03*
X71000Y-53834D03*
X71375Y-54666D03*
X76625Y-54666D03*
X77000Y-53834D03*
X77375Y-54666D03*
X67625Y-54666D03*
X68000Y-53834D03*
X68375Y-54666D03*
X75125Y-54666D03*
X75500Y-53834D03*
X75875Y-54666D03*
X73625Y-54666D03*
X74000Y-53834D03*
X74375Y-54666D03*
X72125Y-54666D03*
X72500Y-53834D03*
X72875Y-54666D03*
G54D12*
X64091Y-56250D03*
X65409Y-56250D03*
G54D19*
X75000Y-58000D03*
X74500Y-58000D03*
X74000Y-58000D03*
X73500Y-58000D03*
X73000Y-58000D03*
X72500Y-58000D03*
X72000Y-58000D03*
X71500Y-58000D03*
X71500Y-60000D03*
X72000Y-60000D03*
X72500Y-60000D03*
X73000Y-60000D03*
X73500Y-60000D03*
X74000Y-60000D03*
X74500Y-60000D03*
X75000Y-60000D03*
G54D18*
X74000Y-52900D03*
X74000Y-51600D03*
X71000Y-52900D03*
X71000Y-51600D03*
X72500Y-52900D03*
X72500Y-51600D03*
X69500Y-52900D03*
X69500Y-51600D03*
X75500Y-52900D03*
X75500Y-51600D03*
X77000Y-52900D03*
X77000Y-51600D03*
X78500Y-52900D03*
X78500Y-51600D03*
X68000Y-52900D03*
X68000Y-51600D03*
G54D11*
X64750Y-49800D03*
X64750Y-49200D03*
X78500Y-55450D03*
X78500Y-56050D03*
X62500Y-55200D03*
X62500Y-55800D03*
X77000Y-55450D03*
X77000Y-56050D03*
X75500Y-55450D03*
X75500Y-56050D03*
X74000Y-55450D03*
X74000Y-56050D03*
X64750Y-48300D03*
X64750Y-47700D03*
X64000Y-49800D03*
X64000Y-49200D03*
X72500Y-55450D03*
X72500Y-56050D03*
X64000Y-48300D03*
X64000Y-47700D03*
G54D17*
X75700Y-60000D03*
X76300Y-60000D03*
G54D11*
X71000Y-55450D03*
X71000Y-56050D03*
X68000Y-55450D03*
X68000Y-56050D03*
X69500Y-55450D03*
X69500Y-56050D03*
G54D15*
X63600Y-54750D03*
G54D16*
X64500Y-52250D03*
G54D15*
X65400Y-54750D03*
G54D13*
X64000Y-57569D03*
G54D14*
X64000Y-59931D03*
G54D11*
X66500Y-55200D03*
X66500Y-55800D03*
G54D12*
X77591Y-60750D03*
X78909Y-60750D03*
X69909Y-60750D03*
X68591Y-60750D03*
X69909Y-59250D03*
X68591Y-59250D03*
X77591Y-60000D03*
X78909Y-60000D03*
X69909Y-60000D03*
X68591Y-60000D03*
G54D11*
X74250Y-61550D03*
X74250Y-60950D03*
X72750Y-61550D03*
X72750Y-60950D03*
X72000Y-61550D03*
X72000Y-60950D03*
X73500Y-61550D03*
X73500Y-60950D03*
X71250Y-60950D03*
X71250Y-61550D03*
G54D21*
X77084Y-42625D03*
X77916Y-43000D03*
X77084Y-43375D03*
G54D12*
X85409Y-34000D03*
X84091Y-34000D03*
G54D22*
X81000Y-40300D03*
X81000Y-38200D03*
X80500Y-40300D03*
X80000Y-40300D03*
X79500Y-40300D03*
X80500Y-38200D03*
X80000Y-38200D03*
X79500Y-38200D03*
G54D18*
X69500Y-43850D03*
X69500Y-45150D03*
G54D17*
X89950Y-37500D03*
X90550Y-37500D03*
G54D11*
X83750Y-41950D03*
X83750Y-42550D03*
X81000Y-41450D03*
X81000Y-42050D03*
X85500Y-41950D03*
X85500Y-42550D03*
G54D17*
X88700Y-37500D03*
X89300Y-37500D03*
G54D11*
X81000Y-36950D03*
X81000Y-37550D03*
X77500Y-41450D03*
X77500Y-42050D03*
X82000Y-38950D03*
X82000Y-39550D03*
X82000Y-40200D03*
X82000Y-40800D03*
X83250Y-37550D03*
X83250Y-36950D03*
G54D17*
X75950Y-45500D03*
X76550Y-45500D03*
G54D11*
X76750Y-41450D03*
X76750Y-42050D03*
G54D17*
X86300Y-31750D03*
X85700Y-31750D03*
G54D11*
X79500Y-36950D03*
X79500Y-37550D03*
G54D17*
X89950Y-36750D03*
X90550Y-36750D03*
X88700Y-36750D03*
X89300Y-36750D03*
X89950Y-36000D03*
X90550Y-36000D03*
X88700Y-36000D03*
X89300Y-36000D03*
X86300Y-36000D03*
X85700Y-36000D03*
G54D23*
X87000Y-33100D03*
G54D16*
X89500Y-34000D03*
G54D23*
X87000Y-34900D03*
G54D24*
X82431Y-35000D03*
G54D25*
X80069Y-35000D03*
G54D24*
X76069Y-35000D03*
G54D25*
X78431Y-35000D03*
G54D19*
X77250Y-38150D03*
X76750Y-38150D03*
X76250Y-38150D03*
X75750Y-38150D03*
X75250Y-38150D03*
X74750Y-38150D03*
X74250Y-38150D03*
X74250Y-40250D03*
X74750Y-40250D03*
X75250Y-40250D03*
X75750Y-40250D03*
X76250Y-40250D03*
X76750Y-40250D03*
X77250Y-40250D03*
G54D12*
X76841Y-36750D03*
X78159Y-36750D03*
X74159Y-36250D03*
X72841Y-36250D03*
X71750Y-41591D03*
X71750Y-42909D03*
X72750Y-41591D03*
X72750Y-42909D03*
G54D17*
X72300Y-37500D03*
X71700Y-37500D03*
X72300Y-38500D03*
X71700Y-38500D03*
X72300Y-39500D03*
X71700Y-39500D03*
X72300Y-40500D03*
X71700Y-40500D03*
G54D19*
X83250Y-40350D03*
X83750Y-40350D03*
X84250Y-40350D03*
X84750Y-40350D03*
X85250Y-40350D03*
X85750Y-40350D03*
X86250Y-40350D03*
X86250Y-38250D03*
X85750Y-38250D03*
X85250Y-38250D03*
X84750Y-38250D03*
X84250Y-38250D03*
X83750Y-38250D03*
X83250Y-38250D03*
G54D26*
X89500Y-44500D03*
G54D27*
X86902Y-43500D03*
X86902Y-44000D03*
X86902Y-45000D03*
X86902Y-45500D03*
M02*
