G04 (created by PCBNEW (2013-may-18)-stable) date Wed 22 Oct 2014 05:26:26 PM CEST*
%MOIN*%
G04 Gerber Fmt 3.4, Leading zero omitted, Abs format*
%FSLAX34Y34*%
G01*
G70*
G90*
G04 APERTURE LIST*
%ADD10C,0.00590551*%
%ADD11R,0.045X0.025*%
%ADD12R,0.0335X0.0335*%
%ADD13R,0.1063X0.1004*%
%ADD14R,0.1496X0.1004*%
%ADD15R,0.065X0.12*%
%ADD16R,0.24X0.24*%
%ADD17R,0.025X0.045*%
%ADD18R,0.08X0.06*%
%ADD19R,0.02X0.045*%
%ADD20R,0.0236X0.0394*%
%ADD21C,0.12*%
%ADD22R,0.06X0.06*%
%ADD23C,0.06*%
%ADD24C,0.137795*%
%ADD25C,0.11811*%
%ADD26R,0.0591X0.0591*%
%ADD27C,0.0591*%
%ADD28C,0.0984252*%
%ADD29C,0.0689*%
%ADD30C,0.055*%
%ADD31R,0.0394X0.0236*%
%ADD32R,0.0236X0.0551*%
%ADD33C,0.1437*%
%ADD34R,0.12X0.065*%
%ADD35R,0.1004X0.1063*%
%ADD36R,0.1004X0.1496*%
%ADD37R,0.1X0.1*%
%ADD38C,0.1*%
%ADD39R,0.055X0.055*%
%ADD40C,0.177165*%
%ADD41R,0.2677X0.2461*%
%ADD42R,0.1181X0.0319*%
%ADD43C,0.1575*%
G04 APERTURE END LIST*
G54D10*
G54D11*
X52750Y-77950D03*
X52750Y-78550D03*
X55000Y-78550D03*
X55000Y-77950D03*
X53500Y-78550D03*
X53500Y-77950D03*
X54250Y-78550D03*
X54250Y-77950D03*
X55750Y-78550D03*
X55750Y-77950D03*
G54D12*
X51409Y-77000D03*
X50091Y-77000D03*
X59091Y-77000D03*
X60409Y-77000D03*
X51409Y-76250D03*
X50091Y-76250D03*
X51409Y-77750D03*
X50091Y-77750D03*
X59091Y-77750D03*
X60409Y-77750D03*
G54D11*
X48000Y-72200D03*
X48000Y-72800D03*
G54D13*
X45500Y-74569D03*
G54D14*
X45500Y-76931D03*
G54D15*
X45100Y-71750D03*
G54D16*
X46000Y-69250D03*
G54D15*
X46900Y-71750D03*
G54D11*
X51000Y-72450D03*
X51000Y-73050D03*
X49500Y-72450D03*
X49500Y-73050D03*
X52500Y-72450D03*
X52500Y-73050D03*
G54D17*
X57200Y-77000D03*
X57800Y-77000D03*
G54D11*
X45500Y-65300D03*
X45500Y-64700D03*
X54000Y-72450D03*
X54000Y-73050D03*
X45500Y-66800D03*
X45500Y-66200D03*
X46250Y-65300D03*
X46250Y-64700D03*
X55500Y-72450D03*
X55500Y-73050D03*
X57000Y-72450D03*
X57000Y-73050D03*
X58500Y-72450D03*
X58500Y-73050D03*
X44000Y-72200D03*
X44000Y-72800D03*
X60000Y-72450D03*
X60000Y-73050D03*
X46250Y-66800D03*
X46250Y-66200D03*
G54D18*
X49500Y-69900D03*
X49500Y-68600D03*
X60000Y-69900D03*
X60000Y-68600D03*
X58500Y-69900D03*
X58500Y-68600D03*
X57000Y-69900D03*
X57000Y-68600D03*
X51000Y-69900D03*
X51000Y-68600D03*
X54000Y-69900D03*
X54000Y-68600D03*
X52500Y-69900D03*
X52500Y-68600D03*
X55500Y-69900D03*
X55500Y-68600D03*
G54D19*
X56500Y-75000D03*
X56000Y-75000D03*
X55500Y-75000D03*
X55000Y-75000D03*
X54500Y-75000D03*
X54000Y-75000D03*
X53500Y-75000D03*
X53000Y-75000D03*
X53000Y-77000D03*
X53500Y-77000D03*
X54000Y-77000D03*
X54500Y-77000D03*
X55000Y-77000D03*
X55500Y-77000D03*
X56000Y-77000D03*
X56500Y-77000D03*
G54D12*
X45591Y-73250D03*
X46909Y-73250D03*
G54D20*
X53625Y-71666D03*
X54000Y-70834D03*
X54375Y-71666D03*
X55125Y-71666D03*
X55500Y-70834D03*
X55875Y-71666D03*
X56625Y-71666D03*
X57000Y-70834D03*
X57375Y-71666D03*
X49125Y-71666D03*
X49500Y-70834D03*
X49875Y-71666D03*
X58125Y-71666D03*
X58500Y-70834D03*
X58875Y-71666D03*
X52125Y-71666D03*
X52500Y-70834D03*
X52875Y-71666D03*
X59625Y-71666D03*
X60000Y-70834D03*
X60375Y-71666D03*
X50625Y-71666D03*
X51000Y-70834D03*
X51375Y-71666D03*
G54D13*
X48000Y-74569D03*
G54D14*
X48000Y-76931D03*
G54D21*
X57300Y-65800D03*
X48700Y-65800D03*
G54D22*
X51000Y-66500D03*
G54D23*
X51000Y-65500D03*
X52000Y-66500D03*
X52000Y-65500D03*
X53000Y-66500D03*
X53000Y-65500D03*
X54000Y-66500D03*
X54000Y-65500D03*
X55000Y-66500D03*
X55000Y-65500D03*
G54D24*
X61850Y-65150D03*
X61850Y-84850D03*
X44150Y-84850D03*
X44150Y-65150D03*
G54D25*
X51250Y-83250D03*
X46750Y-83250D03*
G54D26*
X47250Y-80750D03*
G54D27*
X47750Y-79750D03*
X48250Y-80750D03*
X48750Y-79750D03*
X49250Y-80750D03*
X49750Y-79750D03*
X50250Y-80750D03*
X50750Y-79750D03*
G54D28*
X45950Y-82049D03*
X52050Y-82049D03*
G54D25*
X59250Y-83250D03*
X54750Y-83250D03*
G54D26*
X55250Y-80750D03*
G54D27*
X55750Y-79750D03*
X56250Y-80750D03*
X56750Y-79750D03*
X57250Y-80750D03*
X57750Y-79750D03*
X58250Y-80750D03*
X58750Y-79750D03*
G54D28*
X53950Y-82049D03*
X60050Y-82049D03*
G54D25*
X39500Y-83250D03*
X35000Y-83250D03*
G54D26*
X35500Y-80750D03*
G54D27*
X36000Y-79750D03*
X36500Y-80750D03*
X37000Y-79750D03*
X37500Y-80750D03*
X38000Y-79750D03*
X38500Y-80750D03*
X39000Y-79750D03*
G54D28*
X34200Y-82049D03*
X40300Y-82049D03*
G54D25*
X31500Y-83250D03*
X27000Y-83250D03*
G54D26*
X27500Y-80750D03*
G54D27*
X28000Y-79750D03*
X28500Y-80750D03*
X29000Y-79750D03*
X29500Y-80750D03*
X30000Y-79750D03*
X30500Y-80750D03*
X31000Y-79750D03*
G54D28*
X26200Y-82049D03*
X32300Y-82049D03*
G54D24*
X24400Y-65150D03*
X24400Y-84850D03*
X42100Y-84850D03*
X42100Y-65150D03*
G54D21*
X37550Y-65800D03*
X28950Y-65800D03*
G54D22*
X31250Y-66500D03*
G54D23*
X31250Y-65500D03*
X32250Y-66500D03*
X32250Y-65500D03*
X33250Y-66500D03*
X33250Y-65500D03*
X34250Y-66500D03*
X34250Y-65500D03*
X35250Y-66500D03*
X35250Y-65500D03*
G54D13*
X28250Y-74569D03*
G54D14*
X28250Y-76931D03*
G54D20*
X30875Y-71666D03*
X31250Y-70834D03*
X31625Y-71666D03*
X39875Y-71666D03*
X40250Y-70834D03*
X40625Y-71666D03*
X32375Y-71666D03*
X32750Y-70834D03*
X33125Y-71666D03*
X38375Y-71666D03*
X38750Y-70834D03*
X39125Y-71666D03*
X29375Y-71666D03*
X29750Y-70834D03*
X30125Y-71666D03*
X36875Y-71666D03*
X37250Y-70834D03*
X37625Y-71666D03*
X35375Y-71666D03*
X35750Y-70834D03*
X36125Y-71666D03*
X33875Y-71666D03*
X34250Y-70834D03*
X34625Y-71666D03*
G54D12*
X25841Y-73250D03*
X27159Y-73250D03*
G54D19*
X36750Y-75000D03*
X36250Y-75000D03*
X35750Y-75000D03*
X35250Y-75000D03*
X34750Y-75000D03*
X34250Y-75000D03*
X33750Y-75000D03*
X33250Y-75000D03*
X33250Y-77000D03*
X33750Y-77000D03*
X34250Y-77000D03*
X34750Y-77000D03*
X35250Y-77000D03*
X35750Y-77000D03*
X36250Y-77000D03*
X36750Y-77000D03*
G54D18*
X35750Y-69900D03*
X35750Y-68600D03*
X32750Y-69900D03*
X32750Y-68600D03*
X34250Y-69900D03*
X34250Y-68600D03*
X31250Y-69900D03*
X31250Y-68600D03*
X37250Y-69900D03*
X37250Y-68600D03*
X38750Y-69900D03*
X38750Y-68600D03*
X40250Y-69900D03*
X40250Y-68600D03*
X29750Y-69900D03*
X29750Y-68600D03*
G54D11*
X26500Y-66800D03*
X26500Y-66200D03*
X40250Y-72450D03*
X40250Y-73050D03*
X24250Y-72200D03*
X24250Y-72800D03*
X38750Y-72450D03*
X38750Y-73050D03*
X37250Y-72450D03*
X37250Y-73050D03*
X35750Y-72450D03*
X35750Y-73050D03*
X26500Y-65300D03*
X26500Y-64700D03*
X25750Y-66800D03*
X25750Y-66200D03*
X34250Y-72450D03*
X34250Y-73050D03*
X25750Y-65300D03*
X25750Y-64700D03*
G54D17*
X37450Y-77000D03*
X38050Y-77000D03*
G54D11*
X32750Y-72450D03*
X32750Y-73050D03*
X29750Y-72450D03*
X29750Y-73050D03*
X31250Y-72450D03*
X31250Y-73050D03*
G54D15*
X25350Y-71750D03*
G54D16*
X26250Y-69250D03*
G54D15*
X27150Y-71750D03*
G54D13*
X25750Y-74569D03*
G54D14*
X25750Y-76931D03*
G54D11*
X28250Y-72200D03*
X28250Y-72800D03*
G54D12*
X39341Y-77750D03*
X40659Y-77750D03*
X31659Y-77750D03*
X30341Y-77750D03*
X31659Y-76250D03*
X30341Y-76250D03*
X39341Y-77000D03*
X40659Y-77000D03*
X31659Y-77000D03*
X30341Y-77000D03*
G54D11*
X36000Y-78550D03*
X36000Y-77950D03*
X34500Y-78550D03*
X34500Y-77950D03*
X33750Y-78550D03*
X33750Y-77950D03*
X35250Y-78550D03*
X35250Y-77950D03*
X33000Y-77950D03*
X33000Y-78550D03*
G54D29*
X43984Y-60258D03*
X43000Y-61242D03*
X42016Y-60258D03*
G54D30*
X50250Y-56250D03*
X52250Y-56250D03*
X50250Y-59250D03*
X52250Y-59250D03*
G54D31*
X38834Y-59375D03*
X39666Y-59750D03*
X38834Y-60125D03*
G54D12*
X47159Y-50750D03*
X45841Y-50750D03*
G54D32*
X42750Y-57050D03*
X42750Y-54950D03*
X42250Y-57050D03*
X41750Y-57050D03*
X41250Y-57050D03*
X42250Y-54950D03*
X41750Y-54950D03*
X41250Y-54950D03*
G54D18*
X31250Y-60600D03*
X31250Y-61900D03*
G54D17*
X51700Y-54250D03*
X52300Y-54250D03*
G54D11*
X45500Y-58700D03*
X45500Y-59300D03*
X42750Y-58200D03*
X42750Y-58800D03*
X47250Y-58700D03*
X47250Y-59300D03*
G54D17*
X50450Y-54250D03*
X51050Y-54250D03*
G54D11*
X42750Y-53700D03*
X42750Y-54300D03*
X39250Y-58200D03*
X39250Y-58800D03*
X43750Y-55700D03*
X43750Y-56300D03*
X43750Y-56950D03*
X43750Y-57550D03*
X45000Y-54300D03*
X45000Y-53700D03*
G54D17*
X37700Y-62250D03*
X38300Y-62250D03*
G54D11*
X38500Y-58200D03*
X38500Y-58800D03*
G54D17*
X48050Y-48500D03*
X47450Y-48500D03*
G54D11*
X41250Y-53700D03*
X41250Y-54300D03*
G54D17*
X51700Y-53500D03*
X52300Y-53500D03*
X50450Y-53500D03*
X51050Y-53500D03*
X51700Y-52750D03*
X52300Y-52750D03*
X50450Y-52750D03*
X51050Y-52750D03*
X48050Y-52750D03*
X47450Y-52750D03*
G54D33*
X27750Y-58250D03*
X27750Y-53750D03*
G54D26*
X30250Y-54250D03*
G54D27*
X31250Y-54750D03*
X30250Y-55250D03*
X31250Y-55750D03*
X30250Y-56250D03*
X31250Y-56750D03*
X30250Y-57250D03*
X31250Y-57750D03*
G54D28*
X28950Y-52950D03*
X28950Y-59050D03*
G54D34*
X48750Y-49850D03*
G54D16*
X51250Y-50750D03*
G54D34*
X48750Y-51650D03*
G54D35*
X44181Y-51750D03*
G54D36*
X41819Y-51750D03*
G54D35*
X37819Y-51750D03*
G54D36*
X40181Y-51750D03*
G54D37*
X42000Y-48250D03*
G54D38*
X40000Y-48250D03*
G54D19*
X39000Y-54900D03*
X38500Y-54900D03*
X38000Y-54900D03*
X37500Y-54900D03*
X37000Y-54900D03*
X36500Y-54900D03*
X36000Y-54900D03*
X36000Y-57000D03*
X36500Y-57000D03*
X37000Y-57000D03*
X37500Y-57000D03*
X38000Y-57000D03*
X38500Y-57000D03*
X39000Y-57000D03*
G54D39*
X34000Y-61250D03*
G54D30*
X35000Y-61250D03*
X36000Y-61250D03*
X37000Y-61250D03*
X38000Y-61250D03*
X39000Y-61250D03*
X40000Y-61250D03*
G54D40*
X25000Y-48250D03*
X54500Y-48250D03*
X54500Y-62250D03*
X25000Y-62250D03*
G54D12*
X38591Y-53500D03*
X39909Y-53500D03*
X35909Y-53000D03*
X34591Y-53000D03*
X33500Y-58341D03*
X33500Y-59659D03*
X34500Y-58341D03*
X34500Y-59659D03*
G54D17*
X34050Y-54250D03*
X33450Y-54250D03*
X34050Y-55250D03*
X33450Y-55250D03*
X34050Y-56250D03*
X33450Y-56250D03*
X34050Y-57250D03*
X33450Y-57250D03*
G54D19*
X45000Y-57100D03*
X45500Y-57100D03*
X46000Y-57100D03*
X46500Y-57100D03*
X47000Y-57100D03*
X47500Y-57100D03*
X48000Y-57100D03*
X48000Y-55000D03*
X47500Y-55000D03*
X47000Y-55000D03*
X46500Y-55000D03*
X46000Y-55000D03*
X45500Y-55000D03*
X45000Y-55000D03*
G54D41*
X51250Y-61250D03*
G54D42*
X48652Y-60250D03*
X48652Y-60750D03*
X48652Y-61750D03*
X48652Y-62250D03*
G54D43*
X27000Y-50250D03*
X36000Y-50250D03*
M02*
