G04 (created by PCBNEW (2013-may-18)-stable) date Tue 21 Oct 2014 09:53:05 PM CEST*
%MOIN*%
G04 Gerber Fmt 3.4, Leading zero omitted, Abs format*
%FSLAX34Y34*%
G01*
G70*
G90*
G04 APERTURE LIST*
%ADD10C,0.00590551*%
%ADD11C,0.00787402*%
%ADD12C,0.011811*%
%ADD13C,0.00984252*%
%ADD14C,0.0001*%
G04 APERTURE END LIST*
G54D10*
G54D11*
X81250Y-47250D02*
X81250Y-68750D01*
X61750Y-68750D02*
X81250Y-68750D01*
X61750Y-47250D02*
X61750Y-68750D01*
X81250Y-47250D02*
X61750Y-47250D01*
X81500Y-68750D02*
X81500Y-47250D01*
X101000Y-68750D02*
X81500Y-68750D01*
X101000Y-47250D02*
X101000Y-68750D01*
X81500Y-47250D02*
X101000Y-47250D01*
G54D12*
X98625Y-56098D02*
X98232Y-56098D01*
X98485Y-56689D01*
X97585Y-56660D02*
X97529Y-56689D01*
X97416Y-56689D01*
X97360Y-56660D01*
X97332Y-56604D01*
X97332Y-56576D01*
X97360Y-56520D01*
X97416Y-56492D01*
X97500Y-56492D01*
X97557Y-56464D01*
X97585Y-56407D01*
X97585Y-56379D01*
X97557Y-56323D01*
X97500Y-56295D01*
X97416Y-56295D01*
X97360Y-56323D01*
X96854Y-56660D02*
X96910Y-56689D01*
X97022Y-56689D01*
X97079Y-56660D01*
X97107Y-56604D01*
X97107Y-56379D01*
X97079Y-56323D01*
X97022Y-56295D01*
X96910Y-56295D01*
X96854Y-56323D01*
X96825Y-56379D01*
X96825Y-56435D01*
X97107Y-56492D01*
X96319Y-56295D02*
X96319Y-56773D01*
X96347Y-56829D01*
X96376Y-56857D01*
X96432Y-56885D01*
X96516Y-56885D01*
X96572Y-56857D01*
X96319Y-56660D02*
X96376Y-56689D01*
X96488Y-56689D01*
X96544Y-56660D01*
X96572Y-56632D01*
X96601Y-56576D01*
X96601Y-56407D01*
X96572Y-56351D01*
X96544Y-56323D01*
X96488Y-56295D01*
X96376Y-56295D01*
X96319Y-56323D01*
X96038Y-56689D02*
X96038Y-56295D01*
X96038Y-56351D02*
X96010Y-56323D01*
X95954Y-56295D01*
X95869Y-56295D01*
X95813Y-56323D01*
X95785Y-56379D01*
X95785Y-56689D01*
X95785Y-56379D02*
X95757Y-56323D01*
X95701Y-56295D01*
X95616Y-56295D01*
X95560Y-56323D01*
X95532Y-56379D01*
X95532Y-56689D01*
X95026Y-56660D02*
X95082Y-56689D01*
X95194Y-56689D01*
X95251Y-56660D01*
X95279Y-56604D01*
X95279Y-56379D01*
X95251Y-56323D01*
X95194Y-56295D01*
X95082Y-56295D01*
X95026Y-56323D01*
X94998Y-56379D01*
X94998Y-56435D01*
X95279Y-56492D01*
X94744Y-56295D02*
X94744Y-56689D01*
X94744Y-56351D02*
X94716Y-56323D01*
X94660Y-56295D01*
X94576Y-56295D01*
X94520Y-56323D01*
X94491Y-56379D01*
X94491Y-56689D01*
X94295Y-56295D02*
X94070Y-56295D01*
X94210Y-56098D02*
X94210Y-56604D01*
X94182Y-56660D01*
X94126Y-56689D01*
X94070Y-56689D01*
X93338Y-56689D02*
X93395Y-56660D01*
X93423Y-56604D01*
X93423Y-56098D01*
X92888Y-56660D02*
X92945Y-56689D01*
X93057Y-56689D01*
X93113Y-56660D01*
X93142Y-56604D01*
X93142Y-56379D01*
X93113Y-56323D01*
X93057Y-56295D01*
X92945Y-56295D01*
X92888Y-56323D01*
X92860Y-56379D01*
X92860Y-56435D01*
X93142Y-56492D01*
X92354Y-56689D02*
X92354Y-56098D01*
X92354Y-56660D02*
X92410Y-56689D01*
X92523Y-56689D01*
X92579Y-56660D01*
X92607Y-56632D01*
X92635Y-56576D01*
X92635Y-56407D01*
X92607Y-56351D01*
X92579Y-56323D01*
X92523Y-56295D01*
X92410Y-56295D01*
X92354Y-56323D01*
X91370Y-56689D02*
X91370Y-56098D01*
X91370Y-56660D02*
X91426Y-56689D01*
X91539Y-56689D01*
X91595Y-56660D01*
X91623Y-56632D01*
X91651Y-56576D01*
X91651Y-56407D01*
X91623Y-56351D01*
X91595Y-56323D01*
X91539Y-56295D01*
X91426Y-56295D01*
X91370Y-56323D01*
X91089Y-56689D02*
X91089Y-56295D01*
X91089Y-56098D02*
X91117Y-56126D01*
X91089Y-56154D01*
X91061Y-56126D01*
X91089Y-56098D01*
X91089Y-56154D01*
X90836Y-56660D02*
X90779Y-56689D01*
X90667Y-56689D01*
X90611Y-56660D01*
X90583Y-56604D01*
X90583Y-56576D01*
X90611Y-56520D01*
X90667Y-56492D01*
X90751Y-56492D01*
X90807Y-56464D01*
X90836Y-56407D01*
X90836Y-56379D01*
X90807Y-56323D01*
X90751Y-56295D01*
X90667Y-56295D01*
X90611Y-56323D01*
X90329Y-56295D02*
X90329Y-56885D01*
X90329Y-56323D02*
X90273Y-56295D01*
X90161Y-56295D01*
X90104Y-56323D01*
X90076Y-56351D01*
X90048Y-56407D01*
X90048Y-56576D01*
X90076Y-56632D01*
X90104Y-56660D01*
X90161Y-56689D01*
X90273Y-56689D01*
X90329Y-56660D01*
X89711Y-56689D02*
X89767Y-56660D01*
X89795Y-56604D01*
X89795Y-56098D01*
X89233Y-56689D02*
X89233Y-56379D01*
X89261Y-56323D01*
X89317Y-56295D01*
X89430Y-56295D01*
X89486Y-56323D01*
X89233Y-56660D02*
X89289Y-56689D01*
X89430Y-56689D01*
X89486Y-56660D01*
X89514Y-56604D01*
X89514Y-56548D01*
X89486Y-56492D01*
X89430Y-56464D01*
X89289Y-56464D01*
X89233Y-56435D01*
X89008Y-56295D02*
X88867Y-56689D01*
X88726Y-56295D02*
X88867Y-56689D01*
X88923Y-56829D01*
X88951Y-56857D01*
X89008Y-56885D01*
X87798Y-56689D02*
X87798Y-56098D01*
X87798Y-56660D02*
X87855Y-56689D01*
X87967Y-56689D01*
X88023Y-56660D01*
X88052Y-56632D01*
X88080Y-56576D01*
X88080Y-56407D01*
X88052Y-56351D01*
X88023Y-56323D01*
X87967Y-56295D01*
X87855Y-56295D01*
X87798Y-56323D01*
X87517Y-56689D02*
X87517Y-56295D01*
X87517Y-56407D02*
X87489Y-56351D01*
X87461Y-56323D01*
X87405Y-56295D01*
X87349Y-56295D01*
X87152Y-56689D02*
X87152Y-56295D01*
X87152Y-56098D02*
X87180Y-56126D01*
X87152Y-56154D01*
X87124Y-56126D01*
X87152Y-56098D01*
X87152Y-56154D01*
X86927Y-56295D02*
X86786Y-56689D01*
X86646Y-56295D01*
X86196Y-56660D02*
X86252Y-56689D01*
X86364Y-56689D01*
X86421Y-56660D01*
X86449Y-56604D01*
X86449Y-56379D01*
X86421Y-56323D01*
X86364Y-56295D01*
X86252Y-56295D01*
X86196Y-56323D01*
X86167Y-56379D01*
X86167Y-56435D01*
X86449Y-56492D01*
X85914Y-56689D02*
X85914Y-56295D01*
X85914Y-56407D02*
X85886Y-56351D01*
X85858Y-56323D01*
X85802Y-56295D01*
X85746Y-56295D01*
G54D13*
X98558Y-57509D02*
X98558Y-57115D01*
X98389Y-57509D02*
X98389Y-57303D01*
X98408Y-57265D01*
X98445Y-57246D01*
X98502Y-57246D01*
X98539Y-57265D01*
X98558Y-57284D01*
X98258Y-57246D02*
X98108Y-57246D01*
X98202Y-57115D02*
X98202Y-57453D01*
X98183Y-57490D01*
X98146Y-57509D01*
X98108Y-57509D01*
X98033Y-57246D02*
X97883Y-57246D01*
X97977Y-57115D02*
X97977Y-57453D01*
X97958Y-57490D01*
X97921Y-57509D01*
X97883Y-57509D01*
X97752Y-57246D02*
X97752Y-57640D01*
X97752Y-57265D02*
X97714Y-57246D01*
X97639Y-57246D01*
X97602Y-57265D01*
X97583Y-57284D01*
X97564Y-57321D01*
X97564Y-57434D01*
X97583Y-57471D01*
X97602Y-57490D01*
X97639Y-57509D01*
X97714Y-57509D01*
X97752Y-57490D01*
X97414Y-57490D02*
X97377Y-57509D01*
X97302Y-57509D01*
X97264Y-57490D01*
X97246Y-57453D01*
X97246Y-57434D01*
X97264Y-57396D01*
X97302Y-57378D01*
X97358Y-57378D01*
X97396Y-57359D01*
X97414Y-57321D01*
X97414Y-57303D01*
X97396Y-57265D01*
X97358Y-57246D01*
X97302Y-57246D01*
X97264Y-57265D01*
X97077Y-57471D02*
X97058Y-57490D01*
X97077Y-57509D01*
X97096Y-57490D01*
X97077Y-57471D01*
X97077Y-57509D01*
X97077Y-57265D02*
X97058Y-57284D01*
X97077Y-57303D01*
X97096Y-57284D01*
X97077Y-57265D01*
X97077Y-57303D01*
X96608Y-57096D02*
X96946Y-57603D01*
X96196Y-57096D02*
X96533Y-57603D01*
X95896Y-57246D02*
X95896Y-57565D01*
X95915Y-57603D01*
X95933Y-57621D01*
X95971Y-57640D01*
X96027Y-57640D01*
X96065Y-57621D01*
X95896Y-57490D02*
X95933Y-57509D01*
X96008Y-57509D01*
X96046Y-57490D01*
X96065Y-57471D01*
X96083Y-57434D01*
X96083Y-57321D01*
X96065Y-57284D01*
X96046Y-57265D01*
X96008Y-57246D01*
X95933Y-57246D01*
X95896Y-57265D01*
X95708Y-57509D02*
X95708Y-57246D01*
X95708Y-57115D02*
X95727Y-57134D01*
X95708Y-57153D01*
X95690Y-57134D01*
X95708Y-57115D01*
X95708Y-57153D01*
X95577Y-57246D02*
X95427Y-57246D01*
X95521Y-57115D02*
X95521Y-57453D01*
X95502Y-57490D01*
X95465Y-57509D01*
X95427Y-57509D01*
X95296Y-57509D02*
X95296Y-57115D01*
X95127Y-57509D02*
X95127Y-57303D01*
X95146Y-57265D01*
X95183Y-57246D01*
X95240Y-57246D01*
X95277Y-57265D01*
X95296Y-57284D01*
X94771Y-57246D02*
X94771Y-57509D01*
X94940Y-57246D02*
X94940Y-57453D01*
X94921Y-57490D01*
X94883Y-57509D01*
X94827Y-57509D01*
X94790Y-57490D01*
X94771Y-57471D01*
X94583Y-57509D02*
X94583Y-57115D01*
X94583Y-57265D02*
X94546Y-57246D01*
X94471Y-57246D01*
X94433Y-57265D01*
X94415Y-57284D01*
X94396Y-57321D01*
X94396Y-57434D01*
X94415Y-57471D01*
X94433Y-57490D01*
X94471Y-57509D01*
X94546Y-57509D01*
X94583Y-57490D01*
X94227Y-57471D02*
X94209Y-57490D01*
X94227Y-57509D01*
X94246Y-57490D01*
X94227Y-57471D01*
X94227Y-57509D01*
X93871Y-57490D02*
X93909Y-57509D01*
X93984Y-57509D01*
X94021Y-57490D01*
X94040Y-57471D01*
X94059Y-57434D01*
X94059Y-57321D01*
X94040Y-57284D01*
X94021Y-57265D01*
X93984Y-57246D01*
X93909Y-57246D01*
X93871Y-57265D01*
X93646Y-57509D02*
X93684Y-57490D01*
X93702Y-57471D01*
X93721Y-57434D01*
X93721Y-57321D01*
X93702Y-57284D01*
X93684Y-57265D01*
X93646Y-57246D01*
X93590Y-57246D01*
X93552Y-57265D01*
X93534Y-57284D01*
X93515Y-57321D01*
X93515Y-57434D01*
X93534Y-57471D01*
X93552Y-57490D01*
X93590Y-57509D01*
X93646Y-57509D01*
X93346Y-57509D02*
X93346Y-57246D01*
X93346Y-57284D02*
X93327Y-57265D01*
X93290Y-57246D01*
X93234Y-57246D01*
X93196Y-57265D01*
X93177Y-57303D01*
X93177Y-57509D01*
X93177Y-57303D02*
X93159Y-57265D01*
X93121Y-57246D01*
X93065Y-57246D01*
X93027Y-57265D01*
X93009Y-57303D01*
X93009Y-57509D01*
X92540Y-57096D02*
X92877Y-57603D01*
X92221Y-57509D02*
X92409Y-57509D01*
X92409Y-57115D01*
X92034Y-57509D02*
X92071Y-57490D01*
X92090Y-57471D01*
X92109Y-57434D01*
X92109Y-57321D01*
X92090Y-57284D01*
X92071Y-57265D01*
X92034Y-57246D01*
X91978Y-57246D01*
X91940Y-57265D01*
X91921Y-57284D01*
X91903Y-57321D01*
X91903Y-57434D01*
X91921Y-57471D01*
X91940Y-57490D01*
X91978Y-57509D01*
X92034Y-57509D01*
X91734Y-57246D02*
X91734Y-57509D01*
X91734Y-57284D02*
X91715Y-57265D01*
X91678Y-57246D01*
X91621Y-57246D01*
X91584Y-57265D01*
X91565Y-57303D01*
X91565Y-57509D01*
X91209Y-57246D02*
X91209Y-57565D01*
X91228Y-57603D01*
X91246Y-57621D01*
X91284Y-57640D01*
X91340Y-57640D01*
X91378Y-57621D01*
X91209Y-57490D02*
X91246Y-57509D01*
X91321Y-57509D01*
X91359Y-57490D01*
X91378Y-57471D01*
X91396Y-57434D01*
X91396Y-57321D01*
X91378Y-57284D01*
X91359Y-57265D01*
X91321Y-57246D01*
X91246Y-57246D01*
X91209Y-57265D01*
X91021Y-57509D02*
X91021Y-57115D01*
X91021Y-57303D02*
X90796Y-57303D01*
X90796Y-57509D02*
X90796Y-57115D01*
X90440Y-57509D02*
X90440Y-57303D01*
X90459Y-57265D01*
X90496Y-57246D01*
X90571Y-57246D01*
X90609Y-57265D01*
X90440Y-57490D02*
X90478Y-57509D01*
X90571Y-57509D01*
X90609Y-57490D01*
X90628Y-57453D01*
X90628Y-57415D01*
X90609Y-57378D01*
X90571Y-57359D01*
X90478Y-57359D01*
X90440Y-57340D01*
X90253Y-57509D02*
X90253Y-57246D01*
X90253Y-57115D02*
X90272Y-57134D01*
X90253Y-57153D01*
X90234Y-57134D01*
X90253Y-57115D01*
X90253Y-57153D01*
X90065Y-57509D02*
X90065Y-57246D01*
X90065Y-57321D02*
X90047Y-57284D01*
X90028Y-57265D01*
X89990Y-57246D01*
X89953Y-57246D01*
X89672Y-57490D02*
X89709Y-57509D01*
X89784Y-57509D01*
X89822Y-57490D01*
X89840Y-57453D01*
X89840Y-57303D01*
X89822Y-57265D01*
X89784Y-57246D01*
X89709Y-57246D01*
X89672Y-57265D01*
X89653Y-57303D01*
X89653Y-57340D01*
X89840Y-57378D01*
X89315Y-57509D02*
X89315Y-57115D01*
X89315Y-57490D02*
X89353Y-57509D01*
X89428Y-57509D01*
X89465Y-57490D01*
X89484Y-57471D01*
X89503Y-57434D01*
X89503Y-57321D01*
X89484Y-57284D01*
X89465Y-57265D01*
X89428Y-57246D01*
X89353Y-57246D01*
X89315Y-57265D01*
X89128Y-57509D02*
X89128Y-57115D01*
X89128Y-57303D02*
X88903Y-57303D01*
X88903Y-57509D02*
X88903Y-57115D01*
X88547Y-57509D02*
X88547Y-57303D01*
X88565Y-57265D01*
X88603Y-57246D01*
X88678Y-57246D01*
X88715Y-57265D01*
X88547Y-57490D02*
X88584Y-57509D01*
X88678Y-57509D01*
X88715Y-57490D01*
X88734Y-57453D01*
X88734Y-57415D01*
X88715Y-57378D01*
X88678Y-57359D01*
X88584Y-57359D01*
X88547Y-57340D01*
X88191Y-57490D02*
X88228Y-57509D01*
X88303Y-57509D01*
X88341Y-57490D01*
X88359Y-57471D01*
X88378Y-57434D01*
X88378Y-57321D01*
X88359Y-57284D01*
X88341Y-57265D01*
X88303Y-57246D01*
X88228Y-57246D01*
X88191Y-57265D01*
X88022Y-57509D02*
X88022Y-57115D01*
X87984Y-57359D02*
X87872Y-57509D01*
X87872Y-57246D02*
X88022Y-57396D01*
X87553Y-57490D02*
X87591Y-57509D01*
X87666Y-57509D01*
X87703Y-57490D01*
X87722Y-57453D01*
X87722Y-57303D01*
X87703Y-57265D01*
X87666Y-57246D01*
X87591Y-57246D01*
X87553Y-57265D01*
X87534Y-57303D01*
X87534Y-57340D01*
X87722Y-57378D01*
X87366Y-57509D02*
X87366Y-57246D01*
X87366Y-57321D02*
X87347Y-57284D01*
X87328Y-57265D01*
X87291Y-57246D01*
X87253Y-57246D01*
X86841Y-57096D02*
X87178Y-57603D01*
X86709Y-57509D02*
X86709Y-57115D01*
X86709Y-57303D02*
X86484Y-57303D01*
X86484Y-57509D02*
X86484Y-57115D01*
X86147Y-57490D02*
X86185Y-57509D01*
X86260Y-57509D01*
X86297Y-57490D01*
X86316Y-57453D01*
X86316Y-57303D01*
X86297Y-57265D01*
X86260Y-57246D01*
X86185Y-57246D01*
X86147Y-57265D01*
X86128Y-57303D01*
X86128Y-57340D01*
X86316Y-57378D01*
X86016Y-57246D02*
X85866Y-57246D01*
X85960Y-57115D02*
X85960Y-57453D01*
X85941Y-57490D01*
X85903Y-57509D01*
X85866Y-57509D01*
X85735Y-57246D02*
X85735Y-57640D01*
X85735Y-57265D02*
X85697Y-57246D01*
X85622Y-57246D01*
X85585Y-57265D01*
X85566Y-57284D01*
X85547Y-57321D01*
X85547Y-57434D01*
X85566Y-57471D01*
X85585Y-57490D01*
X85622Y-57509D01*
X85697Y-57509D01*
X85735Y-57490D01*
X85210Y-57509D02*
X85210Y-57303D01*
X85228Y-57265D01*
X85266Y-57246D01*
X85341Y-57246D01*
X85378Y-57265D01*
X85210Y-57490D02*
X85247Y-57509D01*
X85341Y-57509D01*
X85378Y-57490D01*
X85397Y-57453D01*
X85397Y-57415D01*
X85378Y-57378D01*
X85341Y-57359D01*
X85247Y-57359D01*
X85210Y-57340D01*
X84835Y-57509D02*
X85022Y-57509D01*
X85022Y-57115D01*
X84703Y-57303D02*
X84572Y-57303D01*
X84516Y-57509D02*
X84703Y-57509D01*
X84703Y-57115D01*
X84516Y-57115D01*
X84347Y-57509D02*
X84347Y-57115D01*
X84254Y-57115D01*
X84197Y-57134D01*
X84160Y-57171D01*
X84141Y-57209D01*
X84122Y-57284D01*
X84122Y-57340D01*
X84141Y-57415D01*
X84160Y-57453D01*
X84197Y-57490D01*
X84254Y-57509D01*
X84347Y-57509D01*
X94812Y-67640D02*
X94755Y-67659D01*
X94662Y-67659D01*
X94624Y-67640D01*
X94605Y-67621D01*
X94587Y-67584D01*
X94587Y-67546D01*
X94605Y-67509D01*
X94624Y-67490D01*
X94662Y-67471D01*
X94737Y-67453D01*
X94774Y-67434D01*
X94793Y-67415D01*
X94812Y-67378D01*
X94812Y-67340D01*
X94793Y-67303D01*
X94774Y-67284D01*
X94737Y-67265D01*
X94643Y-67265D01*
X94587Y-67284D01*
X94268Y-67640D02*
X94305Y-67659D01*
X94380Y-67659D01*
X94418Y-67640D01*
X94437Y-67603D01*
X94437Y-67453D01*
X94418Y-67415D01*
X94380Y-67396D01*
X94305Y-67396D01*
X94268Y-67415D01*
X94249Y-67453D01*
X94249Y-67490D01*
X94437Y-67528D01*
X94080Y-67659D02*
X94080Y-67265D01*
X94080Y-67415D02*
X94043Y-67396D01*
X93968Y-67396D01*
X93930Y-67415D01*
X93912Y-67434D01*
X93893Y-67471D01*
X93893Y-67584D01*
X93912Y-67621D01*
X93930Y-67640D01*
X93968Y-67659D01*
X94043Y-67659D01*
X94080Y-67640D01*
X93555Y-67659D02*
X93555Y-67453D01*
X93574Y-67415D01*
X93612Y-67396D01*
X93687Y-67396D01*
X93724Y-67415D01*
X93555Y-67640D02*
X93593Y-67659D01*
X93687Y-67659D01*
X93724Y-67640D01*
X93743Y-67603D01*
X93743Y-67565D01*
X93724Y-67528D01*
X93687Y-67509D01*
X93593Y-67509D01*
X93555Y-67490D01*
X93387Y-67640D02*
X93349Y-67659D01*
X93274Y-67659D01*
X93237Y-67640D01*
X93218Y-67603D01*
X93218Y-67584D01*
X93237Y-67546D01*
X93274Y-67528D01*
X93330Y-67528D01*
X93368Y-67509D01*
X93387Y-67471D01*
X93387Y-67453D01*
X93368Y-67415D01*
X93330Y-67396D01*
X93274Y-67396D01*
X93237Y-67415D01*
X93106Y-67396D02*
X92956Y-67396D01*
X93049Y-67265D02*
X93049Y-67603D01*
X93031Y-67640D01*
X92993Y-67659D01*
X92956Y-67659D01*
X92824Y-67659D02*
X92824Y-67396D01*
X92824Y-67265D02*
X92843Y-67284D01*
X92824Y-67303D01*
X92806Y-67284D01*
X92824Y-67265D01*
X92824Y-67303D01*
X92468Y-67659D02*
X92468Y-67453D01*
X92487Y-67415D01*
X92524Y-67396D01*
X92599Y-67396D01*
X92637Y-67415D01*
X92468Y-67640D02*
X92506Y-67659D01*
X92599Y-67659D01*
X92637Y-67640D01*
X92656Y-67603D01*
X92656Y-67565D01*
X92637Y-67528D01*
X92599Y-67509D01*
X92506Y-67509D01*
X92468Y-67490D01*
X92281Y-67396D02*
X92281Y-67659D01*
X92281Y-67434D02*
X92262Y-67415D01*
X92224Y-67396D01*
X92168Y-67396D01*
X92131Y-67415D01*
X92112Y-67453D01*
X92112Y-67659D01*
X91643Y-67640D02*
X91587Y-67659D01*
X91493Y-67659D01*
X91456Y-67640D01*
X91437Y-67621D01*
X91418Y-67584D01*
X91418Y-67546D01*
X91437Y-67509D01*
X91456Y-67490D01*
X91493Y-67471D01*
X91568Y-67453D01*
X91606Y-67434D01*
X91624Y-67415D01*
X91643Y-67378D01*
X91643Y-67340D01*
X91624Y-67303D01*
X91606Y-67284D01*
X91568Y-67265D01*
X91474Y-67265D01*
X91418Y-67284D01*
X91081Y-67640D02*
X91118Y-67659D01*
X91193Y-67659D01*
X91231Y-67640D01*
X91250Y-67621D01*
X91268Y-67584D01*
X91268Y-67471D01*
X91250Y-67434D01*
X91231Y-67415D01*
X91193Y-67396D01*
X91118Y-67396D01*
X91081Y-67415D01*
X90912Y-67659D02*
X90912Y-67265D01*
X90743Y-67659D02*
X90743Y-67453D01*
X90762Y-67415D01*
X90800Y-67396D01*
X90856Y-67396D01*
X90893Y-67415D01*
X90912Y-67434D01*
X90387Y-67396D02*
X90387Y-67659D01*
X90556Y-67396D02*
X90556Y-67603D01*
X90537Y-67640D01*
X90500Y-67659D01*
X90443Y-67659D01*
X90406Y-67640D01*
X90387Y-67621D01*
X90200Y-67659D02*
X90200Y-67396D01*
X90200Y-67434D02*
X90181Y-67415D01*
X90143Y-67396D01*
X90087Y-67396D01*
X90050Y-67415D01*
X90031Y-67453D01*
X90031Y-67659D01*
X90031Y-67453D02*
X90012Y-67415D01*
X89975Y-67396D01*
X89918Y-67396D01*
X89881Y-67415D01*
X89862Y-67453D01*
X89862Y-67659D01*
X89675Y-67659D02*
X89675Y-67265D01*
X89675Y-67415D02*
X89637Y-67396D01*
X89562Y-67396D01*
X89525Y-67415D01*
X89506Y-67434D01*
X89487Y-67471D01*
X89487Y-67584D01*
X89506Y-67621D01*
X89525Y-67640D01*
X89562Y-67659D01*
X89637Y-67659D01*
X89675Y-67640D01*
X89037Y-67303D02*
X89019Y-67284D01*
X88981Y-67265D01*
X88887Y-67265D01*
X88850Y-67284D01*
X88831Y-67303D01*
X88812Y-67340D01*
X88812Y-67378D01*
X88831Y-67434D01*
X89056Y-67659D01*
X88812Y-67659D01*
X88569Y-67265D02*
X88531Y-67265D01*
X88494Y-67284D01*
X88475Y-67303D01*
X88456Y-67340D01*
X88437Y-67415D01*
X88437Y-67509D01*
X88456Y-67584D01*
X88475Y-67621D01*
X88494Y-67640D01*
X88531Y-67659D01*
X88569Y-67659D01*
X88606Y-67640D01*
X88625Y-67621D01*
X88644Y-67584D01*
X88662Y-67509D01*
X88662Y-67415D01*
X88644Y-67340D01*
X88625Y-67303D01*
X88606Y-67284D01*
X88569Y-67265D01*
X88062Y-67659D02*
X88287Y-67659D01*
X88175Y-67659D02*
X88175Y-67265D01*
X88212Y-67321D01*
X88250Y-67359D01*
X88287Y-67378D01*
X87725Y-67396D02*
X87725Y-67659D01*
X87819Y-67246D02*
X87912Y-67528D01*
X87669Y-67528D01*
G54D12*
X98724Y-57898D02*
X98527Y-58489D01*
X98330Y-57898D01*
X97909Y-58460D02*
X97965Y-58489D01*
X98077Y-58489D01*
X98134Y-58460D01*
X98162Y-58404D01*
X98162Y-58179D01*
X98134Y-58123D01*
X98077Y-58095D01*
X97965Y-58095D01*
X97909Y-58123D01*
X97881Y-58179D01*
X97881Y-58235D01*
X98162Y-58292D01*
X97627Y-58489D02*
X97627Y-58095D01*
X97627Y-58207D02*
X97599Y-58151D01*
X97571Y-58123D01*
X97515Y-58095D01*
X97459Y-58095D01*
X97290Y-58460D02*
X97234Y-58489D01*
X97121Y-58489D01*
X97065Y-58460D01*
X97037Y-58404D01*
X97037Y-58376D01*
X97065Y-58320D01*
X97121Y-58292D01*
X97206Y-58292D01*
X97262Y-58264D01*
X97290Y-58207D01*
X97290Y-58179D01*
X97262Y-58123D01*
X97206Y-58095D01*
X97121Y-58095D01*
X97065Y-58123D01*
X96784Y-58489D02*
X96784Y-58095D01*
X96784Y-57898D02*
X96812Y-57926D01*
X96784Y-57954D01*
X96756Y-57926D01*
X96784Y-57898D01*
X96784Y-57954D01*
X96418Y-58489D02*
X96474Y-58460D01*
X96503Y-58432D01*
X96531Y-58376D01*
X96531Y-58207D01*
X96503Y-58151D01*
X96474Y-58123D01*
X96418Y-58095D01*
X96334Y-58095D01*
X96278Y-58123D01*
X96250Y-58151D01*
X96221Y-58207D01*
X96221Y-58376D01*
X96250Y-58432D01*
X96278Y-58460D01*
X96334Y-58489D01*
X96418Y-58489D01*
X95968Y-58095D02*
X95968Y-58489D01*
X95968Y-58151D02*
X95940Y-58123D01*
X95884Y-58095D01*
X95800Y-58095D01*
X95743Y-58123D01*
X95715Y-58179D01*
X95715Y-58489D01*
X94675Y-58489D02*
X95012Y-58489D01*
X94843Y-58489D02*
X94843Y-57898D01*
X94900Y-57982D01*
X94956Y-58039D01*
X95012Y-58067D01*
X94422Y-58432D02*
X94393Y-58460D01*
X94422Y-58489D01*
X94450Y-58460D01*
X94422Y-58432D01*
X94422Y-58489D01*
X93831Y-58489D02*
X94169Y-58489D01*
X94000Y-58489D02*
X94000Y-57898D01*
X94056Y-57982D01*
X94112Y-58039D01*
X94169Y-58067D01*
X78974Y-57898D02*
X78777Y-58489D01*
X78580Y-57898D01*
X78159Y-58460D02*
X78215Y-58489D01*
X78327Y-58489D01*
X78384Y-58460D01*
X78412Y-58404D01*
X78412Y-58179D01*
X78384Y-58123D01*
X78327Y-58095D01*
X78215Y-58095D01*
X78159Y-58123D01*
X78131Y-58179D01*
X78131Y-58235D01*
X78412Y-58292D01*
X77877Y-58489D02*
X77877Y-58095D01*
X77877Y-58207D02*
X77849Y-58151D01*
X77821Y-58123D01*
X77765Y-58095D01*
X77709Y-58095D01*
X77540Y-58460D02*
X77484Y-58489D01*
X77371Y-58489D01*
X77315Y-58460D01*
X77287Y-58404D01*
X77287Y-58376D01*
X77315Y-58320D01*
X77371Y-58292D01*
X77456Y-58292D01*
X77512Y-58264D01*
X77540Y-58207D01*
X77540Y-58179D01*
X77512Y-58123D01*
X77456Y-58095D01*
X77371Y-58095D01*
X77315Y-58123D01*
X77034Y-58489D02*
X77034Y-58095D01*
X77034Y-57898D02*
X77062Y-57926D01*
X77034Y-57954D01*
X77006Y-57926D01*
X77034Y-57898D01*
X77034Y-57954D01*
X76668Y-58489D02*
X76724Y-58460D01*
X76753Y-58432D01*
X76781Y-58376D01*
X76781Y-58207D01*
X76753Y-58151D01*
X76724Y-58123D01*
X76668Y-58095D01*
X76584Y-58095D01*
X76528Y-58123D01*
X76500Y-58151D01*
X76471Y-58207D01*
X76471Y-58376D01*
X76500Y-58432D01*
X76528Y-58460D01*
X76584Y-58489D01*
X76668Y-58489D01*
X76218Y-58095D02*
X76218Y-58489D01*
X76218Y-58151D02*
X76190Y-58123D01*
X76134Y-58095D01*
X76050Y-58095D01*
X75993Y-58123D01*
X75965Y-58179D01*
X75965Y-58489D01*
X74925Y-58489D02*
X75262Y-58489D01*
X75093Y-58489D02*
X75093Y-57898D01*
X75150Y-57982D01*
X75206Y-58039D01*
X75262Y-58067D01*
X74672Y-58432D02*
X74643Y-58460D01*
X74672Y-58489D01*
X74700Y-58460D01*
X74672Y-58432D01*
X74672Y-58489D01*
X74081Y-58489D02*
X74419Y-58489D01*
X74250Y-58489D02*
X74250Y-57898D01*
X74306Y-57982D01*
X74362Y-58039D01*
X74419Y-58067D01*
G54D13*
X75062Y-67640D02*
X75005Y-67659D01*
X74912Y-67659D01*
X74874Y-67640D01*
X74855Y-67621D01*
X74837Y-67584D01*
X74837Y-67546D01*
X74855Y-67509D01*
X74874Y-67490D01*
X74912Y-67471D01*
X74987Y-67453D01*
X75024Y-67434D01*
X75043Y-67415D01*
X75062Y-67378D01*
X75062Y-67340D01*
X75043Y-67303D01*
X75024Y-67284D01*
X74987Y-67265D01*
X74893Y-67265D01*
X74837Y-67284D01*
X74518Y-67640D02*
X74555Y-67659D01*
X74630Y-67659D01*
X74668Y-67640D01*
X74687Y-67603D01*
X74687Y-67453D01*
X74668Y-67415D01*
X74630Y-67396D01*
X74555Y-67396D01*
X74518Y-67415D01*
X74499Y-67453D01*
X74499Y-67490D01*
X74687Y-67528D01*
X74330Y-67659D02*
X74330Y-67265D01*
X74330Y-67415D02*
X74293Y-67396D01*
X74218Y-67396D01*
X74180Y-67415D01*
X74162Y-67434D01*
X74143Y-67471D01*
X74143Y-67584D01*
X74162Y-67621D01*
X74180Y-67640D01*
X74218Y-67659D01*
X74293Y-67659D01*
X74330Y-67640D01*
X73805Y-67659D02*
X73805Y-67453D01*
X73824Y-67415D01*
X73862Y-67396D01*
X73937Y-67396D01*
X73974Y-67415D01*
X73805Y-67640D02*
X73843Y-67659D01*
X73937Y-67659D01*
X73974Y-67640D01*
X73993Y-67603D01*
X73993Y-67565D01*
X73974Y-67528D01*
X73937Y-67509D01*
X73843Y-67509D01*
X73805Y-67490D01*
X73637Y-67640D02*
X73599Y-67659D01*
X73524Y-67659D01*
X73487Y-67640D01*
X73468Y-67603D01*
X73468Y-67584D01*
X73487Y-67546D01*
X73524Y-67528D01*
X73580Y-67528D01*
X73618Y-67509D01*
X73637Y-67471D01*
X73637Y-67453D01*
X73618Y-67415D01*
X73580Y-67396D01*
X73524Y-67396D01*
X73487Y-67415D01*
X73356Y-67396D02*
X73206Y-67396D01*
X73299Y-67265D02*
X73299Y-67603D01*
X73281Y-67640D01*
X73243Y-67659D01*
X73206Y-67659D01*
X73074Y-67659D02*
X73074Y-67396D01*
X73074Y-67265D02*
X73093Y-67284D01*
X73074Y-67303D01*
X73056Y-67284D01*
X73074Y-67265D01*
X73074Y-67303D01*
X72718Y-67659D02*
X72718Y-67453D01*
X72737Y-67415D01*
X72774Y-67396D01*
X72849Y-67396D01*
X72887Y-67415D01*
X72718Y-67640D02*
X72756Y-67659D01*
X72849Y-67659D01*
X72887Y-67640D01*
X72906Y-67603D01*
X72906Y-67565D01*
X72887Y-67528D01*
X72849Y-67509D01*
X72756Y-67509D01*
X72718Y-67490D01*
X72531Y-67396D02*
X72531Y-67659D01*
X72531Y-67434D02*
X72512Y-67415D01*
X72474Y-67396D01*
X72418Y-67396D01*
X72381Y-67415D01*
X72362Y-67453D01*
X72362Y-67659D01*
X71893Y-67640D02*
X71837Y-67659D01*
X71743Y-67659D01*
X71706Y-67640D01*
X71687Y-67621D01*
X71668Y-67584D01*
X71668Y-67546D01*
X71687Y-67509D01*
X71706Y-67490D01*
X71743Y-67471D01*
X71818Y-67453D01*
X71856Y-67434D01*
X71874Y-67415D01*
X71893Y-67378D01*
X71893Y-67340D01*
X71874Y-67303D01*
X71856Y-67284D01*
X71818Y-67265D01*
X71724Y-67265D01*
X71668Y-67284D01*
X71331Y-67640D02*
X71368Y-67659D01*
X71443Y-67659D01*
X71481Y-67640D01*
X71500Y-67621D01*
X71518Y-67584D01*
X71518Y-67471D01*
X71500Y-67434D01*
X71481Y-67415D01*
X71443Y-67396D01*
X71368Y-67396D01*
X71331Y-67415D01*
X71162Y-67659D02*
X71162Y-67265D01*
X70993Y-67659D02*
X70993Y-67453D01*
X71012Y-67415D01*
X71050Y-67396D01*
X71106Y-67396D01*
X71143Y-67415D01*
X71162Y-67434D01*
X70637Y-67396D02*
X70637Y-67659D01*
X70806Y-67396D02*
X70806Y-67603D01*
X70787Y-67640D01*
X70750Y-67659D01*
X70693Y-67659D01*
X70656Y-67640D01*
X70637Y-67621D01*
X70450Y-67659D02*
X70450Y-67396D01*
X70450Y-67434D02*
X70431Y-67415D01*
X70393Y-67396D01*
X70337Y-67396D01*
X70300Y-67415D01*
X70281Y-67453D01*
X70281Y-67659D01*
X70281Y-67453D02*
X70262Y-67415D01*
X70225Y-67396D01*
X70168Y-67396D01*
X70131Y-67415D01*
X70112Y-67453D01*
X70112Y-67659D01*
X69925Y-67659D02*
X69925Y-67265D01*
X69925Y-67415D02*
X69887Y-67396D01*
X69812Y-67396D01*
X69775Y-67415D01*
X69756Y-67434D01*
X69737Y-67471D01*
X69737Y-67584D01*
X69756Y-67621D01*
X69775Y-67640D01*
X69812Y-67659D01*
X69887Y-67659D01*
X69925Y-67640D01*
X69287Y-67303D02*
X69269Y-67284D01*
X69231Y-67265D01*
X69137Y-67265D01*
X69100Y-67284D01*
X69081Y-67303D01*
X69062Y-67340D01*
X69062Y-67378D01*
X69081Y-67434D01*
X69306Y-67659D01*
X69062Y-67659D01*
X68819Y-67265D02*
X68781Y-67265D01*
X68744Y-67284D01*
X68725Y-67303D01*
X68706Y-67340D01*
X68687Y-67415D01*
X68687Y-67509D01*
X68706Y-67584D01*
X68725Y-67621D01*
X68744Y-67640D01*
X68781Y-67659D01*
X68819Y-67659D01*
X68856Y-67640D01*
X68875Y-67621D01*
X68894Y-67584D01*
X68912Y-67509D01*
X68912Y-67415D01*
X68894Y-67340D01*
X68875Y-67303D01*
X68856Y-67284D01*
X68819Y-67265D01*
X68312Y-67659D02*
X68537Y-67659D01*
X68425Y-67659D02*
X68425Y-67265D01*
X68462Y-67321D01*
X68500Y-67359D01*
X68537Y-67378D01*
X67975Y-67396D02*
X67975Y-67659D01*
X68069Y-67246D02*
X68162Y-67528D01*
X67919Y-67528D01*
X78808Y-57509D02*
X78808Y-57115D01*
X78639Y-57509D02*
X78639Y-57303D01*
X78658Y-57265D01*
X78695Y-57246D01*
X78752Y-57246D01*
X78789Y-57265D01*
X78808Y-57284D01*
X78508Y-57246D02*
X78358Y-57246D01*
X78452Y-57115D02*
X78452Y-57453D01*
X78433Y-57490D01*
X78396Y-57509D01*
X78358Y-57509D01*
X78283Y-57246D02*
X78133Y-57246D01*
X78227Y-57115D02*
X78227Y-57453D01*
X78208Y-57490D01*
X78171Y-57509D01*
X78133Y-57509D01*
X78002Y-57246D02*
X78002Y-57640D01*
X78002Y-57265D02*
X77964Y-57246D01*
X77889Y-57246D01*
X77852Y-57265D01*
X77833Y-57284D01*
X77814Y-57321D01*
X77814Y-57434D01*
X77833Y-57471D01*
X77852Y-57490D01*
X77889Y-57509D01*
X77964Y-57509D01*
X78002Y-57490D01*
X77664Y-57490D02*
X77627Y-57509D01*
X77552Y-57509D01*
X77514Y-57490D01*
X77496Y-57453D01*
X77496Y-57434D01*
X77514Y-57396D01*
X77552Y-57378D01*
X77608Y-57378D01*
X77646Y-57359D01*
X77664Y-57321D01*
X77664Y-57303D01*
X77646Y-57265D01*
X77608Y-57246D01*
X77552Y-57246D01*
X77514Y-57265D01*
X77327Y-57471D02*
X77308Y-57490D01*
X77327Y-57509D01*
X77346Y-57490D01*
X77327Y-57471D01*
X77327Y-57509D01*
X77327Y-57265D02*
X77308Y-57284D01*
X77327Y-57303D01*
X77346Y-57284D01*
X77327Y-57265D01*
X77327Y-57303D01*
X76858Y-57096D02*
X77196Y-57603D01*
X76446Y-57096D02*
X76783Y-57603D01*
X76146Y-57246D02*
X76146Y-57565D01*
X76165Y-57603D01*
X76183Y-57621D01*
X76221Y-57640D01*
X76277Y-57640D01*
X76315Y-57621D01*
X76146Y-57490D02*
X76183Y-57509D01*
X76258Y-57509D01*
X76296Y-57490D01*
X76315Y-57471D01*
X76333Y-57434D01*
X76333Y-57321D01*
X76315Y-57284D01*
X76296Y-57265D01*
X76258Y-57246D01*
X76183Y-57246D01*
X76146Y-57265D01*
X75958Y-57509D02*
X75958Y-57246D01*
X75958Y-57115D02*
X75977Y-57134D01*
X75958Y-57153D01*
X75940Y-57134D01*
X75958Y-57115D01*
X75958Y-57153D01*
X75827Y-57246D02*
X75677Y-57246D01*
X75771Y-57115D02*
X75771Y-57453D01*
X75752Y-57490D01*
X75715Y-57509D01*
X75677Y-57509D01*
X75546Y-57509D02*
X75546Y-57115D01*
X75377Y-57509D02*
X75377Y-57303D01*
X75396Y-57265D01*
X75433Y-57246D01*
X75490Y-57246D01*
X75527Y-57265D01*
X75546Y-57284D01*
X75021Y-57246D02*
X75021Y-57509D01*
X75190Y-57246D02*
X75190Y-57453D01*
X75171Y-57490D01*
X75133Y-57509D01*
X75077Y-57509D01*
X75040Y-57490D01*
X75021Y-57471D01*
X74833Y-57509D02*
X74833Y-57115D01*
X74833Y-57265D02*
X74796Y-57246D01*
X74721Y-57246D01*
X74683Y-57265D01*
X74665Y-57284D01*
X74646Y-57321D01*
X74646Y-57434D01*
X74665Y-57471D01*
X74683Y-57490D01*
X74721Y-57509D01*
X74796Y-57509D01*
X74833Y-57490D01*
X74477Y-57471D02*
X74459Y-57490D01*
X74477Y-57509D01*
X74496Y-57490D01*
X74477Y-57471D01*
X74477Y-57509D01*
X74121Y-57490D02*
X74159Y-57509D01*
X74234Y-57509D01*
X74271Y-57490D01*
X74290Y-57471D01*
X74309Y-57434D01*
X74309Y-57321D01*
X74290Y-57284D01*
X74271Y-57265D01*
X74234Y-57246D01*
X74159Y-57246D01*
X74121Y-57265D01*
X73896Y-57509D02*
X73934Y-57490D01*
X73952Y-57471D01*
X73971Y-57434D01*
X73971Y-57321D01*
X73952Y-57284D01*
X73934Y-57265D01*
X73896Y-57246D01*
X73840Y-57246D01*
X73802Y-57265D01*
X73784Y-57284D01*
X73765Y-57321D01*
X73765Y-57434D01*
X73784Y-57471D01*
X73802Y-57490D01*
X73840Y-57509D01*
X73896Y-57509D01*
X73596Y-57509D02*
X73596Y-57246D01*
X73596Y-57284D02*
X73577Y-57265D01*
X73540Y-57246D01*
X73484Y-57246D01*
X73446Y-57265D01*
X73427Y-57303D01*
X73427Y-57509D01*
X73427Y-57303D02*
X73409Y-57265D01*
X73371Y-57246D01*
X73315Y-57246D01*
X73277Y-57265D01*
X73259Y-57303D01*
X73259Y-57509D01*
X72790Y-57096D02*
X73127Y-57603D01*
X72471Y-57509D02*
X72659Y-57509D01*
X72659Y-57115D01*
X72284Y-57509D02*
X72321Y-57490D01*
X72340Y-57471D01*
X72359Y-57434D01*
X72359Y-57321D01*
X72340Y-57284D01*
X72321Y-57265D01*
X72284Y-57246D01*
X72228Y-57246D01*
X72190Y-57265D01*
X72171Y-57284D01*
X72153Y-57321D01*
X72153Y-57434D01*
X72171Y-57471D01*
X72190Y-57490D01*
X72228Y-57509D01*
X72284Y-57509D01*
X71984Y-57246D02*
X71984Y-57509D01*
X71984Y-57284D02*
X71965Y-57265D01*
X71928Y-57246D01*
X71871Y-57246D01*
X71834Y-57265D01*
X71815Y-57303D01*
X71815Y-57509D01*
X71459Y-57246D02*
X71459Y-57565D01*
X71478Y-57603D01*
X71496Y-57621D01*
X71534Y-57640D01*
X71590Y-57640D01*
X71628Y-57621D01*
X71459Y-57490D02*
X71496Y-57509D01*
X71571Y-57509D01*
X71609Y-57490D01*
X71628Y-57471D01*
X71646Y-57434D01*
X71646Y-57321D01*
X71628Y-57284D01*
X71609Y-57265D01*
X71571Y-57246D01*
X71496Y-57246D01*
X71459Y-57265D01*
X71271Y-57509D02*
X71271Y-57115D01*
X71271Y-57303D02*
X71046Y-57303D01*
X71046Y-57509D02*
X71046Y-57115D01*
X70690Y-57509D02*
X70690Y-57303D01*
X70709Y-57265D01*
X70746Y-57246D01*
X70821Y-57246D01*
X70859Y-57265D01*
X70690Y-57490D02*
X70728Y-57509D01*
X70821Y-57509D01*
X70859Y-57490D01*
X70878Y-57453D01*
X70878Y-57415D01*
X70859Y-57378D01*
X70821Y-57359D01*
X70728Y-57359D01*
X70690Y-57340D01*
X70503Y-57509D02*
X70503Y-57246D01*
X70503Y-57115D02*
X70522Y-57134D01*
X70503Y-57153D01*
X70484Y-57134D01*
X70503Y-57115D01*
X70503Y-57153D01*
X70315Y-57509D02*
X70315Y-57246D01*
X70315Y-57321D02*
X70297Y-57284D01*
X70278Y-57265D01*
X70240Y-57246D01*
X70203Y-57246D01*
X69922Y-57490D02*
X69959Y-57509D01*
X70034Y-57509D01*
X70072Y-57490D01*
X70090Y-57453D01*
X70090Y-57303D01*
X70072Y-57265D01*
X70034Y-57246D01*
X69959Y-57246D01*
X69922Y-57265D01*
X69903Y-57303D01*
X69903Y-57340D01*
X70090Y-57378D01*
X69565Y-57509D02*
X69565Y-57115D01*
X69565Y-57490D02*
X69603Y-57509D01*
X69678Y-57509D01*
X69715Y-57490D01*
X69734Y-57471D01*
X69753Y-57434D01*
X69753Y-57321D01*
X69734Y-57284D01*
X69715Y-57265D01*
X69678Y-57246D01*
X69603Y-57246D01*
X69565Y-57265D01*
X69378Y-57509D02*
X69378Y-57115D01*
X69378Y-57303D02*
X69153Y-57303D01*
X69153Y-57509D02*
X69153Y-57115D01*
X68797Y-57509D02*
X68797Y-57303D01*
X68815Y-57265D01*
X68853Y-57246D01*
X68928Y-57246D01*
X68965Y-57265D01*
X68797Y-57490D02*
X68834Y-57509D01*
X68928Y-57509D01*
X68965Y-57490D01*
X68984Y-57453D01*
X68984Y-57415D01*
X68965Y-57378D01*
X68928Y-57359D01*
X68834Y-57359D01*
X68797Y-57340D01*
X68441Y-57490D02*
X68478Y-57509D01*
X68553Y-57509D01*
X68591Y-57490D01*
X68609Y-57471D01*
X68628Y-57434D01*
X68628Y-57321D01*
X68609Y-57284D01*
X68591Y-57265D01*
X68553Y-57246D01*
X68478Y-57246D01*
X68441Y-57265D01*
X68272Y-57509D02*
X68272Y-57115D01*
X68234Y-57359D02*
X68122Y-57509D01*
X68122Y-57246D02*
X68272Y-57396D01*
X67803Y-57490D02*
X67841Y-57509D01*
X67916Y-57509D01*
X67953Y-57490D01*
X67972Y-57453D01*
X67972Y-57303D01*
X67953Y-57265D01*
X67916Y-57246D01*
X67841Y-57246D01*
X67803Y-57265D01*
X67784Y-57303D01*
X67784Y-57340D01*
X67972Y-57378D01*
X67616Y-57509D02*
X67616Y-57246D01*
X67616Y-57321D02*
X67597Y-57284D01*
X67578Y-57265D01*
X67541Y-57246D01*
X67503Y-57246D01*
X67091Y-57096D02*
X67428Y-57603D01*
X66959Y-57509D02*
X66959Y-57115D01*
X66959Y-57303D02*
X66734Y-57303D01*
X66734Y-57509D02*
X66734Y-57115D01*
X66397Y-57490D02*
X66435Y-57509D01*
X66510Y-57509D01*
X66547Y-57490D01*
X66566Y-57453D01*
X66566Y-57303D01*
X66547Y-57265D01*
X66510Y-57246D01*
X66435Y-57246D01*
X66397Y-57265D01*
X66378Y-57303D01*
X66378Y-57340D01*
X66566Y-57378D01*
X66266Y-57246D02*
X66116Y-57246D01*
X66210Y-57115D02*
X66210Y-57453D01*
X66191Y-57490D01*
X66153Y-57509D01*
X66116Y-57509D01*
X65985Y-57246D02*
X65985Y-57640D01*
X65985Y-57265D02*
X65947Y-57246D01*
X65872Y-57246D01*
X65835Y-57265D01*
X65816Y-57284D01*
X65797Y-57321D01*
X65797Y-57434D01*
X65816Y-57471D01*
X65835Y-57490D01*
X65872Y-57509D01*
X65947Y-57509D01*
X65985Y-57490D01*
X65460Y-57509D02*
X65460Y-57303D01*
X65478Y-57265D01*
X65516Y-57246D01*
X65591Y-57246D01*
X65628Y-57265D01*
X65460Y-57490D02*
X65497Y-57509D01*
X65591Y-57509D01*
X65628Y-57490D01*
X65647Y-57453D01*
X65647Y-57415D01*
X65628Y-57378D01*
X65591Y-57359D01*
X65497Y-57359D01*
X65460Y-57340D01*
X65085Y-57509D02*
X65272Y-57509D01*
X65272Y-57115D01*
X64953Y-57303D02*
X64822Y-57303D01*
X64766Y-57509D02*
X64953Y-57509D01*
X64953Y-57115D01*
X64766Y-57115D01*
X64597Y-57509D02*
X64597Y-57115D01*
X64504Y-57115D01*
X64447Y-57134D01*
X64410Y-57171D01*
X64391Y-57209D01*
X64372Y-57284D01*
X64372Y-57340D01*
X64391Y-57415D01*
X64410Y-57453D01*
X64447Y-57490D01*
X64504Y-57509D01*
X64597Y-57509D01*
G54D12*
X78875Y-56098D02*
X78482Y-56098D01*
X78735Y-56689D01*
X77835Y-56660D02*
X77779Y-56689D01*
X77666Y-56689D01*
X77610Y-56660D01*
X77582Y-56604D01*
X77582Y-56576D01*
X77610Y-56520D01*
X77666Y-56492D01*
X77750Y-56492D01*
X77807Y-56464D01*
X77835Y-56407D01*
X77835Y-56379D01*
X77807Y-56323D01*
X77750Y-56295D01*
X77666Y-56295D01*
X77610Y-56323D01*
X77104Y-56660D02*
X77160Y-56689D01*
X77272Y-56689D01*
X77329Y-56660D01*
X77357Y-56604D01*
X77357Y-56379D01*
X77329Y-56323D01*
X77272Y-56295D01*
X77160Y-56295D01*
X77104Y-56323D01*
X77075Y-56379D01*
X77075Y-56435D01*
X77357Y-56492D01*
X76569Y-56295D02*
X76569Y-56773D01*
X76597Y-56829D01*
X76626Y-56857D01*
X76682Y-56885D01*
X76766Y-56885D01*
X76822Y-56857D01*
X76569Y-56660D02*
X76626Y-56689D01*
X76738Y-56689D01*
X76794Y-56660D01*
X76822Y-56632D01*
X76851Y-56576D01*
X76851Y-56407D01*
X76822Y-56351D01*
X76794Y-56323D01*
X76738Y-56295D01*
X76626Y-56295D01*
X76569Y-56323D01*
X76288Y-56689D02*
X76288Y-56295D01*
X76288Y-56351D02*
X76260Y-56323D01*
X76204Y-56295D01*
X76119Y-56295D01*
X76063Y-56323D01*
X76035Y-56379D01*
X76035Y-56689D01*
X76035Y-56379D02*
X76007Y-56323D01*
X75951Y-56295D01*
X75866Y-56295D01*
X75810Y-56323D01*
X75782Y-56379D01*
X75782Y-56689D01*
X75276Y-56660D02*
X75332Y-56689D01*
X75444Y-56689D01*
X75501Y-56660D01*
X75529Y-56604D01*
X75529Y-56379D01*
X75501Y-56323D01*
X75444Y-56295D01*
X75332Y-56295D01*
X75276Y-56323D01*
X75248Y-56379D01*
X75248Y-56435D01*
X75529Y-56492D01*
X74994Y-56295D02*
X74994Y-56689D01*
X74994Y-56351D02*
X74966Y-56323D01*
X74910Y-56295D01*
X74826Y-56295D01*
X74770Y-56323D01*
X74741Y-56379D01*
X74741Y-56689D01*
X74545Y-56295D02*
X74320Y-56295D01*
X74460Y-56098D02*
X74460Y-56604D01*
X74432Y-56660D01*
X74376Y-56689D01*
X74320Y-56689D01*
X73588Y-56689D02*
X73645Y-56660D01*
X73673Y-56604D01*
X73673Y-56098D01*
X73138Y-56660D02*
X73195Y-56689D01*
X73307Y-56689D01*
X73363Y-56660D01*
X73392Y-56604D01*
X73392Y-56379D01*
X73363Y-56323D01*
X73307Y-56295D01*
X73195Y-56295D01*
X73138Y-56323D01*
X73110Y-56379D01*
X73110Y-56435D01*
X73392Y-56492D01*
X72604Y-56689D02*
X72604Y-56098D01*
X72604Y-56660D02*
X72660Y-56689D01*
X72773Y-56689D01*
X72829Y-56660D01*
X72857Y-56632D01*
X72885Y-56576D01*
X72885Y-56407D01*
X72857Y-56351D01*
X72829Y-56323D01*
X72773Y-56295D01*
X72660Y-56295D01*
X72604Y-56323D01*
X71620Y-56689D02*
X71620Y-56098D01*
X71620Y-56660D02*
X71676Y-56689D01*
X71789Y-56689D01*
X71845Y-56660D01*
X71873Y-56632D01*
X71901Y-56576D01*
X71901Y-56407D01*
X71873Y-56351D01*
X71845Y-56323D01*
X71789Y-56295D01*
X71676Y-56295D01*
X71620Y-56323D01*
X71339Y-56689D02*
X71339Y-56295D01*
X71339Y-56098D02*
X71367Y-56126D01*
X71339Y-56154D01*
X71311Y-56126D01*
X71339Y-56098D01*
X71339Y-56154D01*
X71086Y-56660D02*
X71029Y-56689D01*
X70917Y-56689D01*
X70861Y-56660D01*
X70833Y-56604D01*
X70833Y-56576D01*
X70861Y-56520D01*
X70917Y-56492D01*
X71001Y-56492D01*
X71057Y-56464D01*
X71086Y-56407D01*
X71086Y-56379D01*
X71057Y-56323D01*
X71001Y-56295D01*
X70917Y-56295D01*
X70861Y-56323D01*
X70579Y-56295D02*
X70579Y-56885D01*
X70579Y-56323D02*
X70523Y-56295D01*
X70411Y-56295D01*
X70354Y-56323D01*
X70326Y-56351D01*
X70298Y-56407D01*
X70298Y-56576D01*
X70326Y-56632D01*
X70354Y-56660D01*
X70411Y-56689D01*
X70523Y-56689D01*
X70579Y-56660D01*
X69961Y-56689D02*
X70017Y-56660D01*
X70045Y-56604D01*
X70045Y-56098D01*
X69483Y-56689D02*
X69483Y-56379D01*
X69511Y-56323D01*
X69567Y-56295D01*
X69680Y-56295D01*
X69736Y-56323D01*
X69483Y-56660D02*
X69539Y-56689D01*
X69680Y-56689D01*
X69736Y-56660D01*
X69764Y-56604D01*
X69764Y-56548D01*
X69736Y-56492D01*
X69680Y-56464D01*
X69539Y-56464D01*
X69483Y-56435D01*
X69258Y-56295D02*
X69117Y-56689D01*
X68976Y-56295D02*
X69117Y-56689D01*
X69173Y-56829D01*
X69201Y-56857D01*
X69258Y-56885D01*
X68048Y-56689D02*
X68048Y-56098D01*
X68048Y-56660D02*
X68105Y-56689D01*
X68217Y-56689D01*
X68273Y-56660D01*
X68302Y-56632D01*
X68330Y-56576D01*
X68330Y-56407D01*
X68302Y-56351D01*
X68273Y-56323D01*
X68217Y-56295D01*
X68105Y-56295D01*
X68048Y-56323D01*
X67767Y-56689D02*
X67767Y-56295D01*
X67767Y-56407D02*
X67739Y-56351D01*
X67711Y-56323D01*
X67655Y-56295D01*
X67599Y-56295D01*
X67402Y-56689D02*
X67402Y-56295D01*
X67402Y-56098D02*
X67430Y-56126D01*
X67402Y-56154D01*
X67374Y-56126D01*
X67402Y-56098D01*
X67402Y-56154D01*
X67177Y-56295D02*
X67036Y-56689D01*
X66896Y-56295D01*
X66446Y-56660D02*
X66502Y-56689D01*
X66614Y-56689D01*
X66671Y-56660D01*
X66699Y-56604D01*
X66699Y-56379D01*
X66671Y-56323D01*
X66614Y-56295D01*
X66502Y-56295D01*
X66446Y-56323D01*
X66417Y-56379D01*
X66417Y-56435D01*
X66699Y-56492D01*
X66164Y-56689D02*
X66164Y-56295D01*
X66164Y-56407D02*
X66136Y-56351D01*
X66108Y-56323D01*
X66052Y-56295D01*
X65996Y-56295D01*
G54D13*
X90156Y-37659D02*
X90156Y-37265D01*
X89987Y-37659D02*
X89987Y-37453D01*
X90006Y-37415D01*
X90043Y-37396D01*
X90100Y-37396D01*
X90137Y-37415D01*
X90156Y-37434D01*
X89856Y-37396D02*
X89706Y-37396D01*
X89800Y-37265D02*
X89800Y-37603D01*
X89781Y-37640D01*
X89743Y-37659D01*
X89706Y-37659D01*
X89631Y-37396D02*
X89481Y-37396D01*
X89575Y-37265D02*
X89575Y-37603D01*
X89556Y-37640D01*
X89518Y-37659D01*
X89481Y-37659D01*
X89350Y-37396D02*
X89350Y-37790D01*
X89350Y-37415D02*
X89312Y-37396D01*
X89237Y-37396D01*
X89200Y-37415D01*
X89181Y-37434D01*
X89162Y-37471D01*
X89162Y-37584D01*
X89181Y-37621D01*
X89200Y-37640D01*
X89237Y-37659D01*
X89312Y-37659D01*
X89350Y-37640D01*
X89012Y-37640D02*
X88975Y-37659D01*
X88900Y-37659D01*
X88862Y-37640D01*
X88843Y-37603D01*
X88843Y-37584D01*
X88862Y-37546D01*
X88900Y-37528D01*
X88956Y-37528D01*
X88993Y-37509D01*
X89012Y-37471D01*
X89012Y-37453D01*
X88993Y-37415D01*
X88956Y-37396D01*
X88900Y-37396D01*
X88862Y-37415D01*
X88675Y-37621D02*
X88656Y-37640D01*
X88675Y-37659D01*
X88693Y-37640D01*
X88675Y-37621D01*
X88675Y-37659D01*
X88675Y-37415D02*
X88656Y-37434D01*
X88675Y-37453D01*
X88693Y-37434D01*
X88675Y-37415D01*
X88675Y-37453D01*
X88206Y-37246D02*
X88543Y-37753D01*
X87794Y-37246D02*
X88131Y-37753D01*
X87494Y-37396D02*
X87494Y-37715D01*
X87512Y-37753D01*
X87531Y-37771D01*
X87569Y-37790D01*
X87625Y-37790D01*
X87662Y-37771D01*
X87494Y-37640D02*
X87531Y-37659D01*
X87606Y-37659D01*
X87644Y-37640D01*
X87662Y-37621D01*
X87681Y-37584D01*
X87681Y-37471D01*
X87662Y-37434D01*
X87644Y-37415D01*
X87606Y-37396D01*
X87531Y-37396D01*
X87494Y-37415D01*
X87306Y-37659D02*
X87306Y-37396D01*
X87306Y-37265D02*
X87325Y-37284D01*
X87306Y-37303D01*
X87287Y-37284D01*
X87306Y-37265D01*
X87306Y-37303D01*
X87175Y-37396D02*
X87025Y-37396D01*
X87119Y-37265D02*
X87119Y-37603D01*
X87100Y-37640D01*
X87062Y-37659D01*
X87025Y-37659D01*
X86894Y-37659D02*
X86894Y-37265D01*
X86725Y-37659D02*
X86725Y-37453D01*
X86744Y-37415D01*
X86781Y-37396D01*
X86837Y-37396D01*
X86875Y-37415D01*
X86894Y-37434D01*
X86369Y-37396D02*
X86369Y-37659D01*
X86537Y-37396D02*
X86537Y-37603D01*
X86519Y-37640D01*
X86481Y-37659D01*
X86425Y-37659D01*
X86387Y-37640D01*
X86369Y-37621D01*
X86181Y-37659D02*
X86181Y-37265D01*
X86181Y-37415D02*
X86144Y-37396D01*
X86069Y-37396D01*
X86031Y-37415D01*
X86013Y-37434D01*
X85994Y-37471D01*
X85994Y-37584D01*
X86013Y-37621D01*
X86031Y-37640D01*
X86069Y-37659D01*
X86144Y-37659D01*
X86181Y-37640D01*
X85825Y-37621D02*
X85806Y-37640D01*
X85825Y-37659D01*
X85844Y-37640D01*
X85825Y-37621D01*
X85825Y-37659D01*
X85469Y-37640D02*
X85506Y-37659D01*
X85581Y-37659D01*
X85619Y-37640D01*
X85638Y-37621D01*
X85656Y-37584D01*
X85656Y-37471D01*
X85638Y-37434D01*
X85619Y-37415D01*
X85581Y-37396D01*
X85506Y-37396D01*
X85469Y-37415D01*
X85244Y-37659D02*
X85281Y-37640D01*
X85300Y-37621D01*
X85319Y-37584D01*
X85319Y-37471D01*
X85300Y-37434D01*
X85281Y-37415D01*
X85244Y-37396D01*
X85188Y-37396D01*
X85150Y-37415D01*
X85131Y-37434D01*
X85113Y-37471D01*
X85113Y-37584D01*
X85131Y-37621D01*
X85150Y-37640D01*
X85188Y-37659D01*
X85244Y-37659D01*
X84944Y-37659D02*
X84944Y-37396D01*
X84944Y-37434D02*
X84925Y-37415D01*
X84888Y-37396D01*
X84831Y-37396D01*
X84794Y-37415D01*
X84775Y-37453D01*
X84775Y-37659D01*
X84775Y-37453D02*
X84756Y-37415D01*
X84719Y-37396D01*
X84663Y-37396D01*
X84625Y-37415D01*
X84606Y-37453D01*
X84606Y-37659D01*
X84138Y-37246D02*
X84475Y-37753D01*
X83819Y-37659D02*
X84007Y-37659D01*
X84007Y-37265D01*
X83632Y-37659D02*
X83669Y-37640D01*
X83688Y-37621D01*
X83707Y-37584D01*
X83707Y-37471D01*
X83688Y-37434D01*
X83669Y-37415D01*
X83632Y-37396D01*
X83575Y-37396D01*
X83538Y-37415D01*
X83519Y-37434D01*
X83500Y-37471D01*
X83500Y-37584D01*
X83519Y-37621D01*
X83538Y-37640D01*
X83575Y-37659D01*
X83632Y-37659D01*
X83332Y-37396D02*
X83332Y-37659D01*
X83332Y-37434D02*
X83313Y-37415D01*
X83275Y-37396D01*
X83219Y-37396D01*
X83182Y-37415D01*
X83163Y-37453D01*
X83163Y-37659D01*
X82807Y-37396D02*
X82807Y-37715D01*
X82825Y-37753D01*
X82844Y-37771D01*
X82882Y-37790D01*
X82938Y-37790D01*
X82975Y-37771D01*
X82807Y-37640D02*
X82844Y-37659D01*
X82919Y-37659D01*
X82957Y-37640D01*
X82975Y-37621D01*
X82994Y-37584D01*
X82994Y-37471D01*
X82975Y-37434D01*
X82957Y-37415D01*
X82919Y-37396D01*
X82844Y-37396D01*
X82807Y-37415D01*
X82619Y-37659D02*
X82619Y-37265D01*
X82619Y-37453D02*
X82394Y-37453D01*
X82394Y-37659D02*
X82394Y-37265D01*
X82038Y-37659D02*
X82038Y-37453D01*
X82057Y-37415D01*
X82094Y-37396D01*
X82169Y-37396D01*
X82207Y-37415D01*
X82038Y-37640D02*
X82076Y-37659D01*
X82169Y-37659D01*
X82207Y-37640D01*
X82226Y-37603D01*
X82226Y-37565D01*
X82207Y-37528D01*
X82169Y-37509D01*
X82076Y-37509D01*
X82038Y-37490D01*
X81851Y-37659D02*
X81851Y-37396D01*
X81851Y-37265D02*
X81869Y-37284D01*
X81851Y-37303D01*
X81832Y-37284D01*
X81851Y-37265D01*
X81851Y-37303D01*
X81663Y-37659D02*
X81663Y-37396D01*
X81663Y-37471D02*
X81644Y-37434D01*
X81626Y-37415D01*
X81588Y-37396D01*
X81551Y-37396D01*
X81269Y-37640D02*
X81307Y-37659D01*
X81382Y-37659D01*
X81419Y-37640D01*
X81438Y-37603D01*
X81438Y-37453D01*
X81419Y-37415D01*
X81382Y-37396D01*
X81307Y-37396D01*
X81269Y-37415D01*
X81251Y-37453D01*
X81251Y-37490D01*
X81438Y-37528D01*
X80913Y-37659D02*
X80913Y-37265D01*
X80913Y-37640D02*
X80951Y-37659D01*
X81026Y-37659D01*
X81063Y-37640D01*
X81082Y-37621D01*
X81101Y-37584D01*
X81101Y-37471D01*
X81082Y-37434D01*
X81063Y-37415D01*
X81026Y-37396D01*
X80951Y-37396D01*
X80913Y-37415D01*
X80726Y-37659D02*
X80726Y-37265D01*
X80726Y-37453D02*
X80501Y-37453D01*
X80501Y-37659D02*
X80501Y-37265D01*
X80145Y-37659D02*
X80145Y-37453D01*
X80163Y-37415D01*
X80201Y-37396D01*
X80276Y-37396D01*
X80313Y-37415D01*
X80145Y-37640D02*
X80182Y-37659D01*
X80276Y-37659D01*
X80313Y-37640D01*
X80332Y-37603D01*
X80332Y-37565D01*
X80313Y-37528D01*
X80276Y-37509D01*
X80182Y-37509D01*
X80145Y-37490D01*
X79788Y-37640D02*
X79826Y-37659D01*
X79901Y-37659D01*
X79938Y-37640D01*
X79957Y-37621D01*
X79976Y-37584D01*
X79976Y-37471D01*
X79957Y-37434D01*
X79938Y-37415D01*
X79901Y-37396D01*
X79826Y-37396D01*
X79788Y-37415D01*
X79620Y-37659D02*
X79620Y-37265D01*
X79582Y-37509D02*
X79470Y-37659D01*
X79470Y-37396D02*
X79620Y-37546D01*
X79151Y-37640D02*
X79188Y-37659D01*
X79263Y-37659D01*
X79301Y-37640D01*
X79320Y-37603D01*
X79320Y-37453D01*
X79301Y-37415D01*
X79263Y-37396D01*
X79188Y-37396D01*
X79151Y-37415D01*
X79132Y-37453D01*
X79132Y-37490D01*
X79320Y-37528D01*
X78963Y-37659D02*
X78963Y-37396D01*
X78963Y-37471D02*
X78945Y-37434D01*
X78926Y-37415D01*
X78888Y-37396D01*
X78851Y-37396D01*
X78438Y-37246D02*
X78776Y-37753D01*
X78307Y-37659D02*
X78307Y-37265D01*
X78307Y-37453D02*
X78082Y-37453D01*
X78082Y-37659D02*
X78082Y-37265D01*
X77745Y-37640D02*
X77782Y-37659D01*
X77857Y-37659D01*
X77895Y-37640D01*
X77914Y-37603D01*
X77914Y-37453D01*
X77895Y-37415D01*
X77857Y-37396D01*
X77782Y-37396D01*
X77745Y-37415D01*
X77726Y-37453D01*
X77726Y-37490D01*
X77914Y-37528D01*
X77557Y-37396D02*
X77557Y-37790D01*
X77557Y-37415D02*
X77520Y-37396D01*
X77445Y-37396D01*
X77407Y-37415D01*
X77389Y-37434D01*
X77370Y-37471D01*
X77370Y-37584D01*
X77389Y-37621D01*
X77407Y-37640D01*
X77445Y-37659D01*
X77520Y-37659D01*
X77557Y-37640D01*
X77257Y-37396D02*
X77107Y-37396D01*
X77201Y-37265D02*
X77201Y-37603D01*
X77182Y-37640D01*
X77145Y-37659D01*
X77107Y-37659D01*
X76807Y-37659D02*
X76807Y-37453D01*
X76826Y-37415D01*
X76864Y-37396D01*
X76939Y-37396D01*
X76976Y-37415D01*
X76807Y-37640D02*
X76845Y-37659D01*
X76939Y-37659D01*
X76976Y-37640D01*
X76995Y-37603D01*
X76995Y-37565D01*
X76976Y-37528D01*
X76939Y-37509D01*
X76845Y-37509D01*
X76807Y-37490D01*
X76432Y-37659D02*
X76620Y-37659D01*
X76620Y-37265D01*
X76301Y-37453D02*
X76170Y-37453D01*
X76114Y-37659D02*
X76301Y-37659D01*
X76301Y-37265D01*
X76114Y-37265D01*
X75945Y-37659D02*
X75945Y-37265D01*
X75851Y-37265D01*
X75795Y-37284D01*
X75758Y-37321D01*
X75739Y-37359D01*
X75720Y-37434D01*
X75720Y-37490D01*
X75739Y-37565D01*
X75758Y-37603D01*
X75795Y-37640D01*
X75851Y-37659D01*
X75945Y-37659D01*
G54D12*
X84343Y-46460D02*
X84258Y-46489D01*
X84118Y-46489D01*
X84061Y-46460D01*
X84033Y-46432D01*
X84005Y-46376D01*
X84005Y-46320D01*
X84033Y-46264D01*
X84061Y-46235D01*
X84118Y-46207D01*
X84230Y-46179D01*
X84286Y-46151D01*
X84314Y-46123D01*
X84343Y-46067D01*
X84343Y-46010D01*
X84314Y-45954D01*
X84286Y-45926D01*
X84230Y-45898D01*
X84089Y-45898D01*
X84005Y-45926D01*
X83527Y-46460D02*
X83583Y-46489D01*
X83696Y-46489D01*
X83752Y-46460D01*
X83780Y-46404D01*
X83780Y-46179D01*
X83752Y-46123D01*
X83696Y-46095D01*
X83583Y-46095D01*
X83527Y-46123D01*
X83499Y-46179D01*
X83499Y-46235D01*
X83780Y-46292D01*
X83246Y-46489D02*
X83246Y-45898D01*
X83246Y-46123D02*
X83190Y-46095D01*
X83077Y-46095D01*
X83021Y-46123D01*
X82993Y-46151D01*
X82965Y-46207D01*
X82965Y-46376D01*
X82993Y-46432D01*
X83021Y-46460D01*
X83077Y-46489D01*
X83190Y-46489D01*
X83246Y-46460D01*
X82458Y-46489D02*
X82458Y-46179D01*
X82487Y-46123D01*
X82543Y-46095D01*
X82655Y-46095D01*
X82712Y-46123D01*
X82458Y-46460D02*
X82515Y-46489D01*
X82655Y-46489D01*
X82712Y-46460D01*
X82740Y-46404D01*
X82740Y-46348D01*
X82712Y-46292D01*
X82655Y-46264D01*
X82515Y-46264D01*
X82458Y-46235D01*
X82205Y-46460D02*
X82149Y-46489D01*
X82037Y-46489D01*
X81980Y-46460D01*
X81952Y-46404D01*
X81952Y-46376D01*
X81980Y-46320D01*
X82037Y-46292D01*
X82121Y-46292D01*
X82177Y-46264D01*
X82205Y-46207D01*
X82205Y-46179D01*
X82177Y-46123D01*
X82121Y-46095D01*
X82037Y-46095D01*
X81980Y-46123D01*
X81784Y-46095D02*
X81559Y-46095D01*
X81699Y-45898D02*
X81699Y-46404D01*
X81671Y-46460D01*
X81615Y-46489D01*
X81559Y-46489D01*
X81362Y-46489D02*
X81362Y-46095D01*
X81362Y-45898D02*
X81390Y-45926D01*
X81362Y-45954D01*
X81334Y-45926D01*
X81362Y-45898D01*
X81362Y-45954D01*
X80827Y-46489D02*
X80827Y-46179D01*
X80856Y-46123D01*
X80912Y-46095D01*
X81024Y-46095D01*
X81080Y-46123D01*
X80827Y-46460D02*
X80884Y-46489D01*
X81024Y-46489D01*
X81080Y-46460D01*
X81109Y-46404D01*
X81109Y-46348D01*
X81080Y-46292D01*
X81024Y-46264D01*
X80884Y-46264D01*
X80827Y-46235D01*
X80546Y-46095D02*
X80546Y-46489D01*
X80546Y-46151D02*
X80518Y-46123D01*
X80462Y-46095D01*
X80377Y-46095D01*
X80321Y-46123D01*
X80293Y-46179D01*
X80293Y-46489D01*
X79590Y-46460D02*
X79506Y-46489D01*
X79365Y-46489D01*
X79309Y-46460D01*
X79281Y-46432D01*
X79253Y-46376D01*
X79253Y-46320D01*
X79281Y-46264D01*
X79309Y-46235D01*
X79365Y-46207D01*
X79478Y-46179D01*
X79534Y-46151D01*
X79562Y-46123D01*
X79590Y-46067D01*
X79590Y-46010D01*
X79562Y-45954D01*
X79534Y-45926D01*
X79478Y-45898D01*
X79337Y-45898D01*
X79253Y-45926D01*
X78746Y-46460D02*
X78803Y-46489D01*
X78915Y-46489D01*
X78971Y-46460D01*
X78999Y-46432D01*
X79028Y-46376D01*
X79028Y-46207D01*
X78999Y-46151D01*
X78971Y-46123D01*
X78915Y-46095D01*
X78803Y-46095D01*
X78746Y-46123D01*
X78493Y-46489D02*
X78493Y-45898D01*
X78240Y-46489D02*
X78240Y-46179D01*
X78268Y-46123D01*
X78325Y-46095D01*
X78409Y-46095D01*
X78465Y-46123D01*
X78493Y-46151D01*
X77706Y-46095D02*
X77706Y-46489D01*
X77959Y-46095D02*
X77959Y-46404D01*
X77931Y-46460D01*
X77875Y-46489D01*
X77790Y-46489D01*
X77734Y-46460D01*
X77706Y-46432D01*
X77425Y-46489D02*
X77425Y-46095D01*
X77425Y-46151D02*
X77397Y-46123D01*
X77340Y-46095D01*
X77256Y-46095D01*
X77200Y-46123D01*
X77172Y-46179D01*
X77172Y-46489D01*
X77172Y-46179D02*
X77143Y-46123D01*
X77087Y-46095D01*
X77003Y-46095D01*
X76947Y-46123D01*
X76919Y-46179D01*
X76919Y-46489D01*
X76637Y-46489D02*
X76637Y-45898D01*
X76637Y-46123D02*
X76581Y-46095D01*
X76469Y-46095D01*
X76412Y-46123D01*
X76384Y-46151D01*
X76356Y-46207D01*
X76356Y-46376D01*
X76384Y-46432D01*
X76412Y-46460D01*
X76469Y-46489D01*
X76581Y-46489D01*
X76637Y-46460D01*
X75681Y-45954D02*
X75653Y-45926D01*
X75597Y-45898D01*
X75456Y-45898D01*
X75400Y-45926D01*
X75372Y-45954D01*
X75344Y-46010D01*
X75344Y-46067D01*
X75372Y-46151D01*
X75709Y-46489D01*
X75344Y-46489D01*
X74978Y-45898D02*
X74922Y-45898D01*
X74866Y-45926D01*
X74838Y-45954D01*
X74809Y-46010D01*
X74781Y-46123D01*
X74781Y-46264D01*
X74809Y-46376D01*
X74838Y-46432D01*
X74866Y-46460D01*
X74922Y-46489D01*
X74978Y-46489D01*
X75034Y-46460D01*
X75062Y-46432D01*
X75091Y-46376D01*
X75119Y-46264D01*
X75119Y-46123D01*
X75091Y-46010D01*
X75062Y-45954D01*
X75034Y-45926D01*
X74978Y-45898D01*
X74219Y-46489D02*
X74556Y-46489D01*
X74388Y-46489D02*
X74388Y-45898D01*
X74444Y-45982D01*
X74500Y-46039D01*
X74556Y-46067D01*
X73713Y-46095D02*
X73713Y-46489D01*
X73853Y-45870D02*
X73994Y-46292D01*
X73628Y-46292D01*
X90193Y-38148D02*
X89996Y-38739D01*
X89800Y-38148D01*
X89378Y-38710D02*
X89434Y-38739D01*
X89546Y-38739D01*
X89603Y-38710D01*
X89631Y-38654D01*
X89631Y-38429D01*
X89603Y-38373D01*
X89546Y-38345D01*
X89434Y-38345D01*
X89378Y-38373D01*
X89350Y-38429D01*
X89350Y-38485D01*
X89631Y-38542D01*
X89097Y-38739D02*
X89097Y-38345D01*
X89097Y-38457D02*
X89068Y-38401D01*
X89040Y-38373D01*
X88984Y-38345D01*
X88928Y-38345D01*
X88759Y-38710D02*
X88703Y-38739D01*
X88590Y-38739D01*
X88534Y-38710D01*
X88506Y-38654D01*
X88506Y-38626D01*
X88534Y-38570D01*
X88590Y-38542D01*
X88675Y-38542D01*
X88731Y-38514D01*
X88759Y-38457D01*
X88759Y-38429D01*
X88731Y-38373D01*
X88675Y-38345D01*
X88590Y-38345D01*
X88534Y-38373D01*
X88253Y-38739D02*
X88253Y-38345D01*
X88253Y-38148D02*
X88281Y-38176D01*
X88253Y-38204D01*
X88225Y-38176D01*
X88253Y-38148D01*
X88253Y-38204D01*
X87887Y-38739D02*
X87944Y-38710D01*
X87972Y-38682D01*
X88000Y-38626D01*
X88000Y-38457D01*
X87972Y-38401D01*
X87944Y-38373D01*
X87887Y-38345D01*
X87803Y-38345D01*
X87747Y-38373D01*
X87719Y-38401D01*
X87690Y-38457D01*
X87690Y-38626D01*
X87719Y-38682D01*
X87747Y-38710D01*
X87803Y-38739D01*
X87887Y-38739D01*
X87437Y-38345D02*
X87437Y-38739D01*
X87437Y-38401D02*
X87409Y-38373D01*
X87353Y-38345D01*
X87269Y-38345D01*
X87212Y-38373D01*
X87184Y-38429D01*
X87184Y-38739D01*
X86144Y-38739D02*
X86481Y-38739D01*
X86312Y-38739D02*
X86312Y-38148D01*
X86369Y-38232D01*
X86425Y-38289D01*
X86481Y-38317D01*
X85891Y-38682D02*
X85863Y-38710D01*
X85891Y-38739D01*
X85919Y-38710D01*
X85891Y-38682D01*
X85891Y-38739D01*
X85300Y-38739D02*
X85638Y-38739D01*
X85469Y-38739D02*
X85469Y-38148D01*
X85525Y-38232D01*
X85581Y-38289D01*
X85638Y-38317D01*
X89687Y-36818D02*
X90062Y-36818D01*
X90062Y-36031D01*
X89125Y-36781D02*
X89200Y-36818D01*
X89350Y-36818D01*
X89425Y-36781D01*
X89462Y-36706D01*
X89462Y-36406D01*
X89425Y-36331D01*
X89350Y-36293D01*
X89200Y-36293D01*
X89125Y-36331D01*
X89087Y-36406D01*
X89087Y-36481D01*
X89462Y-36556D01*
X88825Y-36293D02*
X88637Y-36818D01*
X88450Y-36293D01*
X87850Y-36781D02*
X87925Y-36818D01*
X88075Y-36818D01*
X88150Y-36781D01*
X88187Y-36706D01*
X88187Y-36406D01*
X88150Y-36331D01*
X88075Y-36293D01*
X87925Y-36293D01*
X87850Y-36331D01*
X87812Y-36406D01*
X87812Y-36481D01*
X88187Y-36556D01*
X87362Y-36818D02*
X87437Y-36781D01*
X87475Y-36706D01*
X87475Y-36031D01*
X87100Y-36781D02*
X87025Y-36818D01*
X86875Y-36818D01*
X86800Y-36781D01*
X86762Y-36706D01*
X86762Y-36668D01*
X86800Y-36593D01*
X86875Y-36556D01*
X86987Y-36556D01*
X87062Y-36518D01*
X87100Y-36443D01*
X87100Y-36406D01*
X87062Y-36331D01*
X86987Y-36293D01*
X86875Y-36293D01*
X86800Y-36331D01*
X86425Y-36818D02*
X86425Y-36031D01*
X86088Y-36818D02*
X86088Y-36406D01*
X86125Y-36331D01*
X86200Y-36293D01*
X86312Y-36293D01*
X86387Y-36331D01*
X86425Y-36368D01*
X85713Y-36818D02*
X85713Y-36293D01*
X85713Y-36031D02*
X85750Y-36068D01*
X85713Y-36106D01*
X85675Y-36068D01*
X85713Y-36031D01*
X85713Y-36106D01*
X85450Y-36293D02*
X85150Y-36293D01*
X85338Y-36818D02*
X85338Y-36143D01*
X85300Y-36068D01*
X85225Y-36031D01*
X85150Y-36031D01*
X85000Y-36293D02*
X84700Y-36293D01*
X84888Y-36031D02*
X84888Y-36706D01*
X84850Y-36781D01*
X84775Y-36818D01*
X84700Y-36818D01*
X84138Y-36781D02*
X84213Y-36818D01*
X84363Y-36818D01*
X84438Y-36781D01*
X84475Y-36706D01*
X84475Y-36406D01*
X84438Y-36331D01*
X84363Y-36293D01*
X84213Y-36293D01*
X84138Y-36331D01*
X84100Y-36406D01*
X84100Y-36481D01*
X84475Y-36556D01*
X83763Y-36818D02*
X83763Y-36293D01*
X83763Y-36443D02*
X83725Y-36368D01*
X83688Y-36331D01*
X83613Y-36293D01*
X83538Y-36293D01*
G54D11*
X61750Y-47000D02*
X61750Y-30000D01*
X94250Y-47000D02*
X61750Y-47000D01*
X94250Y-30000D02*
X94250Y-47000D01*
X61750Y-30000D02*
X94250Y-30000D01*
G54D14*
G36*
X95951Y-55693D02*
X95952Y-55699D01*
X95956Y-55703D01*
X95963Y-55707D01*
X95977Y-55710D01*
X95999Y-55712D01*
X96031Y-55714D01*
X96075Y-55715D01*
X96133Y-55716D01*
X96206Y-55717D01*
X96298Y-55718D01*
X96409Y-55719D01*
X96487Y-55719D01*
X96614Y-55720D01*
X96720Y-55720D01*
X96806Y-55720D01*
X96876Y-55719D01*
X96929Y-55718D01*
X96969Y-55717D01*
X96997Y-55715D01*
X97014Y-55712D01*
X97023Y-55709D01*
X97026Y-55706D01*
X97023Y-55685D01*
X97005Y-55657D01*
X96977Y-55627D01*
X96943Y-55600D01*
X96909Y-55581D01*
X96880Y-55573D01*
X96879Y-55573D01*
X96860Y-55567D01*
X96830Y-55551D01*
X96809Y-55538D01*
X96778Y-55518D01*
X96752Y-55508D01*
X96721Y-55506D01*
X96687Y-55508D01*
X96639Y-55514D01*
X96590Y-55523D01*
X96565Y-55530D01*
X96530Y-55540D01*
X96505Y-55542D01*
X96477Y-55534D01*
X96468Y-55530D01*
X96431Y-55520D01*
X96378Y-55513D01*
X96312Y-55508D01*
X96301Y-55508D01*
X96247Y-55506D01*
X96208Y-55506D01*
X96179Y-55510D01*
X96153Y-55519D01*
X96122Y-55533D01*
X96099Y-55545D01*
X96044Y-55577D01*
X96000Y-55612D01*
X95968Y-55648D01*
X95952Y-55680D01*
X95951Y-55693D01*
X95951Y-55693D01*
X95951Y-55693D01*
G37*
G36*
X98428Y-54855D02*
X98428Y-54906D01*
X98430Y-54964D01*
X98430Y-54967D01*
X98434Y-55036D01*
X98439Y-55087D01*
X98446Y-55126D01*
X98456Y-55158D01*
X98460Y-55167D01*
X98473Y-55204D01*
X98482Y-55250D01*
X98488Y-55311D01*
X98491Y-55349D01*
X98495Y-55420D01*
X98499Y-55473D01*
X98504Y-55512D01*
X98512Y-55539D01*
X98523Y-55561D01*
X98538Y-55581D01*
X98552Y-55596D01*
X98586Y-55628D01*
X98613Y-55640D01*
X98634Y-55635D01*
X98645Y-55624D01*
X98649Y-55615D01*
X98652Y-55599D01*
X98654Y-55572D01*
X98654Y-55532D01*
X98654Y-55479D01*
X98652Y-55409D01*
X98649Y-55320D01*
X98646Y-55227D01*
X98643Y-55134D01*
X98639Y-55047D01*
X98635Y-54969D01*
X98632Y-54902D01*
X98629Y-54850D01*
X98627Y-54816D01*
X98626Y-54805D01*
X98613Y-54765D01*
X98587Y-54729D01*
X98557Y-54703D01*
X98526Y-54694D01*
X98499Y-54703D01*
X98469Y-54728D01*
X98444Y-54762D01*
X98432Y-54793D01*
X98429Y-54815D01*
X98428Y-54855D01*
X98428Y-54855D01*
X98428Y-54855D01*
G37*
G36*
X96840Y-54906D02*
X96842Y-54964D01*
X96842Y-54967D01*
X96846Y-55036D01*
X96851Y-55086D01*
X96858Y-55125D01*
X96868Y-55157D01*
X96873Y-55168D01*
X96886Y-55205D01*
X96895Y-55249D01*
X96901Y-55306D01*
X96903Y-55350D01*
X96907Y-55421D01*
X96911Y-55474D01*
X96916Y-55512D01*
X96924Y-55540D01*
X96935Y-55562D01*
X96951Y-55582D01*
X96964Y-55596D01*
X96998Y-55628D01*
X97024Y-55640D01*
X97046Y-55635D01*
X97057Y-55624D01*
X97061Y-55615D01*
X97064Y-55599D01*
X97065Y-55572D01*
X97066Y-55532D01*
X97066Y-55479D01*
X97064Y-55409D01*
X97061Y-55320D01*
X97058Y-55227D01*
X97054Y-55134D01*
X97051Y-55047D01*
X97048Y-54969D01*
X97044Y-54902D01*
X97041Y-54850D01*
X97039Y-54816D01*
X97038Y-54805D01*
X97025Y-54765D01*
X97000Y-54729D01*
X96969Y-54703D01*
X96939Y-54694D01*
X96911Y-54703D01*
X96881Y-54728D01*
X96856Y-54762D01*
X96844Y-54793D01*
X96841Y-54815D01*
X96840Y-54855D01*
X96840Y-54906D01*
X96840Y-54906D01*
X96840Y-54906D01*
G37*
G36*
X95252Y-54855D02*
X95252Y-54906D01*
X95254Y-54964D01*
X95254Y-54967D01*
X95258Y-55036D01*
X95263Y-55086D01*
X95270Y-55125D01*
X95280Y-55157D01*
X95285Y-55168D01*
X95298Y-55205D01*
X95307Y-55249D01*
X95313Y-55306D01*
X95315Y-55350D01*
X95319Y-55421D01*
X95323Y-55474D01*
X95328Y-55512D01*
X95336Y-55540D01*
X95347Y-55562D01*
X95363Y-55582D01*
X95376Y-55596D01*
X95410Y-55628D01*
X95436Y-55640D01*
X95458Y-55635D01*
X95469Y-55624D01*
X95473Y-55615D01*
X95476Y-55599D01*
X95478Y-55572D01*
X95478Y-55532D01*
X95478Y-55479D01*
X95476Y-55409D01*
X95473Y-55320D01*
X95470Y-55227D01*
X95467Y-55134D01*
X95463Y-55047D01*
X95459Y-54969D01*
X95456Y-54902D01*
X95454Y-54850D01*
X95451Y-54816D01*
X95450Y-54805D01*
X95436Y-54765D01*
X95412Y-54729D01*
X95381Y-54703D01*
X95351Y-54694D01*
X95323Y-54703D01*
X95293Y-54728D01*
X95269Y-54762D01*
X95256Y-54793D01*
X95253Y-54815D01*
X95252Y-54855D01*
X95252Y-54855D01*
X95252Y-54855D01*
G37*
G36*
X92077Y-54855D02*
X92078Y-54907D01*
X92079Y-54965D01*
X92080Y-54969D01*
X92084Y-55038D01*
X92089Y-55089D01*
X92096Y-55128D01*
X92107Y-55160D01*
X92111Y-55170D01*
X92122Y-55202D01*
X92131Y-55239D01*
X92137Y-55288D01*
X92141Y-55353D01*
X92142Y-55368D01*
X92147Y-55446D01*
X92156Y-55505D01*
X92168Y-55550D01*
X92187Y-55584D01*
X92213Y-55611D01*
X92221Y-55618D01*
X92252Y-55638D01*
X92275Y-55639D01*
X92294Y-55624D01*
X92298Y-55615D01*
X92301Y-55599D01*
X92303Y-55572D01*
X92303Y-55532D01*
X92303Y-55479D01*
X92301Y-55409D01*
X92298Y-55320D01*
X92295Y-55227D01*
X92292Y-55134D01*
X92288Y-55047D01*
X92285Y-54969D01*
X92281Y-54902D01*
X92279Y-54850D01*
X92276Y-54816D01*
X92275Y-54805D01*
X92262Y-54765D01*
X92237Y-54729D01*
X92206Y-54703D01*
X92176Y-54694D01*
X92148Y-54703D01*
X92118Y-54728D01*
X92093Y-54762D01*
X92080Y-54793D01*
X92078Y-54816D01*
X92077Y-54855D01*
X92077Y-54855D01*
X92077Y-54855D01*
G37*
G36*
X97452Y-54900D02*
X97453Y-54969D01*
X97455Y-55047D01*
X97458Y-55130D01*
X97461Y-55215D01*
X97465Y-55299D01*
X97470Y-55378D01*
X97475Y-55450D01*
X97479Y-55510D01*
X97484Y-55556D01*
X97489Y-55585D01*
X97492Y-55592D01*
X97517Y-55606D01*
X97548Y-55603D01*
X97577Y-55583D01*
X97579Y-55582D01*
X97599Y-55556D01*
X97613Y-55530D01*
X97622Y-55498D01*
X97626Y-55454D01*
X97628Y-55395D01*
X97628Y-55377D01*
X97630Y-55300D01*
X97636Y-55236D01*
X97645Y-55192D01*
X97653Y-55150D01*
X97659Y-55093D01*
X97661Y-55027D01*
X97661Y-54959D01*
X97659Y-54896D01*
X97653Y-54844D01*
X97649Y-54825D01*
X97631Y-54781D01*
X97600Y-54739D01*
X97565Y-54709D01*
X97540Y-54698D01*
X97508Y-54700D01*
X97480Y-54724D01*
X97460Y-54768D01*
X97457Y-54777D01*
X97454Y-54801D01*
X97453Y-54843D01*
X97452Y-54900D01*
X97452Y-54900D01*
X97452Y-54900D01*
G37*
G36*
X91102Y-54894D02*
X91103Y-54962D01*
X91104Y-55039D01*
X91107Y-55122D01*
X91111Y-55207D01*
X91115Y-55291D01*
X91119Y-55371D01*
X91124Y-55443D01*
X91128Y-55505D01*
X91134Y-55552D01*
X91138Y-55583D01*
X91141Y-55592D01*
X91166Y-55606D01*
X91197Y-55603D01*
X91226Y-55584D01*
X91228Y-55582D01*
X91249Y-55556D01*
X91263Y-55530D01*
X91271Y-55497D01*
X91275Y-55453D01*
X91277Y-55393D01*
X91277Y-55379D01*
X91280Y-55290D01*
X91288Y-55219D01*
X91295Y-55188D01*
X91304Y-55153D01*
X91308Y-55111D01*
X91310Y-55059D01*
X91310Y-54991D01*
X91309Y-54968D01*
X91307Y-54904D01*
X91305Y-54858D01*
X91301Y-54826D01*
X91295Y-54803D01*
X91286Y-54785D01*
X91277Y-54771D01*
X91246Y-54735D01*
X91211Y-54708D01*
X91178Y-54694D01*
X91171Y-54694D01*
X91147Y-54704D01*
X91124Y-54734D01*
X91106Y-54775D01*
X91103Y-54797D01*
X91102Y-54838D01*
X91102Y-54894D01*
X91102Y-54894D01*
X91102Y-54894D01*
G37*
G36*
X93253Y-55295D02*
X93254Y-55356D01*
X93258Y-55403D01*
X93264Y-55438D01*
X93272Y-55464D01*
X93284Y-55484D01*
X93300Y-55500D01*
X93306Y-55505D01*
X93335Y-55523D01*
X93359Y-55525D01*
X93386Y-55509D01*
X93408Y-55489D01*
X93446Y-55450D01*
X93446Y-55334D01*
X93442Y-55246D01*
X93432Y-55158D01*
X93425Y-55119D01*
X93414Y-55061D01*
X93405Y-54992D01*
X93398Y-54924D01*
X93396Y-54900D01*
X93388Y-54821D01*
X93376Y-54764D01*
X93358Y-54728D01*
X93335Y-54712D01*
X93326Y-54711D01*
X93310Y-54717D01*
X93296Y-54738D01*
X93282Y-54774D01*
X93275Y-54798D01*
X93270Y-54826D01*
X93265Y-54862D01*
X93262Y-54909D01*
X93259Y-54970D01*
X93257Y-55048D01*
X93255Y-55117D01*
X93253Y-55216D01*
X93253Y-55295D01*
X93253Y-55295D01*
X93253Y-55295D01*
G37*
G36*
X86844Y-54682D02*
X87438Y-54682D01*
X88032Y-54682D01*
X88032Y-55054D01*
X88032Y-55425D01*
X88130Y-55425D01*
X88227Y-55425D01*
X88227Y-55071D01*
X88227Y-54983D01*
X88227Y-54904D01*
X88228Y-54835D01*
X88228Y-54779D01*
X88229Y-54740D01*
X88230Y-54719D01*
X88230Y-54716D01*
X88241Y-54722D01*
X88270Y-54736D01*
X88316Y-54760D01*
X88378Y-54791D01*
X88454Y-54830D01*
X88542Y-54874D01*
X88641Y-54925D01*
X88748Y-54980D01*
X88864Y-55039D01*
X88970Y-55093D01*
X89091Y-55155D01*
X89206Y-55214D01*
X89313Y-55268D01*
X89412Y-55318D01*
X89499Y-55362D01*
X89575Y-55400D01*
X89636Y-55431D01*
X89682Y-55453D01*
X89711Y-55466D01*
X89720Y-55470D01*
X89724Y-55466D01*
X89728Y-55450D01*
X89730Y-55422D01*
X89732Y-55380D01*
X89733Y-55321D01*
X89734Y-55244D01*
X89735Y-55148D01*
X89735Y-55076D01*
X89735Y-54682D01*
X90272Y-54682D01*
X90808Y-54682D01*
X90808Y-54585D01*
X90808Y-54489D01*
X90272Y-54489D01*
X89735Y-54489D01*
X89735Y-54089D01*
X89734Y-53996D01*
X89734Y-53911D01*
X89732Y-53836D01*
X89731Y-53774D01*
X89730Y-53727D01*
X89728Y-53698D01*
X89726Y-53690D01*
X89715Y-53694D01*
X89685Y-53709D01*
X89638Y-53733D01*
X89575Y-53764D01*
X89498Y-53803D01*
X89410Y-53848D01*
X89311Y-53898D01*
X89202Y-53954D01*
X89086Y-54013D01*
X88975Y-54070D01*
X88232Y-54450D01*
X88227Y-54101D01*
X88221Y-53752D01*
X88126Y-53749D01*
X88032Y-53745D01*
X88032Y-54117D01*
X88032Y-54489D01*
X87438Y-54489D01*
X86844Y-54489D01*
X86844Y-54585D01*
X86844Y-54682D01*
X86844Y-54682D01*
X86844Y-54682D01*
G37*
G36*
X98137Y-54627D02*
X98147Y-54666D01*
X98166Y-54698D01*
X98192Y-54721D01*
X98231Y-54733D01*
X98286Y-54739D01*
X98319Y-54739D01*
X98367Y-54739D01*
X98399Y-54737D01*
X98420Y-54730D01*
X98438Y-54719D01*
X98457Y-54701D01*
X98488Y-54658D01*
X98496Y-54614D01*
X98481Y-54569D01*
X98473Y-54556D01*
X98438Y-54525D01*
X98389Y-54506D01*
X98322Y-54501D01*
X98288Y-54502D01*
X98242Y-54507D01*
X98212Y-54515D01*
X98189Y-54528D01*
X98177Y-54539D01*
X98146Y-54581D01*
X98137Y-54627D01*
X98137Y-54627D01*
X98137Y-54627D01*
G37*
G36*
X97552Y-54625D02*
X97562Y-54669D01*
X97594Y-54710D01*
X97595Y-54711D01*
X97610Y-54722D01*
X97624Y-54730D01*
X97644Y-54735D01*
X97671Y-54738D01*
X97713Y-54739D01*
X97771Y-54739D01*
X97793Y-54739D01*
X97857Y-54739D01*
X97903Y-54738D01*
X97934Y-54736D01*
X97954Y-54732D01*
X97969Y-54725D01*
X97982Y-54715D01*
X97986Y-54711D01*
X98021Y-54668D01*
X98033Y-54623D01*
X98022Y-54578D01*
X97991Y-54538D01*
X97977Y-54525D01*
X97964Y-54516D01*
X97947Y-54510D01*
X97922Y-54507D01*
X97884Y-54506D01*
X97830Y-54505D01*
X97800Y-54505D01*
X97726Y-54506D01*
X97671Y-54509D01*
X97631Y-54516D01*
X97603Y-54527D01*
X97584Y-54544D01*
X97568Y-54568D01*
X97564Y-54576D01*
X97552Y-54625D01*
X97552Y-54625D01*
X97552Y-54625D01*
G37*
G36*
X96549Y-54626D02*
X96562Y-54671D01*
X96595Y-54711D01*
X96612Y-54725D01*
X96631Y-54733D01*
X96656Y-54738D01*
X96695Y-54739D01*
X96728Y-54739D01*
X96777Y-54739D01*
X96809Y-54737D01*
X96831Y-54731D01*
X96848Y-54721D01*
X96867Y-54703D01*
X96869Y-54701D01*
X96900Y-54658D01*
X96908Y-54614D01*
X96893Y-54569D01*
X96885Y-54556D01*
X96851Y-54525D01*
X96801Y-54506D01*
X96734Y-54501D01*
X96700Y-54502D01*
X96654Y-54507D01*
X96624Y-54515D01*
X96601Y-54528D01*
X96588Y-54539D01*
X96558Y-54581D01*
X96549Y-54626D01*
X96549Y-54626D01*
X96549Y-54626D01*
G37*
G36*
X94961Y-54626D02*
X94974Y-54671D01*
X95007Y-54711D01*
X95024Y-54725D01*
X95042Y-54733D01*
X95068Y-54738D01*
X95107Y-54739D01*
X95140Y-54739D01*
X95189Y-54739D01*
X95221Y-54737D01*
X95243Y-54731D01*
X95260Y-54721D01*
X95279Y-54703D01*
X95281Y-54701D01*
X95312Y-54658D01*
X95320Y-54614D01*
X95305Y-54569D01*
X95297Y-54556D01*
X95262Y-54525D01*
X95213Y-54506D01*
X95147Y-54501D01*
X95112Y-54502D01*
X95066Y-54507D01*
X95036Y-54515D01*
X95013Y-54528D01*
X95001Y-54539D01*
X94969Y-54581D01*
X94961Y-54626D01*
X94961Y-54626D01*
X94961Y-54626D01*
G37*
G36*
X94376Y-54625D02*
X94386Y-54669D01*
X94418Y-54710D01*
X94419Y-54711D01*
X94434Y-54722D01*
X94448Y-54730D01*
X94468Y-54735D01*
X94496Y-54738D01*
X94536Y-54739D01*
X94595Y-54739D01*
X94617Y-54739D01*
X94681Y-54739D01*
X94727Y-54738D01*
X94758Y-54736D01*
X94779Y-54732D01*
X94794Y-54725D01*
X94806Y-54715D01*
X94810Y-54711D01*
X94845Y-54668D01*
X94857Y-54623D01*
X94846Y-54578D01*
X94815Y-54538D01*
X94801Y-54525D01*
X94788Y-54516D01*
X94771Y-54510D01*
X94746Y-54507D01*
X94708Y-54506D01*
X94654Y-54505D01*
X94624Y-54505D01*
X94550Y-54506D01*
X94495Y-54509D01*
X94455Y-54516D01*
X94427Y-54527D01*
X94408Y-54544D01*
X94392Y-54568D01*
X94389Y-54576D01*
X94376Y-54625D01*
X94376Y-54625D01*
X94376Y-54625D01*
G37*
G36*
X91786Y-54626D02*
X91799Y-54671D01*
X91832Y-54711D01*
X91849Y-54725D01*
X91868Y-54733D01*
X91893Y-54738D01*
X91932Y-54739D01*
X91965Y-54739D01*
X92014Y-54739D01*
X92046Y-54737D01*
X92068Y-54731D01*
X92085Y-54721D01*
X92104Y-54703D01*
X92106Y-54701D01*
X92137Y-54658D01*
X92145Y-54614D01*
X92130Y-54569D01*
X92122Y-54556D01*
X92088Y-54525D01*
X92038Y-54506D01*
X91971Y-54501D01*
X91937Y-54502D01*
X91891Y-54507D01*
X91861Y-54515D01*
X91838Y-54528D01*
X91825Y-54539D01*
X91795Y-54581D01*
X91786Y-54626D01*
X91786Y-54626D01*
X91786Y-54626D01*
G37*
G36*
X91201Y-54625D02*
X91211Y-54669D01*
X91243Y-54710D01*
X91244Y-54711D01*
X91259Y-54722D01*
X91273Y-54730D01*
X91293Y-54735D01*
X91321Y-54738D01*
X91362Y-54739D01*
X91420Y-54739D01*
X91442Y-54739D01*
X91506Y-54739D01*
X91552Y-54738D01*
X91583Y-54736D01*
X91604Y-54732D01*
X91618Y-54725D01*
X91631Y-54715D01*
X91635Y-54711D01*
X91670Y-54668D01*
X91682Y-54623D01*
X91672Y-54578D01*
X91640Y-54538D01*
X91626Y-54525D01*
X91613Y-54516D01*
X91596Y-54510D01*
X91570Y-54507D01*
X91533Y-54506D01*
X91479Y-54505D01*
X91449Y-54505D01*
X91375Y-54506D01*
X91320Y-54509D01*
X91280Y-54516D01*
X91252Y-54527D01*
X91233Y-54544D01*
X91217Y-54568D01*
X91214Y-54576D01*
X91201Y-54625D01*
X91201Y-54625D01*
X91201Y-54625D01*
G37*
G36*
X97398Y-53757D02*
X97400Y-53831D01*
X97403Y-53924D01*
X97408Y-54037D01*
X97412Y-54107D01*
X97417Y-54216D01*
X97422Y-54305D01*
X97426Y-54376D01*
X97429Y-54430D01*
X97433Y-54471D01*
X97436Y-54500D01*
X97440Y-54519D01*
X97445Y-54533D01*
X97450Y-54541D01*
X97456Y-54547D01*
X97457Y-54548D01*
X97488Y-54565D01*
X97518Y-54563D01*
X97553Y-54542D01*
X97563Y-54534D01*
X97589Y-54508D01*
X97607Y-54484D01*
X97619Y-54453D01*
X97625Y-54412D01*
X97626Y-54358D01*
X97625Y-54287D01*
X97622Y-54221D01*
X97619Y-54173D01*
X97612Y-54137D01*
X97604Y-54107D01*
X97594Y-54083D01*
X97582Y-54054D01*
X97574Y-54022D01*
X97568Y-53981D01*
X97563Y-53926D01*
X97560Y-53874D01*
X97553Y-53721D01*
X97499Y-53671D01*
X97473Y-53647D01*
X97451Y-53630D01*
X97434Y-53621D01*
X97420Y-53622D01*
X97410Y-53635D01*
X97403Y-53661D01*
X97399Y-53701D01*
X97398Y-53757D01*
X97398Y-53757D01*
X97398Y-53757D01*
G37*
G36*
X94223Y-53757D02*
X94224Y-53831D01*
X94227Y-53923D01*
X94232Y-54036D01*
X94236Y-54106D01*
X94241Y-54216D01*
X94246Y-54305D01*
X94250Y-54375D01*
X94253Y-54430D01*
X94257Y-54471D01*
X94261Y-54500D01*
X94264Y-54519D01*
X94269Y-54533D01*
X94274Y-54541D01*
X94280Y-54547D01*
X94281Y-54548D01*
X94312Y-54565D01*
X94342Y-54563D01*
X94377Y-54542D01*
X94387Y-54534D01*
X94413Y-54508D01*
X94431Y-54484D01*
X94443Y-54453D01*
X94449Y-54412D01*
X94451Y-54358D01*
X94449Y-54287D01*
X94446Y-54221D01*
X94443Y-54173D01*
X94437Y-54137D01*
X94428Y-54107D01*
X94418Y-54083D01*
X94407Y-54054D01*
X94398Y-54022D01*
X94392Y-53981D01*
X94387Y-53926D01*
X94384Y-53874D01*
X94377Y-53721D01*
X94324Y-53671D01*
X94297Y-53647D01*
X94276Y-53630D01*
X94258Y-53621D01*
X94244Y-53622D01*
X94234Y-53635D01*
X94227Y-53661D01*
X94224Y-53701D01*
X94223Y-53757D01*
X94223Y-53757D01*
X94223Y-53757D01*
G37*
G36*
X93192Y-53859D02*
X93192Y-53914D01*
X93195Y-53978D01*
X93199Y-54045D01*
X93204Y-54113D01*
X93211Y-54174D01*
X93218Y-54225D01*
X93223Y-54249D01*
X93233Y-54302D01*
X93241Y-54362D01*
X93246Y-54406D01*
X93254Y-54477D01*
X93267Y-54525D01*
X93285Y-54555D01*
X93308Y-54565D01*
X93330Y-54561D01*
X93344Y-54547D01*
X93361Y-54522D01*
X93362Y-54521D01*
X93369Y-54500D01*
X93374Y-54474D01*
X93375Y-54435D01*
X93373Y-54380D01*
X93372Y-54366D01*
X93369Y-54295D01*
X93371Y-54240D01*
X93378Y-54191D01*
X93383Y-54169D01*
X93392Y-54110D01*
X93398Y-54037D01*
X93400Y-53960D01*
X93397Y-53888D01*
X93390Y-53838D01*
X93370Y-53786D01*
X93344Y-53755D01*
X93303Y-53729D01*
X93264Y-53725D01*
X93229Y-53742D01*
X93202Y-53781D01*
X93197Y-53793D01*
X93193Y-53817D01*
X93192Y-53859D01*
X93192Y-53859D01*
X93192Y-53859D01*
G37*
G36*
X91048Y-53757D02*
X91049Y-53830D01*
X91052Y-53923D01*
X91057Y-54036D01*
X91061Y-54106D01*
X91066Y-54216D01*
X91071Y-54304D01*
X91075Y-54375D01*
X91078Y-54430D01*
X91082Y-54471D01*
X91085Y-54500D01*
X91089Y-54519D01*
X91094Y-54532D01*
X91099Y-54541D01*
X91105Y-54547D01*
X91106Y-54548D01*
X91137Y-54565D01*
X91167Y-54563D01*
X91202Y-54542D01*
X91212Y-54534D01*
X91238Y-54508D01*
X91256Y-54484D01*
X91268Y-54453D01*
X91274Y-54412D01*
X91276Y-54358D01*
X91274Y-54287D01*
X91272Y-54221D01*
X91268Y-54173D01*
X91262Y-54137D01*
X91253Y-54107D01*
X91243Y-54083D01*
X91232Y-54054D01*
X91223Y-54022D01*
X91217Y-53981D01*
X91212Y-53926D01*
X91209Y-53874D01*
X91202Y-53721D01*
X91149Y-53671D01*
X91123Y-53647D01*
X91101Y-53630D01*
X91083Y-53621D01*
X91069Y-53622D01*
X91059Y-53635D01*
X91053Y-53661D01*
X91049Y-53701D01*
X91048Y-53757D01*
X91048Y-53757D01*
X91048Y-53757D01*
G37*
G36*
X98394Y-54228D02*
X98395Y-54275D01*
X98396Y-54310D01*
X98403Y-54385D01*
X98414Y-54441D01*
X98431Y-54483D01*
X98455Y-54513D01*
X98477Y-54531D01*
X98508Y-54550D01*
X98530Y-54555D01*
X98552Y-54545D01*
X98568Y-54533D01*
X98591Y-54507D01*
X98604Y-54480D01*
X98605Y-54459D01*
X98605Y-54418D01*
X98604Y-54362D01*
X98602Y-54292D01*
X98599Y-54214D01*
X98596Y-54129D01*
X98592Y-54043D01*
X98587Y-53957D01*
X98583Y-53875D01*
X98578Y-53801D01*
X98574Y-53738D01*
X98570Y-53690D01*
X98566Y-53659D01*
X98565Y-53652D01*
X98551Y-53620D01*
X98534Y-53611D01*
X98511Y-53623D01*
X98499Y-53635D01*
X98475Y-53665D01*
X98457Y-53694D01*
X98446Y-53729D01*
X98440Y-53772D01*
X98437Y-53830D01*
X98437Y-53898D01*
X98438Y-53965D01*
X98437Y-54014D01*
X98434Y-54052D01*
X98428Y-54083D01*
X98419Y-54114D01*
X98415Y-54124D01*
X98403Y-54159D01*
X98396Y-54192D01*
X98394Y-54228D01*
X98394Y-54228D01*
X98394Y-54228D01*
G37*
G36*
X96806Y-54228D02*
X96807Y-54275D01*
X96808Y-54310D01*
X96815Y-54385D01*
X96826Y-54441D01*
X96843Y-54483D01*
X96867Y-54513D01*
X96890Y-54531D01*
X96920Y-54550D01*
X96942Y-54555D01*
X96964Y-54545D01*
X96980Y-54533D01*
X97003Y-54507D01*
X97016Y-54480D01*
X97017Y-54459D01*
X97017Y-54418D01*
X97016Y-54362D01*
X97014Y-54292D01*
X97011Y-54214D01*
X97008Y-54129D01*
X97004Y-54043D01*
X97000Y-53957D01*
X96995Y-53875D01*
X96990Y-53801D01*
X96986Y-53738D01*
X96981Y-53690D01*
X96978Y-53659D01*
X96976Y-53652D01*
X96963Y-53620D01*
X96945Y-53611D01*
X96923Y-53623D01*
X96911Y-53635D01*
X96887Y-53665D01*
X96869Y-53694D01*
X96858Y-53729D01*
X96852Y-53772D01*
X96849Y-53830D01*
X96850Y-53898D01*
X96850Y-53965D01*
X96849Y-54014D01*
X96846Y-54052D01*
X96840Y-54083D01*
X96831Y-54114D01*
X96827Y-54124D01*
X96815Y-54159D01*
X96808Y-54192D01*
X96806Y-54228D01*
X96806Y-54228D01*
X96806Y-54228D01*
G37*
G36*
X95218Y-54228D02*
X95218Y-54275D01*
X95221Y-54310D01*
X95227Y-54385D01*
X95238Y-54441D01*
X95255Y-54483D01*
X95280Y-54513D01*
X95302Y-54531D01*
X95333Y-54550D01*
X95355Y-54555D01*
X95376Y-54545D01*
X95392Y-54533D01*
X95415Y-54507D01*
X95428Y-54480D01*
X95429Y-54459D01*
X95429Y-54418D01*
X95428Y-54362D01*
X95426Y-54292D01*
X95423Y-54214D01*
X95420Y-54129D01*
X95416Y-54043D01*
X95411Y-53957D01*
X95407Y-53875D01*
X95403Y-53801D01*
X95398Y-53738D01*
X95394Y-53690D01*
X95390Y-53659D01*
X95388Y-53652D01*
X95375Y-53620D01*
X95358Y-53611D01*
X95335Y-53623D01*
X95323Y-53635D01*
X95299Y-53665D01*
X95282Y-53694D01*
X95270Y-53729D01*
X95264Y-53772D01*
X95261Y-53830D01*
X95262Y-53898D01*
X95262Y-53965D01*
X95261Y-54014D01*
X95258Y-54052D01*
X95252Y-54083D01*
X95242Y-54114D01*
X95239Y-54124D01*
X95227Y-54159D01*
X95221Y-54192D01*
X95218Y-54228D01*
X95218Y-54228D01*
X95218Y-54228D01*
G37*
G36*
X92043Y-54228D02*
X92044Y-54275D01*
X92046Y-54310D01*
X92052Y-54385D01*
X92063Y-54441D01*
X92080Y-54483D01*
X92104Y-54513D01*
X92127Y-54531D01*
X92158Y-54550D01*
X92180Y-54555D01*
X92201Y-54545D01*
X92217Y-54533D01*
X92240Y-54507D01*
X92253Y-54480D01*
X92254Y-54459D01*
X92255Y-54419D01*
X92254Y-54362D01*
X92251Y-54293D01*
X92249Y-54214D01*
X92245Y-54130D01*
X92241Y-54043D01*
X92237Y-53957D01*
X92232Y-53875D01*
X92228Y-53801D01*
X92223Y-53739D01*
X92219Y-53690D01*
X92215Y-53659D01*
X92213Y-53652D01*
X92200Y-53620D01*
X92183Y-53611D01*
X92160Y-53623D01*
X92148Y-53635D01*
X92124Y-53665D01*
X92107Y-53694D01*
X92095Y-53729D01*
X92089Y-53772D01*
X92086Y-53830D01*
X92087Y-53898D01*
X92087Y-53965D01*
X92086Y-54014D01*
X92083Y-54052D01*
X92077Y-54083D01*
X92068Y-54114D01*
X92064Y-54124D01*
X92052Y-54159D01*
X92046Y-54192D01*
X92043Y-54228D01*
X92043Y-54228D01*
X92043Y-54228D01*
G37*
G36*
X88398Y-53873D02*
X88456Y-53843D01*
X88488Y-53828D01*
X88511Y-53818D01*
X88517Y-53817D01*
X88523Y-53828D01*
X88537Y-53856D01*
X88557Y-53897D01*
X88581Y-53947D01*
X88590Y-53967D01*
X88615Y-54019D01*
X88638Y-54062D01*
X88656Y-54094D01*
X88667Y-54110D01*
X88669Y-54111D01*
X88684Y-54105D01*
X88708Y-54091D01*
X88709Y-54091D01*
X88731Y-54076D01*
X88741Y-54065D01*
X88741Y-54065D01*
X88736Y-54053D01*
X88723Y-54024D01*
X88704Y-53982D01*
X88681Y-53931D01*
X88672Y-53913D01*
X88647Y-53861D01*
X88627Y-53816D01*
X88612Y-53784D01*
X88604Y-53766D01*
X88604Y-53765D01*
X88613Y-53759D01*
X88637Y-53746D01*
X88661Y-53735D01*
X88692Y-53719D01*
X88713Y-53707D01*
X88718Y-53702D01*
X88708Y-53693D01*
X88683Y-53675D01*
X88646Y-53649D01*
X88598Y-53617D01*
X88566Y-53595D01*
X88415Y-53495D01*
X88407Y-53590D01*
X88404Y-53651D01*
X88401Y-53720D01*
X88399Y-53778D01*
X88398Y-53873D01*
X88398Y-53873D01*
X88398Y-53873D01*
G37*
G36*
X88836Y-53571D02*
X88837Y-53611D01*
X88838Y-53637D01*
X88840Y-53644D01*
X88854Y-53638D01*
X88880Y-53624D01*
X88895Y-53615D01*
X88923Y-53599D01*
X88943Y-53589D01*
X88947Y-53587D01*
X88954Y-53596D01*
X88969Y-53623D01*
X88990Y-53663D01*
X89015Y-53713D01*
X89026Y-53735D01*
X89052Y-53788D01*
X89075Y-53832D01*
X89093Y-53864D01*
X89103Y-53882D01*
X89105Y-53883D01*
X89119Y-53878D01*
X89143Y-53866D01*
X89146Y-53864D01*
X89170Y-53851D01*
X89183Y-53844D01*
X89184Y-53843D01*
X89180Y-53833D01*
X89168Y-53805D01*
X89149Y-53765D01*
X89126Y-53716D01*
X89118Y-53701D01*
X89093Y-53648D01*
X89072Y-53603D01*
X89057Y-53569D01*
X89049Y-53549D01*
X89049Y-53547D01*
X89059Y-53535D01*
X89083Y-53519D01*
X89100Y-53509D01*
X89130Y-53493D01*
X89149Y-53479D01*
X89152Y-53474D01*
X89143Y-53465D01*
X89119Y-53447D01*
X89084Y-53422D01*
X89042Y-53392D01*
X88996Y-53360D01*
X88950Y-53330D01*
X88909Y-53303D01*
X88876Y-53282D01*
X88855Y-53270D01*
X88850Y-53269D01*
X88847Y-53282D01*
X88844Y-53313D01*
X88842Y-53357D01*
X88840Y-53409D01*
X88838Y-53465D01*
X88837Y-53521D01*
X88836Y-53571D01*
X88836Y-53571D01*
X88836Y-53571D01*
G37*
G36*
X95869Y-53565D02*
X95880Y-53600D01*
X95899Y-53631D01*
X95923Y-53662D01*
X95942Y-53679D01*
X95964Y-53688D01*
X95994Y-53694D01*
X96026Y-53703D01*
X96049Y-53716D01*
X96051Y-53718D01*
X96069Y-53726D01*
X96106Y-53732D01*
X96154Y-53736D01*
X96209Y-53737D01*
X96267Y-53735D01*
X96321Y-53731D01*
X96366Y-53725D01*
X96397Y-53717D01*
X96400Y-53716D01*
X96430Y-53704D01*
X96453Y-53703D01*
X96477Y-53712D01*
X96506Y-53720D01*
X96550Y-53727D01*
X96599Y-53731D01*
X96605Y-53732D01*
X96654Y-53733D01*
X96687Y-53731D01*
X96711Y-53724D01*
X96735Y-53711D01*
X96736Y-53710D01*
X96776Y-53688D01*
X96817Y-53668D01*
X96822Y-53667D01*
X96859Y-53645D01*
X96890Y-53614D01*
X96912Y-53579D01*
X96917Y-53547D01*
X96916Y-53541D01*
X96912Y-53537D01*
X96905Y-53533D01*
X96891Y-53530D01*
X96869Y-53528D01*
X96837Y-53526D01*
X96792Y-53524D01*
X96733Y-53523D01*
X96658Y-53522D01*
X96565Y-53521D01*
X96451Y-53521D01*
X96417Y-53521D01*
X96311Y-53520D01*
X96213Y-53520D01*
X96123Y-53520D01*
X96044Y-53520D01*
X95980Y-53521D01*
X95931Y-53522D01*
X95902Y-53523D01*
X95894Y-53524D01*
X95873Y-53538D01*
X95869Y-53565D01*
X95869Y-53565D01*
X95869Y-53565D01*
G37*
G36*
X94280Y-53561D02*
X94288Y-53592D01*
X94306Y-53624D01*
X94332Y-53654D01*
X94364Y-53679D01*
X94400Y-53693D01*
X94404Y-53693D01*
X94437Y-53702D01*
X94460Y-53715D01*
X94463Y-53718D01*
X94482Y-53726D01*
X94518Y-53732D01*
X94566Y-53736D01*
X94621Y-53737D01*
X94679Y-53735D01*
X94733Y-53731D01*
X94778Y-53725D01*
X94809Y-53717D01*
X94812Y-53716D01*
X94841Y-53704D01*
X94865Y-53703D01*
X94889Y-53712D01*
X94919Y-53720D01*
X94962Y-53727D01*
X95011Y-53731D01*
X95017Y-53732D01*
X95066Y-53733D01*
X95099Y-53731D01*
X95124Y-53724D01*
X95147Y-53711D01*
X95149Y-53710D01*
X95187Y-53688D01*
X95229Y-53668D01*
X95234Y-53667D01*
X95271Y-53645D01*
X95302Y-53614D01*
X95323Y-53579D01*
X95329Y-53547D01*
X95328Y-53541D01*
X95324Y-53537D01*
X95317Y-53533D01*
X95303Y-53530D01*
X95281Y-53528D01*
X95248Y-53526D01*
X95204Y-53524D01*
X95145Y-53523D01*
X95070Y-53522D01*
X94977Y-53521D01*
X94863Y-53521D01*
X94829Y-53521D01*
X94724Y-53520D01*
X94625Y-53520D01*
X94535Y-53520D01*
X94456Y-53520D01*
X94392Y-53521D01*
X94343Y-53522D01*
X94314Y-53523D01*
X94306Y-53524D01*
X94286Y-53537D01*
X94280Y-53561D01*
X94280Y-53561D01*
X94280Y-53561D01*
G37*
G36*
X92693Y-53561D02*
X92701Y-53592D01*
X92719Y-53624D01*
X92745Y-53654D01*
X92776Y-53679D01*
X92812Y-53693D01*
X92816Y-53693D01*
X92849Y-53702D01*
X92872Y-53715D01*
X92875Y-53718D01*
X92894Y-53726D01*
X92930Y-53732D01*
X92978Y-53736D01*
X93034Y-53737D01*
X93091Y-53735D01*
X93145Y-53731D01*
X93190Y-53725D01*
X93221Y-53717D01*
X93224Y-53716D01*
X93254Y-53704D01*
X93277Y-53703D01*
X93301Y-53712D01*
X93330Y-53720D01*
X93374Y-53727D01*
X93423Y-53731D01*
X93429Y-53732D01*
X93478Y-53733D01*
X93511Y-53731D01*
X93536Y-53724D01*
X93559Y-53711D01*
X93561Y-53710D01*
X93599Y-53688D01*
X93641Y-53668D01*
X93646Y-53667D01*
X93683Y-53645D01*
X93714Y-53614D01*
X93736Y-53579D01*
X93741Y-53547D01*
X93740Y-53541D01*
X93736Y-53537D01*
X93729Y-53533D01*
X93715Y-53530D01*
X93693Y-53528D01*
X93660Y-53526D01*
X93616Y-53524D01*
X93557Y-53523D01*
X93482Y-53522D01*
X93389Y-53521D01*
X93275Y-53521D01*
X93241Y-53521D01*
X93135Y-53520D01*
X93037Y-53520D01*
X92947Y-53520D01*
X92868Y-53520D01*
X92804Y-53521D01*
X92755Y-53522D01*
X92727Y-53523D01*
X92719Y-53524D01*
X92698Y-53537D01*
X92693Y-53561D01*
X92693Y-53561D01*
X92693Y-53561D01*
G37*
G36*
X91105Y-53561D02*
X91113Y-53592D01*
X91131Y-53624D01*
X91157Y-53654D01*
X91189Y-53679D01*
X91225Y-53693D01*
X91229Y-53693D01*
X91262Y-53702D01*
X91285Y-53715D01*
X91288Y-53718D01*
X91307Y-53726D01*
X91343Y-53732D01*
X91391Y-53736D01*
X91446Y-53737D01*
X91504Y-53735D01*
X91558Y-53731D01*
X91603Y-53725D01*
X91635Y-53717D01*
X91637Y-53716D01*
X91667Y-53704D01*
X91690Y-53703D01*
X91714Y-53712D01*
X91744Y-53720D01*
X91787Y-53727D01*
X91836Y-53731D01*
X91842Y-53732D01*
X91891Y-53733D01*
X91924Y-53731D01*
X91949Y-53724D01*
X91972Y-53711D01*
X91974Y-53710D01*
X92013Y-53688D01*
X92054Y-53668D01*
X92059Y-53667D01*
X92096Y-53645D01*
X92127Y-53614D01*
X92149Y-53579D01*
X92154Y-53547D01*
X92153Y-53541D01*
X92149Y-53537D01*
X92142Y-53533D01*
X92128Y-53530D01*
X92106Y-53528D01*
X92074Y-53526D01*
X92029Y-53524D01*
X91970Y-53523D01*
X91895Y-53522D01*
X91802Y-53521D01*
X91688Y-53521D01*
X91654Y-53521D01*
X91549Y-53520D01*
X91450Y-53520D01*
X91360Y-53520D01*
X91281Y-53520D01*
X91217Y-53521D01*
X91168Y-53522D01*
X91139Y-53523D01*
X91131Y-53524D01*
X91111Y-53537D01*
X91105Y-53561D01*
X91105Y-53561D01*
X91105Y-53561D01*
G37*
G36*
X76201Y-55693D02*
X76202Y-55699D01*
X76206Y-55703D01*
X76213Y-55707D01*
X76227Y-55710D01*
X76249Y-55712D01*
X76281Y-55714D01*
X76325Y-55715D01*
X76383Y-55716D01*
X76456Y-55717D01*
X76548Y-55718D01*
X76659Y-55719D01*
X76737Y-55719D01*
X76864Y-55720D01*
X76970Y-55720D01*
X77056Y-55720D01*
X77126Y-55719D01*
X77179Y-55718D01*
X77219Y-55717D01*
X77247Y-55715D01*
X77264Y-55712D01*
X77273Y-55709D01*
X77276Y-55706D01*
X77273Y-55685D01*
X77255Y-55657D01*
X77227Y-55627D01*
X77193Y-55600D01*
X77159Y-55581D01*
X77130Y-55573D01*
X77129Y-55573D01*
X77110Y-55567D01*
X77080Y-55551D01*
X77059Y-55538D01*
X77028Y-55518D01*
X77002Y-55508D01*
X76971Y-55506D01*
X76937Y-55508D01*
X76889Y-55514D01*
X76840Y-55523D01*
X76815Y-55530D01*
X76780Y-55540D01*
X76755Y-55542D01*
X76727Y-55534D01*
X76718Y-55530D01*
X76681Y-55520D01*
X76628Y-55513D01*
X76562Y-55508D01*
X76551Y-55508D01*
X76497Y-55506D01*
X76458Y-55506D01*
X76429Y-55510D01*
X76403Y-55519D01*
X76372Y-55533D01*
X76349Y-55545D01*
X76294Y-55577D01*
X76250Y-55612D01*
X76218Y-55648D01*
X76202Y-55680D01*
X76201Y-55693D01*
X76201Y-55693D01*
X76201Y-55693D01*
G37*
G36*
X78678Y-54855D02*
X78678Y-54906D01*
X78680Y-54964D01*
X78680Y-54967D01*
X78684Y-55036D01*
X78689Y-55087D01*
X78696Y-55126D01*
X78706Y-55158D01*
X78710Y-55167D01*
X78723Y-55204D01*
X78732Y-55250D01*
X78738Y-55311D01*
X78741Y-55349D01*
X78745Y-55420D01*
X78749Y-55473D01*
X78754Y-55512D01*
X78762Y-55539D01*
X78773Y-55561D01*
X78788Y-55581D01*
X78802Y-55596D01*
X78836Y-55628D01*
X78863Y-55640D01*
X78884Y-55635D01*
X78895Y-55624D01*
X78899Y-55615D01*
X78902Y-55599D01*
X78904Y-55572D01*
X78904Y-55532D01*
X78904Y-55479D01*
X78902Y-55409D01*
X78899Y-55320D01*
X78896Y-55227D01*
X78893Y-55134D01*
X78889Y-55047D01*
X78885Y-54969D01*
X78882Y-54902D01*
X78879Y-54850D01*
X78877Y-54816D01*
X78876Y-54805D01*
X78863Y-54765D01*
X78837Y-54729D01*
X78807Y-54703D01*
X78776Y-54694D01*
X78749Y-54703D01*
X78719Y-54728D01*
X78694Y-54762D01*
X78682Y-54793D01*
X78679Y-54815D01*
X78678Y-54855D01*
X78678Y-54855D01*
X78678Y-54855D01*
G37*
G36*
X77090Y-54906D02*
X77092Y-54964D01*
X77092Y-54967D01*
X77096Y-55036D01*
X77101Y-55086D01*
X77108Y-55125D01*
X77118Y-55157D01*
X77123Y-55168D01*
X77136Y-55205D01*
X77145Y-55249D01*
X77151Y-55306D01*
X77153Y-55350D01*
X77157Y-55421D01*
X77161Y-55474D01*
X77166Y-55512D01*
X77174Y-55540D01*
X77185Y-55562D01*
X77201Y-55582D01*
X77214Y-55596D01*
X77248Y-55628D01*
X77274Y-55640D01*
X77296Y-55635D01*
X77307Y-55624D01*
X77311Y-55615D01*
X77314Y-55599D01*
X77315Y-55572D01*
X77316Y-55532D01*
X77316Y-55479D01*
X77314Y-55409D01*
X77311Y-55320D01*
X77308Y-55227D01*
X77304Y-55134D01*
X77301Y-55047D01*
X77298Y-54969D01*
X77294Y-54902D01*
X77291Y-54850D01*
X77289Y-54816D01*
X77288Y-54805D01*
X77275Y-54765D01*
X77250Y-54729D01*
X77219Y-54703D01*
X77189Y-54694D01*
X77161Y-54703D01*
X77131Y-54728D01*
X77106Y-54762D01*
X77094Y-54793D01*
X77091Y-54815D01*
X77090Y-54855D01*
X77090Y-54906D01*
X77090Y-54906D01*
X77090Y-54906D01*
G37*
G36*
X75502Y-54855D02*
X75502Y-54906D01*
X75504Y-54964D01*
X75504Y-54967D01*
X75508Y-55036D01*
X75513Y-55086D01*
X75520Y-55125D01*
X75530Y-55157D01*
X75535Y-55168D01*
X75548Y-55205D01*
X75557Y-55249D01*
X75563Y-55306D01*
X75565Y-55350D01*
X75569Y-55421D01*
X75573Y-55474D01*
X75578Y-55512D01*
X75586Y-55540D01*
X75597Y-55562D01*
X75613Y-55582D01*
X75626Y-55596D01*
X75660Y-55628D01*
X75686Y-55640D01*
X75708Y-55635D01*
X75719Y-55624D01*
X75723Y-55615D01*
X75726Y-55599D01*
X75728Y-55572D01*
X75728Y-55532D01*
X75728Y-55479D01*
X75726Y-55409D01*
X75723Y-55320D01*
X75720Y-55227D01*
X75717Y-55134D01*
X75713Y-55047D01*
X75709Y-54969D01*
X75706Y-54902D01*
X75704Y-54850D01*
X75701Y-54816D01*
X75700Y-54805D01*
X75686Y-54765D01*
X75662Y-54729D01*
X75631Y-54703D01*
X75601Y-54694D01*
X75573Y-54703D01*
X75543Y-54728D01*
X75519Y-54762D01*
X75506Y-54793D01*
X75503Y-54815D01*
X75502Y-54855D01*
X75502Y-54855D01*
X75502Y-54855D01*
G37*
G36*
X72327Y-54855D02*
X72328Y-54907D01*
X72329Y-54965D01*
X72330Y-54969D01*
X72334Y-55038D01*
X72339Y-55089D01*
X72346Y-55128D01*
X72357Y-55160D01*
X72361Y-55170D01*
X72372Y-55202D01*
X72381Y-55239D01*
X72387Y-55288D01*
X72391Y-55353D01*
X72392Y-55368D01*
X72397Y-55446D01*
X72406Y-55505D01*
X72418Y-55550D01*
X72437Y-55584D01*
X72463Y-55611D01*
X72471Y-55618D01*
X72502Y-55638D01*
X72525Y-55639D01*
X72544Y-55624D01*
X72548Y-55615D01*
X72551Y-55599D01*
X72553Y-55572D01*
X72553Y-55532D01*
X72553Y-55479D01*
X72551Y-55409D01*
X72548Y-55320D01*
X72545Y-55227D01*
X72542Y-55134D01*
X72538Y-55047D01*
X72535Y-54969D01*
X72531Y-54902D01*
X72529Y-54850D01*
X72526Y-54816D01*
X72525Y-54805D01*
X72512Y-54765D01*
X72487Y-54729D01*
X72456Y-54703D01*
X72426Y-54694D01*
X72398Y-54703D01*
X72368Y-54728D01*
X72343Y-54762D01*
X72330Y-54793D01*
X72328Y-54816D01*
X72327Y-54855D01*
X72327Y-54855D01*
X72327Y-54855D01*
G37*
G36*
X77702Y-54900D02*
X77703Y-54969D01*
X77705Y-55047D01*
X77708Y-55130D01*
X77711Y-55215D01*
X77715Y-55299D01*
X77720Y-55378D01*
X77725Y-55450D01*
X77729Y-55510D01*
X77734Y-55556D01*
X77739Y-55585D01*
X77742Y-55592D01*
X77767Y-55606D01*
X77798Y-55603D01*
X77827Y-55583D01*
X77829Y-55582D01*
X77849Y-55556D01*
X77863Y-55530D01*
X77872Y-55498D01*
X77876Y-55454D01*
X77878Y-55395D01*
X77878Y-55377D01*
X77880Y-55300D01*
X77886Y-55236D01*
X77895Y-55192D01*
X77903Y-55150D01*
X77909Y-55093D01*
X77911Y-55027D01*
X77911Y-54959D01*
X77909Y-54896D01*
X77903Y-54844D01*
X77899Y-54825D01*
X77881Y-54781D01*
X77850Y-54739D01*
X77815Y-54709D01*
X77790Y-54698D01*
X77758Y-54700D01*
X77730Y-54724D01*
X77710Y-54768D01*
X77707Y-54777D01*
X77704Y-54801D01*
X77703Y-54843D01*
X77702Y-54900D01*
X77702Y-54900D01*
X77702Y-54900D01*
G37*
G36*
X71352Y-54894D02*
X71353Y-54962D01*
X71354Y-55039D01*
X71357Y-55122D01*
X71361Y-55207D01*
X71365Y-55291D01*
X71369Y-55371D01*
X71374Y-55443D01*
X71378Y-55505D01*
X71384Y-55552D01*
X71388Y-55583D01*
X71391Y-55592D01*
X71416Y-55606D01*
X71447Y-55603D01*
X71476Y-55584D01*
X71478Y-55582D01*
X71499Y-55556D01*
X71513Y-55530D01*
X71521Y-55497D01*
X71525Y-55453D01*
X71527Y-55393D01*
X71527Y-55379D01*
X71530Y-55290D01*
X71538Y-55219D01*
X71545Y-55188D01*
X71554Y-55153D01*
X71558Y-55111D01*
X71560Y-55059D01*
X71560Y-54991D01*
X71559Y-54968D01*
X71557Y-54904D01*
X71555Y-54858D01*
X71551Y-54826D01*
X71545Y-54803D01*
X71536Y-54785D01*
X71527Y-54771D01*
X71496Y-54735D01*
X71461Y-54708D01*
X71428Y-54694D01*
X71421Y-54694D01*
X71397Y-54704D01*
X71374Y-54734D01*
X71356Y-54775D01*
X71353Y-54797D01*
X71352Y-54838D01*
X71352Y-54894D01*
X71352Y-54894D01*
X71352Y-54894D01*
G37*
G36*
X73503Y-55295D02*
X73504Y-55356D01*
X73508Y-55403D01*
X73514Y-55438D01*
X73522Y-55464D01*
X73534Y-55484D01*
X73550Y-55500D01*
X73556Y-55505D01*
X73585Y-55523D01*
X73609Y-55525D01*
X73636Y-55509D01*
X73658Y-55489D01*
X73696Y-55450D01*
X73696Y-55334D01*
X73692Y-55246D01*
X73682Y-55158D01*
X73675Y-55119D01*
X73664Y-55061D01*
X73655Y-54992D01*
X73648Y-54924D01*
X73646Y-54900D01*
X73638Y-54821D01*
X73626Y-54764D01*
X73608Y-54728D01*
X73585Y-54712D01*
X73576Y-54711D01*
X73560Y-54717D01*
X73546Y-54738D01*
X73532Y-54774D01*
X73525Y-54798D01*
X73520Y-54826D01*
X73515Y-54862D01*
X73512Y-54909D01*
X73509Y-54970D01*
X73507Y-55048D01*
X73505Y-55117D01*
X73503Y-55216D01*
X73503Y-55295D01*
X73503Y-55295D01*
X73503Y-55295D01*
G37*
G36*
X67094Y-54682D02*
X67688Y-54682D01*
X68282Y-54682D01*
X68282Y-55054D01*
X68282Y-55425D01*
X68380Y-55425D01*
X68477Y-55425D01*
X68477Y-55071D01*
X68477Y-54983D01*
X68477Y-54904D01*
X68478Y-54835D01*
X68478Y-54779D01*
X68479Y-54740D01*
X68480Y-54719D01*
X68480Y-54716D01*
X68491Y-54722D01*
X68520Y-54736D01*
X68566Y-54760D01*
X68628Y-54791D01*
X68704Y-54830D01*
X68792Y-54874D01*
X68891Y-54925D01*
X68998Y-54980D01*
X69114Y-55039D01*
X69220Y-55093D01*
X69341Y-55155D01*
X69456Y-55214D01*
X69563Y-55268D01*
X69662Y-55318D01*
X69749Y-55362D01*
X69825Y-55400D01*
X69886Y-55431D01*
X69932Y-55453D01*
X69961Y-55466D01*
X69970Y-55470D01*
X69974Y-55466D01*
X69978Y-55450D01*
X69980Y-55422D01*
X69982Y-55380D01*
X69983Y-55321D01*
X69984Y-55244D01*
X69985Y-55148D01*
X69985Y-55076D01*
X69985Y-54682D01*
X70522Y-54682D01*
X71058Y-54682D01*
X71058Y-54585D01*
X71058Y-54489D01*
X70522Y-54489D01*
X69985Y-54489D01*
X69985Y-54089D01*
X69984Y-53996D01*
X69984Y-53911D01*
X69982Y-53836D01*
X69981Y-53774D01*
X69980Y-53727D01*
X69978Y-53698D01*
X69976Y-53690D01*
X69965Y-53694D01*
X69935Y-53709D01*
X69888Y-53733D01*
X69825Y-53764D01*
X69748Y-53803D01*
X69660Y-53848D01*
X69561Y-53898D01*
X69452Y-53954D01*
X69336Y-54013D01*
X69225Y-54070D01*
X68482Y-54450D01*
X68477Y-54101D01*
X68471Y-53752D01*
X68376Y-53749D01*
X68282Y-53745D01*
X68282Y-54117D01*
X68282Y-54489D01*
X67688Y-54489D01*
X67094Y-54489D01*
X67094Y-54585D01*
X67094Y-54682D01*
X67094Y-54682D01*
X67094Y-54682D01*
G37*
G36*
X78387Y-54627D02*
X78397Y-54666D01*
X78416Y-54698D01*
X78442Y-54721D01*
X78481Y-54733D01*
X78536Y-54739D01*
X78569Y-54739D01*
X78617Y-54739D01*
X78649Y-54737D01*
X78670Y-54730D01*
X78688Y-54719D01*
X78707Y-54701D01*
X78738Y-54658D01*
X78746Y-54614D01*
X78731Y-54569D01*
X78723Y-54556D01*
X78688Y-54525D01*
X78639Y-54506D01*
X78572Y-54501D01*
X78538Y-54502D01*
X78492Y-54507D01*
X78462Y-54515D01*
X78439Y-54528D01*
X78427Y-54539D01*
X78396Y-54581D01*
X78387Y-54627D01*
X78387Y-54627D01*
X78387Y-54627D01*
G37*
G36*
X77802Y-54625D02*
X77812Y-54669D01*
X77844Y-54710D01*
X77845Y-54711D01*
X77860Y-54722D01*
X77874Y-54730D01*
X77894Y-54735D01*
X77921Y-54738D01*
X77963Y-54739D01*
X78021Y-54739D01*
X78043Y-54739D01*
X78107Y-54739D01*
X78153Y-54738D01*
X78184Y-54736D01*
X78204Y-54732D01*
X78219Y-54725D01*
X78232Y-54715D01*
X78236Y-54711D01*
X78271Y-54668D01*
X78283Y-54623D01*
X78272Y-54578D01*
X78241Y-54538D01*
X78227Y-54525D01*
X78214Y-54516D01*
X78197Y-54510D01*
X78172Y-54507D01*
X78134Y-54506D01*
X78080Y-54505D01*
X78050Y-54505D01*
X77976Y-54506D01*
X77921Y-54509D01*
X77881Y-54516D01*
X77853Y-54527D01*
X77834Y-54544D01*
X77818Y-54568D01*
X77814Y-54576D01*
X77802Y-54625D01*
X77802Y-54625D01*
X77802Y-54625D01*
G37*
G36*
X76799Y-54626D02*
X76812Y-54671D01*
X76845Y-54711D01*
X76862Y-54725D01*
X76881Y-54733D01*
X76906Y-54738D01*
X76945Y-54739D01*
X76978Y-54739D01*
X77027Y-54739D01*
X77059Y-54737D01*
X77081Y-54731D01*
X77098Y-54721D01*
X77117Y-54703D01*
X77119Y-54701D01*
X77150Y-54658D01*
X77158Y-54614D01*
X77143Y-54569D01*
X77135Y-54556D01*
X77101Y-54525D01*
X77051Y-54506D01*
X76984Y-54501D01*
X76950Y-54502D01*
X76904Y-54507D01*
X76874Y-54515D01*
X76851Y-54528D01*
X76838Y-54539D01*
X76808Y-54581D01*
X76799Y-54626D01*
X76799Y-54626D01*
X76799Y-54626D01*
G37*
G36*
X75211Y-54626D02*
X75224Y-54671D01*
X75257Y-54711D01*
X75274Y-54725D01*
X75292Y-54733D01*
X75318Y-54738D01*
X75357Y-54739D01*
X75390Y-54739D01*
X75439Y-54739D01*
X75471Y-54737D01*
X75493Y-54731D01*
X75510Y-54721D01*
X75529Y-54703D01*
X75531Y-54701D01*
X75562Y-54658D01*
X75570Y-54614D01*
X75555Y-54569D01*
X75547Y-54556D01*
X75512Y-54525D01*
X75463Y-54506D01*
X75397Y-54501D01*
X75362Y-54502D01*
X75316Y-54507D01*
X75286Y-54515D01*
X75263Y-54528D01*
X75251Y-54539D01*
X75219Y-54581D01*
X75211Y-54626D01*
X75211Y-54626D01*
X75211Y-54626D01*
G37*
G36*
X74626Y-54625D02*
X74636Y-54669D01*
X74668Y-54710D01*
X74669Y-54711D01*
X74684Y-54722D01*
X74698Y-54730D01*
X74718Y-54735D01*
X74746Y-54738D01*
X74786Y-54739D01*
X74845Y-54739D01*
X74867Y-54739D01*
X74931Y-54739D01*
X74977Y-54738D01*
X75008Y-54736D01*
X75029Y-54732D01*
X75044Y-54725D01*
X75056Y-54715D01*
X75060Y-54711D01*
X75095Y-54668D01*
X75107Y-54623D01*
X75096Y-54578D01*
X75065Y-54538D01*
X75051Y-54525D01*
X75038Y-54516D01*
X75021Y-54510D01*
X74996Y-54507D01*
X74958Y-54506D01*
X74904Y-54505D01*
X74874Y-54505D01*
X74800Y-54506D01*
X74745Y-54509D01*
X74705Y-54516D01*
X74677Y-54527D01*
X74658Y-54544D01*
X74642Y-54568D01*
X74639Y-54576D01*
X74626Y-54625D01*
X74626Y-54625D01*
X74626Y-54625D01*
G37*
G36*
X72036Y-54626D02*
X72049Y-54671D01*
X72082Y-54711D01*
X72099Y-54725D01*
X72118Y-54733D01*
X72143Y-54738D01*
X72182Y-54739D01*
X72215Y-54739D01*
X72264Y-54739D01*
X72296Y-54737D01*
X72318Y-54731D01*
X72335Y-54721D01*
X72354Y-54703D01*
X72356Y-54701D01*
X72387Y-54658D01*
X72395Y-54614D01*
X72380Y-54569D01*
X72372Y-54556D01*
X72338Y-54525D01*
X72288Y-54506D01*
X72221Y-54501D01*
X72187Y-54502D01*
X72141Y-54507D01*
X72111Y-54515D01*
X72088Y-54528D01*
X72075Y-54539D01*
X72045Y-54581D01*
X72036Y-54626D01*
X72036Y-54626D01*
X72036Y-54626D01*
G37*
G36*
X71451Y-54625D02*
X71461Y-54669D01*
X71493Y-54710D01*
X71494Y-54711D01*
X71509Y-54722D01*
X71523Y-54730D01*
X71543Y-54735D01*
X71571Y-54738D01*
X71612Y-54739D01*
X71670Y-54739D01*
X71692Y-54739D01*
X71756Y-54739D01*
X71802Y-54738D01*
X71833Y-54736D01*
X71854Y-54732D01*
X71868Y-54725D01*
X71881Y-54715D01*
X71885Y-54711D01*
X71920Y-54668D01*
X71932Y-54623D01*
X71922Y-54578D01*
X71890Y-54538D01*
X71876Y-54525D01*
X71863Y-54516D01*
X71846Y-54510D01*
X71820Y-54507D01*
X71783Y-54506D01*
X71729Y-54505D01*
X71699Y-54505D01*
X71625Y-54506D01*
X71570Y-54509D01*
X71530Y-54516D01*
X71502Y-54527D01*
X71483Y-54544D01*
X71467Y-54568D01*
X71464Y-54576D01*
X71451Y-54625D01*
X71451Y-54625D01*
X71451Y-54625D01*
G37*
G36*
X77648Y-53757D02*
X77650Y-53831D01*
X77653Y-53924D01*
X77658Y-54037D01*
X77662Y-54107D01*
X77667Y-54216D01*
X77672Y-54305D01*
X77676Y-54376D01*
X77679Y-54430D01*
X77683Y-54471D01*
X77686Y-54500D01*
X77690Y-54519D01*
X77695Y-54533D01*
X77700Y-54541D01*
X77706Y-54547D01*
X77707Y-54548D01*
X77738Y-54565D01*
X77768Y-54563D01*
X77803Y-54542D01*
X77813Y-54534D01*
X77839Y-54508D01*
X77857Y-54484D01*
X77869Y-54453D01*
X77875Y-54412D01*
X77876Y-54358D01*
X77875Y-54287D01*
X77872Y-54221D01*
X77869Y-54173D01*
X77862Y-54137D01*
X77854Y-54107D01*
X77844Y-54083D01*
X77832Y-54054D01*
X77824Y-54022D01*
X77818Y-53981D01*
X77813Y-53926D01*
X77810Y-53874D01*
X77803Y-53721D01*
X77749Y-53671D01*
X77723Y-53647D01*
X77701Y-53630D01*
X77684Y-53621D01*
X77670Y-53622D01*
X77660Y-53635D01*
X77653Y-53661D01*
X77649Y-53701D01*
X77648Y-53757D01*
X77648Y-53757D01*
X77648Y-53757D01*
G37*
G36*
X74473Y-53757D02*
X74474Y-53831D01*
X74477Y-53923D01*
X74482Y-54036D01*
X74486Y-54106D01*
X74491Y-54216D01*
X74496Y-54305D01*
X74500Y-54375D01*
X74503Y-54430D01*
X74507Y-54471D01*
X74511Y-54500D01*
X74514Y-54519D01*
X74519Y-54533D01*
X74524Y-54541D01*
X74530Y-54547D01*
X74531Y-54548D01*
X74562Y-54565D01*
X74592Y-54563D01*
X74627Y-54542D01*
X74637Y-54534D01*
X74663Y-54508D01*
X74681Y-54484D01*
X74693Y-54453D01*
X74699Y-54412D01*
X74701Y-54358D01*
X74699Y-54287D01*
X74696Y-54221D01*
X74693Y-54173D01*
X74687Y-54137D01*
X74678Y-54107D01*
X74668Y-54083D01*
X74657Y-54054D01*
X74648Y-54022D01*
X74642Y-53981D01*
X74637Y-53926D01*
X74634Y-53874D01*
X74627Y-53721D01*
X74574Y-53671D01*
X74547Y-53647D01*
X74526Y-53630D01*
X74508Y-53621D01*
X74494Y-53622D01*
X74484Y-53635D01*
X74477Y-53661D01*
X74474Y-53701D01*
X74473Y-53757D01*
X74473Y-53757D01*
X74473Y-53757D01*
G37*
G36*
X73442Y-53859D02*
X73442Y-53914D01*
X73445Y-53978D01*
X73449Y-54045D01*
X73454Y-54113D01*
X73461Y-54174D01*
X73468Y-54225D01*
X73473Y-54249D01*
X73483Y-54302D01*
X73491Y-54362D01*
X73496Y-54406D01*
X73504Y-54477D01*
X73517Y-54525D01*
X73535Y-54555D01*
X73558Y-54565D01*
X73580Y-54561D01*
X73594Y-54547D01*
X73611Y-54522D01*
X73612Y-54521D01*
X73619Y-54500D01*
X73624Y-54474D01*
X73625Y-54435D01*
X73623Y-54380D01*
X73622Y-54366D01*
X73619Y-54295D01*
X73621Y-54240D01*
X73628Y-54191D01*
X73633Y-54169D01*
X73642Y-54110D01*
X73648Y-54037D01*
X73650Y-53960D01*
X73647Y-53888D01*
X73640Y-53838D01*
X73620Y-53786D01*
X73594Y-53755D01*
X73553Y-53729D01*
X73514Y-53725D01*
X73479Y-53742D01*
X73452Y-53781D01*
X73447Y-53793D01*
X73443Y-53817D01*
X73442Y-53859D01*
X73442Y-53859D01*
X73442Y-53859D01*
G37*
G36*
X71298Y-53757D02*
X71299Y-53830D01*
X71302Y-53923D01*
X71307Y-54036D01*
X71311Y-54106D01*
X71316Y-54216D01*
X71321Y-54304D01*
X71325Y-54375D01*
X71328Y-54430D01*
X71332Y-54471D01*
X71335Y-54500D01*
X71339Y-54519D01*
X71344Y-54532D01*
X71349Y-54541D01*
X71355Y-54547D01*
X71356Y-54548D01*
X71387Y-54565D01*
X71417Y-54563D01*
X71452Y-54542D01*
X71462Y-54534D01*
X71488Y-54508D01*
X71506Y-54484D01*
X71518Y-54453D01*
X71524Y-54412D01*
X71526Y-54358D01*
X71524Y-54287D01*
X71522Y-54221D01*
X71518Y-54173D01*
X71512Y-54137D01*
X71503Y-54107D01*
X71493Y-54083D01*
X71482Y-54054D01*
X71473Y-54022D01*
X71467Y-53981D01*
X71462Y-53926D01*
X71459Y-53874D01*
X71452Y-53721D01*
X71399Y-53671D01*
X71373Y-53647D01*
X71351Y-53630D01*
X71333Y-53621D01*
X71319Y-53622D01*
X71309Y-53635D01*
X71303Y-53661D01*
X71299Y-53701D01*
X71298Y-53757D01*
X71298Y-53757D01*
X71298Y-53757D01*
G37*
G36*
X78644Y-54228D02*
X78645Y-54275D01*
X78646Y-54310D01*
X78653Y-54385D01*
X78664Y-54441D01*
X78681Y-54483D01*
X78705Y-54513D01*
X78727Y-54531D01*
X78758Y-54550D01*
X78780Y-54555D01*
X78802Y-54545D01*
X78818Y-54533D01*
X78841Y-54507D01*
X78854Y-54480D01*
X78855Y-54459D01*
X78855Y-54418D01*
X78854Y-54362D01*
X78852Y-54292D01*
X78849Y-54214D01*
X78846Y-54129D01*
X78842Y-54043D01*
X78837Y-53957D01*
X78833Y-53875D01*
X78828Y-53801D01*
X78824Y-53738D01*
X78820Y-53690D01*
X78816Y-53659D01*
X78815Y-53652D01*
X78801Y-53620D01*
X78784Y-53611D01*
X78761Y-53623D01*
X78749Y-53635D01*
X78725Y-53665D01*
X78707Y-53694D01*
X78696Y-53729D01*
X78690Y-53772D01*
X78687Y-53830D01*
X78687Y-53898D01*
X78688Y-53965D01*
X78687Y-54014D01*
X78684Y-54052D01*
X78678Y-54083D01*
X78669Y-54114D01*
X78665Y-54124D01*
X78653Y-54159D01*
X78646Y-54192D01*
X78644Y-54228D01*
X78644Y-54228D01*
X78644Y-54228D01*
G37*
G36*
X77056Y-54228D02*
X77057Y-54275D01*
X77058Y-54310D01*
X77065Y-54385D01*
X77076Y-54441D01*
X77093Y-54483D01*
X77117Y-54513D01*
X77140Y-54531D01*
X77170Y-54550D01*
X77192Y-54555D01*
X77214Y-54545D01*
X77230Y-54533D01*
X77253Y-54507D01*
X77266Y-54480D01*
X77267Y-54459D01*
X77267Y-54418D01*
X77266Y-54362D01*
X77264Y-54292D01*
X77261Y-54214D01*
X77258Y-54129D01*
X77254Y-54043D01*
X77250Y-53957D01*
X77245Y-53875D01*
X77240Y-53801D01*
X77236Y-53738D01*
X77231Y-53690D01*
X77228Y-53659D01*
X77226Y-53652D01*
X77213Y-53620D01*
X77195Y-53611D01*
X77173Y-53623D01*
X77161Y-53635D01*
X77137Y-53665D01*
X77119Y-53694D01*
X77108Y-53729D01*
X77102Y-53772D01*
X77099Y-53830D01*
X77100Y-53898D01*
X77100Y-53965D01*
X77099Y-54014D01*
X77096Y-54052D01*
X77090Y-54083D01*
X77081Y-54114D01*
X77077Y-54124D01*
X77065Y-54159D01*
X77058Y-54192D01*
X77056Y-54228D01*
X77056Y-54228D01*
X77056Y-54228D01*
G37*
G36*
X75468Y-54228D02*
X75468Y-54275D01*
X75471Y-54310D01*
X75477Y-54385D01*
X75488Y-54441D01*
X75505Y-54483D01*
X75530Y-54513D01*
X75552Y-54531D01*
X75583Y-54550D01*
X75605Y-54555D01*
X75626Y-54545D01*
X75642Y-54533D01*
X75665Y-54507D01*
X75678Y-54480D01*
X75679Y-54459D01*
X75679Y-54418D01*
X75678Y-54362D01*
X75676Y-54292D01*
X75673Y-54214D01*
X75670Y-54129D01*
X75666Y-54043D01*
X75661Y-53957D01*
X75657Y-53875D01*
X75653Y-53801D01*
X75648Y-53738D01*
X75644Y-53690D01*
X75640Y-53659D01*
X75638Y-53652D01*
X75625Y-53620D01*
X75608Y-53611D01*
X75585Y-53623D01*
X75573Y-53635D01*
X75549Y-53665D01*
X75532Y-53694D01*
X75520Y-53729D01*
X75514Y-53772D01*
X75511Y-53830D01*
X75512Y-53898D01*
X75512Y-53965D01*
X75511Y-54014D01*
X75508Y-54052D01*
X75502Y-54083D01*
X75492Y-54114D01*
X75489Y-54124D01*
X75477Y-54159D01*
X75471Y-54192D01*
X75468Y-54228D01*
X75468Y-54228D01*
X75468Y-54228D01*
G37*
G36*
X72293Y-54228D02*
X72294Y-54275D01*
X72296Y-54310D01*
X72302Y-54385D01*
X72313Y-54441D01*
X72330Y-54483D01*
X72354Y-54513D01*
X72377Y-54531D01*
X72408Y-54550D01*
X72430Y-54555D01*
X72451Y-54545D01*
X72467Y-54533D01*
X72490Y-54507D01*
X72503Y-54480D01*
X72504Y-54459D01*
X72505Y-54419D01*
X72504Y-54362D01*
X72501Y-54293D01*
X72499Y-54214D01*
X72495Y-54130D01*
X72491Y-54043D01*
X72487Y-53957D01*
X72482Y-53875D01*
X72478Y-53801D01*
X72473Y-53739D01*
X72469Y-53690D01*
X72465Y-53659D01*
X72463Y-53652D01*
X72450Y-53620D01*
X72433Y-53611D01*
X72410Y-53623D01*
X72398Y-53635D01*
X72374Y-53665D01*
X72357Y-53694D01*
X72345Y-53729D01*
X72339Y-53772D01*
X72336Y-53830D01*
X72337Y-53898D01*
X72337Y-53965D01*
X72336Y-54014D01*
X72333Y-54052D01*
X72327Y-54083D01*
X72318Y-54114D01*
X72314Y-54124D01*
X72302Y-54159D01*
X72296Y-54192D01*
X72293Y-54228D01*
X72293Y-54228D01*
X72293Y-54228D01*
G37*
G36*
X68648Y-53873D02*
X68706Y-53843D01*
X68738Y-53828D01*
X68761Y-53818D01*
X68767Y-53817D01*
X68773Y-53828D01*
X68787Y-53856D01*
X68807Y-53897D01*
X68831Y-53947D01*
X68840Y-53967D01*
X68865Y-54019D01*
X68888Y-54062D01*
X68906Y-54094D01*
X68917Y-54110D01*
X68919Y-54111D01*
X68934Y-54105D01*
X68958Y-54091D01*
X68959Y-54091D01*
X68981Y-54076D01*
X68991Y-54065D01*
X68991Y-54065D01*
X68986Y-54053D01*
X68973Y-54024D01*
X68954Y-53982D01*
X68931Y-53931D01*
X68922Y-53913D01*
X68897Y-53861D01*
X68877Y-53816D01*
X68862Y-53784D01*
X68854Y-53766D01*
X68854Y-53765D01*
X68863Y-53759D01*
X68887Y-53746D01*
X68911Y-53735D01*
X68942Y-53719D01*
X68963Y-53707D01*
X68968Y-53702D01*
X68958Y-53693D01*
X68933Y-53675D01*
X68896Y-53649D01*
X68848Y-53617D01*
X68816Y-53595D01*
X68665Y-53495D01*
X68657Y-53590D01*
X68654Y-53651D01*
X68651Y-53720D01*
X68649Y-53778D01*
X68648Y-53873D01*
X68648Y-53873D01*
X68648Y-53873D01*
G37*
G36*
X69086Y-53571D02*
X69087Y-53611D01*
X69088Y-53637D01*
X69090Y-53644D01*
X69104Y-53638D01*
X69130Y-53624D01*
X69145Y-53615D01*
X69173Y-53599D01*
X69193Y-53589D01*
X69197Y-53587D01*
X69204Y-53596D01*
X69219Y-53623D01*
X69240Y-53663D01*
X69265Y-53713D01*
X69276Y-53735D01*
X69302Y-53788D01*
X69325Y-53832D01*
X69343Y-53864D01*
X69353Y-53882D01*
X69355Y-53883D01*
X69369Y-53878D01*
X69393Y-53866D01*
X69396Y-53864D01*
X69420Y-53851D01*
X69433Y-53844D01*
X69434Y-53843D01*
X69430Y-53833D01*
X69418Y-53805D01*
X69399Y-53765D01*
X69376Y-53716D01*
X69368Y-53701D01*
X69343Y-53648D01*
X69322Y-53603D01*
X69307Y-53569D01*
X69299Y-53549D01*
X69299Y-53547D01*
X69309Y-53535D01*
X69333Y-53519D01*
X69350Y-53509D01*
X69380Y-53493D01*
X69399Y-53479D01*
X69402Y-53474D01*
X69393Y-53465D01*
X69369Y-53447D01*
X69334Y-53422D01*
X69292Y-53392D01*
X69246Y-53360D01*
X69200Y-53330D01*
X69159Y-53303D01*
X69126Y-53282D01*
X69105Y-53270D01*
X69100Y-53269D01*
X69097Y-53282D01*
X69094Y-53313D01*
X69092Y-53357D01*
X69090Y-53409D01*
X69088Y-53465D01*
X69087Y-53521D01*
X69086Y-53571D01*
X69086Y-53571D01*
X69086Y-53571D01*
G37*
G36*
X76119Y-53565D02*
X76130Y-53600D01*
X76149Y-53631D01*
X76173Y-53662D01*
X76192Y-53679D01*
X76214Y-53688D01*
X76244Y-53694D01*
X76276Y-53703D01*
X76299Y-53716D01*
X76301Y-53718D01*
X76319Y-53726D01*
X76356Y-53732D01*
X76404Y-53736D01*
X76459Y-53737D01*
X76517Y-53735D01*
X76571Y-53731D01*
X76616Y-53725D01*
X76647Y-53717D01*
X76650Y-53716D01*
X76680Y-53704D01*
X76703Y-53703D01*
X76727Y-53712D01*
X76756Y-53720D01*
X76800Y-53727D01*
X76849Y-53731D01*
X76855Y-53732D01*
X76904Y-53733D01*
X76937Y-53731D01*
X76961Y-53724D01*
X76985Y-53711D01*
X76986Y-53710D01*
X77026Y-53688D01*
X77067Y-53668D01*
X77072Y-53667D01*
X77109Y-53645D01*
X77140Y-53614D01*
X77162Y-53579D01*
X77167Y-53547D01*
X77166Y-53541D01*
X77162Y-53537D01*
X77155Y-53533D01*
X77141Y-53530D01*
X77119Y-53528D01*
X77087Y-53526D01*
X77042Y-53524D01*
X76983Y-53523D01*
X76908Y-53522D01*
X76815Y-53521D01*
X76701Y-53521D01*
X76667Y-53521D01*
X76561Y-53520D01*
X76463Y-53520D01*
X76373Y-53520D01*
X76294Y-53520D01*
X76230Y-53521D01*
X76181Y-53522D01*
X76152Y-53523D01*
X76144Y-53524D01*
X76123Y-53538D01*
X76119Y-53565D01*
X76119Y-53565D01*
X76119Y-53565D01*
G37*
G36*
X74530Y-53561D02*
X74538Y-53592D01*
X74556Y-53624D01*
X74582Y-53654D01*
X74614Y-53679D01*
X74650Y-53693D01*
X74654Y-53693D01*
X74687Y-53702D01*
X74710Y-53715D01*
X74713Y-53718D01*
X74732Y-53726D01*
X74768Y-53732D01*
X74816Y-53736D01*
X74871Y-53737D01*
X74929Y-53735D01*
X74983Y-53731D01*
X75028Y-53725D01*
X75059Y-53717D01*
X75062Y-53716D01*
X75091Y-53704D01*
X75115Y-53703D01*
X75139Y-53712D01*
X75169Y-53720D01*
X75212Y-53727D01*
X75261Y-53731D01*
X75267Y-53732D01*
X75316Y-53733D01*
X75349Y-53731D01*
X75374Y-53724D01*
X75397Y-53711D01*
X75399Y-53710D01*
X75437Y-53688D01*
X75479Y-53668D01*
X75484Y-53667D01*
X75521Y-53645D01*
X75552Y-53614D01*
X75573Y-53579D01*
X75579Y-53547D01*
X75578Y-53541D01*
X75574Y-53537D01*
X75567Y-53533D01*
X75553Y-53530D01*
X75531Y-53528D01*
X75498Y-53526D01*
X75454Y-53524D01*
X75395Y-53523D01*
X75320Y-53522D01*
X75227Y-53521D01*
X75113Y-53521D01*
X75079Y-53521D01*
X74974Y-53520D01*
X74875Y-53520D01*
X74785Y-53520D01*
X74706Y-53520D01*
X74642Y-53521D01*
X74593Y-53522D01*
X74564Y-53523D01*
X74556Y-53524D01*
X74536Y-53537D01*
X74530Y-53561D01*
X74530Y-53561D01*
X74530Y-53561D01*
G37*
G36*
X72943Y-53561D02*
X72951Y-53592D01*
X72969Y-53624D01*
X72995Y-53654D01*
X73026Y-53679D01*
X73062Y-53693D01*
X73066Y-53693D01*
X73099Y-53702D01*
X73122Y-53715D01*
X73125Y-53718D01*
X73144Y-53726D01*
X73180Y-53732D01*
X73228Y-53736D01*
X73284Y-53737D01*
X73341Y-53735D01*
X73395Y-53731D01*
X73440Y-53725D01*
X73471Y-53717D01*
X73474Y-53716D01*
X73504Y-53704D01*
X73527Y-53703D01*
X73551Y-53712D01*
X73580Y-53720D01*
X73624Y-53727D01*
X73673Y-53731D01*
X73679Y-53732D01*
X73728Y-53733D01*
X73761Y-53731D01*
X73786Y-53724D01*
X73809Y-53711D01*
X73811Y-53710D01*
X73849Y-53688D01*
X73891Y-53668D01*
X73896Y-53667D01*
X73933Y-53645D01*
X73964Y-53614D01*
X73986Y-53579D01*
X73991Y-53547D01*
X73990Y-53541D01*
X73986Y-53537D01*
X73979Y-53533D01*
X73965Y-53530D01*
X73943Y-53528D01*
X73910Y-53526D01*
X73866Y-53524D01*
X73807Y-53523D01*
X73732Y-53522D01*
X73639Y-53521D01*
X73525Y-53521D01*
X73491Y-53521D01*
X73385Y-53520D01*
X73287Y-53520D01*
X73197Y-53520D01*
X73118Y-53520D01*
X73054Y-53521D01*
X73005Y-53522D01*
X72977Y-53523D01*
X72969Y-53524D01*
X72948Y-53537D01*
X72943Y-53561D01*
X72943Y-53561D01*
X72943Y-53561D01*
G37*
G36*
X71355Y-53561D02*
X71363Y-53592D01*
X71381Y-53624D01*
X71407Y-53654D01*
X71439Y-53679D01*
X71475Y-53693D01*
X71479Y-53693D01*
X71512Y-53702D01*
X71535Y-53715D01*
X71538Y-53718D01*
X71557Y-53726D01*
X71593Y-53732D01*
X71641Y-53736D01*
X71696Y-53737D01*
X71754Y-53735D01*
X71808Y-53731D01*
X71853Y-53725D01*
X71885Y-53717D01*
X71887Y-53716D01*
X71917Y-53704D01*
X71940Y-53703D01*
X71964Y-53712D01*
X71994Y-53720D01*
X72037Y-53727D01*
X72086Y-53731D01*
X72092Y-53732D01*
X72141Y-53733D01*
X72174Y-53731D01*
X72199Y-53724D01*
X72222Y-53711D01*
X72224Y-53710D01*
X72263Y-53688D01*
X72304Y-53668D01*
X72309Y-53667D01*
X72346Y-53645D01*
X72377Y-53614D01*
X72399Y-53579D01*
X72404Y-53547D01*
X72403Y-53541D01*
X72399Y-53537D01*
X72392Y-53533D01*
X72378Y-53530D01*
X72356Y-53528D01*
X72324Y-53526D01*
X72279Y-53524D01*
X72220Y-53523D01*
X72145Y-53522D01*
X72052Y-53521D01*
X71938Y-53521D01*
X71904Y-53521D01*
X71799Y-53520D01*
X71700Y-53520D01*
X71610Y-53520D01*
X71531Y-53520D01*
X71467Y-53521D01*
X71418Y-53522D01*
X71389Y-53523D01*
X71381Y-53524D01*
X71361Y-53537D01*
X71355Y-53561D01*
X71355Y-53561D01*
X71355Y-53561D01*
G37*
G36*
X87701Y-35193D02*
X87702Y-35199D01*
X87706Y-35203D01*
X87713Y-35207D01*
X87727Y-35210D01*
X87749Y-35212D01*
X87781Y-35214D01*
X87825Y-35215D01*
X87883Y-35216D01*
X87956Y-35217D01*
X88048Y-35218D01*
X88159Y-35219D01*
X88237Y-35219D01*
X88364Y-35220D01*
X88470Y-35220D01*
X88556Y-35220D01*
X88626Y-35219D01*
X88679Y-35218D01*
X88719Y-35217D01*
X88747Y-35215D01*
X88764Y-35212D01*
X88773Y-35209D01*
X88776Y-35206D01*
X88773Y-35185D01*
X88755Y-35157D01*
X88727Y-35127D01*
X88693Y-35100D01*
X88659Y-35081D01*
X88630Y-35073D01*
X88629Y-35073D01*
X88610Y-35067D01*
X88580Y-35051D01*
X88559Y-35038D01*
X88528Y-35018D01*
X88502Y-35008D01*
X88471Y-35006D01*
X88437Y-35008D01*
X88389Y-35014D01*
X88340Y-35023D01*
X88315Y-35030D01*
X88280Y-35040D01*
X88255Y-35042D01*
X88227Y-35034D01*
X88218Y-35030D01*
X88181Y-35020D01*
X88128Y-35013D01*
X88062Y-35008D01*
X88051Y-35008D01*
X87997Y-35006D01*
X87958Y-35006D01*
X87929Y-35010D01*
X87903Y-35019D01*
X87872Y-35033D01*
X87849Y-35045D01*
X87794Y-35077D01*
X87750Y-35112D01*
X87718Y-35148D01*
X87702Y-35180D01*
X87701Y-35193D01*
X87701Y-35193D01*
X87701Y-35193D01*
G37*
G36*
X90178Y-34355D02*
X90178Y-34406D01*
X90180Y-34464D01*
X90180Y-34467D01*
X90184Y-34536D01*
X90189Y-34587D01*
X90196Y-34626D01*
X90206Y-34658D01*
X90210Y-34667D01*
X90223Y-34704D01*
X90232Y-34750D01*
X90238Y-34811D01*
X90241Y-34849D01*
X90245Y-34920D01*
X90249Y-34973D01*
X90254Y-35012D01*
X90262Y-35039D01*
X90273Y-35061D01*
X90288Y-35081D01*
X90302Y-35096D01*
X90336Y-35128D01*
X90363Y-35140D01*
X90384Y-35135D01*
X90395Y-35124D01*
X90399Y-35115D01*
X90402Y-35099D01*
X90404Y-35072D01*
X90404Y-35032D01*
X90404Y-34979D01*
X90402Y-34909D01*
X90399Y-34820D01*
X90396Y-34727D01*
X90393Y-34634D01*
X90389Y-34547D01*
X90385Y-34469D01*
X90382Y-34402D01*
X90379Y-34350D01*
X90377Y-34316D01*
X90376Y-34305D01*
X90363Y-34265D01*
X90337Y-34229D01*
X90307Y-34203D01*
X90276Y-34194D01*
X90249Y-34203D01*
X90219Y-34228D01*
X90194Y-34262D01*
X90182Y-34293D01*
X90179Y-34315D01*
X90178Y-34355D01*
X90178Y-34355D01*
X90178Y-34355D01*
G37*
G36*
X88590Y-34406D02*
X88592Y-34464D01*
X88592Y-34467D01*
X88596Y-34536D01*
X88601Y-34586D01*
X88608Y-34625D01*
X88618Y-34657D01*
X88623Y-34668D01*
X88636Y-34705D01*
X88645Y-34749D01*
X88651Y-34806D01*
X88653Y-34850D01*
X88657Y-34921D01*
X88661Y-34974D01*
X88666Y-35012D01*
X88674Y-35040D01*
X88685Y-35062D01*
X88701Y-35082D01*
X88714Y-35096D01*
X88748Y-35128D01*
X88774Y-35140D01*
X88796Y-35135D01*
X88807Y-35124D01*
X88811Y-35115D01*
X88814Y-35099D01*
X88815Y-35072D01*
X88816Y-35032D01*
X88816Y-34979D01*
X88814Y-34909D01*
X88811Y-34820D01*
X88808Y-34727D01*
X88804Y-34634D01*
X88801Y-34547D01*
X88798Y-34469D01*
X88794Y-34402D01*
X88791Y-34350D01*
X88789Y-34316D01*
X88788Y-34305D01*
X88775Y-34265D01*
X88750Y-34229D01*
X88719Y-34203D01*
X88689Y-34194D01*
X88661Y-34203D01*
X88631Y-34228D01*
X88606Y-34262D01*
X88594Y-34293D01*
X88591Y-34315D01*
X88590Y-34355D01*
X88590Y-34406D01*
X88590Y-34406D01*
X88590Y-34406D01*
G37*
G36*
X87002Y-34355D02*
X87002Y-34406D01*
X87004Y-34464D01*
X87004Y-34467D01*
X87008Y-34536D01*
X87013Y-34586D01*
X87020Y-34625D01*
X87030Y-34657D01*
X87035Y-34668D01*
X87048Y-34705D01*
X87057Y-34749D01*
X87063Y-34806D01*
X87065Y-34850D01*
X87069Y-34921D01*
X87073Y-34974D01*
X87078Y-35012D01*
X87086Y-35040D01*
X87097Y-35062D01*
X87113Y-35082D01*
X87126Y-35096D01*
X87160Y-35128D01*
X87186Y-35140D01*
X87208Y-35135D01*
X87219Y-35124D01*
X87223Y-35115D01*
X87226Y-35099D01*
X87228Y-35072D01*
X87228Y-35032D01*
X87228Y-34979D01*
X87226Y-34909D01*
X87223Y-34820D01*
X87220Y-34727D01*
X87217Y-34634D01*
X87213Y-34547D01*
X87209Y-34469D01*
X87206Y-34402D01*
X87204Y-34350D01*
X87201Y-34316D01*
X87200Y-34305D01*
X87186Y-34265D01*
X87162Y-34229D01*
X87131Y-34203D01*
X87101Y-34194D01*
X87073Y-34203D01*
X87043Y-34228D01*
X87019Y-34262D01*
X87006Y-34293D01*
X87003Y-34315D01*
X87002Y-34355D01*
X87002Y-34355D01*
X87002Y-34355D01*
G37*
G36*
X83827Y-34355D02*
X83828Y-34407D01*
X83829Y-34465D01*
X83830Y-34469D01*
X83834Y-34538D01*
X83839Y-34589D01*
X83846Y-34628D01*
X83857Y-34660D01*
X83861Y-34670D01*
X83872Y-34702D01*
X83881Y-34739D01*
X83887Y-34788D01*
X83891Y-34853D01*
X83892Y-34868D01*
X83897Y-34946D01*
X83906Y-35005D01*
X83918Y-35050D01*
X83937Y-35084D01*
X83963Y-35111D01*
X83971Y-35118D01*
X84002Y-35138D01*
X84025Y-35139D01*
X84044Y-35124D01*
X84048Y-35115D01*
X84051Y-35099D01*
X84053Y-35072D01*
X84053Y-35032D01*
X84053Y-34979D01*
X84051Y-34909D01*
X84048Y-34820D01*
X84045Y-34727D01*
X84042Y-34634D01*
X84038Y-34547D01*
X84035Y-34469D01*
X84031Y-34402D01*
X84029Y-34350D01*
X84026Y-34316D01*
X84025Y-34305D01*
X84012Y-34265D01*
X83987Y-34229D01*
X83956Y-34203D01*
X83926Y-34194D01*
X83898Y-34203D01*
X83868Y-34228D01*
X83843Y-34262D01*
X83830Y-34293D01*
X83828Y-34316D01*
X83827Y-34355D01*
X83827Y-34355D01*
X83827Y-34355D01*
G37*
G36*
X89202Y-34400D02*
X89203Y-34469D01*
X89205Y-34547D01*
X89208Y-34630D01*
X89211Y-34715D01*
X89215Y-34799D01*
X89220Y-34878D01*
X89225Y-34950D01*
X89229Y-35010D01*
X89234Y-35056D01*
X89239Y-35085D01*
X89242Y-35092D01*
X89267Y-35106D01*
X89298Y-35103D01*
X89327Y-35083D01*
X89329Y-35082D01*
X89349Y-35056D01*
X89363Y-35030D01*
X89372Y-34998D01*
X89376Y-34954D01*
X89378Y-34895D01*
X89378Y-34877D01*
X89380Y-34800D01*
X89386Y-34736D01*
X89395Y-34692D01*
X89403Y-34650D01*
X89409Y-34593D01*
X89411Y-34527D01*
X89411Y-34459D01*
X89409Y-34396D01*
X89403Y-34344D01*
X89399Y-34325D01*
X89381Y-34281D01*
X89350Y-34239D01*
X89315Y-34209D01*
X89290Y-34198D01*
X89258Y-34200D01*
X89230Y-34224D01*
X89210Y-34268D01*
X89207Y-34277D01*
X89204Y-34301D01*
X89203Y-34343D01*
X89202Y-34400D01*
X89202Y-34400D01*
X89202Y-34400D01*
G37*
G36*
X82852Y-34394D02*
X82853Y-34462D01*
X82854Y-34539D01*
X82857Y-34622D01*
X82861Y-34707D01*
X82865Y-34791D01*
X82869Y-34871D01*
X82874Y-34943D01*
X82878Y-35005D01*
X82884Y-35052D01*
X82888Y-35083D01*
X82891Y-35092D01*
X82916Y-35106D01*
X82947Y-35103D01*
X82976Y-35084D01*
X82978Y-35082D01*
X82999Y-35056D01*
X83013Y-35030D01*
X83021Y-34997D01*
X83025Y-34953D01*
X83027Y-34893D01*
X83027Y-34879D01*
X83030Y-34790D01*
X83038Y-34719D01*
X83045Y-34688D01*
X83054Y-34653D01*
X83058Y-34611D01*
X83060Y-34559D01*
X83060Y-34491D01*
X83059Y-34468D01*
X83057Y-34404D01*
X83055Y-34358D01*
X83051Y-34326D01*
X83045Y-34303D01*
X83036Y-34285D01*
X83027Y-34271D01*
X82996Y-34235D01*
X82961Y-34208D01*
X82928Y-34194D01*
X82921Y-34194D01*
X82897Y-34204D01*
X82874Y-34234D01*
X82856Y-34275D01*
X82853Y-34297D01*
X82852Y-34338D01*
X82852Y-34394D01*
X82852Y-34394D01*
X82852Y-34394D01*
G37*
G36*
X85003Y-34795D02*
X85004Y-34856D01*
X85008Y-34903D01*
X85014Y-34938D01*
X85022Y-34964D01*
X85034Y-34984D01*
X85050Y-35000D01*
X85056Y-35005D01*
X85085Y-35023D01*
X85109Y-35025D01*
X85136Y-35009D01*
X85158Y-34989D01*
X85196Y-34950D01*
X85196Y-34834D01*
X85192Y-34746D01*
X85182Y-34658D01*
X85175Y-34619D01*
X85164Y-34561D01*
X85155Y-34492D01*
X85148Y-34424D01*
X85146Y-34400D01*
X85138Y-34321D01*
X85126Y-34264D01*
X85108Y-34228D01*
X85085Y-34212D01*
X85076Y-34211D01*
X85060Y-34217D01*
X85046Y-34238D01*
X85032Y-34274D01*
X85025Y-34298D01*
X85020Y-34326D01*
X85015Y-34362D01*
X85012Y-34409D01*
X85009Y-34470D01*
X85007Y-34548D01*
X85005Y-34617D01*
X85003Y-34716D01*
X85003Y-34795D01*
X85003Y-34795D01*
X85003Y-34795D01*
G37*
G36*
X78594Y-34182D02*
X79188Y-34182D01*
X79782Y-34182D01*
X79782Y-34554D01*
X79782Y-34925D01*
X79880Y-34925D01*
X79977Y-34925D01*
X79977Y-34571D01*
X79977Y-34483D01*
X79977Y-34404D01*
X79978Y-34335D01*
X79978Y-34279D01*
X79979Y-34240D01*
X79980Y-34219D01*
X79980Y-34216D01*
X79991Y-34222D01*
X80020Y-34236D01*
X80066Y-34260D01*
X80128Y-34291D01*
X80204Y-34330D01*
X80292Y-34374D01*
X80391Y-34425D01*
X80498Y-34480D01*
X80614Y-34539D01*
X80720Y-34593D01*
X80841Y-34655D01*
X80956Y-34714D01*
X81063Y-34768D01*
X81162Y-34818D01*
X81249Y-34862D01*
X81325Y-34900D01*
X81386Y-34931D01*
X81432Y-34953D01*
X81461Y-34966D01*
X81470Y-34970D01*
X81474Y-34966D01*
X81478Y-34950D01*
X81480Y-34922D01*
X81482Y-34880D01*
X81483Y-34821D01*
X81484Y-34744D01*
X81485Y-34648D01*
X81485Y-34576D01*
X81485Y-34182D01*
X82022Y-34182D01*
X82558Y-34182D01*
X82558Y-34085D01*
X82558Y-33989D01*
X82022Y-33989D01*
X81485Y-33989D01*
X81485Y-33589D01*
X81484Y-33496D01*
X81484Y-33411D01*
X81482Y-33336D01*
X81481Y-33274D01*
X81480Y-33227D01*
X81478Y-33198D01*
X81476Y-33190D01*
X81465Y-33194D01*
X81435Y-33209D01*
X81388Y-33233D01*
X81325Y-33264D01*
X81248Y-33303D01*
X81160Y-33348D01*
X81061Y-33398D01*
X80952Y-33454D01*
X80836Y-33513D01*
X80725Y-33570D01*
X79982Y-33950D01*
X79977Y-33601D01*
X79971Y-33252D01*
X79876Y-33249D01*
X79782Y-33245D01*
X79782Y-33617D01*
X79782Y-33989D01*
X79188Y-33989D01*
X78594Y-33989D01*
X78594Y-34085D01*
X78594Y-34182D01*
X78594Y-34182D01*
X78594Y-34182D01*
G37*
G36*
X89887Y-34127D02*
X89897Y-34166D01*
X89916Y-34198D01*
X89942Y-34221D01*
X89981Y-34233D01*
X90036Y-34239D01*
X90069Y-34239D01*
X90117Y-34239D01*
X90149Y-34237D01*
X90170Y-34230D01*
X90188Y-34219D01*
X90207Y-34201D01*
X90238Y-34158D01*
X90246Y-34114D01*
X90231Y-34069D01*
X90223Y-34056D01*
X90188Y-34025D01*
X90139Y-34006D01*
X90072Y-34001D01*
X90038Y-34002D01*
X89992Y-34007D01*
X89962Y-34015D01*
X89939Y-34028D01*
X89927Y-34039D01*
X89896Y-34081D01*
X89887Y-34127D01*
X89887Y-34127D01*
X89887Y-34127D01*
G37*
G36*
X89302Y-34125D02*
X89312Y-34169D01*
X89344Y-34210D01*
X89345Y-34211D01*
X89360Y-34222D01*
X89374Y-34230D01*
X89394Y-34235D01*
X89421Y-34238D01*
X89463Y-34239D01*
X89521Y-34239D01*
X89543Y-34239D01*
X89607Y-34239D01*
X89653Y-34238D01*
X89684Y-34236D01*
X89704Y-34232D01*
X89719Y-34225D01*
X89732Y-34215D01*
X89736Y-34211D01*
X89771Y-34168D01*
X89783Y-34123D01*
X89772Y-34078D01*
X89741Y-34038D01*
X89727Y-34025D01*
X89714Y-34016D01*
X89697Y-34010D01*
X89672Y-34007D01*
X89634Y-34006D01*
X89580Y-34005D01*
X89550Y-34005D01*
X89476Y-34006D01*
X89421Y-34009D01*
X89381Y-34016D01*
X89353Y-34027D01*
X89334Y-34044D01*
X89318Y-34068D01*
X89314Y-34076D01*
X89302Y-34125D01*
X89302Y-34125D01*
X89302Y-34125D01*
G37*
G36*
X88299Y-34126D02*
X88312Y-34171D01*
X88345Y-34211D01*
X88362Y-34225D01*
X88381Y-34233D01*
X88406Y-34238D01*
X88445Y-34239D01*
X88478Y-34239D01*
X88527Y-34239D01*
X88559Y-34237D01*
X88581Y-34231D01*
X88598Y-34221D01*
X88617Y-34203D01*
X88619Y-34201D01*
X88650Y-34158D01*
X88658Y-34114D01*
X88643Y-34069D01*
X88635Y-34056D01*
X88601Y-34025D01*
X88551Y-34006D01*
X88484Y-34001D01*
X88450Y-34002D01*
X88404Y-34007D01*
X88374Y-34015D01*
X88351Y-34028D01*
X88338Y-34039D01*
X88308Y-34081D01*
X88299Y-34126D01*
X88299Y-34126D01*
X88299Y-34126D01*
G37*
G36*
X86711Y-34126D02*
X86724Y-34171D01*
X86757Y-34211D01*
X86774Y-34225D01*
X86792Y-34233D01*
X86818Y-34238D01*
X86857Y-34239D01*
X86890Y-34239D01*
X86939Y-34239D01*
X86971Y-34237D01*
X86993Y-34231D01*
X87010Y-34221D01*
X87029Y-34203D01*
X87031Y-34201D01*
X87062Y-34158D01*
X87070Y-34114D01*
X87055Y-34069D01*
X87047Y-34056D01*
X87012Y-34025D01*
X86963Y-34006D01*
X86897Y-34001D01*
X86862Y-34002D01*
X86816Y-34007D01*
X86786Y-34015D01*
X86763Y-34028D01*
X86751Y-34039D01*
X86719Y-34081D01*
X86711Y-34126D01*
X86711Y-34126D01*
X86711Y-34126D01*
G37*
G36*
X86126Y-34125D02*
X86136Y-34169D01*
X86168Y-34210D01*
X86169Y-34211D01*
X86184Y-34222D01*
X86198Y-34230D01*
X86218Y-34235D01*
X86246Y-34238D01*
X86286Y-34239D01*
X86345Y-34239D01*
X86367Y-34239D01*
X86431Y-34239D01*
X86477Y-34238D01*
X86508Y-34236D01*
X86529Y-34232D01*
X86544Y-34225D01*
X86556Y-34215D01*
X86560Y-34211D01*
X86595Y-34168D01*
X86607Y-34123D01*
X86596Y-34078D01*
X86565Y-34038D01*
X86551Y-34025D01*
X86538Y-34016D01*
X86521Y-34010D01*
X86496Y-34007D01*
X86458Y-34006D01*
X86404Y-34005D01*
X86374Y-34005D01*
X86300Y-34006D01*
X86245Y-34009D01*
X86205Y-34016D01*
X86177Y-34027D01*
X86158Y-34044D01*
X86142Y-34068D01*
X86139Y-34076D01*
X86126Y-34125D01*
X86126Y-34125D01*
X86126Y-34125D01*
G37*
G36*
X83536Y-34126D02*
X83549Y-34171D01*
X83582Y-34211D01*
X83599Y-34225D01*
X83618Y-34233D01*
X83643Y-34238D01*
X83682Y-34239D01*
X83715Y-34239D01*
X83764Y-34239D01*
X83796Y-34237D01*
X83818Y-34231D01*
X83835Y-34221D01*
X83854Y-34203D01*
X83856Y-34201D01*
X83887Y-34158D01*
X83895Y-34114D01*
X83880Y-34069D01*
X83872Y-34056D01*
X83838Y-34025D01*
X83788Y-34006D01*
X83721Y-34001D01*
X83687Y-34002D01*
X83641Y-34007D01*
X83611Y-34015D01*
X83588Y-34028D01*
X83575Y-34039D01*
X83545Y-34081D01*
X83536Y-34126D01*
X83536Y-34126D01*
X83536Y-34126D01*
G37*
G36*
X82951Y-34125D02*
X82961Y-34169D01*
X82993Y-34210D01*
X82994Y-34211D01*
X83009Y-34222D01*
X83023Y-34230D01*
X83043Y-34235D01*
X83071Y-34238D01*
X83112Y-34239D01*
X83170Y-34239D01*
X83192Y-34239D01*
X83256Y-34239D01*
X83302Y-34238D01*
X83333Y-34236D01*
X83354Y-34232D01*
X83368Y-34225D01*
X83381Y-34215D01*
X83385Y-34211D01*
X83420Y-34168D01*
X83432Y-34123D01*
X83422Y-34078D01*
X83390Y-34038D01*
X83376Y-34025D01*
X83363Y-34016D01*
X83346Y-34010D01*
X83320Y-34007D01*
X83283Y-34006D01*
X83229Y-34005D01*
X83199Y-34005D01*
X83125Y-34006D01*
X83070Y-34009D01*
X83030Y-34016D01*
X83002Y-34027D01*
X82983Y-34044D01*
X82967Y-34068D01*
X82964Y-34076D01*
X82951Y-34125D01*
X82951Y-34125D01*
X82951Y-34125D01*
G37*
G36*
X89148Y-33257D02*
X89150Y-33331D01*
X89153Y-33424D01*
X89158Y-33537D01*
X89162Y-33607D01*
X89167Y-33716D01*
X89172Y-33805D01*
X89176Y-33876D01*
X89179Y-33930D01*
X89183Y-33971D01*
X89186Y-34000D01*
X89190Y-34019D01*
X89195Y-34033D01*
X89200Y-34041D01*
X89206Y-34047D01*
X89207Y-34048D01*
X89238Y-34065D01*
X89268Y-34063D01*
X89303Y-34042D01*
X89313Y-34034D01*
X89339Y-34008D01*
X89357Y-33984D01*
X89369Y-33953D01*
X89375Y-33912D01*
X89376Y-33858D01*
X89375Y-33787D01*
X89372Y-33721D01*
X89369Y-33673D01*
X89362Y-33637D01*
X89354Y-33607D01*
X89344Y-33583D01*
X89332Y-33554D01*
X89324Y-33522D01*
X89318Y-33481D01*
X89313Y-33426D01*
X89310Y-33374D01*
X89303Y-33221D01*
X89249Y-33171D01*
X89223Y-33147D01*
X89201Y-33130D01*
X89184Y-33121D01*
X89170Y-33122D01*
X89160Y-33135D01*
X89153Y-33161D01*
X89149Y-33201D01*
X89148Y-33257D01*
X89148Y-33257D01*
X89148Y-33257D01*
G37*
G36*
X85973Y-33257D02*
X85974Y-33331D01*
X85977Y-33423D01*
X85982Y-33536D01*
X85986Y-33606D01*
X85991Y-33716D01*
X85996Y-33805D01*
X86000Y-33875D01*
X86003Y-33930D01*
X86007Y-33971D01*
X86011Y-34000D01*
X86014Y-34019D01*
X86019Y-34033D01*
X86024Y-34041D01*
X86030Y-34047D01*
X86031Y-34048D01*
X86062Y-34065D01*
X86092Y-34063D01*
X86127Y-34042D01*
X86137Y-34034D01*
X86163Y-34008D01*
X86181Y-33984D01*
X86193Y-33953D01*
X86199Y-33912D01*
X86201Y-33858D01*
X86199Y-33787D01*
X86196Y-33721D01*
X86193Y-33673D01*
X86187Y-33637D01*
X86178Y-33607D01*
X86168Y-33583D01*
X86157Y-33554D01*
X86148Y-33522D01*
X86142Y-33481D01*
X86137Y-33426D01*
X86134Y-33374D01*
X86127Y-33221D01*
X86074Y-33171D01*
X86047Y-33147D01*
X86026Y-33130D01*
X86008Y-33121D01*
X85994Y-33122D01*
X85984Y-33135D01*
X85977Y-33161D01*
X85974Y-33201D01*
X85973Y-33257D01*
X85973Y-33257D01*
X85973Y-33257D01*
G37*
G36*
X84942Y-33359D02*
X84942Y-33414D01*
X84945Y-33478D01*
X84949Y-33545D01*
X84954Y-33613D01*
X84961Y-33674D01*
X84968Y-33725D01*
X84973Y-33749D01*
X84983Y-33802D01*
X84991Y-33862D01*
X84996Y-33906D01*
X85004Y-33977D01*
X85017Y-34025D01*
X85035Y-34055D01*
X85058Y-34065D01*
X85080Y-34061D01*
X85094Y-34047D01*
X85111Y-34022D01*
X85112Y-34021D01*
X85119Y-34000D01*
X85124Y-33974D01*
X85125Y-33935D01*
X85123Y-33880D01*
X85122Y-33866D01*
X85119Y-33795D01*
X85121Y-33740D01*
X85128Y-33691D01*
X85133Y-33669D01*
X85142Y-33610D01*
X85148Y-33537D01*
X85150Y-33460D01*
X85147Y-33388D01*
X85140Y-33338D01*
X85120Y-33286D01*
X85094Y-33255D01*
X85053Y-33229D01*
X85014Y-33225D01*
X84979Y-33242D01*
X84952Y-33281D01*
X84947Y-33293D01*
X84943Y-33317D01*
X84942Y-33359D01*
X84942Y-33359D01*
X84942Y-33359D01*
G37*
G36*
X82798Y-33257D02*
X82799Y-33330D01*
X82802Y-33423D01*
X82807Y-33536D01*
X82811Y-33606D01*
X82816Y-33716D01*
X82821Y-33804D01*
X82825Y-33875D01*
X82828Y-33930D01*
X82832Y-33971D01*
X82835Y-34000D01*
X82839Y-34019D01*
X82844Y-34032D01*
X82849Y-34041D01*
X82855Y-34047D01*
X82856Y-34048D01*
X82887Y-34065D01*
X82917Y-34063D01*
X82952Y-34042D01*
X82962Y-34034D01*
X82988Y-34008D01*
X83006Y-33984D01*
X83018Y-33953D01*
X83024Y-33912D01*
X83026Y-33858D01*
X83024Y-33787D01*
X83022Y-33721D01*
X83018Y-33673D01*
X83012Y-33637D01*
X83003Y-33607D01*
X82993Y-33583D01*
X82982Y-33554D01*
X82973Y-33522D01*
X82967Y-33481D01*
X82962Y-33426D01*
X82959Y-33374D01*
X82952Y-33221D01*
X82899Y-33171D01*
X82873Y-33147D01*
X82851Y-33130D01*
X82833Y-33121D01*
X82819Y-33122D01*
X82809Y-33135D01*
X82803Y-33161D01*
X82799Y-33201D01*
X82798Y-33257D01*
X82798Y-33257D01*
X82798Y-33257D01*
G37*
G36*
X90144Y-33728D02*
X90145Y-33775D01*
X90146Y-33810D01*
X90153Y-33885D01*
X90164Y-33941D01*
X90181Y-33983D01*
X90205Y-34013D01*
X90227Y-34031D01*
X90258Y-34050D01*
X90280Y-34055D01*
X90302Y-34045D01*
X90318Y-34033D01*
X90341Y-34007D01*
X90354Y-33980D01*
X90355Y-33959D01*
X90355Y-33918D01*
X90354Y-33862D01*
X90352Y-33792D01*
X90349Y-33714D01*
X90346Y-33629D01*
X90342Y-33543D01*
X90337Y-33457D01*
X90333Y-33375D01*
X90328Y-33301D01*
X90324Y-33238D01*
X90320Y-33190D01*
X90316Y-33159D01*
X90315Y-33152D01*
X90301Y-33120D01*
X90284Y-33111D01*
X90261Y-33123D01*
X90249Y-33135D01*
X90225Y-33165D01*
X90207Y-33194D01*
X90196Y-33229D01*
X90190Y-33272D01*
X90187Y-33330D01*
X90187Y-33398D01*
X90188Y-33465D01*
X90187Y-33514D01*
X90184Y-33552D01*
X90178Y-33583D01*
X90169Y-33614D01*
X90165Y-33624D01*
X90153Y-33659D01*
X90146Y-33692D01*
X90144Y-33728D01*
X90144Y-33728D01*
X90144Y-33728D01*
G37*
G36*
X88556Y-33728D02*
X88557Y-33775D01*
X88558Y-33810D01*
X88565Y-33885D01*
X88576Y-33941D01*
X88593Y-33983D01*
X88617Y-34013D01*
X88640Y-34031D01*
X88670Y-34050D01*
X88692Y-34055D01*
X88714Y-34045D01*
X88730Y-34033D01*
X88753Y-34007D01*
X88766Y-33980D01*
X88767Y-33959D01*
X88767Y-33918D01*
X88766Y-33862D01*
X88764Y-33792D01*
X88761Y-33714D01*
X88758Y-33629D01*
X88754Y-33543D01*
X88750Y-33457D01*
X88745Y-33375D01*
X88740Y-33301D01*
X88736Y-33238D01*
X88731Y-33190D01*
X88728Y-33159D01*
X88726Y-33152D01*
X88713Y-33120D01*
X88695Y-33111D01*
X88673Y-33123D01*
X88661Y-33135D01*
X88637Y-33165D01*
X88619Y-33194D01*
X88608Y-33229D01*
X88602Y-33272D01*
X88599Y-33330D01*
X88600Y-33398D01*
X88600Y-33465D01*
X88599Y-33514D01*
X88596Y-33552D01*
X88590Y-33583D01*
X88581Y-33614D01*
X88577Y-33624D01*
X88565Y-33659D01*
X88558Y-33692D01*
X88556Y-33728D01*
X88556Y-33728D01*
X88556Y-33728D01*
G37*
G36*
X86968Y-33728D02*
X86968Y-33775D01*
X86971Y-33810D01*
X86977Y-33885D01*
X86988Y-33941D01*
X87005Y-33983D01*
X87030Y-34013D01*
X87052Y-34031D01*
X87083Y-34050D01*
X87105Y-34055D01*
X87126Y-34045D01*
X87142Y-34033D01*
X87165Y-34007D01*
X87178Y-33980D01*
X87179Y-33959D01*
X87179Y-33918D01*
X87178Y-33862D01*
X87176Y-33792D01*
X87173Y-33714D01*
X87170Y-33629D01*
X87166Y-33543D01*
X87161Y-33457D01*
X87157Y-33375D01*
X87153Y-33301D01*
X87148Y-33238D01*
X87144Y-33190D01*
X87140Y-33159D01*
X87138Y-33152D01*
X87125Y-33120D01*
X87108Y-33111D01*
X87085Y-33123D01*
X87073Y-33135D01*
X87049Y-33165D01*
X87032Y-33194D01*
X87020Y-33229D01*
X87014Y-33272D01*
X87011Y-33330D01*
X87012Y-33398D01*
X87012Y-33465D01*
X87011Y-33514D01*
X87008Y-33552D01*
X87002Y-33583D01*
X86992Y-33614D01*
X86989Y-33624D01*
X86977Y-33659D01*
X86971Y-33692D01*
X86968Y-33728D01*
X86968Y-33728D01*
X86968Y-33728D01*
G37*
G36*
X83793Y-33728D02*
X83794Y-33775D01*
X83796Y-33810D01*
X83802Y-33885D01*
X83813Y-33941D01*
X83830Y-33983D01*
X83854Y-34013D01*
X83877Y-34031D01*
X83908Y-34050D01*
X83930Y-34055D01*
X83951Y-34045D01*
X83967Y-34033D01*
X83990Y-34007D01*
X84003Y-33980D01*
X84004Y-33959D01*
X84005Y-33919D01*
X84004Y-33862D01*
X84001Y-33793D01*
X83999Y-33714D01*
X83995Y-33630D01*
X83991Y-33543D01*
X83987Y-33457D01*
X83982Y-33375D01*
X83978Y-33301D01*
X83973Y-33239D01*
X83969Y-33190D01*
X83965Y-33159D01*
X83963Y-33152D01*
X83950Y-33120D01*
X83933Y-33111D01*
X83910Y-33123D01*
X83898Y-33135D01*
X83874Y-33165D01*
X83857Y-33194D01*
X83845Y-33229D01*
X83839Y-33272D01*
X83836Y-33330D01*
X83837Y-33398D01*
X83837Y-33465D01*
X83836Y-33514D01*
X83833Y-33552D01*
X83827Y-33583D01*
X83818Y-33614D01*
X83814Y-33624D01*
X83802Y-33659D01*
X83796Y-33692D01*
X83793Y-33728D01*
X83793Y-33728D01*
X83793Y-33728D01*
G37*
G36*
X80148Y-33373D02*
X80206Y-33343D01*
X80238Y-33328D01*
X80261Y-33318D01*
X80267Y-33317D01*
X80273Y-33328D01*
X80287Y-33356D01*
X80307Y-33397D01*
X80331Y-33447D01*
X80340Y-33467D01*
X80365Y-33519D01*
X80388Y-33562D01*
X80406Y-33594D01*
X80417Y-33610D01*
X80419Y-33611D01*
X80434Y-33605D01*
X80458Y-33591D01*
X80459Y-33591D01*
X80481Y-33576D01*
X80491Y-33565D01*
X80491Y-33565D01*
X80486Y-33553D01*
X80473Y-33524D01*
X80454Y-33482D01*
X80431Y-33431D01*
X80422Y-33413D01*
X80397Y-33361D01*
X80377Y-33316D01*
X80362Y-33284D01*
X80354Y-33266D01*
X80354Y-33265D01*
X80363Y-33259D01*
X80387Y-33246D01*
X80411Y-33235D01*
X80442Y-33219D01*
X80463Y-33207D01*
X80468Y-33202D01*
X80458Y-33193D01*
X80433Y-33175D01*
X80396Y-33149D01*
X80348Y-33117D01*
X80316Y-33095D01*
X80165Y-32995D01*
X80157Y-33090D01*
X80154Y-33151D01*
X80151Y-33220D01*
X80149Y-33278D01*
X80148Y-33373D01*
X80148Y-33373D01*
X80148Y-33373D01*
G37*
G36*
X80586Y-33071D02*
X80587Y-33111D01*
X80588Y-33137D01*
X80590Y-33144D01*
X80604Y-33138D01*
X80630Y-33124D01*
X80645Y-33115D01*
X80673Y-33099D01*
X80693Y-33089D01*
X80697Y-33087D01*
X80704Y-33096D01*
X80719Y-33123D01*
X80740Y-33163D01*
X80765Y-33213D01*
X80776Y-33235D01*
X80802Y-33288D01*
X80825Y-33332D01*
X80843Y-33364D01*
X80853Y-33382D01*
X80855Y-33383D01*
X80869Y-33378D01*
X80893Y-33366D01*
X80896Y-33364D01*
X80920Y-33351D01*
X80933Y-33344D01*
X80934Y-33343D01*
X80930Y-33333D01*
X80918Y-33305D01*
X80899Y-33265D01*
X80876Y-33216D01*
X80868Y-33201D01*
X80843Y-33148D01*
X80822Y-33103D01*
X80807Y-33069D01*
X80799Y-33049D01*
X80799Y-33047D01*
X80809Y-33035D01*
X80833Y-33019D01*
X80850Y-33009D01*
X80880Y-32993D01*
X80899Y-32979D01*
X80902Y-32974D01*
X80893Y-32965D01*
X80869Y-32947D01*
X80834Y-32922D01*
X80792Y-32892D01*
X80746Y-32860D01*
X80700Y-32830D01*
X80659Y-32803D01*
X80626Y-32782D01*
X80605Y-32770D01*
X80600Y-32769D01*
X80597Y-32782D01*
X80594Y-32813D01*
X80592Y-32857D01*
X80590Y-32909D01*
X80588Y-32965D01*
X80587Y-33021D01*
X80586Y-33071D01*
X80586Y-33071D01*
X80586Y-33071D01*
G37*
G36*
X87619Y-33065D02*
X87630Y-33100D01*
X87649Y-33131D01*
X87673Y-33162D01*
X87692Y-33179D01*
X87714Y-33188D01*
X87744Y-33194D01*
X87776Y-33203D01*
X87799Y-33216D01*
X87801Y-33218D01*
X87819Y-33226D01*
X87856Y-33232D01*
X87904Y-33236D01*
X87959Y-33237D01*
X88017Y-33235D01*
X88071Y-33231D01*
X88116Y-33225D01*
X88147Y-33217D01*
X88150Y-33216D01*
X88180Y-33204D01*
X88203Y-33203D01*
X88227Y-33212D01*
X88256Y-33220D01*
X88300Y-33227D01*
X88349Y-33231D01*
X88355Y-33232D01*
X88404Y-33233D01*
X88437Y-33231D01*
X88461Y-33224D01*
X88485Y-33211D01*
X88486Y-33210D01*
X88526Y-33188D01*
X88567Y-33168D01*
X88572Y-33167D01*
X88609Y-33145D01*
X88640Y-33114D01*
X88662Y-33079D01*
X88667Y-33047D01*
X88666Y-33041D01*
X88662Y-33037D01*
X88655Y-33033D01*
X88641Y-33030D01*
X88619Y-33028D01*
X88587Y-33026D01*
X88542Y-33024D01*
X88483Y-33023D01*
X88408Y-33022D01*
X88315Y-33021D01*
X88201Y-33021D01*
X88167Y-33021D01*
X88061Y-33020D01*
X87963Y-33020D01*
X87873Y-33020D01*
X87794Y-33020D01*
X87730Y-33021D01*
X87681Y-33022D01*
X87652Y-33023D01*
X87644Y-33024D01*
X87623Y-33038D01*
X87619Y-33065D01*
X87619Y-33065D01*
X87619Y-33065D01*
G37*
G36*
X86030Y-33061D02*
X86038Y-33092D01*
X86056Y-33124D01*
X86082Y-33154D01*
X86114Y-33179D01*
X86150Y-33193D01*
X86154Y-33193D01*
X86187Y-33202D01*
X86210Y-33215D01*
X86213Y-33218D01*
X86232Y-33226D01*
X86268Y-33232D01*
X86316Y-33236D01*
X86371Y-33237D01*
X86429Y-33235D01*
X86483Y-33231D01*
X86528Y-33225D01*
X86559Y-33217D01*
X86562Y-33216D01*
X86591Y-33204D01*
X86615Y-33203D01*
X86639Y-33212D01*
X86669Y-33220D01*
X86712Y-33227D01*
X86761Y-33231D01*
X86767Y-33232D01*
X86816Y-33233D01*
X86849Y-33231D01*
X86874Y-33224D01*
X86897Y-33211D01*
X86899Y-33210D01*
X86937Y-33188D01*
X86979Y-33168D01*
X86984Y-33167D01*
X87021Y-33145D01*
X87052Y-33114D01*
X87073Y-33079D01*
X87079Y-33047D01*
X87078Y-33041D01*
X87074Y-33037D01*
X87067Y-33033D01*
X87053Y-33030D01*
X87031Y-33028D01*
X86998Y-33026D01*
X86954Y-33024D01*
X86895Y-33023D01*
X86820Y-33022D01*
X86727Y-33021D01*
X86613Y-33021D01*
X86579Y-33021D01*
X86474Y-33020D01*
X86375Y-33020D01*
X86285Y-33020D01*
X86206Y-33020D01*
X86142Y-33021D01*
X86093Y-33022D01*
X86064Y-33023D01*
X86056Y-33024D01*
X86036Y-33037D01*
X86030Y-33061D01*
X86030Y-33061D01*
X86030Y-33061D01*
G37*
G36*
X84443Y-33061D02*
X84451Y-33092D01*
X84469Y-33124D01*
X84495Y-33154D01*
X84526Y-33179D01*
X84562Y-33193D01*
X84566Y-33193D01*
X84599Y-33202D01*
X84622Y-33215D01*
X84625Y-33218D01*
X84644Y-33226D01*
X84680Y-33232D01*
X84728Y-33236D01*
X84784Y-33237D01*
X84841Y-33235D01*
X84895Y-33231D01*
X84940Y-33225D01*
X84971Y-33217D01*
X84974Y-33216D01*
X85004Y-33204D01*
X85027Y-33203D01*
X85051Y-33212D01*
X85080Y-33220D01*
X85124Y-33227D01*
X85173Y-33231D01*
X85179Y-33232D01*
X85228Y-33233D01*
X85261Y-33231D01*
X85286Y-33224D01*
X85309Y-33211D01*
X85311Y-33210D01*
X85349Y-33188D01*
X85391Y-33168D01*
X85396Y-33167D01*
X85433Y-33145D01*
X85464Y-33114D01*
X85486Y-33079D01*
X85491Y-33047D01*
X85490Y-33041D01*
X85486Y-33037D01*
X85479Y-33033D01*
X85465Y-33030D01*
X85443Y-33028D01*
X85410Y-33026D01*
X85366Y-33024D01*
X85307Y-33023D01*
X85232Y-33022D01*
X85139Y-33021D01*
X85025Y-33021D01*
X84991Y-33021D01*
X84885Y-33020D01*
X84787Y-33020D01*
X84697Y-33020D01*
X84618Y-33020D01*
X84554Y-33021D01*
X84505Y-33022D01*
X84477Y-33023D01*
X84469Y-33024D01*
X84448Y-33037D01*
X84443Y-33061D01*
X84443Y-33061D01*
X84443Y-33061D01*
G37*
G36*
X82855Y-33061D02*
X82863Y-33092D01*
X82881Y-33124D01*
X82907Y-33154D01*
X82939Y-33179D01*
X82975Y-33193D01*
X82979Y-33193D01*
X83012Y-33202D01*
X83035Y-33215D01*
X83038Y-33218D01*
X83057Y-33226D01*
X83093Y-33232D01*
X83141Y-33236D01*
X83196Y-33237D01*
X83254Y-33235D01*
X83308Y-33231D01*
X83353Y-33225D01*
X83385Y-33217D01*
X83387Y-33216D01*
X83417Y-33204D01*
X83440Y-33203D01*
X83464Y-33212D01*
X83494Y-33220D01*
X83537Y-33227D01*
X83586Y-33231D01*
X83592Y-33232D01*
X83641Y-33233D01*
X83674Y-33231D01*
X83699Y-33224D01*
X83722Y-33211D01*
X83724Y-33210D01*
X83763Y-33188D01*
X83804Y-33168D01*
X83809Y-33167D01*
X83846Y-33145D01*
X83877Y-33114D01*
X83899Y-33079D01*
X83904Y-33047D01*
X83903Y-33041D01*
X83899Y-33037D01*
X83892Y-33033D01*
X83878Y-33030D01*
X83856Y-33028D01*
X83824Y-33026D01*
X83779Y-33024D01*
X83720Y-33023D01*
X83645Y-33022D01*
X83552Y-33021D01*
X83438Y-33021D01*
X83404Y-33021D01*
X83299Y-33020D01*
X83200Y-33020D01*
X83110Y-33020D01*
X83031Y-33020D01*
X82967Y-33021D01*
X82918Y-33022D01*
X82889Y-33023D01*
X82881Y-33024D01*
X82861Y-33037D01*
X82855Y-33061D01*
X82855Y-33061D01*
X82855Y-33061D01*
G37*
M02*
