M48
;DRILL file {Pcbnew (2013-may-18)-stable} date Tue 21 Oct 2014 08:31:33 PM CEST
;FORMAT={3:3/ absolute / metric / suppress leading zeros}
FMAT,2
METRIC,TZ
T1C0.200
T2C0.635
T3C0.813
T4C0.899
T5C1.001
T6C1.270
T7C1.524
T8C1.600
T9C3.048
T10C3.251
%
G90
G05
M71
T1
X142875Y-66040
X142875Y-68580
X142875Y-71120
X144145Y-72390
X146685Y-68580
X146685Y-70485
X147955Y-66675
X149225Y-67945
X149225Y-73660
X150495Y-72390
X151765Y-60325
X151765Y-63500
X153035Y-67945
X153035Y-72390
X153035Y-73660
X154305Y-63500
X154305Y-69215
X156845Y-66675
X156845Y-72390
X158115Y-63500
X160655Y-73660
X162560Y-74930
X166370Y-72390
X170815Y-73660
X176530Y-72390
X176530Y-76200
X179070Y-73660
X184150Y-65405
X185420Y-67310
X195580Y-65405
T2
X178435Y-67310
T3
X145415Y-81280
X147955Y-81280
X150495Y-81280
X153035Y-81280
X155575Y-81280
X158115Y-81280
X160655Y-81280
X186690Y-68580
X186690Y-76200
X191770Y-68580
X191770Y-76200
T4
X135890Y-63500
X135890Y-66040
X135890Y-68580
X135890Y-71120
X138430Y-64770
X138430Y-67310
X138430Y-69850
X138430Y-72390
X165776Y-78760
X168275Y-81260
X170774Y-78760
T5
X127635Y-53340
T6
X150495Y-53340
T7
X160655Y-48260
X165735Y-48260
T8
X132590Y-60200
X132590Y-75692
T9
X122555Y-48260
X122555Y-83820
X197485Y-48260
X197485Y-83820
T10
X129540Y-62230
X129540Y-73660
T0
M30
