M48
;DRILL file {Pcbnew (2013-may-18)-stable} date Wed 22 Oct 2014 04:48:02 PM CEST
;FORMAT={-:-/ absolute / metric / decimal}
FMAT,2
METRIC,TZ
T1C0.200
T2C0.635
T3C0.813
T4C0.899
T5C1.001
T6C1.270
T7C1.524
T8C1.600
T9C3.048
T10C3.251
%
G90
G05
M71
T1
X142.875Y-66.04
X142.875Y-68.58
X142.875Y-71.12
X144.145Y-72.39
X146.685Y-68.58
X146.685Y-70.485
X147.955Y-66.675
X149.225Y-67.945
X149.225Y-73.66
X150.495Y-72.39
X151.765Y-60.325
X151.765Y-63.5
X153.035Y-67.945
X153.035Y-72.39
X153.035Y-73.66
X154.305Y-63.5
X154.305Y-69.215
X156.845Y-66.675
X156.845Y-72.39
X158.115Y-63.5
X160.655Y-73.66
X162.56Y-74.93
X166.37Y-72.39
X170.815Y-73.66
X176.53Y-72.39
X176.53Y-76.2
X179.07Y-73.66
X184.15Y-65.405
X185.42Y-67.31
X195.58Y-65.405
T2
X178.435Y-67.31
T3
X145.415Y-81.28
X147.955Y-81.28
X150.495Y-81.28
X153.035Y-81.28
X155.575Y-81.28
X158.115Y-81.28
X160.655Y-81.28
X186.69Y-68.58
X186.69Y-76.2
X191.77Y-68.58
X191.77Y-76.2
T4
X135.89Y-63.5
X135.89Y-66.04
X135.89Y-68.58
X135.89Y-71.12
X138.43Y-64.77
X138.43Y-67.31
X138.43Y-69.85
X138.43Y-72.39
X165.776Y-78.76
X168.275Y-81.26
X170.774Y-78.76
T5
X127.635Y-53.34
T6
X150.495Y-53.34
T7
X160.655Y-48.26
X165.735Y-48.26
T8
X132.59Y-60.2
X132.59Y-75.692
T9
X122.555Y-48.26
X122.555Y-83.82
X197.485Y-48.26
X197.485Y-83.82
T10
X129.54Y-62.23
X129.54Y-73.66
T0
M30
