<?xml version="1.0" encoding="UTF-8" standalone="no"?>
<svg
   xmlns:dc="http://purl.org/dc/elements/1.1/"
   xmlns:cc="http://creativecommons.org/ns#"
   xmlns:rdf="http://www.w3.org/1999/02/22-rdf-syntax-ns#"
   xmlns:svg="http://www.w3.org/2000/svg"
   xmlns="http://www.w3.org/2000/svg"
   xmlns:sodipodi="http://sodipodi.sourceforge.net/DTD/sodipodi-0.dtd"
   xmlns:inkscape="http://www.inkscape.org/namespaces/inkscape"
   version="1.1"
   width="41.9989cm"
   height="29.7002cm"
   viewBox="0 0 165350 116930 "
   id="svg2"
   inkscape:version="0.48.5 r10040"
   sodipodi:docname="driverboard-F_Paste.svg">
  <metadata
     id="metadata248">
    <rdf:RDF>
      <cc:Work
         rdf:about="">
        <dc:format>image/svg+xml</dc:format>
        <dc:type
           rdf:resource="http://purl.org/dc/dcmitype/StillImage" />
      </cc:Work>
    </rdf:RDF>
  </metadata>
  <defs
     id="defs246" />
  <sodipodi:namedview
     pagecolor="#ffffff"
     bordercolor="#666666"
     borderopacity="1"
     objecttolerance="10"
     gridtolerance="10"
     guidetolerance="10"
     inkscape:pageopacity="0"
     inkscape:pageshadow="2"
     inkscape:window-width="640"
     inkscape:window-height="480"
     id="namedview244"
     showgrid="false"
     inkscape:zoom="0.22425588"
     inkscape:cx="342.28162"
     inkscape:cy="537.6178"
     inkscape:window-x="1598"
     inkscape:window-y="338"
     inkscape:window-maximized="0"
     inkscape:current-layer="svg2" />
  <title
     id="title4">SVG Picture created as driverboard-F_Paste.svg date 2014/12/16 20:48:50 </title>
  <desc
     id="desc6">Picture generated by PCBNEW </desc>
  <g
     style="fill:#000000; fill-opacity:1;stroke:#000000; stroke-opacity:1; stroke-linecap:round; stroke-linejoin:round; "
     transform="translate(0 0) scale(1 1)"
     id="g8" />
  <g
     style="fill:#000000; fill-opacity:0.0;  stroke:#000000; stroke-width:59.0551; stroke-opacity:1;  stroke-linecap:round; stroke-linejoin:round;"
     id="g10" />
  <g
     style="fill:#000000;fill-opacity:1;stroke:#000000;stroke-width:59.05509949;stroke-linecap:round;stroke-linejoin:round;stroke-opacity:1"
     id="g12"
     transform="translate(29727.966,35178.093)">
    <polyline
       style="fill-rule:evenodd"
       points="44501,24291 43498,24291 43498,23346 44501,23346 44501,24291 "
       id="polyline14" />
    <polyline
       style="fill-rule:evenodd"
       points="44718,26653 43281,26653 43281,25708 44718,25708 44718,26653 "
       id="polyline16" />
    <polyline
       style="fill-rule:evenodd"
       points="46457,21162 46457,20669 46792,20669 46792,21162 46457,21162 "
       id="polyline18" />
    <polyline
       style="fill-rule:evenodd"
       points="46832,20330 46832,19837 47167,19837 47167,20330 46832,20330 "
       id="polyline20" />
    <polyline
       style="fill-rule:evenodd"
       points="47207,21162 47207,20669 47542,20669 47542,21162 47207,21162 "
       id="polyline22" />
    <polyline
       style="fill-rule:evenodd"
       points="55457,21162 55457,20669 55792,20669 55792,21162 55457,21162 "
       id="polyline24" />
    <polyline
       style="fill-rule:evenodd"
       points="55832,20330 55832,19837 56167,19837 56167,20330 55832,20330 "
       id="polyline26" />
    <polyline
       style="fill-rule:evenodd"
       points="56207,21162 56207,20669 56542,20669 56542,21162 56207,21162 "
       id="polyline28" />
    <polyline
       style="fill-rule:evenodd"
       points="47957,21162 47957,20669 48292,20669 48292,21162 47957,21162 "
       id="polyline30" />
    <polyline
       style="fill-rule:evenodd"
       points="48332,20330 48332,19837 48667,19837 48667,20330 48332,20330 "
       id="polyline32" />
    <polyline
       style="fill-rule:evenodd"
       points="48707,21162 48707,20669 49042,20669 49042,21162 48707,21162 "
       id="polyline34" />
    <polyline
       style="fill-rule:evenodd"
       points="53957,21162 53957,20669 54292,20669 54292,21162 53957,21162 "
       id="polyline36" />
    <polyline
       style="fill-rule:evenodd"
       points="54332,20330 54332,19837 54667,19837 54667,20330 54332,20330 "
       id="polyline38" />
    <polyline
       style="fill-rule:evenodd"
       points="54707,21162 54707,20669 55042,20669 55042,21162 54707,21162 "
       id="polyline40" />
    <polyline
       style="fill-rule:evenodd"
       points="44957,21162 44957,20669 45292,20669 45292,21162 44957,21162 "
       id="polyline42" />
    <polyline
       style="fill-rule:evenodd"
       points="45332,20330 45332,19837 45667,19837 45667,20330 45332,20330 "
       id="polyline44" />
    <polyline
       style="fill-rule:evenodd"
       points="45707,21162 45707,20669 46042,20669 46042,21162 45707,21162 "
       id="polyline46" />
    <polyline
       style="fill-rule:evenodd"
       points="52457,21162 52457,20669 52792,20669 52792,21162 52457,21162 "
       id="polyline48" />
    <polyline
       style="fill-rule:evenodd"
       points="52832,20330 52832,19837 53167,19837 53167,20330 52832,20330 "
       id="polyline50" />
    <polyline
       style="fill-rule:evenodd"
       points="53207,21162 53207,20669 53542,20669 53542,21162 53207,21162 "
       id="polyline52" />
    <polyline
       style="fill-rule:evenodd"
       points="50957,21162 50957,20669 51292,20669 51292,21162 50957,21162 "
       id="polyline54" />
    <polyline
       style="fill-rule:evenodd"
       points="51332,20330 51332,19837 51667,19837 51667,20330 51332,20330 "
       id="polyline56" />
    <polyline
       style="fill-rule:evenodd"
       points="51707,21162 51707,20669 52042,20669 52042,21162 51707,21162 "
       id="polyline58" />
    <polyline
       style="fill-rule:evenodd"
       points="49457,21162 49457,20669 49792,20669 49792,21162 49457,21162 "
       id="polyline60" />
    <polyline
       style="fill-rule:evenodd"
       points="49832,20330 49832,19837 50167,19837 50167,20330 49832,20330 "
       id="polyline62" />
    <polyline
       style="fill-rule:evenodd"
       points="50207,21162 50207,20669 50542,20669 50542,21162 50207,21162 "
       id="polyline64" />
    <polyline
       style="fill-rule:evenodd"
       points="41807,22283 41807,22716 41374,22716 41374,22283 41807,22283 "
       id="polyline66" />
    <polyline
       style="fill-rule:evenodd"
       points="43125,22283 43125,22716 42692,22716 42692,22283 43125,22283 "
       id="polyline68" />
    <polyline
       style="fill-rule:evenodd"
       points="52649,23975 52649,24524 52350,24524 52350,23975 52649,23975 "
       id="polyline70" />
    <polyline
       style="fill-rule:evenodd"
       points="52149,23975 52149,24524 51850,24524 51850,23975 52149,23975 "
       id="polyline72" />
    <polyline
       style="fill-rule:evenodd"
       points="51649,23975 51649,24524 51350,24524 51350,23975 51649,23975 "
       id="polyline74" />
    <polyline
       style="fill-rule:evenodd"
       points="51149,23975 51149,24524 50850,24524 50850,23975 51149,23975 "
       id="polyline76" />
    <polyline
       style="fill-rule:evenodd"
       points="50649,23975 50649,24524 50350,24524 50350,23975 50649,23975 "
       id="polyline78" />
    <polyline
       style="fill-rule:evenodd"
       points="50149,23975 50149,24524 49850,24524 49850,23975 50149,23975 "
       id="polyline80" />
    <polyline
       style="fill-rule:evenodd"
       points="49649,23975 49649,24524 49350,24524 49350,23975 49649,23975 "
       id="polyline82" />
    <polyline
       style="fill-rule:evenodd"
       points="49149,23975 49149,24524 48850,24524 48850,23975 49149,23975 "
       id="polyline84" />
    <polyline
       style="fill-rule:evenodd"
       points="49149,25975 49149,26524 48850,26524 48850,25975 49149,25975 "
       id="polyline86" />
    <polyline
       style="fill-rule:evenodd"
       points="49649,25975 49649,26524 49350,26524 49350,25975 49649,25975 "
       id="polyline88" />
    <polyline
       style="fill-rule:evenodd"
       points="50149,25975 50149,26524 49850,26524 49850,25975 50149,25975 "
       id="polyline90" />
    <polyline
       style="fill-rule:evenodd"
       points="50649,25975 50649,26524 50350,26524 50350,25975 50649,25975 "
       id="polyline92" />
    <polyline
       style="fill-rule:evenodd"
       points="51149,25975 51149,26524 50850,26524 50850,25975 51149,25975 "
       id="polyline94" />
    <polyline
       style="fill-rule:evenodd"
       points="51649,25975 51649,26524 51350,26524 51350,25975 51649,25975 "
       id="polyline96" />
    <polyline
       style="fill-rule:evenodd"
       points="52149,25975 52149,26524 51850,26524 51850,25975 52149,25975 "
       id="polyline98" />
    <polyline
       style="fill-rule:evenodd"
       points="52649,25975 52649,26524 52350,26524 52350,25975 52649,25975 "
       id="polyline100" />
    <polyline
       style="fill-rule:evenodd"
       points="51870,19420 51129,19420 51129,18879 51870,18879 51870,19420 "
       id="polyline102" />
    <polyline
       style="fill-rule:evenodd"
       points="51870,18120 51129,18120 51129,17579 51870,17579 51870,18120 "
       id="polyline104" />
    <polyline
       style="fill-rule:evenodd"
       points="48870,19420 48129,19420 48129,18879 48870,18879 48870,19420 "
       id="polyline106" />
    <polyline
       style="fill-rule:evenodd"
       points="48870,18120 48129,18120 48129,17579 48870,17579 48870,18120 "
       id="polyline108" />
    <polyline
       style="fill-rule:evenodd"
       points="50370,19420 49629,19420 49629,18879 50370,18879 50370,19420 "
       id="polyline110" />
    <polyline
       style="fill-rule:evenodd"
       points="50370,18120 49629,18120 49629,17579 50370,17579 50370,18120 "
       id="polyline112" />
    <polyline
       style="fill-rule:evenodd"
       points="47370,19420 46629,19420 46629,18879 47370,18879 47370,19420 "
       id="polyline114" />
    <polyline
       style="fill-rule:evenodd"
       points="47370,18120 46629,18120 46629,17579 47370,17579 47370,18120 "
       id="polyline116" />
    <polyline
       style="fill-rule:evenodd"
       points="53370,19420 52629,19420 52629,18879 53370,18879 53370,19420 "
       id="polyline118" />
    <polyline
       style="fill-rule:evenodd"
       points="53370,18120 52629,18120 52629,17579 53370,17579 53370,18120 "
       id="polyline120" />
    <polyline
       style="fill-rule:evenodd"
       points="54870,19420 54129,19420 54129,18879 54870,18879 54870,19420 "
       id="polyline122" />
    <polyline
       style="fill-rule:evenodd"
       points="54870,18120 54129,18120 54129,17579 54870,17579 54870,18120 "
       id="polyline124" />
    <polyline
       style="fill-rule:evenodd"
       points="56370,19420 55629,19420 55629,18879 56370,18879 56370,19420 "
       id="polyline126" />
    <polyline
       style="fill-rule:evenodd"
       points="56370,18120 55629,18120 55629,17579 56370,17579 56370,18120 "
       id="polyline128" />
    <polyline
       style="fill-rule:evenodd"
       points="45870,19420 45129,19420 45129,18879 45870,18879 45870,19420 "
       id="polyline130" />
    <polyline
       style="fill-rule:evenodd"
       points="45870,18120 45129,18120 45129,17579 45870,17579 45870,18120 "
       id="polyline132" />
    <polyline
       style="fill-rule:evenodd"
       points="42524,16224 41975,16224 41975,15875 42524,15875 42524,16224 "
       id="polyline134" />
    <polyline
       style="fill-rule:evenodd"
       points="42524,15624 41975,15624 41975,15275 42524,15275 42524,15624 "
       id="polyline136" />
    <polyline
       style="fill-rule:evenodd"
       points="55725,21525 56274,21525 56274,21874 55725,21874 55725,21525 "
       id="polyline138" />
    <polyline
       style="fill-rule:evenodd"
       points="55725,22125 56274,22125 56274,22474 55725,22474 55725,22125 "
       id="polyline140" />
    <polyline
       style="fill-rule:evenodd"
       points="39725,21275 40274,21275 40274,21624 39725,21624 39725,21275 "
       id="polyline142" />
    <polyline
       style="fill-rule:evenodd"
       points="39725,21875 40274,21875 40274,22224 39725,22224 39725,21875 "
       id="polyline144" />
    <polyline
       style="fill-rule:evenodd"
       points="54225,21525 54774,21525 54774,21874 54225,21874 54225,21525 "
       id="polyline146" />
    <polyline
       style="fill-rule:evenodd"
       points="54225,22125 54774,22125 54774,22474 54225,22474 54225,22125 "
       id="polyline148" />
    <polyline
       style="fill-rule:evenodd"
       points="52725,21525 53274,21525 53274,21874 52725,21874 52725,21525 "
       id="polyline150" />
    <polyline
       style="fill-rule:evenodd"
       points="52725,22125 53274,22125 53274,22474 52725,22474 52725,22125 "
       id="polyline152" />
    <polyline
       style="fill-rule:evenodd"
       points="51225,21525 51774,21525 51774,21874 51225,21874 51225,21525 "
       id="polyline154" />
    <polyline
       style="fill-rule:evenodd"
       points="51225,22125 51774,22125 51774,22474 51225,22474 51225,22125 "
       id="polyline156" />
    <polyline
       style="fill-rule:evenodd"
       points="42524,14724 41975,14724 41975,14375 42524,14375 42524,14724 "
       id="polyline158" />
    <polyline
       style="fill-rule:evenodd"
       points="42524,14124 41975,14124 41975,13775 42524,13775 42524,14124 "
       id="polyline160" />
    <polyline
       style="fill-rule:evenodd"
       points="41774,16224 41225,16224 41225,15875 41774,15875 41774,16224 "
       id="polyline162" />
    <polyline
       style="fill-rule:evenodd"
       points="41774,15624 41225,15624 41225,15275 41774,15275 41774,15624 "
       id="polyline164" />
    <polyline
       style="fill-rule:evenodd"
       points="49725,21525 50274,21525 50274,21874 49725,21874 49725,21525 "
       id="polyline166" />
    <polyline
       style="fill-rule:evenodd"
       points="49725,22125 50274,22125 50274,22474 49725,22474 49725,22125 "
       id="polyline168" />
    <polyline
       style="fill-rule:evenodd"
       points="41774,14724 41225,14724 41225,14375 41774,14375 41774,14724 "
       id="polyline170" />
    <polyline
       style="fill-rule:evenodd"
       points="41774,14124 41225,14124 41225,13775 41774,13775 41774,14124 "
       id="polyline172" />
    <polyline
       style="fill-rule:evenodd"
       points="53025,26524 53025,25975 53374,25975 53374,26524 53025,26524 "
       id="polyline174" />
    <polyline
       style="fill-rule:evenodd"
       points="53625,26524 53625,25975 53974,25975 53974,26524 53625,26524 "
       id="polyline176" />
    <polyline
       style="fill-rule:evenodd"
       points="48225,21525 48774,21525 48774,21874 48225,21874 48225,21525 "
       id="polyline178" />
    <polyline
       style="fill-rule:evenodd"
       points="48225,22125 48774,22125 48774,22474 48225,22474 48225,22125 "
       id="polyline180" />
    <polyline
       style="fill-rule:evenodd"
       points="45225,21525 45774,21525 45774,21874 45225,21874 45225,21525 "
       id="polyline182" />
    <polyline
       style="fill-rule:evenodd"
       points="45225,22125 45774,22125 45774,22474 45225,22474 45225,22125 "
       id="polyline184" />
    <polyline
       style="fill-rule:evenodd"
       points="46725,21525 47274,21525 47274,21874 46725,21874 46725,21525 "
       id="polyline186" />
    <polyline
       style="fill-rule:evenodd"
       points="46725,22125 47274,22125 47274,22474 46725,22474 46725,22125 "
       id="polyline188" />
    <polyline
       style="fill-rule:evenodd"
       points="40804,21570 40804,20429 41395,20429 41395,21570 40804,21570 "
       id="polyline190" />
    <polyline
       style="fill-rule:evenodd"
       points="40829,19670 40829,17329 43170,17329 43170,19670 40829,19670 "
       id="polyline192" />
    <polyline
       style="fill-rule:evenodd"
       points="42604,21570 42604,20429 43195,20429 43195,21570 42604,21570 "
       id="polyline194" />
    <polyline
       style="fill-rule:evenodd"
       points="42001,24291 40998,24291 40998,23346 42001,23346 42001,24291 "
       id="polyline196" />
    <polyline
       style="fill-rule:evenodd"
       points="42218,26653 40781,26653 40781,25708 42218,25708 42218,26653 "
       id="polyline198" />
    <polyline
       style="fill-rule:evenodd"
       points="43725,21275 44274,21275 44274,21624 43725,21624 43725,21275 "
       id="polyline200" />
    <polyline
       style="fill-rule:evenodd"
       points="43725,21875 44274,21875 44274,22224 43725,22224 43725,21875 "
       id="polyline202" />
    <polyline
       style="fill-rule:evenodd"
       points="55307,26783 55307,27216 54874,27216 54874,26783 55307,26783 "
       id="polyline204" />
    <polyline
       style="fill-rule:evenodd"
       points="56625,26783 56625,27216 56192,27216 56192,26783 56625,26783 "
       id="polyline206" />
    <polyline
       style="fill-rule:evenodd"
       points="47192,27216 47192,26783 47625,26783 47625,27216 47192,27216 "
       id="polyline208" />
    <polyline
       style="fill-rule:evenodd"
       points="45874,27216 45874,26783 46307,26783 46307,27216 45874,27216 "
       id="polyline210" />
    <polyline
       style="fill-rule:evenodd"
       points="47192,25716 47192,25283 47625,25283 47625,25716 47192,25716 "
       id="polyline212" />
    <polyline
       style="fill-rule:evenodd"
       points="45874,25716 45874,25283 46307,25283 46307,25716 45874,25716 "
       id="polyline214" />
    <polyline
       style="fill-rule:evenodd"
       points="55307,26033 55307,26466 54874,26466 54874,26033 55307,26033 "
       id="polyline216" />
    <polyline
       style="fill-rule:evenodd"
       points="56625,26033 56625,26466 56192,26466 56192,26033 56625,26033 "
       id="polyline218" />
    <polyline
       style="fill-rule:evenodd"
       points="47192,26466 47192,26033 47625,26033 47625,26466 47192,26466 "
       id="polyline220" />
    <polyline
       style="fill-rule:evenodd"
       points="45874,26466 45874,26033 46307,26033 46307,26466 45874,26466 "
       id="polyline222" />
    <polyline
       style="fill-rule:evenodd"
       points="52024,27974 51475,27974 51475,27625 52024,27625 52024,27974 "
       id="polyline224" />
    <polyline
       style="fill-rule:evenodd"
       points="52024,27374 51475,27374 51475,27025 52024,27025 52024,27374 "
       id="polyline226" />
    <polyline
       style="fill-rule:evenodd"
       points="50524,27974 49975,27974 49975,27625 50524,27625 50524,27974 "
       id="polyline228" />
    <polyline
       style="fill-rule:evenodd"
       points="50524,27374 49975,27374 49975,27025 50524,27025 50524,27374 "
       id="polyline230" />
    <polyline
       style="fill-rule:evenodd"
       points="49774,27974 49225,27974 49225,27625 49774,27625 49774,27974 "
       id="polyline232" />
    <polyline
       style="fill-rule:evenodd"
       points="49774,27374 49225,27374 49225,27025 49774,27025 49774,27374 "
       id="polyline234" />
    <polyline
       style="fill-rule:evenodd"
       points="51274,27974 50725,27974 50725,27625 51274,27625 51274,27974 "
       id="polyline236" />
    <polyline
       style="fill-rule:evenodd"
       points="51274,27374 50725,27374 50725,27025 51274,27025 51274,27374 "
       id="polyline238" />
    <polyline
       style="fill-rule:evenodd"
       points="48475,27025 49024,27025 49024,27374 48475,27374 48475,27025 "
       id="polyline240" />
    <polyline
       style="fill-rule:evenodd"
       points="48475,27625 49024,27625 49024,27974 48475,27974 48475,27625 "
       id="polyline242" />
  </g>
</svg>
