G04 (created by PCBNEW (2013-may-18)-stable) date Tue 21 Oct 2014 07:01:45 PM CEST*
%MOIN*%
G04 Gerber Fmt 3.4, Leading zero omitted, Abs format*
%FSLAX34Y34*%
G01*
G70*
G90*
G04 APERTURE LIST*
%ADD10C,0.00590551*%
%ADD11C,0.0689*%
%ADD12C,0.055*%
%ADD13R,0.0394X0.0236*%
%ADD14R,0.0335X0.0335*%
%ADD15R,0.0236X0.0551*%
%ADD16R,0.08X0.06*%
%ADD17R,0.025X0.045*%
%ADD18R,0.045X0.025*%
%ADD19C,0.1437*%
%ADD20R,0.0591X0.0591*%
%ADD21C,0.0591*%
%ADD22C,0.0984252*%
%ADD23R,0.12X0.065*%
%ADD24R,0.24X0.24*%
%ADD25R,0.1004X0.1063*%
%ADD26R,0.1004X0.1496*%
%ADD27R,0.1X0.1*%
%ADD28C,0.1*%
%ADD29R,0.02X0.045*%
%ADD30R,0.055X0.055*%
%ADD31C,0.177165*%
%ADD32R,0.2677X0.2461*%
%ADD33R,0.1181X0.0319*%
%ADD34C,0.1575*%
G04 APERTURE END LIST*
G54D10*
G54D11*
X67234Y-31008D03*
X66250Y-31992D03*
X65266Y-31008D03*
G54D12*
X73500Y-27000D03*
X75500Y-27000D03*
X73500Y-30000D03*
X75500Y-30000D03*
G54D13*
X62084Y-30125D03*
X62916Y-30500D03*
X62084Y-30875D03*
G54D14*
X70409Y-21500D03*
X69091Y-21500D03*
G54D15*
X66000Y-27800D03*
X66000Y-25700D03*
X65500Y-27800D03*
X65000Y-27800D03*
X64500Y-27800D03*
X65500Y-25700D03*
X65000Y-25700D03*
X64500Y-25700D03*
G54D16*
X54500Y-31350D03*
X54500Y-32650D03*
G54D17*
X74950Y-25000D03*
X75550Y-25000D03*
G54D18*
X68750Y-29450D03*
X68750Y-30050D03*
X66000Y-28950D03*
X66000Y-29550D03*
X70500Y-29450D03*
X70500Y-30050D03*
G54D17*
X73700Y-25000D03*
X74300Y-25000D03*
G54D18*
X66000Y-24450D03*
X66000Y-25050D03*
X62500Y-28950D03*
X62500Y-29550D03*
X67000Y-26450D03*
X67000Y-27050D03*
X67000Y-27700D03*
X67000Y-28300D03*
X68250Y-25050D03*
X68250Y-24450D03*
G54D17*
X60950Y-33000D03*
X61550Y-33000D03*
G54D18*
X61750Y-28950D03*
X61750Y-29550D03*
G54D17*
X71300Y-19250D03*
X70700Y-19250D03*
G54D18*
X64500Y-24450D03*
X64500Y-25050D03*
G54D17*
X74950Y-24250D03*
X75550Y-24250D03*
X73700Y-24250D03*
X74300Y-24250D03*
X74950Y-23500D03*
X75550Y-23500D03*
X73700Y-23500D03*
X74300Y-23500D03*
X71300Y-23500D03*
X70700Y-23500D03*
G54D19*
X51000Y-29000D03*
X51000Y-24500D03*
G54D20*
X53500Y-25000D03*
G54D21*
X54500Y-25500D03*
X53500Y-26000D03*
X54500Y-26500D03*
X53500Y-27000D03*
X54500Y-27500D03*
X53500Y-28000D03*
X54500Y-28500D03*
G54D22*
X52200Y-23700D03*
X52200Y-29800D03*
G54D23*
X72000Y-20600D03*
G54D24*
X74500Y-21500D03*
G54D23*
X72000Y-22400D03*
G54D25*
X67431Y-22500D03*
G54D26*
X65069Y-22500D03*
G54D25*
X61069Y-22500D03*
G54D26*
X63431Y-22500D03*
G54D27*
X65250Y-19000D03*
G54D28*
X63250Y-19000D03*
G54D29*
X62250Y-25650D03*
X61750Y-25650D03*
X61250Y-25650D03*
X60750Y-25650D03*
X60250Y-25650D03*
X59750Y-25650D03*
X59250Y-25650D03*
X59250Y-27750D03*
X59750Y-27750D03*
X60250Y-27750D03*
X60750Y-27750D03*
X61250Y-27750D03*
X61750Y-27750D03*
X62250Y-27750D03*
G54D30*
X57250Y-32000D03*
G54D12*
X58250Y-32000D03*
X59250Y-32000D03*
X60250Y-32000D03*
X61250Y-32000D03*
X62250Y-32000D03*
X63250Y-32000D03*
G54D31*
X48250Y-19000D03*
X77750Y-19000D03*
X77750Y-33000D03*
X48250Y-33000D03*
G54D14*
X61841Y-24250D03*
X63159Y-24250D03*
X59159Y-23750D03*
X57841Y-23750D03*
X56750Y-29091D03*
X56750Y-30409D03*
X57750Y-29091D03*
X57750Y-30409D03*
G54D17*
X57300Y-25000D03*
X56700Y-25000D03*
X57300Y-26000D03*
X56700Y-26000D03*
X57300Y-27000D03*
X56700Y-27000D03*
X57300Y-28000D03*
X56700Y-28000D03*
G54D29*
X68250Y-27850D03*
X68750Y-27850D03*
X69250Y-27850D03*
X69750Y-27850D03*
X70250Y-27850D03*
X70750Y-27850D03*
X71250Y-27850D03*
X71250Y-25750D03*
X70750Y-25750D03*
X70250Y-25750D03*
X69750Y-25750D03*
X69250Y-25750D03*
X68750Y-25750D03*
X68250Y-25750D03*
G54D32*
X74500Y-32000D03*
G54D33*
X71902Y-31000D03*
X71902Y-31500D03*
X71902Y-32500D03*
X71902Y-33000D03*
G54D34*
X50250Y-21000D03*
X59250Y-21000D03*
M02*
